<svg width="170" height="140" fill="none" xmlns="http://www.w3.org/2000/svg" viewBox="0 0 170 140">
    <path d="M138.707 42.723c-1.447 1.788-4.252 2.796-6.518 3.156 2.156.18 4.552.48 5.919 2.157a7.781 7.781 0 0 1 1.268 2.827 101.465 101.465 0 0 1 1.547 5.993c.41-1.788.919-3.556 1.498-5.304.2-.671.496-1.31.878-1.898 1.398-1.937 4.173-2.097 6.559-2.077a98.06 98.06 0 0 1-3.484-2.237 12.492 12.492 0 0 1-2.097-1.658c-2.206-2.308-2.495-5.774-2.675-8.99 0 .05-1.008 5.703-2.895 8.03z" fill="#F0D227"/>
    <path d="M137.909 41.934a9.981 9.981 0 0 1-5.989 2.867c-1.328.22-.869 2.107.299 2.207 2.136.18 4.592.46 5.59 2.647a38.859 38.859 0 0 1 2.056 7.51 1.13 1.13 0 0 0 2.167 0 58.28 58.28 0 0 1 .998-3.685 8.992 8.992 0 0 1 1.397-3.376c1.288-1.468 3.694-1.408 5.471-1.398a1.128 1.128 0 0 0 .569-2.088c-2.177-1.338-4.991-2.676-6.269-4.994-1.168-2.077-1.298-4.584-1.438-6.901-.07-1.189-1.996-1.618-2.206-.3-.439 2.457-.998 5.474-2.605 7.491-.869 1.129.709 2.727 1.597 1.588 1.827-2.367 2.655-5.573 3.174-8.48l-2.206-.3c.16 2.727.37 5.604 1.747 7.991 1.508 2.677 4.542 4.235 7.068 5.783l.569-2.097c-2.356 0-4.992.13-6.848 1.838a7.685 7.685 0 0 0-1.797 3.375 52.618 52.618 0 0 0-1.378 4.895h2.167c-.36-1.605-.759-3.21-1.198-4.815a13.06 13.06 0 0 0-1.617-4.145c-1.618-2.237-4.443-2.627-6.988-2.846l.3 2.207a11.798 11.798 0 0 0 6.987-3.446c.908-1.029-.669-2.627-1.617-1.528z" fill="#333"/>
    <path d="M65.248 12.13H11.803a2.734 2.734 0 0 0-2.735 2.737V44.64a2.738 2.738 0 0 0 2.736 2.727h17.758c2.356 3.995 3.893 8.48 4.841 5.763.739-2.128-.22-3.995.5-5.763h30.345a2.724 2.724 0 0 0 2.726-2.727V14.887a2.74 2.74 0 0 0-1.677-2.544 2.735 2.735 0 0 0-1.049-.213z" fill="#fff"/>
    <path d="M65.248 11.031H18.332c-2.127 0-4.273-.07-6.409 0A3.992 3.992 0 0 0 8 15.026v29.036c0 1.997.809 3.825 2.885 4.364 1.347.213 2.715.257 4.073.13H29.61l-.998-.56c.998 1.629 1.757 3.347 2.706 4.995.499.849 1.137 1.997 2.216 2.137 3.234.42 1.936-5.813 2.465-7.39l-1.078.828h28.56c1.866 0 3.802.08 4.99-1.728.879-1.338.65-3.116.65-4.644V14.906a3.997 3.997 0 0 0-3.854-3.875c-1.447-.09-1.437 2.157 0 2.247 1.997.12 1.607 2.447 1.607 3.836v23.971c0 1.179.1 2.427 0 3.606-.18 1.907-1.996 1.628-3.394 1.628H34.902a1.157 1.157 0 0 0-1.088.819 7.566 7.566 0 0 0-.29 2.876c0 .51.07 1 0 1.548-.144.495-.255.999-.329 1.509l.739-.12s-.22-.25-.25-.31c-.17-.36-.429-.689-.629-.999-.549-.998-.998-1.997-1.567-2.996-.569-.999-.928-2.247-2.196-2.287H13.211c-1.348 0-2.935.11-2.995-1.748-.05-1.159 0-2.327 0-3.486V26.183c0-3.666-.09-7.341 0-10.987.06-2.477 2.995-1.908 4.692-1.908h27.46c7.498 0 14.974.17 22.49 0h.39a1.128 1.128 0 0 0 0-2.257z" fill="#333"/>
    <path d="M24.72 31.317a3.145 3.145 0 0 0 3.145-3.146 3.145 3.145 0 1 0-3.144 3.146zM38.526 31.317a3.145 3.145 0 0 0 3.144-3.146 3.145 3.145 0 1 0-3.144 3.146zM52.321 31.317a3.145 3.145 0 0 0 3.145-3.146 3.145 3.145 0 1 0-3.145 3.146z" fill="#333"/>
    <path d="m45.493 73.755-1.827-6.282a.869.869 0 0 0-.25-.46.848.848 0 0 0-.588-.06 322.818 322.818 0 0 0-15.333 2.567 6.552 6.552 0 0 0 4.472 3.546c1.931.411 3.913.529 5.88.35a8.74 8.74 0 0 0 2.994 4.454" fill="#fff"/>
    <path d="M46.581 73.466c-.599-1.997-1.148-4.095-1.777-6.122-.26-.83-.718-1.509-1.667-1.529a17.558 17.558 0 0 0-3.044.41 397.358 397.358 0 0 0-12.887 2.207 1.137 1.137 0 0 0-.67 1.648c1.937 4.375 7.218 4.635 11.32 4.465l-1.087-.83a10.168 10.168 0 0 0 3.254 4.995c1.108.919 2.705-.67 1.587-1.588a8.07 8.07 0 0 1-2.675-3.995 1.128 1.128 0 0 0-1.078-.82c-3.324.14-7.787.26-9.384-3.345l-.668 1.648a354.33 354.33 0 0 1 11.14-1.938l2.785-.43c.11 0 1.307-.15 1.307-.18-.439-.419-.559-.399-.349 0l.19.66 1.537 5.294a1.128 1.128 0 0 0 2.166-.59v.04z" fill="#333"/>
    <path d="M80.6 62.869c-5.989-1.518-25.694 17.978-25.694 21.554 0 1.998 1.637 4.105 3.394 5.993a4.85 4.85 0 0 0 6.17.689l8.394-2.607.859 1.289s-.998 19.626 2.935 38.134h57.407s2.606-49.021-18.816-60.138C93.827 56.666 80.71 63.438 80.71 63.438" fill="#DF357F"/>
    <path d="M80.9 61.79c-3.094-.708-6.538 1.699-8.934 3.347a75.508 75.508 0 0 0-10.77 9.179c-2.456 2.467-5.271 5.194-6.859 8.33-.898 1.768-.469 3.506.53 5.184 1.647 2.796 4.232 5.593 7.756 5.094a16.28 16.28 0 0 0 2.725-1l2.795-.868 4.991-1.548-1.268-.52.56.83c.08.147.173.288.279.419-.16 0 0-.66-.14-.47-.14.19 0 .81 0 1-.05 1.727-.08 3.455-.07 5.183-.022 6.392.311 12.781.998 19.137a131.878 131.878 0 0 0 2.117 13.094 1.132 1.132 0 0 0 1.078.819h57.408a1.149 1.149 0 0 0 1.128-1.118 127.153 127.153 0 0 0-2.516-32.362c-1.597-7.59-4.073-15.441-8.814-21.704a24.574 24.574 0 0 0-7.846-6.991 55.95 55.95 0 0 0-17.769-6.123 38.01 38.01 0 0 0-13.236.13c-1.688.29-3.327.81-4.872 1.548-1.277.66-.15 2.597 1.138 1.938l.22-.11h.07l.489-.19a22.803 22.803 0 0 1 2.705-.809 33.2 33.2 0 0 1 10.372-.61 50.27 50.27 0 0 1 16.53 4.615 25.953 25.953 0 0 1 9.533 6.842c4.772 5.683 7.248 13.114 8.885 20.236a120.299 120.299 0 0 1 2.775 21.774c.179 3.915.259 7.87.06 11.786l1.118-1.129H76.658l1.088.829A152.612 152.612 0 0 1 74.8 90.886c.02-.376.02-.753 0-1.129a4.516 4.516 0 0 0-.998-1.897 1.139 1.139 0 0 0-1.268-.51c-2.705.84-5.45 1.608-8.135 2.517-.73.37-1.5.651-2.297.84-1.756.159-2.894-.92-3.992-2.158-1.098-1.239-2.156-2.597-2.146-4.155 0 .08 0 0 .06-.23a2.6 2.6 0 0 1 .239-.52 34.765 34.765 0 0 1 5.99-7.31 79.07 79.07 0 0 1 9.453-8.35 33.78 33.78 0 0 1 4.99-3.167 6.326 6.326 0 0 1 3.494-.889c1.408.32 1.997-1.838.6-2.167l.11.03z" fill="#333"/>
    <path d="M113.592 66.145c4.642 1.199 7.886 5.274 10.661 9.18 5.121 7.23 9.863 14.842 12.738 23.231-1.348 0-2.366 1.14-3.424 1.998-2.416 1.928-5.66 2.357-8.625 3.256-4.202 1.269-8.245 3.606-12.637 3.396a1.34 1.34 0 0 1-.839-.25 1.408 1.408 0 0 1-.359-.998 70.85 70.85 0 0 1-.33-8.11 1.395 1.395 0 0 1 .18-.78c.199-.231.47-.39.769-.45a123.038 123.038 0 0 0 11.859-3.934c-.769-2.667-8.735-23.113-10.891-26.748M79.084 63.808a171.27 171.27 0 0 0 16.27 34.13c1.737-11.607 8.396-21.775 13.596-32.282a1.518 1.518 0 0 0 .21-1.279c-.26-.55-.998-.579-1.577-.699-1.258-.26-2.236-1.208-3.354-1.828-2.655-1.468-5.91-.998-8.894-.48l-15.343 2.698" fill="#fff"/>
    <path d="M78.005 64.067a173.836 173.836 0 0 0 16.381 34.389c.46.749 1.897.749 2.056-.26 1.428-9.23 5.86-17.48 10.172-25.62 1.088-2.057 2.197-4.105 3.215-6.202.778-1.618.609-3.206-1.338-3.706a8.202 8.202 0 0 1-2.715-1.208 9.988 9.988 0 0 0-2.755-1.349 15.066 15.066 0 0 0-6.339-.13c-5.68.82-11.33 1.938-16.97 2.907-1.427.25-.818 2.417.59 2.167l13.904-2.397a30.726 30.726 0 0 1 6.12-.699c1.03.006 2.049.22 2.994.63.889.419 1.637 1.068 2.486 1.538.363.2.744.368 1.138.499.209.07.998.07 1.128.25.13.18 0 0-.16.36-.16.359-.19.389-.289.589-.26.519-.519.998-.789 1.548-.998 1.877-1.996 3.745-2.995 5.613-1.936 3.666-3.853 7.341-5.5 11.147a55.895 55.895 0 0 0-4.073 13.464l1.997-.27a171.604 171.604 0 0 1-16.151-33.86c-.47-1.358-2.646-.769-2.167.6h.06z" fill="#333"/>
    <path d="M82.328 67.753A88.577 88.577 0 0 0 86.45 85.42a46.962 46.962 0 0 0 3.673 7.821c.998 1.708 2.995 5.584 5.51 4.085a1.123 1.123 0 0 0-.278-2.053 1.118 1.118 0 0 0-.85.116c-.579.34-3.504-5.164-3.843-5.843a48.142 48.142 0 0 1-2.925-7.312 98.49 98.49 0 0 1-3.244-15.082c-.22-1.428-2.376-.819-2.166.6zM91.92 99.695c-.06 8.989.71 18.058 1.119 27.077.06 1.438 2.316 1.448 2.246 0-.41-8.989-1.178-18.048-1.118-27.078a1.129 1.129 0 0 0-2.246 0z" fill="#333"/>
    <path d="M89.006 64.567a22.595 22.595 0 0 0-.38 3.995.7.7 0 0 0 .14.51.688.688 0 0 0 .58.09l5.5-.75a.779.779 0 0 0 .499-.2.76.76 0 0 0 .07-.608l-.58-3.576a.63.63 0 0 0-.12-.33c-.149-.17-.409-.13-.628-.08l-3.993.92" fill="#F0D227"/>
    <path d="M87.918 64.267c-.15.83-.26 1.658-.33 2.497 0 .39-.06.78-.07 1.169-.038.406-.021.816.05 1.218a1.538 1.538 0 0 0 .999 1.099c.477.105.97.105 1.447 0l2.416-.33 2.416-.33c.35-.02.691-.118.998-.289a1.598 1.598 0 0 0 .719-1.478c0-.84-.26-1.688-.39-2.507l-.19-1.129a1.998 1.998 0 0 0-.508-1.258c-.79-.77-1.997-.26-2.935-.05l-2.706.64a1.12 1.12 0 0 0 .6 2.157l3.683-.86.27-.06c.11 0 .05 0 0 0s-.69-.609-.71-.539c-.01.06-.01.12 0 .18.06.3.1.62.15.929l.3 1.848.08.47v.199c0 .1.08.16 0 0v.06c0 .18.07.09.25-.28.428-.56.339-.32.159-.3l-.45.07-1.886.26-1.877.25-.818.16-.4.06h-.05.1l.5.469s0 .25 0 0v-.78c0-.349 0-.698.07-.998.048-.636.132-1.27.25-1.898a1.13 1.13 0 0 0-2.167-.599l.03-.05z" fill="#333"/>
    <path d="M89.256 70.12c-.759 2.628-.09 15.552-.38 18.279-.08.466-.08.942 0 1.408.157.542.418 1.047.769 1.489 1.288 1.837 1.996 8.51 3.394 10.257 1.208-2.916 2.805-10.817 3.504-13.893.071-.25.098-.51.08-.77a2.518 2.518 0 0 0-.34-.788c-1.148-2.078-2.815-14.663-3.274-16.98l-3.184.55" fill="#F0D227"/>
    <path d="M88.167 69.82a21.385 21.385 0 0 0-.4 5.054v7.301c0 1.928.1 3.866 0 5.793a5.815 5.815 0 0 0 .91 3.896c.46.87.796 1.802.997 2.766.62 2.377.869 5.464 2.376 7.481a1.131 1.131 0 0 0 1.64.228c.163-.13.285-.302.357-.497a47.448 47.448 0 0 0 1.996-7.212c.32-1.368.619-2.746.918-4.125.354-1.113.581-2.262.68-3.426a8.525 8.525 0 0 0-.79-2.407c-.269-.899-.469-1.817-.658-2.736-.48-2.358-.859-4.725-1.238-7.102-.32-1.998-.579-3.995-.998-5.993a1.129 1.129 0 0 0-1.378-.779l-3.184.54c-1.418.25-.819 2.417.599 2.167l3.184-.54-1.387-.788c.998 4.994 1.397 10.167 2.665 15.132.24.938.908 2.077.828 2.996a34.28 34.28 0 0 1-.998 4.335 59.088 59.088 0 0 1-2.515 9.358l2.056-.269a10.373 10.373 0 0 1-1.358-3.746c-.379-1.478-.688-2.996-1.137-4.434a10.07 10.07 0 0 0-.71-1.768 4.286 4.286 0 0 1-.818-2.637c.05-.9.08-1.778.08-2.677 0-2.856-.08-5.723-.08-8.59 0-2.147-.23-4.614.33-6.722a1.13 1.13 0 0 0-1.624-1.192c-.25.127-.443.342-.543.603l.2-.01z" fill="#333"/>
    <path d="m40.342 79.32-1.118-1.269a.46.46 0 0 1-.15-.28.49.49 0 0 1 .19-.31 136.594 136.594 0 0 1 6.908-5.772.399.399 0 0 1 .22-.1.408.408 0 0 1 .25.13l.997.999a.559.559 0 0 1 .19.27.53.53 0 0 1-.18.399 27.554 27.554 0 0 1-6.987 5.923l.34.07" fill="#fff"/>
    <path d="m41.131 78.52-.609-.679-.28-.31-.11-.12c-.169-.189-.159-.159 0 .09v.6c-.139.22-.129.25 0 .08l.25-.23.37-.33.878-.769c.57-.489 1.138-.998 1.717-1.458.58-.46 1.158-.999 1.737-1.428l.918-.73.39-.309.27-.21c.179-.13.169-.14 0 0h-.6c-.13 0-.349-.27-.13 0 .092.095.189.185.29.27.156.184.334.348.53.49l.109.11v-.92c-.06 0-.16.18-.2.23l-.449.51a32.552 32.552 0 0 1-1.917 1.917 26.527 26.527 0 0 1-4.192 3.087 1.138 1.138 0 0 0 .27 2.057l.339.06a1.127 1.127 0 0 0 1.21-1.623 1.129 1.129 0 0 0-.611-.544l-.34-.06.27 2.047a30.452 30.452 0 0 0 4.192-2.996 29.324 29.324 0 0 0 1.807-1.718c.28-.29.55-.58.809-.889.377-.341.671-.765.858-1.239.28-1.048-.788-1.777-1.467-2.387a1.488 1.488 0 0 0-1.398-.48 4.092 4.092 0 0 0-1.367.91 118.534 118.534 0 0 0-4.253 3.496c-.399.35-.798.689-1.188.998-.442.315-.83.7-1.148 1.14-.678 1.168.72 2.216 1.408 2.995a1.122 1.122 0 1 0 1.587-1.588l.05-.07z" fill="#333"/>
    <path d="M106.046 100.644a1.839 1.839 0 0 1-.36-2.437c.34-.442.807-.77 1.338-.938 1.108-.43 2.585-.44 3.274.529 0 0 .998 7.641 1.996 11.426l-6.049.999c-.509.09-1.198.09-1.377-.4-.08-.219 0-.489-.16-.679a1.153 1.153 0 0 0-.479-.249 2.202 2.202 0 0 1-.909-.799 2.743 2.743 0 0 1-.569-1.479 1.441 1.441 0 0 1 .749-1.328 2.692 2.692 0 0 1-1.198-1.998c.06-.999 1.218-1.598 2.206-1.937l2.476-.849" fill="#fff"/>
    <path d="M106.844 99.855c-1.337-1.169 1.767-2.397 2.666-1.259l-.29-.499c.45 3.843 1.117 7.658 1.996 11.426l.779-1.378-3.274.569-1.767.3a7.265 7.265 0 0 0-1.208.19s.3.789.15 0a2.011 2.011 0 0 0-.22-.59c-.279-.449-.718-.499-1.118-.789-.399-.289-.998-1.228-.489-1.538.148-.087.275-.207.37-.35a1.14 1.14 0 0 0 .127-.984 1.128 1.128 0 0 0-.267-.434c-.26-.229-.919-.699-.869-1.108 0-.24.36-.42.549-.53a18.969 18.969 0 0 1 3.304-1.208c1.358-.47.769-2.637-.598-2.168-1.528.52-3.564.889-4.722 2.108a2.58 2.58 0 0 0-.739 2.247 3.997 3.997 0 0 0 1.488 2.247l.229-1.757a2.738 2.738 0 0 0-.998 3.505 4.2 4.2 0 0 0 1.188 1.658c.148.13.313.241.489.33l.22.1c.179.11.189.07 0-.1-.11-.479-.08.17 0 .31.056.183.143.356.259.509.869 1.199 2.566.669 3.753.459l4.792-.829a1.151 1.151 0 0 0 .789-1.388 90.349 90.349 0 0 1-1.668-9.06 22.65 22.65 0 0 0-.339-2.346 2.615 2.615 0 0 0-1.877-1.469 4.679 4.679 0 0 0-2.645.12 3.628 3.628 0 0 0-2.525 2.317 2.989 2.989 0 0 0 .898 2.997c1.078.999 2.675-.639 1.587-1.588l-.02-.02z" fill="#333"/>
    <path d="m92.47 64.487 1.996 6.283c.044.192.141.368.28.51.186.129.414.183.639.15a7.713 7.713 0 0 0 3.124-1c3.434-1.718 6.988-3.486 9.563-6.292a.532.532 0 0 0 .172-.689.532.532 0 0 0-.172-.19l-2.895-3.116a31.659 31.659 0 0 1-12.068 3.685" fill="#fff"/>
    <path d="m91.392 64.787 1.407 4.484c.34 1.109.52 2.787 1.807 3.196 1.288.41 2.626-.25 3.684-.739a68.09 68.09 0 0 0 3.503-1.778 28.866 28.866 0 0 0 6.289-4.305c.909-.858 1.827-1.887.859-3.086-.968-1.198-1.997-2.177-2.995-3.256a1.147 1.147 0 0 0-1.357-.18 30.63 30.63 0 0 1-11.5 3.546c-1.418.14-1.438 2.387 0 2.247a33.58 33.58 0 0 0 12.608-3.845l-1.358-.18 1.557 1.678c.48.42.914.89 1.298 1.398v-.599c.08-.23-.15.14-.22.22l-.479.47a19.032 19.032 0 0 1-2.825 2.187 46.186 46.186 0 0 1-4.442 2.517c-.729.36-1.447.749-2.196 1.079-.371.173-.76.306-1.158.399 0 0-.709.06-.43.15.28.09.13.09 0-.22l-.089-.3-1.777-5.683c-.44-1.368-2.605-.789-2.166.6h-.02z" fill="#333"/>
    <path d="M111.466 45.69c.609.07.908-.62.998-1.21 2.586-11.935-20.733-19.037-23.787-21.364-.55 2.148.728 5.903 2.695 6.992a139.383 139.383 0 0 1-15.373-1.688s2.775 7.081 5.89 8.81l26.952 9.498 2.615-.999" fill="#DF357F"/>
    <path d="M111.466 46.809c2.995-.27 2.556-5.074 1.887-7.132a15.255 15.255 0 0 0-4.452-6.372c-4.173-3.786-9.364-6.283-14.445-8.61a28.252 28.252 0 0 1-5.17-2.577 1.117 1.117 0 0 0-1.647.67c-.63 2.846.609 6.681 3.204 8.21l.569-2.098a138.802 138.802 0 0 1-15.073-1.648c-.749-.12-1.727.5-1.388 1.388 1.268 3.217 2.995 7.102 5.92 9.16 1.427.998 3.513 1.398 5.14 1.997l19.805 6.992c.843.346 1.703.649 2.576.909 1.098.27 2.365-.54 3.374-.93 1.347-.499.758-2.676-.589-2.167l-1.877.71a2.4 2.4 0 0 0-.529.2c-.519.379.409-.69.379.08h-.129a6.77 6.77 0 0 0-1.907-.68l-8.625-2.997-10.172-3.595a62.096 62.096 0 0 1-5.92-2.088c-1.217-.569-2.355-2.427-3.104-3.695a33.112 33.112 0 0 1-2.176-4.385l-1.377 1.378c5.189.86 10.42 1.437 15.672 1.728a1.128 1.128 0 0 0 .569-2.087c-1.707-.999-2.586-3.806-2.176-5.673l-1.647.669a19.215 19.215 0 0 0 3.613 1.838c2.076.998 4.163 1.897 6.21 2.936 4.321 2.197 9.173 4.844 11.978 8.99a9.5 9.5 0 0 1 1.447 3.166c.138.558.202 1.132.19 1.708 0 .25-.18 1.867-.11 1.857-1.427.13-1.437 2.377 0 2.247l-.02-.1z" fill="#333"/>
    <path d="M109.364 51.182c1.14-7.922-5.47-15.43-14.763-16.768-9.293-1.338-17.75 4-18.89 11.922-1.14 7.922 5.47 15.43 14.763 16.768 9.293 1.338 17.751-4 18.89-11.922z" fill="#fff"/>
    <path d="M108.322 50.953c-.949 5.993-6.109 9.988-11.92 11.047-6.228 1.089-13.326-1.269-17.129-6.462a11.9 11.9 0 0 1 .789-15.442c4.442-4.644 11.59-5.693 17.539-3.775 6.398 2.057 11.599 7.92 10.681 14.922-.19 1.438 2.056 1.418 2.246 0 .898-6.902-3.654-13.184-9.723-16.051-6.568-3.116-14.854-2.727-20.673 1.828a14.134 14.134 0 0 0-4.123 17.469c3.224 6.562 10.741 10.168 17.848 9.988 7.617-.18 15.383-4.994 16.631-12.985.219-1.358-1.937-1.967-2.166-.539z" fill="#333"/>
    <path d="M82.967 42.702a1.158 1.158 0 1 0-2.292-.33l-.331 2.303a1.158 1.158 0 1 0 2.292.33l.331-2.303zM97.013 43.16a1.159 1.159 0 1 0-2.292-.33l-.332 2.304a1.158 1.158 0 1 0 2.293.33l.331-2.303zM86.74 42.094a9.847 9.847 0 0 0-3.444 4.594 7.995 7.995 0 0 0-.35 1.269 2.998 2.998 0 0 0 0 1.858 1.937 1.937 0 0 0 1.528.929c.57.101 1.147.158 1.727.17 1.237.027 2.47-.159 3.643-.55a1.128 1.128 0 1 0-.599-2.167 8.98 8.98 0 0 1-3.993.41H84.962c-.109 0-.219-.06-.319-.07-.1-.01-.12 0 0 0a.42.42 0 0 1 .2.299c.18.41.1.13.13-.07v-.15c0-.05 0-.23.07-.35.07-.12.12-.459.19-.678.07-.22.07-.2.1-.29.03-.09.169-.43.069-.2.19-.438.418-.859.679-1.258l.17-.25s.27-.36.12-.18c.15-.19.309-.37.469-.54.16-.169.309-.309.469-.459l.27-.23.149-.13c-.09.07-.08.07 0 0a1.148 1.148 0 0 0 .4-1.538 1.128 1.128 0 0 0-1.538-.399l.15-.02z" fill="#333"/>
    <path d="M107.643 48.905a5.156 5.156 0 0 1 1.776-2.697 2.847 2.847 0 0 1 2.795-.08 3.526 3.526 0 0 1 1.737 2.268c.135.47.135.968 0 1.438a3.444 3.444 0 0 1-.658 1.079 12.267 12.267 0 0 1-3.255 2.786c-.316.226-.69.354-1.078.37a1.48 1.48 0 0 1-1.108-.65 4.34 4.34 0 0 1-.569-1.188" fill="#fff"/>
    <path d="M108.721 49.205c.159-.452.363-.887.609-1.298.183-.347.465-.631.809-.82.169-.1-.11 0 .07 0l.169-.05s.32-.069.18-.059h.679c.202.035.395.11.569.22.191.103.36.242.499.41l.11.139c.082.11.156.227.219.35 0 0 .14.29.09.16.05.12.09.26.13.389a1.366 1.366 0 0 1-.22 1.308 8.425 8.425 0 0 1-1.088 1.209c-.383.363-.794.697-1.228.999-.269.19-.549.38-.838.55l-.17.089-.15.08a.307.307 0 0 1-.169 0h-.08s-.11-.1 0 0-.18-.21-.13-.13a3.386 3.386 0 0 1-.379-.819 1.132 1.132 0 0 0-.526-.68 1.124 1.124 0 0 0-1.671.832c-.018.146-.008.295.031.437a4.12 4.12 0 0 0 1.527 2.288 2.584 2.584 0 0 0 2.715 0 12.98 12.98 0 0 0 3.693-3.107c.629-.7.984-1.605.999-2.547a4.628 4.628 0 0 0-.779-2.467 4.255 4.255 0 0 0-4.372-1.878c-1.937.39-2.815 2.168-3.464 3.836a1.14 1.14 0 0 0 .789 1.388 1.148 1.148 0 0 0 1.377-.789v-.04z" fill="#333"/>
    <path d="M85.972 53.27a11.543 11.543 0 0 0 5.08-.998.779.779 0 0 1 .59-.09c.22.11.26.41.28.659a4.816 4.816 0 0 1-.58 3.096 2.744 2.744 0 0 1-3.364.68 3.614 3.614 0 0 1-1.827-3.057" fill="#DF357F"/>
    <path d="M85.971 54.389c1.263.04 2.524-.109 3.743-.44.632-.19 1.252-.417 1.857-.679.17-.07-.14.07 0 0-.459 0-.738-.14-.838-.42-.09-.07 0-.07 0 0v-.07.81c.015.252.015.506 0 .759v.17c0 .07-.08.27-.12.4-.04.129.09-.15 0 0l-.03.159a1.265 1.265 0 0 1-.2.31c.2-.21 0 0-.09.07a.428.428 0 0 1-.12.11c.23-.1 0 0 0 0s-.249.09-.289.15c-.04.06.25-.09 0 0h-.16l-.269.06c-.16 0 .21 0 0 0h-.2c-.106.01-.213.01-.32 0h.05-.159l-.31-.1c-.219-.07 0 0 0 0l-.219-.12c-.08 0-.31-.22-.13-.06-.11-.1-.21-.19-.31-.3l-.119-.12c-.14-.16.06.1 0 0s-.15-.22-.21-.33a.798.798 0 0 1-.08-.16s-.13-.3 0 0l-.12-.33c0-.139-.07-.279-.099-.419-.03-.14-.07-.18 0 0a2.25 2.25 0 0 1 0-.26 1.13 1.13 0 0 0-1.123-1.234 1.128 1.128 0 0 0-1.123 1.235 4.886 4.886 0 0 0 1.727 3.575 3.992 3.992 0 0 0 3.893.65c.7-.266 1.304-.74 1.727-1.359a4.517 4.517 0 0 0 .659-2.147 6.397 6.397 0 0 0-.07-2.048 1.569 1.569 0 0 0-.889-1.069 1.995 1.995 0 0 0-1.677.18c.16-.07 0 0 0 0l-.349.14-.569.19c-.384.118-.774.214-1.168.29l-.26.05h-.19l-.538.06c-.436.024-.872.024-1.308 0a1.128 1.128 0 0 0 0 2.247v.05z" fill="#333"/>
    <path d="M79.084 63.139c-.62 1.238 1.876 21.694 2.994 23.851a17.953 17.953 0 0 1 3.993.13c-.479 1.788-.659 8.07-.2 8.88a111.505 111.505 0 0 0 7.557 10.537c.928.409-2.096-16.56-9.493-38.015l-4.852-5.383z" fill="#fff"/>
    <path d="M78.115 62.569c-.539 1.268-.22 2.996-.12 4.315.2 2.617.49 5.233.82 7.84.329 2.607.708 5.414 1.167 8.1a17.47 17.47 0 0 0 1.148 4.735 1.129 1.129 0 0 0 .998.56 20.72 20.72 0 0 1 3.993.12l-1.088-1.42a27.293 27.293 0 0 0-.44 7.212 6.126 6.126 0 0 0 .42 2.557c.363.639.763 1.256 1.198 1.848 1.647 2.487 3.364 4.924 5.2 7.271.57.729 1.348 2.218 2.466 1.918a1.386 1.386 0 0 0 .928-1.348 14.24 14.24 0 0 0-.339-3.436c-.349-2.188-.798-4.365-1.277-6.523-1.548-6.931-3.454-13.793-5.59-20.565-.74-2.357-1.488-4.724-2.326-7.061a5.583 5.583 0 0 0-1.408-1.998l-3.933-4.315c-.998-1.079-2.555.52-1.587 1.588l2.945 3.236c.529.58 1.138 1.149 1.617 1.778.535.976.922 2.026 1.148 3.117 2.176 6.572 4.132 13.214 5.8 19.975a112.03 112.03 0 0 1 2.565 12.296c.077.476.123.956.14 1.438a3.53 3.53 0 0 0 0 .46c.05.149 0-.13 0-.1s0 0 .08-.18c1.417.11 1.846-.09 1.297-.609a29.336 29.336 0 0 0-2.395-3.107 105.192 105.192 0 0 1-2.306-3.256 142.873 142.873 0 0 1-1.917-2.866 1.999 1.999 0 0 1-.47-1.449c-.233-2.409-.105-4.84.38-7.21a1.139 1.139 0 0 0-1.078-1.43 20.72 20.72 0 0 0-3.993-.12l.998.56c.08.16-.09-.25-.16-.48-.07-.229-.159-.618-.229-.928-.21-.919-.38-1.858-.539-2.797-.43-2.487-.778-4.994-1.088-7.5a183.02 183.02 0 0 1-.789-7.432 47.38 47.38 0 0 1-.15-2.657v-.839c0-.28 0-.33-.06-.09.46-1.388-1.457-2.526-2.026-1.208z" fill="#333"/>
    <path d="M90.024 64.407a44.499 44.499 0 0 0-4.712 7.69c-2.625-2.626-4.192-6.162-6.707-8.899a23.04 23.04 0 0 1 2.775-2.137c.216-.172.482-.27.758-.28.26.04.504.147.709.31 2.266 1.488 5.13 1.758 7.507 3.046" fill="#fff"/>
    <path d="M89.046 63.837a41.464 41.464 0 0 0-4.822 7.99l1.877-.498c-2.615-2.657-4.192-6.133-6.698-8.89v1.588c.39-.35.788-.689 1.198-.999.468-.307.917-.64 1.347-.998.21-.07.24-.11.08-.13l.25.17.499.3c.477.264.97.498 1.477.698 1.817.75 3.784 1.119 5.53 1.998 1.278.68 2.416-1.259 1.138-1.938-2.066-1.098-4.412-1.448-6.508-2.477-.51-.25-.998-.6-1.477-.829a2.096 2.096 0 0 0-1.997.18 20.24 20.24 0 0 0-3.084 2.367 1.13 1.13 0 0 0 0 1.588c2.505 2.757 4.073 6.223 6.698 8.9a1.137 1.137 0 0 0 1.876-.5 39.171 39.171 0 0 1 4.602-7.43 1.12 1.12 0 0 0-.409-1.53 1.147 1.147 0 0 0-1.537.4l-.04.04z" fill="#333"/>
    <path d="m114.54 96.24-3.683 1.138a1.18 1.18 0 0 0-.429.19 1.276 1.276 0 0 0-.32.999 34.97 34.97 0 0 0 1.258 9.588c.052.325.198.627.419.869a1.733 1.733 0 0 0 1.298.31 17.09 17.09 0 0 0 4.083-.679 110.31 110.31 0 0 0-1.388-11.856c0-.27-.16-.61-.439-.62" fill="#fff"/>
    <path d="m114.281 95.15-3.194.999c-.999.3-1.797.66-1.997 1.778a13.412 13.412 0 0 0 0 3.166c.073 1.099.193 2.188.36 3.266.159 1.069.359 2.128.618 3.176a3.77 3.77 0 0 0 1.348 2.617 4.647 4.647 0 0 0 2.925.25 20.269 20.269 0 0 0 3.164-.619 1.15 1.15 0 0 0 .819-1.089 105.61 105.61 0 0 0-.689-7.231c-.16-1.219-.329-2.427-.519-3.636s-.21-2.327-1.438-2.687a1.126 1.126 0 0 0-1.274.817c-.074.27-.044.558.083.808.126.25.341.443.602.543h.14l-.489-.29c-.05-.14-.05-.11 0 .08v.26c0 .26.09.509.13.769l.239 1.538c.14.999.27 1.997.38 2.916.239 1.998.422 4.022.549 6.073l.828-1.079c-.779.228-1.573.401-2.375.52-.39 0-.779.08-1.158.1-.19 0-.659.119-.829 0a5.658 5.658 0 0 1-.19-.799c-.099-.4-.199-.799-.289-1.209a33.316 33.316 0 0 1-.799-7.221c0-.1.07-.5 0-.57-.07-.07 0-.11-.109 0-.11.11-.16.11 0 .07a4.173 4.173 0 0 0 1.187-.37l2.576-.798c1.377-.43.788-2.597-.599-2.168v.02z" fill="#333"/>
    <path d="M112.145 65.326c20.882-.6 27.68 32.17 27.71 32.61.39 5.124-7.826 11.986-22.959 13.035-.649-3.266-2.206-11.367-2.855-14.633 4.223-1.408 2.566-1.468 6.608-2.547-1.996-5.633-1.267-2.297-3.992-8.45" fill="#DF357F"/>
    <path d="M112.145 66.455c10.821-.24 17.858 9.05 21.961 17.978a67.97 67.97 0 0 1 3.993 10.987c.229.86.429 1.728.629 2.607 0 .07 0 .32 0 0v.32c0 .1 0 .38-.06.579a6.394 6.394 0 0 1-1.098 2.447c-1.707 2.477-4.542 4.145-7.227 5.354a40.296 40.296 0 0 1-13.416 3.076l1.078.819c-.999-4.874-1.887-9.758-2.845-14.632l-.789 1.378c2.266-.77 4.292-1.918 6.598-2.547a1.128 1.128 0 0 0 .789-1.378 21.624 21.624 0 0 0-1.807-4.255 36.944 36.944 0 0 1-2.316-4.455c-.599-1.318-2.535-.18-1.996 1.129 1.258 2.796 2.875 5.283 3.903 8.18l.788-1.389c-2.315.63-4.342 1.778-6.608 2.547a1.16 1.16 0 0 0-.778 1.379c.998 4.884 1.886 9.768 2.845 14.642a1.148 1.148 0 0 0 1.088.829c7.247-.529 15.562-2.287 20.962-7.591a9.38 9.38 0 0 0 3.085-5.873 8.08 8.08 0 0 0-.349-2.437c-2.127-8.74-5.86-17.818-11.979-24.48-4.313-4.645-9.982-7.661-16.451-7.511a1.126 1.126 0 0 0-1.022 1.123 1.13 1.13 0 0 0 1.022 1.124v.05z" fill="#333"/>
    <path d="M93.478 106.537a67.507 67.507 0 0 1 10.262-14.153 1.92 1.92 0 0 0 .579-.9 1.65 1.65 0 0 0-.17-.918 9.55 9.55 0 0 0-3.084-3.995l3.843-.13a52.218 52.218 0 0 1 9.722-19.776 16.568 16.568 0 0 0-5.859-1.908s-14.774 15.591-15.293 41.78z" fill="#fff"/>
    <path d="M94.447 107.095a66.885 66.885 0 0 1 7.985-11.626c1.148-1.328 3.444-2.897 2.885-4.904a10.157 10.157 0 0 0-3.484-4.825l-.798 1.918 3.843-.12a1.169 1.169 0 0 0 1.088-.829 51.947 51.947 0 0 1 9.423-19.287 1.127 1.127 0 0 0-.219-1.757 18.858 18.858 0 0 0-3.993-1.599c-.919-.24-2.446-.819-3.274-.14-.196.195-.38.402-.549.62a49.387 49.387 0 0 0-3.324 4.415 68.217 68.217 0 0 0-9.144 20.076 71.683 71.683 0 0 0-2.526 17.459 1.128 1.128 0 0 0 2.246 0c.31-13.864 4.752-27.967 13.287-39.014.499-.639 1.078-1.378 1.677-1.997l-1.098.29c1.954.268 3.845.876 5.59 1.797l-.23-1.768a54.495 54.495 0 0 0-9.982 20.276l1.078-.819-3.843.12c-.879 0-1.597 1.268-.789 1.918a9.84 9.84 0 0 1 1.997 2.077c.218.32.415.653.589.999.359.73.289.859-.22 1.488-1.208 1.478-2.545 2.837-3.723 4.345a69.742 69.742 0 0 0-6.409 9.708c-.709 1.319 1.228 2.457 1.917 1.179zM107.293 127.802v-12.635l-1.118 1.118h17.709l-1.128-1.118v12.635l1.128-1.119h-17.709a1.126 1.126 0 0 0-1.022 1.124 1.128 1.128 0 0 0 1.022 1.123h17.709a1.148 1.148 0 0 0 1.118-1.128v-12.635a1.146 1.146 0 0 0-1.118-1.129h-17.709a1.152 1.152 0 0 0-1.128 1.129v12.635a1.13 1.13 0 0 0 1.883.728 1.13 1.13 0 0 0 .363-.728z" fill="#333"/>
    <path d="M76.069 84.213c-.999 2.238-8.984 14.123-11.4 14.253-1.797.1-3.454-.919-4.941-1.927a111.916 111.916 0 0 1-19.446-16.82l6.379-5.064c.858-.69 1.886-1.429 2.995-1.189.419.1 10.281 2.188 13.575 4.345" fill="#DF357F"/>
    <path d="M75.1 83.654a32.374 32.374 0 0 1-2.914 4.765 65.022 65.022 0 0 1-4.822 6.372 14.548 14.548 0 0 1-2.136 2.157 4.084 4.084 0 0 1-.629.4c.14-.05-.2 0 0 0h-.36a5.338 5.338 0 0 1-1.786-.48 33.285 33.285 0 0 1-5.43-3.605 113.51 113.51 0 0 1-5.191-4.075A113.509 113.509 0 0 1 41.07 78.93v1.588l3.853-3.076c1.088-.86 3.105-2.997 4.542-2.847 1.984.31 3.938.79 5.84 1.438a27.531 27.531 0 0 1 7.317 2.747c1.217.78 2.355-1.168 1.128-1.938a29.403 29.403 0 0 0-7.986-2.996c-1.917-.53-3.873-1.089-5.84-1.438-2.376-.42-4.292 1.648-5.99 2.996l-4.411 3.516a1.13 1.13 0 0 0 0 1.588 112.238 112.238 0 0 0 10.251 9.838 119.042 119.042 0 0 0 5.44 4.315 41.008 41.008 0 0 0 5.99 3.995c1.318.66 3.085 1.299 4.522.62a8.06 8.06 0 0 0 2.136-1.678 50.736 50.736 0 0 0 5.24-6.533 38.432 38.432 0 0 0 3.994-6.332c.589-1.309-1.348-2.457-1.937-1.129l-.06.05z" fill="#333"/>
</svg>
