<svg width="20" height="25" fill="none" xmlns="http://www.w3.org/2000/svg">
    <path d="M7.672 9.317c-1.465 1.837-4.306 2.884-6.594 3.25 2.182.188 4.606.494 5.992 2.223a8.137 8.137 0 0 1 1.28 2.904c.582 2.055 1.103 4.12 1.562 6.195.416-1.848.97-3.665 1.522-5.463a7.636 7.636 0 0 1 .892-1.976c1.416-1.976 4.218-2.164 6.632-2.134a94.14 94.14 0 0 1-3.52-2.302 12.414 12.414 0 0 1-2.133-1.72c-2.22-2.37-2.52-5.927-2.705-9.217 0 .01-1.018 5.839-2.928 8.24z" fill="#F0D227"/>
    <path d="M6.896 8.546C5.374 10.354 3.017 11.135.787 11.51c-1.29.218-.853 2.085.291 2.184 2.182.187 4.683.484 5.702 2.756a41.449 41.449 0 0 1 2.084 7.745c.067.232.205.436.395.581a1.082 1.082 0 0 0 1.315 0c.19-.145.328-.349.394-.58.291-1.275.621-2.54.97-3.794a9.274 9.274 0 0 1 1.425-3.507c1.31-1.522 3.753-1.463 5.566-1.453.236-.005.464-.088.65-.236a1.136 1.136 0 0 0 .345-1.288 1.112 1.112 0 0 0-.442-.54c-2.21-1.384-5.042-2.767-6.361-5.148-1.193-2.143-1.328-4.732-1.464-7.133-.058-1.175-1.94-1.6-2.133-.296-.456 2.549-1.067 5.66-2.657 7.736-.844 1.116.688 2.706 1.551 1.57 1.852-2.43 2.677-5.73 3.2-8.713l-2.143-.297c.165 2.806.378 5.76 1.765 8.26 1.522 2.746 4.586 4.347 7.136 5.927l.553-2.074c-2.375 0-5.061.128-6.894 1.877a7.842 7.842 0 0 0-1.813 3.457c-.543 1.66-.97 3.35-1.387 5.049h2.104c-.368-1.66-.775-3.32-1.221-4.94a13.387 13.387 0 0 0-1.63-4.258c-1.628-2.292-4.47-2.697-7.039-2.964l.29 2.184a11.776 11.776 0 0 0 7.08-3.547c.988-1.047-.602-2.628-1.523-1.522z" fill="#333"/>
</svg>
