<svg width="235" height="150" viewBox="0 0 235 150" fill="none" xmlns="http://www.w3.org/2000/svg">
<path d="M16.3243 37.9277H52.8467C53.8071 37.9277 54.7281 38.3066 55.4072 38.9811C56.0863 39.6555 56.4678 40.5703 56.4678 41.5241C56.4678 42.4779 56.0863 43.3927 55.4072 44.0672C54.7281 44.7416 53.8071 45.1205 52.8467 45.1205H49.376C48.4276 45.1634 47.5275 45.5483 46.8443 46.203C46.1611 46.8577 45.7416 47.7373 45.6645 48.677C45.6645 50.6695 47.6105 52.2735 50.0079 52.2735H55.8659C56.8263 52.2735 57.7474 52.6524 58.4265 53.3268C59.1056 54.0013 59.4871 54.916 59.4871 55.8699C59.4871 56.8237 59.1056 57.7384 58.4265 58.4129C57.7474 59.0873 56.8263 59.4662 55.8659 59.4662H29.4647C28.5043 59.4662 27.5833 59.0873 26.9042 58.4129C26.2251 57.7384 25.8435 56.8237 25.8435 55.8699C25.8435 54.916 26.2251 54.0013 26.9042 53.3268C27.5833 52.6524 28.5043 52.2735 29.4647 52.2735H30.207C32.6144 52.2735 34.5604 50.6595 34.5604 48.677C34.483 47.7356 34.0621 46.8548 33.3768 46.1998C32.6916 45.5449 31.7891 45.1611 30.8389 45.1205H16.3243C15.3639 45.1205 14.4428 44.7416 13.7637 44.0672C13.0846 43.3927 12.7031 42.4779 12.7031 41.5241C12.7031 40.5703 13.0846 39.6555 13.7637 38.9811C14.4428 38.3066 15.3639 37.9277 16.3243 37.9277Z" fill="white"/>
<path d="M16.3241 39.0447H41.7825C45.3836 39.0447 48.9847 39.0447 52.5757 39.0447C53.0046 39.0203 53.4332 39.098 53.8257 39.2713C54.2183 39.4446 54.5635 39.7084 54.8327 40.0409C55.1119 40.4167 55.2796 40.8626 55.3167 41.3281C55.3539 41.7937 55.2591 42.2603 55.043 42.675C54.8268 43.0898 54.4981 43.4362 54.0939 43.6749C53.6898 43.9137 53.2264 44.0352 52.7563 44.0258C49.9075 44.1653 46.7377 43.6672 45.1127 46.6459C43.1066 50.1925 46.6876 53.3306 50.1282 53.4203C52.1343 53.4701 54.3211 53.1214 56.3172 53.4203C56.8209 53.5142 57.2838 53.7586 57.6439 54.1207C58.0041 54.4829 58.2444 54.9456 58.3327 55.447C58.421 55.9484 58.3531 56.4646 58.1382 56.9267C57.9232 57.3887 57.5714 57.7746 57.1297 58.0328C56.5735 58.2938 55.9566 58.4005 55.3442 58.3417H33.8381C32.4237 58.3417 31.0094 58.3417 29.595 58.3417C29.0207 58.3663 28.4554 58.1934 27.9945 57.8522C27.5336 57.5109 27.2053 57.0222 27.0651 56.4686C26.9248 55.9149 26.9812 55.3301 27.2246 54.8129C27.4681 54.2957 27.8837 53.8777 28.4013 53.6295C29.1073 53.4074 29.8498 53.3228 30.5881 53.3804C34.4299 53.1015 37.5194 48.8376 34.3998 45.6297C32.7146 43.9063 30.6182 43.9959 28.3813 43.9959H20.2864C18.7416 43.9959 15.933 44.494 14.649 43.3882C14.2785 43.051 14.018 42.6114 13.9012 42.126C13.7843 41.6405 13.8164 41.1314 13.9934 40.6642C14.1703 40.197 14.4839 39.7932 14.894 39.5045C15.304 39.2159 15.7916 39.0557 16.2941 39.0447C17.7385 38.9749 17.7486 36.7334 16.2941 36.8031C11.8905 37.0124 9.74393 42.661 13.5356 45.3508C15.291 46.6061 17.7887 46.2374 19.835 46.2374H28.4916C29.2339 46.2374 30.0263 46.1677 30.7586 46.2374C32.4739 46.4167 34.159 48.1801 33.0155 49.8438C31.872 51.5075 29.5448 50.84 27.8095 51.4378C26.8997 51.7776 26.1148 52.383 25.558 53.1743C25.0012 53.9655 24.6986 54.9057 24.6899 55.871C24.6899 58.8597 27.2779 60.5832 30.0564 60.5832H52.8365C54.2317 60.6914 55.6347 60.6446 57.0194 60.4437C61.4029 59.3877 61.774 53.1513 57.6312 51.4776C56.498 51.1375 55.3091 51.0191 54.1305 51.129C52.8365 51.129 51.5526 51.129 50.2686 51.129C48.7239 51.129 46.477 50.2722 46.818 48.3295C47.159 46.3869 49.105 46.2175 50.6197 46.2175C52.0003 46.3659 53.3968 46.2302 54.7223 45.819C55.6401 45.4117 56.4053 44.7276 56.9095 43.8638C57.4136 43.0001 57.6311 42.0006 57.531 41.0072C57.2501 38.2676 54.8727 36.7832 52.2948 36.7832H16.3241C16.0222 36.7832 15.7326 36.9024 15.5191 37.1144C15.3056 37.3265 15.1856 37.614 15.1856 37.9139C15.1856 38.2138 15.3056 38.5014 15.5191 38.7135C15.7326 38.9255 16.0222 39.0447 16.3241 39.0447Z" fill="#333333"/>
<path d="M4.73833 45.1205C6.73823 45.1205 8.35947 43.5104 8.35947 41.5241C8.35947 39.5379 6.73823 37.9277 4.73833 37.9277C2.73843 37.9277 1.11719 39.5379 1.11719 41.5241C1.11719 43.5104 2.73843 45.1205 4.73833 45.1205Z" fill="white"/>
<path d="M9.49318 41.534C9.48145 40.5641 9.17428 39.6205 8.61205 38.8274C8.04982 38.0343 7.25889 37.4288 6.34347 37.0908C5.42398 36.767 4.42646 36.732 3.48623 36.9905C2.54601 37.2489 1.70861 37.7884 1.08762 38.5357C0.466629 39.283 0.0921351 40.2018 0.0149195 41.1677C-0.0622961 42.1336 0.161515 43.0997 0.655991 43.9349C1.18856 44.821 1.99874 45.5095 2.96259 45.895C3.92644 46.2804 4.99091 46.3417 5.99315 46.0694C6.99539 45.7971 7.88023 45.2062 8.51232 44.3872C9.1444 43.5681 9.48891 42.566 9.49318 41.534C9.50801 41.3779 9.48988 41.2205 9.43992 41.0718C9.38995 40.9231 9.30927 40.7864 9.20304 40.6705C9.09681 40.5546 8.96738 40.462 8.82303 40.3986C8.67867 40.3352 8.52254 40.3025 8.36471 40.3025C8.20688 40.3025 8.05081 40.3352 7.90645 40.3986C7.76209 40.462 7.63267 40.5546 7.52644 40.6705C7.4202 40.7864 7.33947 40.9231 7.2895 41.0718C7.23953 41.2205 7.2214 41.3779 7.23624 41.534C7.23624 41.6336 7.23624 41.7332 7.23624 41.8329C7.23624 41.9325 7.23624 41.8329 7.23624 41.8329C7.23624 41.9923 7.16603 42.1517 7.12591 42.3111C7.08579 42.4705 7.06575 42.4904 7.02563 42.58C6.9855 42.6697 7.12594 42.3908 7.02563 42.58C6.92532 42.7693 6.835 42.9088 6.73469 43.0682C6.63438 43.2276 6.835 42.9984 6.73469 43.0682C6.67615 43.1197 6.62246 43.1764 6.57423 43.2376L6.44382 43.3671C6.44382 43.3671 6.17299 43.5862 6.38364 43.4368C6.25324 43.5264 6.12281 43.6161 5.98238 43.6958L5.81187 43.7755C5.70153 43.8353 5.70153 43.8353 5.81187 43.7755H5.68146L5.20998 43.905C5.1498 43.905 4.92912 43.905 5.20998 43.905H4.95921C4.78869 43.905 4.62819 43.905 4.45767 43.905C4.28714 43.905 4.71847 43.9648 4.45767 43.905L4.17683 43.8353L3.89594 43.7456C3.89594 43.7456 3.71539 43.656 3.89594 43.7456C3.75551 43.6759 3.60506 43.6062 3.47466 43.5265L3.28407 43.397C3.13361 43.3073 3.4546 43.5663 3.28407 43.397L2.88287 42.9885L2.72235 42.7494L2.6321 42.58C2.6321 42.58 2.48164 42.2612 2.6321 42.5103C2.57145 42.3611 2.52116 42.2081 2.48162 42.0521C2.4863 41.9891 2.4863 41.9258 2.48162 41.8628C2.48162 41.7333 2.48162 41.7333 2.48162 41.8628C2.47665 41.8131 2.47665 41.763 2.48162 41.7133C2.4666 41.5643 2.4666 41.4141 2.48162 41.265C2.48162 41.265 2.5418 40.9064 2.48162 41.1654V40.9761C2.48162 40.8167 2.57191 40.6673 2.62206 40.5178C2.67222 40.3684 2.51172 40.6972 2.62206 40.4382C2.65958 40.3522 2.70316 40.269 2.75247 40.1891L2.88287 39.9899C2.88287 39.9899 3.0534 39.7807 2.88287 39.9899C2.99321 39.8803 3.09348 39.7607 3.21385 39.6511L3.31419 39.5615L3.42452 39.4818C3.58252 39.3734 3.75044 39.2799 3.92606 39.2028C3.92606 39.2028 3.71541 39.2725 3.92606 39.2028L4.20689 39.1231L4.3875 39.0733H4.52789H4.92915H5.17992C5.45075 39.0733 5.03952 39.0733 5.27023 39.0733C5.50094 39.0733 5.6514 39.163 5.83195 39.2227C6.01251 39.2825 5.74167 39.153 5.83195 39.2227C5.92223 39.2925 6.03255 39.3224 6.12282 39.3822L6.28329 39.4818L6.44382 39.5913C6.33348 39.5116 6.33348 39.5116 6.44382 39.5913L6.77486 39.9201C6.9855 40.1293 6.66451 39.7408 6.83504 39.9899L6.98546 40.2289L7.12591 40.478C7.23625 40.6773 7.12591 40.3087 7.12591 40.5577C7.18996 40.7405 7.24352 40.9268 7.28638 41.1156C7.28638 41.1156 7.28638 41.3248 7.28638 41.1156C7.28638 41.2451 7.28638 41.3746 7.28638 41.5141C7.28638 41.81 7.40477 42.0938 7.61545 42.3031C7.82614 42.5123 8.11187 42.6298 8.40983 42.6298C8.69575 42.615 8.96572 42.4942 9.16631 42.2913C9.36689 42.0884 9.48352 41.8182 9.49318 41.534Z" fill="#333333"/>
<path d="M81.4746 122.588C82.0581 120.771 82.2195 118.846 81.9468 116.959C81.674 115.071 80.9741 113.269 79.8997 111.689C79.017 110.414 77.8434 109.178 77.7631 107.624C77.6829 106.07 78.8365 104.576 79.4885 103.061C81.6852 97.9607 77.723 92.1826 72.9884 89.2437C72.1057 88.6858 71.0926 88.0881 70.8218 87.0819C70.7113 86.4858 70.7113 85.8747 70.8218 85.2787C71.1428 82.1107 69.588 78.9726 67.3812 76.6713C65.3408 74.4862 62.9722 72.6278 60.3596 71.1621C57.7484 72.63 55.3802 74.4881 53.338 76.6713C51.1212 78.9726 49.5664 82.1107 49.8974 85.2787C50.0079 85.8747 50.0079 86.4858 49.8974 87.0819C49.6266 88.0781 48.6235 88.6858 47.7307 89.2437C42.9962 92.2324 39.044 97.9607 41.2307 103.061C41.8828 104.576 43.0563 105.99 42.9661 107.624C42.8758 109.258 41.7122 110.414 40.8295 111.689C39.7681 113.276 39.083 115.081 38.8259 116.969C38.5687 118.857 38.7462 120.778 39.3449 122.588C40.0772 124.799 41.4514 126.931 41.2207 129.252C40.9298 132.241 38.071 134.831 38.9237 137.671C39.8264 140.659 81.0533 140.659 81.9862 137.671C82.8388 134.831 79.98 132.201 79.6791 129.252C79.4082 126.931 80.7824 124.799 81.4746 122.588Z" fill="#DF357F"/>
<path d="M82.5981 122.887C83.217 120.925 83.3868 118.85 83.0952 116.815C82.8037 114.779 82.0581 112.834 80.913 111.121C80.3077 110.348 79.7548 109.536 79.2579 108.691C79.03 108.149 78.9446 107.558 79.0095 106.974C79.0744 106.391 79.2876 105.833 79.629 105.353C80.5978 103.769 81.1625 101.974 81.2741 100.123C81.3242 96.3076 79.0171 92.741 76.2586 90.2704C75.5287 89.6121 74.7471 89.0124 73.9214 88.4772C73.0086 87.8794 71.9153 87.481 71.9153 86.1859C72.0106 85.1287 72.0106 84.0651 71.9153 83.0079C71.7681 82.0005 71.4811 81.0182 71.0627 80.0889C69.1668 75.7553 64.9438 72.5076 60.9315 70.1964C60.7606 70.0935 60.5646 70.0391 60.3648 70.0391C60.1649 70.0391 59.9689 70.0935 59.798 70.1964C54.4415 73.2847 48.1923 78.4551 48.7641 85.2793C48.8443 86.3253 48.9847 86.9829 48.082 87.6902C47.5102 88.1484 46.8381 88.4772 46.2463 88.8956C45.023 89.7561 43.9083 90.7595 42.9261 91.8843C40.8837 94.0904 39.6748 96.9317 39.5055 99.9239C39.5126 101.305 39.8314 102.666 40.4385 103.909C41.2108 105.533 42.4446 106.977 41.4415 108.79C40.7594 110.066 39.7262 111.112 39.0642 112.407C37.5988 115.268 37.177 118.546 37.8706 121.682C38.2618 123.435 39.1445 124.999 39.6861 126.663C40.1897 128.208 40.0562 129.888 39.3149 131.335C38.6375 132.581 38.0993 133.898 37.71 135.26C37.4191 136.635 37.4492 138.249 38.8134 139.016C39.6679 139.425 40.5819 139.697 41.5217 139.823C44.6509 140.334 47.811 140.637 50.9808 140.73C58.8329 141.16 66.7055 141.056 74.5434 140.421C76.1584 140.271 77.7833 140.102 79.3782 139.793C80.3399 139.673 81.2715 139.379 82.1267 138.926C83.9824 137.761 83.1298 134.941 82.3875 133.337C81.6452 131.734 80.6221 130.15 80.7224 128.356C80.8227 126.563 81.9562 124.601 82.5781 122.797C83.0595 121.433 80.8728 120.805 80.4014 122.2C79.3481 125.248 77.7432 127.928 78.9569 131.166C79.4284 132.431 80.1406 133.577 80.592 134.842C80.8178 135.379 80.937 135.954 80.943 136.535V136.914C80.8227 137.322 80.8227 137.362 80.943 137.063C81.0734 137.063 80.943 136.904 80.943 137.004C80.943 137.103 81.1336 136.894 80.8829 137.004C80.6321 137.113 80.9431 137.004 80.6522 137.113C80.2485 137.252 79.8364 137.365 79.4184 137.452C78.3086 137.688 77.1868 137.864 76.058 137.98C68.758 138.681 61.4176 138.874 54.0904 138.558C50.7803 138.458 47.46 138.309 44.1699 137.91C43.1024 137.801 42.0435 137.622 41.0002 137.372C40.6586 137.29 40.3234 137.183 39.9971 137.053C40.3181 137.183 39.8666 136.944 39.8165 136.934C40.0071 136.934 39.6661 137.024 39.9168 137.063C40.1676 137.103 39.9168 137.601 39.9168 136.884C39.8767 136.527 39.8767 136.166 39.9168 135.808C40.0393 135.212 40.2347 134.633 40.4986 134.085C41.1841 132.815 41.7386 131.48 42.1537 130.1C42.8859 126.852 40.8497 124.222 40.1475 121.203C39.7866 119.651 39.7537 118.042 40.0506 116.476C40.3476 114.911 40.968 113.423 41.8729 112.108C42.774 111.039 43.4924 109.831 43.9994 108.531C44.3013 107.123 44.0653 105.653 43.3373 104.407C42.4555 103.021 41.9318 101.44 41.8127 99.8043C41.8748 98.199 42.3551 96.6372 43.2069 95.2715C44.0744 93.8269 45.1758 92.5344 46.467 91.4459C47.6606 90.4497 49.2355 89.7823 50.2887 88.6167C51.5426 87.212 50.9508 85.628 51.031 83.9443C51.16 82.1506 51.7848 80.427 52.8366 78.9632C55.0091 76.0709 57.797 73.6898 61.0017 71.9896H59.8682C63.3289 73.982 67.0102 76.7117 68.896 80.348C69.3354 81.2068 69.6398 82.1273 69.7988 83.0776C69.859 84.2192 69.859 85.3631 69.7988 86.5047C69.9091 88.3377 71.3335 89.2642 72.7478 90.1708C75.8373 92.1632 78.8265 95.4906 79.1274 99.2863C79.4284 103.082 75.5565 105.782 77.352 109.508C78.3551 111.59 80.0002 113.104 80.6622 115.385C81.2936 117.602 81.2553 119.954 80.5519 122.15C79.9901 123.674 82.1769 124.222 82.5981 122.887Z" fill="#333333"/>
<path d="M70.22 118.603C66.3085 120.281 62.7903 122.747 59.8881 125.845C58.9954 126.842 59.2763 128.117 59.2763 129.352V147.214C59.3028 147.493 59.4331 147.753 59.6418 147.941C59.8505 148.13 60.1226 148.234 60.4047 148.234C60.6869 148.234 60.959 148.13 61.1677 147.941C61.3763 147.753 61.5067 147.493 61.5332 147.214V126.941L61.2022 127.728C64.0502 124.661 67.5063 122.212 71.3534 120.535C72.6875 119.958 71.534 118.025 70.22 118.603Z" fill="#333333"/>
<path d="M61.5536 126.812C60.8668 121.754 60.7054 116.64 61.0721 111.55C61.1724 110.115 58.9154 110.115 58.8151 111.55C58.4651 116.842 58.6634 122.157 59.407 127.41C59.4868 127.695 59.6769 127.938 59.9361 128.086C60.1953 128.233 60.5027 128.273 60.7912 128.197C61.0756 128.109 61.3156 127.917 61.4627 127.66C61.6099 127.402 61.6531 127.099 61.5837 126.812H61.5536Z" fill="#333333"/>
<path d="M168.874 34.1426H77.5928V148.729H168.874V34.1426Z" fill="white"/>
<path d="M168.864 33.0175H88.8779C85.2066 33.0175 81.425 32.7584 77.7537 33.0175H77.5932C77.2959 33.0225 77.012 33.1414 76.8008 33.3493C76.5896 33.5572 76.4674 33.838 76.4597 34.1332V134.613C76.4597 139.236 76.2691 143.898 76.4597 148.56V148.76C76.4649 149.057 76.586 149.34 76.7974 149.55C77.0089 149.76 77.2942 149.88 77.5932 149.885H157.579C161.251 149.885 165.032 150.144 168.704 149.885H168.864C169.163 149.88 169.448 149.76 169.66 149.55C169.871 149.34 169.992 149.057 169.998 148.76V48.2498C169.998 43.6273 170.178 38.9649 169.998 34.3026C169.992 34.2329 169.992 34.1631 169.998 34.0934C169.971 33.8144 169.841 33.5552 169.632 33.3666C169.423 33.178 169.151 33.0734 168.869 33.0734C168.587 33.0734 168.315 33.178 168.106 33.3666C167.897 33.5552 167.767 33.8144 167.741 34.0934V144.057C167.62 145.543 167.62 147.035 167.741 148.521C167.746 148.587 167.746 148.653 167.741 148.72L168.864 147.604H81.3246C80.1366 147.499 78.9417 147.499 77.7537 147.604H77.5932L78.7166 148.72V38.8056C78.837 37.3203 78.837 35.8278 78.7166 34.3425C78.7116 34.2728 78.7116 34.2029 78.7166 34.1332L77.5932 35.259H157.579C161.251 35.259 165.032 35.518 168.704 35.259H168.864C169.145 35.2326 169.406 35.1032 169.596 34.8959C169.786 34.6886 169.891 34.4185 169.891 34.1382C169.891 33.858 169.786 33.5878 169.596 33.3805C169.406 33.1733 169.145 33.0438 168.864 33.0175Z" fill="#333333"/>
<path d="M148.19 104.506H99.0693V58.8588L123.675 48.6973L148.19 58.8588V104.506Z" fill="white"/>
<path d="M148.18 103.381H99.0292L100.153 104.507V58.8594L99.3301 59.9353L120.756 51.0888L122.822 50.232C122.993 50.1623 123.825 49.973 123.825 49.8037C123.725 49.983 122.993 49.5745 123.665 49.9232C124.156 50.163 124.662 50.3726 125.18 50.5508L137.738 55.7612L147.769 59.9353L146.937 58.8594V104.507C146.963 104.786 147.093 105.045 147.302 105.234C147.511 105.422 147.783 105.527 148.065 105.527C148.347 105.527 148.619 105.422 148.828 105.234C149.037 105.045 149.167 104.786 149.194 104.507V58.8594C149.186 58.6149 149.101 58.3788 148.952 58.1842C148.803 57.9895 148.596 57.846 148.361 57.7735L126.734 48.8074C125.816 48.3344 124.86 47.9379 123.876 47.6219C123.073 47.4525 122.1 48.0902 121.388 48.389L108.769 53.5993L98.648 57.7735C98.4127 57.846 98.2061 57.9895 98.0568 58.1842C97.9076 58.3788 97.8232 58.6149 97.8154 58.8594V104.507C97.8206 104.803 97.9421 105.085 98.1538 105.293C98.3655 105.502 98.6508 105.62 98.9489 105.623H148.1C148.383 105.608 148.651 105.489 148.85 105.288C149.048 105.087 149.164 104.82 149.174 104.538C149.185 104.257 149.088 103.982 148.904 103.768C148.72 103.553 148.462 103.415 148.18 103.381Z" fill="#333333"/>
<path d="M123.685 46.4453L94.1538 59.476V64.766L123.685 51.7353L153.095 64.766V59.476L123.685 46.4453Z" fill="#F0D227"/>
<path d="M123.113 45.5193L97.2935 56.9063L93.5921 58.4703C93.4161 58.5699 93.2707 58.7153 93.1717 58.8909C93.0727 59.0664 93.0239 59.2655 93.0304 59.4666V64.7665C93.0301 64.9641 93.0817 65.1582 93.1801 65.3299C93.2785 65.5016 93.4204 65.6448 93.5915 65.7454C93.7627 65.846 93.9573 65.9005 94.1562 65.9035C94.3551 65.9066 94.5514 65.8581 94.7256 65.7628L120.595 54.3459L124.307 52.7022H123.163L148.922 64.119L152.574 65.7328C152.748 65.8282 152.944 65.8767 153.143 65.8737C153.342 65.8706 153.536 65.8161 153.708 65.7155C153.879 65.6149 154.021 65.4717 154.119 65.3C154.217 65.1284 154.269 64.9342 154.269 64.7366V59.4666C154.277 59.2663 154.23 59.0675 154.133 58.8918C154.036 58.7162 153.892 58.5704 153.717 58.4703L127.958 47.0635L124.256 45.5193C122.942 44.9316 121.789 46.8643 123.113 47.452L148.872 58.8589L152.523 60.4728L151.962 59.4765V64.7765L153.667 63.7803L127.516 52.214C126.443 51.7358 125.37 51.2178 124.266 50.7695C123.163 50.3212 121.909 51.3075 120.966 51.7657L105.85 58.4404L93.5921 63.85L95.2873 64.8462V59.4666L94.7256 60.4628L120.595 49.046L124.307 47.4122C125.611 46.8244 124.437 44.8917 123.113 45.5193Z" fill="#333333"/>
<path d="M110.915 76.0938C113.309 76.0938 115.249 74.1669 115.249 71.79C115.249 69.4132 113.309 67.4863 110.915 67.4863C108.522 67.4863 106.582 69.4132 106.582 71.79C106.582 74.1669 108.522 76.0938 110.915 76.0938Z" fill="#F0D227"/>
<path d="M114.125 71.7898C114.125 72.4841 113.896 73.1592 113.474 73.7125C113.273 74.0014 113.544 73.6328 113.413 73.7922L113.223 74.0014L113.062 74.1608C113.062 74.1608 112.781 74.3899 112.942 74.2704C112.787 74.3813 112.626 74.4844 112.46 74.5792L112.26 74.6789C112.139 74.7386 112.129 74.7486 112.26 74.6789L112.099 74.7386C111.458 74.9792 110.757 75.0124 110.096 74.8335C109.435 74.6546 108.847 74.2727 108.418 73.7424C108.518 73.862 108.418 73.7424 108.418 73.7424L108.227 73.4535L108.117 73.2642C108.117 73.2642 107.957 72.9255 108.037 73.1148C107.965 72.9371 107.908 72.7538 107.866 72.5669L107.806 72.3377C107.806 72.2082 107.806 72.1883 107.806 72.3377C107.801 72.2814 107.801 72.2247 107.806 72.1683C107.772 71.8522 107.789 71.5327 107.856 71.2219C107.899 71.0364 107.953 70.8534 108.017 70.674C108.079 70.5178 108.157 70.3677 108.247 70.2257C108.585 69.6332 109.116 69.1728 109.752 68.9206L110.083 68.8111H110.304H110.504H110.705H111.317C111.558 68.8111 111.267 68.8111 111.477 68.8111C111.875 68.878 112.257 69.02 112.601 69.2295L112.791 69.349L112.982 69.4785C112.902 69.4187 112.912 69.4785 112.982 69.4785L113.383 69.877C113.864 70.4548 114.13 71.1796 114.136 71.9293C114.162 72.2083 114.292 72.4674 114.501 72.6561C114.71 72.8447 114.982 72.9492 115.264 72.9492C115.546 72.9492 115.818 72.8447 116.027 72.6561C116.236 72.4674 116.366 72.2083 116.392 71.9293C116.376 70.8159 116.023 69.7331 115.379 68.8217C114.735 67.9103 113.83 67.2123 112.781 66.8186C111.722 66.4374 110.569 66.3909 109.482 66.6854C108.394 66.98 107.425 67.6012 106.707 68.4639C105.988 69.3267 105.556 70.3888 105.469 71.505C105.382 72.6211 105.645 73.7366 106.221 74.6988C106.832 75.7232 107.764 76.5201 108.876 76.9665C109.987 77.4129 111.215 77.4842 112.371 77.1694C113.527 76.8547 114.547 76.1713 115.274 75.2244C116 74.2776 116.393 73.1198 116.392 71.9293C116.411 71.6307 116.31 71.337 116.11 71.1128C115.911 70.8886 115.63 70.7523 115.329 70.7338C115.029 70.7153 114.733 70.8162 114.507 71.0142C114.281 71.2122 114.144 71.4912 114.125 71.7898Z" fill="#333333"/>
<path d="M124.567 76.0938C126.96 76.0938 128.901 74.1669 128.901 71.79C128.901 69.4132 126.96 67.4863 124.567 67.4863C122.174 67.4863 120.234 69.4132 120.234 71.79C120.234 74.1669 122.174 76.0938 124.567 76.0938Z" fill="#F0D227"/>
<path d="M127.777 71.7891C127.775 72.4816 127.55 73.1553 127.135 73.7118C126.935 74.0007 127.206 73.6321 127.065 73.7915L126.885 74.0007L126.714 74.1601C126.714 74.1601 126.433 74.3892 126.604 74.2697C126.448 74.3806 126.288 74.4837 126.122 74.5785L125.922 74.6782C125.801 74.7379 125.781 74.7479 125.922 74.6782L125.761 74.7379C125.119 74.9793 124.416 75.0129 123.753 74.834C123.09 74.6551 122.501 74.2728 122.07 73.7417C122.18 73.8613 122.07 73.7417 122.07 73.7417L121.889 73.4528L121.779 73.2635C121.779 73.2635 121.618 72.9248 121.699 73.1141C121.628 72.935 121.568 72.7521 121.518 72.5662C121.518 72.4964 121.518 72.4167 121.468 72.337C121.418 72.2573 121.468 72.1876 121.468 72.337C121.468 72.2872 121.468 72.2274 121.468 72.1677C121.442 71.8509 121.462 71.5322 121.528 71.2212C121.571 71.0357 121.625 70.8528 121.689 70.6733C121.751 70.5171 121.829 70.367 121.919 70.225C122.257 69.6325 122.787 69.1721 123.424 68.9199C123.374 68.9199 123.253 68.9797 123.424 68.9199L123.755 68.8104H123.986H124.186H124.387H124.989C125.239 68.8104 124.939 68.8104 125.159 68.8104C125.557 68.8791 125.938 69.021 126.283 69.2288L126.473 69.3483L126.664 69.4778C126.584 69.418 126.594 69.4778 126.664 69.4778L127.065 69.8763C127.543 70.455 127.805 71.18 127.807 71.9286C127.834 72.2076 127.964 72.4667 128.173 72.6554C128.382 72.844 128.654 72.9485 128.936 72.9485C129.218 72.9485 129.49 72.844 129.699 72.6554C129.907 72.4667 130.038 72.2076 130.064 71.9286C130.052 70.8142 129.701 69.7296 129.056 68.8174C128.412 67.9051 127.504 67.2081 126.453 66.8179C125.394 66.4399 124.243 66.3958 123.158 66.6917C122.072 66.9875 121.105 67.6089 120.389 68.4709C119.672 69.333 119.241 70.3937 119.154 71.5082C119.067 72.6227 119.329 73.7367 119.903 74.6981C120.516 75.7177 121.448 76.5098 122.557 76.953C123.666 77.3961 124.891 77.4659 126.044 77.1517C127.197 76.8374 128.215 76.1564 128.941 75.2131C129.667 74.2697 130.061 73.116 130.064 71.9286C130.083 71.6274 129.98 71.3311 129.779 71.1051C129.578 70.879 129.294 70.7416 128.991 70.7231C128.688 70.7046 128.389 70.8066 128.162 71.0065C127.934 71.2064 127.796 71.4879 127.777 71.7891Z" fill="#333333"/>
<path d="M138.229 76.0938C140.623 76.0938 142.563 74.1669 142.563 71.79C142.563 69.4132 140.623 67.4863 138.229 67.4863C135.836 67.4863 133.896 69.4132 133.896 71.79C133.896 74.1669 135.836 76.0938 138.229 76.0938Z" fill="#F0D227"/>
<path d="M141.439 71.79C141.437 72.4825 141.212 73.1561 140.797 73.7127C140.597 74.0016 140.867 73.633 140.727 73.7924L140.536 74.0016L140.376 74.161C140.376 74.161 140.095 74.3901 140.255 74.2706C140.104 74.3815 139.946 74.4846 139.784 74.5794L139.583 74.6791C139.463 74.7388 139.443 74.7488 139.583 74.6791L139.413 74.7388C138.772 74.9794 138.071 75.0126 137.41 74.8337C136.748 74.6548 136.161 74.2729 135.732 73.7426C135.832 73.8621 135.732 73.7426 135.732 73.7426C135.732 73.7426 135.601 73.5533 135.551 73.4537L135.441 73.2644C135.441 73.2644 135.28 72.9257 135.36 73.115C135.285 72.9375 135.225 72.7543 135.18 72.5671C135.18 72.4973 135.18 72.4176 135.13 72.3379C135.08 72.2582 135.13 72.1884 135.13 72.3379C135.124 72.2816 135.124 72.2249 135.13 72.1685C135.101 71.8523 135.118 71.5337 135.18 71.2221C135.226 71.0364 135.283 70.8534 135.35 70.6742C135.409 70.516 135.486 70.3655 135.581 70.2259C135.916 69.6351 136.443 69.1749 137.076 68.9208L137.407 68.8112H137.637C137.637 68.8112 137.978 68.7515 137.828 68.8112H138.039H138.641C138.891 68.8112 138.59 68.8112 138.811 68.8112C139.208 68.8818 139.589 69.0236 139.935 69.2296L140.125 69.3492L140.306 69.4787C140.225 69.4189 140.235 69.4787 140.306 69.4787L140.707 69.8772C141.185 70.4559 141.447 71.1809 141.449 71.9295C141.476 72.2085 141.606 72.4676 141.815 72.6563C142.023 72.8449 142.295 72.9494 142.578 72.9494C142.86 72.9494 143.132 72.8449 143.341 72.6563C143.549 72.4676 143.68 72.2085 143.706 71.9295C143.694 70.8151 143.343 69.7305 142.698 68.8182C142.054 67.906 141.146 67.209 140.095 66.8188C139.047 66.4469 137.909 66.4013 136.834 66.6878C135.758 66.9744 134.797 67.5795 134.076 68.4227C133.505 69.089 133.105 69.8825 132.909 70.7356C132.713 71.5887 132.728 72.4762 132.952 73.3225C133.176 74.1688 133.603 74.9487 134.196 75.5959C134.789 76.2432 135.53 76.7385 136.357 77.0397C137.184 77.3409 138.073 77.4391 138.946 77.326C139.82 77.2128 140.653 76.8916 141.375 76.3897C142.097 75.8878 142.685 75.2202 143.091 74.4436C143.497 73.667 143.708 72.8045 143.706 71.9295C143.725 71.6309 143.623 71.3372 143.424 71.113C143.224 70.8888 142.943 70.7525 142.643 70.734C142.342 70.7155 142.047 70.8164 141.821 71.0144C141.595 71.2124 141.458 71.4914 141.439 71.79Z" fill="#333333"/>
<path d="M133.515 83.6553H113.744V104.237H133.515V83.6553Z" fill="white"/>
<path d="M133.515 103.111H113.744L114.867 104.237V83.655L113.744 84.7708H133.515L132.381 83.655V104.237C132.408 104.516 132.538 104.775 132.747 104.964C132.955 105.153 133.227 105.257 133.51 105.257C133.792 105.257 134.064 105.153 134.273 104.964C134.481 104.775 134.612 104.516 134.638 104.237V83.655C134.633 83.3598 134.513 83.0778 134.304 82.868C134.095 82.6583 133.812 82.537 133.515 82.5293H113.744C113.445 82.5344 113.16 82.6546 112.948 82.8646C112.737 83.0747 112.616 83.3581 112.61 83.655V104.237C112.616 104.533 112.737 104.815 112.949 105.024C113.16 105.232 113.446 105.35 113.744 105.353H133.515C133.796 105.327 134.057 105.197 134.247 104.99C134.436 104.783 134.542 104.512 134.542 104.232C134.542 103.952 134.436 103.682 134.247 103.474C134.057 103.267 133.796 103.138 133.515 103.111Z" fill="#333333"/>
<path d="M129.572 95.8791C130.647 95.8791 131.518 95.0138 131.518 93.9464C131.518 92.879 130.647 92.0137 129.572 92.0137C128.498 92.0137 127.626 92.879 127.626 93.9464C127.626 95.0138 128.498 95.8791 129.572 95.8791Z" fill="#333333"/>
<path d="M149.565 111.56H99.0693V119.34H149.565V111.56Z" fill="#E5DCD8"/>
<path d="M123.234 124.76H99.0693V132.54H123.234V124.76Z" fill="#E5DCD8"/>
<path d="M139.423 10.3327C138.079 12.4945 135.11 14.0188 132.652 14.7361C135.06 14.6265 137.768 14.6165 139.523 16.2603C140.316 17.1072 140.93 18.1031 141.329 19.1892C142.262 21.2913 143.115 23.4232 143.907 25.585C144.108 23.5925 144.419 21.5304 144.82 19.5279C144.939 18.7575 145.172 18.0088 145.512 17.3063C146.786 14.9751 149.835 14.4073 152.483 14.0885C151.079 13.4609 149.685 12.8133 148.311 12.0961C147.398 11.6785 146.534 11.1641 145.733 10.5619C142.964 8.35022 142.142 4.58447 141.479 1.09766C141.479 1.12754 141.189 7.49345 139.423 10.3327Z" fill="#F0D227"/>
<path d="M138.45 9.76499C137.096 11.8073 134.628 12.9629 132.351 13.6503C132.094 13.7285 131.874 13.895 131.729 14.1199C131.584 14.3448 131.524 14.6135 131.56 14.8781C131.596 15.1427 131.726 15.3859 131.926 15.5643C132.126 15.7427 132.383 15.8447 132.652 15.852C135.04 15.7524 137.908 15.6328 139.393 17.8444C140.877 20.0561 141.85 23.2241 142.823 25.8641C142.902 26.1194 143.07 26.3386 143.296 26.4825C143.523 26.6264 143.793 26.6858 144.06 26.6498C144.326 26.6139 144.571 26.4851 144.751 26.2864C144.93 26.0878 145.033 25.8321 145.04 25.5652C145.191 24.1008 145.381 22.6463 145.642 21.2017C145.726 19.8753 146.11 18.5848 146.766 17.426C148.02 15.7523 150.547 15.4336 152.483 15.1845C153.486 15.0649 154.209 13.6105 153.055 13.1024C150.367 11.9069 146.896 10.7712 145.121 8.30056C143.566 6.12878 143.054 3.31939 142.573 0.808885C142.322 -0.486215 140.416 -0.107629 140.356 1.10777C140.215 3.93707 139.915 7.26446 138.45 9.74508C138.3 10.0014 138.258 10.3065 138.334 10.5933C138.41 10.88 138.598 11.125 138.856 11.2743C139.114 11.4236 139.422 11.4649 139.71 11.3893C139.999 11.3136 140.246 11.1271 140.396 10.8708C142.071 8.04153 142.402 4.3256 142.613 1.10777L140.396 1.39666C140.938 4.28573 141.58 7.32425 143.405 9.72517C145.411 12.4449 148.912 13.7101 151.942 15.0351L152.503 12.943C149.915 13.2618 146.986 13.72 145.191 15.8221C144.31 17.0207 143.767 18.4304 143.616 19.9066C143.255 21.7796 142.994 23.6724 142.803 25.5652L145.02 25.2664C144.378 23.5429 143.706 21.8294 143.014 20.1358C142.49 18.6082 141.732 17.17 140.767 15.8719C138.761 13.5606 135.531 13.471 132.742 13.5905L133.043 15.7922C135.922 14.9155 138.791 13.4311 140.486 10.8708C141.199 9.65542 139.242 8.55955 138.45 9.76499Z" fill="#333333"/>
<path d="M216.282 54.3888L155.187 118.285L172.796 134.894L233.892 70.9971L216.282 54.3888Z" fill="#DF357F"/>
<path d="M173.588 134.014L158.211 119.519L155.984 117.417V119.001L162.002 112.665L176.547 97.4324L194.262 78.9125L209.498 62.9728L214.514 57.7027C215.38 56.9446 216.175 56.1111 216.891 55.2121C216.92 55.1684 216.957 55.1311 217.001 55.1025H215.397L230.784 69.5977L233.011 71.6998V70.1157L226.992 76.4518L212.437 91.6842L194.733 110.204L179.496 126.144C177.038 128.714 174.36 131.185 172.073 133.904L171.963 134.014C170.96 135.01 172.555 136.654 173.558 135.598L179.576 129.262L194.131 114.04L211.876 95.5196L227.113 79.5799C229.57 77.0097 232.248 74.539 234.535 71.8193L234.646 71.6998C234.854 71.4878 234.97 71.2036 234.97 70.9077C234.97 70.6119 234.854 70.3278 234.646 70.1157L219.299 55.6206L217.072 53.4886C216.857 53.2817 216.569 53.166 216.269 53.166C215.97 53.166 215.682 53.2817 215.467 53.4886L209.448 59.8247L194.823 75.077L177.109 93.5969L161.872 109.537C159.414 112.107 156.746 114.578 154.449 117.297L154.349 117.417C154.243 117.521 154.16 117.644 154.103 117.78C154.046 117.916 154.017 118.062 154.017 118.209C154.017 118.356 154.046 118.502 154.103 118.638C154.16 118.774 154.243 118.897 154.349 119.001L169.746 133.496L171.973 135.598C173.046 136.594 174.641 135.01 173.588 134.014Z" fill="#333333"/>
<path d="M216.285 54.3962L208.128 62.9277L225.738 79.5361L233.895 71.0045L216.285 54.3962Z" fill="#F0D227"/>
<path d="M226.521 78.6535L211.134 64.1483L208.867 62.0463V63.6303L217.032 55.1025H215.427L230.815 69.5977L233.041 71.6998V70.1157L224.916 78.6535C223.913 79.6497 225.518 81.2934 226.521 80.2374L234.676 71.6998C234.884 71.4878 235 71.2036 235 70.9077C235 70.6119 234.884 70.3278 234.676 70.1157L219.299 55.6206L217.072 53.4886C216.857 53.2817 216.569 53.166 216.27 53.166C215.97 53.166 215.682 53.2817 215.467 53.4886L207.312 62.0164C207.104 62.2284 206.988 62.5125 206.988 62.8084C206.988 63.1042 207.104 63.3884 207.312 63.6004L222.69 78.1055L224.916 80.2076C225.97 81.2337 227.575 79.6497 226.521 78.6535Z" fill="#333333"/>
<path d="M213.07 67.4863L195.105 86.2852L166.677 116.013L160.147 122.847C159.144 123.843 160.739 125.477 161.742 124.431L179.717 105.632L208.135 75.9045L214.665 69.0703C215.668 68.0741 214.073 66.4403 213.07 67.4863Z" fill="#333333"/>
<path d="M219.158 73.2247L201.193 92.0236L172.755 121.751L166.225 128.585C165.222 129.582 166.817 131.215 167.82 130.169L185.795 111.37L214.223 81.6429L220.753 74.8088C221.756 73.8125 220.161 72.1687 219.158 73.2247Z" fill="#333333"/>
<path d="M172.795 134.811L155.181 118.204L153.797 129.521L161.491 136.774L172.795 134.811Z" fill="white"/>
<path d="M173.588 134.014L158.14 119.449L155.984 117.457C155.824 117.307 155.624 117.207 155.408 117.167C155.192 117.128 154.969 117.151 154.765 117.234C154.562 117.317 154.388 117.456 154.262 117.635C154.137 117.814 154.066 118.026 154.058 118.244L153.185 125.287L152.724 129.103C152.681 129.423 152.726 129.748 152.855 130.045C152.984 130.341 153.192 130.598 153.456 130.786L159.735 136.704C160.367 137.302 160.899 138.029 161.862 137.879C162.825 137.73 163.868 137.541 164.871 137.361L173.126 135.927C174.561 135.688 173.949 133.526 172.535 133.765L161.22 135.757L162.323 136.036L154.63 128.794L154.961 129.581L156.315 118.244L154.389 119.041L169.836 133.605L171.993 135.598C173.046 136.594 174.641 135.01 173.588 134.014Z" fill="#333333"/>
<path d="M161.491 136.774L153.797 129.521L152.724 138.298L161.491 136.774Z" fill="#DF357F"/>
<path d="M162.283 135.978L155.553 129.632L154.55 128.735C154.391 128.579 154.189 128.473 153.969 128.43C153.75 128.387 153.522 128.41 153.316 128.496C153.121 128.585 152.954 128.724 152.832 128.9C152.71 129.075 152.638 129.28 152.624 129.492L151.691 137.173L151.561 138.269C151.46 139.056 152.353 139.454 152.985 139.345L160.669 138.01L161.752 137.821C162.04 137.741 162.284 137.553 162.433 137.295C162.581 137.038 162.621 136.732 162.544 136.446C162.458 136.163 162.265 135.923 162.005 135.779C161.745 135.634 161.438 135.594 161.15 135.669L153.476 136.994L152.383 137.183L153.817 138.269L154.76 130.588L154.891 129.492L152.965 130.289L159.696 136.635L160.699 137.542C161.722 138.558 163.337 136.974 162.283 135.978Z" fill="#333333"/>
</svg>
