<svg width="170" height="140" fill="none" xmlns="http://www.w3.org/2000/svg" viewBox="0 0 170 140">
    <path d="M43.08 31.975c-1.446 1.769-4.247 2.782-6.51 3.14 2.153.178 4.546.476 5.912 2.145a7.614 7.614 0 0 1 1.266 2.802 109.095 109.095 0 0 1 1.546 5.96 53.082 53.082 0 0 1 1.495-5.275 7.162 7.162 0 0 1 .878-1.897c1.395-1.928 4.167-2.086 6.55-2.067a97.976 97.976 0 0 1-3.48-2.215 12.488 12.488 0 0 1-2.093-1.659c-2.204-2.285-2.503-5.732-2.672-8.94 0 .06-1.007 5.682-2.892 8.006z" fill="#F0D227"/>
    <path d="M42.283 31.181a9.856 9.856 0 0 1-5.983 2.851c-1.326.229-.877 2.096.3 2.195 2.133.19 4.586.467 5.583 2.633a39.174 39.174 0 0 1 2.054 7.48 1.133 1.133 0 0 0 1.082.785 1.14 1.14 0 0 0 1.081-.785c.29-1.232.619-2.464.998-3.666a8.983 8.983 0 0 1 1.395-3.367c1.287-1.46 3.69-1.39 5.464-1.38a1.139 1.139 0 0 0 1.054-.836 1.128 1.128 0 0 0-.485-1.251c-2.174-1.321-4.986-2.662-6.262-4.967-1.166-2.056-1.306-4.55-1.436-6.864-.07-1.182-1.994-1.61-2.203-.298-.439 2.453-.997 5.453-2.603 7.45-.867 1.123.708 2.722 1.586 1.58 1.834-2.355 2.662-5.534 3.18-8.434l-2.203-.298c.16 2.712.369 5.573 1.735 7.996 1.515 2.663 4.536 4.203 7.069 5.742l.568-2.076c-2.363 0-4.985.13-6.84 1.828a7.73 7.73 0 0 0-1.804 3.348 52.115 52.115 0 0 0-1.366 4.877h2.144a90.16 90.16 0 0 0-1.207-4.788 12.408 12.408 0 0 0-1.615-4.123c-1.605-2.225-4.427-2.622-6.98-2.84l.3 2.195a11.692 11.692 0 0 0 6.979-3.427c.937-1.063-.638-2.653-1.585-1.56z" fill="#333"/>
    <path d="M143.843 29.095H83.9v89.782h59.943V29.095z" fill="#fff"/>
    <path d="M143.843 117.725H83.9l1.117 1.112V32.711a17.91 17.91 0 0 0 0-3.507.743.743 0 0 1 0-.149L83.9 30.168h59.943l-1.126-1.113v86.127c0 1.162-.08 2.354 0 3.506.005.05.005.1 0 .149.026.279.156.537.363.725a1.131 1.131 0 0 0 1.517 0 1.12 1.12 0 0 0 .363-.725V32.711c0-1.152.09-2.354 0-3.507v-.149a1.135 1.135 0 0 0-1.117-1.122H83.9a1.148 1.148 0 0 0-1.127 1.122v86.127c0 1.162-.08 2.354 0 3.506.005.05.005.1 0 .149a1.142 1.142 0 0 0 1.127 1.123h59.943a1.126 1.126 0 0 0 1.021-1.118 1.119 1.119 0 0 0-1.021-1.117z" fill="#333"/>
    <path d="M131.141 16.051h-30.709c-2.364 0-5.305-.447-7.18 1.302-1.874 1.748-1.535 3.894-1.535 6.07v5.671a1.12 1.12 0 0 0 1.117 1.113h42.036a1.137 1.137 0 0 0 1.117-1.113V22.25a9.07 9.07 0 0 0-.269-2.98 4.973 4.973 0 0 0-1.79-2.316 4.998 4.998 0 0 0-2.787-.913c-1.446-.07-1.446 2.166 0 2.235 2.991.13 2.602 3.16 2.602 5.245v5.563l1.127-1.122H92.854l1.127 1.122v-4.48c0-1.39-.36-3.427.199-4.768.927-2.175 4.377-1.56 6.271-1.56h30.69a1.124 1.124 0 0 0 .698-1.852 1.124 1.124 0 0 0-.698-.373z" fill="#333"/>
    <path d="M143.843 29.095H83.9v5.94h59.943v-5.94z" fill="#DF357F"/>
    <path d="M143.844 33.913H83.9l1.117 1.123v-5.96L83.9 30.188h59.944l-1.127-1.112v5.96a1.121 1.121 0 0 0 1.122 1.017 1.121 1.121 0 0 0 1.121-1.017v-5.96a1.13 1.13 0 0 0-1.116-1.123H83.9a1.149 1.149 0 0 0-1.127 1.123v5.96a1.139 1.139 0 0 0 1.127 1.113h59.944c.279-.027.538-.156.727-.363a1.118 1.118 0 0 0 0-1.51 1.128 1.128 0 0 0-.727-.363z" fill="#333"/>
    <path d="M96.812 17.166v11.92a1.121 1.121 0 0 0 1.122 1.017 1.129 1.129 0 0 0 1.121-1.017v-11.92a1.121 1.121 0 0 0-1.121-1.018 1.129 1.129 0 0 0-1.122 1.018zM101.309 17.166v11.92a1.121 1.121 0 0 0 1.121 1.017 1.121 1.121 0 0 0 1.122-1.017v-11.92a1.121 1.121 0 0 0-1.122-1.018 1.128 1.128 0 0 0-1.121 1.018zM105.815 17.166v11.92a1.122 1.122 0 0 0 1.122 1.017 1.126 1.126 0 0 0 1.122-1.017v-11.92a1.126 1.126 0 0 0-1.88-.725 1.122 1.122 0 0 0-.364.725zM110.322 17.166v11.92a1.122 1.122 0 0 0 1.122 1.017 1.128 1.128 0 0 0 1.122-1.017v-11.92a1.122 1.122 0 0 0-1.122-1.018 1.126 1.126 0 0 0-1.122 1.018zM114.829 17.166v11.92a1.121 1.121 0 0 0 1.122 1.017 1.128 1.128 0 0 0 1.121-1.017v-11.92a1.121 1.121 0 0 0-1.121-1.018 1.121 1.121 0 0 0-1.122 1.017zM119.336 17.166v11.92a1.121 1.121 0 0 0 1.122 1.017 1.121 1.121 0 0 0 1.121-1.017v-11.92a1.121 1.121 0 0 0-1.121-1.018 1.121 1.121 0 0 0-1.122 1.017zM123.832 17.166v11.92a1.121 1.121 0 0 0 1.122 1.017 1.128 1.128 0 0 0 1.121-1.017v-11.92a1.121 1.121 0 0 0-1.121-1.018 1.121 1.121 0 0 0-1.122 1.017zM128.339 17.166v11.92a1.121 1.121 0 0 0 1.122 1.017 1.128 1.128 0 0 0 1.121-1.017v-11.92a1.121 1.121 0 0 0-1.121-1.018 1.121 1.121 0 0 0-1.122 1.017z" fill="#333"/>
    <path d="M133.813 53.553h-6.98v-5.106a3.492 3.492 0 0 1 1.032-2.466 3.516 3.516 0 0 1 4.953 0 3.482 3.482 0 0 1 1.025 2.466l-.03 5.106z" fill="#DF357F"/>
    <path d="M133.813 52.43h-6.979l1.126 1.122v-5.166c.01-.382.113-.757.299-1.092.074-.148.168-.285.28-.407l.239-.239.13-.11c-.1.08 0 0 0 0l.338-.208.15-.07.329-.099c.05 0 .369-.07.219-.05.407-.063.823-.018 1.207.13.179.06 0 0 .149.07.119.056.232.122.339.198l.14.09c.1.081.194.17.279.268.412.453.634 1.047.618 1.659v5.046a1.122 1.122 0 0 0 1.122 1.017 1.126 1.126 0 0 0 1.122-1.017v-5.056a4.603 4.603 0 0 0-2.677-4.218 4.64 4.64 0 0 0-4.961.681 4.608 4.608 0 0 0-1.595 3.249V53.572a1.137 1.137 0 0 0 1.117 1.113h6.979a1.135 1.135 0 0 0 1.055-.683 1.12 1.12 0 0 0-.229-1.232 1.142 1.142 0 0 0-.796-.34z" fill="#333"/>
    <path d="M117.75 53.553h-6.979v-5.106c0-.925.368-1.812 1.025-2.466a3.504 3.504 0 0 1 4.949 0 3.482 3.482 0 0 1 1.025 2.466l-.02 5.106z" fill="#DF357F"/>
    <path d="M117.75 52.43h-6.979l1.117 1.122v-5.165a2.49 2.49 0 0 1 .299-1.093 1.72 1.72 0 0 1 .289-.407l.229-.239a.69.69 0 0 0 .13-.109c-.09.08 0 0 0 0l.339-.209.159-.07s-.129.05 0 0l.329-.099s.379-.07.22-.05a2.33 2.33 0 0 1 1.206.13c.18.06 0 0 .15.07.121.056.238.122.349.198l.139.09s-.109-.08 0 0c.104.081.2.17.289.268.405.458.625 1.049.619 1.659v5.046a1.121 1.121 0 0 0 1.121 1.017 1.121 1.121 0 0 0 1.122-1.017v-5.056a4.673 4.673 0 0 0-1.067-2.98 4.631 4.631 0 0 0-7.234.129 4.595 4.595 0 0 0-.942 2.553v5.344a1.142 1.142 0 0 0 1.127 1.113h6.979a1.128 1.128 0 0 0 1.132-1.118 1.123 1.123 0 0 0-1.122-1.127z" fill="#333"/>
    <path d="M101.687 53.553h-6.979v-5.106a3.48 3.48 0 0 1 1.025-2.466 3.506 3.506 0 0 1 4.949 0 3.477 3.477 0 0 1 1.025 2.466l-.02 5.106z" fill="#DF357F"/>
    <path d="M101.687 52.43h-6.98l1.128 1.122v-5.166c.01-.383.112-.758.299-1.092.07-.15.164-.288.279-.408l.24-.238.129-.11c-.1.08 0 0 0 0l.339-.208.15-.07.328-.099s.37-.07.21-.05c.41-.064.83-.02 1.216.13.17.06 0 0 .15.07.118.056.232.122.339.198l.14.09s-.1-.08 0 0a2.38 2.38 0 0 1 .907 1.927v5.046a1.121 1.121 0 0 0 1.121 1.017 1.121 1.121 0 0 0 1.122-1.017v-5.056a4.732 4.732 0 0 0-1.057-2.98 4.624 4.624 0 0 0-5.015-1.464 4.606 4.606 0 0 0-2.228 1.582 4.58 4.58 0 0 0-.933 2.563V53.563a1.13 1.13 0 0 0 1.117 1.113h6.979a1.123 1.123 0 1 0 .02-2.245z" fill="#333"/>
    <path d="M133.813 70.658h-6.98v-5.106a3.492 3.492 0 0 1 1.032-2.466 3.516 3.516 0 0 1 4.953 0 3.482 3.482 0 0 1 1.025 2.466l-.03 5.106z" fill="#DF357F"/>
    <path d="M133.813 69.545h-6.979l1.126 1.113v-5.166c.009-.38.112-.752.299-1.082a1.41 1.41 0 0 1 .28-.408l.239-.238a.66.66 0 0 1 .13-.11c.109-.072.222-.138.338-.198l.15-.07.329-.099c.05 0 .369-.07.219-.06.408-.06.824-.012 1.207.14.179 0 0 0 .149.06l.339.198c.051.027.098.06.14.1a2.452 2.452 0 0 1 .897 1.926v5.037a1.122 1.122 0 0 0 1.122 1.017 1.127 1.127 0 0 0 1.122-1.017V65.64a4.7 4.7 0 0 0-1.057-2.98 4.658 4.658 0 0 0-3.174-1.642 4.67 4.67 0 0 0-3.407 1.086 4.58 4.58 0 0 0-1.595 3.238V70.688a1.135 1.135 0 0 0 1.117 1.122h6.979a1.138 1.138 0 0 0 1.152-1.117 1.136 1.136 0 0 0-1.122-1.147z" fill="#333"/>
    <path d="M117.75 70.658h-6.979v-5.106c0-.925.368-1.811 1.025-2.465a3.505 3.505 0 0 1 4.949 0 3.482 3.482 0 0 1 1.025 2.465l-.02 5.106z" fill="#DF357F"/>
    <path d="M117.75 69.545h-6.979l1.117 1.112v-5.165c.013-.38.115-.75.299-1.083.071-.152.169-.29.289-.407l.229-.239.13-.109.339-.199.159-.07s-.129 0 0 0l.329-.099s.379-.07.22-.06a2.328 2.328 0 0 1 1.206.14c.18 0 0 0 .15.06l.349.198.139.1s-.109-.09 0 0c.104.081.2.17.289.268a2.45 2.45 0 0 1 .619 1.659v5.036a1.121 1.121 0 0 0 1.121 1.017 1.121 1.121 0 0 0 1.122-1.017v-5.046a4.711 4.711 0 0 0-1.067-2.98 4.63 4.63 0 0 0-7.234.13 4.595 4.595 0 0 0-.942 2.552v5.344a1.141 1.141 0 0 0 1.127 1.123h6.979a1.14 1.14 0 0 0 .806-.329 1.129 1.129 0 0 0 .007-1.601 1.14 1.14 0 0 0-.803-.335z" fill="#333"/>
    <path d="M101.687 70.659h-6.979v-5.106a3.476 3.476 0 0 1 1.046-2.457 3.501 3.501 0 0 1 2.484-1c.928 0 1.818.367 2.474 1.021a3.477 3.477 0 0 1 1.025 2.466l-.05 5.076z" fill="#DF357F"/>
    <path d="M101.687 69.545h-6.98l1.128 1.112v-5.165c.008-.38.111-.752.299-1.083.064-.153.16-.292.279-.407l.24-.239a.692.692 0 0 1 .129-.109c.11-.072.222-.138.339-.199l.15-.07.328-.099s.37-.07.21-.06a2.37 2.37 0 0 1 1.216.14c.17 0 0 0 .15.06l.339.198c.05.027.097.06.14.1 0 0-.1-.09 0 0a2.38 2.38 0 0 1 .907 1.927v5.036a1.121 1.121 0 0 0 1.121 1.017 1.121 1.121 0 0 0 1.122-1.017v-5.046a4.745 4.745 0 0 0-1.057-2.98 4.632 4.632 0 0 0-7.234.13 4.59 4.59 0 0 0-.942 2.552v5.344a1.138 1.138 0 0 0 1.117 1.123h6.979a1.138 1.138 0 0 0 1.147-1.123 1.137 1.137 0 0 0-1.127-1.142z" fill="#333"/>
    <path d="M133.813 88.777h-6.98v-5.106a3.492 3.492 0 0 1 1.032-2.466 3.516 3.516 0 0 1 4.953 0 3.482 3.482 0 0 1 1.025 2.466l-.03 5.106z" fill="#DF357F"/>
    <path d="M133.813 87.665h-6.979l1.126 1.113v-5.166c.009-.38.112-.752.299-1.083.069-.15.163-.289.28-.407l.239-.239a.664.664 0 0 1 .13-.109 3.76 3.76 0 0 1 .338-.198l.15-.07.329-.1c.05 0 .369-.069.219 0a2.243 2.243 0 0 1 1.207.13c.179.06 0 0 .149.07l.339.188c.051.028.098.06.14.1a2.452 2.452 0 0 1 .897 1.927v5.036a1.122 1.122 0 0 0 1.122 1.017 1.126 1.126 0 0 0 1.122-1.017v-5.046a4.7 4.7 0 0 0-1.057-2.98 4.634 4.634 0 0 0-5.01-1.447c-.884.29-1.659.839-2.224 1.576a4.587 4.587 0 0 0-.942 2.553v5.344a1.135 1.135 0 0 0 1.117 1.123h6.979a1.158 1.158 0 0 0 1.177-1.142 1.164 1.164 0 0 0-1.147-1.172z" fill="#333"/>
    <path d="M117.75 88.777h-6.979v-5.106c0-.924.368-1.811 1.025-2.465a3.504 3.504 0 0 1 4.949 0 3.482 3.482 0 0 1 1.025 2.465l-.02 5.106z" fill="#DF357F"/>
    <path d="M117.75 87.665h-6.979l1.117 1.113v-5.166c.013-.38.115-.75.299-1.083.071-.152.169-.29.289-.407l.229-.239.13-.109.339-.198.159-.07s-.129 0 0 0l.329-.1s.379-.069.22 0a2.23 2.23 0 0 1 1.206.13c.18.06 0 0 .15.07.119.056.236.12.349.188l.139.1s-.109-.09 0 0c.104.08.2.17.289.268a2.45 2.45 0 0 1 .619 1.659v5.036a1.121 1.121 0 0 0 1.121 1.017 1.121 1.121 0 0 0 1.122-1.017v-5.046a4.711 4.711 0 0 0-1.067-2.98 4.63 4.63 0 0 0-7.234.13 4.595 4.595 0 0 0-.942 2.552v5.344a1.141 1.141 0 0 0 1.127 1.123h6.979c.308.001.604-.12.823-.336a1.153 1.153 0 0 0 .007-1.637 1.164 1.164 0 0 0-.82-.342z" fill="#333"/>
    <path d="M101.687 88.777h-6.979v-5.106a3.48 3.48 0 0 1 1.025-2.465 3.506 3.506 0 0 1 4.949 0 3.477 3.477 0 0 1 1.025 2.465l-.02 5.106z" fill="#DF357F"/>
    <path d="M101.687 87.665h-6.98l1.128 1.113v-5.166c.008-.38.111-.752.299-1.083.064-.153.16-.291.279-.407l.24-.239a.692.692 0 0 1 .129-.109c.11-.072.222-.138.339-.198l.15-.07.328-.1s.37-.069.21 0c.41-.068.83-.024 1.216.13.17.06 0 0 .15.07l.339.188a.71.71 0 0 1 .14.1s-.1-.09 0 0a2.383 2.383 0 0 1 .907 1.927v5.036a1.121 1.121 0 0 0 1.121 1.017 1.121 1.121 0 0 0 1.122-1.017v-5.046a4.745 4.745 0 0 0-1.057-2.98 4.632 4.632 0 0 0-7.234.13 4.59 4.59 0 0 0-.942 2.552v5.344a1.138 1.138 0 0 0 1.117 1.123h6.979a1.16 1.16 0 0 0 1.172-1.147 1.153 1.153 0 0 0-.333-.822 1.165 1.165 0 0 0-.819-.346z" fill="#333"/>
    <path d="M90.032 118.887H32.84V65.562l28.646-11.86 28.546 11.86v53.325z" fill="#fff"/>
    <path d="M90.032 117.726H32.841l1.116 1.112V65.563l-.827 1.073 25.126-10.401 2.343-.993c.21-.09.997-.269 1.126-.477-.15.228-.847-.219-.08.169.569.278 1.187.486 1.765.735l14.667 6.1 11.656 4.837-.828-1.073v53.315a1.122 1.122 0 0 0 1.122 1.017 1.129 1.129 0 0 0 1.122-1.017V65.563a1.17 1.17 0 0 0-.828-1.083L65.145 54.01a21.583 21.583 0 0 0-3.33-1.381c-.857-.199-1.994.546-2.722.854l-14.697 6.11-11.805 4.887a1.187 1.187 0 0 0-.827 1.083v53.315A1.14 1.14 0 0 0 32.89 120h57.192a1.14 1.14 0 0 0 1.117-1.162 1.138 1.138 0 0 0-1.167-1.112z" fill="#333"/>
    <path d="m61.506 51.068-34.379 15.22v6.178l34.379-15.209 34.239 15.209v-6.179l-34.24-15.219z" fill="#DF357F"/>
    <path d="M60.938 50.095 30.826 63.427l-4.267 1.887a1.105 1.105 0 0 0-.558.993v6.19a1.13 1.13 0 0 0 .557.975 1.14 1.14 0 0 0 1.128.018l30.11-13.381 4.268-1.888h-1.126L90.85 71.533l4.287 1.907a1.141 1.141 0 0 0 1.536-.432c.098-.17.15-.364.149-.561v-6.19a1.09 1.09 0 0 0-.548-.993L66.362 51.953l-4.288-1.907c-1.306-.577-2.442 1.35-1.126 1.986l29.911 13.312 4.288 1.897-.559-.993v6.188l1.696-.993-30.42-13.52c-1.257-.556-2.513-1.222-3.81-1.689-1.106-.407-2.712.686-3.719 1.123l-17.668 7.828-14.138 6.258 1.685.993v-6.188l-.558.993L57.767 53.92l4.267-1.888c1.307-.586.21-2.513-1.096-1.937z" fill="#333"/>
    <path d="M46.63 85.708c2.792 0 5.055-2.255 5.055-5.037 0-2.781-2.263-5.036-5.055-5.036s-5.055 2.255-5.055 5.036c0 2.782 2.263 5.037 5.055 5.037z" fill="#DF357F"/>
    <path d="M50.558 80.661a3.903 3.903 0 0 1-.713 2.242 3.942 3.942 0 0 1-6.222.27 3.907 3.907 0 0 1 1.336-6.061 3.942 3.942 0 0 1 2.339-.315c.908.168 1.73.645 2.325 1.35.595.705.925 1.594.935 2.514a1.121 1.121 0 0 0 1.122 1.017 1.13 1.13 0 0 0 1.122-1.017 6.223 6.223 0 0 0-1.137-3.513 6.26 6.26 0 0 0-2.931-2.258 6.183 6.183 0 0 0-6.82 1.818 6.14 6.14 0 0 0-1.25 5.543 6.142 6.142 0 0 0 1.406 2.567 6.174 6.174 0 0 0 5.354 1.954 6.185 6.185 0 0 0 2.738-1.055A6.156 6.156 0 0 0 52.1 83.52c.46-.877.7-1.85.702-2.84a1.12 1.12 0 0 0-1.113-1.027 1.129 1.129 0 0 0-1.13 1.007z" fill="#333"/>
    <path d="M62.533 85.708c2.791 0 5.055-2.255 5.055-5.037 0-2.781-2.263-5.036-5.055-5.036s-5.056 2.255-5.056 5.036c0 2.782 2.264 5.037 5.056 5.037z" fill="#DF357F"/>
    <path d="M66.461 80.66a3.905 3.905 0 0 1-.713 2.242 3.943 3.943 0 0 1-6.222.27 3.906 3.906 0 0 1 1.336-6.06 3.941 3.941 0 0 1 2.339-.315c.908.168 1.73.645 2.325 1.35.595.704.925 1.593.935 2.514a1.12 1.12 0 0 0 1.122 1.017 1.129 1.129 0 0 0 1.122-1.017 6.223 6.223 0 0 0-1.137-3.514 6.258 6.258 0 0 0-2.931-2.258 6.193 6.193 0 0 0-6.876 1.862 6.137 6.137 0 0 0-.533 7.079 6.166 6.166 0 0 0 3 2.56 6.194 6.194 0 0 0 3.944.225 6.174 6.174 0 0 0 3.272-2.204 6.134 6.134 0 0 0 1.26-3.73 1.121 1.121 0 0 0-1.112-1.028 1.13 1.13 0 0 0-1.13 1.008z" fill="#333"/>
    <path d="M78.436 85.708c2.792 0 5.055-2.255 5.055-5.037 0-2.781-2.263-5.036-5.055-5.036s-5.055 2.255-5.055 5.036c0 2.782 2.263 5.037 5.055 5.037z" fill="#DF357F"/>
    <path d="M82.365 80.662a3.904 3.904 0 0 1-.714 2.241 3.941 3.941 0 0 1-6.222.27 3.907 3.907 0 0 1 1.336-6.061 3.942 3.942 0 0 1 2.34-.315c.908.168 1.73.646 2.324 1.35.595.705.926 1.594.936 2.515a1.12 1.12 0 0 0 1.121 1.017 1.129 1.129 0 0 0 1.122-1.017 6.213 6.213 0 0 0-1.131-3.513 6.248 6.248 0 0 0-2.927-2.259 6.194 6.194 0 0 0-3.74-.164 6.173 6.173 0 0 0-3.146 2.018 6.131 6.131 0 0 0-.532 7.087 6.166 6.166 0 0 0 3 2.56 6.193 6.193 0 0 0 3.943.224 6.173 6.173 0 0 0 3.272-2.204 6.134 6.134 0 0 0 1.26-3.73 1.122 1.122 0 0 0-1.112-1.027 1.129 1.129 0 0 0-1.13 1.008zM32.79 114.655h57.242a1.125 1.125 0 0 0 1.02-1.118 1.12 1.12 0 0 0-1.02-1.117H32.79a1.126 1.126 0 0 0-1.02 1.117 1.12 1.12 0 0 0 1.02 1.118z" fill="#333"/>
    <path d="M71.656 94.53h-20.45v24.039h20.45v-24.04z" fill="#DF357F"/>
    <path d="M71.656 117.446h-20.45l1.127 1.123v-24.04l-1.127 1.112h20.45L70.53 94.53v24.04a1.125 1.125 0 0 0 1.88.724 1.12 1.12 0 0 0 .363-.724v-24.04a1.13 1.13 0 0 0-1.117-1.123h-20.45a1.139 1.139 0 0 0-1.116 1.123v24.04a1.121 1.121 0 0 0 1.116 1.112h20.45a1.125 1.125 0 0 0 1.021-1.117 1.121 1.121 0 0 0-1.02-1.118z" fill="#333"/>
    <path d="M68.356 108.804a2.26 2.26 0 0 0 2.263-2.255 2.26 2.26 0 0 0-2.263-2.255 2.26 2.26 0 0 0-2.263 2.255 2.26 2.26 0 0 0 2.263 2.255z" fill="#333"/>
</svg>
