<svg width="170" height="140" fill="none" xmlns="http://www.w3.org/2000/svg" viewBox="0 0 170 140">
    <path d="M147.729 54.398c-1.441 1.775-4.234 2.792-6.49 3.15 2.147.17 4.532.479 5.894 2.144a7.78 7.78 0 0 1 1.262 2.821 109.438 109.438 0 0 1 1.541 5.982 54.03 54.03 0 0 1 1.491-5.284 7.187 7.187 0 0 1 .875-1.904c1.391-1.934 4.155-2.094 6.53-2.074a97.38 97.38 0 0 1-3.469-2.223 12.987 12.987 0 0 1-2.087-1.665c-2.197-2.293-2.495-5.762-2.674-8.972.04.05-.954 5.672-2.873 8.025z" fill="#F0D227"/>
    <path d="M146.974 53.6a9.8 9.8 0 0 1-5.964 2.861c-1.322.23-.875 2.104.298 2.203 2.127.18 4.573.459 5.567 2.642a39.629 39.629 0 0 1 2.047 7.497 1.122 1.122 0 0 0 2.157 0c.292-1.236.623-2.462.994-3.679a9.067 9.067 0 0 1 1.392-3.37c1.282-1.465 3.677-1.405 5.447-1.395a1.12 1.12 0 0 0 1.05-.834 1.132 1.132 0 0 0-.494-1.25c-2.157-1.335-4.97-2.671-6.232-4.984-1.163-2.074-1.302-4.576-1.431-6.889-.07-1.186-1.988-1.615-2.197-.299-.437 2.453-1.044 5.473-2.594 7.477-.875 1.127.705 2.722 1.58 1.585 1.829-2.362 2.654-5.563 3.171-8.464l-2.197-.299c.159 2.722.368 5.593 1.73 7.976 1.501 2.671 4.522 4.227 7.047 5.772l.567-2.094c-2.356 0-4.97.13-6.819 1.835a7.799 7.799 0 0 0-1.799 3.37 51.693 51.693 0 0 0-1.362 4.894h2.157a99.582 99.582 0 0 0-1.203-4.815 12.561 12.561 0 0 0-1.61-4.137c-1.6-2.233-4.413-2.622-6.958-2.842l.298 2.204a11.625 11.625 0 0 0 6.958-3.44c.915-1.026-.656-2.622-1.6-1.525z" fill="#333"/>
    <path d="M14.536 98.661c-1.43 1.775-4.224 2.791-6.48 3.15 2.147.18 4.532.479 5.894 2.154a7.992 7.992 0 0 1 1.262 2.811 109.983 109.983 0 0 1 1.531 5.982 57.451 57.451 0 0 1 1.501-5.294 6.897 6.897 0 0 1 .875-1.904c1.391-1.934 4.145-2.094 6.52-2.074a84.581 84.581 0 0 1-3.459-2.223 12.498 12.498 0 0 1-2.097-1.665c-2.187-2.293-2.485-5.752-2.664-8.972.02.06-.974 5.702-2.883 8.035z" fill="#F0D227"/>
    <path d="M13.77 97.903a9.8 9.8 0 0 1-5.963 2.862c-1.322.229-.875 2.103.298 2.203 2.117.189 4.572.468 5.566 2.652a39.224 39.224 0 0 1 2.048 7.496 1.134 1.134 0 0 0 2.157 0c.288-1.236.606-2.472.994-3.678.23-1.21.703-2.36 1.392-3.38 1.272-1.465 3.677-1.395 5.437-1.385a1.135 1.135 0 0 0 1.013-1.546 1.133 1.133 0 0 0-.447-.548c-2.167-1.326-4.97-2.672-6.242-4.985-1.163-2.063-1.292-4.565-1.421-6.888-.07-1.187-1.988-1.605-2.197-.3-.438 2.463-.994 5.474-2.594 7.477-.875 1.127.695 2.732 1.58 1.586 1.829-2.363 2.644-5.553 3.17-8.464l-2.196-.3c.15 2.722.368 5.594 1.73 7.976 1.5 2.672 4.522 4.217 7.047 5.762l.557-2.083c-2.346 0-4.97.129-6.81 1.834a7.57 7.57 0 0 0-1.798 3.36 52.5 52.5 0 0 0-1.362 4.895h2.157a127.589 127.589 0 0 0-1.203-4.806 12.727 12.727 0 0 0-1.61-4.137c-1.6-2.233-4.413-2.632-6.958-2.851l.298 2.203a11.658 11.658 0 0 0 6.958-3.44c.915-1.056-.666-2.651-1.6-1.515z" fill="#333"/>
    <path d="M130.772 18.668H38.939c-.644 0-1.26.256-1.715.712a2.436 2.436 0 0 0-.71 1.72v37.355c0 .645.255 1.264.71 1.72a2.422 2.422 0 0 0 1.715.713h15.754c2.097 3.509 3.46 7.546 4.304 5.124.656-1.894-.199-3.5.437-5.124h50.842c.637 1.624-.218 3.23.438 5.124.845 2.422 2.206-1.615 4.304-5.124h15.754a2.42 2.42 0 0 0 1.715-.713 2.436 2.436 0 0 0 .711-1.72V21.14a2.439 2.439 0 0 0-1.488-2.283 2.421 2.421 0 0 0-.938-.189z" fill="#fff"/>
    <path d="M130.772 17.552H65.895c-8.856 0-17.723-.11-26.57 0a3.677 3.677 0 0 0-2.717.96 3.698 3.698 0 0 0-1.198 2.629c-.06 1.545 0 3.09 0 4.635v29.37a16.633 16.633 0 0 0 .129 4.216c.874 3.2 4.542 2.612 7.067 2.612h12.087l-.994-.558c.845 1.436 1.55 2.99 2.385 4.386.448.758.994 1.805 1.988 1.994 3.101.598 1.988-5.194 2.425-6.64l-1.073.828h50.842l-1.083-.827c.477 1.445-.666 7.237 2.435 6.64.895-.17 1.461-1.127 1.888-1.845.875-1.475 1.591-3.04 2.466-4.526l-.994.558h12.921c1.72 0 3.847.32 5.229-.937 1.192-1.096 1.153-2.502 1.153-3.987V21.11a3.634 3.634 0 0 0-1.056-2.494 3.611 3.611 0 0 0-2.483-1.065c-1.441-.1-1.431 2.143 0 2.243 1.63.11 1.302 1.994 1.302 3.12v23.228c0 3.988.07 7.916 0 11.874a1.6 1.6 0 0 1-.517 1.466 3.182 3.182 0 0 1-1.988.288h-7.653a62.012 62.012 0 0 0-6.809 0c-.845.09-1.093.598-1.491 1.306-.646 1.157-1.213 2.343-1.859 3.5-.109.179-.705.877-.715 1.086-.01.21.745.419.795.13.049-.29-.229-.908-.249-1.257-.079-1.355.209-2.611-.228-3.987a1.15 1.15 0 0 0-1.074-.818H59.434a1.16 1.16 0 0 0-1.084.818c-.447 1.395-.089 2.741-.228 4.157 0 .06-.298 1.087-.278 1.117l.864-.16a.668.668 0 0 0-.139-.15 9.884 9.884 0 0 0-.934-1.585c-.318-.588-.616-1.176-.924-1.754a7.672 7.672 0 0 0-1.223-2.114 1.51 1.51 0 0 0-1.143-.329c-2.982-.07-5.964 0-8.996 0h-4.642c-.775 0-2.087.22-2.693-.389a2.158 2.158 0 0 1-.378-1.674v-32.19a39.818 39.818 0 0 1 0-4.357c.16-1.476 1.382-1.326 2.445-1.326h62.82c9.144 0 18.309.17 27.443 0h.428a1.122 1.122 0 0 0 1.018-1.122 1.13 1.13 0 0 0-1.018-1.121z" fill="#333"/>
    <path d="M50.369 78.363c.596-2.143-.994-4.237-2.684-5.722-2.077-1.875-4.652-3.56-7.435-3.35a7.938 7.938 0 0 0-3.926 1.515c-3.32 2.333-5.188 6.91-3.648 10.668a9.562 9.562 0 0 0 2.038 2.99 11.077 11.077 0 0 0 5.157 3.105c1.972.538 4.053.52 6.015-.054 3.857-1.316 6.61-5.653 5.616-9.62" fill="#DF357F"/>
    <path d="M51.453 78.663c.546-2.402-.676-4.506-2.306-6.18a15.352 15.352 0 0 0-5.895-3.919C38.82 67.1 34.207 69.96 32.2 73.918a10.155 10.155 0 0 0-1.083 6.051 9.976 9.976 0 0 0 3.21 5.693c3.151 2.93 7.952 4.406 12.097 2.85a9.669 9.669 0 0 0 5.099-4.342 9.715 9.715 0 0 0 1.064-6.623c-.328-1.406-2.485-.808-2.157.598a7.367 7.367 0 0 1-.613 4.454 7.338 7.338 0 0 1-3.085 3.262c-2.982 1.705-6.719.997-9.472-.778-2.754-1.774-4.662-4.984-3.748-8.454.845-3.15 3.768-6.28 7.207-6.28a9.034 9.034 0 0 1 5.586 2.522c1.441 1.206 3.469 2.99 2.982 5.144-.318 1.406 1.839 1.994 2.157.598l.01.05z" fill="#333"/>
    <path d="M78.25 134.789H38.063s3.49-20.606 9.602-20.606h20.973c6.113.02 9.612 20.606 9.612 20.606z" fill="#fff"/>
    <path d="M78.25 133.693H38.065l1.083 1.415a71.42 71.42 0 0 1 3.22-12.431c.836-2.283 1.86-5.035 3.758-6.66.994-.847 1.988-.698 3.2-.698h16.173c1.113 0 2.713-.259 3.737.11 1.988.728 3.121 3.489 3.897 5.254a62.435 62.435 0 0 1 4.025 14.425c.239 1.426 2.396.818 2.157-.598a67.373 67.373 0 0 0-3.588-13.349c-.994-2.442-2.107-5.174-4.165-6.898a6.06 6.06 0 0 0-4.324-1.187H50.538a12.487 12.487 0 0 0-4.264.269c-2.405.898-3.837 3.579-4.84 5.773a61.785 61.785 0 0 0-4.444 15.392 1.14 1.14 0 0 0 .581 1.302c.153.078.322.12.493.124h40.187a1.123 1.123 0 0 0 1.017-1.122 1.128 1.128 0 0 0-1.017-1.121z" fill="#333"/>
    <path d="M74.88 100.953c.27-1.162.9-2.209 1.8-2.99a3.105 3.105 0 0 1 3.031-.21 3.84 3.84 0 0 1 1.988 2.373c.164.506.184 1.048.06 1.565-.133.434-.346.84-.626 1.196a13.216 13.216 0 0 1-3.4 3.171 2.282 2.282 0 0 1-1.153.458 1.667 1.667 0 0 1-1.232-.648 4.735 4.735 0 0 1-.666-1.276" fill="#fff"/>
    <path d="M75.954 101.243a4.25 4.25 0 0 1 1.52-2.482 2.062 2.062 0 0 1 2.416.438 2.174 2.174 0 0 1 .557 2.662 10.946 10.946 0 0 1-2.555 2.692 16.69 16.69 0 0 1-.864.598l-.368.199h-.07a.669.669 0 0 1-.276-.116.674.674 0 0 1-.201-.223 3.543 3.543 0 0 1-.388-.777 1.165 1.165 0 0 0-1.371-.788 1.137 1.137 0 0 0-.785 1.386c.284.931.85 1.75 1.62 2.343a2.643 2.643 0 0 0 2.783 0 13.476 13.476 0 0 0 3.976-3.649c.64-.742.992-1.69.994-2.672a4.925 4.925 0 0 0-.925-2.582 4.5 4.5 0 0 0-4.692-1.864c-2.047.479-2.932 2.413-3.548 4.227a1.124 1.124 0 0 0 .785 1.376 1.113 1.113 0 0 0 1.372-.788l.02.02z" fill="#333"/>
    <path d="M41.433 100.953a5.666 5.666 0 0 0-1.81-2.99 3.105 3.105 0 0 0-3.03-.21 3.848 3.848 0 0 0-1.989 2.373 2.898 2.898 0 0 0-.07 1.565c.145.441.371.85.667 1.206a13.327 13.327 0 0 0 3.39 3.171c.338.256.74.415 1.162.458a1.667 1.667 0 0 0 1.233-.648c.282-.391.507-.82.666-1.276" fill="#fff"/>
    <path d="M42.507 100.655c-.547-1.605-1.253-3.29-2.913-3.988a4.54 4.54 0 0 0-4.997 1.225 4.572 4.572 0 0 0-.668 5.115 13.692 13.692 0 0 0 3.856 3.859 2.978 2.978 0 0 0 3.042.518 4.154 4.154 0 0 0 1.908-2.492 1.124 1.124 0 0 0-.775-1.386 1.14 1.14 0 0 0-1.372.787c-.179.419-.377.938-.765 1.097h-.17a4.333 4.333 0 0 1-.864-.538 12.087 12.087 0 0 1-2.614-2.522 2.068 2.068 0 0 1-.586-1.436c.055-.506.252-.986.566-1.386a2.227 2.227 0 0 1 2.405-.837c.453.163.83.486 1.064.907.308.534.552 1.103.726 1.695a1.14 1.14 0 0 0 1.382.787 1.122 1.122 0 0 0 .775-1.375v-.03z" fill="#333"/>
    <path d="M76.538 103.487c.87-8.656-6.64-16.502-16.772-17.525-10.132-1.023-19.05 5.164-19.919 13.82-.869 8.655 6.64 16.501 16.773 17.524 10.131 1.023 19.05-5.164 19.918-13.819z" fill="#fff"/>
    <path d="M75.398 103.406c-.746 6.649-6.55 11.185-12.773 12.441-6.73 1.356-14.363-.937-18.717-6.4a13.064 13.064 0 0 1 .309-16.948c4.651-5.184 12.315-6.66 18.885-4.845 7.028 1.994 13.011 8.085 12.335 15.762-.129 1.445 2.108 1.435 2.237 0 .676-7.587-4.572-14.127-11.292-16.948-7.246-3.07-16.172-2.183-22.225 2.99a15.273 15.273 0 0 0-5.176 9.008 15.3 15.3 0 0 0 1.776 10.243c3.907 6.799 12.117 10.289 19.74 9.69 8.34-.668 16.193-6.26 17.177-14.953.12-1.466-2.117-1.456-2.276-.04z" fill="#333"/>
    <path d="m52.596 106.467 9.443.12a.67.67 0 0 1 .447.129.504.504 0 0 1 .06.489 27.68 27.68 0 0 1-1.044 3.34 2.223 2.223 0 0 1-.805 1.166 2.534 2.534 0 0 1-1.134.239 8.268 8.268 0 0 1-3.588-.518c-1.113-.479-3.25-3.818-3.38-4.985" fill="#DF357F"/>
    <path d="m52.596 107.594 4.92.059h4.533a.203.203 0 0 0-.11 0l-.407-.398c0-.439 0-.509-.1-.2 0 .12-.06.239-.099.359-.04.12-.09.349-.14.529a25.8 25.8 0 0 1-.387 1.236c-.139.408-.248.747-.407 1.106a.94.94 0 0 1-.259.429 1.986 1.986 0 0 1-.914.09c-.378.02-.756.02-1.133 0a6.318 6.318 0 0 1-.994-.17 3.35 3.35 0 0 1-.726-.259c-.12-.07-.159-.12 0 0a3.24 3.24 0 0 1-.268-.249 4.684 4.684 0 0 1-.428-.459 8.968 8.968 0 0 1-.894-1.236c-.28-.427-.536-.87-.766-1.326l-.149-.329v.05l-.06-.16a2.682 2.682 0 0 1-.119-.488 1.126 1.126 0 0 0-1.352-.692 1.122 1.122 0 0 0-.805 1.29c.125.621.357 1.215.686 1.755.342.648.734 1.268 1.173 1.854.41.601.894 1.147 1.441 1.625a5.03 5.03 0 0 0 2.525.997 7.538 7.538 0 0 0 3.499-.09c1.133-.419 1.54-1.495 1.918-2.542.19-.518.368-1.047.517-1.575.213-.557.35-1.141.408-1.735a1.47 1.47 0 0 0-1.054-1.465 6.562 6.562 0 0 0-1.77-.1l-8.27-.1a1.123 1.123 0 0 0-1.017 1.122 1.128 1.128 0 0 0 1.018 1.121l-.01-.049z" fill="#333"/>
    <path d="M57.913 95.59a9.196 9.196 0 0 0-3.39 6.451.619.619 0 0 0 .657.777c1.845.296 3.735.093 5.477-.588" fill="#fff"/>
    <path d="M57.118 94.793a10.38 10.38 0 0 0-3.33 5.054c-.136.484-.24.977-.308 1.475a2.52 2.52 0 0 0 .249 1.914 2.295 2.295 0 0 0 1.7.748c.56.07 1.125.1 1.69.09a11.77 11.77 0 0 0 3.836-.758 1.133 1.133 0 0 0 .775-1.375 1.122 1.122 0 0 0-1.371-.788 9.635 9.635 0 0 1-3.37.678h-.914a4.398 4.398 0 0 1-.696-.08h-.09c-.188-.06-.129 0 .17.13.129.468.188.578.178.319a1.005 1.005 0 0 1 0-.17v-.598c.092-.502.225-.995.398-1.475 0 0 .169-.429.1-.26l.139-.319c.119-.239.238-.468.377-.697a7.968 7.968 0 0 1 1.988-2.253 1.117 1.117 0 0 0 0-1.585 1.14 1.14 0 0 0-1.58 0l.06-.05zM66.91 94.284h-.408a.956.956 0 0 0-.955.957v3.07c0 .53.428.958.955.958h.407a.956.956 0 0 0 .954-.957v-3.07a.956.956 0 0 0-.954-.958zM49.087 94.284h-.408a.956.956 0 0 0-.954.957v3.07c0 .53.427.958.954.958h.408a.956.956 0 0 0 .954-.957v-3.07a.956.956 0 0 0-.954-.958z" fill="#333"/>
    <path d="M76.5 99.27c2.913-4.557 2.704-22.93-14.59-24.046-2.694-.17-20.944-1.994-24.691 11.125-1.263 4.426-.865 9.97 3.24 12.023 1.203-5.822 3.18-5.533 8.42-10.099 0 0 24.849 3.4 27.622 10.996z" fill="#DF357F"/>
    <path d="M77.465 99.837c2.057-3.31 1.829-8.135 1.063-11.773a17.071 17.071 0 0 0-3.202-7.243 17.007 17.007 0 0 0-6.121-5.01c-4.135-1.854-9.035-2.053-13.528-1.854-5.407.25-11.193 1.486-15.318 5.234a15.44 15.44 0 0 0-4.73 9.61c-.498 3.988.486 8.514 4.303 10.538a1.12 1.12 0 0 0 1.64-.668 9.142 9.142 0 0 1 2.575-5.184c1.749-1.585 3.777-2.871 5.566-4.426l-1.084.289c2.734.379 5.457.907 8.151 1.515 4.81 1.067 9.79 2.343 14.174 4.686 1.67.907 3.787 2.133 4.503 3.987.517 1.336 2.684.758 2.157-.598-.994-2.642-3.519-4.326-5.964-5.563a50.856 50.856 0 0 0-10.06-3.668 94.03 94.03 0 0 0-9.203-1.994c-.875-.16-1.75-.3-2.624-.439-.17 0-.348-.06-.517-.07-.994-.08-1.372.499-2.078 1.087a56.19 56.19 0 0 0-5.099 4.087 11.359 11.359 0 0 0-2.674 5.703l1.64-.668c-3.1-1.645-3.628-5.423-3.18-8.624a13.225 13.225 0 0 1 3.697-7.656c3.519-3.44 8.718-4.596 13.469-4.885a32.708 32.708 0 0 1 11.49.937 14.447 14.447 0 0 1 6.015 3.777 14.507 14.507 0 0 1 3.497 6.193c.994 3.439 1.462 8.414-.467 11.514-.785 1.226 1.153 2.393 1.909 1.166zM57.198 118.649c1.213 3.789 5.745 4.516 9.164 3.848a8.753 8.753 0 0 0 4.533-2.313c.915-.927 3.111-3.728.795-4.436a1.124 1.124 0 0 0-1.204 1.62c.128.251.345.445.608.544h.1l-.488-.29.07.08-.288-.498a.877.877 0 0 1 0-.23c-.09 0-.259.399-.319.489a7.715 7.715 0 0 1-.516.718 5.357 5.357 0 0 1-1.283 1.136 7.508 7.508 0 0 1-3.12 1.067c-1.989.249-5.16 0-5.905-2.363-.437-1.366-2.594-.787-2.157.598l.01.03z" fill="#333"/>
    <path d="M57.198 118.051c-.745 2.333-3.856 2.612-5.904 2.363a7.437 7.437 0 0 1-3.032-.997 5.45 5.45 0 0 1-1.292-1.097 7.58 7.58 0 0 1-.527-.708c-.09-.139-.189-.408-.318-.488-.129-.08.05-.209-.06.13l-.278.498.06-.08-.487.289h.1a1.117 1.117 0 0 0 .785-1.375 1.113 1.113 0 0 0-1.372-.788c-2.326.708-.13 3.509.785 4.436a8.753 8.753 0 0 0 4.533 2.313c3.419.658 7.951-.06 9.164-3.848.437-1.376-1.72-1.994-2.157-.598v-.05z" fill="#333"/>
    <path d="M58.28 130.223a2.379 2.379 0 0 0 2.377-2.382 2.38 2.38 0 0 0-2.376-2.383 2.38 2.38 0 0 0-2.376 2.383 2.379 2.379 0 0 0 2.376 2.382z" fill="#DF357F"/>
    <path d="M59.534 127.811v.199-.099a2.817 2.817 0 0 0-.07.309.984.984 0 0 0-.07.179s.13-.249 0-.099c-.129.149-.119.219-.188.329-.07.109.149-.15 0-.06l-.11.109-.08.09c-.089.08-.208.11 0 0-.089 0-.168.12-.258.17l-.109.049c-.179.11.258-.069 0 0l-.308.09h.07-.497c-.15 0 .298.05.08 0h-.19l-.179-.06c-.109 0 0-.069.09 0a1.832 1.832 0 0 0-.279-.149l-.119-.09c-.129-.07.209.199.05 0a1.591 1.591 0 0 0-.259-.259c.14.08.13.169.06.08-.07-.09-.07-.11-.1-.16l-.059-.11c-.06-.119 0-.209 0 0 0-.099-.08-.199-.1-.299v-.129c-.049-.22 0 .289 0 0v-.299c0-.11.07-.26 0 0a.502.502 0 0 0 0-.12l.09-.309c.07-.219-.12.239 0 0l.09-.169.089-.13c.07-.12.11 0-.05 0 .08 0 .15-.16.219-.219.07-.06.189-.14 0 0 .115-.05.224-.11.328-.18 0 0-.268.09-.09 0l.18-.06c.06 0 .367-.069.168 0-.198.07 0 0 0 0h.338c.22 0-.248-.059 0 0l.368.1c.209.07-.189-.11-.07 0l.19.11.109.06.1.069c-.14-.109-.17-.129-.08-.05l.218.22c.16.159-.149-.23 0 0 .15.229.07.109.1.159l.09.17c.099.179-.08-.249 0 0 .079.249.069.239.099.369.03.129 0 .109 0-.11-.006.09-.006.179 0 .269a1.126 1.126 0 0 0 1.118 1.021 1.126 1.126 0 0 0 1.118-1.021 3.563 3.563 0 0 0-2.346-3.31 3.47 3.47 0 0 0-4.54 2.484 3.507 3.507 0 0 0 2.179 4.075 3.478 3.478 0 0 0 3.204-.402 3.496 3.496 0 0 0 1.503-2.867 1.138 1.138 0 0 0-1.113-1.126 1.153 1.153 0 0 0-.984 1.176z" fill="#333"/>
    <path d="M134.47 134.789H94.293s3.489-20.606 9.592-20.606h20.983c6.103.02 9.602 20.606 9.602 20.606z" fill="#fff"/>
    <path d="M134.47 133.693H94.293l1.074 1.416a71.417 71.417 0 0 1 3.23-12.432c.835-2.283 1.859-5.034 3.757-6.659.994-.848 1.988-.698 3.211-.698h16.162c1.113 0 2.724-.259 3.737.11 1.988.727 3.131 3.489 3.897 5.253a61.979 61.979 0 0 1 4.035 14.426c.239 1.425 2.396.817 2.157-.599a68.027 68.027 0 0 0-3.588-13.348c-.994-2.443-2.117-5.174-4.175-6.899a6.059 6.059 0 0 0-4.324-1.186h-16.708a12.483 12.483 0 0 0-4.264.269c-2.396.897-3.827 3.579-4.841 5.772a62.231 62.231 0 0 0-4.443 15.392 1.153 1.153 0 0 0 .59 1.302c.153.078.322.12.493.124h40.177a1.122 1.122 0 0 0 1.017-1.121 1.122 1.122 0 0 0-1.017-1.122z" fill="#333"/>
    <path d="M131.11 100.953a5.596 5.596 0 0 1 1.8-2.99 3.1 3.1 0 0 1 3.031-.21 3.789 3.789 0 0 1 1.988 2.373c.167.505.191 1.047.07 1.565a3.856 3.856 0 0 1-.656 1.206 13.551 13.551 0 0 1-3.4 3.171 2.31 2.31 0 0 1-1.153.458 1.64 1.64 0 0 1-1.232-.648 4.75 4.75 0 0 1-.676-1.276" fill="#fff"/>
    <path d="M132.184 101.244a4.182 4.182 0 0 1 1.511-2.483 2.082 2.082 0 0 1 2.425.439 2.158 2.158 0 0 1 .547 2.662 10.754 10.754 0 0 1-2.555 2.691c-.278.213-.567.413-.865.599l-.367.199h-.07a.676.676 0 0 1-.477-.339 3.499 3.499 0 0 1-.378-.778 1.166 1.166 0 0 0-1.382-.787 1.135 1.135 0 0 0-.735 1.435 4.628 4.628 0 0 0 1.62 2.343 2.628 2.628 0 0 0 2.773 0 13.36 13.36 0 0 0 3.976-3.648 3.99 3.99 0 0 0 .994-2.672 4.83 4.83 0 0 0-.914-2.582 4.51 4.51 0 0 0-4.702-1.864c-2.037.478-2.922 2.412-3.538 4.226a1.126 1.126 0 0 0 .785 1.376 1.143 1.143 0 0 0 1.372-.787l-.02-.03z" fill="#333"/>
    <path d="M97.653 100.953a5.655 5.655 0 0 0-1.8-2.99 3.105 3.105 0 0 0-3.03-.21 3.84 3.84 0 0 0-1.989 2.373 2.889 2.889 0 0 0-.06 1.565c.141.44.364.849.657 1.206a13.376 13.376 0 0 0 3.4 3.171c.334.256.733.415 1.152.458a1.667 1.667 0 0 0 1.233-.648c.288-.388.516-.819.676-1.276" fill="#fff"/>
    <path d="M98.736 100.656c-.547-1.606-1.252-3.29-2.912-3.988a4.53 4.53 0 0 0-5.01 1.212 4.561 4.561 0 0 0-.656 5.128 13.686 13.686 0 0 0 3.896 3.868 2.979 2.979 0 0 0 3.042.519 4.156 4.156 0 0 0 1.908-2.493 1.14 1.14 0 0 0-.785-1.385 1.14 1.14 0 0 0-1.371.787c-.17.419-.368.937-.766 1.097h-.159a4.34 4.34 0 0 1-.865-.539 12.356 12.356 0 0 1-2.624-2.522 2.065 2.065 0 0 1-.586-1.435c.06-.507.26-.987.576-1.386a2.217 2.217 0 0 1 2.406-.837 1.99 1.99 0 0 1 1.053.907c.312.533.559 1.102.736 1.695a1.116 1.116 0 0 0 2.048.262 1.115 1.115 0 0 0 .109-.851l-.04-.039z" fill="#333"/>
    <path d="M132.774 103.491c.869-8.655-6.64-16.501-16.772-17.524-10.132-1.024-19.05 5.163-19.919 13.819-.869 8.655 6.64 16.502 16.772 17.525 10.132 1.023 19.05-5.164 19.919-13.82z" fill="#fff"/>
    <path d="M131.617 103.406c-.735 6.649-6.55 11.185-12.763 12.441-6.739 1.356-14.363-.937-18.716-6.4a13.042 13.042 0 0 1-2.973-8.531 13.04 13.04 0 0 1 3.281-8.417c4.652-5.184 12.315-6.66 18.885-4.845 7.028 1.994 13.012 8.085 12.326 15.762-.119 1.445 2.117 1.435 2.236 0 .676-7.587-4.562-14.127-11.291-16.948-7.237-3.07-16.172-2.183-22.226 2.99a15.274 15.274 0 0 0-5.17 9.01 15.3 15.3 0 0 0 1.78 10.241c3.907 6.799 12.117 10.289 19.741 9.69 8.33-.668 16.192-6.26 17.166-14.953.129-1.466-2.067-1.456-2.276-.04z" fill="#333"/>
    <path d="m108.825 106.467 9.443.12a.68.68 0 0 1 .447.129.525.525 0 0 1 .05.489 27.663 27.663 0 0 1-1.044 3.34c-.126.47-.41.882-.805 1.166a2.506 2.506 0 0 1-1.133.239 8.223 8.223 0 0 1-3.578-.518c-1.114-.479-3.251-3.818-3.38-4.985" fill="#DF357F"/>
    <path d="m108.825 107.594 4.92.059H118.278h-.12l-.397-.398c0-.439-.06-.509-.109-.2l-.09.359-.149.529c-.119.418-.249.827-.388 1.236-.113.375-.246.745-.397 1.106a.936.936 0 0 1-.259.429c-.297.099-.613.13-.924.09-.378.02-.756.02-1.133 0a6.814 6.814 0 0 1-.994-.17 3.588 3.588 0 0 1-.726-.259c-.109-.07-.149-.12 0 0l-.268-.249c-.149-.14-.288-.299-.428-.459a11.06 11.06 0 0 1-.894-1.236 11.65 11.65 0 0 1-.756-1.326 2.63 2.63 0 0 1-.149-.329v.05a3.897 3.897 0 0 1-.189-.648 1.105 1.105 0 0 0-.525-.674 1.11 1.11 0 0 0-.846-.104 1.154 1.154 0 0 0-.786 1.376c.133.62.368 1.213.696 1.755.342.646.731 1.265 1.163 1.854a9.078 9.078 0 0 0 1.451 1.625 4.965 4.965 0 0 0 2.525.997 7.539 7.539 0 0 0 3.499-.09 3.652 3.652 0 0 0 1.918-2.542c.189-.518.358-1.047.517-1.575a7.138 7.138 0 0 0 .408-1.735 1.482 1.482 0 0 0-1.054-1.465 6.634 6.634 0 0 0-1.779-.1l-8.26-.1a1.123 1.123 0 0 0-1.018 1.122 1.13 1.13 0 0 0 1.018 1.121l-.01-.049z" fill="#333"/>
    <path d="M114.133 95.59a9.202 9.202 0 0 0-3.389 6.451.622.622 0 0 0 .129.557.63.63 0 0 0 .527.22c1.845.297 3.736.094 5.476-.588" fill="#fff"/>
    <path d="M113.348 94.793a10.24 10.24 0 0 0-3.33 5.054 9.405 9.405 0 0 0-.308 1.475 2.521 2.521 0 0 0 .238 1.914 2.332 2.332 0 0 0 1.71.748c.557.07 1.118.1 1.68.09a11.71 11.71 0 0 0 3.836-.758 1.144 1.144 0 0 0 .786-1.375 1.123 1.123 0 0 0-1.372-.788 9.646 9.646 0 0 1-3.38.678h-.904a4.169 4.169 0 0 1-.696-.08h-.099c-.179-.06-.119 0 .169.13.139.468.199.578.179.319a1.206 1.206 0 0 0 0-.17v-.598c.095-.502.231-.996.407-1.475 0 0 .159-.429.1-.26 0-.11.089-.209.139-.319.049-.11.238-.468.368-.697a8.2 8.2 0 0 1 1.987-2.253 1.125 1.125 0 0 0 0-1.585 1.138 1.138 0 0 0-1.58 0l.07-.05zM123.138 94.284h-.407a.956.956 0 0 0-.955.957v3.07c0 .53.428.958.955.958h.407a.955.955 0 0 0 .954-.957v-3.07a.955.955 0 0 0-.954-.958zM105.316 94.284h-.407a.955.955 0 0 0-.954.957v3.07c0 .53.427.958.954.958h.407a.956.956 0 0 0 .955-.957v-3.07a.956.956 0 0 0-.955-.958z" fill="#333"/>
    <path d="m118.139 89.171-.119-2.732a33.454 33.454 0 0 1 12.544 11.346 14.491 14.491 0 0 0 2.163-7.687 14.493 14.493 0 0 0-2.233-7.666c-2.694-4.137-7.475-6.62-12.365-7.208-4.89-.588-20.943-1.994-24.69 11.126-1.263 4.426-.865 9.969 3.24 12.023 2.197-6.82 12.773-7.587 15.377-14.256a7.174 7.174 0 0 0 2.283 3.445 7.146 7.146 0 0 0 3.8 1.61z" fill="#DF357F"/>
    <path d="m119.252 89.17-.119-2.731-1.68.997A32.836 32.836 0 0 1 129.6 98.402a1.128 1.128 0 0 0 1.516.395c.168-.094.31-.23.412-.395a15.65 15.65 0 0 0-1.382-18.224c-3.598-4.177-8.876-5.822-14.194-6.25-8.14-.648-17.99.827-22.225 8.782-2.684 4.985-3.509 13.549 2.385 16.679a1.132 1.132 0 0 0 1.65-.668c1.183-3.48 4.831-5.234 7.783-6.978 3.121-1.815 6.173-3.829 7.594-7.298h-2.186a8.313 8.313 0 0 0 2.57 3.936 8.273 8.273 0 0 0 4.288 1.906c1.401.21 1.988-1.994.596-2.163a6.201 6.201 0 0 1-3.284-1.347 6.232 6.232 0 0 1-2.014-2.93 1.118 1.118 0 0 0-1.078-.812 1.12 1.12 0 0 0-1.078.812c-1.392 3.39-5.139 5.114-8.101 6.849-2.963 1.734-6.074 3.888-7.276 7.407l1.64-.668c-4.553-2.413-3.748-9.172-1.859-13.09a14.107 14.107 0 0 1 3.654-4.538 14.055 14.055 0 0 1 5.173-2.67 29.733 29.733 0 0 1 10.267-1.076c4.086.19 8.111.917 11.53 3.34a13.34 13.34 0 0 1 5.302 8.213 13.376 13.376 0 0 1-1.713 9.632h1.928a35.09 35.09 0 0 0-12.922-11.744 1.13 1.13 0 0 0-1.542.429 1.13 1.13 0 0 0-.147.568l.119 2.731c.069 1.386 2.306 1.386 2.246-.06z" fill="#333"/>
    <path d="M114.57 119.396a50.992 50.992 0 0 1 4.682 6.062 48.621 48.621 0 0 0 9.791-7.447" fill="#fff"/>
    <path d="M113.775 120.193a50.062 50.062 0 0 1 4.513 5.823 1.143 1.143 0 0 0 1.531.408 57.011 57.011 0 0 0 10.019-7.586c.994-.997-.547-2.592-1.581-1.585a54.88 54.88 0 0 1-9.572 7.277l1.531.399a54.025 54.025 0 0 0-4.86-6.281c-.994-1.076-2.545.509-1.581 1.585v-.04z" fill="#333"/>
    <path d="M113.169 117.542a80.807 80.807 0 0 1-4.175 6.57.562.562 0 0 1-.361.332.557.557 0 0 1-.484-.073 43.79 43.79 0 0 1-8.946-4.267" fill="#fff"/>
    <path d="M112.204 116.974a92.675 92.675 0 0 1-2.077 3.449 57.677 57.677 0 0 1-1.073 1.625l-.587.868-.288.418c-.169.25-.199.29-.11.14l.567-.16a4.063 4.063 0 0 1-1.312-.468l-1.203-.469a32.147 32.147 0 0 1-1.988-.857 42.597 42.597 0 0 1-4.343-2.383c-1.223-.767-2.346 1.177-1.124 1.934a50.072 50.072 0 0 0 8.181 3.988c.855.329 1.779.827 2.614.189a8.962 8.962 0 0 0 1.61-2.173 81.572 81.572 0 0 0 3.082-4.984 1.128 1.128 0 0 0-1.255-1.631 1.126 1.126 0 0 0-.684.494l-.01.02z" fill="#333"/>
    <path d="M112.255 124.491a47.908 47.908 0 0 0-1.094 10.318c1.601.05 5.169.11 7.644 0a68.931 68.931 0 0 1-2.564-8.633c-.189-.688-.438-1.496-1.114-1.735-.21-.06-.427-.09-.646-.09l-2.067-.089" fill="#DF357F"/>
    <path d="M111.171 124.192a34.6 34.6 0 0 0-.855 5.344 52.175 52.175 0 0 0-.268 5.274 1.145 1.145 0 0 0 1.113 1.126c2.545.07 5.099.1 7.644 0a1.135 1.135 0 0 0 .968-.562 1.147 1.147 0 0 0 .026-1.123 11.224 11.224 0 0 1-.477-1.246 47.073 47.073 0 0 1-.537-1.695c-.348-1.216-.666-2.432-.994-3.648a11.396 11.396 0 0 0-.994-3.21c-.934-1.506-2.803-1.246-4.344-1.306-1.54-.06-1.431 2.183 0 2.243h1.243c.33-.031.663-.031.994 0 .258.06.348.408.447.718.288.996.507 1.993.755 2.911a38.105 38.105 0 0 0 1.988 6.27l.994-1.685c-2.544.1-5.099.07-7.643 0l1.123 1.117a39.437 39.437 0 0 1 1.044-9.969 1.129 1.129 0 0 0-.806-1.291 1.122 1.122 0 0 0-1.351.693l-.07.039z" fill="#333"/>
    <path d="M110.266 124.401a.168.168 0 0 0-.022.085c0 .029.007.059.022.084a.207.207 0 0 0 .139 0h5.547a.634.634 0 0 0 .517-.169.592.592 0 0 0 .099-.409 8.99 8.99 0 0 0-1.66-5.054.68.68 0 0 0-.328-.299.764.764 0 0 0-.368 0l-.775.139c-.22.024-.433.092-.626.2a1.527 1.527 0 0 0-.408.468l-1.451 2.223-.686 2.732z" fill="#DF357F"/>
    <path d="M109.143 124.402a1.25 1.25 0 0 0 .577 1.136c.305.159.651.225.994.19h4.622a3.245 3.245 0 0 0 1.6-.229 1.66 1.66 0 0 0 .765-1.585 10.235 10.235 0 0 0-1.68-5.334 1.99 1.99 0 0 0-1.511-1.047 6.6 6.6 0 0 0-1.451.21 2.272 2.272 0 0 0-1.421.917c-.308.418-.577.867-.865 1.306a5.766 5.766 0 0 0-.924 1.655l-.666 2.492a1.124 1.124 0 0 0 .785 1.376 1.117 1.117 0 0 0 1.372-.788l.477-1.774c.069-.3.149-.589.228-.888v-.05c-.059.22-.079.18 0 .05.08-.129.09-.139.14-.209l.755-1.156.338-.519.129-.199c.129-.18 0 0 0 0s.249-.06-.05 0h.189c.209-.05.418-.08.627-.11l.278-.05h.059a.464.464 0 0 1-.407-.08s-.179-.119-.159-.139l.189.269c.196.302.375.615.537.937l.109.239s.109.26 0 .08a9.475 9.475 0 0 1 .477 1.496c0 .169.07.348.099.528v.887c0 .18-.059.11 0 0 .597-.409.736-.568.438-.478h.129-2.853c-.944 0-1.908.059-2.852 0l.566.159h-.06l.507.678v.13a1.125 1.125 0 0 0-1.113-1.127 1.152 1.152 0 0 0-.974 1.027z" fill="#333"/>
    <path d="M105.455 50.091h-41.25V16.365L84.87 7.752l20.585 8.613v33.726z" fill="#fff"/>
    <path d="M105.446 48.965h-41.21l1.113 1.116V16.356l-.825 1.086 18.02-7.507 1.71-.717c.19-.08.756-.2.875-.37-.13.18-.805-.219-.209.11.413.203.838.38 1.272.529l10.517 4.406 8.469 3.55-.816-1.087V50.05c.027.28.156.539.363.728a1.119 1.119 0 0 0 1.512 0 1.13 1.13 0 0 0 .362-.728V16.356a1.166 1.166 0 0 0-.825-1.077l-18.22-7.627a15.593 15.593 0 0 0-2.346-.997c-.705-.149-1.49.37-2.117.629L72.456 11.72l-8.519 3.549a1.163 1.163 0 0 0-.825 1.077V50.05a1.148 1.148 0 0 0 1.123 1.127h41.241a1.122 1.122 0 0 0 .898-1.119 1.123 1.123 0 0 0-.928-1.094z" fill="#333"/>
    <path d="M84.88 4.094 60.08 15.14v6.24l24.8-11.055 24.69 11.055v-6.24L84.88 4.094z" fill="#DF357F"/>
    <path d="m84.313 3.117-21.738 9.69-3.062 1.355a1.096 1.096 0 0 0-.556.997v6.231a1.139 1.139 0 0 0 1.123 1.143 1.13 1.13 0 0 0 .567-.146l21.728-9.68 3.061-1.366h-1.123l21.669 9.64 2.982 1.356a1.118 1.118 0 0 0 1.537-.428 1.13 1.13 0 0 0 .143-.569v-6.18a1.09 1.09 0 0 0-.547-.997l-21.649-9.69-3.051-1.366c-1.302-.579-2.436 1.355-1.124 1.993l21.709 9.64 2.982 1.416-.557-.997v6.231l1.69-.997-21.867-9.79c-.925-.408-1.86-.907-2.814-1.256s-1.987.36-2.812.748L69.85 15.777l-10.367 4.616 1.68.997v-6.23l-.547.996 21.728-9.69 3.062-1.356c1.342-.638.208-2.572-1.094-1.993z" fill="#333"/>
    <path d="M74.145 30.99a3.653 3.653 0 0 0 3.648-3.659 3.653 3.653 0 0 0-3.648-3.658 3.653 3.653 0 0 0-3.648 3.659 3.653 3.653 0 0 0 3.648 3.658z" fill="#DF357F"/>
    <path d="M76.67 27.322v.309c0 .1 0 0 0 0a4.147 4.147 0 0 1-.11.479c0 .09-.059.179-.099.269-.099.17-.188.329-.298.488-.11.16.09-.1 0 0l-.159.18-.129.13s-.268.218-.07.069c-.129.09-.258.18-.397.26l-.17.089-.128.05-.478.14c-.06 0-.268 0 0 0h-.755c-.169 0 .249.06-.05 0l-.288-.07-.278-.09a4.326 4.326 0 0 1-.418-.23l-.199-.13c-.139-.109.18.17 0 0a5.18 5.18 0 0 1-.397-.408c.14.16 0 0 0 0a1.931 1.931 0 0 1-.15-.24 1.388 1.388 0 0 1-.098-.159s-.14-.329-.05-.09c-.06-.149-.11-.302-.15-.458v-.19c0-.06 0-.129 0 0v-.149a3.546 3.546 0 0 1 0-.459s.05-.358 0-.1a1.442 1.442 0 0 1 0-.198c.038-.16.084-.316.14-.47.09-.278-.11.18 0-.079 0-.09.09-.17.139-.259l.12-.2c0-.05.178-.199 0 0 .109-.119.208-.229.327-.338.12-.11.229-.2.1-.1-.13.1.119-.08.119-.08.158-.106.324-.2.497-.279l.278-.09h1.094l.556.16c.288.09-.119-.07 0 0 .104.045.204.098.298.16l.16.1c.056.03.11.067.159.109-.1-.08-.1-.08 0 0l.338.339c.208.209-.1-.18.06.07l.158.239.14.259c.109.2 0-.16 0 .08 0 .239.109.379.158.568.05.19 0 .22 0 0v.399a1.13 1.13 0 0 0 .665 1.136 1.12 1.12 0 0 0 1.519-.674 1.13 1.13 0 0 0 .053-.462 4.855 4.855 0 0 0-.881-2.734 4.832 4.832 0 0 0-2.27-1.752 4.738 4.738 0 0 0-5.228 1.395 4.78 4.78 0 0 0-.99 4.31 4.78 4.78 0 0 0 2.964 3.276 4.748 4.748 0 0 0 4.374-.57 4.772 4.772 0 0 0 2.03-3.925 1.118 1.118 0 0 0-1.113-1.117 1.14 1.14 0 0 0-1.093 1.037z" fill="#333"/>
    <path d="M85.616 30.99a3.653 3.653 0 0 0 3.648-3.659 3.653 3.653 0 0 0-3.648-3.658 3.653 3.653 0 0 0-3.648 3.659 3.653 3.653 0 0 0 3.648 3.658z" fill="#DF357F"/>
    <path d="M88.14 27.322v.309c0 .1 0 0 0 0a4.168 4.168 0 0 1-.109.479c0 .09-.06.179-.1.269-.099.17-.188.329-.297.488-.11.16.089-.1 0 0l-.16.18-.139.13s-.258.218-.06.069c-.129.09-.258.18-.397.26l-.169.089-.13.05-.476.14c-.06 0-.269 0 0 0h-.756c-.169 0 .249.06-.05 0l-.288-.07-.278-.09a4.313 4.313 0 0 1-.417-.23l-.2-.13c-.138-.109.18.17 0 0a5.164 5.164 0 0 1-.397-.408c.14.16 0 0 0 0a1.931 1.931 0 0 1-.149-.24 1.388 1.388 0 0 1-.1-.159s-.139-.329-.049-.09c-.06-.149-.11-.302-.15-.458v-.19c0-.06 0-.129 0 0v-.149a3.51 3.51 0 0 1 0-.459v-.1a1.412 1.412 0 0 1 0-.198c.038-.16.085-.316.14-.47.09-.278-.11.18 0-.079 0-.09.09-.17.14-.259l.118-.2c0-.05.18-.199 0 0 .11-.119.21-.229.329-.338.119-.11.228-.2.099-.1-.13.1.12-.08.12-.08.157-.106.323-.2.496-.279l.279-.09h1.093l.556.16c.289.09-.119-.07 0 0l.299.16.159.1c.056.03.11.067.159.109-.1-.08-.1-.08 0 0l.338.339c.208.209-.1-.18.06.07l.158.239.14.259c.109.2 0-.16 0 .08 0 .239.109.379.159.568.05.19 0 .22 0 0v.399a1.13 1.13 0 0 0 .664 1.136 1.12 1.12 0 0 0 1.52-.674 1.13 1.13 0 0 0 .052-.462 4.854 4.854 0 0 0-.881-2.734 4.832 4.832 0 0 0-2.27-1.752 4.738 4.738 0 0 0-5.228 1.395 4.78 4.78 0 0 0-.989 4.31 4.78 4.78 0 0 0 2.964 3.276 4.748 4.748 0 0 0 4.373-.57 4.772 4.772 0 0 0 2.031-3.925 1.119 1.119 0 0 0-1.113-1.117 1.141 1.141 0 0 0-1.094 1.037z" fill="#333"/>
    <path d="M97.086 30.99a3.653 3.653 0 0 0 3.648-3.659 3.653 3.653 0 0 0-3.648-3.658 3.653 3.653 0 0 0-3.647 3.659 3.653 3.653 0 0 0 3.647 3.658z" fill="#DF357F"/>
    <path d="M99.61 27.322v.309c0 .1 0 0 0 0a4.147 4.147 0 0 1-.109.479c0 .09-.06.179-.099.269-.1.17-.189.329-.298.488-.11.16.09-.1 0 0l-.16.18-.138.13s-.259.218-.06.069c-.13.09-.258.18-.397.26l-.17.089-.129.05-.477.14c-.06 0-.268 0 0 0h-.755c-.17 0 .248.06-.05 0l-.288-.07-.279-.09a4.326 4.326 0 0 1-.417-.23l-.199-.13c-.139-.109.18.17 0 0a5.164 5.164 0 0 1-.397-.408c.139.16 0 0 0 0s-.11-.15-.16-.24l-.089-.159s-.139-.329 0-.09c-.06-.149-.11-.302-.149-.458v-.19c0-.06 0-.129 0 0v-.149a3.51 3.51 0 0 1 0-.459s.05-.358 0-.1a1.412 1.412 0 0 1 0-.198c.037-.16.084-.316.14-.47.089-.278-.11.18 0-.079 0-.09.089-.17.128-.259.05-.063.092-.13.13-.2 0-.05.179-.199 0 0 .109-.119.208-.229.328-.338.119-.11.228-.2.1-.1-.13.1.118-.08.118-.08.158-.106.324-.2.497-.279l.279-.09h1.093l.557.16c.288.09-.12-.07 0 0l.298.16.159.1c.057.03.11.067.159.109-.1-.08-.1-.08 0 0l.338.339c.209.209-.1-.18.06.07l.159.239.139.259c.11.2 0-.16 0 .08 0 .239.11.379.149.568.04.19 0 .22 0 0v.399a1.13 1.13 0 0 0 .664 1.136 1.121 1.121 0 0 0 1.572-1.136 4.848 4.848 0 0 0-3.15-4.486 4.737 4.737 0 0 0-5.229 1.395 4.78 4.78 0 0 0-.989 4.31 4.78 4.78 0 0 0 2.964 3.276 4.748 4.748 0 0 0 4.373-.57 4.776 4.776 0 0 0 2.031-3.925 1.117 1.117 0 0 0-1.113-1.117 1.143 1.143 0 0 0-1.133 1.037z" fill="#333"/>
    <path d="M92.196 37.39h-14.74v12.472h14.74V37.391z" fill="#DF357F"/>
    <path d="M92.196 48.735h-14.74l1.112 1.127V37.39l-1.113 1.117h14.74l-1.122-1.117v12.472a1.128 1.128 0 0 0 1.118 1.02 1.121 1.121 0 0 0 1.118-1.02V37.39a1.148 1.148 0 0 0-1.123-1.126h-14.73a1.141 1.141 0 0 0-1.124 1.126v12.472a1.138 1.138 0 0 0 1.123 1.116h14.74a1.122 1.122 0 0 0 1.019-1.121 1.128 1.128 0 0 0-1.018-1.122z" fill="#333"/>
</svg>
