<svg width="120" height="80" fill="none" xmlns="http://www.w3.org/2000/svg">
    <path opacity=".15" d="M14.995 42.13a1.54 1.54 0 0 1-1.51-1.51V18.04l-6.26 4.82a1.32 1.32 0 0 1-1.11.25 1.87 1.87 0 0 1-1-.7l-4.92-6.37a1.89 1.89 0 0 1-.16-1.2 1.32 1.32 0 0 1 .67-1l13.46-10.45a1.86 1.86 0 0 1 .56-.31c.22-.055.444-.082.67-.08h10.55a1.52 1.52 0 0 1 1.51 1.51v36.1a1.52 1.52 0 0 1-1.51 1.51l-10.95.01z" fill="#DF357F"/>
    <path d="M70.545 76.58c19.352 0 35.04-15.688 35.04-35.04 0-19.352-15.688-35.04-35.04-35.04-19.352 0-35.04 15.688-35.04 35.04 0 19.352 15.688 35.04 35.04 35.04z" fill="#F6F2EF"/>
    <path d="M101.595 17.66h-62.09a2.93 2.93 0 0 0-2.93 2.93v41.92a2.93 2.93 0 0 0 2.93 2.93h62.09a2.93 2.93 0 0 0 2.93-2.93V20.59a2.93 2.93 0 0 0-2.93-2.93z" fill="#fff"/>
    <path d="M101.595 64.8h-61a4.34 4.34 0 0 1-2.18-.29c-1.29-.71-1.19-2-1.19-3.25V28.49c0-2.6-.11-5.22 0-7.81.12-2.86 3.09-2.4 5.06-2.4h40.1c6.32 0 12.67-.18 19 0 3.06.1 2.52 3.29 2.52 5.41v37.87c0 1.55-.35 3.13-2.3 3.24-.8 0-.81 1.31 0 1.26a3.683 3.683 0 0 0 3.341-2.417c.168-.458.242-.945.219-1.433V45.52c0-8.22.11-16.45 0-24.66a3.658 3.658 0 0 0-.978-2.66 3.67 3.67 0 0 0-2.582-1.17H60.475c-6.88 0-13.76-.07-20.64 0a3.7 3.7 0 0 0-3.79 2.71 10.528 10.528 0 0 0-.1 2.38v38.95a7.671 7.671 0 0 0 .23 2.66 3.71 3.71 0 0 0 3.7 2.33h61.72a.626.626 0 0 0 .582-.389.623.623 0 0 0 0-.482.625.625 0 0 0-.582-.389z" fill="#333"/>
    <path d="M104.525 24.8h-67.95v-6a1.13 1.13 0 0 1 1.13-1.13h65.68a1.13 1.13 0 0 1 1.13 1.13l.01 6z" fill="#DF357F"/>
    <path d="M104.525 24.17h-67.95l.63.63v-4.08c0-.74-.33-2.21.57-2.44a14.607 14.607 0 0 1 3.17 0h57.56a28.876 28.876 0 0 1 4.65 0c.93.17.74 1 .74 1.79v4.73a.627.627 0 0 0 .63.63.633.633 0 0 0 .63-.63v-4.42c0-1.36.18-3.08-1.61-3.33a20.56 20.56 0 0 0-2.83 0h-59c-1.3 0-2.63-.08-3.92 0-1.69.1-1.8 1.52-1.8 2.84v4.93a.64.64 0 0 0 .63.63h68a.643.643 0 0 0-.1-1.28z" fill="#333"/>
    <path d="M74.706 43.75h-32.07v2.21h32.07v-2.21zM74.786 38.97h-32.07v2.21h32.07v-2.21zM62.546 48.67h-19.83v2.21h19.83v-2.21z" fill="#CCC"/>
    <path d="M78.095 55.22h-14.32c-.59 0-1.07.479-1.07 1.07v3.63c0 .59.48 1.07 1.07 1.07h14.32c.591 0 1.07-.48 1.07-1.07v-3.63c0-.591-.479-1.07-1.07-1.07z" fill="#DF357F"/>
    <path d="M78.106 60.36h-13.72c-.24 0-.67.07-.87-.13-.2-.2-.13-1.48-.13-1.89a12.253 12.253 0 0 1 0-2c.14-.77 1.68-.48 2.24-.48h11.76a2 2 0 0 1 .89.06c.55.27.29 1.69.29 2.19s.28 2.19-.44 2.26c-.72.07-.81 1.34 0 1.26 2.25-.23 1.7-3 1.7-4.57 0-.83 0-1.68-.79-2.19a2.32 2.32 0 0 0-1.34-.27h-10.44c-1.13 0-2.28-.05-3.41 0-2.11.09-1.76 2.35-1.76 3.83a5.39 5.39 0 0 0 .17 2.23 1.789 1.789 0 0 0 1.7 1h14.15a.65.65 0 0 0 0-1.3z" fill="#333"/>
    <path d="M58.825 31.69h-16.04v4.49h16.04v-4.49zM68.715 31.69h-8.02v4.49h8.02v-4.49z" fill="#CCC"/>
    <path d="M42.545 22.75a1.52 1.52 0 1 0 0-3.04 1.52 1.52 0 0 0 0 3.04zM48.545 22.75a1.52 1.52 0 1 0 0-3.04 1.52 1.52 0 0 0 0 3.04zM54.545 22.75a1.52 1.52 0 1 0 0-3.04 1.52 1.52 0 0 0 0 3.04z" fill="#333"/>
    <path d="M98.655 30.91h-15.67v20.22h15.67V30.91z" fill="#fff"/>
    <path d="M98.656 50.5h-15.67l.63.63V30.91l-.63.63h15.67l-.63-.63v20.22a.63.63 0 1 0 1.26 0V30.91a.64.64 0 0 0-.63-.63h-15.67a.64.64 0 0 0-.63.63v20.22a.64.64 0 0 0 .63.63h15.67a.63.63 0 1 0 0-1.26z" fill="#333"/>
    <path d="M98.655 51.13h-15.67s3.4-5.82 5.13-5.82h6c1.68 0 4.54 5.82 4.54 5.82z" fill="#fff"/>
    <path d="M98.655 50.71h-15.67l.36.63a33.143 33.143 0 0 1 2.12-3.18c.7-.93 1.68-2.44 3-2.44h4.67c.397-.046.8-.026 1.19.06.68.23 1.25 1.08 1.66 1.63a26.456 26.456 0 0 1 2.34 3.93c.23.49 1 .06.72-.42a27.262 27.262 0 0 0-2.24-3.8c-.76-1.05-1.63-2.23-3-2.23h-5a2.79 2.79 0 0 0-1.31.19c-.72.429-1.352.992-1.86 1.66a29.39 29.39 0 0 0-2.9 4.18.42.42 0 0 0 .36.63h15.67a.423.423 0 1 0-.11-.84z" fill="#333"/>
    <path d="M95.835 41.56a1.58 1.58 0 0 1 .51-.85.86.86 0 0 1 .86-.06.999.999 0 0 1 .56.67.82.82 0 0 1-.19.78 3.74 3.74 0 0 1-1 .9.68.68 0 0 1-.33.13.48.48 0 0 1-.35-.19 1.37 1.37 0 0 1-.19-.36" fill="#fff"/>
    <path d="m96.235 41.67.08-.21v-.08l.06-.12.06-.1c0-.06 0 0 0 0l.09-.09h.07c.06 0 0 0 0 0h.11c-.07 0 0 0 0 0h.07c.05 0 0 0 0 0h.11c.08 0 0 0 0 0l.1.06s.05 0 0 0 0 .05 0 .05a.27.27 0 0 1 .07.08v.09s0 .07 0 0c.005.05.005.1 0 .15v.13c0 .06 0 0 0 0v.07l-.09.13-.18.21-.2.19-.19.16-.06.05-.14.09h-.06s-.06 0 0 0v-.05c0 .05 0 0 0 0a.25.25 0 0 1 0-.07v-.06c0-.06 0 .09 0 0a.43.43 0 0 0-.52-.29.42.42 0 0 0-.29.51 1.4 1.4 0 0 0 .51.73.84.84 0 0 0 .89 0 3.999 3.999 0 0 0 1.17-1.06c.188-.229.29-.515.29-.81a1.499 1.499 0 0 0-.27-.79 1.4 1.4 0 0 0-1.45-.57 1.66 1.66 0 0 0-1.07 1.27.41.41 0 0 0 .29.51.42.42 0 0 0 .51-.29l.04.11z" fill="#333"/>
    <path d="M86.385 41.56a1.52 1.52 0 0 0-.51-.85.85.85 0 0 0-.86-.06 1.07 1.07 0 0 0-.56.67.82.82 0 0 0 0 .44 1 1 0 0 0 .19.34c.279.355.617.66 1 .9.096.071.21.116.33.13a.46.46 0 0 0 .35-.19c.084-.108.149-.23.19-.36" fill="#fff"/>
    <path d="M86.756 41.45a1.769 1.769 0 0 0-.89-1.2 1.389 1.389 0 0 0-1.73 1.94c.292.45.678.831 1.13 1.12a.93.93 0 0 0 1 .15 1.27 1.27 0 0 0 .58-.77.415.415 0 1 0-.8-.22c0 .07 0 0 0 0a.53.53 0 0 1 0 .11c0 .06 0 0 0 0h-.06s.05 0 0 0a1.945 1.945 0 0 1-.24-.15l-.11-.08-.22-.2-.18-.18-.08-.1v-.05s-.06-.08 0 0c-.053-.07-.1-.143-.14-.22v-.07c0-.07 0-.08 0 0v-.06a.142.142 0 0 1 0-.06s0-.11 0 0a.311.311 0 0 1 0-.1s0-.07 0 0c0 0 .09-.08 0 0l.1-.06h.05s-.05 0 0 0h.41s-.06-.06 0 0a.757.757 0 0 1 .09.09c.002.02.002.04 0 .06a.74.74 0 0 1 .07.12v.05c0 .1.07.19.1.29a.422.422 0 0 0 .52.29.42.42 0 0 0 .29-.51l.11-.19z" fill="#333"/>
    <path d="M96.7 42.397c.241-2.388-1.839-4.555-4.646-4.838-2.808-.284-5.28 1.423-5.52 3.811-.242 2.389 1.839 4.555 4.646 4.839 2.807.283 5.279-1.423 5.52-3.812z" fill="#fff"/>
    <path d="M95.875 42.25a4.23 4.23 0 0 1-3.6 3.43 5.37 5.37 0 0 1-5.15-1.8 3.58 3.58 0 0 1 .14-4.7 5.281 5.281 0 0 1 5.22-1.28 4.34 4.34 0 0 1 3.39 4.35c0 .54.8.54.84 0a5 5 0 0 0-3.3-4.91 6.26 6.26 0 0 0-6.35.88 4.41 4.41 0 0 0-1 5.58 6.08 6.08 0 0 0 5.67 2.8 5.19 5.19 0 0 0 5-4.35c.05-.53-.79-.53-.86 0z" fill="#333"/>
    <path d="M89.516 43.12h2.68a.2.2 0 0 1 .13 0 .17.17 0 0 1 0 .14c-.08.32-.18.633-.3.94a.54.54 0 0 1-.22.33.72.72 0 0 1-.33.07 2.33 2.33 0 0 1-1-.15 2.9 2.9 0 0 1-1-1.4" fill="#DF357F"/>
    <path d="M89.515 43.33H92.175h-.06v.07l-.12.4c0 .13-.08.25-.13.37a.4.4 0 0 1-.16.24.792.792 0 0 1-.34 0c-.13.01-.26.01-.39 0a1 1 0 0 1-.47-.16 1.751 1.751 0 0 1-.29-.32 5.561 5.561 0 0 1-.33-.51 1.32 1.32 0 0 1-.15-.39c0-.11-.16-.17-.26-.14a.2.2 0 0 0-.14.25c.033.165.094.324.18.47.098.183.209.36.33.53.118.16.252.307.4.44.197.14.43.222.67.24.306.072.624.072.93 0 .28-.1.38-.38.47-.64l.15-.45a1.72 1.72 0 0 0 .11-.46c0-.38-.44-.33-.7-.33h-2.34a.21.21 0 1 0 0 .42l-.02-.03zM90.726 39.75a3 3 0 0 0-1 1.47c-.04.14-.07.284-.09.43a.79.79 0 0 0 .09.62.81.81 0 0 0 .56.25c.16.014.32.014.48 0 .382-.01.76-.081 1.12-.21a.44.44 0 0 0 .29-.52.422.422 0 0 0-.52-.29 2.755 2.755 0 0 1-.49.14h-.78c-.09 0 0-.06.06.06s.09.26.08.16a.406.406 0 0 1 0-.11c0 .11 0 0 0 0 .022-.144.06-.285.11-.42 0 0 0-.15 0 0a.357.357 0 0 1 0-.09l.1-.19c.037-.068.08-.131.13-.19 0 0 0-.08 0 0a.391.391 0 0 1 .08-.1c.099-.112.206-.215.32-.31a.41.41 0 0 0 0-.59.42.42 0 0 0-.59 0l.05-.11zM93.566 39.67h-.1a.28.28 0 0 0-.28.28v.85c0 .155.125.28.28.28h.1a.28.28 0 0 0 .28-.28v-.85a.28.28 0 0 0-.28-.28zM88.516 39.67h-.1a.28.28 0 0 0-.28.28v.85c0 .155.125.28.28.28h.1a.28.28 0 0 0 .28-.28v-.85a.28.28 0 0 0-.28-.28z" fill="#333"/>
    <path d="M92.155 38.23v-.77a9.53 9.53 0 0 1 3.56 3.2 4.11 4.11 0 0 0 0-4.34 4.891 4.891 0 0 0-3.51-2c-1.38-.16-5.94-.57-7 3.15-.36 1.25-.25 2.82.92 3.4.62-1.93 3.62-2.14 4.36-4a2 2 0 0 0 1.67 1.36z" fill="#DF357F"/>
    <path d="M92.785 38.23v-.77l-1 .54a8.93 8.93 0 0 1 3.33 3 .64.64 0 0 0 1.09 0 4.75 4.75 0 0 0-.41-5.49 5.999 5.999 0 0 0-4.28-1.9c-2.45-.19-5.4.31-6.62 2.73-.79 1.59-1 4.08.84 5.05a.63.63 0 0 0 .92-.37c.33-.93 1.39-1.38 2.18-1.85a4.75 4.75 0 0 0 2.18-2.18h-1.21a2.68 2.68 0 0 0 2.16 1.87c.8.12 1.14-1.09.34-1.22a1.54 1.54 0 0 1-1.29-1 .63.63 0 0 0-1.21 0c-.38.9-1.48 1.35-2.26 1.81a4.45 4.45 0 0 0-2.1 2.22l.93-.37c-1.16-.63-.87-2.41-.36-3.39a3.709 3.709 0 0 1 2.31-1.8 7.413 7.413 0 0 1 5.75.54 3.45 3.45 0 0 1 1 4.71h1.09a10.4 10.4 0 0 0-3.78-3.44.64.64 0 0 0-1 .55v.77c.18.8 1.43.8 1.4-.01zM90.845 47.07a14.26 14.26 0 0 1 1.27 1.63.43.43 0 0 0 .57.15 16.837 16.837 0 0 0 2.86-2.17c.39-.38-.2-1-.59-.59a15.743 15.743 0 0 1-2.69 2l.57.15a15.375 15.375 0 0 0-1.39-1.8c-.37-.4-1 .19-.6.59v.04z" fill="#333"/>
    <path d="M90.385 46.04c-.18.32-.37.63-.57.94-.09.14-.18.29-.28.43l-.14.21a1.18 1.18 0 0 1-.14.22l.21-.06a1.191 1.191 0 0 1-.34-.13l-.39-.16-.79-.37c-.52-.26-1-.55-1.52-.85a.42.42 0 0 0-.42.72 20.237 20.237 0 0 0 2.9 1.47c.26.11.53.24.8.08a2 2 0 0 0 .51-.64c.32-.47.61-.95.9-1.44a.42.42 0 0 0-.73-.42z" fill="#333"/>
    <path d="M90.486 48.21a9.173 9.173 0 0 0-.31 2.39c.46 0 1.41.19 2.11.16-.28-.671-.504-1.363-.67-2.07 0-.19-.12-.42-.31-.49a1.077 1.077 0 0 0-.19 0h-.58" fill="#DF357F"/>
    <path d="M90.085 48.1a9.164 9.164 0 0 0-.32 2.5.41.41 0 0 0 .41.41c.71 0 1.4.2 2.11.17a.42.42 0 0 0 .36-.63s0-.07-.05-.1 0 0 0-.05l-.07-.19-.15-.45c-.1-.31-.18-.62-.27-.94a1.65 1.65 0 0 0-.38-.85c-.3-.29-.79-.22-1.17-.24a.42.42 0 1 0 0 .84h.63s0-.05 0 0 0 .12 0 0a.25.25 0 0 0 0 .07v.18c0 .06.07.27.11.41.148.575.342 1.137.58 1.68l.36-.63c-.71 0-1.4-.14-2.11-.16l.42.42a8.228 8.228 0 0 1 .3-2.27.421.421 0 0 0-.81-.23l.05.06z" fill="#333"/>
    <path d="M89.926 48.19a.05.05 0 0 0 0 .05h1.61a.2.2 0 0 0 .15 0c.01-.04.01-.08 0-.12a2.52 2.52 0 0 0-.47-1.43.18.18 0 0 0-.09-.08.138.138 0 0 0-.11 0h-.22a.479.479 0 0 0-.17.05.533.533 0 0 0-.12.14l-.41.62-.17.77z" fill="#DF357F"/>
    <path d="M89.505 48.19a.46.46 0 0 0 .21.41.62.62 0 0 0 .33.07h1.34c.17.018.342-.006.5-.07a.58.58 0 0 0 .27-.54 2.889 2.889 0 0 0-.14-.83 2.733 2.733 0 0 0-.35-.73.67.67 0 0 0-.52-.35c-.145.009-.29.033-.43.07a.709.709 0 0 0-.47.3c-.09.12-.16.25-.24.37-.12.147-.214.313-.28.49l-.19.71a.43.43 0 0 0 .3.51.42.42 0 0 0 .51-.29l.14-.5.06-.25c0 .07 0 .09 0 0v-.06l.22-.33.09-.14v-.06c0-.06 0 0 0 0h.26a.241.241 0 0 1-.2 0v-.05.08c.06.083.113.17.16.26v.07s0 .11.05.14c.05.03.06.2.08.3a.8.8 0 0 0 0 .15.218.218 0 0 0 0 .08v.15s0 .06 0 0c.25-.17.32-.24.2-.21h.06a1.483 1.483 0 0 0-.2 0h-1.42l.21.05.19.25v.07a.42.42 0 0 0-.84 0l.1-.12z" fill="#333"/>
    <path d="M28.585 54.86a5.091 5.091 0 0 1-2.8 1.83 3.759 3.759 0 0 1 2.84.64c.33.347.581.76.74 1.21.39.87.74 1.76 1.07 2.65.08-.84.21-1.68.37-2.51.05-.32.147-.63.29-.92.52-1 1.78-1.21 2.87-1.34-.58-.26-1.15-.53-1.72-.81a5.998 5.998 0 0 1-1.06-.64c-1.14-.92-1.48-2.49-1.75-3.93a10.813 10.813 0 0 1-.85 3.82z" fill="#F0D227"/>
    <path d="M28.035 54.55a4.24 4.24 0 0 1-2.41 1.54c-.66.21-.57 1.27.16 1.24.92 0 2.07-.11 2.64.75a16.194 16.194 0 0 1 1.4 3.29.63.63 0 0 0 1.24-.17c.06-.59.14-1.18.24-1.76a3.71 3.71 0 0 1 .43-1.51 3.21 3.21 0 0 1 2.23-.87c.54-.07 1-.88.32-1.17-1.08-.48-2.5-.94-3.21-1.93a7.61 7.61 0 0 1-1-3.08c-.13-.72-1.2-.51-1.23.17a7.889 7.889 0 0 1-.77 3.5.633.633 0 0 0 1.09.64 9.34 9.34 0 0 0 .94-4.14l-1.24.17a8.331 8.331 0 0 0 1.25 3.49 8.4 8.4 0 0 0 3.58 2.26l.31-1.17a4.66 4.66 0 0 0-3.13 1.25 3.571 3.571 0 0 0-.69 1.76c-.15.79-.26 1.59-.34 2.39l1.23-.16c-.26-.72-.54-1.43-.83-2.13a6.638 6.638 0 0 0-1-1.84c-.85-1-2.22-1.05-3.44-1l.17 1.24a5.66 5.66 0 0 0 3.17-2.12c.43-.68-.66-1.33-1.11-.64z" fill="#333"/>
</svg>
