<svg width="440" height="120" viewBox="0 0 440 120" fill="none" xmlns="http://www.w3.org/2000/svg">
<path d="M310.331 82.9897V79.3833H306.698V77.7296H310.311V74.1133H311.967V77.7296H315.589V79.3833H311.987V82.9897H310.331Z" fill="white"/>
<path d="M293.806 82.9897V79.3833H290.193V77.7296H293.806V74.1133H295.462V77.7296H299.084V79.3833H295.462V82.9897H293.806Z" fill="white"/>
<path d="M277.281 82.9897V79.3833H273.668V77.7296H277.281V74.1133H278.937V77.7296H282.559V79.3833H278.937V82.9897H277.281Z" fill="white"/>
<path d="M310.331 64.1811V60.6245H306.698V58.9309H310.311V55.3047H311.967V58.9309H315.589V60.6245H311.987V64.2209L310.331 64.1811Z" fill="white"/>
<path d="M293.806 64.1811V60.6245H290.193V58.9309H293.806V55.3047H295.462V58.9309H299.084V60.6245H295.462V64.2209L293.806 64.1811Z" fill="white"/>
<path d="M277.281 64.1811V60.6245H273.668V58.9309H277.281V55.3047H278.937V58.9309H282.559V60.6245H278.937V64.2209L277.281 64.1811Z" fill="white"/>
<path d="M310.331 46.8861V43.2898H306.698V41.636H310.311V38.0098H311.967V41.636H315.589V43.2898H311.987V46.8861H310.331Z" fill="white"/>
<path d="M293.806 46.8861V43.2898H290.193V41.636H293.806V38.0098H295.462V41.636H299.084V43.2898H295.462V46.8861H293.806Z" fill="white"/>
<path d="M277.281 46.8861V43.2898H273.668V41.636H277.281V38.0098H278.937V41.636H282.559V43.2898H278.937V46.8861H277.281Z" fill="white"/>
<path d="M262.652 82.9897V79.3833H259.04V77.7296H262.652V74.1133H264.308V77.7296H267.931V79.3833H264.308V82.9897H262.652Z" fill="white"/>
<path d="M246.127 82.9897V79.3833H242.515V77.7296H246.127V74.1133H247.823V77.7296H251.446V79.3833H247.823V82.9897H246.127Z" fill="white"/>
<path d="M229.602 82.9897V79.3833H226V77.7296H229.602V74.1133H231.259V77.7296H234.851V79.3833H231.259V82.9897H229.602Z" fill="white"/>
<path d="M262.652 64.1811V60.6245H259.04V58.9309H262.652V55.3047H264.308V58.9309H267.931V60.6245H264.308V64.2209L262.652 64.1811Z" fill="white"/>
<path d="M246.127 64.1811V60.6245H242.515V58.9309H246.127V55.3047H247.823V58.9309H251.446V60.6245H247.823V64.2209L246.127 64.1811Z" fill="white"/>
<path d="M229.602 64.1811V60.6245H226V58.9309H229.602V55.3047H231.259V58.9309H234.851V60.6245H231.259V64.2209L229.602 64.1811Z" fill="white"/>
<path d="M262.652 46.8861V43.2898H259.04V41.636H262.652V38.0098H264.308V41.636H267.931V43.2898H264.308V46.8861H262.652Z" fill="white"/>
<path d="M246.127 46.8861V43.2898H242.515V41.636H246.127V38.0098H247.823V41.636H251.446V43.2898H247.823V46.8861H246.127Z" fill="white"/>
<path d="M229.602 46.8861V43.2898H226V41.636H229.602V38.0098H231.259V41.636H234.851V43.2898H231.259V46.8861H229.602Z" fill="white"/>
<path d="M349.227 46.9063C351.691 46.9063 353.688 44.9125 353.688 42.4531C353.688 39.9937 351.691 38 349.227 38C346.764 38 344.767 39.9937 344.767 42.4531C344.767 44.9125 346.764 46.9063 349.227 46.9063Z" fill="white"/>
<path d="M349.227 64.958C351.691 64.958 353.688 62.9643 353.688 60.5049C353.688 58.0455 351.691 56.0518 349.227 56.0518C346.764 56.0518 344.767 58.0455 344.767 60.5049C344.767 62.9643 346.764 64.958 349.227 64.958Z" fill="white"/>
<path d="M349.227 83C351.691 83 353.688 81.0063 353.688 78.5469C353.688 76.0875 351.691 74.0938 349.227 74.0938C346.764 74.0938 344.767 76.0875 344.767 78.5469C344.767 81.0063 346.764 83 349.227 83Z" fill="white"/>
<path d="M367.658 46.9063C370.121 46.9063 372.118 44.9125 372.118 42.4531C372.118 39.9937 370.121 38 367.658 38C365.194 38 363.197 39.9937 363.197 42.4531C363.197 44.9125 365.194 46.9063 367.658 46.9063Z" fill="white"/>
<path d="M367.658 64.958C370.121 64.958 372.118 62.9643 372.118 60.5049C372.118 58.0455 370.121 56.0518 367.658 56.0518C365.194 56.0518 363.197 58.0455 363.197 60.5049C363.197 62.9643 365.194 64.958 367.658 64.958Z" fill="white"/>
<path d="M367.658 83C370.121 83 372.118 81.0063 372.118 78.5469C372.118 76.0875 370.121 74.0938 367.658 74.0938C365.194 74.0938 363.197 76.0875 363.197 78.5469C363.197 81.0063 365.194 83 367.658 83Z" fill="white"/>
<path d="M386.099 46.9063C388.562 46.9063 390.559 44.9125 390.559 42.4531C390.559 39.9937 388.562 38 386.099 38C383.635 38 381.638 39.9937 381.638 42.4531C381.638 44.9125 383.635 46.9063 386.099 46.9063Z" fill="white"/>
<path d="M386.099 64.958C388.562 64.958 390.559 62.9643 390.559 60.5049C390.559 58.0455 388.562 56.0518 386.099 56.0518C383.635 56.0518 381.638 58.0455 381.638 60.5049C381.638 62.9643 383.635 64.958 386.099 64.958Z" fill="white"/>
<path d="M386.099 83C388.562 83 390.559 81.0063 390.559 78.5469C390.559 76.0875 388.562 74.0938 386.099 74.0938C383.635 74.0938 381.638 76.0875 381.638 78.5469C381.638 81.0063 383.635 83 386.099 83Z" fill="white"/>
<path d="M404.54 46.9063C407.003 46.9063 409 44.9125 409 42.4531C409 39.9937 407.003 38 404.54 38C402.076 38 400.079 39.9937 400.079 42.4531C400.079 44.9125 402.076 46.9063 404.54 46.9063Z" fill="white"/>
<path d="M404.54 64.958C407.003 64.958 409 62.9643 409 60.5049C409 58.0455 407.003 56.0518 404.54 56.0518C402.076 56.0518 400.079 58.0455 400.079 60.5049C400.079 62.9643 402.076 64.958 404.54 64.958Z" fill="white"/>
<path d="M404.54 83C407.003 83 409 81.0063 409 78.5469C409 76.0875 407.003 74.0938 404.54 74.0938C402.076 74.0938 400.079 76.0875 400.079 78.5469C400.079 81.0063 402.076 83 404.54 83Z" fill="white"/>
<path d="M330.787 46.9063C333.25 46.9063 335.247 44.9125 335.247 42.4531C335.247 39.9937 333.25 38 330.787 38C328.323 38 326.326 39.9937 326.326 42.4531C326.326 44.9125 328.323 46.9063 330.787 46.9063Z" fill="white"/>
<path d="M330.787 64.958C333.25 64.958 335.247 62.9643 335.247 60.5049C335.247 58.0455 333.25 56.0518 330.787 56.0518C328.323 56.0518 326.326 58.0455 326.326 60.5049C326.326 62.9643 328.323 64.958 330.787 64.958Z" fill="white"/>
<path d="M330.787 83C333.25 83 335.247 81.0063 335.247 78.5469C335.247 76.0875 333.25 74.0938 330.787 74.0938C328.323 74.0938 326.326 76.0875 326.326 78.5469C326.326 81.0063 328.323 83 330.787 83Z" fill="white"/>
<path d="M117.331 82.9897V79.3833H113.698V77.7296H117.311V74.1133H118.967V77.7296H122.589V79.3833H118.987V82.9897H117.331Z" fill="white"/>
<path d="M100.806 82.9897V79.3833H97.1934V77.7296H100.806V74.1133H102.462V77.7296H106.084V79.3833H102.462V82.9897H100.806Z" fill="white"/>
<path d="M84.2808 82.9897V79.3833H80.6685V77.7296H84.2808V74.1133H85.9372V77.7296H89.5595V79.3833H85.9372V82.9897H84.2808Z" fill="white"/>
<path d="M117.331 64.1811V60.6245H113.698V58.9309H117.311V55.3047H118.967V58.9309H122.589V60.6245H118.987V64.2209L117.331 64.1811Z" fill="white"/>
<path d="M100.806 64.1811V60.6245H97.1934V58.9309H100.806V55.3047H102.462V58.9309H106.084V60.6245H102.462V64.2209L100.806 64.1811Z" fill="white"/>
<path d="M84.2808 64.1811V60.6245H80.6685V58.9309H84.2808V55.3047H85.9372V58.9309H89.5595V60.6245H85.9372V64.2209L84.2808 64.1811Z" fill="white"/>
<path d="M117.331 46.8861V43.2898H113.698V41.636H117.311V38.0098H118.967V41.636H122.589V43.2898H118.987V46.8861H117.331Z" fill="white"/>
<path d="M100.806 46.8861V43.2898H97.1934V41.636H100.806V38.0098H102.462V41.636H106.084V43.2898H102.462V46.8861H100.806Z" fill="white"/>
<path d="M84.2808 46.8861V43.2898H80.6685V41.636H84.2808V38.0098H85.9372V41.636H89.5595V43.2898H85.9372V46.8861H84.2808Z" fill="white"/>
<path d="M69.6518 82.9897V79.3833H66.0396V77.7296H69.6518V74.1133H71.3084V77.7296H74.9306V79.3833H71.3084V82.9897H69.6518Z" fill="white"/>
<path d="M53.1269 82.9897V79.3833H49.5146V77.7296H53.1269V74.1133H54.8233V77.7296H58.4456V79.3833H54.8233V82.9897H53.1269Z" fill="white"/>
<path d="M36.6023 82.9897V79.3833H33V77.7296H36.6023V74.1133H38.2588V77.7296H41.8511V79.3833H38.2588V82.9897H36.6023Z" fill="white"/>
<path d="M69.6518 64.1811V60.6245H66.0396V58.9309H69.6518V55.3047H71.3084V58.9309H74.9306V60.6245H71.3084V64.2209L69.6518 64.1811Z" fill="white"/>
<path d="M53.1269 64.1811V60.6245H49.5146V58.9309H53.1269V55.3047H54.8233V58.9309H58.4456V60.6245H54.8233V64.2209L53.1269 64.1811Z" fill="white"/>
<path d="M36.6023 64.1811V60.6245H33V58.9309H36.6023V55.3047H38.2588V58.9309H41.8511V60.6245H38.2588V64.2209L36.6023 64.1811Z" fill="white"/>
<path d="M69.6518 46.8861V43.2898H66.0396V41.636H69.6518V38.0098H71.3084V41.636H74.9306V43.2898H71.3084V46.8861H69.6518Z" fill="white"/>
<path d="M53.1269 46.8861V43.2898H49.5146V41.636H53.1269V38.0098H54.8233V41.636H58.4456V43.2898H54.8233V46.8861H53.1269Z" fill="white"/>
<path d="M36.6023 46.8861V43.2898H33V41.636H36.6023V38.0098H38.2588V41.636H41.8511V43.2898H38.2588V46.8861H36.6023Z" fill="white"/>
<path d="M156.227 46.9063C158.691 46.9063 160.688 44.9125 160.688 42.4531C160.688 39.9937 158.691 38 156.227 38C153.764 38 151.767 39.9937 151.767 42.4531C151.767 44.9125 153.764 46.9063 156.227 46.9063Z" fill="white"/>
<path d="M156.227 64.958C158.691 64.958 160.688 62.9643 160.688 60.5049C160.688 58.0455 158.691 56.0518 156.227 56.0518C153.764 56.0518 151.767 58.0455 151.767 60.5049C151.767 62.9643 153.764 64.958 156.227 64.958Z" fill="white"/>
<path d="M156.227 83C158.691 83 160.688 81.0063 160.688 78.5469C160.688 76.0875 158.691 74.0938 156.227 74.0938C153.764 74.0938 151.767 76.0875 151.767 78.5469C151.767 81.0063 153.764 83 156.227 83Z" fill="white"/>
<path d="M174.658 46.9063C177.121 46.9063 179.118 44.9125 179.118 42.4531C179.118 39.9937 177.121 38 174.658 38C172.194 38 170.197 39.9937 170.197 42.4531C170.197 44.9125 172.194 46.9063 174.658 46.9063Z" fill="white"/>
<path d="M174.658 64.958C177.121 64.958 179.118 62.9643 179.118 60.5049C179.118 58.0455 177.121 56.0518 174.658 56.0518C172.194 56.0518 170.197 58.0455 170.197 60.5049C170.197 62.9643 172.194 64.958 174.658 64.958Z" fill="white"/>
<path d="M174.658 83C177.121 83 179.118 81.0063 179.118 78.5469C179.118 76.0875 177.121 74.0938 174.658 74.0938C172.194 74.0938 170.197 76.0875 170.197 78.5469C170.197 81.0063 172.194 83 174.658 83Z" fill="white"/>
<path d="M193.099 46.9063C195.562 46.9063 197.559 44.9125 197.559 42.4531C197.559 39.9937 195.562 38 193.099 38C190.635 38 188.638 39.9937 188.638 42.4531C188.638 44.9125 190.635 46.9063 193.099 46.9063Z" fill="white"/>
<path d="M193.099 64.958C195.562 64.958 197.559 62.9643 197.559 60.5049C197.559 58.0455 195.562 56.0518 193.099 56.0518C190.635 56.0518 188.638 58.0455 188.638 60.5049C188.638 62.9643 190.635 64.958 193.099 64.958Z" fill="white"/>
<path d="M193.099 83C195.562 83 197.559 81.0063 197.559 78.5469C197.559 76.0875 195.562 74.0938 193.099 74.0938C190.635 74.0938 188.638 76.0875 188.638 78.5469C188.638 81.0063 190.635 83 193.099 83Z" fill="white"/>
<path d="M211.54 46.9063C214.003 46.9063 216 44.9125 216 42.4531C216 39.9937 214.003 38 211.54 38C209.076 38 207.079 39.9937 207.079 42.4531C207.079 44.9125 209.076 46.9063 211.54 46.9063Z" fill="white"/>
<path d="M211.54 64.958C214.003 64.958 216 62.9643 216 60.5049C216 58.0455 214.003 56.0518 211.54 56.0518C209.076 56.0518 207.079 58.0455 207.079 60.5049C207.079 62.9643 209.076 64.958 211.54 64.958Z" fill="white"/>
<path d="M211.54 83C214.003 83 216 81.0063 216 78.5469C216 76.0875 214.003 74.0938 211.54 74.0938C209.076 74.0938 207.079 76.0875 207.079 78.5469C207.079 81.0063 209.076 83 211.54 83Z" fill="white"/>
<path d="M137.787 46.9063C140.25 46.9063 142.247 44.9125 142.247 42.4531C142.247 39.9937 140.25 38 137.787 38C135.323 38 133.326 39.9937 133.326 42.4531C133.326 44.9125 135.323 46.9063 137.787 46.9063Z" fill="white"/>
<path d="M137.787 64.958C140.25 64.958 142.247 62.9643 142.247 60.5049C142.247 58.0455 140.25 56.0518 137.787 56.0518C135.323 56.0518 133.326 58.0455 133.326 60.5049C133.326 62.9643 135.323 64.958 137.787 64.958Z" fill="white"/>
<path d="M137.787 83C140.25 83 142.247 81.0063 142.247 78.5469C142.247 76.0875 140.25 74.0938 137.787 74.0938C135.323 74.0938 133.326 76.0875 133.326 78.5469C133.326 81.0063 135.323 83 137.787 83Z" fill="white"/>
<path d="M401.436 25.9627C400.547 27.1227 399.288 27.9448 397.867 28.2933C399.141 28.2358 400.564 28.2276 401.493 29.1139C401.913 29.5615 402.237 30.0892 402.447 30.6651C402.932 31.773 403.384 32.9054 403.804 34.0461C403.909 32.972 404.068 31.9039 404.281 30.8456C404.345 30.4357 404.47 30.0375 404.651 29.6639C405.317 28.4329 406.929 28.1292 408.326 27.9569C407.578 27.6286 406.846 27.2839 406.123 26.9229C405.643 26.6979 405.188 26.4228 404.766 26.1022C403.302 24.9287 402.866 22.9262 402.521 21.0879C402.521 21.0879 402.381 24.4363 401.436 25.9627Z" fill="#F0D227"/>
<path d="M400.638 25.4956C399.878 26.4552 398.814 27.1294 397.62 27.4078C397.409 27.4722 397.228 27.6092 397.109 27.7944C396.991 27.9797 396.942 28.2012 396.971 28.4191C397.001 28.6371 397.107 28.8374 397.271 28.9844C397.435 29.1313 397.646 29.2153 397.867 29.2214C398.985 29.1721 400.432 29.0653 401.156 30.124C401.904 31.4383 402.497 32.8346 402.924 34.2848C402.988 34.4951 403.126 34.6757 403.311 34.7943C403.497 34.9128 403.719 34.9617 403.937 34.9321C404.156 34.9025 404.356 34.7962 404.504 34.6326C404.651 34.4689 404.735 34.2584 404.741 34.0385C404.823 33.2917 404.922 32.5532 405.054 31.8146C405.092 31.1578 405.272 30.5169 405.58 29.9352C406.172 29.1146 407.43 28.9915 408.343 28.8766C408.544 28.8698 408.737 28.8006 408.896 28.6784C409.056 28.5563 409.173 28.3874 409.231 28.1955C409.284 27.9991 409.271 27.7904 409.194 27.6021C409.117 27.4137 408.979 27.2561 408.803 27.1533C407.447 26.5542 405.654 25.9798 404.741 24.7324C404.024 23.5477 403.577 22.2194 403.434 20.8425C403.228 19.7756 401.666 20.0955 401.616 21.0885C401.637 22.6115 401.307 24.119 400.654 25.4956C400.556 25.7047 400.54 25.9429 400.608 26.1635C400.677 26.3841 400.825 26.5713 401.025 26.6883C401.225 26.8053 401.461 26.8438 401.687 26.7963C401.914 26.7487 402.114 26.6184 402.25 26.431C403.064 24.7681 403.48 22.9393 403.467 21.0885L401.649 21.3348C401.851 22.9331 402.414 24.465 403.294 25.8155C404.404 27.3173 406.246 28.0149 407.907 28.7535L408.376 27.0301C406.912 27.2106 405.292 27.4732 404.264 28.6714C403.758 29.3475 403.443 30.1467 403.351 30.9857C403.16 32.0033 403.012 33.0291 402.907 34.0632L404.725 33.8169C404.396 32.906 404.034 32.0034 403.656 31.1007C403.36 30.2372 402.93 29.4256 402.381 28.696C401.271 27.4076 399.487 27.3257 397.9 27.3995L398.146 29.2132C399.795 28.7964 401.248 27.8218 402.258 26.4557C402.891 25.4298 401.287 24.5108 400.638 25.4956Z" fill="#333333"/>
<path d="M383.361 16.9268H349.12V93.9865H383.361V16.9268Z" fill="#DF357F"/>
<path d="M383.361 16H349.12C348.876 16.0021 348.643 16.0998 348.471 16.2717C348.299 16.4436 348.201 16.6761 348.199 16.9192V90.7784C348.199 91.7796 348.125 92.8218 348.199 93.823V93.9543C348.201 94.1981 348.299 94.4316 348.471 94.6048C348.643 94.778 348.876 94.8774 349.12 94.8817H383.361C383.606 94.8775 383.84 94.7784 384.013 94.6054C384.187 94.4324 384.286 94.1989 384.29 93.9543V20.0951C384.29 19.0939 384.364 18.0517 384.29 17.0505C384.286 17.0068 384.286 16.9629 384.29 16.9192C384.268 16.6894 384.162 16.4758 383.991 16.3204C383.819 16.165 383.596 16.0789 383.365 16.0789C383.134 16.0789 382.911 16.165 382.74 16.3204C382.569 16.4758 382.462 16.6894 382.44 16.9192V90.7784C382.345 91.7911 382.345 92.8103 382.44 93.823C382.444 93.8667 382.444 93.9106 382.44 93.9543L383.361 93.0352H349.12L350.049 93.9543V20.0951C350.14 19.0822 350.14 18.0633 350.049 17.0505C350.045 17.0068 350.045 16.9629 350.049 16.9192L349.12 17.8465H383.361C383.591 17.8248 383.805 17.7181 383.961 17.5473C384.117 17.3766 384.203 17.1541 384.203 16.9232C384.203 16.6924 384.117 16.4699 383.961 16.2991C383.805 16.1284 383.591 16.0217 383.361 16Z" fill="#333333"/>
<path d="M349.688 28.49H383.361C383.591 28.4683 383.805 28.3618 383.961 28.1911C384.117 28.0204 384.203 27.7977 384.203 27.5668C384.203 27.3359 384.117 27.1134 383.961 26.9427C383.805 26.7719 383.591 26.6652 383.361 26.6436H349.688C349.457 26.6652 349.243 26.7719 349.088 26.9427C348.932 27.1134 348.846 27.3359 348.846 27.5668C348.846 27.7977 348.932 28.0204 349.088 28.1911C349.243 28.3618 349.457 28.4683 349.688 28.49Z" fill="#333333"/>
<path d="M349.688 39.6023H383.361C383.591 39.5806 383.805 39.4739 383.961 39.3032C384.117 39.1325 384.203 38.91 384.203 38.6791C384.203 38.4482 384.117 38.2257 383.961 38.055C383.805 37.8842 383.591 37.7776 383.361 37.7559H349.688C349.457 37.7776 349.243 37.8842 349.088 38.055C348.932 38.2257 348.846 38.4482 348.846 38.6791C348.846 38.91 348.932 39.1325 349.088 39.3032C349.243 39.4739 349.457 39.5806 349.688 39.6023Z" fill="#333333"/>
<path d="M349.688 50.698H383.361C383.591 50.6763 383.805 50.5697 383.961 50.3989C384.117 50.2282 384.203 50.0057 384.203 49.7748C384.203 49.5439 384.117 49.3214 383.961 49.1507C383.805 48.98 383.591 48.8733 383.361 48.8516H349.688C349.457 48.8733 349.243 48.98 349.088 49.1507C348.932 49.3214 348.846 49.5439 348.846 49.7748C348.846 50.0057 348.932 50.2282 349.088 50.3989C349.243 50.5697 349.457 50.6763 349.688 50.698Z" fill="#333333"/>
<path d="M349.688 61.8328H383.361C383.591 61.8111 383.805 61.7044 383.961 61.5337C384.117 61.3629 384.203 61.1404 384.203 60.9096C384.203 60.6787 384.117 60.456 383.961 60.2853C383.805 60.1145 383.591 60.008 383.361 59.9863H349.688C349.457 60.008 349.243 60.1145 349.088 60.2853C348.932 60.456 348.846 60.6787 348.846 60.9096C348.846 61.1404 348.932 61.3629 349.088 61.5337C349.243 61.7044 349.457 61.8111 349.688 61.8328Z" fill="#333333"/>
<path d="M349.688 72.9539H383.361C383.591 72.9322 383.805 72.8255 383.961 72.6548C384.117 72.484 384.203 72.2615 384.203 72.0307C384.203 71.7998 384.117 71.5771 383.961 71.4064C383.805 71.2356 383.591 71.1291 383.361 71.1074H349.688C349.457 71.1291 349.243 71.2356 349.088 71.4064C348.932 71.5771 348.846 71.7998 348.846 72.0307C348.846 72.2615 348.932 72.484 349.088 72.6548C349.243 72.8255 349.457 72.9322 349.688 72.9539Z" fill="#333333"/>
<path d="M349.688 84.0652H383.361C383.591 84.0435 383.805 83.937 383.961 83.7663C384.117 83.5956 384.203 83.3729 384.203 83.142C384.203 82.9111 384.117 82.6886 383.961 82.5179C383.805 82.3471 383.591 82.2404 383.361 82.2188H349.688C349.457 82.2404 349.243 82.3471 349.088 82.5179C348.932 82.6886 348.846 82.9111 348.846 83.142C348.846 83.3729 348.932 83.5956 349.088 83.7663C349.243 83.937 349.457 84.0435 349.688 84.0652Z" fill="#333333"/>
<path d="M418.071 50.7461H383.83V93.9783H418.071V50.7461Z" fill="#DF357F"/>
<path d="M418.071 49.8193H383.83C383.586 49.8256 383.355 49.9256 383.183 50.0984C383.012 50.2712 382.913 50.5035 382.909 50.7468V93.979C382.911 94.2229 383.009 94.4563 383.181 94.6295C383.353 94.8027 383.586 94.9021 383.83 94.9064H418.071C418.316 94.9022 418.55 94.8031 418.724 94.6301C418.897 94.4571 418.996 94.2236 419 93.979V50.7468C418.979 50.5169 418.872 50.3035 418.701 50.1481C418.53 49.9927 418.307 49.9065 418.075 49.9065C417.844 49.9065 417.621 49.9927 417.45 50.1481C417.279 50.3035 417.172 50.5169 417.15 50.7468V93.979L418.071 93.0599H383.83L384.759 93.979V50.7468L383.83 51.6658H418.071C418.302 51.6441 418.515 51.5376 418.671 51.3669C418.827 51.1961 418.913 50.9734 418.913 50.7426C418.913 50.5117 418.827 50.2892 418.671 50.1185C418.515 49.9477 418.302 49.841 418.071 49.8193Z" fill="#333333"/>
<path d="M384.398 61.8328H418.071C418.301 61.8111 418.515 61.7044 418.671 61.5337C418.827 61.3629 418.913 61.1404 418.913 60.9096C418.913 60.6787 418.827 60.456 418.671 60.2853C418.515 60.1145 418.301 60.008 418.071 59.9863H384.398C384.167 60.008 383.953 60.1145 383.798 60.2853C383.642 60.456 383.556 60.6787 383.556 60.9096C383.556 61.1404 383.642 61.3629 383.798 61.5337C383.953 61.7044 384.167 61.8111 384.398 61.8328Z" fill="#333333"/>
<path d="M384.398 72.9539H418.071C418.301 72.9322 418.515 72.8255 418.671 72.6548C418.827 72.484 418.913 72.2615 418.913 72.0307C418.913 71.7998 418.827 71.5771 418.671 71.4064C418.515 71.2356 418.301 71.1291 418.071 71.1074H384.398C384.167 71.1291 383.953 71.2356 383.798 71.4064C383.642 71.5771 383.556 71.7998 383.556 72.0307C383.556 72.2615 383.642 72.484 383.798 72.6548C383.953 72.8255 384.167 72.9322 384.398 72.9539Z" fill="#333333"/>
<path d="M384.398 84.0652H418.071C418.301 84.0435 418.515 83.937 418.671 83.7663C418.827 83.5956 418.913 83.3729 418.913 83.142C418.913 82.9111 418.827 82.6886 418.671 82.5179C418.515 82.3471 418.301 82.2404 418.071 82.2188H384.398C384.167 82.2404 383.953 82.3471 383.798 82.5179C383.642 82.6886 383.556 82.9111 383.556 83.142C383.556 83.3729 383.642 83.5956 383.798 83.7663C383.953 83.937 384.167 84.0435 384.398 84.0652Z" fill="#333333"/>
<path d="M300.653 63.3929C302.506 63.3929 304.008 61.8938 304.008 60.0446C304.008 58.1954 302.506 56.6963 300.653 56.6963C298.8 56.6963 297.298 58.1954 297.298 60.0446C297.298 61.8938 298.8 63.3929 300.653 63.3929Z" fill="white"/>
<path d="M304.929 60.0452C304.919 59.1685 304.643 58.3154 304.138 57.5978C303.633 56.8802 302.923 56.3317 302.1 56.024C301.281 55.7333 300.393 55.6976 299.553 55.9218C298.713 56.1461 297.961 56.6196 297.397 57.2797C296.95 57.8031 296.637 58.4264 296.484 59.0965C296.331 59.7666 296.342 60.4635 296.517 61.1283C296.692 61.7931 297.025 62.4059 297.488 62.9147C297.951 63.4234 298.53 63.8132 299.177 64.0505C299.823 64.2878 300.517 64.3656 301.2 64.2777C301.883 64.1897 302.535 63.9386 303.1 63.5454C303.664 63.1521 304.126 62.6285 304.444 62.0191C304.763 61.4097 304.929 60.7325 304.929 60.0452C304.941 59.9166 304.926 59.787 304.885 59.6645C304.844 59.542 304.778 59.4294 304.691 59.3339C304.604 59.2384 304.498 59.1621 304.38 59.1099C304.261 59.0577 304.133 59.0308 304.004 59.0308C303.874 59.0308 303.746 59.0577 303.628 59.1099C303.51 59.1621 303.404 59.2384 303.317 59.3339C303.23 59.4294 303.163 59.542 303.122 59.6645C303.081 59.787 303.067 59.9166 303.079 60.0452C303.079 60.5728 302.906 61.086 302.585 61.506C302.429 61.7357 302.651 61.4404 302.544 61.5635L302.396 61.7193L302.273 61.8426C302.273 61.8426 302.043 62.0394 302.191 61.9245C302.074 62.0133 301.95 62.0929 301.821 62.1625L301.664 62.2447C301.566 62.2447 301.566 62.2939 301.664 62.2447H301.541C301.398 62.2933 301.253 62.3343 301.105 62.3677C301.105 62.3677 300.875 62.4087 301.039 62.3677H300.809C300.653 62.3759 300.497 62.3759 300.341 62.3677C300.176 62.3677 300.546 62.4169 300.266 62.3677L300.003 62.3102L299.748 62.2282C299.748 62.2282 299.592 62.1544 299.748 62.2282C299.617 62.1626 299.493 62.0887 299.37 62.0149C299.137 61.8748 298.933 61.6907 298.77 61.4731C298.86 61.5798 298.77 61.4731 298.77 61.4731C298.77 61.4731 298.671 61.3338 298.63 61.2599L298.54 61.1038C298.54 61.1038 298.416 60.8331 298.49 61.0055C298.431 60.8675 298.385 60.7247 298.35 60.5787C298.35 60.5213 298.35 60.4639 298.309 60.4064C298.268 60.349 298.309 60.2833 298.309 60.4064C298.305 60.36 298.305 60.3132 298.309 60.2668C298.297 60.1275 298.297 59.9875 298.309 59.8482C298.309 59.8482 298.35 59.5364 298.309 59.7252C298.309 59.6678 298.309 59.6103 298.309 59.5529C298.346 59.4057 298.39 59.2605 298.441 59.1179C298.523 58.8635 298.359 59.2491 298.441 59.0193C298.49 58.9373 298.523 58.8636 298.573 58.7897C298.622 58.7159 298.647 58.6665 298.688 58.6008C298.729 58.5351 298.827 58.4286 298.688 58.5435C298.78 58.4336 298.879 58.3294 298.984 58.2315C298.984 58.2315 299.189 58.0593 299.091 58.1332C298.992 58.207 299.222 58.0428 299.214 58.051C299.357 57.9535 299.508 57.8684 299.666 57.7966L299.921 57.7064L300.102 57.6653C300.102 57.6653 300.373 57.6161 300.242 57.6653C300.11 57.7146 300.414 57.6653 300.398 57.6653C300.475 57.6612 300.552 57.6612 300.628 57.6653H300.867C301.081 57.6653 300.793 57.6653 300.982 57.6653C301.158 57.7032 301.331 57.7525 301.5 57.813C301.763 57.8951 301.418 57.7638 301.566 57.813C301.66 57.8558 301.75 57.9053 301.837 57.9609L301.985 58.051L302.125 58.1496C302.051 58.1004 302.059 58.1004 302.125 58.1496C302.191 58.1988 302.33 58.3547 302.429 58.4531C302.528 58.5516 302.355 58.3219 302.503 58.5435L302.651 58.7651L302.775 58.9949C302.865 59.159 302.775 58.9045 302.824 59.0933C302.873 59.282 302.923 59.4381 302.964 59.6104C302.964 59.6104 302.964 59.7909 302.964 59.6104C302.972 59.7361 302.972 59.8622 302.964 59.9879C302.968 60.2303 303.066 60.4615 303.238 60.633C303.41 60.8045 303.642 60.9027 303.885 60.9069C304.011 60.9228 304.138 60.9129 304.26 60.8776C304.382 60.8423 304.496 60.7825 304.594 60.7017C304.692 60.621 304.772 60.5211 304.829 60.4082C304.887 60.2953 304.921 60.1716 304.929 60.0452Z" fill="#333333"/>
<path d="M335.42 56.6963H311.063C309.179 56.6963 307.651 58.2211 307.651 60.102V60.1102C307.651 61.9912 309.179 63.516 311.063 63.516H335.42C337.305 63.516 338.833 61.9912 338.833 60.1102V60.102C338.833 58.2211 337.305 56.6963 335.42 56.6963Z" fill="white"/>
<path d="M311.105 64.4351H331.951C333.342 64.5227 334.739 64.5034 336.128 64.3776C340.453 63.6964 341.062 57.4841 336.901 56.0233C335.519 55.5391 333.751 55.7689 332.312 55.7689H315.455C313.811 55.6817 312.163 55.6982 310.521 55.8182C309.424 55.9537 308.42 56.5024 307.715 57.3523C307.01 58.2021 306.657 59.2889 306.729 60.3899C306.8 61.4909 307.291 62.5228 308.1 63.2748C308.908 64.0268 309.975 64.4419 311.08 64.4351C312.264 64.4843 312.264 62.6378 311.08 62.5886C310.625 62.5819 310.181 62.452 309.794 62.2125C309.408 61.9731 309.094 61.6332 308.886 61.2294C308.678 60.8255 308.584 60.3729 308.615 59.9199C308.645 59.4668 308.798 59.0305 309.057 58.6576C309.33 58.3051 309.686 58.0254 310.094 57.8436C310.501 57.6617 310.948 57.5833 311.393 57.6154H331.548C332.814 57.6154 334.097 57.6154 335.371 57.6154C336.032 57.6154 336.666 57.8773 337.133 58.3437C337.601 58.81 337.863 59.4425 337.863 60.102C337.863 60.7615 337.601 61.394 337.133 61.8603C336.666 62.3266 336.032 62.5886 335.371 62.5886C331.498 62.7445 327.584 62.5886 323.703 62.5886H311.105C310.875 62.6103 310.661 62.717 310.505 62.8877C310.349 63.0585 310.263 63.281 310.263 63.5118C310.263 63.7427 310.349 63.9652 310.505 64.1359C310.661 64.3067 310.875 64.4134 311.105 64.4351Z" fill="#333333"/>
<path d="M329.574 28.54H289.124C288.328 28.54 287.565 28.8557 287.002 29.4174C286.439 29.9791 286.123 30.7409 286.123 31.5354C286.123 32.3298 286.439 33.0918 287.002 33.6535C287.565 34.2153 288.328 34.5309 289.124 34.5309H291.978C292.763 34.568 293.509 34.889 294.075 35.4341C294.64 35.9792 294.988 36.7111 295.053 37.4933C295.053 39.1347 293.409 40.4889 291.452 40.4889H282.941C282.534 40.4676 282.127 40.5291 281.745 40.6698C281.363 40.8105 281.013 41.0275 280.718 41.3073C280.422 41.5872 280.187 41.9241 280.026 42.2977C279.865 42.6712 279.782 43.0736 279.782 43.4802C279.782 43.8867 279.865 44.2889 280.026 44.6625C280.187 45.036 280.422 45.373 280.718 45.6528C281.013 45.9327 281.363 46.1496 281.745 46.2904C282.127 46.4311 282.534 46.4928 282.941 46.4715H318.678C319.085 46.4928 319.492 46.4311 319.874 46.2904C320.256 46.1496 320.606 45.9327 320.901 45.6528C321.197 45.373 321.432 45.036 321.593 44.6625C321.754 44.2889 321.837 43.8867 321.837 43.4802C321.837 43.0736 321.754 42.6712 321.593 42.2977C321.432 41.9241 321.197 41.5872 320.901 41.3073C320.606 41.0275 320.256 40.8105 319.874 40.6698C319.492 40.5291 319.085 40.4676 318.678 40.4889H318.07C316.08 40.4889 314.46 39.1429 314.46 37.4933C314.525 36.7098 314.874 35.9768 315.442 35.4315C316.009 34.8862 316.756 34.5661 317.543 34.5309H329.574C330.37 34.5309 331.133 34.2153 331.696 33.6535C332.259 33.0918 332.575 32.3298 332.575 31.5354C332.575 30.7409 332.259 29.9791 331.696 29.4174C331.133 28.8557 330.37 28.54 329.574 28.54Z" fill="white"/>
<path d="M329.574 27.6456H300.875C297.01 27.6456 293.145 27.5882 289.272 27.6456C285.753 27.6949 283.73 32.0445 286.542 34.5064C287.833 35.6389 289.453 35.483 291.049 35.483C291.687 35.4188 292.331 35.5236 292.915 35.7867C293.19 35.8942 293.436 36.0662 293.63 36.2882C293.825 36.5102 293.963 36.7755 294.033 37.062C294.103 37.3485 294.103 37.6476 294.033 37.9341C293.963 38.2206 293.825 38.486 293.631 38.7081C292.751 39.6929 291.427 39.5863 290.234 39.5863H285.704C284.791 39.5863 283.862 39.5452 282.941 39.5863C281.921 39.5815 280.939 39.9735 280.204 40.679C279.469 41.3845 279.038 42.3481 279.002 43.3654C278.967 44.3826 279.33 45.3735 280.015 46.1281C280.699 46.8826 281.651 47.3414 282.669 47.4071C283.023 47.4071 283.376 47.4071 283.73 47.4071H307.922C311.499 47.4071 315.109 47.5467 318.678 47.4071C319.698 47.4119 320.68 47.0199 321.415 46.3144C322.15 45.6089 322.581 44.6453 322.616 43.628C322.652 42.6108 322.289 41.6199 321.604 40.8653C320.919 40.1108 319.967 39.652 318.95 39.5863C318.02 39.5124 317.14 39.6274 316.31 39.0611C316.076 38.9247 315.877 38.7374 315.725 38.5134C315.574 38.2893 315.476 38.0341 315.437 37.7668C315.398 37.4995 315.42 37.227 315.502 36.9694C315.583 36.7118 315.722 36.4758 315.907 36.279C316.729 35.3845 317.757 35.4583 318.851 35.4583H327.551C328.316 35.4583 329.097 35.4994 329.862 35.4583C330.879 35.3926 331.832 34.9338 332.516 34.1793C333.201 33.4247 333.564 32.4338 333.528 31.4165C333.493 30.3993 333.062 29.4357 332.327 28.7302C331.592 28.0247 330.61 27.6327 329.59 27.6374C328.398 27.58 328.398 29.4265 329.59 29.4839C332.057 29.5906 332.37 33.2507 329.878 33.5872C329.155 33.6365 328.43 33.6365 327.707 33.5872H319.287C318.629 33.5462 317.97 33.5462 317.313 33.5872C315.282 33.8252 313.415 35.5568 313.572 37.6905C313.728 39.8242 315.669 41.1456 317.617 41.3261C318.342 41.2673 319.07 41.3739 319.747 41.6379C320.22 41.9168 320.563 42.3709 320.702 42.9013C320.841 43.4317 320.763 43.9953 320.487 44.4691C319.723 45.774 318.02 45.495 316.746 45.495H285.531C284.485 45.6019 283.429 45.5772 282.39 45.4212C280.062 44.7811 280.655 41.4903 282.949 41.3179C283.771 41.2687 284.667 41.3179 285.514 41.3179H289.93C290.97 41.4012 292.017 41.318 293.03 41.0717C294.889 40.4562 296.32 38.6672 295.892 36.6402C295.631 35.7496 295.091 34.9658 294.351 34.4045C293.611 33.8431 292.71 33.5337 291.78 33.5217C290.654 33.4642 289.075 33.8335 288.047 33.2344C286.18 32.1429 287.101 29.4922 289.108 29.3773C292.233 29.1968 295.431 29.3773 298.564 29.3773H329.541C329.718 29.3135 329.871 29.1977 329.98 29.0451C330.09 28.8926 330.15 28.7104 330.154 28.5228C330.158 28.3352 330.104 28.1509 330 27.9943C329.897 27.8377 329.748 27.7161 329.574 27.6456Z" fill="#333333"/>
<path d="M339.17 34.564C340.828 34.564 342.172 33.223 342.172 31.5686C342.172 29.9143 340.828 28.5732 339.17 28.5732C337.513 28.5732 336.169 29.9143 336.169 31.5686C336.169 33.223 337.513 34.564 339.17 34.564Z" fill="white"/>
<path d="M337.09 31.5595C337.09 31.4774 337.09 31.3953 337.09 31.3132C337.09 31.2312 337.09 31.2722 337.09 31.3132C337.115 31.1801 337.148 31.0486 337.188 30.9193L337.263 30.6977C337.263 30.6977 337.189 30.8455 337.263 30.6977C337.337 30.55 337.411 30.4269 337.501 30.2956C337.591 30.1643 337.427 30.3777 337.501 30.2956L337.633 30.148L337.748 30.0414C337.748 30.0414 337.961 29.8608 337.797 29.9839C337.904 29.91 338.011 29.8362 338.126 29.7705L338.266 29.6966C338.364 29.6555 338.356 29.6555 338.266 29.6966L338.381 29.6557C338.507 29.6125 338.637 29.5768 338.767 29.5489C338.817 29.5489 338.998 29.5489 338.767 29.5489H338.981C339.118 29.5407 339.255 29.5407 339.392 29.5489C339.549 29.5489 339.187 29.4997 339.392 29.5489L339.631 29.5982L339.853 29.6719C339.968 29.7376 340.091 29.787 340.198 29.8609L340.363 29.9674C340.478 30.0577 340.215 29.8279 340.363 29.9674C340.511 30.107 340.585 30.1807 340.692 30.2956C340.576 30.1725 340.692 30.2956 340.692 30.2956L340.815 30.4926L340.897 30.6322C340.897 30.6322 341.012 30.8947 340.897 30.6977C340.947 30.8206 340.988 30.9469 341.02 31.0754C341.02 31.1247 341.021 31.1821 341.062 31.2313C341.066 31.2722 341.066 31.3134 341.062 31.3543C341.07 31.48 341.07 31.6061 341.062 31.7318C341.062 31.7318 341.012 32.0273 341.062 31.8057V31.9698C341.062 32.1011 340.988 32.2242 340.946 32.3555C340.905 32.4868 341.037 32.2078 340.946 32.4212L340.831 32.6264C340.801 32.6841 340.765 32.739 340.724 32.7905C340.724 32.8315 340.585 32.9628 340.724 32.7905C340.634 32.8889 340.552 32.9875 340.453 33.0778C340.354 33.168 340.264 33.242 340.371 33.1517C340.478 33.0614 340.272 33.2172 340.272 33.2172C340.142 33.3048 340.004 33.3817 339.861 33.447C339.787 33.447 339.713 33.5045 339.639 33.521H339.483H339.359C339.499 33.521 339.236 33.521 339.236 33.521H339.03H338.817C338.603 33.521 338.932 33.521 338.743 33.521L338.274 33.3895C338.06 33.3157 338.348 33.4552 338.274 33.3895C338.197 33.3436 338.117 33.3026 338.035 33.2665L337.904 33.1761C337.857 33.1508 337.813 33.1207 337.772 33.086C337.855 33.1516 337.863 33.1516 337.772 33.086L337.493 32.8069C337.32 32.6346 337.583 32.9546 337.443 32.7494C337.398 32.6868 337.356 32.621 337.32 32.5524L337.205 32.3473C337.106 32.1831 337.205 32.4787 337.205 32.2818C337.205 32.0848 337.114 31.9699 337.073 31.8139C337.032 31.658 337.073 31.6416 337.073 31.8139C337.073 31.699 337.073 31.5924 337.073 31.4775C337.073 31.2338 336.976 30.9999 336.804 30.8276C336.631 30.6552 336.397 30.5583 336.152 30.5583C335.909 30.5624 335.676 30.6603 335.503 30.8316C335.33 31.0028 335.229 31.2343 335.223 31.4775C335.232 32.2831 335.486 33.0668 335.952 33.7249C336.417 34.383 337.072 34.8844 337.83 35.1623C338.579 35.4323 339.393 35.4677 340.163 35.2639C340.933 35.06 341.622 34.6266 342.139 34.0214C342.546 33.5411 342.832 32.9698 342.971 32.3559C343.111 31.742 343.099 31.1035 342.939 30.4948C342.778 29.8861 342.473 29.3252 342.049 28.8593C341.624 28.3934 341.094 28.0363 340.502 27.8186C339.91 27.6009 339.275 27.529 338.649 27.6087C338.023 27.6883 337.426 27.9174 336.908 28.2764C336.39 28.6355 335.966 29.1139 335.673 29.6711C335.38 30.2284 335.225 30.8481 335.223 31.4775C335.229 31.7215 335.329 31.9537 335.502 32.1263C335.675 32.2989 335.908 32.3985 336.152 32.4048C336.386 32.4059 336.612 32.3197 336.785 32.1633C336.959 32.007 337.067 31.7916 337.09 31.5595Z" fill="#333333"/>
<path d="M346.267 110.073C363.983 110.073 378.345 95.7395 378.345 78.0588C378.345 60.378 363.983 46.0449 346.267 46.0449C328.55 46.0449 314.188 60.378 314.188 78.0588C314.188 95.7395 328.55 110.073 346.267 110.073Z" fill="#DF357F"/>
<path d="M377.424 78.0582C377.399 86.0653 374.27 93.7519 368.692 99.5071C363.113 105.262 355.519 108.639 347.501 108.93C339.483 109.221 331.664 106.403 325.682 101.067C319.7 95.7312 316.019 88.2914 315.412 80.3072C314.805 72.323 317.318 64.4143 322.425 58.2386C327.532 52.0629 334.836 48.0996 342.806 47.1796C350.776 46.2595 358.794 48.4542 365.178 53.3034C371.563 58.1527 375.819 65.2799 377.054 73.1916C377.301 74.802 377.425 76.429 377.424 78.0582C377.446 78.288 377.553 78.5015 377.724 78.6569C377.895 78.8122 378.118 78.8983 378.349 78.8983C378.581 78.8983 378.804 78.8122 378.975 78.6569C379.146 78.5015 379.253 78.288 379.274 78.0582C379.276 69.5398 375.973 61.3517 370.056 55.2116C364.14 49.0716 356.071 45.4566 347.542 45.1255C339.013 44.7944 330.687 47.7728 324.31 53.4357C317.934 59.0985 314.003 67.0059 313.342 75.4987C312.681 83.9915 315.341 92.4096 320.765 98.9872C326.189 105.565 333.954 109.79 342.432 110.778C350.91 111.765 359.442 109.437 366.237 104.282C373.033 99.1272 377.564 91.5463 378.88 83.1298C379.134 81.451 379.266 79.7561 379.274 78.0582C379.253 77.8284 379.146 77.6147 378.975 77.4593C378.804 77.304 378.581 77.2179 378.349 77.2179C378.118 77.2179 377.895 77.304 377.724 77.4593C377.553 77.6147 377.446 77.8284 377.424 78.0582Z" fill="#333333"/>
<path d="M346.267 105.214C361.295 105.214 373.477 93.0565 373.477 78.0589C373.477 63.0613 361.295 50.9033 346.267 50.9033C331.239 50.9033 319.057 63.0613 319.057 78.0589C319.057 93.0565 331.239 105.214 346.267 105.214Z" fill="white"/>
<path d="M372.548 78.0573C372.527 84.8025 369.891 91.2779 365.192 96.1264C360.494 100.975 354.097 103.82 347.342 104.065C340.588 104.311 334 101.938 328.961 97.4433C323.921 92.9488 320.82 86.6819 320.308 79.956C319.796 73.2302 321.912 66.5674 326.213 61.3644C330.514 56.1614 336.667 52.8219 343.381 52.0459C350.095 51.2698 356.849 53.1175 362.228 57.2016C367.607 61.2857 371.194 67.2893 372.235 73.954C372.449 75.3113 372.553 76.6834 372.548 78.0573C372.57 78.2871 372.676 78.5005 372.848 78.6559C373.019 78.8113 373.242 78.8974 373.473 78.8974C373.704 78.8974 373.927 78.8113 374.098 78.6559C374.269 78.5005 374.376 78.2871 374.398 78.0573C374.396 70.8022 371.579 63.8297 366.537 58.6025C361.496 53.3753 354.622 50.2993 347.358 50.0199C340.094 49.7404 333.003 52.2792 327.574 57.1037C322.144 61.9281 318.798 68.6634 318.236 75.8968C317.674 83.1302 319.941 90.2996 324.561 95.9014C329.181 101.503 335.794 105.102 343.015 105.943C350.236 106.784 357.502 104.802 363.29 100.412C369.079 96.0224 372.939 89.5665 374.061 82.3984C374.276 80.9611 374.389 79.5105 374.398 78.0573C374.376 77.8274 374.269 77.6138 374.098 77.4584C373.927 77.303 373.704 77.217 373.473 77.217C373.242 77.217 373.019 77.303 372.848 77.4584C372.676 77.6138 372.57 77.8274 372.548 78.0573Z" fill="#333333"/>
<path d="M346.267 105.214C361.295 105.214 373.477 93.0565 373.477 78.0589C373.477 63.0613 361.295 50.9033 346.267 50.9033C331.239 50.9033 319.057 63.0613 319.057 78.0589C319.057 93.0565 331.239 105.214 346.267 105.214Z" fill="white"/>
<path d="M372.548 78.0573C372.527 84.8025 369.891 91.2779 365.192 96.1264C360.494 100.975 354.097 103.82 347.342 104.065C340.588 104.311 334 101.938 328.961 97.4433C323.921 92.9488 320.82 86.6819 320.308 79.956C319.796 73.2302 321.912 66.5674 326.213 61.3644C330.514 56.1614 336.667 52.8219 343.381 52.0459C350.095 51.2698 356.849 53.1175 362.228 57.2016C367.607 61.2857 371.194 67.2893 372.235 73.954C372.449 75.3113 372.553 76.6834 372.548 78.0573C372.57 78.2871 372.676 78.5005 372.848 78.6559C373.019 78.8113 373.242 78.8974 373.473 78.8974C373.704 78.8974 373.927 78.8113 374.098 78.6559C374.269 78.5005 374.376 78.2871 374.398 78.0573C374.396 70.8022 371.579 63.8297 366.537 58.6025C361.496 53.3753 354.622 50.2993 347.358 50.0199C340.094 49.7404 333.003 52.2792 327.574 57.1037C322.144 61.9281 318.798 68.6634 318.236 75.8968C317.674 83.1302 319.941 90.2996 324.561 95.9014C329.181 101.503 335.794 105.102 343.015 105.943C350.236 106.784 357.502 104.802 363.29 100.412C369.079 96.0224 372.939 89.5665 374.061 82.3984C374.276 80.9611 374.389 79.5105 374.398 78.0573C374.376 77.8274 374.269 77.6138 374.098 77.4584C373.927 77.303 373.704 77.217 373.473 77.217C373.242 77.217 373.019 77.303 372.848 77.4584C372.676 77.6138 372.57 77.8274 372.548 78.0573Z" fill="#333333"/>
<path d="M335.527 97.9838C330.564 95.3087 326.775 90.8857 324.9 85.5763C323.024 80.2669 323.195 74.4511 325.38 69.2607" fill="white"/>
<path d="M335.996 97.1791C331.196 94.6187 327.534 90.3537 325.734 85.2279C323.934 80.102 324.128 74.4887 326.276 69.4983C326.728 68.3987 324.944 67.9228 324.492 69.0061C322.3 74.3998 322.165 80.4079 324.112 85.8943C326.06 91.3806 329.954 95.9648 335.058 98.7795C336.103 99.3458 337.04 97.7537 335.996 97.1382V97.1791Z" fill="#333333"/>
<path d="M364.966 65.2646C367.114 68.3939 368.44 72.0116 368.823 75.7857C369.205 79.5598 368.631 83.3694 367.153 86.8644" fill="white"/>
<path d="M364.169 65.7318C366.228 68.7659 367.497 72.2639 367.863 75.9101C368.23 79.5563 367.68 83.236 366.265 86.6175C365.805 87.709 367.598 88.1932 368.05 87.11C369.536 83.4896 370.105 79.5595 369.706 75.6674C369.307 71.7754 367.953 68.0414 365.764 64.7961C365.098 63.8196 363.494 64.7388 364.169 65.7318Z" fill="#333333"/>
<path d="M346.267 55.4326C349.998 55.4353 353.671 56.3601 356.957 58.1244L346.267 55.4326Z" fill="white"/>
<path d="M346.267 56.3592C349.846 56.3629 353.369 57.2421 356.529 58.9197C357.582 59.4778 358.519 57.8857 357.467 57.3277C354.019 55.4924 350.174 54.5259 346.267 54.5127C346.036 54.5344 345.822 54.6411 345.667 54.8118C345.511 54.9826 345.425 55.2051 345.425 55.4359C345.425 55.6668 345.511 55.8895 345.667 56.0602C345.822 56.231 346.036 56.3375 346.267 56.3592Z" fill="#333333"/>
<path d="M344.047 92.3534C343.798 92.3513 343.56 92.2523 343.383 92.0776C343.206 91.9028 343.105 91.6662 343.101 91.418V89.0051C341.468 88.8023 339.889 88.2929 338.447 87.5034C337.321 86.8837 336.366 85.9955 335.667 84.9182C335.069 83.979 334.737 82.8957 334.705 81.7833C334.705 81.6821 334.725 81.5821 334.765 81.4889C334.804 81.3958 334.862 81.3117 334.935 81.2417C335.004 81.1671 335.088 81.108 335.182 81.0684C335.275 81.0288 335.376 81.0095 335.478 81.0119H342.122C342.405 81.0002 342.686 81.0535 342.945 81.1678C343.173 81.2946 343.39 81.4401 343.594 81.6028C343.821 81.7661 344.06 81.9116 344.31 82.0377C344.568 82.1717 344.845 82.2659 345.132 82.3168C345.473 82.382 345.821 82.4121 346.168 82.407C346.814 82.427 347.459 82.3383 348.076 82.1445C348.553 81.9694 348.791 81.7314 348.791 81.4304C348.79 81.2894 348.752 81.1511 348.681 81.0289C348.611 80.9067 348.51 80.8049 348.388 80.733C347.96 80.4864 347.493 80.3143 347.007 80.2241C346.349 80.0764 345.444 79.9286 344.277 79.7891C342.627 79.584 341.013 79.1503 339.483 78.5006C338.235 77.9802 337.155 77.1288 336.358 76.0387C335.592 74.8858 335.207 73.5228 335.256 72.1405C335.237 71.1939 335.414 70.2537 335.778 69.3792C336.142 68.5048 336.684 67.7152 337.369 67.0607C338.943 65.6026 340.926 64.6603 343.052 64.3607V61.8988C343.054 61.6491 343.154 61.4103 343.331 61.2338C343.508 61.0572 343.747 60.9572 343.997 60.9551H348.232C348.482 60.9572 348.722 61.0572 348.898 61.2338C349.075 61.4103 349.176 61.6491 349.178 61.8988V64.4511C350.665 64.7193 352.084 65.277 353.355 66.0924C354.384 66.7605 355.27 67.6252 355.962 68.6365C356.512 69.418 356.839 70.3344 356.907 71.2872C356.908 71.3884 356.888 71.4884 356.848 71.5816C356.808 71.6747 356.75 71.7588 356.677 71.8288C356.613 71.9001 356.534 71.9573 356.446 71.9969C356.359 72.0364 356.264 72.0574 356.167 72.0586H349.178C348.897 72.0729 348.616 72.0254 348.356 71.9192C348.131 71.8104 347.923 71.6694 347.739 71.5006C347.545 71.3366 347.329 71.2012 347.097 71.0985C346.716 70.9343 346.304 70.8558 345.889 70.8687C345.448 70.837 345.006 70.9278 344.614 71.1312C344.506 71.2003 344.416 71.2938 344.351 71.4038C344.286 71.5139 344.247 71.6375 344.239 71.7651C344.23 71.8926 344.251 72.0204 344.3 72.1383C344.35 72.2563 344.426 72.3611 344.524 72.4443C344.869 72.6904 345.265 72.856 345.683 72.9285C346.478 73.1106 347.282 73.2503 348.092 73.3471C350.018 73.5321 351.909 73.985 353.709 74.6929C354.962 75.1805 356.035 76.0397 356.784 77.1549C357.46 78.3076 357.793 79.628 357.746 80.9626C357.768 82.3055 357.384 83.6239 356.644 84.7459C355.871 85.8904 354.826 86.8264 353.602 87.4706C352.212 88.2147 350.704 88.7171 349.145 88.956V91.418C349.141 91.6662 349.039 91.9028 348.863 92.0776C348.686 92.2523 348.448 92.3513 348.199 92.3534H344.047Z" fill="#DF357F"/>
</svg>
