<svg width="175" height="150" fill="none" xmlns="http://www.w3.org/2000/svg" viewBox="0 0 175 150">
    <path d="M82.804 136.42c34.634 0 62.71-28.076 62.71-62.71S117.438 11 82.804 11s-62.71 28.076-62.71 62.71 28.076 62.71 62.71 62.71z" fill="#F6F2EF"/>
    <path d="M149.203 23.84c-1.36 2.2-4.36 3.75-6.84 4.48 2.44-.12 5.17-.13 6.94 1.55a8.837 8.837 0 0 1 1.83 3c.94 2.13 1.8 4.3 2.6 6.5.21-2.07.51-4.12.92-6.16a8.144 8.144 0 0 1 .7-2.26c1.29-2.37 4.37-2.95 7-3.27-1.42-.63-2.82-1.3-4.22-2a15.11 15.11 0 0 1-2.59-1.56c-2.8-2.26-3.64-6.1-4.3-9.63.04-.01-.26 6.46-2.04 9.35z" fill="#F0D227"/>
    <path d="M148.233 23.27c-1.37 2.08-3.86 3.26-6.17 4-1.17.36-1 2.27.3 2.21 2.42-.1 5.33-.22 6.82 2.05 1.49 2.27 2.48 5.47 3.47 8.16a1.133 1.133 0 0 0 1.922.424c.179-.2.281-.456.288-.724.15-1.49.35-3 .61-4.44a9.068 9.068 0 0 1 1.13-3.84c1.28-1.71 3.83-2 5.79-2.29 1-.12 1.72-1.58.57-2.09-2.72-1.22-6.22-2.37-8-4.88-1.58-2.21-2.09-5-2.58-7.63-.25-1.3-2.15-.91-2.21.3-.14 2.88-.45 6.27-1.93 8.79a1.128 1.128 0 0 0 .451 1.453 1.132 1.132 0 0 0 1.489-.313c1.69-2.88 2.08-6.65 2.24-9.93l-2.21.3c.55 2.93 1.19 6 3 8.45 2.06 2.77 5.56 4 8.61 5.4l.56-2.1c-2.61.33-5.57.79-7.37 2.93a8.562 8.562 0 0 0-1.59 4.14c-.36 1.9-.62 3.82-.82 5.75l2.21-.3c-.64-1.76-1.33-3.49-2.05-5.22a15.973 15.973 0 0 0-2.28-4.33c-2-2.35-5.27-2.43-8.13-2.31l.3 2.21c2.9-.89 5.81-2.4 7.51-5 .81-1.25-1.14-2.38-1.93-1.17z" fill="#333"/>
    <path d="M137.213 30.45h-93.35v85.64h93.35V30.45z" fill="#fff"/>
    <path d="M137.203 114.959h-89.49a19.563 19.563 0 0 0-3.67 0 .855.855 0 0 1-.16 0l1.12 1.12v-82.14c.105-1.11.105-2.229 0-3.34a.736.736 0 0 1 0-.15l-1.12 1.12h89.51c1.221.115 2.45.115 3.67 0a.855.855 0 0 1 .16 0l-1.12-1.12v75c0 3.44-.26 7 0 10.44v.151a1.132 1.132 0 0 0 1.886.729c.208-.189.338-.449.364-.729v-75c0-3.44.25-7 0-10.44a.75.75 0 0 1 0-.15 1.152 1.152 0 0 0-1.13-1.13h-89.51c-1.21 0-2.46-.09-3.67 0h-.16a1.15 1.15 0 0 0-1.13 1.13v74.999c0 3.44-.26 7 0 10.44a.762.762 0 0 1 0 .151 1.15 1.15 0 0 0 1.13 1.129h89.51c1.21 0 2.46.09 3.67 0h.16a1.125 1.125 0 0 0 .884-1.113 1.126 1.126 0 0 0-.904-1.097z" fill="#333"/>
    <path d="M137.203 41.55h-93.34v-9.08a2 2 0 0 1 2-2h89.3a1.998 1.998 0 0 1 2 2l.04 9.08z" fill="#DF357F"/>
    <path d="M137.203 40.43h-89.49a19.562 19.562 0 0 0-3.67 0 .856.856 0 0 1-.16 0l1.12 1.12v-5.64c0-1.07-.57-4.11.92-4.34a28.678 28.678 0 0 1 4 0h79.28c1.85 0 3.72-.05 5.57 0a1.181 1.181 0 0 1 1.29 1.31c.06 2.26 0 4.54 0 6.81v1.86a1.133 1.133 0 0 0 1.125 1.024 1.13 1.13 0 0 0 1.125-1.024v-5.88c0-2 .48-4.8-1.65-6-1.28-.7-3.37-.38-4.76-.38h-81c-1.64 0-3.29-.06-4.94 0a3.27 3.27 0 0 0-3.27 3.41v8.86a1.15 1.15 0 0 0 1.13 1.13h89.51c1.21 0 2.46.08 3.67 0h.16a1.128 1.128 0 0 0 1.15-1.11 1.129 1.129 0 0 0-1.11-1.15z" fill="#333"/>
    <path d="M53.143 38.36a2.36 2.36 0 1 0 0-4.72 2.36 2.36 0 0 0 0 4.72zM131.334 38.36a2.36 2.36 0 1 0 0-4.72 2.36 2.36 0 0 0 0 4.72z" fill="#333"/>
    <path d="M65.713 50.08h-10.01v10.01h10.01V50.08zM80.583 50.08h-10.01v10.01h10.01V50.08zM95.453 50.08h-10.01v10.01h10.01V50.08zM110.333 50.08h-10.01v10.01h10.01V50.08zM125.203 50.08h-10.01v10.01h10.01V50.08zM65.713 64.9h-10.01v10.01h10.01V64.9zM80.583 64.9h-10.01v10.01h10.01V64.9zM95.453 64.9h-10.01v10.01h10.01V64.9zM110.333 64.9h-10.01v10.01h10.01V64.9zM125.203 64.9h-10.01v10.01h10.01V64.9zM65.713 79.73h-10.01v10.01h10.01V79.73zM80.583 79.73h-10.01v10.01h10.01V79.73zM95.453 79.73h-10.01v10.01h10.01V79.73zM110.333 79.73h-10.01v10.01h10.01V79.73zM125.203 79.73h-10.01v10.01h10.01V79.73zM65.713 94.55h-10.01v10.01h10.01V94.55zM80.583 94.55h-10.01v10.01h10.01V94.55zM95.453 94.55h-10.01v10.01h10.01V94.55zM110.333 94.55h-10.01v10.01h10.01V94.55zM125.203 94.55h-10.01v10.01h10.01V94.55z" fill="#CCC"/>
    <path d="M59.443 70.05h-39.93a6.34 6.34 0 0 0-6.34 6.34v55.86a6.34 6.34 0 0 0 6.34 6.34h39.93a6.34 6.34 0 0 0 6.34-6.34V76.39a6.34 6.34 0 0 0-6.34-6.34z" fill="#fff"/>
    <path d="M59.443 137.46h-38.53c-.933.066-1.872.006-2.79-.18a5.304 5.304 0 0 1-3.82-5.17v-52.1c0-2.11-.35-4.68.88-6.51 1.88-2.79 5.26-2.3 8.17-2.3h12.89c7.65 0 15.31-.06 23 0a5.31 5.31 0 0 1 5.17 3.5c.246.864.344 1.764.29 2.66v36.83c0 6 .12 12 0 18a5.3 5.3 0 0 1-5.22 5.26c-1.44 0-1.45 2.29 0 2.25a7.549 7.549 0 0 0 7.34-6.13c.113-.791.157-1.591.13-2.39V80.45c0-2.07.28-4.55-.42-6.53a7.58 7.58 0 0 0-7.07-5h-39.47a7.628 7.628 0 0 0-7.94 7.67v35.96c0 6.53-.12 13.07 0 19.6a7.592 7.592 0 0 0 3.69 6.53 8.653 8.653 0 0 0 4.52 1h39.18a1.13 1.13 0 0 0 0-2.22z" fill="#333"/>
    <path d="M56.773 77.63h-34.59a2.48 2.48 0 0 0-2.48 2.48v8.98a2.48 2.48 0 0 0 2.48 2.48h34.59a2.48 2.48 0 0 0 2.48-2.48v-8.98a2.48 2.48 0 0 0-2.48-2.48z" fill="#CCC"/>
    <path d="M56.774 90.45h-33.6c-1.05 0-2.19.06-2.34-1.35a39.813 39.813 0 0 1 0-4.37 41.704 41.704 0 0 1 0-4.61c.14-1.35 1.22-1.36 2.25-1.36h27.91c1.925-.1 3.854-.1 5.78 0 1.87.2 1.36 2.81 1.36 4.14v5.73c0 .89-.28 1.75-1.36 1.82-1.43.1-1.45 2.35 0 2.25a3.66 3.66 0 0 0 3.42-2.49 6.621 6.621 0 0 0 .19-2.08v-6.52c0-2.14-.28-4.43-2.81-5a10.766 10.766 0 0 0-2.34-.1h-24.92c-2.67 0-5.35-.08-8 0a3.7 3.7 0 0 0-3.71 3.74c-.06 1.94 0 3.89 0 5.83 0 1.72-.35 3.92.84 5.33a4.261 4.261 0 0 0 3.57 1.29h9.9c7.8 0 15.6.11 23.4 0h.48a1.13 1.13 0 0 0-.02-2.25z" fill="#333"/>
    <path d="M55.553 97.5h-32.15a3.7 3.7 0 0 0-3.7 3.7v23.62a3.7 3.7 0 0 0 3.7 3.7h32.15a3.7 3.7 0 0 0 3.7-3.7V101.2a3.7 3.7 0 0 0-3.7-3.7z" fill="#DF357F"/>
    <path d="M55.553 127.4h-31.37c-1.73 0-3.25-.639-3.35-2.659-.21-4.26 0-8.581 0-12.851v-7.699c0-1.21-.29-3 .27-4.13.8-1.59 2.47-1.41 4-1.41h28.85c1.48 0 3.15-.18 3.95 1.41.56 1.14.28 2.92.28 4.13v7.72c0 4.27.21 8.59 0 12.85a2.638 2.638 0 0 1-2.58 2.66c-1.44.06-1.45 2.31 0 2.25 3.08-.14 4.83-2.51 4.83-5.42v-22.2c0-2.55-1.1-5-3.86-5.55a18.853 18.853 0 0 0-3.68-.1h-16.52c-4.26 0-8.51-.06-12.77 0a4.918 4.918 0 0 0-5 4.88c-.06 1.63 0 3.28 0 4.92v16.56c0 2-.13 3.95 1.41 5.5 1.38 1.38 3.1 1.41 4.89 1.41h30.67a1.136 1.136 0 0 0-.02-2.271z" fill="#333"/>
    <path d="M19.703 113.01h39.55" stroke="#333" stroke-width=".75" stroke-miterlimit="10"/>
    <path d="M19.713 106.51h39.55a1.134 1.134 0 0 0 1.024-1.125 1.13 1.13 0 0 0-1.024-1.125h-39.55a1.128 1.128 0 0 0-.73 1.885c.19.208.45.338.73.365zM19.713 114.189h39.55a1.128 1.128 0 0 0 .73-1.885 1.134 1.134 0 0 0-.73-.365h-39.55a1.134 1.134 0 0 0-1.024 1.125 1.13 1.13 0 0 0 1.024 1.125zM19.713 121.77h39.55a1.134 1.134 0 0 0 1.024-1.125 1.13 1.13 0 0 0-1.024-1.125h-39.55a1.128 1.128 0 0 0-.73 1.885c.19.208.45.338.73.365z" fill="#333"/>
    <path d="M31.713 97.51v31a1.133 1.133 0 0 0 1.125 1.024 1.131 1.131 0 0 0 1.125-1.024v-31a1.13 1.13 0 0 0-2.25 0zM44.713 97.51v31a1.133 1.133 0 0 0 1.125 1.024 1.131 1.131 0 0 0 1.125-1.024v-31a1.13 1.13 0 0 0-2.25 0zM27.669 87.95a.289.289 0 0 1-.196-.076.289.289 0 0 1-.076-.195v-5.165l-1.486 1.14a.246.246 0 0 1-.206.054.304.304 0 0 1-.174-.12l-.64-.835a.308.308 0 0 1-.054-.206.262.262 0 0 1 .13-.185l2.495-1.93a.342.342 0 0 1 .12-.055.443.443 0 0 1 .14-.022h1.357c.08 0 .145.025.195.076.051.05.076.116.076.195v7.053a.288.288 0 0 1-.076.195.264.264 0 0 1-.195.076h-1.41zm3.114 0a.303.303 0 0 1-.206-.076.289.289 0 0 1-.076-.195v-.77c0-.051.015-.127.043-.228a.585.585 0 0 1 .228-.304l1.129-1.107a49.766 49.766 0 0 0 1.421-1.117c.376-.311.655-.586.836-.825.18-.239.27-.463.27-.673a.928.928 0 0 0-.194-.607c-.123-.167-.34-.25-.651-.25a.903.903 0 0 0-.521.141.939.939 0 0 0-.326.348 1.708 1.708 0 0 0-.152.444.304.304 0 0 1-.152.196.439.439 0 0 1-.217.054H30.86a.22.22 0 0 1-.228-.228 2.47 2.47 0 0 1 .217-.977c.145-.31.344-.582.597-.813.26-.232.568-.412.922-.543a3.4 3.4 0 0 1 1.216-.206c.614 0 1.135.101 1.562.304.434.195.763.47.987.825.224.347.337.755.337 1.226 0 .354-.08.687-.24.998a3.301 3.301 0 0 1-.66.879c-.283.275-.62.56-1.01.857l-.998 1.009h2.788c.08 0 .145.025.196.076.057.05.086.115.086.195v1.096a.27.27 0 0 1-.086.195.264.264 0 0 1-.196.076h-5.566zm9.856.109c-.557 0-1.038-.065-1.443-.196a3.107 3.107 0 0 1-.976-.52 2.308 2.308 0 0 1-.564-.684 1.705 1.705 0 0 1-.196-.705.22.22 0 0 1 .065-.163.26.26 0 0 1 .174-.065h1.421c.08 0 .145.018.196.054.05.03.097.08.14.152.058.138.142.25.25.336.116.087.253.149.412.185.16.029.333.043.521.043.37 0 .655-.083.857-.25.21-.173.315-.408.315-.704 0-.311-.098-.532-.293-.662-.195-.138-.474-.206-.835-.206h-1.205a.264.264 0 0 1-.195-.077.264.264 0 0 1-.076-.195v-.607a.462.462 0 0 1 .174-.37l1.78-1.507h-3.017a.289.289 0 0 1-.195-.076.264.264 0 0 1-.076-.196v-1.02c0-.08.025-.144.076-.195a.29.29 0 0 1 .195-.076h4.99c.08 0 .145.025.196.076.058.05.087.116.087.195v.923c0 .08-.018.152-.054.217a.58.58 0 0 1-.12.14l-1.649 1.53.076.022c.42.05.788.16 1.107.326.325.166.582.405.77.716.188.304.282.69.282 1.16 0 .493-.14.92-.423 1.281-.275.355-.651.63-1.128.825-.478.195-1.024.293-1.639.293zm7.847-.109a.289.289 0 0 1-.195-.076.289.289 0 0 1-.076-.195v-1.226H44.84a.289.289 0 0 1-.195-.076.264.264 0 0 1-.076-.195V85.15c0-.065.01-.123.032-.174.03-.058.058-.112.087-.163l3.158-4.274a.476.476 0 0 1 .401-.185h1.584c.072 0 .134.025.185.076.058.05.086.116.086.195v4.21h.955a.26.26 0 0 1 .206.087c.051.05.076.112.076.184v1.075c0 .08-.029.144-.087.195a.25.25 0 0 1-.184.076h-.966v1.226a.27.27 0 0 1-.086.195.25.25 0 0 1-.185.076h-1.345zm-2.05-3.038h1.822v-2.56l-1.823 2.56z" fill="#333"/>
</svg>
