<svg width="265" height="160" fill="none" xmlns="http://www.w3.org/2000/svg" viewBox="0 0 265 160">
    <path d="M132.5 152c34.518 0 62.5-27.982 62.5-62.5S167.018 27 132.5 27 70 54.982 70 89.5 97.982 152 132.5 152z" fill="#F6F2EF"/>
    <path d="M184.04 37.56a9.08 9.08 0 0 1-5 3.27c1.78-.08 3.77-.09 5.07 1.14a6.63 6.63 0 0 1 1.34 2.17c.68 1.56 1.31 3.15 1.9 4.75.148-1.507.371-3.005.67-4.49a5.928 5.928 0 0 1 .51-1.66c.94-1.73 3.19-2.15 5.15-2.39-1-.46-2.07-1-3.09-1.45-.667-.315-1.3-.697-1.89-1.14-2-1.65-2.66-4.46-3.14-7 0-.04-.22 4.69-1.52 6.8z" fill="#F0D227"/>
    <path d="M183.06 36.99a7.737 7.737 0 0 1-4.32 2.76 1.128 1.128 0 0 0-.788 1.232 1.128 1.128 0 0 0 1.088.978c1.64-.07 3.7-.2 4.72 1.35a27.984 27.984 0 0 1 2.5 5.88 1.132 1.132 0 0 0 1.922.424c.179-.2.281-.456.288-.724.11-1.06.25-2.11.44-3.16a6.41 6.41 0 0 1 .77-2.7c.86-1.17 2.67-1.39 4-1.55 1-.12 1.71-1.59.56-2.1-1.92-.86-4.47-1.68-5.75-3.46a13.671 13.671 0 0 1-1.85-5.5c-.24-1.3-2.15-.91-2.21.3a14 14 0 0 1-1.37 6.27 1.133 1.133 0 0 0 .424 1.514 1.13 1.13 0 0 0 1.526-.374c1.26-2.15 1.55-5 1.67-7.41l-2.21.3a14.946 14.946 0 0 0 2.24 6.25c1.54 2.08 4.11 3 6.4 4.05l.57-2.09c-2 .24-4.23.6-5.61 2.22a6.565 6.565 0 0 0-1.24 3.16 56.5 56.5 0 0 0-.61 4.28l2.21-.3a79.177 79.177 0 0 0-1.5-3.81 12.35 12.35 0 0 0-1.73-3.3c-1.53-1.77-4-1.87-6.16-1.77l.3 2.21a10.168 10.168 0 0 0 5.67-3.79c.79-1.22-1.15-2.34-1.95-1.14z" fill="#333"/>
    <path d="M132.37 139.051c27.117 0 49.1-21.983 49.1-49.1 0-27.118-21.983-49.1-49.1-49.1s-49.1 21.982-49.1 49.1c0 27.117 21.983 49.1 49.1 49.1z" fill="#DF357F"/>
    <path d="M180.35 89.95a47.903 47.903 0 0 1-46.057 47.793 47.898 47.898 0 0 1-49.596-44.11 47.9 47.9 0 1 1 95.653-3.683 1.127 1.127 0 0 0 1.125 1.024 1.129 1.129 0 0 0 1.125-1.024 50.208 50.208 0 0 0-48.254-50.148A50.21 50.21 0 1 0 181.98 97.84c.402-2.611.609-5.248.62-7.89a1.134 1.134 0 0 0-1.125-1.024 1.131 1.131 0 0 0-1.125 1.024z" fill="#333"/>
    <path d="M132.37 131.591c22.998 0 41.64-18.643 41.64-41.64 0-22.998-18.642-41.64-41.64-41.64-22.997 0-41.64 18.642-41.64 41.64 0 22.997 18.643 41.64 41.64 41.64z" fill="#fff"/>
    <path d="M172.93 89.95a40.402 40.402 0 0 1-38.936 40.269A40.4 40.4 0 1 1 172.93 89.95a1.134 1.134 0 0 0 1.125 1.024 1.13 1.13 0 0 0 1.125-1.024 42.736 42.736 0 0 0-41.097-42.675A42.74 42.74 0 1 0 174.66 96.63c.338-2.21.512-4.443.52-6.68a1.128 1.128 0 0 0-1.885-.73c-.208.19-.338.45-.365.73z" fill="#333"/>
    <path d="M132.37 131.591c22.998 0 41.64-18.643 41.64-41.64 0-22.998-18.642-41.64-41.64-41.64-22.997 0-41.64 18.642-41.64 41.64 0 22.997 18.643 41.64 41.64 41.64z" fill="#fff"/>
    <path d="M172.93 89.95a40.402 40.402 0 0 1-38.936 40.269A40.4 40.4 0 1 1 172.93 89.95a1.134 1.134 0 0 0 1.125 1.024 1.13 1.13 0 0 0 1.125-1.024 42.736 42.736 0 0 0-41.097-42.675A42.74 42.74 0 1 0 174.66 96.63c.338-2.21.512-4.443.52-6.68a1.128 1.128 0 0 0-1.885-.73c-.208.19-.338.45-.365.73z" fill="#333"/>
    <path d="M115.93 120.51a34.75 34.75 0 0 1-15.53-44.06" fill="#fff"/>
    <path d="M116.5 119.54a33.65 33.65 0 0 1-15-42.8c.55-1.33-1.62-1.91-2.17-.59a35.84 35.84 0 0 0 16 45.33c1.27.7 2.41-1.25 1.14-1.94h.03z" fill="#333"/>
    <path d="M160.99 70.34a34.736 34.736 0 0 1 3.35 33.13" fill="#fff"/>
    <path d="M160.02 70.9a34.093 34.093 0 0 1 3.24 32.261c-.56 1.33 1.62 1.909 2.17.589a36.154 36.154 0 0 0-3.47-34c-.81-1.19-2.76-.07-1.94 1.14v.01z" fill="#333"/>
    <path d="M132.37 55.25a34.56 34.56 0 0 1 16.42 4.13l-16.42-4.13z" fill="#fff"/>
    <path d="M132.37 56.34a33.802 33.802 0 0 1 15.85 4c1.28.68 2.42-1.26 1.14-1.94a36.233 36.233 0 0 0-17-4.28 1.133 1.133 0 0 0-1.024 1.125 1.131 1.131 0 0 0 1.024 1.125l.01-.03z" fill="#333"/>
    <path d="M128.93 111.89a1.465 1.465 0 0 1-1.44-1.45v-3.69a19.806 19.806 0 0 1-7.12-2.31 11.694 11.694 0 0 1-4.26-4 9.32 9.32 0 0 1-1.47-4.82 1.2 1.2 0 0 1 1.18-1.18h10.17c.45-.026.901.06 1.31.25.353.192.688.416 1 .67.35.246.718.467 1.1.66.402.209.833.354 1.28.43.521.096 1.05.142 1.58.14a8.883 8.883 0 0 0 2.92-.4c.73-.27 1.1-.64 1.1-1.1a1.26 1.26 0 0 0-.62-1.07 6.315 6.315 0 0 0-2.11-.78 41.02 41.02 0 0 0-4.18-.67 26.744 26.744 0 0 1-7.33-2 11.288 11.288 0 0 1-4.8-3.83 10.236 10.236 0 0 1-1.68-6 10.51 10.51 0 0 1 3.24-7.79 16.088 16.088 0 0 1 8.7-4.15v-3.74a1.468 1.468 0 0 1 1.44-1.45h6.48a1.469 1.469 0 0 1 1.45 1.45v3.9a18.006 18.006 0 0 1 6.39 2.57 14.334 14.334 0 0 1 4 3.91 8.005 8.005 0 0 1 1.45 4.07 1.146 1.146 0 0 1-.35.83 1.088 1.088 0 0 1-.78.35h-10.65a2.758 2.758 0 0 1-1.21-.22 4 4 0 0 1-.94-.64 3.502 3.502 0 0 0-1-.61 4.113 4.113 0 0 0-1.84-.35 3.659 3.659 0 0 0-2 .4 1.195 1.195 0 0 0-.604.965 1.206 1.206 0 0 0 .474 1.035c.529.374 1.133.63 1.77.75 1.217.279 2.449.493 3.69.64 2.946.278 5.838.971 8.59 2.06 1.917.753 3.56 2.071 4.71 3.78a10.727 10.727 0 0 1 1.48 5.83 10.292 10.292 0 0 1-1.69 5.81 12.896 12.896 0 0 1-4.66 4.18 21.302 21.302 0 0 1-6.82 2.27v3.75a1.475 1.475 0 0 1-1.45 1.45l-6.5.1z" fill="#DF357F"/>
    <path opacity=".15" d="M34.55 90.95a47.77 47.77 0 0 1-15.2-2.1 29.46 29.46 0 0 1-10-5.35 21.999 21.999 0 0 1-5.5-6.8A16.17 16.17 0 0 1 2 70.15a2.22 2.22 0 0 1 2.2-2.2h20.1a3.66 3.66 0 0 1 2 .45c.48.346.932.73 1.35 1.15.442.367.91.701 1.4 1a5.847 5.847 0 0 0 2.1.75c1.123.189 2.261.272 3.4.25 2.33 0 4-.52 5-1.55a5.11 5.11 0 0 0 1.55-3.75 3.68 3.68 0 0 0-1.65-3.35 9.35 9.35 0 0 0-5-1h-12.5a2.73 2.73 0 0 1-2.7-2.7v-8.1c-.026-.894.199-1.778.65-2.55a4.07 4.07 0 0 1 1.35-1.45l13.9-7.6H8.85a2.57 2.57 0 0 1-1.9-.8 2.61 2.61 0 0 1-.8-1.9V22.7a2.73 2.73 0 0 1 2.7-2.7h51.2a2.73 2.73 0 0 1 2.7 2.7v12.64a4.86 4.86 0 0 1-.6 2.45 4.27 4.27 0 0 1-1.4 1.55l-11.7 7.8v.3a33.26 33.26 0 0 1 9.1 3.6 17.831 17.831 0 0 1 6.5 6.55 20.64 20.64 0 0 1 2.4 10.45 18.37 18.37 0 0 1-4.25 12.05 27.59 27.59 0 0 1-11.6 8 46.39 46.39 0 0 1-16.65 2.86z" fill="#DF357F"/>
</svg>
