<svg width="674" height="143" fill="none" xmlns="http://www.w3.org/2000/svg" viewBox="0 0 674 143">
    <path d="M505.331 105.99v-3.607h-3.633v-1.653h3.613v-3.617h1.656v3.617h3.622v1.653h-3.602v3.607h-1.656zM488.806 105.99v-3.607h-3.613v-1.653h3.613v-3.617h1.656v3.617h3.622v1.653h-3.622v3.607h-1.656zM472.281 105.99v-3.607h-3.613v-1.653h3.613v-3.617h1.656v3.617h3.622v1.653h-3.622v3.607h-1.656zM505.331 87.181v-3.556h-3.633V81.93h3.613v-3.626h1.656v3.626h3.622v1.694h-3.602v3.596l-1.656-.04zM488.806 87.181v-3.556h-3.613V81.93h3.613v-3.626h1.656v3.626h3.622v1.694h-3.622v3.596l-1.656-.04zM472.281 87.181v-3.556h-3.613V81.93h3.613v-3.626h1.656v3.626h3.622v1.694h-3.622v3.596l-1.656-.04zM505.331 69.886V66.29h-3.633v-1.654h3.613V61.01h1.656v3.626h3.622v1.654h-3.602v3.596h-1.656zM488.806 69.886V66.29h-3.613v-1.654h3.613V61.01h1.656v3.626h3.622v1.654h-3.622v3.596h-1.656zM472.281 69.886V66.29h-3.613v-1.654h3.613V61.01h1.656v3.626h3.622v1.654h-3.622v3.596h-1.656zM457.652 105.99v-3.607h-3.612v-1.653h3.612v-3.617h1.656v3.617h3.623v1.653h-3.623v3.607h-1.656zM441.127 105.99v-3.607h-3.612v-1.653h3.612v-3.617h1.696v3.617h3.623v1.653h-3.623v3.607h-1.696zM424.602 105.99v-3.607H421v-1.653h3.602v-3.617h1.657v3.617h3.592v1.653h-3.592v3.607h-1.657zM457.652 87.181v-3.556h-3.612V81.93h3.612v-3.626h1.656v3.626h3.623v1.694h-3.623v3.596l-1.656-.04zM441.127 87.181v-3.556h-3.612V81.93h3.612v-3.626h1.696v3.626h3.623v1.694h-3.623v3.596l-1.696-.04zM424.602 87.181v-3.556H421V81.93h3.602v-3.626h1.657v3.626h3.592v1.694h-3.592v3.596l-1.657-.04zM457.652 69.886V66.29h-3.612v-1.654h3.612V61.01h1.656v3.626h3.623v1.654h-3.623v3.596h-1.656zM441.127 69.886V66.29h-3.612v-1.654h3.612V61.01h1.696v3.626h3.623v1.654h-3.623v3.596h-1.696zM424.602 69.886V66.29H421v-1.654h3.602V61.01h1.657v3.626h3.592v1.654h-3.592v3.596h-1.657zM544.227 69.906a4.457 4.457 0 0 0 4.461-4.453A4.457 4.457 0 0 0 544.227 61a4.457 4.457 0 0 0-4.46 4.453 4.457 4.457 0 0 0 4.46 4.453zM544.227 87.958a4.457 4.457 0 0 0 4.461-4.453 4.457 4.457 0 0 0-4.461-4.453 4.457 4.457 0 0 0-4.46 4.453 4.457 4.457 0 0 0 4.46 4.453zM544.227 106a4.457 4.457 0 0 0 4.461-4.453 4.457 4.457 0 0 0-4.461-4.453 4.457 4.457 0 0 0-4.46 4.453 4.457 4.457 0 0 0 4.46 4.453zM562.658 69.906a4.457 4.457 0 0 0 4.46-4.453 4.457 4.457 0 0 0-4.46-4.453 4.457 4.457 0 0 0-4.461 4.453 4.457 4.457 0 0 0 4.461 4.453zM562.658 87.958a4.457 4.457 0 0 0 4.46-4.453 4.457 4.457 0 0 0-4.46-4.453 4.457 4.457 0 0 0-4.461 4.453 4.457 4.457 0 0 0 4.461 4.453zM562.658 106a4.457 4.457 0 0 0 4.46-4.453 4.457 4.457 0 0 0-4.46-4.453 4.457 4.457 0 0 0-4.461 4.453 4.457 4.457 0 0 0 4.461 4.453zM581.099 69.906a4.457 4.457 0 0 0 4.46-4.453 4.457 4.457 0 0 0-4.46-4.453 4.457 4.457 0 0 0-4.461 4.453 4.457 4.457 0 0 0 4.461 4.453zM581.099 87.958a4.457 4.457 0 0 0 4.46-4.453 4.457 4.457 0 0 0-4.46-4.453 4.457 4.457 0 0 0-4.461 4.453 4.457 4.457 0 0 0 4.461 4.453zM581.099 106a4.457 4.457 0 0 0 4.46-4.453 4.457 4.457 0 0 0-4.46-4.453 4.457 4.457 0 0 0-4.461 4.453 4.457 4.457 0 0 0 4.461 4.453zM599.54 69.906a4.457 4.457 0 0 0 4.46-4.453A4.457 4.457 0 0 0 599.54 61a4.457 4.457 0 0 0-4.461 4.453 4.457 4.457 0 0 0 4.461 4.453zM599.54 87.958a4.457 4.457 0 0 0 4.46-4.453 4.457 4.457 0 0 0-4.46-4.453 4.457 4.457 0 0 0-4.461 4.453 4.457 4.457 0 0 0 4.461 4.453zM599.54 106a4.457 4.457 0 0 0 4.46-4.453 4.457 4.457 0 0 0-4.46-4.453 4.457 4.457 0 0 0-4.461 4.453A4.457 4.457 0 0 0 599.54 106zM525.787 69.906a4.457 4.457 0 0 0 4.46-4.453 4.457 4.457 0 0 0-4.46-4.453 4.457 4.457 0 0 0-4.461 4.453 4.457 4.457 0 0 0 4.461 4.453zM525.787 87.958a4.457 4.457 0 0 0 4.46-4.453 4.457 4.457 0 0 0-4.46-4.453 4.457 4.457 0 0 0-4.461 4.453 4.457 4.457 0 0 0 4.461 4.453zM525.787 106a4.457 4.457 0 0 0 4.46-4.453 4.457 4.457 0 0 0-4.46-4.453 4.457 4.457 0 0 0-4.461 4.453 4.457 4.457 0 0 0 4.461 4.453zM312.331 105.99v-3.607h-3.633v-1.653h3.613v-3.617h1.656v3.617h3.622v1.653h-3.602v3.607h-1.656zM295.806 105.99v-3.607h-3.613v-1.653h3.613v-3.617h1.656v3.617h3.622v1.653h-3.622v3.607h-1.656zM279.281 105.99v-3.607h-3.613v-1.653h3.613v-3.617h1.656v3.617h3.622v1.653h-3.622v3.607h-1.656zM312.331 87.181v-3.556h-3.633V81.93h3.613v-3.626h1.656v3.626h3.622v1.694h-3.602v3.596l-1.656-.04zM295.806 87.181v-3.556h-3.613V81.93h3.613v-3.626h1.656v3.626h3.622v1.694h-3.622v3.596l-1.656-.04zM279.281 87.181v-3.556h-3.613V81.93h3.613v-3.626h1.656v3.626h3.622v1.694h-3.622v3.596l-1.656-.04zM312.331 69.886V66.29h-3.633v-1.654h3.613V61.01h1.656v3.626h3.622v1.654h-3.602v3.596h-1.656zM295.806 69.886V66.29h-3.613v-1.654h3.613V61.01h1.656v3.626h3.622v1.654h-3.622v3.596h-1.656zM279.281 69.886V66.29h-3.613v-1.654h3.613V61.01h1.656v3.626h3.622v1.654h-3.622v3.596h-1.656zM264.652 105.99v-3.607h-3.612v-1.653h3.612v-3.617h1.656v3.617h3.623v1.653h-3.623v3.607h-1.656zM248.127 105.99v-3.607h-3.612v-1.653h3.612v-3.617h1.696v3.617h3.623v1.653h-3.623v3.607h-1.696zM231.602 105.99v-3.607H228v-1.653h3.602v-3.617h1.657v3.617h3.592v1.653h-3.592v3.607h-1.657zM264.652 87.181v-3.556h-3.612V81.93h3.612v-3.626h1.656v3.626h3.623v1.694h-3.623v3.596l-1.656-.04zM248.127 87.181v-3.556h-3.612V81.93h3.612v-3.626h1.696v3.626h3.623v1.694h-3.623v3.596l-1.696-.04zM231.602 87.181v-3.556H228V81.93h3.602v-3.626h1.657v3.626h3.592v1.694h-3.592v3.596l-1.657-.04zM264.652 69.886V66.29h-3.612v-1.654h3.612V61.01h1.656v3.626h3.623v1.654h-3.623v3.596h-1.656zM248.127 69.886V66.29h-3.612v-1.654h3.612V61.01h1.696v3.626h3.623v1.654h-3.623v3.596h-1.696zM231.602 69.886V66.29H228v-1.654h3.602V61.01h1.657v3.626h3.592v1.654h-3.592v3.596h-1.657zM351.227 69.906a4.457 4.457 0 0 0 4.461-4.453A4.457 4.457 0 0 0 351.227 61a4.457 4.457 0 0 0-4.46 4.453 4.457 4.457 0 0 0 4.46 4.453zM351.227 87.958a4.457 4.457 0 0 0 4.461-4.453 4.457 4.457 0 0 0-4.461-4.453 4.457 4.457 0 0 0-4.46 4.453 4.457 4.457 0 0 0 4.46 4.453zM351.227 106a4.457 4.457 0 0 0 4.461-4.453 4.457 4.457 0 0 0-4.461-4.453 4.457 4.457 0 0 0-4.46 4.453 4.457 4.457 0 0 0 4.46 4.453zM369.658 69.906a4.457 4.457 0 0 0 4.46-4.453 4.457 4.457 0 0 0-4.46-4.453 4.457 4.457 0 0 0-4.461 4.453 4.457 4.457 0 0 0 4.461 4.453zM369.658 87.958a4.457 4.457 0 0 0 4.46-4.453 4.457 4.457 0 0 0-4.46-4.453 4.457 4.457 0 0 0-4.461 4.453 4.457 4.457 0 0 0 4.461 4.453zM369.658 106a4.457 4.457 0 0 0 4.46-4.453 4.457 4.457 0 0 0-4.46-4.453 4.457 4.457 0 0 0-4.461 4.453 4.457 4.457 0 0 0 4.461 4.453zM388.099 69.906a4.457 4.457 0 0 0 4.46-4.453 4.457 4.457 0 0 0-4.46-4.453 4.457 4.457 0 0 0-4.461 4.453 4.457 4.457 0 0 0 4.461 4.453zM388.099 87.958a4.457 4.457 0 0 0 4.46-4.453 4.457 4.457 0 0 0-4.46-4.453 4.457 4.457 0 0 0-4.461 4.453 4.457 4.457 0 0 0 4.461 4.453zM388.099 106a4.457 4.457 0 0 0 4.46-4.453 4.457 4.457 0 0 0-4.46-4.453 4.457 4.457 0 0 0-4.461 4.453 4.457 4.457 0 0 0 4.461 4.453zM406.54 69.906a4.457 4.457 0 0 0 4.46-4.453A4.457 4.457 0 0 0 406.54 61a4.457 4.457 0 0 0-4.461 4.453 4.457 4.457 0 0 0 4.461 4.453zM406.54 87.958a4.457 4.457 0 0 0 4.46-4.453 4.457 4.457 0 0 0-4.46-4.453 4.457 4.457 0 0 0-4.461 4.453 4.457 4.457 0 0 0 4.461 4.453zM406.54 106a4.457 4.457 0 0 0 4.46-4.453 4.457 4.457 0 0 0-4.46-4.453 4.457 4.457 0 0 0-4.461 4.453A4.457 4.457 0 0 0 406.54 106zM332.787 69.906a4.457 4.457 0 0 0 4.46-4.453 4.457 4.457 0 0 0-4.46-4.453 4.457 4.457 0 0 0-4.461 4.453 4.457 4.457 0 0 0 4.461 4.453zM332.787 87.958a4.457 4.457 0 0 0 4.46-4.453 4.457 4.457 0 0 0-4.46-4.453 4.457 4.457 0 0 0-4.461 4.453 4.457 4.457 0 0 0 4.461 4.453zM332.787 106a4.457 4.457 0 0 0 4.46-4.453 4.457 4.457 0 0 0-4.46-4.453 4.457 4.457 0 0 0-4.461 4.453 4.457 4.457 0 0 0 4.461 4.453zM119.331 105.99v-3.607h-3.633v-1.653h3.613v-3.617h1.656v3.617h3.622v1.653h-3.602v3.607h-1.656zM102.806 105.99v-3.607h-3.613v-1.653h3.613v-3.617h1.656v3.617h3.622v1.653h-3.622v3.607h-1.656zM86.28 105.99v-3.607h-3.612v-1.653h3.613v-3.617h1.656v3.617h3.623v1.653h-3.623v3.607h-1.656zM119.331 87.181v-3.556h-3.633V81.93h3.613v-3.626h1.656v3.626h3.622v1.694h-3.602v3.596l-1.656-.04zM102.806 87.181v-3.556h-3.613V81.93h3.613v-3.626h1.656v3.626h3.622v1.694h-3.622v3.596l-1.656-.04zM86.28 87.181v-3.556h-3.612V81.93h3.613v-3.626h1.656v3.626h3.623v1.694h-3.623v3.596l-1.656-.04zM119.331 69.886V66.29h-3.633v-1.654h3.613V61.01h1.656v3.626h3.622v1.654h-3.602v3.596h-1.656zM102.806 69.886V66.29h-3.613v-1.654h3.613V61.01h1.656v3.626h3.622v1.654h-3.622v3.596h-1.656zM86.28 69.886V66.29h-3.612v-1.654h3.613V61.01h1.656v3.626h3.623v1.654h-3.623v3.596h-1.656zM71.652 105.99v-3.607H68.04v-1.653h3.612v-3.617h1.656v3.617h3.623v1.653h-3.623v3.607h-1.656zM55.127 105.99v-3.607h-3.612v-1.653h3.612v-3.617h1.696v3.617h3.623v1.653h-3.623v3.607h-1.696zM38.602 105.99v-3.607H35v-1.653h3.602v-3.617h1.657v3.617h3.592v1.653H40.26v3.607h-1.657zM71.652 87.181v-3.556H68.04V81.93h3.612v-3.626h1.656v3.626h3.623v1.694h-3.623v3.596l-1.656-.04zM55.127 87.181v-3.556h-3.612V81.93h3.612v-3.626h1.696v3.626h3.623v1.694h-3.623v3.596l-1.696-.04zM38.602 87.181v-3.556H35V81.93h3.602v-3.626h1.657v3.626h3.592v1.694H40.26v3.596l-1.657-.04zM71.652 69.886V66.29H68.04v-1.654h3.612V61.01h1.656v3.626h3.623v1.654h-3.623v3.596h-1.656zM55.127 69.886V66.29h-3.612v-1.654h3.612V61.01h1.696v3.626h3.623v1.654h-3.623v3.596h-1.696zM38.602 69.886V66.29H35v-1.654h3.602V61.01h1.657v3.626h3.592v1.654H40.26v3.596h-1.657zM158.227 69.906a4.457 4.457 0 0 0 4.461-4.453A4.457 4.457 0 0 0 158.227 61a4.457 4.457 0 0 0-4.46 4.453 4.457 4.457 0 0 0 4.46 4.453zM158.227 87.958a4.457 4.457 0 0 0 4.461-4.453 4.457 4.457 0 0 0-4.461-4.453 4.457 4.457 0 0 0-4.46 4.453 4.457 4.457 0 0 0 4.46 4.453zM158.227 106a4.457 4.457 0 0 0 4.461-4.453 4.457 4.457 0 0 0-4.461-4.453 4.457 4.457 0 0 0-4.46 4.453 4.457 4.457 0 0 0 4.46 4.453zM176.658 69.906a4.457 4.457 0 0 0 4.46-4.453 4.457 4.457 0 0 0-4.46-4.453 4.457 4.457 0 0 0-4.461 4.453 4.457 4.457 0 0 0 4.461 4.453zM176.658 87.958a4.457 4.457 0 0 0 4.46-4.453 4.457 4.457 0 0 0-4.46-4.453 4.457 4.457 0 0 0-4.461 4.453 4.457 4.457 0 0 0 4.461 4.453zM176.658 106a4.457 4.457 0 0 0 4.46-4.453 4.457 4.457 0 0 0-4.46-4.453 4.457 4.457 0 0 0-4.461 4.453 4.457 4.457 0 0 0 4.461 4.453zM195.099 69.906a4.457 4.457 0 0 0 4.46-4.453 4.457 4.457 0 0 0-4.46-4.453 4.457 4.457 0 0 0-4.461 4.453 4.457 4.457 0 0 0 4.461 4.453zM195.099 87.958a4.457 4.457 0 0 0 4.46-4.453 4.457 4.457 0 0 0-4.46-4.453 4.457 4.457 0 0 0-4.461 4.453 4.457 4.457 0 0 0 4.461 4.453zM195.099 106a4.457 4.457 0 0 0 4.46-4.453 4.457 4.457 0 0 0-4.46-4.453 4.457 4.457 0 0 0-4.461 4.453 4.457 4.457 0 0 0 4.461 4.453zM213.54 69.906a4.457 4.457 0 0 0 4.46-4.453A4.457 4.457 0 0 0 213.54 61a4.457 4.457 0 0 0-4.461 4.453 4.457 4.457 0 0 0 4.461 4.453zM213.54 87.958a4.457 4.457 0 0 0 4.46-4.453 4.457 4.457 0 0 0-4.46-4.453 4.457 4.457 0 0 0-4.461 4.453 4.457 4.457 0 0 0 4.461 4.453zM213.54 106a4.457 4.457 0 0 0 4.46-4.453 4.457 4.457 0 0 0-4.46-4.453 4.457 4.457 0 0 0-4.461 4.453A4.457 4.457 0 0 0 213.54 106zM139.787 69.906a4.457 4.457 0 0 0 4.46-4.453 4.457 4.457 0 0 0-4.46-4.453 4.457 4.457 0 0 0-4.461 4.453 4.457 4.457 0 0 0 4.461 4.453zM139.787 87.958a4.457 4.457 0 0 0 4.46-4.453 4.457 4.457 0 0 0-4.46-4.453 4.457 4.457 0 0 0-4.461 4.453 4.457 4.457 0 0 0 4.461 4.453zM139.787 106a4.457 4.457 0 0 0 4.46-4.453 4.457 4.457 0 0 0-4.46-4.453 4.457 4.457 0 0 0-4.461 4.453 4.457 4.457 0 0 0 4.461 4.453zM525.458 36h52.945a3.93 3.93 0 0 1 3.669 3.923 3.934 3.934 0 0 1-3.669 3.924h-3.73c-2.283.279-4.035 1.91-4.035 3.889 0 2.162 2.118 3.923 4.715 3.923h11.138a3.93 3.93 0 0 1 4.192 3.924 3.936 3.936 0 0 1-1.245 2.871 3.927 3.927 0 0 1-2.947 1.052h-46.775a3.93 3.93 0 0 1-4.192-3.923 3.936 3.936 0 0 1 1.245-2.872 3.927 3.927 0 0 1 2.947-1.052h.802c2.614 0 4.715-1.744 4.715-3.923 0-1.98-1.743-3.61-4.027-3.89h-15.748a3.93 3.93 0 0 1-3.669-3.922A3.934 3.934 0 0 1 525.458 36z" fill="#fff"/>
    <path d="M525.458 36.985H578.386c2.928.113 4.105 4.08 1.412 5.537-1.403.758-3.486.287-4.994.357a5.324 5.324 0 0 0-5.107 4.307c-.358 2.782 2.004 4.97 4.593 5.37 1.236.128 2.48.16 3.721.097h5.805c1.133 0 2.614-.218 3.686.183 2.963 1.09 2.231 5.502-.871 5.702H540.03a3.086 3.086 0 0 1-3.077-1.927 2.955 2.955 0 0 1 1.238-3.54c.967-.584 2.03-.357 3.102-.48 2.545-.305 4.994-2.249 4.916-4.995-.07-2.616-2.545-4.578-5.012-4.726-2.815-.174-5.699 0-8.514 0h-5.343a7.424 7.424 0 0 1-3.164-.296c-2.806-1.36-1.743-5.493 1.282-5.598 1.263-.052 1.263-2.014 0-1.961a4.905 4.905 0 0 0-4.907 4.908 4.91 4.91 0 0 0 4.907 4.909c3.076.087 6.17 0 9.246 0h5.23c1.499 0 2.998.157 3.913 1.57a2.618 2.618 0 0 1-.941 3.592c-1.037.697-2.153.636-3.338.688a4.908 4.908 0 0 0-4.829 4.988 4.91 4.91 0 0 0 4.986 4.83h42.844c1.403 0 2.824.087 4.218 0a4.91 4.91 0 0 0-.339-9.809c-3.304-.087-6.615 0-9.919 0-1.743 0-3.677-.07-4.61-1.805a2.621 2.621 0 0 1 1.325-3.566 5.008 5.008 0 0 1 2.614-.48c2.04 0 4.123.21 5.77-1.255.49-.45.885-.993 1.162-1.598a4.984 4.984 0 0 0 .108-3.873 4.944 4.944 0 0 0-1.07-1.66c-1.594-1.588-3.616-1.43-5.638-1.43h-50.776a.983.983 0 0 0-.873 1 .985.985 0 0 0 .917.96z" fill="#333"/>
    <path d="M512.898 43.856a3.932 3.932 0 1 0-.001-7.864 3.932 3.932 0 0 0 .001 7.864z" fill="#fff"/>
    <path d="M517.805 39.93a4.99 4.99 0 0 0-3.242-4.62 4.906 4.906 0 0 0-6.556 4.238 4.911 4.911 0 0 0 3.055 4.93 4.903 4.903 0 0 0 5.736-1.573 4.91 4.91 0 0 0 1.007-2.974.986.986 0 0 0-1.643-.636.987.987 0 0 0-.318.636 2.976 2.976 0 0 1-1.9 2.755c-.164.06-.333.107-.505.14 0 0-.253.043-.105 0h-.27a2.47 2.47 0 0 1-.968-.105 2.38 2.38 0 0 1-.801-.366 2.5 2.5 0 0 1-.724-.654v-.044a2.539 2.539 0 0 1-.165-.253l-.105-.183s-.139-.296-.07-.139a3.625 3.625 0 0 1-.165-.497 1.82 1.82 0 0 1-.07-.427 2.718 2.718 0 0 1 .052-.872 2.31 2.31 0 0 1 .358-.872 2.944 2.944 0 0 1 4.873-.27c.39.515.601 1.142.6 1.787a.987.987 0 0 0 1.582.56.982.982 0 0 0 .344-.56z" fill="#333"/>
    <path d="M614.772 10.984h-65.078v83.09h65.078v-83.09z" fill="#fff"/>
    <path d="M614.772 93.1h-65.078l.985.976V14.368a18.201 18.201 0 0 0 0-3.234.915.915 0 0 1 0-.148l-.985.976h65.078l-.977-.976v79.707c0 1.073-.078 2.171 0 3.235v.148a.987.987 0 0 0 1.644.636.986.986 0 0 0 .317-.636V14.368c0-1.072.07-2.17 0-3.234a.915.915 0 0 1 0-.148 1 1 0 0 0-.984-.986h-65.078a.992.992 0 0 0-.976.986v79.707c0 1.073-.078 2.171 0 3.235v.148a.99.99 0 0 0 .976.985h65.078a.983.983 0 0 0 .892-.98.985.985 0 0 0-.892-.982z" fill="#333"/>
    <path d="M565.992 58.65a1.041 1.041 0 0 1-.85-.434 1.047 1.047 0 0 1-.144-.944l10.546-30.184c.126-.398.355-.755.662-1.038a1.977 1.977 0 0 1 1.464-.523h10.232a1.98 1.98 0 0 1 1.464.523c.308.283.536.64.663 1.038l10.545 30.184c.029.108.044.22.044.332a.974.974 0 0 1-.305.732 1.001 1.001 0 0 1-.732.314h-8.716a1.742 1.742 0 0 1-1.298-.41 2.202 2.202 0 0 1-.549-.776l-1.133-3.12h-10.162l-1.142 3.12a2.45 2.45 0 0 1-.514.776 1.742 1.742 0 0 1-1.325.41h-8.75zm14.136-13.532h5.342l-2.693-8.806-2.649 8.806z" fill="#DF357F"/>
    <path d="M603.563 66.411h-42.661v5.99h42.661v-5.99zM603.563 76.15h-42.661v5.99h42.661v-5.99z" fill="#E5DCD8"/>
    <path d="M650.016 54.928h-57.12v72.924h57.12V54.928z" fill="#fff"/>
    <path d="M650.016 126.876h-57.12l.985.985V54.928l-.985.985h57.12l-.984-.985v72.933a.986.986 0 0 0 1.643.636.987.987 0 0 0 .318-.636V54.928a.997.997 0 0 0-.977-.977h-57.12a.986.986 0 0 0-.976.977v72.933a.987.987 0 0 0 .976.976h57.12a.984.984 0 0 0 0-1.961z" fill="#333"/>
    <path d="M609.63 96.76a1.104 1.104 0 0 1-.793-.33 1.072 1.072 0 0 1-.332-.785V68.817a1.134 1.134 0 0 1 1.125-1.125h13.779a18.506 18.506 0 0 1 6.519.976 7.478 7.478 0 0 1 3.756 2.913 8.887 8.887 0 0 1 1.22 4.83 4.997 4.997 0 0 1-.558 2.389 6.496 6.496 0 0 1-1.333 1.743 6.167 6.167 0 0 1-1.429 1.038 6.612 6.612 0 0 1 2.762 2.302 6.243 6.243 0 0 1 1.186 3.714 8.928 8.928 0 0 1-1.377 5.135 8.125 8.125 0 0 1-3.957 3.009 17.94 17.94 0 0 1-6.371.994l-14.197.026zm9.255-18.143h3.487a1.439 1.439 0 0 0 1.307-.602c.252-.374.388-.814.392-1.264a2.406 2.406 0 0 0-.392-1.29 1.41 1.41 0 0 0-1.307-.62h-3.487v3.776zm0 11.003h3.879a1.609 1.609 0 0 0 1.473-.689c.271-.396.422-.862.435-1.343 0-.505-.169-.996-.479-1.395a1.67 1.67 0 0 0-1.429-.645h-3.861l-.018 4.072z" fill="#DF357F"/>
    <path d="M640.177 103.579h-37.441v5.258h37.441v-5.258zM640.177 112.124h-37.441v5.257h37.441v-5.257z" fill="#E5DCD8"/>
    <path d="M573.766 123.431a.983.983 0 0 0 .892-.981.982.982 0 0 0-.892-.98.983.983 0 0 0-.892.98.985.985 0 0 0 .892.981z" fill="#333"/>
    <path d="M585.846 110.738a6.617 6.617 0 0 0-.82-5.702 4.484 4.484 0 0 1-1.106-2.119c-.053-.871.557-1.595.871-2.389 1.133-2.668-.871-5.693-3.381-7.228-.462-.287-.977-.601-1.125-1.133a2.862 2.862 0 0 1 0-.942 5.844 5.844 0 0 0-1.743-4.499c-1.142-1.212-6.17-1.212-7.321 0a5.835 5.835 0 0 0-1.743 4.5c.057.31.057.63 0 .941-.139.532-.662.872-1.124 1.133-2.458 1.535-4.515 4.56-3.373 7.228.331.794.941 1.526.872 2.389a4.519 4.519 0 0 1-1.116 2.119 6.58 6.58 0 0 0-.811 5.702c.375 1.16 1.09 2.276.977 3.488-.157 1.543-1.639 2.912-1.194 4.403.444 1.491 21.884 1.569 22.354 0 .471-1.57-1.045-2.86-1.194-4.403-.122-1.212.593-2.328.977-3.488z" fill="#fff"/>
    <path d="M586.786 110.999a7.722 7.722 0 0 0-1.115-6.74c-.357-.514-.872-1.037-.732-1.744a7.826 7.826 0 0 1 .723-1.525 5.23 5.23 0 0 0 .366-3.026 8.438 8.438 0 0 0-3.556-5.179c-.331-.244-1.072-.55-1.22-.96a11.22 11.22 0 0 1 .044-1.7 6.913 6.913 0 0 0-1.325-3.243 5.03 5.03 0 0 0-4.07-2.031 8.418 8.418 0 0 0-4.811.715c-1.656.977-2.684 3.418-2.614 5.231 0 .689.209.994-.366 1.439-.393.305-.872.55-1.238.872a9.354 9.354 0 0 0-2.31 2.685 5.84 5.84 0 0 0-.122 5.754c.314.628.584 1.081.297 1.744-.299.504-.631.987-.994 1.447a7.62 7.62 0 0 0-.462 6.853c.532 1.352.872 2.302.27 3.68-.54 1.177-1.586 3.269-.183 4.255a4.667 4.667 0 0 0 1.953.61c1.089.183 2.196.279 3.303.358 2.902.2 5.822.226 8.715.165 2.699.074 5.398-.16 8.044-.698.872-.226 1.604-.592 1.743-1.595.166-1.195-.444-2.189-.871-3.235-.671-1.56.078-2.746.601-4.228.427-1.195-1.473-1.744-1.891-.523a14.505 14.505 0 0 0-.994 3.025 5.394 5.394 0 0 0 .663 2.86c.241.426.428.879.558 1.351 0 .07.078.689 0 .654a.817.817 0 0 1 .174-.314c.331-.183-.122 0 0 0s-.262.088-.349.105c-1.82.398-3.679.597-5.543.593-2.614.122-5.29.131-7.931.044a36.668 36.668 0 0 1-6.179-.515 8.441 8.441 0 0 1-.871-.227h-.07c.009 0 0 0 .078.061.314.279 0 .384.122 0a19.54 19.54 0 0 1 1.011-2.615 4.456 4.456 0 0 0 0-3.026 15.11 15.11 0 0 1-.985-2.999 5.726 5.726 0 0 1 .785-3.54 7.837 7.837 0 0 0 1.368-2.485 4.165 4.165 0 0 0-.68-2.729c-1.002-1.97-.104-3.94 1.386-5.397.68-.671 1.552-1.055 2.231-1.7a2.733 2.733 0 0 0 .697-2.468c-.087-1.743.872-3.696 2.615-4.08a7.842 7.842 0 0 1 4.358.2 3.832 3.832 0 0 1 1.691 2.224c.392 1.09-.07 2.25.348 3.287.419 1.038 1.412 1.351 2.179 1.953a7.16 7.16 0 0 1 2.214 2.843 3.635 3.635 0 0 1-.183 3.138 4.08 4.08 0 0 0-.654 2.895c.279 1.116 1.22 1.901 1.682 2.938a5.786 5.786 0 0 1 .192 4.028.99.99 0 0 0 .697 1.212.99.99 0 0 0 1.211-.697z" fill="#333"/>
    <path d="M566.837 116.065a8.222 8.222 0 0 0-1.019-7.106c-.567-.872-1.325-1.639-1.386-2.615-.061-.977.706-1.988 1.124-2.973 1.421-3.322-1.142-7.097-4.209-9.007-.576-.357-1.221-.75-1.404-1.404a3.423 3.423 0 0 1 0-1.186 7.301 7.301 0 0 0-2.231-5.606 19.162 19.162 0 0 0-4.558-3.592 19.039 19.039 0 0 0-4.567 3.592 7.297 7.297 0 0 0-2.222 5.606c.069.393.069.794 0 1.186-.174.654-.872 1.047-1.403 1.404-3.059 1.91-5.622 5.685-4.201 9.007.418.985 1.168 1.909 1.115 2.973-.052 1.063-.81 1.813-1.385 2.615a8.235 8.235 0 0 0-1.02 7.106c.479 1.439 1.368 2.834 1.22 4.36-.192 1.918-2.039 3.636-1.49 5.484.549 1.848 27.279 1.953 27.889 0 .61-1.953-1.299-3.566-1.49-5.484-.122-1.526.767-2.921 1.237-4.36z" fill="#DF357F"/>
    <path d="M567.778 116.326a9.352 9.352 0 0 0 0-5.405 9.035 9.035 0 0 0-1.159-2.459c-.427-.645-1.176-1.342-1.246-2.153-.07-.811.645-1.744.985-2.477.323-.72.504-1.496.532-2.284a7.8 7.8 0 0 0-1.273-4.298 11.998 11.998 0 0 0-3.286-3.41c-.322-.235-.732-.418-1.028-.68-.532-.462-.436-.776-.401-1.42a7.208 7.208 0 0 0-.288-2.616c-1.037-3.314-4.105-5.737-6.972-7.42a.994.994 0 0 0-.985 0c-3.39 1.98-7.338 5.231-7.303 9.53 0 .55.279 1.247-.105 1.744a5.412 5.412 0 0 1-1.168.802 12.121 12.121 0 0 0-2.274 2.005 8.954 8.954 0 0 0-2.397 5.231 6.105 6.105 0 0 0 .418 2.616c.358.872 1.255 1.9 1.037 2.903-.217 1.003-1.185 1.831-1.655 2.721a9.354 9.354 0 0 0-.924 6.103c.304 1.14.691 2.256 1.159 3.339a3.82 3.82 0 0 1-.131 3.043 13.815 13.815 0 0 0-1.081 2.615c-.435 2.119.672 2.869 2.493 3.235a43.66 43.66 0 0 0 6.101.619c5.198.301 10.412.231 15.6-.209 1.499-.139 3.669-.131 4.968-1.029 1.299-.898.758-2.615.296-3.731-.462-1.116-1.141-2.032-1.141-3.166 0-1.29.784-2.545 1.194-3.731.409-1.186-1.473-1.744-1.883-.523-.654 1.857-1.656 3.583-1.063 5.615.267.771.587 1.522.958 2.249.223.425.371.885.436 1.36a4.34 4.34 0 0 1-.061.602c-.052-.061.227-.323.157-.288.279-.131-.244.096-.104.044-.263.093-.53.168-.802.226-.705.15-1.418.26-2.136.332-4.7.451-9.427.577-14.145.375-2.126-.061-4.261-.166-6.379-.41a16.434 16.434 0 0 1-2.066-.358c-.139 0-.723-.217-.523-.148 0 0-.209-.105-.209-.113 0-.009.096.235.201.252v.088a1.396 1.396 0 0 1-.061-.602c.017-.205.061-.407.13-.601.137-.407.303-.803.497-1.186.426-.821.72-1.703.872-2.616.279-2.014-.976-3.662-1.404-5.545a7.43 7.43 0 0 1 1.308-5.946c1.194-1.692 1.743-3.069.732-5.022a4.981 4.981 0 0 1 .078-5.912 9.74 9.74 0 0 1 2.005-2.267 17.758 17.758 0 0 0 2.449-1.857c.749-.871.505-1.83.497-2.894a5.927 5.927 0 0 1 1.037-3.226 15.682 15.682 0 0 1 5.29-4.613h-.985c2.719 1.596 6.232 4.194 6.327 7.673a6.686 6.686 0 0 0 .096 2.389c.265.583.7 1.072 1.247 1.404a12.357 12.357 0 0 1 3.433 3.121 5.63 5.63 0 0 1 1.107 4.211c-.296 1.456-1.481 2.572-1.438 4.124.044 1.552 1.377 2.703 2.057 4.054a7.398 7.398 0 0 1 .384 5.441c-.262 1.238 1.638 1.753 1.995.549z" fill="#333"/>
    <path d="M559.404 113.249a20.3 20.3 0 0 0-6.72 4.734c-.645.715-.488 1.534-.488 2.441v11.683a.986.986 0 0 0 1.643.636.987.987 0 0 0 .318-.636v-13.209l-.288.689a19.564 19.564 0 0 1 6.528-4.647c1.15-.506.148-2.197-.993-1.691z" fill="#333"/>
    <path d="M554.165 118.759a47.981 47.981 0 0 1-.305-9.878.992.992 0 0 0-.252-.756.985.985 0 0 0-1.709.756 50.6 50.6 0 0 0 .375 10.401.97.97 0 0 0 .822.709.96.96 0 0 0 .381-.029 1.009 1.009 0 0 0 .688-1.203zM574.167 126.763c.288-8.719.296-17.438.584-26.157 0-1.264-1.917-1.264-1.961 0-.288 8.719-.296 17.438-.584 26.157 0 1.255 1.918 1.255 1.961 0z" fill="#333"/>
    <path d="M574.228 109.831a41.856 41.856 0 0 1 9.16-3.793.983.983 0 0 0 .179-1.758.988.988 0 0 0-.702-.134 44.34 44.34 0 0 0-9.587 3.993.988.988 0 0 0-.273 1.299.982.982 0 0 0 1.267.393h-.044z" fill="#333"/>
    <path d="m580.434 105.218-1.351-5.336a.989.989 0 0 0-1.203-.689 1 1 0 0 0-.689 1.203l1.351 5.345a.987.987 0 0 0 1.231.771.982.982 0 0 0 .721-.893.994.994 0 0 0-.06-.401z" fill="#333"/>
</svg>
