<svg width="440" height="120" fill="none" xmlns="http://www.w3.org/2000/svg" viewBox="0 0 440 120">
    <path d="M127.331 82.99v-3.607h-3.633V77.73h3.613v-3.617h1.656v3.617h3.622v1.653h-3.602v3.607h-1.656zM110.806 82.99v-3.607h-3.613V77.73h3.613v-3.617h1.656v3.617h3.622v1.653h-3.622v3.607h-1.656zM94.28 82.99v-3.607h-3.612V77.73h3.613v-3.617h1.656v3.617h3.623v1.653h-3.623v3.607h-1.656zM127.331 64.181v-3.556h-3.633V58.93h3.613v-3.626h1.656v3.626h3.622v1.694h-3.602v3.596l-1.656-.04zM110.806 64.181v-3.556h-3.613V58.93h3.613v-3.626h1.656v3.626h3.622v1.694h-3.622v3.596l-1.656-.04zM94.28 64.181v-3.556h-3.612V58.93h3.613v-3.626h1.656v3.626h3.623v1.694h-3.623v3.596l-1.656-.04zM127.331 46.886V43.29h-3.633v-1.654h3.613V38.01h1.656v3.626h3.622v1.654h-3.602v3.596h-1.656zM110.806 46.886V43.29h-3.613v-1.654h3.613V38.01h1.656v3.626h3.622v1.654h-3.622v3.596h-1.656zM94.28 46.886V43.29h-3.612v-1.654h3.613V38.01h1.656v3.626h3.623v1.654h-3.623v3.596h-1.656zM79.652 82.99v-3.607H76.04V77.73h3.612v-3.617h1.656v3.617h3.623v1.653h-3.623v3.607h-1.656zM63.127 82.99v-3.607h-3.612V77.73h3.612v-3.617h1.696v3.617h3.623v1.653h-3.623v3.607h-1.696zM46.602 82.99v-3.607H43V77.73h3.602v-3.617h1.657v3.617h3.592v1.653H48.26v3.607h-1.657zM79.652 64.181v-3.556H76.04V58.93h3.612v-3.626h1.656v3.626h3.623v1.694h-3.623v3.596l-1.656-.04zM63.127 64.181v-3.556h-3.612V58.93h3.612v-3.626h1.696v3.626h3.623v1.694h-3.623v3.596l-1.696-.04zM46.602 64.181v-3.556H43V58.93h3.602v-3.626h1.657v3.626h3.592v1.694H48.26v3.596l-1.657-.04zM79.652 46.886V43.29H76.04v-1.654h3.612V38.01h1.656v3.626h3.623v1.654h-3.623v3.596h-1.656zM63.127 46.886V43.29h-3.612v-1.654h3.612V38.01h1.696v3.626h3.623v1.654h-3.623v3.596h-1.696zM46.602 46.886V43.29H43v-1.654h3.602V38.01h1.657v3.626h3.592v1.654H48.26v3.596h-1.657zM166.227 46.906a4.457 4.457 0 0 0 4.461-4.453A4.457 4.457 0 0 0 166.227 38a4.457 4.457 0 0 0-4.46 4.453 4.457 4.457 0 0 0 4.46 4.453zM166.227 64.958a4.457 4.457 0 0 0 4.461-4.453 4.457 4.457 0 0 0-4.461-4.453 4.457 4.457 0 0 0-4.46 4.453 4.457 4.457 0 0 0 4.46 4.453zM166.227 83a4.457 4.457 0 0 0 4.461-4.453 4.457 4.457 0 0 0-4.461-4.453 4.457 4.457 0 0 0-4.46 4.453 4.457 4.457 0 0 0 4.46 4.453zM184.658 46.906a4.457 4.457 0 0 0 4.46-4.453 4.457 4.457 0 0 0-4.46-4.453 4.457 4.457 0 0 0-4.461 4.453 4.457 4.457 0 0 0 4.461 4.453zM184.658 64.958a4.457 4.457 0 0 0 4.46-4.453 4.457 4.457 0 0 0-4.46-4.453 4.457 4.457 0 0 0-4.461 4.453 4.457 4.457 0 0 0 4.461 4.453zM184.658 83a4.457 4.457 0 0 0 4.46-4.453 4.457 4.457 0 0 0-4.46-4.453 4.457 4.457 0 0 0-4.461 4.453A4.457 4.457 0 0 0 184.658 83zM203.099 46.906a4.457 4.457 0 0 0 4.46-4.453 4.457 4.457 0 0 0-4.46-4.453 4.457 4.457 0 0 0-4.461 4.453 4.457 4.457 0 0 0 4.461 4.453zM203.099 64.958a4.457 4.457 0 0 0 4.46-4.453 4.457 4.457 0 0 0-4.46-4.453 4.457 4.457 0 0 0-4.461 4.453 4.457 4.457 0 0 0 4.461 4.453zM203.099 83a4.457 4.457 0 0 0 4.46-4.453 4.457 4.457 0 0 0-4.46-4.453 4.457 4.457 0 0 0-4.461 4.453A4.457 4.457 0 0 0 203.099 83zM221.54 46.906a4.457 4.457 0 0 0 4.46-4.453A4.457 4.457 0 0 0 221.54 38a4.457 4.457 0 0 0-4.461 4.453 4.457 4.457 0 0 0 4.461 4.453zM221.54 64.958a4.457 4.457 0 0 0 4.46-4.453 4.457 4.457 0 0 0-4.46-4.453 4.457 4.457 0 0 0-4.461 4.453 4.457 4.457 0 0 0 4.461 4.453zM221.54 83a4.457 4.457 0 0 0 4.46-4.453 4.457 4.457 0 0 0-4.46-4.453 4.457 4.457 0 0 0-4.461 4.453A4.457 4.457 0 0 0 221.54 83zM147.787 46.906a4.457 4.457 0 0 0 4.46-4.453 4.457 4.457 0 0 0-4.46-4.453 4.457 4.457 0 0 0-4.461 4.453 4.457 4.457 0 0 0 4.461 4.453zM147.787 64.958a4.457 4.457 0 0 0 4.46-4.453 4.457 4.457 0 0 0-4.46-4.453 4.457 4.457 0 0 0-4.461 4.453 4.457 4.457 0 0 0 4.461 4.453zM147.787 83a4.457 4.457 0 0 0 4.46-4.453 4.457 4.457 0 0 0-4.46-4.453 4.457 4.457 0 0 0-4.461 4.453A4.457 4.457 0 0 0 147.787 83zM279.009 57.564c2.48 0 4.49-1.997 4.49-4.46 0-2.464-2.01-4.461-4.49-4.461-2.479 0-4.489 1.997-4.489 4.46 0 2.464 2.01 4.461 4.489 4.461z" fill="#fff"/>
    <path d="M284.616 53.114a5.622 5.622 0 0 0-1.03-3.194 5.68 5.68 0 0 0-2.671-2.05 5.651 5.651 0 0 0-3.352-.14 5.626 5.626 0 0 0-2.834 1.785 5.55 5.55 0 0 0 .137 7.352 5.605 5.605 0 0 0 2.215 1.479 5.64 5.64 0 0 0 5.14-.665 5.58 5.58 0 0 0 1.761-1.992 5.543 5.543 0 0 0 .634-2.575 1.118 1.118 0 0 0-.363-.723 1.132 1.132 0 0 0-1.518 0 1.118 1.118 0 0 0-.363.723 3.357 3.357 0 0 1-.599 1.892 3.39 3.39 0 0 1-1.566 1.23c-.19.067-.383.123-.579.169h-.429a2.816 2.816 0 0 1-1.107-.129 2.525 2.525 0 0 1-.918-.407 3.164 3.164 0 0 1-.828-.743c.099.109 0 0 0 0l-.19-.297a1.347 1.347 0 0 1-.11-.199s-.159-.337-.09-.158a3.109 3.109 0 0 1-.179-.565 2.23 2.23 0 0 1-.09-.486 3.367 3.367 0 0 1 .06-.991c.07-.354.209-.69.409-.992a3.355 3.355 0 0 1 1.637-1.397 3.382 3.382 0 0 1 2.155-.12 3.36 3.36 0 0 1 1.785 1.206c.445.586.684 1.302.678 2.036a1.125 1.125 0 0 0 1.123.863c.258-.006.507-.1.704-.266.197-.166.33-.394.378-.646z" fill="#333"/>
    <path d="M325.581 48.643h-32.614c-2.529 0-4.579 2.035-4.579 4.545s2.05 4.545 4.579 4.545h32.614c2.529 0 4.58-2.035 4.58-4.545s-2.051-4.545-4.58-4.545z" fill="#fff"/>
    <path d="M293.017 58.852h27.746c1.847.11 3.7.11 5.547 0 5.816-.684 6.764-8.921 1.257-10.904-1.826-.654-4.2-.337-6.086-.337h-22.478c-2.105 0-4.25-.129-6.355 0a5.71 5.71 0 0 0-3.868 1.832 5.639 5.639 0 0 0 .243 7.886 5.717 5.717 0 0 0 3.974 1.593c1.437.06 1.437-2.171 0-2.23a3.508 3.508 0 0 1-1.758-.51 3.459 3.459 0 0 1-1.666-3.098 3.452 3.452 0 0 1 .551-1.736 3.709 3.709 0 0 1 3.222-1.517h27.028c1.726 0 3.462-.069 5.178 0 .915 0 1.793.362 2.441 1.005a3.42 3.42 0 0 1 1.011 2.425 3.42 3.42 0 0 1-1.011 2.426 3.465 3.465 0 0 1-2.441 1.004c-5.188.179-10.406 0-15.594 0h-16.961a1.126 1.126 0 0 0-.82 1.088 1.123 1.123 0 0 0 .84 1.073z" fill="#333"/>
    <path d="M302.715 11.13H248.53c-1.066 0-2.089.422-2.843 1.171a3.982 3.982 0 0 0 0 5.65 4.034 4.034 0 0 0 2.843 1.17h3.811c2.335.277 4.131 1.983 4.131 3.965 0 2.2-2.165 3.965-4.829 3.965H240.25a4.002 4.002 0 0 0-2.822 1.162 3.95 3.95 0 0 0 0 5.607 4.002 4.002 0 0 0 2.822 1.162h47.888a4.002 4.002 0 0 0 2.822-1.162 3.95 3.95 0 0 0 0-5.608 4.002 4.002 0 0 0-2.822-1.16h-.818c-2.663 0-4.829-1.795-4.829-3.966 0-1.982 1.796-3.668 4.131-3.965h16.113a4.034 4.034 0 0 0 2.843-1.17 3.981 3.981 0 0 0 0-5.65 4.034 4.034 0 0 0-2.843-1.17h-.02z" fill="#fff"/>
    <path d="M302.714 10.011h-53.875a5.569 5.569 0 0 0-3.701 1.279 5.139 5.139 0 0 0-1.369 5.709 5.167 5.167 0 0 0 1.129 1.736c1.676 1.665 3.851 1.497 5.986 1.497a5.53 5.53 0 0 1 2.714.416 2.613 2.613 0 0 1 1.663 2.46 2.632 2.632 0 0 1-.216 1.02c-.918 1.794-2.993 1.814-4.739 1.814H240.249a5.147 5.147 0 0 0-3.665 1.418 5.084 5.084 0 0 0-.155 7.22 5.154 5.154 0 0 0 3.601 1.572h33.123c4.988 0 9.977.169 14.905 0a5.157 5.157 0 0 0 3.596-1.418 5.09 5.09 0 0 0 1.581-3.509 5.089 5.089 0 0 0-1.33-3.61 5.152 5.152 0 0 0-3.488-1.664c-1.287-.099-2.494 0-3.621-.743a2.514 2.514 0 0 1-1.169-1.648 2.499 2.499 0 0 1 .43-1.97c.998-1.299 2.415-1.368 3.871-1.368H302.644a5.163 5.163 0 0 0 3.493-1.574 5.098 5.098 0 0 0 1.429-3.537 5.097 5.097 0 0 0-1.429-3.536 5.163 5.163 0 0 0-3.493-1.574c-1.446-.06-1.446 2.171 0 2.23 3.482.15 3.891 5.314.339 5.75-.937.055-1.876.055-2.813 0h-11.354c-.86-.05-1.723-.05-2.584 0-2.664.317-5.128 2.548-4.988 5.334.139 2.785 2.903 4.619 5.557 4.787 1.137.07 2.195-.089 3.133.744a2.902 2.902 0 0 1 .229 4.065c-1.167 1.298-3.332.99-4.918.99h-41.714c-1.372.13-2.755.1-4.12-.089-3.302-.832-2.524-5.501.718-5.67 1.207-.06 2.425 0 3.632 0h5.647c1.412.116 2.833.005 4.21-.327 2.514-.823 4.45-3.3 3.681-5.997a5.688 5.688 0 0 0-2.076-2.777 5.75 5.75 0 0 0-3.311-1.07c-1.666 0-4.071.476-5.437-.733a2.895 2.895 0 0 1 .351-4.522 2.939 2.939 0 0 1 1.644-.504c4.24-.208 8.54 0 12.79 0h41.374a1.12 1.12 0 0 0 .96-1.067 1.122 1.122 0 0 0-.88-1.134z" fill="#333"/>
    <path d="M315.565 19.12c2.22 0 4.02-1.788 4.02-3.994 0-2.207-1.8-3.995-4.02-3.995-2.221 0-4.021 1.788-4.021 3.995 0 2.206 1.8 3.995 4.021 3.995z" fill="#fff"/>
    <path d="M312.671 15.127a2.813 2.813 0 0 1 .589-1.745c.18-.277-.08.08 0-.07l.17-.188.149-.149s.28-.227.1-.089c.14-.104.287-.2.439-.287l.189-.09c.12-.059.12-.059 0 0l.15-.059a4.41 4.41 0 0 1 .519-.139c.05 0 .279-.05.08 0h.269a3.5 3.5 0 0 1 .559 0c.209 0-.25-.06.09 0l.309.07.309.099s.19.09 0 0c.157.075.31.157.459.248.272.172.512.39.709.644-.11-.129 0 0 0 0 .062.082.118.168.169.258l.11.188s.15.328.06.11c.065.165.122.334.169.505v.208c0 .07 0 .149 0 0v.168c.01.166.01.331 0 .496v.14c.005.072.005.144 0 .217-.04.171-.09.34-.149.506-.1.307.099-.159-.06.119a2.451 2.451 0 0 1-.15.277 1.69 1.69 0 0 1-.139.218s-.17.218 0 .07a4.196 4.196 0 0 1-.36.376s-.239.208-.119.12c.119-.09-.16.098-.14.088a4.303 4.303 0 0 1-.549.308l-.309.099-.21.06H315.036a6.339 6.339 0 0 1-.619-.18c-.319-.098.1.06-.08 0l-.319-.168-.179-.119-.17-.118c.09.069.08.059 0 0l-.369-.367c-.22-.228.1.158-.08-.1l-.18-.267-.149-.278c-.11-.198 0 .12 0-.118a5.997 5.997 0 0 1-.18-.615s0-.218 0 0v-.436a1.104 1.104 0 0 0-.288-.86 1.136 1.136 0 0 0-1.29-.27 1.126 1.126 0 0 0-.614.67 1.138 1.138 0 0 0-.053.46 5.166 5.166 0 0 0 .952 2.923 5.217 5.217 0 0 0 2.451 1.875c.984.35 2.052.395 3.063.128a5.148 5.148 0 0 0 2.593-1.625 5.083 5.083 0 0 0-.122-6.737 5.142 5.142 0 0 0-2.029-1.356 5.17 5.17 0 0 0-4.711.607 5.094 5.094 0 0 0-2.197 4.184 1.123 1.123 0 0 0 1.123 1.015 1.118 1.118 0 0 0 1.122-1.015l-.04-.01z" fill="#333"/>
    <path d="M419.813 24.802H301.937v9.635h117.876v-9.635z" fill="#DF357F"/>
    <path d="M419.812 33.316h-116.07a9.667 9.667 0 0 0-1.607 0h-.199l1.117 1.12v-9.635l-1.117 1.12h116.071a9.655 9.655 0 0 0 1.606 0c.066-.005.133-.005.199 0l-1.127-1.12v9.636a1.13 1.13 0 0 0 2.245 0V24.8a1.118 1.118 0 0 0-.33-.782 1.132 1.132 0 0 0-.788-.328h-103.35c-4.759 0-9.568-.199-14.327 0h-.199a1.128 1.128 0 0 0-1.127 1.11v9.636c.005.294.126.575.336.782.211.208.494.325.791.328h103.35c4.759 0 9.568.198 14.327 0h.199a1.13 1.13 0 0 0 .728-.361 1.117 1.117 0 0 0-.728-1.87z" fill="#333"/>
    <path d="M419.813 34.437H301.937V102.4c0 1.714.685 3.358 1.905 4.57a6.526 6.526 0 0 0 4.599 1.893h104.867c1.725 0 3.38-.681 4.6-1.893a6.441 6.441 0 0 0 1.905-4.57V34.437z" fill="#fff"/>
    <path d="M419.812 33.317h-103.35c-4.759 0-9.568-.199-14.327 0h-.199a1.152 1.152 0 0 0-.792.333c-.21.21-.33.491-.335.787v67.954a7.663 7.663 0 0 0 2.143 5.209 7.763 7.763 0 0 0 5.14 2.365c1.426.079 2.863 0 4.28 0H413.996a7.73 7.73 0 0 0 4.948-2.441 7.635 7.635 0 0 0 2.036-5.103V34.467a1.119 1.119 0 0 0-.364-.723 1.132 1.132 0 0 0-1.518 0 1.117 1.117 0 0 0-.363.723v67.884a5.393 5.393 0 0 1-1.571 3.813 5.465 5.465 0 0 1-3.817 1.61c-4.988.109-10.096 0-15.135 0h-89.711a5.485 5.485 0 0 1-3.825-1.619 5.416 5.416 0 0 1-1.573-3.823V34.516l-1.117 1.11h103.35c4.759 0 9.568.199 14.327 0h.199a1.155 1.155 0 0 0 1.138-1.18 1.156 1.156 0 0 0-1.188-1.13z" fill="#333"/>
    <path d="M374.937 46.709h-63.383v5.997h63.383v-5.997zM338.212 57.663h-26.658v5.997h26.658v-5.997zM374.937 57.663h-33.104v5.997h33.104v-5.997zM374.937 68.617h-63.383v5.997h63.383v-5.997zM340.157 79.57h-28.603v5.997h28.603V79.57z" fill="#E5DCD8"/>
    <path d="M321.591 31.095c.821 0 1.486-.66 1.486-1.476s-.665-1.477-1.486-1.477-1.487.66-1.487 1.477c0 .815.666 1.476 1.487 1.476zM309.917 31.095c.821 0 1.487-.66 1.487-1.476s-.666-1.477-1.487-1.477c-.821 0-1.486.66-1.486 1.477 0 .815.665 1.476 1.486 1.476zM315.624 31.095c.821 0 1.487-.66 1.487-1.476s-.666-1.477-1.487-1.477c-.821 0-1.486.66-1.486 1.477 0 .815.665 1.476 1.486 1.476zM409.835 48.097h-28.344v36.35h28.344v-36.35z" fill="#fff"/>
    <path d="M409.836 83.328h-28.344l1.117 1.12V48.097l-1.117 1.11h28.344l-1.128-1.11v36.351c.027.278.156.536.364.723a1.132 1.132 0 0 0 1.518 0c.207-.188.337-.445.363-.723V48.097a1.127 1.127 0 0 0-.329-.786 1.143 1.143 0 0 0-.788-.334h-28.344a1.15 1.15 0 0 0-.792.333c-.21.21-.331.491-.336.787v36.351c.008.294.129.573.339.78.21.207.493.325.789.33h28.344a1.115 1.115 0 0 0 .728-1.87 1.132 1.132 0 0 0-.728-.36z" fill="#333"/>
    <path d="M409.835 84.449h-28.344s6.146-10.478 9.279-10.478h10.765c3.132 0 8.3 10.478 8.3 10.478z" fill="#fff"/>
    <path d="M409.836 83.705h-28.344l.638 1.11a58.727 58.727 0 0 1 3.871-5.76c1.257-1.655 2.993-4.342 5.328-4.342h8.38a7.61 7.61 0 0 1 2.175.07c1.227.377 2.265 1.883 2.993 2.855a45.589 45.589 0 0 1 4.32 7.177c.429.862 1.716.11 1.297-.743a49.863 49.863 0 0 0-4.09-6.88c-1.407-1.983-2.993-3.966-5.547-3.966h-9.069a4.698 4.698 0 0 0-2.305.367 11.527 11.527 0 0 0-3.382 2.974 52.99 52.99 0 0 0-5.208 7.465.747.747 0 0 0 .005.742.752.752 0 0 0 .643.378h28.345a.741.741 0 0 0-.05-1.447z" fill="#333"/>
    <path d="M404.758 67.229a2.868 2.868 0 0 1 .917-1.527 1.617 1.617 0 0 1 1.557-.109 1.983 1.983 0 0 1 .997 1.21c.08.258.08.534 0 .792a1.696 1.696 0 0 1-.339.615 6.873 6.873 0 0 1-1.736 1.615 1.202 1.202 0 0 1-.598.228.835.835 0 0 1-.629-.337 2.222 2.222 0 0 1-.339-.644" fill="#fff"/>
    <path d="M405.456 67.427c0-.129.09-.258.14-.377a.494.494 0 0 1 .049-.129s-.049.09 0 0l.11-.218.1-.168c.07-.12 0 0 0-.06l.17-.168c.059-.06 0 0 0 0l.119-.07c.11-.069-.06 0 .06 0l.2-.049H406.613c.07 0 .07 0 0 0l.2.05h.07l.179.099.08.079.14.148c-.08-.089 0 0 0 .07l.099.178s0 .11 0 0v.08c.027.087.047.177.06.267V67.387c0 .03-.06.11-.08.139l-.159.228c0-.08-.06.07-.08.09-.02.019-.219.247-.329.376l-.359.347-.34.277h-.049l-.13.09-.25.168-.089.05h-.08.08s-.12 0 0 0h-.06l-.09-.1c.07.09 0 0 0 0s0-.079-.07-.128a.92.92 0 0 1-.05-.1c0-.118.07.159 0-.06a.748.748 0 0 0-1.184-.389.75.75 0 0 0-.284.496.73.73 0 0 0 .022.29c.161.518.482.972.917 1.299a1.539 1.539 0 0 0 1.597 0 7.258 7.258 0 0 0 2.125-1.913c.341-.405.525-.919.519-1.447a2.673 2.673 0 0 0-.489-1.408 2.517 2.517 0 0 0-2.604-.991c-1.118.258-1.606 1.289-1.996 2.27a.749.749 0 0 0 .078.563c.099.17.261.295.451.349a.782.782 0 0 0 .918-.525l.08.069z" fill="#333"/>
    <path d="M387.568 67.229a2.876 2.876 0 0 0-.918-1.527 1.617 1.617 0 0 0-1.557-.109 1.983 1.983 0 0 0-.997 1.21 1.34 1.34 0 0 0 0 .792c.069.226.184.436.339.615a6.873 6.873 0 0 0 1.736 1.615c.175.129.382.208.598.228a.843.843 0 0 0 .629-.337c.148-.194.262-.412.339-.644" fill="#fff"/>
    <path d="M388.295 67.04a3.178 3.178 0 0 0-1.596-2.15 2.52 2.52 0 0 0-2.768.662 2.485 2.485 0 0 0-.618 1.348c-.063.501.029 1.01.263 1.458a7.312 7.312 0 0 0 1.996 1.983 1.718 1.718 0 0 0 1.736.267 2.309 2.309 0 0 0 1.067-1.377.748.748 0 0 0-.528-.912.772.772 0 0 0-.918.515v.05l-.1.188c-.06.109 0 .07 0 0l-.07.08a.42.42 0 0 1-.11.069c.11-.05-.079 0 .06 0-.07 0 0 0 0 0a2.007 2.007 0 0 1-.439-.268l-.189-.139-.09-.07-.409-.356a5.096 5.096 0 0 1-.32-.337l-.149-.168-.08-.09v-.059a2.392 2.392 0 0 1-.249-.397v-.436s.069-.188 0-.079c.029-.062.062-.121.099-.178a.432.432 0 0 1 .05-.09s.09-.118 0-.059c-.09.06 0 0 0 0l.09-.1s.15-.128.06-.059l.169-.109.09-.05c.08 0-.089 0 0 0h.19c.08 0 0 0 0 0h.539c-.07 0 0 0 0 0l.089.06c.09 0-.089-.099 0 0l.16.169c0 .07 0 0 0 0l.08.119c0 .06.07.129.11.198v.109c.069.168.129.337.189.505a.75.75 0 0 0 1.466-.096.744.744 0 0 0-.019-.29l.149.089z" fill="#333"/>
    <path d="M405.653 68.654c.446-4.402-3.406-8.391-8.603-8.911-5.197-.52-9.772 2.626-10.218 7.028-.446 4.401 3.406 8.39 8.603 8.91 5.197.52 9.772-2.626 10.218-7.027z" fill="#fff"/>
    <path d="M404.827 68.489c-.399 3.34-3.372 5.571-6.525 6.166a9.827 9.827 0 0 1-5.111-.355 9.77 9.77 0 0 1-4.227-2.877 6.414 6.414 0 0 1 .269-8.476 9.508 9.508 0 0 1 4.407-2.439 9.548 9.548 0 0 1 5.042.15c3.531.99 6.464 4.014 6.145 7.83-.08.992 1.417.942 1.497 0 .329-3.964-2.425-7.355-5.986-8.822a11.392 11.392 0 0 0-11.484 1.567 7.92 7.92 0 0 0-2.739 4.69c-.33 1.834 0 3.725.934 5.341a10.945 10.945 0 0 0 4.414 3.937 11.036 11.036 0 0 0 5.832 1.08c4.41-.338 8.47-3.242 8.979-7.792.16-.952-1.337-.942-1.447 0z" fill="#333"/>
    <path d="m393.304 70.034 4.839.07c.09 0 .18 0 .23.06.021.037.033.08.033.123a.256.256 0 0 1-.033.124c-.141.58-.321 1.15-.539 1.705a1.064 1.064 0 0 1-.409.584c-.179.09-.379.131-.579.12a4.27 4.27 0 0 1-1.836-.258 5.258 5.258 0 0 1-1.736-2.528" fill="#DF357F"/>
    <path d="M393.304 70.411h4.639c.13 0 .289.07.16-.079-.13-.149-.07-.05-.1.06v.138l-.21.714-.239.664a.727.727 0 0 1-.289.426 1.5 1.5 0 0 1-.629.06 4.13 4.13 0 0 1-.698 0 1.8 1.8 0 0 1-.858-.288 3.226 3.226 0 0 1-.529-.575 7.658 7.658 0 0 1-.589-.921 1.976 1.976 0 0 1-.269-.694.365.365 0 0 0-.314-.269.375.375 0 0 0-.415.323.351.351 0 0 0 .011.144c.058.298.17.583.329.843.174.345.374.676.598.99.201.294.44.56.709.794.361.247.78.398 1.217.436a3.727 3.727 0 0 0 1.686 0 1.656 1.656 0 0 0 .838-1.15c.1-.264.19-.532.269-.803.107-.267.174-.547.2-.832 0-.684-.778-.585-1.247-.595h-4.24a.379.379 0 0 0-.318.371.376.376 0 0 0 .318.372l-.03-.129zM395.499 63.988a5.356 5.356 0 0 0-1.756 2.636 7.03 7.03 0 0 0-.16.773 1.405 1.405 0 0 0 .16 1.1 1.337 1.337 0 0 0 .997.447c.286.025.573.025.858 0a6.325 6.325 0 0 0 1.996-.387.742.742 0 0 0 .171-1.367.755.755 0 0 0-.57-.07c-.289.11-.586.196-.888.258l-.27.05h-.06c-.156.01-.312.01-.468 0h-.769c-.169 0-.089-.1.11.098.11.367.15.466.14.288a.263.263 0 0 0 0-.08 1.448 1.448 0 0 1 0-.208v-.06c.05-.255.12-.507.209-.752v-.09c0-.05 0-.099.08-.158.08-.06.12-.238.19-.357.069-.12.139-.228.219-.337.08-.11.09-.139 0 0l.15-.179c.179-.202.376-.388.588-.555a.737.737 0 0 0 0-1.05.76.76 0 0 0-1.057 0h.13zM400.648 63.839h-.21a.487.487 0 0 0-.489.486v1.566c0 .268.219.485.489.485h.21c.27 0 .489-.217.489-.485v-1.567a.487.487 0 0 0-.489-.485zM391.499 63.839h-.21a.487.487 0 0 0-.489.486v1.566c0 .268.219.485.489.485h.21c.27 0 .489-.217.489-.485v-1.567a.487.487 0 0 0-.489-.485z" fill="#333"/>
    <path d="m398.083 61.252-.06-1.398a17.194 17.194 0 0 1 6.435 5.77 7.324 7.324 0 0 0 1.127-3.901c0-1.38-.391-2.731-1.127-3.9a8.791 8.791 0 0 0-2.77-2.522 8.858 8.858 0 0 0-3.575-1.147c-2.504-.297-10.735-.991-12.661 5.66-.648 2.25-.449 5.066 1.657 6.107 1.127-3.46 6.554-3.846 7.891-7.247.206.681.608 1.288 1.155 1.745a3.697 3.697 0 0 0 1.928.833z" fill="#DF357F"/>
    <path d="m399.2 61.252-.059-1.398-1.686.992a16.411 16.411 0 0 1 5.986 5.363 1.136 1.136 0 0 0 .967.536 1.143 1.143 0 0 0 .968-.536 8.458 8.458 0 0 0-.738-9.854c-1.936-2.28-4.829-3.172-7.732-3.4-4.42-.357-9.768.555-11.972 4.897-1.437 2.845-1.726 7.306 1.516 9.06a1.146 1.146 0 0 0 1.401-.233c.114-.126.198-.277.245-.44.589-1.666 2.514-2.489 3.991-3.321a8.497 8.497 0 0 0 3.991-3.966h-2.165c.259.871.765 1.65 1.456 2.243.692.594 1.54.978 2.445 1.108 1.406.228 1.995-1.923.598-2.151a2.793 2.793 0 0 1-1.426-.565 2.76 2.76 0 0 1-.908-1.23 1.134 1.134 0 0 0-1.083-.783 1.141 1.141 0 0 0-1.082.784c-.689 1.615-2.684 2.438-4.091 3.27a7.846 7.846 0 0 0-3.801 3.966l1.646-.674c-2.095-1.13-1.576-4.342-.648-6.106a6.705 6.705 0 0 1 1.756-2.047 6.757 6.757 0 0 1 2.424-1.195c3.183-.942 7.602-.872 10.436.991a6.223 6.223 0 0 1 2.674 3.858 6.184 6.184 0 0 1-.789 4.618h1.936a18.725 18.725 0 0 0-6.844-6.166 1.135 1.135 0 0 0-1.543.426 1.109 1.109 0 0 0-.143.565l.06 1.398c.029 1.418 2.274 1.428 2.214-.01zM395.719 77.133a24.933 24.933 0 0 1 2.284 2.973.77.77 0 0 0 .998.268 30.093 30.093 0 0 0 5.178-3.906c.688-.664-.369-1.714-1.058-1.05a27.852 27.852 0 0 1-4.878 3.667l.997.268a28.154 28.154 0 0 0-2.524-3.231c-.648-.704-1.696.346-1.057 1.05l.06-.04z" fill="#333"/>
    <path d="M394.89 75.299c-.339.575-.678 1.14-.998 1.694-.159.258-.329.516-.498.774-.17.257-.17.248-.26.376a1.988 1.988 0 0 1-.269.397l.379-.1a2.189 2.189 0 0 1-.609-.227l-.708-.308c-.489-.208-.998-.426-1.427-.664a34.817 34.817 0 0 1-2.753-1.516c-.818-.506-1.567.783-.749 1.278a34.187 34.187 0 0 0 5.248 2.637c.459.188.948.436 1.427.149.383-.319.698-.71.928-1.15a49.688 49.688 0 0 0 1.616-2.587.739.739 0 0 0-.287-.979.752.752 0 0 0-1 .226h-.04z" fill="#333"/>
    <path d="M395.06 79.195a16.002 16.002 0 0 0-.559 4.282c.828 0 2.534.356 3.811.297a25.404 25.404 0 0 1-1.207-3.717c-.09-.357-.219-.763-.568-.882a1.275 1.275 0 0 0-.33 0h-1.057" fill="#DF357F"/>
    <path d="M394.342 78.996a17.47 17.47 0 0 0-.589 4.48.752.752 0 0 0 .748.743c1.277.05 2.524.348 3.811.298a.753.753 0 0 0 .638-.375.741.741 0 0 0 .001-.735c0-.07 0-.13-.08-.189v-.089c0-.109-.09-.228-.13-.347a11.557 11.557 0 0 1-.269-.813c-.18-.555-.329-1.11-.489-1.674a2.968 2.968 0 0 0-.688-1.537c-.539-.505-1.427-.386-2.105-.416a.739.739 0 0 0-.527 1.266c.14.139.329.218.527.22h1.137-.07s.07 0 0 0c0 0 0-.089 0 0 0 .09.08.199 0 .06a.465.465 0 0 1 0 .129c.041.102.071.209.09.317l.209.743c.252 1.017.585 2.011.998 2.974l.649-1.12c-1.287 0-2.534-.248-3.812-.297l.749.743a15.598 15.598 0 0 1 .529-4.084.729.729 0 0 0-.519-.912.771.771 0 0 0-.918.516l.11.099z" fill="#333"/>
    <path d="M394.042 79.155a.078.078 0 0 0-.01.04c0 .013.003.027.01.04a.101.101 0 0 0 .07 0h2.844c.1 0 .209-.001.269-.09a.31.31 0 0 0 0-.208 4.49 4.49 0 0 0-.848-2.567.399.399 0 0 0-.17-.15.31.31 0 0 0-.189 0l-.399.07a.856.856 0 0 0-.319.1.802.802 0 0 0-.21.237l-.738 1.12-.31 1.408z" fill="#DF357F"/>
    <path d="M393.294 79.154a.812.812 0 0 0 .09.413.812.812 0 0 0 .289.31c.178.094.379.135.579.12h2.394c.31.029.622-.019.908-.139a.99.99 0 0 0 .479-.991 5.083 5.083 0 0 0-.259-1.487 5.272 5.272 0 0 0-.629-1.308 1.14 1.14 0 0 0-.928-.615 3.67 3.67 0 0 0-.788.11c-.34.066-.64.262-.838.544l-.439.664a3.1 3.1 0 0 0-.499.882l-.339 1.27a.742.742 0 0 0 .524.916.755.755 0 0 0 .923-.52l.239-.912c0-.149.09-.298.12-.446 0 .129-.07.158 0 .07l.07-.11.389-.585c0-.089.11-.178.169-.267l.07-.1c.07-.108 0 0-.06 0 .07 0 0 0 0 0h.09c.11 0 .22 0 .329-.059h.14a.442.442 0 0 1-.349-.06s-.1-.108-.14-.128c-.04-.02.08.109.1.129.02.02.19.317.269.475l.06.13c.06.138 0 0 0 0 .026.088.06.174.1.257.06.172.11.347.15.525a.801.801 0 0 0 0 .268v-.09a.264.264 0 0 1 0 .08v.139a2.565 2.565 0 0 0 0 .277v-.069c.439-.297.548-.426.339-.367h.12a2.405 2.405 0 0 0-.37 0h-2.564l.38.1.339.436v.118a.739.739 0 0 0-.216-.528.739.739 0 0 0-.533-.215.767.767 0 0 0-.708.763z" fill="#333"/>
    <path d="M264.204 88.602a5.858 5.858 0 0 1 .728-5.055 3.956 3.956 0 0 0 .998-1.894 5.05 5.05 0 0 0-.798-2.112c-.998-2.369.818-5.065 2.993-6.423.409-.258.878-.535.997-.992.05-.278.05-.564 0-.842a5.198 5.198 0 0 1 1.597-3.965c.997-1.071 5.527-1.071 6.554 0a5.207 5.207 0 0 1 1.597 3.965 2.173 2.173 0 0 0 0 .842c.119.466.588.744.997.992 2.205 1.358 3.991 4.054 2.993 6.424a5.044 5.044 0 0 0-.808 2.11c.155.71.5 1.364.998 1.894a5.798 5.798 0 0 1 .728 5.056c-.339.991-.997 1.983-.868 3.103.13 1.368 1.457 2.587 1.068 3.906-.389 1.318-19.575 1.397-19.954 0-.379-1.398.928-2.538 1.068-3.906.089-1.08-.549-2.072-.888-3.103z" fill="#fff"/>
    <path d="M265.291 88.314a4.92 4.92 0 0 1-.069-2.765 9.967 9.967 0 0 1 1.317-2.34c.431-.655.592-1.45.449-2.22-.19-.873-.828-1.567-.998-2.429-.349-1.864 1.327-3.539 2.714-4.48a3.103 3.103 0 0 0 1.516-1.666c.259-.991-.12-1.983.309-2.915.669-1.506 1.617-1.863 3.173-1.903 1.337 0 2.584 0 3.362 1.2.527.872.751 1.893.639 2.904 0 .411.103.816.3 1.178.197.361.481.669.827.894 1.437 1.06 3.113 2.24 3.213 4.213a5.724 5.724 0 0 1-.809 2.38 2.968 2.968 0 0 0 0 2.398c.32.724.908 1.279 1.258 1.983.442.926.571 1.969.369 2.974-.369 1.804-1.497 3.162-.798 5.075.259.714.618 1.378.868 2.102.249.723-.18.248.199 0 .07 0 .11-.12.11-.09s.06 0-.09 0c-3.812.608-7.677.821-11.533.635-2.069.03-4.136-.13-6.176-.476l-.449-.109-.139-.05c-.27-.05 0 0 0 0l-.09-.05c0-.108.339.477.329.477.078-.478.205-.946.379-1.398.418-.744.67-1.57.738-2.419a9.164 9.164 0 0 0-.918-3.182c-.488-1.348-2.653-.763-2.164.585.369.991 1.057 2.082.718 3.182-.435.869-.77 1.783-.998 2.726-.098.458-.02.935.218 1.339.238.404.619.704 1.069.842 1.852.504 3.768.737 5.687.694 2.714.119 5.427.129 8.141 0a21.37 21.37 0 0 0 5.837-.674 1.857 1.857 0 0 0 1.04-.697c.255-.346.381-.769.356-1.197a5.65 5.65 0 0 0-.708-2.329 3.215 3.215 0 0 1-.439-1.497c.145-.69.384-1.356.708-1.983a7.027 7.027 0 0 0-.409-5.82c-.209-.385-.489-.712-.728-1.079a1.328 1.328 0 0 1-.11-1.596 6.09 6.09 0 0 0 .778-2.974 7.132 7.132 0 0 0-.87-2.684 7.192 7.192 0 0 0-1.843-2.143c-.359-.308-.759-.546-1.138-.833-.568-.436-.409-.595-.409-1.28a6.057 6.057 0 0 0-.997-3.211 4.46 4.46 0 0 0-1.505-1.541 4.492 4.492 0 0 0-2.057-.66 8.54 8.54 0 0 0-4.649.456c-1.726.803-2.804 3.133-2.804 4.957.051.271.071.547.06.823-.13.327-.509.465-.788.654-.445.297-.865.629-1.257.991a7.814 7.814 0 0 0-1.836 2.637 5.2 5.2 0 0 0-.339 3.133c.127.515.322 1.011.578 1.477a1.388 1.388 0 0 1 0 1.764 7.413 7.413 0 0 0-1.411 3.107 7.374 7.374 0 0 0 .134 3.406 1.134 1.134 0 0 0 1.889.197c.158-.197.245-.441.246-.693z" fill="#333"/>
    <path d="M280.656 93.34a7.256 7.256 0 0 1 .917-6.314 5.042 5.042 0 0 0 1.238-2.35c0-.991-.629-1.764-.998-2.647-1.267-2.974.998-6.304 3.761-8 .519-.317 1.098-.664 1.257-1.249a2.856 2.856 0 0 0 0-1.05 6.456 6.456 0 0 1 1.996-4.957 16.77 16.77 0 0 1 4.08-3.192 16.963 16.963 0 0 1 4.081 3.192 6.452 6.452 0 0 1 1.537 2.264c.345.855.501 1.773.458 2.693a2.856 2.856 0 0 0 0 1.05c.15.585.738.932 1.247 1.25 2.744 1.695 4.989 5.045 3.761 8-.379.882-.997 1.695-.997 2.646.194.879.621 1.69 1.237 2.35a7.275 7.275 0 0 1 .908 6.314c-.419 1.279-1.217 2.508-1.088 3.856.17 1.706 1.826 3.222 1.327 4.868-.499 1.645-24.393 1.734-24.942 0-.549-1.735 1.167-3.162 1.327-4.867.12-1.349-.718-2.578-1.107-3.857z" fill="#DF357F" stroke="#333" stroke-width="2" stroke-miterlimit="10"/>
    <path d="M286.302 92.548a17.31 17.31 0 0 1 5.777 4.094l-.329-.793v11.737c.026.278.156.536.363.723a1.13 1.13 0 0 0 1.881-.723v-9.913c.057-.66.057-1.323 0-1.983-.109-.644-.778-1.15-1.237-1.576a19.68 19.68 0 0 0-1.646-1.368 17.968 17.968 0 0 0-3.661-2.131c-1.307-.575-2.455 1.348-1.128 1.923l-.02.01z" fill="#333"/>
    <path d="M293.925 96.245c.437-3.08.551-6.196.339-9.299a1.142 1.142 0 0 0-.338-.783 1.16 1.16 0 0 0-.789-.337 1.14 1.14 0 0 0-.788.334c-.209.21-.327.492-.329.786a42.455 42.455 0 0 1-.26 8.714 1.146 1.146 0 0 0 .778 1.368c.289.076.596.037.855-.11.259-.146.451-.388.532-.673zM276.645 102.836c-.26-7.752-.26-15.513-.519-23.266 0-1.427-2.295-1.437-2.245 0 .26 7.753.26 15.514.519 23.266.05 1.428 2.295 1.438 2.245 0z" fill="#333"/>
    <path d="M275.607 86.084c-.898-.505-1.756-1.08-2.654-1.586-.982-.507-2.019-.9-3.092-1.17a1.135 1.135 0 0 0-.851.11 1.119 1.119 0 0 0-.526.674 1.126 1.126 0 0 0 .778 1.368c.569.158 1.137.327 1.696.535l.17.07c.209.078-.25-.11 0 0l.249.108.539.278c.878.495 1.726 1.06 2.604 1.566a1.133 1.133 0 0 0 1.51-.42 1.115 1.115 0 0 0-.373-1.513l-.05-.02z" fill="#333"/>
    <path d="M373.141 89.852h-24.523a1.83 1.83 0 0 0-1.836 1.824v6.175a1.83 1.83 0 0 0 1.836 1.824h24.523a1.83 1.83 0 0 0 1.836-1.824v-6.175a1.83 1.83 0 0 0-1.836-1.824z" fill="#DF357F"/>
    <path d="M373.131 98.555h-23.615c-.489 0-1.218.129-1.517-.347a2.166 2.166 0 0 1-.1-1.07v-2.132a18.38 18.38 0 0 1 0-3.301c.24-1.24 2.913-.743 3.831-.743h20.233c.479 0 1.287-.14 1.657.227.369.367.229.932.229 1.359v2.33c0 .762.459 3.568-.718 3.677-1.427.129-1.437 2.359 0 2.23 3.921-.347 2.993-5.214 2.993-7.93 0-1.487-.08-2.974-1.616-3.757a4.499 4.499 0 0 0-2.195-.337h-17.819c-1.916 0-3.851-.08-5.767 0-3.691.158-2.993 4.203-2.993 6.75 0 1.21-.239 2.766.409 3.847a3.225 3.225 0 0 0 2.933 1.457H373.211a1.137 1.137 0 0 0 1.097-1.17 1.132 1.132 0 0 0-1.177-1.09z" fill="#333"/>
</svg>
