<svg width="342" height="140" viewBox="0 0 342 140" fill="none" xmlns="http://www.w3.org/2000/svg">
<path d="M218.041 43.4624C216.593 45.2427 213.786 46.2628 211.519 46.6229C213.676 46.8029 216.073 47.1029 217.442 48.7831C218.051 49.6273 218.483 50.587 218.71 51.6035C219.29 53.6037 219.799 55.604 220.259 57.6042C220.668 55.8098 221.168 54.0372 221.757 52.2935C221.955 51.6172 222.251 50.9736 222.636 50.3832C224.034 48.443 226.811 48.283 229.198 48.303C228.02 47.5929 226.861 46.8429 225.712 46.0728C224.955 45.5928 224.252 45.0328 223.615 44.4025C221.407 42.1022 221.108 38.6318 220.928 35.4014C220.888 35.4614 219.889 41.1221 218.041 43.4624Z" fill="#F0D227"/>
<path d="M217.243 42.6626C215.637 44.2848 213.519 45.2992 211.249 45.533C209.921 45.763 210.37 47.6433 211.549 47.7433C213.687 47.9334 216.144 48.2133 217.143 50.4036C218.075 52.8364 218.764 55.3557 219.2 57.9245C219.269 58.1595 219.411 58.3659 219.607 58.5128C219.802 58.6596 220.04 58.739 220.284 58.739C220.528 58.739 220.766 58.6596 220.962 58.5128C221.157 58.3659 221.3 58.1595 221.368 57.9245C221.654 56.6844 221.987 55.4543 222.367 54.2341C222.597 53.0204 223.073 51.8666 223.765 50.8437C225.054 49.3835 227.461 49.4435 229.239 49.4535C229.48 49.4423 229.712 49.3543 229.901 49.2024C230.089 49.0504 230.224 48.8423 230.286 48.6083C230.349 48.3743 230.335 48.1266 230.247 47.9009C230.159 47.6753 230.002 47.4835 229.798 47.3533C227.621 46.0231 224.804 44.6729 223.535 42.3526C222.367 40.2824 222.227 37.772 222.097 35.4417C222.027 34.2516 220.099 33.8315 219.89 35.1416C219.45 37.612 218.891 40.6323 217.283 42.6426C216.404 43.7727 217.992 45.383 218.871 44.2429C220.709 41.8626 221.538 38.6622 222.057 35.7418L219.85 35.4417C220.009 38.1821 220.219 41.0624 221.588 43.4427C223.096 46.1231 226.132 47.6733 228.67 49.2235L229.239 47.1331C226.872 47.1331 224.245 47.2632 222.387 48.9735C221.51 49.9265 220.888 51.0859 220.579 52.3439C220.049 53.9641 219.58 55.6042 219.21 57.2544H221.378C221.008 55.6342 220.609 54.0341 220.169 52.4339C219.882 50.9646 219.334 49.5588 218.551 48.2833C216.943 46.043 214.116 45.643 211.559 45.423L211.859 47.6332C214.513 47.317 216.979 46.1033 218.851 44.1928C219.77 43.1627 218.191 41.5625 217.243 42.6626Z" fill="#333333"/>
<path d="M313.842 27.1299H236.72V125.322H313.842V27.1299Z" fill="white"/>
<path d="M313.841 124.192H236.719L237.838 125.323V31.1507C237.953 29.8698 237.953 28.5811 237.838 27.3002C237.833 27.2403 237.833 27.1802 237.838 27.1203L236.719 28.2503H313.841L312.713 27.1203V121.292C312.713 122.562 312.623 123.872 312.713 125.143C312.718 125.202 312.718 125.263 312.713 125.323C312.739 125.603 312.869 125.863 313.077 126.052C313.284 126.242 313.555 126.347 313.836 126.347C314.117 126.347 314.388 126.242 314.596 126.052C314.804 125.863 314.934 125.603 314.96 125.323V31.1507C314.96 29.8805 315.05 28.5704 314.96 27.3002V27.1203C314.955 26.8248 314.835 26.5427 314.627 26.3338C314.418 26.1248 314.136 26.0051 313.841 26H236.719C236.423 26.0026 236.139 26.1211 235.928 26.3304C235.717 26.5396 235.596 26.8231 235.591 27.1203V121.292C235.591 122.562 235.511 123.872 235.591 125.143C235.596 125.202 235.596 125.263 235.591 125.323C235.596 125.62 235.717 125.903 235.928 126.112C236.139 126.322 236.423 126.44 236.719 126.443H313.841C314.121 126.416 314.381 126.286 314.57 126.078C314.759 125.87 314.864 125.599 314.864 125.318C314.864 125.036 314.759 124.765 314.57 124.557C314.381 124.349 314.121 124.219 313.841 124.192Z" fill="#333333"/>
<path d="M294.443 81.6969H256.117V50.753L275.325 42.2119L294.443 50.753V81.6969Z" fill="white"/>
<path d="M294.443 80.5668H256.117L257.236 81.6969V50.7529L256.687 51.7531L275.885 43.2121H274.746L293.874 51.7531L293.315 50.7529V81.6969C293.341 81.977 293.471 82.2371 293.679 82.4265C293.886 82.6159 294.157 82.7208 294.438 82.7208C294.719 82.7208 294.99 82.6159 295.198 82.4265C295.406 82.2371 295.536 81.977 295.562 81.6969V50.7529C295.572 50.5517 295.526 50.3518 295.429 50.1752C295.332 49.9987 295.188 49.8524 295.013 49.7528L278.032 42.1519C277.333 41.8418 276.644 41.4718 275.925 41.2118C275.205 40.9518 274.236 41.4518 273.447 41.8019L263.609 46.1824L255.618 49.7528C255.442 49.8519 255.296 49.9978 255.198 50.1743C255.099 50.3507 255.051 50.5509 255.058 50.7529V81.6969C255.066 81.9933 255.188 82.2753 255.398 82.484C255.608 82.6927 255.891 82.812 256.187 82.817H294.513C294.793 82.7833 295.051 82.6458 295.234 82.4316C295.418 82.2175 295.515 81.9422 295.506 81.6599C295.498 81.3777 295.384 81.109 295.187 80.9067C294.99 80.7043 294.725 80.5831 294.443 80.5668Z" fill="#333333"/>
<path d="M275.326 38.542L252.292 48.7933V54.804L275.326 44.5628L298.279 54.804V48.7933L275.326 38.542Z" fill="#DF357F"/>
<path d="M274.756 37.5712L254.579 46.5724L251.722 47.8426C251.546 47.9408 251.4 48.0864 251.301 48.263C251.202 48.4397 251.154 48.6404 251.163 48.8427V54.8434C251.163 55.0418 251.214 55.2367 251.312 55.4091C251.41 55.5814 251.551 55.7251 251.722 55.8261C251.892 55.9271 252.086 55.9818 252.284 55.9848C252.482 55.9879 252.678 55.9392 252.851 55.8436L273.028 46.8424L275.895 45.5723H274.756L294.813 54.5734L297.71 55.8636C297.883 55.9593 298.079 56.0079 298.277 56.0048C298.475 56.0018 298.669 55.9471 298.839 55.8461C299.01 55.7451 299.151 55.6013 299.249 55.429C299.347 55.2566 299.398 55.0618 299.398 54.8635V48.8627C299.404 48.6608 299.356 48.461 299.257 48.2848C299.159 48.1085 299.014 47.9626 298.839 47.8626L278.781 38.8614L275.895 37.5813C274.586 36.9912 273.438 38.9314 274.756 39.5214L294.813 48.5226L297.71 49.8128L297.15 48.8127V54.8134L298.839 53.8133L278.402 44.6821C277.573 44.3221 276.744 43.882 275.895 43.572C275.046 43.262 273.997 43.912 273.158 44.2821L261.311 49.5527L251.722 53.8133L253.411 54.8134V48.8127L252.851 49.8128L273.028 40.8116L275.895 39.5415C277.213 38.9214 276.075 36.9812 274.756 37.5712Z" fill="#333333"/>
<path d="M281.818 62.6348H268.743V81.6872H281.818V62.6348Z" fill="#DF357F"/>
<path d="M281.818 80.5671H268.743L269.862 81.6973V62.6348L268.743 63.7649H281.818L280.689 62.6348V81.6973C280.716 81.9774 280.846 82.2375 281.053 82.4268C281.261 82.6162 281.532 82.7212 281.813 82.7212C282.094 82.7212 282.365 82.6162 282.573 82.4268C282.781 82.2375 282.91 81.9774 282.937 81.6973V62.6348C282.934 62.3385 282.815 62.0551 282.606 61.8456C282.397 61.6361 282.114 61.5173 281.818 61.5146H268.743C268.446 61.5172 268.162 61.6358 267.951 61.845C267.74 62.0542 267.619 62.3376 267.614 62.6348V81.6973C267.622 81.9936 267.744 82.2756 267.954 82.4843C268.164 82.693 268.447 82.8123 268.743 82.8174H281.818C282.098 82.791 282.358 82.661 282.547 82.453C282.736 82.2449 282.841 81.9736 282.841 81.6922C282.841 81.4109 282.736 81.1396 282.547 80.9315C282.358 80.7234 282.098 80.5935 281.818 80.5671Z" fill="#333333"/>
<path d="M302.904 89.6582H247.667V94.1982H302.904V89.6582Z" fill="#CCCCCC"/>
<path d="M302.904 98.7188H247.667V103.259H302.904V98.7188Z" fill="#CCCCCC"/>
<path d="M281.828 107.771H247.667V112.311H281.828V107.771Z" fill="#CCCCCC"/>
<path d="M265.277 55.7939H261.771C261.219 55.7939 260.772 56.2417 260.772 56.7939V60.3039C260.772 60.8562 261.219 61.3039 261.771 61.3039H265.277C265.828 61.3039 266.276 60.8562 266.276 60.3039V56.7939C266.276 56.2417 265.828 55.7939 265.277 55.7939Z" fill="#333333"/>
<path d="M288.381 55.7939H284.875C284.323 55.7939 283.876 56.2417 283.876 56.7939V60.3039C283.876 60.8562 284.323 61.3039 284.875 61.3039H288.381C288.932 61.3039 289.38 60.8562 289.38 60.3039V56.7939C289.38 56.2417 288.932 55.7939 288.381 55.7939Z" fill="#333333"/>
<path d="M236.719 128.873C250.847 128.873 262.3 117.406 262.3 103.26C262.3 89.1139 250.847 77.6465 236.719 77.6465C222.592 77.6465 211.139 89.1139 211.139 103.26C211.139 117.406 222.592 128.873 236.719 128.873Z" fill="#DF357F"/>
<path d="M261.171 103.25C261.172 108.299 259.613 113.225 256.708 117.352C253.804 121.48 249.696 124.607 244.947 126.306C240.198 128.005 235.041 128.193 230.182 126.843C225.323 125.493 220.999 122.671 217.804 118.766C214.608 114.86 212.697 110.06 212.332 105.024C211.966 99.9881 213.165 94.9624 215.764 90.6351C218.362 86.3079 222.233 82.8909 226.846 80.8522C231.46 78.8134 236.59 78.2528 241.534 79.247C247.051 80.4039 252.007 83.4154 255.579 87.7816C259.152 92.1478 261.125 97.6061 261.171 103.25C261.198 103.53 261.328 103.79 261.536 103.98C261.743 104.169 262.014 104.274 262.295 104.274C262.576 104.274 262.847 104.169 263.055 103.98C263.263 103.79 263.392 103.53 263.419 103.25C263.417 97.7279 261.709 92.3415 258.528 87.8307C255.346 83.3199 250.848 79.9056 245.651 78.0569C240.454 76.2082 234.814 76.0156 229.503 77.5055C224.192 78.9955 219.473 82.0949 215.992 86.3782C212.511 90.6616 210.44 95.9189 210.063 101.428C209.685 106.937 211.021 112.428 213.885 117.147C216.75 121.866 221.003 125.581 226.061 127.783C231.119 129.985 236.733 130.565 242.133 129.443C248.126 128.15 253.5 124.85 257.37 120.089C261.239 115.328 263.373 109.388 263.419 103.25C263.392 102.97 263.263 102.71 263.055 102.52C262.847 102.331 262.576 102.226 262.295 102.226C262.014 102.226 261.743 102.331 261.536 102.52C261.328 102.71 261.198 102.97 261.171 103.25Z" fill="#333333"/>
<path d="M236.719 124.252C248.299 124.252 257.685 114.853 257.685 103.259C257.685 91.6653 248.299 82.2666 236.719 82.2666C225.14 82.2666 215.753 91.6653 215.753 103.259C215.753 114.853 225.14 124.252 236.719 124.252Z" fill="white"/>
<path d="M256.557 103.25C256.553 107.343 255.286 111.335 252.93 114.68C250.573 118.025 247.242 120.559 243.393 121.936C239.543 123.313 235.362 123.466 231.423 122.373C227.483 121.28 223.977 118.995 221.384 115.83C218.791 112.666 217.237 108.777 216.936 104.695C216.635 100.613 217.601 96.5369 219.701 93.0254C221.802 89.5138 224.934 86.7378 228.671 85.0771C232.407 83.4164 236.565 82.952 240.575 83.7476C245.064 84.6801 249.098 87.124 252.006 90.6725C254.914 94.2211 256.52 98.66 256.557 103.25C256.583 103.53 256.713 103.79 256.921 103.98C257.129 104.169 257.399 104.274 257.68 104.274C257.961 104.274 258.232 104.169 258.44 103.98C258.648 103.79 258.778 103.53 258.804 103.25C258.802 98.6883 257.39 94.2388 254.763 90.5118C252.136 86.7847 248.422 83.9623 244.13 82.4315C239.838 80.9008 235.179 80.7366 230.79 81.9614C226.401 83.1861 222.498 85.7401 219.616 89.2729C216.734 92.8058 215.013 97.1448 214.69 101.695C214.367 106.246 215.458 110.784 217.812 114.69C220.167 118.595 223.67 121.676 227.842 123.51C232.013 125.344 236.65 125.841 241.114 124.933C246.087 123.873 250.549 121.146 253.765 117.204C256.981 113.262 258.759 108.34 258.804 103.25C258.778 102.97 258.648 102.71 258.44 102.52C258.232 102.331 257.961 102.226 257.68 102.226C257.399 102.226 257.129 102.331 256.921 102.52C256.713 102.71 256.583 102.97 256.557 103.25Z" fill="#333333"/>
<path d="M234.952 114.691C234.851 114.694 234.752 114.675 234.659 114.638C234.566 114.6 234.482 114.543 234.412 114.471C234.273 114.33 234.195 114.14 234.192 113.941V112.011C232.891 111.853 231.633 111.446 230.487 110.811C229.588 110.319 228.826 109.611 228.269 108.751C227.787 107.997 227.521 107.125 227.5 106.23C227.499 106.15 227.514 106.07 227.545 105.996C227.576 105.922 227.622 105.855 227.68 105.8C227.736 105.743 227.803 105.698 227.876 105.667C227.95 105.636 228.029 105.62 228.109 105.62H233.413C233.646 105.607 233.879 105.648 234.093 105.74C234.275 105.843 234.448 105.96 234.612 106.09C234.795 106.218 234.985 106.335 235.181 106.44C235.393 106.547 235.618 106.624 235.851 106.67C236.125 106.712 236.402 106.732 236.68 106.73C237.193 106.75 237.707 106.682 238.198 106.53C238.577 106.39 238.767 106.2 238.767 105.95C238.766 105.839 238.735 105.73 238.679 105.633C238.623 105.537 238.543 105.457 238.448 105.4C238.109 105.199 237.737 105.06 237.349 104.99C236.629 104.837 235.903 104.72 235.171 104.64C233.856 104.488 232.568 104.151 231.346 103.64C230.346 103.215 229.482 102.523 228.849 101.64C228.244 100.718 227.937 99.6317 227.97 98.5292C227.956 97.7725 228.099 97.0212 228.39 96.3224C228.68 95.6236 229.112 94.9925 229.658 94.4688C230.912 93.2978 232.495 92.5403 234.192 92.2985V90.2982C234.193 90.0993 234.272 89.9086 234.412 89.7681C234.482 89.695 234.565 89.6369 234.658 89.5973C234.751 89.5577 234.851 89.5376 234.952 89.5381H238.318C238.517 89.5455 238.705 89.628 238.846 89.769C238.987 89.9099 239.069 90.099 239.077 90.2982V92.2985C240.264 92.517 241.395 92.9728 242.403 93.6386C243.223 94.1584 243.93 94.8387 244.481 95.6388C244.926 96.2649 245.189 97.0024 245.24 97.7691C245.24 97.8492 245.224 97.9286 245.193 98.0024C245.162 98.0763 245.117 98.1432 245.06 98.1992C245.007 98.2554 244.944 98.3003 244.874 98.3312C244.803 98.3621 244.727 98.3785 244.651 98.3793H239.077C238.862 98.386 238.648 98.3484 238.448 98.2692C238.27 98.1777 238.106 98.0634 237.958 97.9292C237.803 97.795 237.628 97.687 237.439 97.6092C237.124 97.4727 236.782 97.411 236.44 97.4291C236.094 97.4085 235.749 97.481 235.441 97.6391C235.343 97.6981 235.262 97.7818 235.206 97.8818C235.15 97.9818 235.121 98.0946 235.121 98.2092C235.125 98.3027 235.15 98.394 235.193 98.477C235.236 98.5599 235.297 98.6324 235.371 98.6893C235.645 98.8852 235.959 99.0183 236.29 99.0793C236.927 99.2225 237.57 99.3326 238.218 99.4093C239.753 99.558 241.259 99.9217 242.693 100.49C243.699 100.886 244.557 101.585 245.15 102.49C245.68 103.399 245.947 104.438 245.919 105.49C245.929 106.555 245.623 107.599 245.04 108.491C244.418 109.402 243.585 110.15 242.613 110.671C241.503 111.264 240.301 111.663 239.057 111.851V113.851C239.056 113.95 239.035 114.049 238.996 114.14C238.956 114.231 238.899 114.313 238.827 114.381C238.759 114.453 238.677 114.509 238.586 114.547C238.495 114.585 238.396 114.604 238.298 114.601L234.952 114.691Z" fill="#DF357F"/>
<path d="M84.3305 100.99V97.3833H80.6982V95.7296H84.3105V92.1133H85.967V95.7296H89.5893V97.3833H85.987V100.99H84.3305Z" fill="white"/>
<path d="M67.8057 100.99V97.3833H64.1934V95.7296H67.8057V92.1133H69.4621V95.7296H73.0844V97.3833H69.4621V100.99H67.8057Z" fill="white"/>
<path d="M51.2808 100.99V97.3833H47.6685V95.7296H51.2808V92.1133H52.9372V95.7296H56.5595V97.3833H52.9372V100.99H51.2808Z" fill="white"/>
<path d="M84.3305 82.1811V78.6245H80.6982V76.9309H84.3105V73.3047H85.967V76.9309H89.5893V78.6245H85.987V82.2209L84.3305 82.1811Z" fill="white"/>
<path d="M67.8057 82.1811V78.6245H64.1934V76.9309H67.8057V73.3047H69.4621V76.9309H73.0844V78.6245H69.4621V82.2209L67.8057 82.1811Z" fill="white"/>
<path d="M51.2808 82.1811V78.6245H47.6685V76.9309H51.2808V73.3047H52.9372V76.9309H56.5595V78.6245H52.9372V82.2209L51.2808 82.1811Z" fill="white"/>
<path d="M84.3305 64.8861V61.2898H80.6982V59.636H84.3105V56.0098H85.967V59.636H89.5893V61.2898H85.987V64.8861H84.3305Z" fill="white"/>
<path d="M67.8057 64.8861V61.2898H64.1934V59.636H67.8057V56.0098H69.4621V59.636H73.0844V61.2898H69.4621V64.8861H67.8057Z" fill="white"/>
<path d="M51.2808 64.8861V61.2898H47.6685V59.636H51.2808V56.0098H52.9372V59.636H56.5595V61.2898H52.9372V64.8861H51.2808Z" fill="white"/>
<path d="M36.6518 100.99V97.3833H33.0396V95.7296H36.6518V92.1133H38.3084V95.7296H41.9306V97.3833H38.3084V100.99H36.6518Z" fill="white"/>
<path d="M20.1269 100.99V97.3833H16.5146V95.7296H20.1269V92.1133H21.8233V95.7296H25.4456V97.3833H21.8233V100.99H20.1269Z" fill="white"/>
<path d="M3.60231 100.99V97.3833H0V95.7296H3.60231V92.1133H5.25878V95.7296H8.85113V97.3833H5.25878V100.99H3.60231Z" fill="white"/>
<path d="M36.6518 82.1811V78.6245H33.0396V76.9309H36.6518V73.3047H38.3084V76.9309H41.9306V78.6245H38.3084V82.2209L36.6518 82.1811Z" fill="white"/>
<path d="M20.1269 82.1811V78.6245H16.5146V76.9309H20.1269V73.3047H21.8233V76.9309H25.4456V78.6245H21.8233V82.2209L20.1269 82.1811Z" fill="white"/>
<path d="M3.60231 82.1811V78.6245H0V76.9309H3.60231V73.3047H5.25878V76.9309H8.85113V78.6245H5.25878V82.2209L3.60231 82.1811Z" fill="white"/>
<path d="M36.6518 64.8861V61.2898H33.0396V59.636H36.6518V56.0098H38.3084V59.636H41.9306V61.2898H38.3084V64.8861H36.6518Z" fill="white"/>
<path d="M20.1269 64.8861V61.2898H16.5146V59.636H20.1269V56.0098H21.8233V59.636H25.4456V61.2898H21.8233V64.8861H20.1269Z" fill="white"/>
<path d="M3.60231 64.8861V61.2898H0V59.636H3.60231V56.0098H5.25878V59.636H8.85113V61.2898H5.25878V64.8861H3.60231Z" fill="white"/>
<path d="M123.227 64.9063C125.691 64.9063 127.688 62.9125 127.688 60.4531C127.688 57.9937 125.691 56 123.227 56C120.764 56 118.767 57.9937 118.767 60.4531C118.767 62.9125 120.764 64.9063 123.227 64.9063Z" fill="white"/>
<path d="M123.227 82.958C125.691 82.958 127.688 80.9643 127.688 78.5049C127.688 76.0455 125.691 74.0518 123.227 74.0518C120.764 74.0518 118.767 76.0455 118.767 78.5049C118.767 80.9643 120.764 82.958 123.227 82.958Z" fill="white"/>
<path d="M123.227 101C125.691 101 127.688 99.0063 127.688 96.5469C127.688 94.0875 125.691 92.0938 123.227 92.0938C120.764 92.0938 118.767 94.0875 118.767 96.5469C118.767 99.0063 120.764 101 123.227 101Z" fill="white"/>
<path d="M141.658 64.9063C144.121 64.9063 146.118 62.9125 146.118 60.4531C146.118 57.9937 144.121 56 141.658 56C139.194 56 137.197 57.9937 137.197 60.4531C137.197 62.9125 139.194 64.9063 141.658 64.9063Z" fill="white"/>
<path d="M141.658 82.958C144.121 82.958 146.118 80.9643 146.118 78.5049C146.118 76.0455 144.121 74.0518 141.658 74.0518C139.194 74.0518 137.197 76.0455 137.197 78.5049C137.197 80.9643 139.194 82.958 141.658 82.958Z" fill="white"/>
<path d="M141.658 101C144.121 101 146.118 99.0063 146.118 96.5469C146.118 94.0875 144.121 92.0938 141.658 92.0938C139.194 92.0938 137.197 94.0875 137.197 96.5469C137.197 99.0063 139.194 101 141.658 101Z" fill="white"/>
<path d="M160.099 64.9063C162.562 64.9063 164.559 62.9125 164.559 60.4531C164.559 57.9937 162.562 56 160.099 56C157.635 56 155.638 57.9937 155.638 60.4531C155.638 62.9125 157.635 64.9063 160.099 64.9063Z" fill="white"/>
<path d="M160.099 82.958C162.562 82.958 164.559 80.9643 164.559 78.5049C164.559 76.0455 162.562 74.0518 160.099 74.0518C157.635 74.0518 155.638 76.0455 155.638 78.5049C155.638 80.9643 157.635 82.958 160.099 82.958Z" fill="white"/>
<path d="M160.099 101C162.562 101 164.559 99.0063 164.559 96.5469C164.559 94.0875 162.562 92.0938 160.099 92.0938C157.635 92.0938 155.638 94.0875 155.638 96.5469C155.638 99.0063 157.635 101 160.099 101Z" fill="white"/>
<path d="M178.54 64.9063C181.003 64.9063 183 62.9125 183 60.4531C183 57.9937 181.003 56 178.54 56C176.076 56 174.079 57.9937 174.079 60.4531C174.079 62.9125 176.076 64.9063 178.54 64.9063Z" fill="white"/>
<path d="M178.54 82.958C181.003 82.958 183 80.9643 183 78.5049C183 76.0455 181.003 74.0518 178.54 74.0518C176.076 74.0518 174.079 76.0455 174.079 78.5049C174.079 80.9643 176.076 82.958 178.54 82.958Z" fill="white"/>
<path d="M178.54 101C181.003 101 183 99.0063 183 96.5469C183 94.0875 181.003 92.0938 178.54 92.0938C176.076 92.0938 174.079 94.0875 174.079 96.5469C174.079 99.0063 176.076 101 178.54 101Z" fill="white"/>
<path d="M104.787 64.9063C107.25 64.9063 109.247 62.9125 109.247 60.4531C109.247 57.9937 107.25 56 104.787 56C102.323 56 100.326 57.9937 100.326 60.4531C100.326 62.9125 102.323 64.9063 104.787 64.9063Z" fill="white"/>
<path d="M104.787 82.958C107.25 82.958 109.247 80.9643 109.247 78.5049C109.247 76.0455 107.25 74.0518 104.787 74.0518C102.323 74.0518 100.326 76.0455 100.326 78.5049C100.326 80.9643 102.323 82.958 104.787 82.958Z" fill="white"/>
<path d="M104.787 101C107.25 101 109.247 99.0063 109.247 96.5469C109.247 94.0875 107.25 92.0938 104.787 92.0938C102.323 92.0938 100.326 94.0875 100.326 96.5469C100.326 99.0063 102.323 101 104.787 101Z" fill="white"/>
</svg>
