<svg width="115" height="90" fill="none" xmlns="http://www.w3.org/2000/svg">
    <path d="M53.395 60.122v-1.78H51.57v-.816h1.816V55.74h.833v1.785h1.821v.816h-1.81v1.78h-.834zM45.089 60.122v-1.78h-1.816v-.816h1.816V55.74h.832v1.785h1.821v.816h-1.82v1.78h-.833zM36.78 60.122v-1.78h-1.815v-.816h1.816V55.74h.833v1.785h1.82v.816h-1.82v1.78h-.833zM53.395 50.84v-1.755H51.57v-.836h1.816V46.46h.833v1.79h1.821v.835h-1.81v1.775l-.834-.02zM45.089 50.84v-1.755h-1.816v-.836h1.816V46.46h.832v1.79h1.821v.835h-1.82v1.775l-.833-.02zM36.78 50.84v-1.755h-1.815v-.836h1.816V46.46h.833v1.79h1.82v.835h-1.82v1.775l-.833-.02zM53.395 42.305V40.53H51.57v-.816h1.816v-1.79h.833v1.79h1.821v.816h-1.81v1.775h-.834zM45.089 42.305V40.53h-1.816v-.816h1.816v-1.79h.832v1.79h1.821v.816h-1.82v1.775h-.833zM36.78 42.305V40.53h-1.815v-.816h1.816v-1.79h.833v1.79h1.82v.816h-1.82v1.775h-.833zM29.426 60.122v-1.78H27.61v-.816h1.816V55.74h.833v1.785h1.821v.816h-1.82v1.78h-.834zM21.119 60.122v-1.78h-1.816v-.816h1.816V55.74h.853v1.785h1.82v.816h-1.82v1.78h-.853zM12.811 60.122v-1.78H11v-.816h1.811V55.74h.833v1.785h1.806v.816h-1.806v1.78h-.833zM29.426 50.84v-1.755H27.61v-.836h1.816V46.46h.833v1.79h1.821v.835h-1.82v1.775l-.834-.02zM21.119 50.84v-1.755h-1.816v-.836h1.816V46.46h.853v1.79h1.82v.835h-1.82v1.775l-.853-.02zM12.811 50.84v-1.755H11v-.836h1.811V46.46h.833v1.79h1.806v.835h-1.806v1.775l-.833-.02zM29.426 42.305V40.53H27.61v-.816h1.816v-1.79h.833v1.79h1.821v.816h-1.82v1.775h-.834zM21.119 42.305V40.53h-1.816v-.816h1.816v-1.79h.853v1.79h1.82v.816h-1.82v1.775h-.853zM12.811 42.305V40.53H11v-.816h1.811v-1.79h.833v1.79h1.806v.816h-1.806v1.775h-.833zM72.95 42.315c1.239 0 2.243-.984 2.243-2.197 0-1.214-1.004-2.198-2.243-2.198-1.238 0-2.242.984-2.242 2.197 0 1.214 1.004 2.198 2.242 2.198zM72.95 51.223c1.239 0 2.243-.984 2.243-2.197 0-1.214-1.004-2.198-2.243-2.198-1.238 0-2.242.984-2.242 2.198 0 1.213 1.004 2.197 2.242 2.197zM72.95 60.127c1.239 0 2.243-.984 2.243-2.198s-1.004-2.198-2.243-2.198c-1.238 0-2.242.984-2.242 2.198s1.004 2.198 2.242 2.198zM82.216 42.315c1.239 0 2.243-.984 2.243-2.197 0-1.214-1.005-2.198-2.243-2.198s-2.242.984-2.242 2.197c0 1.214 1.004 2.198 2.242 2.198zM82.216 51.223c1.239 0 2.243-.984 2.243-2.197 0-1.214-1.005-2.198-2.243-2.198s-2.242.984-2.242 2.198c0 1.213 1.004 2.197 2.242 2.197zM82.216 60.127c1.239 0 2.243-.984 2.243-2.198s-1.005-2.198-2.243-2.198-2.242.984-2.242 2.198 1.004 2.198 2.242 2.198zM91.487 42.315c1.238 0 2.242-.984 2.242-2.197 0-1.214-1.004-2.198-2.242-2.198-1.239 0-2.243.984-2.243 2.197 0 1.214 1.004 2.198 2.243 2.198zM91.487 51.223c1.238 0 2.242-.984 2.242-2.197 0-1.214-1.004-2.198-2.242-2.198-1.239 0-2.243.984-2.243 2.198 0 1.213 1.004 2.197 2.243 2.197zM91.487 60.127c1.238 0 2.242-.984 2.242-2.198s-1.004-2.198-2.242-2.198c-1.239 0-2.243.984-2.243 2.198s1.004 2.198 2.243 2.198zM100.757 42.315c1.239 0 2.243-.984 2.243-2.197 0-1.214-1.004-2.198-2.243-2.198-1.238 0-2.242.984-2.242 2.197 0 1.214 1.004 2.198 2.242 2.198zM100.757 51.223c1.239 0 2.243-.984 2.243-2.197 0-1.214-1.004-2.198-2.243-2.198-1.238 0-2.242.984-2.242 2.198 0 1.213 1.004 2.197 2.242 2.197zM100.757 60.127c1.239 0 2.243-.984 2.243-2.198s-1.004-2.198-2.243-2.198c-1.238 0-2.242.984-2.242 2.198s1.004 2.198 2.242 2.198zM63.68 42.315c1.238 0 2.242-.984 2.242-2.197 0-1.214-1.004-2.198-2.242-2.198-1.239 0-2.242.984-2.242 2.197 0 1.214 1.003 2.198 2.242 2.198zM63.68 51.223c1.238 0 2.242-.984 2.242-2.197 0-1.214-1.004-2.198-2.242-2.198-1.239 0-2.242.984-2.242 2.198 0 1.213 1.003 2.197 2.242 2.197zM63.68 60.127c1.238 0 2.242-.984 2.242-2.198s-1.004-2.198-2.242-2.198c-1.239 0-2.242.984-2.242 2.198s1.003 2.198 2.242 2.198z" fill="#fff"/>
    <path d="M84.462 26.978a3.854 3.854 0 0 1-2.142 1.398c.765-.035 1.619-.04 2.176.492.252.269.447.585.572.931.291.665.563 1.344.814 2.029.064-.645.16-1.286.287-1.92.038-.247.113-.486.222-.71.4-.738 1.366-.92 2.205-1.024a29.376 29.376 0 0 1-1.322-.62c-.288-.135-.561-.3-.814-.493-.878-.704-1.14-1.905-1.347-3.008 0 0-.084 2.009-.651 2.925z" fill="#F0D227"/>
    <path d="M83.983 26.697a3.253 3.253 0 0 1-1.81 1.147.556.556 0 0 0 .148 1.088c.67-.03 1.539-.093 1.973.542.449.789.805 1.626 1.06 2.497a.557.557 0 0 0 1.091-.148c.05-.448.109-.892.188-1.335.023-.394.13-.778.316-1.127.355-.493 1.11-.567 1.657-.636a.578.578 0 0 0 .533-.408.555.555 0 0 0-.256-.625c-.814-.36-1.89-.704-2.438-1.453a5.629 5.629 0 0 1-.784-2.334c-.124-.64-1.061-.448-1.09.148a5.982 5.982 0 0 1-.578 2.644.556.556 0 0 0 .62.78.558.558 0 0 0 .337-.219 7.168 7.168 0 0 0 .73-3.205l-1.09.148c.121.959.459 1.878.987 2.688.666.901 1.771 1.32 2.768 1.763l.281-1.034c-.878.108-1.85.266-2.467.984a2.828 2.828 0 0 0-.547 1.389c-.116.61-.204 1.226-.267 1.846l1.09-.147a34.859 34.859 0 0 0-.641-1.63 5.196 5.196 0 0 0-.765-1.443c-.666-.773-1.736-.822-2.689-.778l.148 1.088a4.411 4.411 0 0 0 2.467-1.654c.38-.616-.582-1.167-.972-.576z" fill="#333"/>
    <path d="M73.617 21.557H53.072v46.236h20.545V21.557z" fill="#DF357F"/>
    <path d="M73.617 21H53.072a.559.559 0 0 0-.552.552v44.315c0 .6-.045 1.226 0 1.827v.079a.561.561 0 0 0 .552.556h20.545a.568.568 0 0 0 .557-.556V23.457c0-.6.045-1.226 0-1.827a.415.415 0 0 1 0-.078.557.557 0 0 0-1.11 0v44.315a9.812 9.812 0 0 0 0 1.827.432.432 0 0 1 0 .079l.553-.552H53.072l.558.552V23.457c.054-.608.054-1.219 0-1.827a.415.415 0 0 1 0-.078l-.558.556h20.545a.558.558 0 0 0 .36-.928.558.558 0 0 0-.36-.18z" fill="#333"/>
    <path d="M53.412 28.494h20.205a.558.558 0 0 0 .36-.929.558.558 0 0 0-.36-.18H53.412a.559.559 0 0 0-.505.555.556.556 0 0 0 .505.554zM53.412 35.16h20.205a.557.557 0 0 0 0-1.107H53.412a.559.559 0 0 0-.505.554.556.556 0 0 0 .505.554zM53.412 41.819h20.205a.557.557 0 0 0 0-1.108H53.412a.559.559 0 0 0-.505.554.556.556 0 0 0 .505.554zM53.412 48.5h20.205a.558.558 0 0 0 .36-.928.558.558 0 0 0-.36-.18H53.412a.558.558 0 0 0-.36.929.558.558 0 0 0 .36.18zM53.412 55.172h20.205a.558.558 0 0 0 .36-.928.558.558 0 0 0-.36-.18H53.412a.558.558 0 0 0-.36.929.558.558 0 0 0 .36.18zM53.412 61.84h20.205a.558.558 0 0 0 .36-.93.558.558 0 0 0-.36-.179H53.412a.559.559 0 0 0-.505.554.556.556 0 0 0 .505.554z" fill="#333"/>
    <path d="M94.442 41.848H73.898v25.939h20.544v-25.94z" fill="#DF357F"/>
    <path d="M94.443 41.292H73.898a.568.568 0 0 0-.552.556v25.94a.561.561 0 0 0 .552.556h20.545a.568.568 0 0 0 .557-.556v-25.94a.556.556 0 0 0-.93-.359.556.556 0 0 0-.18.36v25.939l.553-.552H73.898l.558.552v-25.94l-.558.552h20.545a.558.558 0 0 0 0-1.108z" fill="#333"/>
    <path d="M74.239 48.5h20.204a.558.558 0 0 0 .505-.553.556.556 0 0 0-.505-.554H74.239a.558.558 0 0 0-.36.928.558.558 0 0 0 .36.18zM74.239 55.172h20.204a.558.558 0 0 0 .505-.554.556.556 0 0 0-.505-.553H74.239a.558.558 0 0 0-.36.928.558.558 0 0 0 .36.18zM74.239 61.84h20.204a.558.558 0 0 0 .505-.555.556.556 0 0 0-.505-.554H74.239a.558.558 0 0 0-.506.554.556.556 0 0 0 .505.554z" fill="#333"/>
    <path d="M23.991 49.436a2.01 2.01 0 0 0 2.014-2.01 2.01 2.01 0 0 0-2.014-2.008c-1.111 0-2.012.9-2.012 2.009 0 1.11.9 2.009 2.012 2.009z" fill="#fff"/>
    <path d="M26.558 47.428a2.606 2.606 0 0 0-1.697-2.413 2.581 2.581 0 0 0-2.823.753 2.558 2.558 0 0 0 1.069 4.063 2.57 2.57 0 0 0 3.16-1.22c.191-.365.291-.771.291-1.183a.556.556 0 1 0-1.11 0c0 .316-.104.624-.296.876-.094.138.04-.04-.025.035l-.089.093-.074.074s-.138.118-.049.05c-.07.052-.145.1-.222.142l-.094.05c-.059 0-.059.029 0 0h-.074c-.086.028-.173.053-.261.073 0 0-.138.025-.04 0h-.138a2.691 2.691 0 0 1-.281 0c-.099 0 .123.03-.045 0l-.157-.035-.153-.049s-.094-.044 0 0c-.08-.04-.153-.083-.227-.128a1.264 1.264 0 0 1-.36-.325c.054.064 0 0 0 0s-.06-.083-.084-.128l-.055-.093s-.074-.163-.03-.06a1.559 1.559 0 0 1-.083-.255c0-.035 0-.07-.025-.104-.024-.034 0-.074 0 0a.489.489 0 0 1 0-.084 1.423 1.423 0 0 1 0-.25s.025-.188 0-.075v-.103a2.64 2.64 0 0 1 .08-.26c.049-.154-.05.078 0-.06.029-.05.049-.093.078-.138.03-.044.044-.074.07-.113.024-.04.083-.103 0-.035.055-.065.114-.128.177-.187 0 0 .123-.103.064-.059-.06.045.079-.054.074-.049.086-.059.177-.11.271-.153l.153-.054.109-.024s.163-.03.084 0c-.08.03.103 0 .093 0 .046-.003.093-.003.139 0h.212c.105.022.209.052.31.088.158.05-.049-.03.04 0 .056.026.11.056.163.089l.089.054.083.06c-.044-.03-.039-.03 0 0 .04.029.124.122.183.181.06.06-.044-.078.044.054l.09.133.073.138c.055.099 0-.054.03.06.03.113.06.206.084.31 0 0 0 .108 0 0 .005.075.005.15 0 .226a.56.56 0 0 0 .552.551.558.558 0 0 0 .627-.517z" fill="#333"/>
    <path d="M44.852 45.418H30.238c-1.13 0-2.048.915-2.048 2.043v.005c0 1.129.917 2.044 2.048 2.044h14.614c1.13 0 2.048-.915 2.048-2.044v-.005a2.045 2.045 0 0 0-2.048-2.043z" fill="#fff"/>
    <path d="M30.263 50.062H42.77c.835.052 1.673.04 2.507-.035 2.595-.408 2.96-4.136.463-5.012-.828-.29-1.89-.153-2.753-.153H32.873a23.525 23.525 0 0 0-2.96.03 2.592 2.592 0 0 0-1.453 4.474c.485.45 1.125.7 1.788.696.71.03.71-1.078 0-1.108a1.507 1.507 0 0 1-1.48-1.601 1.5 1.5 0 0 1 .266-.758 1.623 1.623 0 0 1 1.402-.625h14.387a1.496 1.496 0 0 1 1.495 1.492 1.49 1.49 0 0 1-1.495 1.492c-2.324.093-4.673 0-7.001 0h-7.559a.559.559 0 0 0-.505.554.556.556 0 0 0 .505.554z" fill="#333"/>
    <path d="M41.344 28.524h-24.27a1.803 1.803 0 0 0-1.8 1.798 1.796 1.796 0 0 0 1.8 1.797h1.712a1.946 1.946 0 0 1 1.845 1.777c0 .985-.986 1.798-2.16 1.798h-5.107a1.802 1.802 0 0 0-1.895 1.794 1.794 1.794 0 0 0 1.177 1.687c.23.084.474.121.718.108h21.442a1.806 1.806 0 0 0 1.75-1.085 1.794 1.794 0 0 0-1.032-2.396 1.802 1.802 0 0 0-.718-.108h-.365c-1.194 0-2.166-.808-2.166-1.798a1.938 1.938 0 0 1 1.85-1.777h7.219a1.802 1.802 0 0 0 1.8-1.797 1.795 1.795 0 0 0-1.8-1.798z" fill="#fff"/>
    <path d="M41.344 27.987H24.125c-2.319 0-4.638-.034-6.962 0-2.111.03-3.325 2.64-1.638 4.116.775.68 1.747.586 2.704.586.383-.038.77.025 1.12.183a1.106 1.106 0 0 1 .67 1.288 1.103 1.103 0 0 1-.24.465c-.529.59-1.323.526-2.038.526h-2.719c-.548 0-1.105-.024-1.658 0a2.355 2.355 0 0 0-2.363 2.268 2.346 2.346 0 0 0 2.2 2.425H28.354c2.147 0 4.313.084 6.454 0a2.347 2.347 0 0 0 .163-4.692c-.558-.045-1.086.024-1.584-.316a1.08 1.08 0 0 1-.242-1.669c.494-.537 1.11-.492 1.767-.492h5.22c.458 0 .927.024 1.386 0a2.346 2.346 0 0 0-.163-4.692c-.715-.035-.715 1.072 0 1.107 1.48.064 1.668 2.26.173 2.462-.434.03-.87.03-1.303 0h-5.052a9.508 9.508 0 0 0-1.184 0c-1.219.143-2.339 1.182-2.245 2.462.094 1.28 1.258 2.073 2.427 2.181.435-.035.872.029 1.278.187a1.246 1.246 0 0 1 .444 1.7c-.459.782-1.48.615-2.245.615H14.92a7.54 7.54 0 0 1-1.885-.045c-1.397-.384-1.041-2.358.335-2.462.494-.03 1.031 0 1.54 0h2.65c.623.05 1.251 0 1.86-.147 1.114-.37 1.973-1.443 1.716-2.66a2.6 2.6 0 0 0-2.467-1.87c-.676-.035-1.623.187-2.24-.173-1.12-.655-.567-2.245.637-2.314 1.875-.108 3.794 0 5.674 0h18.586a.557.557 0 0 0 .02-1.039z" fill="#333"/>
    <path d="M47.102 32.138c.994 0 1.8-.804 1.8-1.797a1.8 1.8 0 0 0-1.8-1.797A1.8 1.8 0 0 0 45.3 30.34c0 .993.806 1.797 1.8 1.797z" fill="#fff"/>
    <path d="M45.854 30.336v-.148c0-.05 0-.025 0 0 .015-.08.035-.159.06-.236l.044-.133s-.044.088 0 0c.044-.089.089-.163.143-.242.054-.078-.044.05 0 0l.079-.088.07-.064s.127-.108.029-.035c.064-.044.128-.088.197-.128l.084-.044c.06-.025.054-.025 0 0l.069-.025c.076-.026.153-.047.232-.064.03 0 .138 0 0 0h.128c.082-.005.165-.005.247 0 .094 0-.123-.03 0 0l.143.03.133.044c.07.04.143.07.207.114l.099.064c.07.054-.089-.084 0 0 .089.083.133.127.197.196-.069-.074 0 0 0 0l.074.118.05.084s.069.158 0 .04c.03.073.054.15.074.226 0 .03 0 .064.024.094a.38.38 0 0 1 0 .074c.005.075.005.15 0 .226 0 0-.03.177 0 .044v.099c0 .079-.044.152-.069.231-.024.08.055-.088 0 .04l-.069.123a.679.679 0 0 1-.064.098c0 .025-.084.104 0 0-.054.06-.103.118-.163.173-.059.054-.113.098-.049.044a1.742 1.742 0 0 1-.306.177c-.044 0-.089.035-.133.045h-.538l-.281-.08c-.128-.044.044.04 0 0a1.315 1.315 0 0 0-.143-.073l-.08-.054a.448.448 0 0 1-.078-.054c.05.039.054.039 0 0l-.168-.168c-.103-.103.054.089-.03-.034a.95.95 0 0 1-.074-.119l-.069-.123c-.059-.098 0 .08 0-.039 0-.118-.054-.187-.079-.28-.024-.094 0-.104 0 0v-.203a.551.551 0 0 0-.942-.387.566.566 0 0 0-.168.387 2.38 2.38 0 0 0 1.564 2.211 2.353 2.353 0 0 0 2.586-.684 2.347 2.347 0 0 0-2.094-3.848 2.356 2.356 0 0 0-1.786 1.238 2.344 2.344 0 0 0-.27 1.084.57.57 0 0 0 .558.556.564.564 0 0 0 .562-.507z" fill="#333"/>
    <path d="M51.36 77.443c10.63 0 19.247-8.6 19.247-19.208 0-10.609-8.617-19.209-19.247-19.209-10.63 0-19.247 8.6-19.247 19.209 0 10.608 8.617 19.208 19.247 19.208z" fill="#DF357F"/>
    <path d="M70.054 58.236a18.574 18.574 0 0 1-5.24 12.869A18.648 18.648 0 0 1 52.1 76.759a18.653 18.653 0 0 1-13.092-4.718 18.568 18.568 0 0 1-1.954-25.697 18.658 18.658 0 0 1 25.652-2.961 18.586 18.586 0 0 1 7.348 14.853.555.555 0 0 0 .555.504.559.559 0 0 0 .555-.505 19.749 19.749 0 0 0-5.53-13.707 19.827 19.827 0 0 0-13.51-6.052 19.834 19.834 0 0 0-13.939 4.986 19.744 19.744 0 0 0-2.127 27.33 19.839 19.839 0 0 0 27.283 3.177 19.763 19.763 0 0 0 7.586-12.69c.153-1.008.232-2.025.237-3.044a.556.556 0 0 0-.93-.359.556.556 0 0 0-.18.36z" fill="#333"/>
    <path d="M51.36 74.528c9.016 0 16.326-7.295 16.326-16.293 0-8.999-7.31-16.294-16.327-16.294-9.016 0-16.326 7.295-16.326 16.294 0 8.998 7.31 16.293 16.326 16.293z" fill="#fff"/>
    <path d="M67.129 58.234a15.646 15.646 0 0 1-4.413 10.842 15.714 15.714 0 0 1-21.74.79 15.642 15.642 0 0 1-1.648-21.647 15.718 15.718 0 0 1 21.609-2.498 15.658 15.658 0 0 1 6.192 12.513.556.556 0 0 0 .93.36.557.557 0 0 0 .18-.36 16.822 16.822 0 0 0-4.717-11.672 16.894 16.894 0 0 0-23.378-.9 16.817 16.817 0 0 0-1.808 23.279 16.899 16.899 0 0 0 23.238 2.706 16.834 16.834 0 0 0 6.463-10.808c.129-.862.196-1.733.202-2.605a.557.557 0 0 0-1.11 0z" fill="#333"/>
    <path d="M51.36 74.528c9.016 0 16.326-7.295 16.326-16.293 0-8.999-7.31-16.294-16.327-16.294-9.016 0-16.326 7.295-16.326 16.294 0 8.998 7.31 16.293 16.326 16.293z" fill="#fff"/>
    <path d="M67.129 58.234a15.646 15.646 0 0 1-4.413 10.842 15.714 15.714 0 0 1-21.74.79 15.642 15.642 0 0 1-1.648-21.647 15.718 15.718 0 0 1 21.609-2.498 15.658 15.658 0 0 1 6.192 12.513.556.556 0 0 0 .93.36.557.557 0 0 0 .18-.36 16.822 16.822 0 0 0-4.717-11.672 16.894 16.894 0 0 0-23.378-.9 16.817 16.817 0 0 0-1.808 23.279 16.899 16.899 0 0 0 23.238 2.706 16.834 16.834 0 0 0 6.463-10.808c.129-.862.196-1.733.202-2.605a.557.557 0 0 0-1.11 0z" fill="#333"/>
    <path d="M44.917 70.19a13.608 13.608 0 0 1-6.377-7.445 13.574 13.574 0 0 1 .288-9.789" fill="#fff"/>
    <path d="M45.198 69.707a13.017 13.017 0 0 1-6.157-7.17 12.985 12.985 0 0 1 .325-9.438c.272-.66-.799-.945-1.07-.296a14.253 14.253 0 0 0-.228 10.133 14.286 14.286 0 0 0 6.568 7.732c.626.34 1.189-.616.562-.985v.024z" fill="#333"/>
    <path d="M62.58 50.559a13.57 13.57 0 0 1 1.313 12.96" fill="#fff"/>
    <path d="M62.101 50.84a13.228 13.228 0 0 1 1.258 12.53c-.276.656.8.946 1.071.296a14.252 14.252 0 0 0-1.372-13.388c-.4-.586-1.361-.034-.957.562z" fill="#333"/>
    <path d="M51.36 44.66c2.24 0 4.443.556 6.414 1.614L51.36 44.66z" fill="#fff"/>
    <path d="M51.36 45.215a13.16 13.16 0 0 1 6.157 1.537c.632.334 1.194-.62.563-.956a14.406 14.406 0 0 0-6.72-1.689.558.558 0 0 0-.505.554.556.556 0 0 0 .505.554z" fill="#333"/>
    <path d="M50.028 66.813a.573.573 0 0 1-.568-.562v-1.447a7.824 7.824 0 0 1-2.792-.901A4.673 4.673 0 0 1 45 62.352a3.697 3.697 0 0 1-.577-1.881.446.446 0 0 1 .138-.325.431.431 0 0 1 .326-.138h3.986c.17-.007.339.025.494.093.137.076.267.164.39.261.135.098.279.185.429.261.155.08.321.137.493.168.205.039.413.057.622.054a3.46 3.46 0 0 0 1.144-.158c.286-.105.43-.248.43-.428a.493.493 0 0 0-.242-.419 2.619 2.619 0 0 0-.829-.305 17.014 17.014 0 0 0-1.638-.26 10.76 10.76 0 0 1-2.877-.774 4.44 4.44 0 0 1-1.874-1.477 3.973 3.973 0 0 1-.662-2.34 4.095 4.095 0 0 1 1.268-3.047 6.311 6.311 0 0 1 3.41-1.62V48.54a.57.57 0 0 1 .567-.566h2.541a.573.573 0 0 1 .567.566v1.531a6.917 6.917 0 0 1 2.507.985c.617.4 1.149.92 1.564 1.527.33.468.526 1.018.567 1.59a.446.446 0 0 1-.138.325.42.42 0 0 1-.306.138h-4.194a1.152 1.152 0 0 1-.493-.084 1.542 1.542 0 0 1-.37-.251 1.588 1.588 0 0 0-.385-.241 1.7 1.7 0 0 0-.725-.138 1.438 1.438 0 0 0-.765.157.493.493 0 0 0-.054.788 1.7 1.7 0 0 0 .696.29c.477.11.96.194 1.445.252 1.156.11 2.29.383 3.37.807a3.946 3.946 0 0 1 1.845 1.477c.406.692.606 1.484.578 2.285a4.006 4.006 0 0 1-.662 2.27 5.033 5.033 0 0 1-1.825 1.635 8.346 8.346 0 0 1-2.674.891v1.477a.57.57 0 0 1-.568.562h-2.491z" fill="#DF357F"/>
</svg>
