<svg width="265" height="160" fill="none" xmlns="http://www.w3.org/2000/svg" viewBox="0 0 265 160">
    <path opacity=".15" d="M10.7 84.36a2.73 2.73 0 0 1-2.7-2.7v-10.4c.047-.79.147-1.575.3-2.35a4.75 4.75 0 0 1 2.2-3l1.1-.8c7-5.06 12.85-9.327 17.55-12.8a82.096 82.096 0 0 0 10.6-9c2.37-2.5 3.55-4.71 3.55-6.65a7.56 7.56 0 0 0-.5-2.7c-.33-.86-1.37-1.3-3.1-1.3a4.63 4.63 0 0 0-3.1 1 5.93 5.93 0 0 0-1.6 2.15c-.33.8-.6 1.47-.8 2a2.939 2.939 0 0 1-1.55 1.85 6.193 6.193 0 0 1-2.45.45H11.4a2.1 2.1 0 0 1-1.55-.65 2.12 2.12 0 0 1-.65-1.55 23 23 0 0 1 2.45-10.25 24.439 24.439 0 0 1 6.45-7.85 29.512 29.512 0 0 1 9.6-5.05 39.297 39.297 0 0 1 11.9-1.75 43 43 0 0 1 15.8 2.65 23.12 23.12 0 0 1 10.4 7.65 19.77 19.77 0 0 1 3.7 12.1 20.11 20.11 0 0 1-2.7 10.2c-2 3.398-4.55 6.44-7.55 9a124.014 124.014 0 0 1-11.35 8.75l-.7.5h21.1a2.73 2.73 0 0 1 2.7 2.7v15.2a2.73 2.73 0 0 1-2.7 2.7l-57.6-.1z" fill="#DF357F"/>
    <path d="M142.797 134.306c30.099 0 54.5-24.401 54.5-54.5 0-30.1-24.401-54.5-54.5-54.5-30.1 0-54.5 24.4-54.5 54.5 0 30.099 24.4 54.5 54.5 54.5z" fill="#F6F2EF"/>
    <path d="M142.397 129.506c27.89 0 50.5-22.61 50.5-50.5s-22.61-50.5-50.5-50.5-50.5 22.61-50.5 50.5 22.61 50.5 50.5 50.5z" fill="#F6F2EF"/>
    <path d="M182.697 26.906h-84.7v107.6h84.7v-107.6z" fill="#fff"/>
    <path d="M182.597 133.406h-84.7l1.1 1.1v-103.3c0-1.3.3-2.9 0-4.2v-.2l-1.1 1.1h84.7l-1.1-1.1v103.3c0 1.4-.1 2.8 0 4.2v.2c0 1.4 2.2 1.5 2.2 0v-103.3c0-1.4.1-2.8 0-4.2v-.2c0-.6-.5-1.1-1.1-1.1h-84.7c-.6 0-1.1.5-1.1 1.1v103.3c0 1.4-.1 2.8 0 4.2v.2c0 .6.5 1.1 1.1 1.1h84.7c1.5.1 1.5-2.2 0-2.2z" fill="#333"/>
    <path d="M161.397 86.706h-42.1v-33.9l21.1-9.4 21 9.4v33.9z" fill="#fff"/>
    <path d="M161.397 85.606H119.297l1.1 1.1v-33.9c-.2.3-.4.6-.6 1 6.1-2.7 12.3-5.4 18.4-8.2l2.7-1.2h-1.1c6.1 2.7 12.2 5.5 18.4 8.2.9.4 1.7.8 2.6 1.2-.2-.3-.4-.6-.6-1v33.9c0 1.4 2.2 1.5 2.2 0v-33.9c0-.4-.2-.8-.6-1-6.2-2.8-12.5-5.6-18.7-8.3-.8-.3-1.5-.7-2.3-1-.9-.3-1.8.3-2.6.7l-10.8 4.8c-2.9 1.3-5.9 2.6-8.8 3.9-.4.2-.6.6-.6 1v33.9c0 .6.5 1.1 1.1 1.1H161.197c1.6-.1 1.6-2.3.2-2.3z" fill="#333"/>
    <path d="m140.397 39.406-25.3 11.2v6.6l25.3-11.2 25.2 11.2v-6.6l-25.2-11.2z" fill="#DF357F"/>
    <path d="M139.797 38.406c-7.4 3.3-14.7 6.5-22.1 9.8-1.1.5-2.1.9-3.2 1.4-.4.2-.6.6-.6 1v6.6c0 .9.9 1.3 1.7 1 7.4-3.3 14.7-6.5 22.1-9.8 1.1-.5 2.1-.9 3.2-1.4h-1.1c7.4 3.3 14.7 6.6 22.1 9.8 1 .5 2.1.9 3.1 1.4.8.3 1.7 0 1.7-1v-6.6c0-.4-.2-.8-.6-1-7.4-3.3-14.7-6.6-22.1-9.8-1-.5-2.1-.9-3.1-1.4-1.3-.6-2.5 1.4-1.1 1.9 7.4 3.3 14.7 6.6 22.1 9.8 1 .5 2.1.9 3.1 1.4-.2-.3-.4-.6-.6-1v6.6c.6-.3 1.1-.6 1.7-1-7.5-3.3-14.9-6.7-22.4-10-.9-.4-1.9-.9-2.8-1.3-.9-.3-2 .4-2.9.8-4.3 1.9-8.7 3.9-13 5.8-3.5 1.6-7 3.1-10.5 4.7.6.3 1.1.6 1.7 1v-6.6c-.2.3-.4.6-.6 1 7.4-3.3 14.7-6.5 22.1-9.8 1.1-.5 2.1-.9 3.2-1.4 1.4-.5.2-2.5-1.1-1.9z" fill="#333"/>
    <path d="M147.497 65.806h-14.4v20.9h14.4v-20.9z" fill="#DF357F"/>
    <path d="M147.497 85.606h-14.4l1.1 1.1V65.806l-1.1 1.1h14.4l-1.1-1.1V86.706c0 1.4 2.2 1.5 2.2 0V65.806c0-.6-.5-1.1-1.1-1.1h-14.4c-.6 0-1.1.5-1.1 1.1V86.706c0 .6.5 1.1 1.1 1.1h14.4c1.4 0 1.4-2.2 0-2.2z" fill="#333"/>
    <path d="M170.597 95.406h-60.6v5h60.6v-5zM170.597 105.406h-60.6v5h60.6v-5zM147.497 115.306h-37.5v5h37.5v-5z" fill="#CCC"/>
    <path d="M129.297 64.406h-3.9c-.6 0-1.1-.5-1.1-1.1v-3.9c0-.6.5-1.1 1.1-1.1h3.9c.6 0 1.1.5 1.1 1.1v3.9c0 .6-.5 1.1-1.1 1.1zM154.697 64.406h-3.9c-.6 0-1.1-.5-1.1-1.1v-3.9c0-.6.5-1.1 1.1-1.1h3.9c.6 0 1.1.5 1.1 1.1v3.9c0 .6-.5 1.1-1.1 1.1z" fill="#333"/>
    <path d="M177.697 110.606c-.1 5-3.2 9.7-8 11.4-4.8 1.7-10.3.2-13.6-3.8-3.2-3.9-3.5-9.6-.9-13.9 2.6-4.3 7.8-6.6 12.7-5.6 5.7 1.2 9.7 6.1 9.8 11.9 0 1.9 3 1.9 3 0-.1-6.3-4-11.9-9.9-14.2-5.9-2.2-12.8-.4-16.8 4.5-4.1 4.9-4.7 12-1.4 17.5 3.3 5.4 9.7 8.2 15.9 7 7-1.3 12.1-7.7 12.1-14.8.1-1.9-2.9-1.9-2.9 0z" fill="#DF357F"/>
    <path d="M157.297 110.106c1.4 2.1 2.8 4.1 4.2 6.2.5.8 1.6 1 2.4.3 2.8-2.8 5.7-5.6 8.5-8.4l1.2-1.2c1.4-1.4-.7-3.5-2.1-2.1-2.8 2.8-5.7 5.6-8.5 8.4l-1.2 1.2 2.4.3c-1.4-2.1-2.8-4.1-4.2-6.2-.5-.7-1.3-1-2.1-.5-.8.3-1.1 1.3-.6 2zM112.297 126.605h-28.7v7.9h28.7v-7.9z" fill="#DF357F"/>
    <path d="M112.297 125.506h-28.6c-.6 0-1.1.5-1.1 1.1v7.9c0 .6.5 1.1 1.1 1.1h28.6c.6 0 1.1-.5 1.1-1.1v-7.9c0-1.4-2.2-1.5-2.2 0v7.9l1.1-1.1h-28.6l1.1 1.1v-7.9l-1.1 1.1h28.6c1.5 0 1.5-2.2 0-2.2z" fill="#333"/>
    <path d="M103.997 119.106h-12c-1.7 0-3.1 1.4-3.1 3.1v1.3c0 1.7 1.4 3.1 3.1 3.1h11.9c1.7 0 3.1-1.4 3.1-3.1v-1.3c0-1.7-1.3-3.1-3-3.1z" fill="#fff"/>
    <path d="M103.997 118.006h-11.9c-2.4.1-4.2 1.8-4.3 4.2 0 .9-.1 1.9.3 2.8.5 1.3 1.6 2.2 2.9 2.6 1 .3 2.3.1 3.3.1h9.4c2.5 0 4.4-1.7 4.4-4.2 0-1.1 0-2.2-.5-3.3-.7-1.4-2.1-2.1-3.6-2.2-1.4-.1-1.4 2.2 0 2.2 1.9.1 2.2 2.2 1.9 3.7-.3 1.3-1.5 1.5-2.6 1.5h-11.2c-1.9-.1-2-1.7-2-3.2 0-1.4 1.1-2 2.4-2h11.5c1.4.1 1.4-2.2 0-2.2z" fill="#333"/>
    <path d="M107.797 96.306c-.4-6.5-9.9-5.7-9.9-5.7s-9.5-.8-9.9 5.7c-.4 6.5 4.5 22.9 4.5 22.9h10.6c.2-.1 5.1-16.4 4.7-22.9z" fill="#DF357F"/>
    <path d="M108.997 96.306c-.6-6.7-8.3-7.3-13.6-6.8-3.9.4-7.9 2.2-8.3 6.5-.3 1.9 0 3.9.3 5.8.4 2.5.9 4.9 1.4 7.3.8 3.5 1.7 6.9 2.7 10.3.1.5.6.8 1.1.8h10.6c.5 0 .9-.4 1.1-.8.9-3 1.7-6.1 2.5-9.1 1.1-4.5 2.4-9.4 2.2-14-.1-1.4-2.3-1.4-2.2 0 .2 4.6-1 9.3-2.1 13.7-.7 3-1.5 5.9-2.4 8.9.4-.3.7-.6 1.1-.8h-10.6c.4.3.7.6 1.1.8-1.9-6.4-3.8-13-4.4-19.7-.1-1.6-.4-3.5.6-4.9.9-1.3 2.5-2 4-2.3 1.6-.4 3.3-.3 4.9-.3 3.1 0 7.5.8 7.8 4.6 0 1.4 2.3 1.4 2.2 0z" fill="#333"/>
    <path d="M91.897 101.406s2.2 11.1 2.9 12.9l-2.9-12.9z" fill="#F0D227"/>
    <path d="M90.797 101.707c.7 3.5 1.4 7 2.3 10.5l.6 2.4c.2.6.8 1 1.4.8.5-.2 1-.8.8-1.4-.6-1.6-.9-3.4-1.3-5.1-.5-2.1-.9-4.2-1.3-6.3-.1-.5-.2-1-.3-1.4-.3-1.5-2.5-.9-2.2.5z" fill="#333"/>
    <path d="M194.896 26.006c-1 1.6-3.2 2.7-5 3.3 1.8-.1 3.8-.1 5.1 1.1.6.6 1 1.4 1.3 2.2.7 1.6 1.3 3.1 1.9 4.8.1-1.5.4-3 .7-4.5.1-.6.2-1.1.5-1.7.9-1.7 3.2-2.2 5.1-2.4-1-.5-2.1-.9-3.1-1.5-.7-.3-1.3-.7-1.9-1.1-2-1.6-2.7-4.5-3.1-7 0-.1-.2 4.7-1.5 6.8z" fill="#F0D227"/>
    <path d="M193.897 25.406c-1 1.5-2.7 2.3-4.3 2.8-1.2.4-1 2.3.3 2.2 1.6-.1 3.7-.2 4.7 1.3 1.1 1.7 1.8 4 2.5 5.9.4 1.2 2.1 1 2.2-.3.1-1.1.2-2.1.4-3.2.2-.9.2-2 .8-2.7.9-1.2 2.7-1.4 4-1.5 1-.1 1.7-1.6.6-2.1-1.9-.9-4.5-1.7-5.7-3.5-1.1-1.6-1.5-3.6-1.9-5.5-.2-1.3-2.2-.9-2.2.3-.1 2.1-.3 4.5-1.4 6.3-.7 1.3 1.2 2.4 1.9 1.1 1.3-2.1 1.6-5 1.7-7.4-.7.1-1.5.2-2.2.3.4 2.2.9 4.4 2.2 6.3 1.5 2.1 4.1 3 6.4 4.1l.6-2.1c-2 .2-4.2.6-5.6 2.2-.8.9-1 2-1.2 3.2-.3 1.4-.5 2.8-.6 4.3.7-.1 1.5-.2 2.2-.3-.5-1.3-1-2.6-1.5-3.8-.5-1.1-.9-2.3-1.7-3.3-1.5-1.8-4-1.9-6.2-1.8.1.7.2 1.5.3 2.2 2.2-.7 4.4-1.8 5.7-3.8.7-1.3-1.2-2.4-2-1.2z" fill="#333"/>
    <path d="M79.697 73.706c-.9 1.5-2.9 2.5-4.5 3 1.6-.1 3.4-.1 4.6 1 .6.5.9 1.3 1.2 2 .6 1.4 1.2 2.9 1.7 4.3.1-1.4.3-2.7.6-4.1.1-.5.2-1 .5-1.5.9-1.6 2.9-2 4.7-2.2-.9-.4-1.9-.9-2.8-1.3-.6-.3-1.2-.6-1.7-1-1.9-1.5-2.4-4-2.8-6.4-.1 0-.3 4.2-1.5 6.2z" fill="#F0D227"/>
    <path d="M78.697 73.105c-.8 1.3-2.4 2-3.9 2.4-1.2.4-1 2.3.3 2.2 1.4-.1 3.3-.2 4.2 1.2 1 1.6 1.6 3.6 2.3 5.3.4 1.2 2.1 1 2.2-.3.1-1 .2-1.9.4-2.8.1-.8.2-1.8.7-2.4.8-1 2.4-1.2 3.5-1.4.5-.1.9-.3 1.1-.8.1-.4-.1-1.1-.5-1.3-1.7-.8-4-1.5-5.2-3.1-1-1.4-1.4-3.3-1.7-5-.2-1.3-2.2-.9-2.2.3 0 1.9-.2 4.1-1.2 5.7-.7 1.3 1.2 2.4 1.9 1.1 1.2-2 1.4-4.5 1.5-6.8-.7.1-1.5.2-2.2.3.4 2 .8 4 2 5.7 1.4 1.9 3.7 2.8 5.8 3.7l.6-2.1c-1.8.2-3.9.6-5.2 2-.7.8-1 1.9-1.2 2.9l-.6 3.9c.7-.1 1.5-.2 2.2-.3-.4-1.2-.9-2.3-1.4-3.5-.4-1.1-.8-2.2-1.6-3-1.4-1.6-3.7-1.7-5.7-1.6.1.7.2 1.5.3 2.2 2-.6 4-1.7 5.2-3.5 1.2-1.1-.8-2.2-1.6-1z" fill="#333"/>
</svg>
