<svg width="120" height="80" fill="none" xmlns="http://www.w3.org/2000/svg">
    <path opacity=".15" d="M3.51 42.956A1.52 1.52 0 0 1 2 41.446v-5.81c.023-.44.077-.878.16-1.31a2.71 2.71 0 0 1 1.23-1.71l.62-.44c3.907-2.834 7.177-5.22 9.81-7.16a45.445 45.445 0 0 0 5.92-5c1.32-1.39 2-2.63 2-3.71a4.092 4.092 0 0 0-.28-1.51c-.18-.49-.76-.73-1.73-.73a2.59 2.59 0 0 0-1.73.53c-.386.325-.69.736-.89 1.2-.19.45-.34.82-.45 1.12a1.64 1.64 0 0 1-.87 1c-.434.18-.9.268-1.37.26H3.9a1.16 1.16 0 0 1-.87-.37 1.18 1.18 0 0 1-.36-.86c0-1.992.469-3.955 1.37-5.73a13.44 13.44 0 0 1 3.6-4.39 16.37 16.37 0 0 1 5.37-2.82 21.81 21.81 0 0 1 6.65-1 24 24 0 0 1 8.82 1.48 13 13 0 0 1 5.82 4.28 11.84 11.84 0 0 1 .55 12.46 19.843 19.843 0 0 1-4.21 5 69.633 69.633 0 0 1-6.35 4.9l-.39.28h11.79a1.52 1.52 0 0 1 1.51 1.51v8.49a1.52 1.52 0 0 1-1.51 1.51l-32.18.04z" fill="#DF357F"/>
    <path d="M68.327 68.711c16.768 0 30.362-13.593 30.362-30.362 0-16.768-13.594-30.362-30.362-30.362-16.769 0-30.362 13.594-30.362 30.362 0 16.769 13.593 30.362 30.362 30.362z" fill="#F6F2EF"/>
    <path d="M68.104 66.037c15.538 0 28.134-12.595 28.134-28.133 0-15.538-12.596-28.133-28.134-28.133S39.971 22.366 39.971 37.904c0 15.538 12.596 28.133 28.133 28.133z" fill="#F6F2EF"/>
    <path d="M90.554 8.88H43.368v59.944h47.186V8.88z" fill="#fff"/>
    <path d="M90.499 68.21H43.312l.613.613V11.275c0-.724.167-1.616 0-2.34v-.111l-.613.613H90.5l-.613-.613v57.548c0 .78-.056 1.56 0 2.34v.111c0 .78 1.226.836 1.226 0V11.275c0-.78.055-1.56 0-2.34v-.111a.618.618 0 0 0-.613-.613H43.312a.618.618 0 0 0-.612.613v57.548c0 .78-.056 1.56 0 2.34v.111c0 .335.278.613.612.613H90.5c.835.056.835-1.226 0-1.226z" fill="#333"/>
    <path d="M78.688 42.195H55.234V23.309l11.755-5.237 11.7 5.237v18.886z" fill="#fff"/>
    <path d="M78.689 41.58H55.235l.613.613V23.308c-.112.167-.223.334-.334.557 3.398-1.504 6.852-3.008 10.25-4.568l1.504-.669h-.612c3.398 1.504 6.796 3.064 10.25 4.568.501.223.947.446 1.449.669-.112-.167-.223-.334-.335-.557v18.885c0 .78 1.226.836 1.226 0V23.308a.613.613 0 0 0-.334-.557 849.066 849.066 0 0 0-10.418-4.624c-.446-.167-.836-.39-1.281-.557-.502-.168-1.003.167-1.449.39-2.005.89-4.011 1.782-6.016 2.674-1.616.724-3.287 1.448-4.903 2.172a.613.613 0 0 0-.334.557V42.25c0 .334.278.613.613.613h23.453c.892-.056.892-1.282.112-1.282z" fill="#333"/>
    <path d="m66.99 15.844-14.095 6.24v3.676l14.094-6.24 14.039 6.24v-3.677l-14.039-6.24z" fill="#DF357F"/>
    <path d="M66.655 15.287c-4.122 1.838-8.189 3.62-12.312 5.46-.612.278-1.17.5-1.782.78a.613.613 0 0 0-.334.556v3.677c0 .501.501.724.947.557 4.122-1.838 8.189-3.621 12.312-5.46.612-.278 1.17-.5 1.782-.78h-.613c4.123 1.839 8.19 3.677 12.312 5.46.557.279 1.17.502 1.727.78.446.167.947 0 .947-.557v-3.677a.613.613 0 0 0-.334-.557c-4.122-1.838-8.19-3.677-12.312-5.46-.557-.278-1.17-.5-1.727-.78-.724-.334-1.392.78-.613 1.059 4.123 1.838 8.19 3.677 12.312 5.46.557.278 1.17.501 1.727.78-.111-.168-.222-.335-.334-.558v3.677c.334-.167.613-.334.947-.557-4.178-1.838-8.3-3.732-12.479-5.57-.501-.224-1.058-.502-1.56-.725-.501-.167-1.114.223-1.615.446-2.396 1.058-4.847 2.172-7.243 3.23-1.95.892-3.9 1.728-5.85 2.62.335.166.614.334.948.556v-3.677c-.111.168-.223.335-.334.558 4.122-1.839 8.189-3.622 12.312-5.46.612-.279 1.17-.501 1.782-.78.78-.278.112-1.393-.613-1.058z" fill="#333"/>
    <path d="M70.944 30.55h-8.022v11.643h8.022V30.55z" fill="#DF357F"/>
    <path d="M70.944 41.58H62.92l.613.614V30.55l-.613.613h8.023l-.613-.613v11.644c0 .78 1.225.835 1.225 0V30.55a.618.618 0 0 0-.612-.613H62.92a.618.618 0 0 0-.612.613v11.644c0 .334.278.612.612.612h8.023c.78 0 .78-1.225 0-1.225z" fill="#333"/>
    <path d="M83.813 47.041h-33.76v2.786h33.76V47.04zM83.813 52.611h-33.76v2.786h33.76V52.61zM70.944 58.127H50.053v2.785h20.89v-2.785z" fill="#CCC"/>
    <path d="M60.806 29.77h-2.173a.618.618 0 0 1-.613-.612v-2.173c0-.334.28-.613.613-.613h2.173c.334 0 .613.279.613.613v2.173a.618.618 0 0 1-.613.612zM74.956 29.77h-2.172a.618.618 0 0 1-.613-.612v-2.173c0-.334.278-.613.613-.613h2.172c.335 0 .613.279.613.613v2.173a.618.618 0 0 1-.613.612z" fill="#333"/>
    <path d="M87.769 55.508c-.056 2.786-1.783 5.404-4.457 6.351-2.674.947-5.738.112-7.576-2.117-1.783-2.172-1.95-5.348-.502-7.743 1.449-2.396 4.346-3.677 7.075-3.12 3.176.668 5.404 3.398 5.46 6.63 0 1.058 1.671 1.058 1.671 0a8.634 8.634 0 0 0-5.515-7.911c-3.287-1.226-7.131-.223-9.36 2.507-2.284 2.73-2.618 6.685-.78 9.749 1.84 3.008 5.405 4.568 8.859 3.9 3.9-.725 6.74-4.29 6.74-8.246.056-1.058-1.615-1.058-1.615 0z" fill="#DF357F"/>
    <path d="M76.405 55.231c.78 1.17 1.56 2.284 2.34 3.454.278.446.89.557 1.337.167 1.56-1.56 3.175-3.12 4.735-4.68l.668-.668c.78-.78-.39-1.95-1.17-1.17-1.56 1.56-3.175 3.12-4.735 4.68l-.668.668 1.337.168c-.78-1.17-1.56-2.285-2.34-3.454-.279-.39-.724-.557-1.17-.279a.737.737 0 0 0-.334 1.114zM51.335 64.422H35.347v4.401h15.988v-4.401z" fill="#DF357F"/>
    <path d="M51.335 63.81H35.402a.618.618 0 0 0-.613.612v4.401c0 .335.279.613.613.613h15.933a.618.618 0 0 0 .613-.613v-4.4c0-.78-1.226-.836-1.226 0v4.4l.613-.612H35.402l.613.612v-4.4l-.613.612h15.933c.835 0 .835-1.225 0-1.225z" fill="#333"/>
    <path d="M46.711 60.244h-6.685c-.947 0-1.727.78-1.727 1.727v.724c0 .947.78 1.727 1.727 1.727h6.63c.946 0 1.726-.78 1.726-1.727v-.724c0-.947-.724-1.727-1.671-1.727z" fill="#fff"/>
    <path d="M46.71 59.63h-6.63c-1.337.056-2.34 1.003-2.395 2.34 0 .502-.056 1.059.167 1.56.279.725.891 1.226 1.616 1.449.557.167 1.28.055 1.838.055h5.237c1.392 0 2.451-.947 2.451-2.34 0-.612 0-1.225-.279-1.838-.39-.78-1.17-1.17-2.005-1.225-.78-.056-.78 1.225 0 1.225 1.058.056 1.225 1.226 1.058 2.062-.167.724-.835.835-1.448.835h-6.24c-1.058-.056-1.114-.947-1.114-1.782 0-.78.613-1.115 1.337-1.115H46.71c.78.056.78-1.225 0-1.225z" fill="#333"/>
    <path d="M48.828 47.542c-.223-3.62-5.516-3.175-5.516-3.175s-5.292-.446-5.515 3.175c-.223 3.622 2.507 12.758 2.507 12.758H46.21c.112-.056 2.841-9.136 2.619-12.758z" fill="#DF357F"/>
    <path d="M49.497 47.542c-.334-3.732-4.624-4.067-7.576-3.788-2.173.223-4.401 1.226-4.624 3.621-.167 1.059 0 2.173.167 3.231.223 1.393.501 2.73.78 4.067.446 1.95.947 3.844 1.504 5.738.056.279.334.446.613.446h5.905c.279 0 .501-.223.613-.446.501-1.671.947-3.398 1.393-5.07.612-2.506 1.337-5.236 1.225-7.799-.056-.78-1.281-.78-1.225 0 .111 2.563-.557 5.181-1.17 7.633a81.743 81.743 0 0 1-1.337 4.958c.222-.167.39-.335.612-.446h-5.905c.223.167.39.334.613.446-1.058-3.566-2.117-7.242-2.451-10.975-.056-.892-.223-1.95.334-2.73.501-.724 1.393-1.114 2.228-1.281.892-.223 1.839-.167 2.73-.167 1.727 0 4.178.445 4.346 2.562 0 .78 1.28.78 1.225 0z" fill="#333"/>
    <path d="M39.97 50.384s1.226 6.184 1.616 7.186l-1.615-7.186z" fill="#F0D227"/>
    <path d="M39.357 50.55c.39 1.95.78 3.9 1.282 5.85l.334 1.337c.111.334.446.557.78.446.279-.112.557-.446.446-.78-.335-.892-.502-1.894-.725-2.841-.278-1.17-.501-2.34-.724-3.51a18.085 18.085 0 0 0-.167-.78c-.167-.836-1.393-.501-1.226.279z" fill="#333"/>
    <path d="M97.35 8.377c-.556.891-1.782 1.504-2.785 1.838 1.003-.055 2.117-.055 2.842.613.334.335.557.78.724 1.226.39.891.724 1.727 1.058 2.674.056-.836.223-1.671.39-2.507.056-.334.112-.613.279-.947.501-.947 1.783-1.226 2.841-1.337-.557-.279-1.17-.501-1.727-.836-.39-.167-.724-.39-1.058-.613-1.115-.89-1.505-2.507-1.727-3.9 0-.055-.112 2.62-.836 3.789z" fill="#F0D227"/>
    <path d="M96.794 8.044c-.557.835-1.504 1.28-2.395 1.56-.668.222-.557 1.28.167 1.225.891-.056 2.061-.111 2.618.724.613.947 1.003 2.229 1.393 3.287.223.669 1.17.557 1.226-.167.056-.613.111-1.17.223-1.783.111-.501.111-1.114.445-1.504.502-.668 1.505-.78 2.229-.835.557-.056.947-.892.334-1.17-1.058-.502-2.507-.947-3.175-1.95-.613-.892-.836-2.006-1.059-3.064-.111-.724-1.225-.502-1.225.167-.056 1.17-.168 2.507-.78 3.51-.39.724.668 1.337 1.058.612.724-1.17.891-2.785.947-4.122-.39.056-.836.111-1.225.167.222 1.226.5 2.451 1.225 3.51.836 1.17 2.284 1.671 3.566 2.284l.334-1.17c-1.114.111-2.34.334-3.12 1.226-.446.5-.557 1.114-.668 1.782a16.54 16.54 0 0 0-.335 2.396c.39-.056.836-.112 1.226-.167-.279-.725-.557-1.449-.836-2.117-.278-.613-.501-1.282-.947-1.839-.835-1.003-2.228-1.058-3.454-1.003.056.39.111.836.167 1.226 1.226-.39 2.451-1.003 3.176-2.117.39-.724-.669-1.337-1.115-.668z" fill="#333"/>
    <path d="M33.174 34.952c-.502.836-1.616 1.393-2.507 1.671.891-.055 1.894-.055 2.563.558.334.278.501.724.668 1.114.334.78.669 1.615.947 2.395.056-.78.167-1.504.334-2.284.056-.279.112-.557.279-.836.501-.89 1.616-1.114 2.618-1.225-.501-.223-1.058-.502-1.56-.724-.334-.168-.668-.335-.947-.558-1.058-.835-1.337-2.228-1.56-3.565-.055 0-.166 2.34-.835 3.454z" fill="#F0D227"/>
    <path d="M32.617 34.617c-.446.724-1.337 1.114-2.173 1.337-.669.222-.557 1.28.167 1.225.78-.056 1.838-.111 2.34.669.557.891.891 2.005 1.281 2.952.223.669 1.17.558 1.226-.167.056-.557.111-1.058.223-1.56.055-.445.111-1.002.39-1.337.445-.557 1.337-.668 1.95-.78.278-.055.5-.167.612-.445.056-.223-.055-.613-.278-.725-.947-.445-2.229-.835-2.897-1.727-.557-.78-.78-1.838-.947-2.785-.112-.724-1.226-.501-1.226.167 0 1.059-.111 2.284-.668 3.176-.39.724.668 1.337 1.058.612.669-1.114.78-2.507.836-3.788-.39.056-.836.111-1.226.167.223 1.114.446 2.229 1.114 3.176.78 1.058 2.062 1.56 3.231 2.061l.335-1.17c-1.003.111-2.173.334-2.897 1.114-.39.446-.557 1.059-.669 1.616l-.334 2.172c.39-.055.836-.11 1.226-.167-.223-.668-.502-1.28-.78-1.95-.223-.612-.446-1.225-.892-1.67-.78-.892-2.06-.948-3.175-.892.056.39.111.836.167 1.225 1.114-.334 2.228-.947 2.897-1.95.668-.612-.446-1.225-.891-.556z" fill="#333"/>
</svg>
