<svg width="265" height="160" fill="none" xmlns="http://www.w3.org/2000/svg" viewBox="0 0 265 160">
    <path d="M144.537 146C179.034 146 207 118.066 207 83.61c0-34.458-27.966-62.391-62.463-62.391-34.498 0-62.463 27.933-62.463 62.39S110.039 146 144.537 146z" fill="#F6F2EF"/>
    <path d="M199.878 41.077H89.206a5.216 5.216 0 0 0-5.22 5.213v74.638a5.216 5.216 0 0 0 5.22 5.213h110.672a5.216 5.216 0 0 0 5.22-5.213V46.29a5.217 5.217 0 0 0-5.22-5.213z" fill="#fff"/>
    <path d="M199.878 125.017H90.7c-1.654 0-3.258.06-4.513-1.313s-1.085-3.303-1.085-5.084V59.523c0-4.378-.12-8.775 0-13.153.07-2.726 2.19-4.168 4.701-4.168h109.856a4.258 4.258 0 0 1 4.071 2.808c.2.553.282 1.142.242 1.728V120.85a4.149 4.149 0 0 1-4.094 4.168c-1.444 0-1.444 2.289 0 2.239a6.406 6.406 0 0 0 6.285-5.651c.047-.473.063-.948.05-1.423V46.748a6.495 6.495 0 0 0-3.848-6.233 6.512 6.512 0 0 0-2.517-.562H89.763c-3.536 0-6.654 2.259-6.893 5.97-.08 1.183 0 2.387 0 3.571v68.967c0 1.721-.149 3.502.598 5.114 1.245 2.686 3.855 3.661 6.624 3.661h109.786a1.121 1.121 0 0 0 0-2.219z" fill="#333"/>
    <path d="M205.107 53.802H83.977V43.097a1.989 1.989 0 0 1 1.991-1.99h117.147a1.994 1.994 0 0 1 1.992 1.99v10.705z" fill="#DF357F"/>
    <path d="M205.107 52.688H88.937c-1.582-.13-3.17-.13-4.752 0a1.46 1.46 0 0 1-.209 0l1.126 1.114v-7.521c0-1.095-.558-3.98.996-4.08 1.892-.139 3.864 0 5.767 0h110.424c.796 0 1.524-.09 1.683.995.075 1.07.075 2.144 0 3.214v7.402a1.123 1.123 0 0 0 1.12 1.019 1.125 1.125 0 0 0 1.121-1.019v-7.86c0-.945.05-1.9 0-2.845a3.201 3.201 0 0 0-3.147-3.134c-1.694-.08-3.407 0-5.1 0H86.446a3.28 3.28 0 0 0-3.24 1.88 3.27 3.27 0 0 0-.306 1.284c-.13 2.666 0 5.372 0 8.048v2.627a1.133 1.133 0 0 0 1.116 1.124h106.15c4.881 0 9.822.19 14.702 0h.2a1.126 1.126 0 0 0 1.145-1.104 1.122 1.122 0 0 0-1.106-1.144z" fill="#333"/>
    <path d="M151.958 87.54H94.793v3.93h57.165v-3.93zM152.087 79.022H94.923v3.93h57.164v-3.93zM130.273 96.285h-35.35v3.93h35.35v-3.93z" fill="#CCC"/>
    <path d="M157.994 107.954h-25.52a1.91 1.91 0 0 0-1.912 1.91v6.457a1.91 1.91 0 0 0 1.912 1.91h25.52a1.91 1.91 0 0 0 1.912-1.91v-6.457a1.91 1.91 0 0 0-1.912-1.91z" fill="#DF357F"/>
    <path d="M157.994 117.118h-24.703c-.538 0-1.275.119-1.554-.488a3.121 3.121 0 0 1-.059-1.094v-2.199a21.063 21.063 0 0 1 0-3.462c.239-1.314 2.988-.806 3.984-.806h21.276c.568 0 1.504-.159 1.793.477.099.421.119.856.06 1.284v2.507c0 .826.488 3.671-.787 3.781-1.275.109-1.445 2.348 0 2.238 4.034-.328 2.988-5.432 2.988-8.238 0-1.532-.05-3.074-1.584-3.919a4.604 4.604 0 0 0-2.311-.369H138.58c-1.992 0-3.984-.079-5.976 0-3.795.159-3.118 4.378-3.118 6.965 0 1.273-.239 2.915.449 4.059a3.272 3.272 0 0 0 2.988 1.462H157.994a1.125 1.125 0 0 0 0-2.198z" fill="#333"/>
    <path d="M123.639 66.06H95.052v7.999h28.587v-8zM141.28 66.06h-14.294v7.999h14.294v-8z" fill="#CCC"/>
    <path d="M94.624 50.15a2.708 2.708 0 0 0 2.71-2.706 2.708 2.708 0 0 0-2.71-2.706 2.708 2.708 0 0 0-2.71 2.706 2.708 2.708 0 0 0 2.71 2.707zM105.322 50.15a2.708 2.708 0 0 0 2.709-2.706 2.708 2.708 0 0 0-2.709-2.706 2.708 2.708 0 0 0-2.71 2.706 2.708 2.708 0 0 0 2.71 2.707zM116.019 50.15a2.708 2.708 0 0 0 2.71-2.706 2.708 2.708 0 0 0-2.71-2.706 2.708 2.708 0 0 0-2.709 2.706 2.708 2.708 0 0 0 2.709 2.707z" fill="#333"/>
    <path d="M194.629 64.676h-27.93v35.995h27.93V64.676z" fill="#fff"/>
    <path d="M194.628 99.557h-27.889l1.125 1.124V64.676l-1.125 1.124h27.889l-1.125-1.124v36.005a1.122 1.122 0 0 0 1.12 1.019 1.123 1.123 0 0 0 1.121-1.019V64.676a1.133 1.133 0 0 0-1.116-1.114h-27.889a1.125 1.125 0 0 0-1.116 1.114v36.005a1.123 1.123 0 0 0 1.116 1.115h27.889a1.124 1.124 0 0 0 0-2.239z" fill="#333"/>
    <path d="M194.629 100.681h-27.89s6.056-10.376 9.144-10.376h10.608c3.048 0 8.138 10.376 8.138 10.376z" fill="#fff"/>
    <path d="M194.629 99.956h-27.89l.647 1.124a58.253 58.253 0 0 1 3.805-5.72c1.255-1.653 2.988-4.289 5.269-4.289h8.278a7.424 7.424 0 0 1 2.101.07c1.196.378 2.202 1.84 2.909 2.795a45.05 45.05 0 0 1 4.273 7.144c.428.855 1.713.099 1.295-.756a48.112 48.112 0 0 0-3.984-6.726c-1.405-1.99-2.988-3.98-5.548-3.98h-8.965a4.767 4.767 0 0 0-2.321.369 11.678 11.678 0 0 0-3.376 3.064 52.88 52.88 0 0 0-5.08 7.312.755.755 0 0 0 .647 1.125h27.89a.769.769 0 0 0 .792-.741.767.767 0 0 0-.742-.791z" fill="#333"/>
    <path d="M189.599 83.639a2.846 2.846 0 0 1 .916-1.522 1.582 1.582 0 0 1 1.534-.11 1.986 1.986 0 0 1 .996 1.204c.074.257.074.53 0 .786-.079.22-.194.424-.339.607a6.69 6.69 0 0 1-1.713 1.592 1.107 1.107 0 0 1-.588.228.787.787 0 0 1-.617-.328 2.174 2.174 0 0 1-.339-.636" fill="#fff"/>
    <path d="M190.326 83.838c0-.13.08-.259.129-.388a.466.466 0 0 0 0-.13s0 .1 0 0a2.25 2.25 0 0 1 .1-.208l.1-.18c.069-.109-.05 0 0-.059l.169-.16a.42.42 0 0 1 .11-.069c.109-.07-.06 0 .069 0l.19-.06h.199c.079 0 .069 0 0 0l.199.05h.07l.169.1s.09.08 0 0 .08.08.08.08l.129.148v.06c.037.058.07.117.1.18 0 0 .05.109 0 0-.05-.11 0 .059 0 .069.029.087.049.177.06.269V83.769l-.08.129-.16.229-.069.089c-.1.12-.209.249-.329.368-.112.12-.232.233-.359.338-.089.09-.278.24-.328.289-.05.05-.05 0-.05 0l-.12.09-.249.159-.089.06s-.14.06-.08 0c.06-.06 0 0 0 0h.09-.05a.44.44 0 0 1-.09-.1c.07.09 0 0 0 0s-.049-.09-.069-.13l-.05-.099c-.05-.12.07.16 0-.06a.75.75 0 0 0-1.445.398c.158.514.476.963.907 1.284a1.494 1.494 0 0 0 1.584 0 6.81 6.81 0 0 0 2.091-1.9c.345-.397.529-.908.518-1.433a2.503 2.503 0 0 0-.488-1.393 2.46 2.46 0 0 0-2.57-.995 2.988 2.988 0 0 0-1.922 2.259.756.756 0 0 0 .518.915.79.79 0 0 0 .926-.518l.09.09z" fill="#333"/>
    <path d="M172.695 83.64a2.83 2.83 0 0 0-.906-1.523 1.594 1.594 0 0 0-1.544-.07 1.985 1.985 0 0 0-.996 1.204c-.075.257-.075.53 0 .786.072.22.183.426.329.607a6.723 6.723 0 0 0 1.723 1.592c.165.133.366.212.578.228a.805.805 0 0 0 .627-.328c.144-.194.258-.409.339-.636" fill="#fff"/>
    <path d="M173.412 83.44a3.176 3.176 0 0 0-1.573-2.139 2.485 2.485 0 0 0-2.735.664 2.474 2.474 0 0 0-.353 2.789 7.173 7.173 0 0 0 1.992 1.99 1.694 1.694 0 0 0 1.723.258c.513-.301.888-.79 1.046-1.362a.747.747 0 0 0-.067-.567.74.74 0 0 0-.451-.349.777.777 0 0 0-.926.517c-.05.12 0 0 0 .09l-.11.199c0 .11 0 .06 0 0s-.06.05-.07.08c-.01.03 0 0 0 0a.398.398 0 0 1-.109.07s.109 0 0 0h.06c-.07 0 0 0 0 0a3.964 3.964 0 0 1-.439-.27l-.179-.139-.09-.07a6.605 6.605 0 0 1-.398-.347l-.319-.329-.149-.179-.07-.08s-.109-.149-.05-.06a2.47 2.47 0 0 1-.249-.397V83.38s.07-.18 0-.07l.09-.179.06-.08s.079-.129 0-.07c-.08.06 0 0 0 0l.089-.098s.16-.13.06-.06l.169-.11h.08c.09-.05-.09 0 0 0h.199c.07 0 0 0 0 0h.528c-.069 0-.05 0 0 0h.09c.09 0-.1-.1 0 0l.159.17.08.109.11.209s.099.219.049.09c.07.168.13.338.19.517a.75.75 0 0 0 .627.6.75.75 0 0 0 .853-.695.746.746 0 0 0-.046-.303l.129.03z" fill="#333"/>
    <path d="M190.436 85.053c.439-4.358-3.358-8.308-8.481-8.823-5.123-.515-9.632 2.6-10.072 6.957-.439 4.357 3.358 8.307 8.481 8.822 5.123.515 9.632-2.6 10.072-6.956z" fill="#fff"/>
    <path d="M189.678 84.873c-.388 3.303-3.307 5.512-6.414 6.109a9.663 9.663 0 0 1-9.194-3.204 6.383 6.383 0 0 1 .269-8.387 9.355 9.355 0 0 1 9.293-2.258c3.476.995 6.365 3.98 6.046 7.74-.079.995 1.415.995 1.494 0 .329-3.98-2.38-7.293-5.886-8.745a11.161 11.161 0 0 0-11.326 1.562 7.868 7.868 0 0 0-1.783 9.949 10.788 10.788 0 0 0 10.1 4.974c4.353-.328 8.367-3.213 8.895-7.73.12-.965-1.374-.955-1.494-.01z" fill="#333"/>
    <path d="m178.343 86.414 4.771.06a.357.357 0 0 1 .229.06.27.27 0 0 1 0 .248 12.673 12.673 0 0 1-.527 1.682 1.067 1.067 0 0 1-.399.587c-.18.085-.378.126-.578.119a4.164 4.164 0 0 1-1.812-.259 5.18 5.18 0 0 1-1.704-2.497" fill="#DF357F"/>
    <path d="M178.343 86.783h4.532c.13 0 .279.07.159-.08-.119-.15-.079 0-.099.06v.13c-.06.238-.13.477-.209.716-.07.219-.15.437-.229.656a.73.73 0 0 1-.289.418c-.199.065-.41.086-.618.06a5.285 5.285 0 0 1-.687 0 1.936 1.936 0 0 1-.837-.279 3.544 3.544 0 0 1-.518-.577 7.483 7.483 0 0 1-.578-.905 1.999 1.999 0 0 1-.268-.687.38.38 0 0 0-.459-.258.39.39 0 0 0-.269.457c.069.295.183.577.339.836.171.327.368.64.588.935.2.286.434.547.697.776.353.248.765.4 1.195.438.547.13 1.117.13 1.664 0a1.639 1.639 0 0 0 .836-1.144c.1-.259.18-.527.259-.796.106-.264.173-.543.2-.826 0-.676-.767-.587-1.236-.587l-4.173-.06a.377.377 0 0 0-.227.618.377.377 0 0 0 .227.129v-.03zM180.495 80.406a5.323 5.323 0 0 0-1.724 2.626c-.077.25-.131.506-.159.766a1.344 1.344 0 0 0 .159 1.095 1.306 1.306 0 0 0 .996.447c.281.042.564.059.847.05a6.098 6.098 0 0 0 1.992-.388.765.765 0 0 0 .528-.915.756.756 0 0 0-.916-.527c-.288.11-.585.196-.887.258h-.318c-.153.01-.306.01-.459 0h-.757c-.159 0-.089-.1.12.1.099.368.149.467.139.288a.264.264 0 0 1 0-.08.665.665 0 0 1 0-.199c-.049.2 0 0 0-.06a4.69 4.69 0 0 1 .2-.735s.089-.279 0-.09a.786.786 0 0 1 .079-.159c.053-.121.117-.238.189-.348a2.42 2.42 0 0 1 .22-.339c.04-.064.087-.123.139-.179.178-.2.371-.387.578-.557a.745.745 0 0 0 0-1.054.77.77 0 0 0-1.056 0h.09zM185.545 80.277h-.15a.508.508 0 0 0-.508.508v1.492c0 .28.228.507.508.507h.15c.28 0 .508-.227.508-.507v-1.492a.508.508 0 0 0-.508-.508zM176.54 80.277h-.149a.507.507 0 0 0-.508.508v1.492c0 .28.227.507.508.507h.149a.507.507 0 0 0 .508-.507v-1.492a.507.507 0 0 0-.508-.508z" fill="#333"/>
    <path d="m183.045 77.71-.06-1.383a16.923 16.923 0 0 1 6.345 5.721 7.29 7.29 0 0 0 0-7.73 8.672 8.672 0 0 0-6.245-3.632c-2.471-.298-10.589-.995-12.481 5.601-.638 2.23-.438 5.025 1.643 6.05 1.106-3.433 6.455-3.81 7.77-7.174a3.608 3.608 0 0 0 3.028 2.547z" fill="#DF357F"/>
    <path d="m184.19 77.71-.06-1.383-1.693.995a16.215 16.215 0 0 1 5.976 5.302 1.137 1.137 0 0 0 1.933 0 8.411 8.411 0 0 0-.727-9.77c-1.913-2.258-4.761-3.153-7.63-3.382-4.363-.348-9.632.557-11.794 4.865-1.424 2.816-1.703 7.253 1.495 8.954a1.12 1.12 0 0 0 .984.067 1.127 1.127 0 0 0 .659-.734c.578-1.641 2.47-2.457 3.875-3.283a8.432 8.432 0 0 0 3.894-3.89h-2.161a4.767 4.767 0 0 0 3.855 3.323c1.414.229 1.992-1.93.597-2.159a2.743 2.743 0 0 1-2.291-1.76 1.131 1.131 0 0 0-1.08-.787 1.136 1.136 0 0 0-1.081.786c-.667 1.592-2.63 2.398-3.984 3.224a7.815 7.815 0 0 0-3.746 3.98l1.644-.667c-2.062-1.124-1.544-4.288-.638-6.03a6.627 6.627 0 0 1 4.005-3.263c3.117-.925 7.47-.865 10.259.995a6.167 6.167 0 0 1 1.853 8.387h1.932a18.524 18.524 0 0 0-6.743-6.118 1.127 1.127 0 0 0-1.684.995l.06 1.382c.09 1.403 2.291 1.413 2.291-.03zM180.713 93.45c.82.908 1.573 1.876 2.251 2.895a.76.76 0 0 0 .996.268 29.075 29.075 0 0 0 5.1-3.86c.688-.677-.368-1.731-1.056-1.055a27.996 27.996 0 0 1-4.801 3.632l.997.268a27.648 27.648 0 0 0-2.491-3.203c-.647-.717-1.693.348-1.055 1.054h.059z" fill="#333"/>
    <path d="M179.897 91.609c-.329.567-.668 1.134-.996 1.68l-.498.757c-.09.13-.17.259-.259.378-.07.14-.157.27-.259.388l.378-.1a1.64 1.64 0 0 1-.587-.228c-.24-.09-.479-.19-.708-.299a39.026 39.026 0 0 1-1.404-.656c-.926-.458-1.823-.995-2.709-1.503-.887-.507-1.574.786-.747 1.284a34.483 34.483 0 0 0 5.109 2.666c.459.19.937.428 1.415.15.379-.317.69-.706.916-1.145a42.3 42.3 0 0 0 1.594-2.567.748.748 0 0 0-.286-.981.75.75 0 0 0-.999.225l.04-.05z" fill="#333"/>
    <path d="M180.076 95.489a15.965 15.965 0 0 0-.557 4.238c.816 0 2.5.348 3.755.299a24.784 24.784 0 0 1-1.185-3.691c-.09-.349-.22-.747-.558-.876a1.258 1.258 0 0 0-.329-.05h-1.046" fill="#DF357F"/>
    <path d="M179.349 95.289a17.581 17.581 0 0 0-.578 4.437.779.779 0 0 0 .748.746c1.255 0 2.49.339 3.755.299a.763.763 0 0 0 .634-.384.757.757 0 0 0 .013-.74l-.089-.19c.059.12 0-.05 0-.08s-.09-.228-.13-.347c-.04-.12-.189-.528-.269-.796a34.56 34.56 0 0 1-.478-1.662 2.987 2.987 0 0 0-.687-1.532c-.528-.497-1.405-.388-2.082-.418a.747.747 0 1 0 0 1.492h1.125-.069s.069 0 0 0c-.07 0 0 0 0 0s-.06-.09 0 0c.059.09.079.2 0 0v.13c0 .04.059.209.089.318.03.11.13.488.2.737.247 1.02.58 2.02.996 2.984l.647-1.114c-1.265 0-2.5-.259-3.755-.299l.747.746a15.303 15.303 0 0 1 .528-4.039.753.753 0 0 0-.262-.789.743.743 0 0 0-.553-.152.754.754 0 0 0-.629.543l.099.11z" fill="#333"/>
    <path d="M179.07 95.439a.079.079 0 0 0-.01.04c0 .013.003.027.01.04a.08.08 0 0 0 .07 0h2.799a.32.32 0 0 0 .269-.09.349.349 0 0 0 .05-.21 4.549 4.549 0 0 0-.837-2.536.29.29 0 0 0-.359-.15l-.388.07a.858.858 0 0 0-.319.1.8.8 0 0 0-.209.238l-.727 1.105-.349 1.392z" fill="#DF357F"/>
    <path d="M178.323 95.439a.8.8 0 0 0 .379.726c.178.093.377.138.578.13h2.35c.306.03.615-.018.897-.14a.994.994 0 0 0 .488-.995 5.414 5.414 0 0 0-.877-2.776 1.143 1.143 0 0 0-.926-.616 3.481 3.481 0 0 0-.777.109 1.318 1.318 0 0 0-.827.547c-.159.21-.298.438-.438.657a2.979 2.979 0 0 0-.488.875l-.339 1.254a.752.752 0 0 0 .523.92.75.75 0 0 0 .922-.522l.239-.895.119-.448c0 .14-.079.169 0 .07a.588.588 0 0 0 .07-.1l.378-.587.18-.259.06-.1c.079-.119 0 0-.06 0h-.05.09l.318-.059h.14a.444.444 0 0 1-.349-.06h-.079l-.06-.08s.079.11.089.13c.102.152.192.312.269.478l.06.12c0 .079 0 .069 0 0 .023.089.056.176.1.258a3.2 3.2 0 0 1 .139.527c.012.087.029.173.05.259v-.09a.266.266 0 0 1 0 .08.648.648 0 0 1 0 .14v.268-.06c.448-.309.558-.438.349-.378h.119a1.51 1.51 0 0 0-.368 0h-2.521l.379.1.339.447v.11a.756.756 0 0 0-.747-.747.764.764 0 0 0-.718.707z" fill="#333"/>
    <path d="M61.834 99.459c-.996 1.602-3.168 2.726-4.98 3.253 1.773-.079 3.755-.089 5.05 1.134a6.418 6.418 0 0 1 1.324 2.16 74.372 74.372 0 0 1 1.893 4.725c.15-1.502.378-2.984.667-4.467.09-.573.265-1.129.518-1.651.937-1.722 3.178-2.139 5.12-2.378a138.18 138.18 0 0 1-3.068-1.443c-.666-.315-1.3-.695-1.892-1.134-1.993-1.642-2.64-4.437-3.128-6.964.01-.04-.21 4.666-1.504 6.765z" fill="#F0D227"/>
    <path d="M60.867 98.892a7.756 7.756 0 0 1-4.303 2.746 1.123 1.123 0 0 0 .3 2.198c1.633-.069 3.675-.198 4.7 1.344a27.816 27.816 0 0 1 2.49 5.85 1.124 1.124 0 0 0 2.201-.299c.11-1.054.25-2.099.43-3.144a6.51 6.51 0 0 1 .776-2.686c.857-1.164 2.66-1.383 3.985-1.542.996-.119 1.713-1.582.567-2.089-1.922-.856-4.452-1.672-5.727-3.442a13.42 13.42 0 0 1-1.843-5.472c-.249-1.294-2.141-.906-2.201.298a13.915 13.915 0 0 1-1.365 6.238 1.123 1.123 0 0 0 1.252 1.577c.274-.058.517-.216.68-.443 1.256-2.139 1.555-4.974 1.674-7.372l-2.201.298a14.824 14.824 0 0 0 2.221 6.218c1.544 2.07 4.104 2.985 6.375 4.03l.568-2.08c-1.992.239-4.214.597-5.578 2.209a6.424 6.424 0 0 0-1.236 3.144 51.594 51.594 0 0 0-.607 4.258l2.201-.298a79.992 79.992 0 0 0-1.494-3.791A12.07 12.07 0 0 0 63 103.359c-1.514-1.761-3.984-1.861-6.126-1.761l.289 2.199a10.129 10.129 0 0 0 5.648-3.771c.787-1.214-1.136-2.328-1.943-1.134z" fill="#333"/>
    <path opacity=".15" d="M26.752 84.644a2.72 2.72 0 0 1-2.69-2.687V41.764L12.908 50.32a2.34 2.34 0 0 1-1.992.447 3.407 3.407 0 0 1-1.793-1.243L.357 38.182a3.399 3.399 0 0 1-.3-2.14 2.476 2.476 0 0 1 1.196-1.74l24.005-18.605c.297-.24.634-.425.996-.547.39-.106.792-.156 1.195-.15h18.826a2.721 2.721 0 0 1 2.69 2.687v64.27a2.715 2.715 0 0 1-2.69 2.687H26.752z" fill="#DF357F"/>
</svg>
