<svg width="175" height="150" fill="none" xmlns="http://www.w3.org/2000/svg" viewBox="0 0 175 150">
    <path d="M89.28 136.42c34.634 0 62.71-28.076 62.71-62.71S123.914 11 89.28 11 26.57 39.076 26.57 73.71s28.076 62.71 62.71 62.71z" fill="#F6F2EF"/>
    <path d="M141.97 23.84c-1.36 2.2-4.36 3.75-6.84 4.48 2.44-.12 5.17-.13 6.94 1.55a8.852 8.852 0 0 1 1.83 3c.933 2.134 1.8 4.3 2.6 6.5a60.94 60.94 0 0 1 .92-6.16 7.796 7.796 0 0 1 .7-2.26c1.29-2.37 4.37-2.95 7-3.27-1.42-.63-2.83-1.3-4.22-2a14.682 14.682 0 0 1-2.59-1.56c-2.8-2.26-3.64-6.1-4.3-9.63.06-.01-.24 6.46-2.04 9.35z" fill="#F0D227"/>
    <path d="M141.02 23.27c-1.37 2.08-3.86 3.26-6.17 4-1.17.36-1 2.27.3 2.21 2.42-.1 5.32-.22 6.82 2.05s2.48 5.47 3.47 8.16a1.13 1.13 0 0 0 2.21-.3c.15-1.49.35-3 .61-4.44a8.917 8.917 0 0 1 1.13-3.84c1.27-1.71 3.83-2 5.79-2.29 1-.12 1.72-1.58.57-2.09-2.72-1.22-6.22-2.37-8-4.88-1.57-2.21-2.08-5-2.57-7.63-.25-1.3-2.15-.91-2.21.3-.14 2.88-.45 6.27-1.93 8.79a1.134 1.134 0 0 0 .451 1.453 1.13 1.13 0 0 0 1.489-.313c1.69-2.88 2.08-6.65 2.24-9.93l-2.21.3c.55 2.93 1.19 6 3 8.45 2.07 2.77 5.57 4 8.61 5.4l.57-2.1c-2.61.33-5.57.79-7.37 2.93a8.57 8.57 0 0 0-1.6 4.14 66.529 66.529 0 0 0-.81 5.75l2.21-.3c-.65-1.76-1.33-3.49-2.05-5.22a15.973 15.973 0 0 0-2.28-4.33c-2-2.35-5.27-2.43-8.13-2.31l.3 2.21c2.9-.89 5.8-2.4 7.51-5 .79-1.25-1.16-2.38-1.95-1.17z" fill="#333"/>
    <path d="M120.19 29.12H58.38a6.34 6.34 0 0 0-6.34 6.34v84.36a6.34 6.34 0 0 0 6.34 6.34h61.81a6.34 6.34 0 0 0 6.34-6.34V35.46a6.34 6.34 0 0 0-6.34-6.34z" fill="#fff"/>
    <path d="M120.18 125.03H90.4c-10.63 0-21.29.2-31.92 0a5.322 5.322 0 0 1-4.926-3.304 5.307 5.307 0 0 1-.394-2.046V37.19a18.243 18.243 0 0 1 0-2.45c.43-3 3.08-4.48 5.88-4.48h59.93c2 0 4 .26 5.34 2a6.563 6.563 0 0 1 1.1 4.35v82.88a5.337 5.337 0 0 1-3.152 5.135 5.365 5.365 0 0 1-2.068.465c-1.44 0-1.45 2.29 0 2.25a7.592 7.592 0 0 0 7.47-7.58V41.02c0-3.15.55-7.12-1.38-9.82-2.8-3.91-7.75-3.15-11.93-3.15H58.97a7.811 7.811 0 0 0-7.07 3.7 9.09 9.09 0 0 0-1 4.85v55.59c0 9.17-.18 18.36 0 27.53a7.58 7.58 0 0 0 7.46 7.54h61.84a1.132 1.132 0 0 0 .937-1.124 1.13 1.13 0 0 0-.957-1.106z" fill="#333"/>
    <path d="M114.8 39.85H63.76a2.48 2.48 0 0 0-2.48 2.48v14.78a2.48 2.48 0 0 0 2.48 2.48h51.04a2.48 2.48 0 0 0 2.48-2.48V42.33a2.48 2.48 0 0 0-2.48-2.48z" fill="#CCC"/>
    <path d="M114.8 58.47H64.97c-1.18 0-2.48.09-2.55-1.55-.1-2.47 0-5 0-7.44 0-2.32-.21-4.75 0-7.06.16-1.64 1.54-1.44 2.72-1.44h47.52c.78 0 2.12-.24 2.84.18.72.42.67 1.6.67 2.43v12.54c0 1 .05 2.24-1.35 2.34-1.4.1-1.45 2.35 0 2.25a3.703 3.703 0 0 0 3.6-3.65V42.34a3.68 3.68 0 0 0-3.61-3.61H75.29c-3.79 0-7.59-.11-11.37 0a3.76 3.76 0 0 0-3.1 1.52 5 5 0 0 0-.67 3.06v9.22c0 2.1-.59 5.48 1.06 7.13 1.18 1.18 2.69 1.06 4.19 1.06h49.4a1.128 1.128 0 0 0 1.024-1.124 1.127 1.127 0 0 0-1.024-1.125z" fill="#333"/>
    <path d="M113.58 67.99h-48.6a3.7 3.7 0 0 0-3.7 3.7v36.52a3.7 3.7 0 0 0 3.7 3.7h48.6a3.7 3.7 0 0 0 3.7-3.7V71.69a3.7 3.7 0 0 0-3.7-3.7z" fill="#DF357F"/>
    <path d="M113.58 110.78H65a2.666 2.666 0 0 1-2.439-1.747 2.675 2.675 0 0 1-.161-1.043c-.09-6.39 0-12.78 0-19.16V77.02c0-1.77-.09-3.57 0-5.33.15-2.9 3-2.58 5-2.58h43.33c1.75 0 4.37-.44 5.22 1.56.207.704.275 1.44.2 2.17v15.12c0 6.61.05 13.23 0 19.85a2.7 2.7 0 0 1-2.57 3c-1.44.06-1.45 2.31 0 2.25a4.911 4.911 0 0 0 4.82-4.85V73.07c.025-.667.005-1.335-.06-2a4.89 4.89 0 0 0-4.81-4.19c-1.75-.06-3.51 0-5.26 0H83.46c-6.06 0-12.12-.06-18.18 0-3.23 0-5.13 2.39-5.13 5.48v32.9c0 2.64-.3 5.55 2.39 7.13 1.64 1 3.91.66 5.74.66h45.3a1.133 1.133 0 0 0 .802-1.937 1.134 1.134 0 0 0-.802-.333z" fill="#333"/>
    <path d="M61.28 89.94h56" stroke="#333" stroke-width=".75" stroke-miterlimit="10"/>
    <path d="M61.28 80.27h56a1.128 1.128 0 0 0 1.023-1.126 1.127 1.127 0 0 0-1.023-1.125h-56a1.13 1.13 0 0 0 0 2.25zM61.28 91.07h56a1.128 1.128 0 0 0 1.023-1.125 1.127 1.127 0 0 0-1.023-1.125h-56a1.13 1.13 0 0 0 0 2.25zM61.28 101.87h56a1.126 1.126 0 0 0 1.023-1.125 1.127 1.127 0 0 0-1.023-1.125h-56a1.13 1.13 0 0 0 0 2.25z" fill="#333"/>
    <path d="M78.67 67.99v43.91a1.129 1.129 0 0 0 1.885.729c.208-.189.338-.449.365-.729V67.99a1.13 1.13 0 0 0-2.25 0zM97.17 67.99v43.91a1.129 1.129 0 0 0 1.885.729c.208-.189.338-.449.365-.729V67.99a1.13 1.13 0 0 0-2.25 0zM72.55 55.67a.34.34 0 0 1-.27-.12.371.371 0 0 1-.12-.27v-7.31l-2.1 1.61a.332.332 0 0 1-.29.08.45.45 0 0 1-.25-.17l-.91-1.18a.45.45 0 0 1-.07-.3.35.35 0 0 1 .18-.25l3.53-2.74a.706.706 0 0 1 .18-.08.578.578 0 0 1 .19 0h1.92a.39.39 0 0 1 .28.1.4.4 0 0 1 .1.28v10a.39.39 0 0 1-.1.27.36.36 0 0 1-.28.12l-1.99-.04zM77.72 55.67a.36.36 0 0 1-.28-.12.368.368 0 0 1-.12-.27v-1.09c.007-.112.027-.223.06-.33a.82.82 0 0 1 .32-.42l1.6-1.57c.82-.62 1.49-1.15 2-1.59.436-.34.832-.73 1.18-1.16.226-.267.36-.6.38-.95a1.39 1.39 0 0 0-.27-.87 1.11 1.11 0 0 0-.93-.34 1.31 1.31 0 0 0-.74.19 1.44 1.44 0 0 0-.45.5c-.104.198-.178.41-.22.63a.47.47 0 0 1-.21.28.669.669 0 0 1-.31.07h-1.92a.3.3 0 0 1-.23-.09.33.33 0 0 1-.1-.23 3.503 3.503 0 0 1 1.16-2.53 4.07 4.07 0 0 1 1.31-.78 4.871 4.871 0 0 1 1.71-.28 5.3 5.3 0 0 1 2.22.42 3.161 3.161 0 0 1 1.39 1.17 3.289 3.289 0 0 1 .15 3.15c-.25.457-.567.875-.94 1.24-.456.434-.937.842-1.44 1.22l-1.41 1.43h3.95a.37.37 0 0 1 .28.11.34.34 0 0 1 .12.27v1.55a.369.369 0 0 1-.12.27.38.38 0 0 1-.28.12h-7.86zM92.43 55.82a6.683 6.683 0 0 1-2-.28 4.14 4.14 0 0 1-1.39-.74 3.09 3.09 0 0 1-.8-1 2.26 2.26 0 0 1-.28-1 .29.29 0 0 1 .1-.23.36.36 0 0 1 .24-.09h2a.49.49 0 0 1 .28.07.62.62 0 0 1 .2.22c.078.187.202.352.36.48.17.123.365.208.57.25.244.045.492.068.74.07a1.87 1.87 0 0 0 1.22-.36 1.22 1.22 0 0 0 .44-1 1.07 1.07 0 0 0-.42-1 2.06 2.06 0 0 0-1.18-.28h-1.7a.382.382 0 0 1-.39-.39v-.85a.67.67 0 0 1 .08-.33.58.58 0 0 1 .17-.2l2.52-2.13h-4.27a.4.4 0 0 1-.27-.11.35.35 0 0 1-.12-.28V45.2a.38.38 0 0 1 .12-.28.39.39 0 0 1 .27-.1h7.05a.43.43 0 0 1 .29.1.41.41 0 0 1 .11.28v1.31a.52.52 0 0 1-.08.3.833.833 0 0 1-.16.2l-2.34 2.17h.11a4.44 4.44 0 0 1 1.57.46c.451.223.83.57 1.09 1 .278.504.413 1.075.39 1.65a2.82 2.82 0 0 1-.59 1.8 3.81 3.81 0 0 1-1.6 1.18 6.231 6.231 0 0 1-2.33.55zM104.3 55.67a.366.366 0 0 1-.27-.12.367.367 0 0 1-.11-.27v-1.73h-4.78a.4.4 0 0 1-.27-.11.379.379 0 0 1-.11-.28V51.7a.528.528 0 0 1 0-.25l.11-.22 4.47-6.05a.679.679 0 0 1 .57-.26h2.24a.356.356 0 0 1 .27.1.374.374 0 0 1 .12.28v6h1.43a.402.402 0 0 1 .29.11.4.4 0 0 1 .11.27v1.51a.353.353 0 0 1-.12.28.364.364 0 0 1-.27.11h-1.36v1.73c0 .05-.011.101-.032.147a.352.352 0 0 1-.088.123.336.336 0 0 1-.27.12l-1.93-.03zm-2.9-4.3h2.57v-3.63l-2.57 3.63z" fill="#333"/>
    <path d="M45.59 137.35c14.553 0 26.35-11.797 26.35-26.35 0-14.552-11.797-26.35-26.35-26.35S19.24 96.448 19.24 111c0 14.553 11.798 26.35 26.35 26.35z" fill="#DF357F"/>
    <path d="M70.81 110.999a25.216 25.216 0 0 1-16.71 23.733 25.224 25.224 0 0 1-27.982-7.714A25.22 25.22 0 0 1 50.43 86.239 25.47 25.47 0 0 1 70.81 111a1.13 1.13 0 0 0 2.25 0 27.53 27.53 0 1 0-.34 4.27c.219-1.413.332-2.84.34-4.27a1.128 1.128 0 0 0-1.886-.729 1.128 1.128 0 0 0-.364.729z" fill="#333"/>
    <path d="M45.59 132.59c11.924 0 21.59-9.666 21.59-21.59s-9.666-21.59-21.59-21.59S24 99.076 24 111s9.666 21.59 21.59 21.59z" fill="#fff"/>
    <path d="M66.06 111a20.47 20.47 0 1 1-16.34-20 20.69 20.69 0 0 1 16.34 20 1.133 1.133 0 0 0 1.125 1.024A1.132 1.132 0 0 0 68.31 111a22.72 22.72 0 1 0-18.34 22.29A23.001 23.001 0 0 0 68.29 111a1.133 1.133 0 0 0-1.115-.946 1.131 1.131 0 0 0-1.115.946z" fill="#333"/>
    <path d="M43.76 122.77a.74.74 0 0 1-.54-.23.704.704 0 0 1-.23-.54v-2a10.674 10.674 0 0 1-3.82-1.23 6.406 6.406 0 0 1-2.29-2.13 5.12 5.12 0 0 1-.79-2.58.598.598 0 0 1 .19-.45.611.611 0 0 1 .44-.19h5.46c.243-.009.486.035.71.13.186.106.363.226.53.36.186.137.383.257.59.36.217.112.45.19.69.23.277.05.558.073.84.07a4.824 4.824 0 0 0 1.57-.21c.39-.15.59-.34.59-.59a.67.67 0 0 0-.33-.57 3.257 3.257 0 0 0-1.14-.42 19.265 19.265 0 0 0-2.24-.36 14.76 14.76 0 0 1-3.93-1.06 6.056 6.056 0 0 1-2.57-2.06 5.44 5.44 0 0 1-.91-3.2 5.632 5.632 0 0 1 1.74-4.18 8.607 8.607 0 0 1 4.67-2.23v-2a.79.79 0 0 1 .77-.77h3.48a.79.79 0 0 1 .77.77v2.1a9.684 9.684 0 0 1 3.44 1.38 7.637 7.637 0 0 1 2.14 2.09c.454.645.72 1.403.77 2.19a.596.596 0 0 1-.18.44.581.581 0 0 1-.42.19h-5.79a1.45 1.45 0 0 1-.64-.12 1.989 1.989 0 0 1-.5-.34 2.01 2.01 0 0 0-.54-.33 2.277 2.277 0 0 0-1-.19 1.906 1.906 0 0 0-1.05.22.672.672 0 0 0-.33.59.686.686 0 0 0 .26.49c.285.199.609.335.95.4.66.148 1.328.261 2 .34a16.57 16.57 0 0 1 4.61 1.11 5.467 5.467 0 0 1 2.53 2c.556.951.83 2.04.79 3.14a5.532 5.532 0 0 1-.9 3.11 7.006 7.006 0 0 1-2.5 2.24 11.428 11.428 0 0 1-3.67 1.22v2a.7.7 0 0 1-.23.54.75.75 0 0 1-.54.23l-3.45.04z" fill="#DF357F"/>
</svg>
