<svg width="166" height="107" fill="none" xmlns="http://www.w3.org/2000/svg">
    <path d="M45.092 63.995v-1.683h-1.727v-.772h1.718v-1.688h.787v1.688h1.722v.772H45.88v1.683h-.788zM37.236 63.995v-1.683h-1.717v-.772h1.717v-1.688h.787v1.688h1.722v.772h-1.722v1.683h-.787zM29.38 63.995v-1.683h-1.718v-.772h1.717v-1.688h.788v1.688h1.722v.772h-1.722v1.683h-.788zM45.092 55.218v-1.66h-1.727v-.79h1.718v-1.693h.787v1.692h1.722v.79H45.88v1.68l-.788-.02zM37.236 55.218v-1.66h-1.717v-.79h1.717v-1.693h.787v1.692h1.722v.79h-1.722v1.68l-.787-.02zM29.38 55.218v-1.66h-1.718v-.79h1.717v-1.693h.788v1.692h1.722v.79h-1.722v1.68l-.788-.02zM45.092 47.147V45.47h-1.727v-.772h1.718v-1.692h.787v1.692h1.722v.772H45.88v1.678h-.788zM37.236 47.147V45.47h-1.717v-.772h1.717v-1.692h.787v1.692h1.722v.772h-1.722v1.678h-.787zM29.38 47.147V45.47h-1.718v-.772h1.717v-1.692h.788v1.692h1.722v.772h-1.722v1.678h-.788zM22.424 63.995v-1.683h-1.717v-.772h1.717v-1.688h.788v1.688h1.722v.772h-1.722v1.683h-.788zM14.569 63.995v-1.683h-1.717v-.772h1.717v-1.688h.806v1.688h1.722v.772h-1.722v1.683h-.806zM6.713 63.995v-1.683H5v-.772h1.713v-1.688H7.5v1.688h1.708v.772H7.5v1.683h-.787zM22.424 55.218v-1.66h-1.717v-.79h1.717v-1.693h.788v1.692h1.722v.79h-1.722v1.68l-.788-.02zM14.569 55.218v-1.66h-1.717v-.79h1.717v-1.693h.806v1.692h1.722v.79h-1.722v1.68l-.806-.02zM6.713 55.218v-1.66H5v-.79h1.713v-1.693H7.5v1.692h1.708v.79H7.5v1.68l-.787-.02zM22.424 47.147V45.47h-1.717v-.772h1.717v-1.692h.788v1.692h1.722v.772h-1.722v1.678h-.788zM14.569 47.147V45.47h-1.717v-.772h1.717v-1.692h.806v1.692h1.722v.772h-1.722v1.678h-.806zM6.713 47.147V45.47H5v-.772h1.713v-1.692H7.5v1.692h1.708v.772H7.5v1.678h-.787zM63.584 47.156c1.17 0 2.12-.93 2.12-2.078 0-1.148-.95-2.078-2.12-2.078-1.172 0-2.121.93-2.121 2.078 0 1.148.95 2.078 2.12 2.078zM63.584 55.58c1.17 0 2.12-.93 2.12-2.078 0-1.148-.95-2.078-2.12-2.078-1.172 0-2.121.93-2.121 2.078 0 1.148.95 2.078 2.12 2.078zM63.584 64c1.17 0 2.12-.93 2.12-2.078 0-1.148-.95-2.078-2.12-2.078-1.172 0-2.121.93-2.121 2.078 0 1.148.95 2.078 2.12 2.078zM72.345 47.156c1.171 0 2.12-.93 2.12-2.078 0-1.148-.949-2.078-2.12-2.078-1.171 0-2.12.93-2.12 2.078 0 1.148.949 2.078 2.12 2.078zM72.345 55.58c1.171 0 2.12-.93 2.12-2.078 0-1.148-.949-2.078-2.12-2.078-1.171 0-2.12.93-2.12 2.078 0 1.148.949 2.078 2.12 2.078zM72.345 64c1.171 0 2.12-.93 2.12-2.078 0-1.148-.949-2.078-2.12-2.078-1.171 0-2.12.93-2.12 2.078 0 1.148.949 2.078 2.12 2.078zM81.113 47.156c1.17 0 2.12-.93 2.12-2.078 0-1.148-.95-2.078-2.12-2.078-1.171 0-2.12.93-2.12 2.078 0 1.148.949 2.078 2.12 2.078zM81.113 55.58c1.17 0 2.12-.93 2.12-2.078 0-1.148-.95-2.078-2.12-2.078-1.171 0-2.12.93-2.12 2.078 0 1.148.949 2.078 2.12 2.078zM81.113 64c1.17 0 2.12-.93 2.12-2.078 0-1.148-.95-2.078-2.12-2.078-1.171 0-2.12.93-2.12 2.078 0 1.148.949 2.078 2.12 2.078zM89.88 47.156c1.17 0 2.12-.93 2.12-2.078C92 43.93 91.05 43 89.88 43c-1.172 0-2.121.93-2.121 2.078 0 1.148.95 2.078 2.12 2.078zM89.88 55.58c1.17 0 2.12-.93 2.12-2.078 0-1.148-.95-2.078-2.12-2.078-1.172 0-2.121.93-2.121 2.078 0 1.148.95 2.078 2.12 2.078zM89.88 64c1.17 0 2.12-.93 2.12-2.078 0-1.148-.95-2.078-2.12-2.078-1.172 0-2.121.93-2.121 2.078 0 1.148.95 2.078 2.12 2.078zM54.817 47.156c1.171 0 2.12-.93 2.12-2.078 0-1.148-.949-2.078-2.12-2.078-1.171 0-2.12.93-2.12 2.078 0 1.148.949 2.078 2.12 2.078zM54.817 55.58c1.171 0 2.12-.93 2.12-2.078 0-1.148-.949-2.078-2.12-2.078-1.171 0-2.12.93-2.12 2.078 0 1.148.949 2.078 2.12 2.078zM54.817 64c1.171 0 2.12-.93 2.12-2.078 0-1.148-.949-2.078-2.12-2.078-1.171 0-2.12.93-2.12 2.078 0 1.148.949 2.078 2.12 2.078z" fill="#fff"/>
    <path d="M62.58 30.586h38.135a2.84 2.84 0 0 1 1.879.884 2.799 2.799 0 0 1 0 3.841 2.84 2.84 0 0 1-1.879.884h-2.687c-1.645.2-2.906 1.365-2.906 2.78 0 1.546 1.525 2.805 3.396 2.805h8.023a2.849 2.849 0 0 1 2.122.752 2.808 2.808 0 0 1 .897 2.053 2.798 2.798 0 0 1-.897 2.052 2.836 2.836 0 0 1-2.122.752H72.849a2.851 2.851 0 0 1-2.122-.752 2.81 2.81 0 0 1-.897-2.053 2.793 2.793 0 0 1 .897-2.052 2.835 2.835 0 0 1 2.122-.752h.578c1.883 0 3.396-1.247 3.396-2.805 0-1.415-1.256-2.58-2.9-2.78H62.579a2.84 2.84 0 0 1-1.879-.884 2.8 2.8 0 0 1 0-3.84 2.84 2.84 0 0 1 1.88-.885z" fill="#fff"/>
    <path d="M62.58 31.29h38.123c2.11.081 2.957 2.917 1.017 3.958-1.01.542-2.51.206-3.597.256a3.852 3.852 0 0 0-2.386.895 3.803 3.803 0 0 0-1.292 2.183c-.258 1.989 1.444 3.553 3.308 3.84.89.09 1.787.114 2.68.068h4.181c.816 0 1.883-.156 2.656.131 2.134.78 1.607 3.933-.628 4.076H73.077a2.234 2.234 0 0 1-1.334-.33 2.209 2.209 0 0 1-.883-1.047 2.099 2.099 0 0 1-.01-1.424c.162-.461.481-.852.901-1.107.697-.417 1.463-.255 2.235-.343 1.833-.218 3.597-1.608 3.54-3.57-.05-1.87-1.832-3.273-3.609-3.379-2.027-.125-4.105 0-6.133 0h-3.848a5.386 5.386 0 0 1-2.279-.212c-2.021-.972-1.255-3.926.923-4.001.91-.037.91-1.44 0-1.402-.937 0-1.836.37-2.499 1.027a3.496 3.496 0 0 0-1.035 2.482c0 .93.372 1.823 1.035 2.48a3.547 3.547 0 0 0 2.5 1.028c2.215.063 4.444 0 6.66 0h3.766c1.08 0 2.16.112 2.819 1.122a1.86 1.86 0 0 1-.678 2.568c-.747.499-1.55.455-2.405.492a3.547 3.547 0 0 0-2.482 1.068 3.496 3.496 0 0 0-.995 2.498c.015.93.401 1.817 1.075 2.465a3.548 3.548 0 0 0 2.515.988H103.717c1.01 0 2.033.062 3.038 0a3.547 3.547 0 0 0 2.406-1.14 3.495 3.495 0 0 0 .919-2.485 3.498 3.498 0 0 0-1.091-2.415 3.546 3.546 0 0 0-2.479-.972c-2.379-.062-4.765 0-7.144 0-1.255 0-2.649-.05-3.32-1.29a1.86 1.86 0 0 1 .954-2.55 3.633 3.633 0 0 1 1.883-.342c1.469 0 2.969.15 4.156-.898a3.553 3.553 0 0 0 1.158-2.519 3.525 3.525 0 0 0-1.014-2.58c-1.149-1.133-2.605-1.021-4.062-1.021H62.55a.71.71 0 0 0-.629.715.702.702 0 0 0 .66.687z" fill="#333"/>
    <path d="M53.533 36.201a2.821 2.821 0 0 0 2.832-2.811 2.821 2.821 0 0 0-2.832-2.81 2.821 2.821 0 0 0-2.83 2.81 2.821 2.821 0 0 0 2.83 2.811z" fill="#fff"/>
    <path d="M57.068 33.397a3.548 3.548 0 0 0-.652-2.012 3.587 3.587 0 0 0-1.684-1.292 3.559 3.559 0 0 0-2.13-.083 3.537 3.537 0 0 0-1.792 1.15 3.494 3.494 0 0 0-.315 4.025c.395.661.998 1.175 1.716 1.462a3.56 3.56 0 0 0 2.257.13 3.536 3.536 0 0 0 1.874-1.254c.47-.611.725-1.358.726-2.126a.703.703 0 0 0-.706-.638.703.703 0 0 0-.706.638 2.115 2.115 0 0 1-.38 1.194 2.138 2.138 0 0 1-.99.775c-.118.043-.24.076-.363.1 0 0-.183.031-.076 0h-.194a1.79 1.79 0 0 1-.697-.075 1.72 1.72 0 0 1-.578-.261c-.203-.12-.38-.28-.52-.468v-.031a1.82 1.82 0 0 1-.12-.181l-.075-.131s-.1-.212-.05-.1a2.62 2.62 0 0 1-.12-.355 1.323 1.323 0 0 1-.05-.305 1.917 1.917 0 0 1 .038-.623c.041-.224.13-.436.257-.624a2.118 2.118 0 0 1 1.032-.874 2.136 2.136 0 0 1 2.478.682c.281.367.433.816.432 1.277a.704.704 0 0 0 .694.556.712.712 0 0 0 .694-.556z" fill="#333"/>
    <path d="M126.91 12.703H80.036V72.1h46.874V12.703z" fill="#fff"/>
    <path d="M126.911 71.404H80.037l.71.698v-56.98c.068-.768.068-1.542 0-2.312a.624.624 0 0 1 0-.106l-.71.698h46.874l-.703-.697v56.979c0 .766-.057 1.552 0 2.312v.106a.701.701 0 0 0 .706.638.711.711 0 0 0 .706-.638v-56.98c0-.766.05-1.551 0-2.312a.624.624 0 0 1 0-.106.714.714 0 0 0-.211-.494.726.726 0 0 0-.498-.21H80.037a.718.718 0 0 0-.496.21.708.708 0 0 0-.207.494v56.98c0 .766-.057 1.552 0 2.312v.106a.708.708 0 0 0 .703.704h46.874a.7.7 0 0 0 .458-1.175.711.711 0 0 0-.458-.227z" fill="#333"/>
    <path d="M91.776 46.778a.758.758 0 0 1-.612-.31.744.744 0 0 1-.104-.675l7.596-21.577c.091-.284.256-.54.477-.742a1.427 1.427 0 0 1 1.055-.374h7.369a1.43 1.43 0 0 1 1.055.374c.221.202.386.458.477.742l7.596 21.578a.902.902 0 0 1 .031.236.681.681 0 0 1-.219.524.725.725 0 0 1-.528.224h-6.277a1.266 1.266 0 0 1-.935-.293 1.581 1.581 0 0 1-.396-.554l-.816-2.232h-7.32l-.822 2.232a1.743 1.743 0 0 1-.37.554 1.26 1.26 0 0 1-.954.293h-6.303zm10.182-9.673h3.848l-1.94-6.295-1.908 6.295z" fill="#DF357F"/>
    <path d="M118.838 52.326H88.109v4.282h30.729v-4.282zM118.838 59.287H88.109v4.282h30.729v-4.282z" fill="#E5DCD8"/>
    <path d="M152.297 44.117h-41.143v52.13h41.143v-52.13z" fill="#fff"/>
    <path d="M152.297 95.55h-41.143l.71.703V44.117l-.71.704h41.143l-.709-.704v52.136a.701.701 0 0 0 .706.638.711.711 0 0 0 .706-.638V44.117a.718.718 0 0 0-.703-.698h-41.143a.71.71 0 0 0-.703.698v52.136a.71.71 0 0 0 .703.698h41.143a.711.711 0 0 0 .458-.226.702.702 0 0 0-.458-1.176z" fill="#333"/>
    <path d="M123.207 74.021a.8.8 0 0 1-.571-.237.77.77 0 0 1-.239-.56V54.044a.812.812 0 0 1 .81-.803h9.925a13.425 13.425 0 0 1 4.696.697 5.384 5.384 0 0 1 2.705 2.082 6.31 6.31 0 0 1 .879 3.453 3.55 3.55 0 0 1-.402 1.708 4.66 4.66 0 0 1-.96 1.246 4.43 4.43 0 0 1-1.03.742 4.752 4.752 0 0 1 1.99 1.645c.563.772.862 1.703.854 2.655a6.34 6.34 0 0 1-.992 3.671 5.844 5.844 0 0 1-2.85 2.15 13.01 13.01 0 0 1-4.589.712l-10.226.018zm6.667-12.97h2.511a1.043 1.043 0 0 0 .942-.43c.181-.267.279-.582.282-.904a1.703 1.703 0 0 0-.282-.922 1.02 1.02 0 0 0-.942-.443h-2.511v2.699zm0 7.866h2.793a1.17 1.17 0 0 0 1.061-.493c.196-.283.305-.616.314-.96a1.62 1.62 0 0 0-.345-.997 1.21 1.21 0 0 0-1.03-.461h-2.781l-.012 2.91z" fill="#DF357F"/>
    <path d="M145.209 78.895h-26.968v3.759h26.968v-3.758zM145.209 85.004h-26.968v3.758h26.968v-3.758z" fill="#E5DCD8"/>
    <path d="M97.375 93.086a.711.711 0 0 0 .458-.227.701.701 0 0 0-.458-1.174.711.711 0 0 0-.458.227.7.7 0 0 0 0 .947c.119.13.282.21.458.227z" fill="#333"/>
    <path d="M106.076 84.013a4.693 4.693 0 0 0-.59-4.076 3.198 3.198 0 0 1-.797-1.515c-.038-.623.402-1.14.628-1.708.816-1.907-.628-4.07-2.436-5.166-.333-.206-.703-.43-.81-.81a2.055 2.055 0 0 1 0-.674 4.164 4.164 0 0 0-1.255-3.216c-.823-.866-4.445-.866-5.273 0a4.174 4.174 0 0 0-1.256 3.216c.041.223.041.45 0 .673-.1.38-.477.624-.81.81-1.77 1.097-3.252 3.26-2.43 5.167.24.567.679 1.091.629 1.708a3.215 3.215 0 0 1-.804 1.515 4.68 4.68 0 0 0-.584 4.076c.27.829.785 1.626.703 2.493-.113 1.103-1.18 2.082-.86 3.148.32 1.065 15.763 1.121 16.102 0 .339-1.122-.753-2.045-.86-3.148-.088-.867.427-1.664.703-2.493z" fill="#fff"/>
    <path d="M106.754 84.2a5.496 5.496 0 0 0-.804-4.818c-.257-.368-.628-.742-.527-1.246.133-.382.308-.747.521-1.091a3.71 3.71 0 0 0 .263-2.163 6.032 6.032 0 0 0-2.561-3.702c-.238-.175-.772-.393-.879-.686a8.084 8.084 0 0 1 .032-1.215 4.923 4.923 0 0 0-.954-2.319 3.625 3.625 0 0 0-2.932-1.452 6.103 6.103 0 0 0-3.465.511c-1.193.698-1.934 2.444-1.883 3.74 0 .492.15.71-.264 1.028-.282.218-.628.393-.891.623a6.701 6.701 0 0 0-1.664 1.92 4.154 4.154 0 0 0-.088 4.114c.226.448.42.772.214 1.246-.216.36-.455.706-.716 1.035a5.414 5.414 0 0 0-.333 4.899c.383.966.628 1.645.195 2.63-.39.841-1.143 2.337-.132 3.041.43.248.91.397 1.406.437.785.13 1.582.2 2.38.255 2.09.144 4.193.162 6.277.119a25.8 25.8 0 0 0 5.794-.499c.628-.162 1.155-.424 1.255-1.14.12-.855-.32-1.565-.627-2.313-.484-1.116.056-1.963.433-3.023.308-.853-1.061-1.246-1.362-.374a10.308 10.308 0 0 0-.716 2.163c-.035.712.131 1.42.477 2.044.174.305.309.63.402.966 0 .05.056.493 0 .468a.588.588 0 0 1 .125-.224c.239-.131-.087 0 0 0 .088 0-.188.062-.251.075-1.311.284-2.65.426-3.992.423-1.883.087-3.81.094-5.713.031-1.491.003-2.98-.12-4.45-.368a6.102 6.102 0 0 1-.628-.161h-.05c.006 0 0 0 .056.043.226.2 0 .274.088 0 .197-.64.44-1.265.728-1.87a3.164 3.164 0 0 0 0-2.162 10.739 10.739 0 0 1-.71-2.144 4.065 4.065 0 0 1 .566-2.53c.434-.528.768-1.13.985-1.777a2.962 2.962 0 0 0-.49-1.95c-.721-1.41-.075-2.818.999-3.86.49-.48 1.117-.753 1.607-1.214a1.953 1.953 0 0 0 .502-1.764c-.063-1.247.628-2.643 1.883-2.917a5.689 5.689 0 0 1 3.14.143 2.74 2.74 0 0 1 1.217 1.59c.282.779-.05 1.608.251 2.35.301.741 1.017.965 1.569 1.395a5.112 5.112 0 0 1 1.595 2.032 2.587 2.587 0 0 1-.132 2.244 2.9 2.9 0 0 0-.471 2.07c.201.797.879 1.358 1.212 2.1.392.912.442 1.934.138 2.879a.704.704 0 0 0 .502.866.715.715 0 0 0 .873-.498z" fill="#333"/>
    <path d="M92.385 87.82a5.833 5.833 0 0 0-.734-5.08c-.408-.622-.954-1.171-.998-1.869-.044-.698.508-1.42.81-2.125 1.023-2.375-.823-5.074-3.032-6.438-.415-.256-.88-.537-1.011-1.004a2.41 2.41 0 0 1 0-.848 5.182 5.182 0 0 0-.367-2.176 5.215 5.215 0 0 0-1.24-1.831 13.796 13.796 0 0 0-3.283-2.568 13.689 13.689 0 0 0-3.29 2.568 5.21 5.21 0 0 0-1.237 1.832 5.175 5.175 0 0 0-.364 2.175c.05.28.05.568 0 .848-.125.468-.627.748-1.01 1.004-2.204 1.364-4.05 4.063-3.026 6.438.301.704.841 1.365.803 2.125-.037.76-.583 1.296-.998 1.87a5.866 5.866 0 0 0-.734 5.08c.345 1.028.985 2.025.879 3.116-.138 1.371-1.47 2.6-1.074 3.92.396 1.322 19.649 1.397 20.088 0 .44-1.396-.935-2.549-1.073-3.92-.088-1.09.552-2.088.891-3.116z" fill="#DF357F"/>
    <path d="M93.062 88.007a6.642 6.642 0 0 0 0-3.864 6.47 6.47 0 0 0-.835-1.758c-.307-.46-.847-.96-.897-1.539-.05-.58.464-1.246.709-1.77.233-.515.363-1.07.383-1.633a5.543 5.543 0 0 0-.916-3.073 8.61 8.61 0 0 0-2.367-2.437c-.232-.168-.527-.299-.74-.486-.384-.33-.315-.555-.29-1.016a5.125 5.125 0 0 0-.207-1.87c-.747-2.368-2.957-4.1-5.022-5.304a.72.72 0 0 0-.71 0c-2.441 1.415-5.285 3.74-5.26 6.813 0 .393.201.891-.075 1.247a3.92 3.92 0 0 1-.841.573 8.726 8.726 0 0 0-1.639 1.433 6.382 6.382 0 0 0-1.726 3.74 4.335 4.335 0 0 0 .301 1.87c.258.623.904 1.358.747 2.075-.157.717-.853 1.31-1.192 1.945a6.646 6.646 0 0 0-.666 4.363c.22.815.498 1.613.835 2.387a2.706 2.706 0 0 1-.094 2.175 9.846 9.846 0 0 0-.778 1.87c-.314 1.514.483 2.05 1.795 2.312 1.452.25 2.92.398 4.394.442 3.745.216 7.5.166 11.237-.149 1.08-.1 2.643-.093 3.578-.735s.546-1.87.213-2.668c-.332-.798-.822-1.452-.822-2.263 0-.922.565-1.82.86-2.667.295-.848-1.06-1.247-1.356-.374-.47 1.327-1.192 2.561-.766 4.014.193.55.423 1.088.69 1.608.161.303.268.632.315.972-.005.144-.02.288-.044.43-.038-.044.163-.23.113-.206.2-.093-.176.07-.076.032-.188.066-.381.12-.577.162-.508.106-1.021.185-1.538.236-3.386.323-6.79.413-10.188.268-1.532-.043-3.07-.118-4.596-.292-.5-.054-.997-.14-1.487-.256-.1 0-.521-.156-.377-.106 0 0-.15-.075-.15-.081 0-.006.069.168.144.18v.063a.997.997 0 0 1-.044-.43c.013-.147.044-.291.094-.43a6.21 6.21 0 0 1 .358-.847 6.262 6.262 0 0 0 .627-1.87c.201-1.44-.703-2.618-1.01-3.965a5.266 5.266 0 0 1 .942-4.25c.86-1.21 1.255-2.194.527-3.59a3.541 3.541 0 0 1 .056-4.226 6.974 6.974 0 0 1 1.444-1.62 12.754 12.754 0 0 0 1.764-1.328c.54-.623.364-1.309.358-2.069a4.218 4.218 0 0 1 .747-2.306 11.277 11.277 0 0 1 3.81-3.297h-.709c1.959 1.14 4.488 2.998 4.557 5.485a4.734 4.734 0 0 0 .07 1.707c.19.417.503.766.897 1.004a8.878 8.878 0 0 1 2.474 2.23 4.02 4.02 0 0 1 .797 3.011c-.214 1.041-1.067 1.839-1.036 2.948.031 1.11.992 1.932 1.481 2.898a5.251 5.251 0 0 1 .277 3.89c-.189.885 1.18 1.253 1.437.392z" fill="#333"/>
    <path d="M87.03 85.808a14.64 14.64 0 0 0-4.84 3.384c-.465.511-.352 1.097-.352 1.745v8.352a.702.702 0 0 0 .229.455.712.712 0 0 0 1.184-.455v-9.442l-.207.492a14.094 14.094 0 0 1 4.702-3.322c.828-.361.106-1.57-.716-1.21z" fill="#333"/>
    <path d="M83.257 89.746a34.04 34.04 0 0 1-.22-7.061.699.699 0 0 0-.42-.71.715.715 0 0 0-.81.17.704.704 0 0 0-.182.54 35.942 35.942 0 0 0 .27 7.435.696.696 0 0 0 .592.507.707.707 0 0 0 .274-.02.726.726 0 0 0 .496-.86zM97.663 95.469c.208-6.233.214-12.466.421-18.698 0-.904-1.381-.904-1.412 0-.208 6.232-.214 12.465-.421 18.698 0 .897 1.381.897 1.412 0z" fill="#333"/>
    <path d="M97.707 83.364a30.265 30.265 0 0 1 6.598-2.71.703.703 0 0 0 .129-1.258.715.715 0 0 0-.505-.095 32.031 32.031 0 0 0-6.906 2.854.704.704 0 0 0-.197.928.709.709 0 0 0 .913.281h-.032z" fill="#333"/>
    <path d="m102.178 80.067-.973-3.814a.706.706 0 0 0-1.362.367l.973 3.82a.693.693 0 0 0 .321.47.71.71 0 0 0 1.085-.557.716.716 0 0 0-.044-.286z" fill="#333"/>
</svg>
