<svg width="111" height="63" fill="none" xmlns="http://www.w3.org/2000/svg">
    <path d="M49.092 49.995v-1.683h-1.727v-.772h1.718v-1.688h.787v1.688h1.722v.772H49.88v1.683h-.788zM41.236 49.995v-1.683h-1.717v-.772h1.717v-1.688h.787v1.688h1.722v.772h-1.722v1.683h-.787zM33.38 49.995v-1.683h-1.718v-.772h1.717v-1.688h.788v1.688h1.722v.772h-1.722v1.683h-.788zM49.092 41.218v-1.66h-1.727v-.79h1.718v-1.693h.787v1.692h1.722v.79H49.88v1.68l-.788-.02zM41.236 41.218v-1.66h-1.717v-.79h1.717v-1.693h.787v1.692h1.722v.79h-1.722v1.68l-.787-.02zM33.38 41.218v-1.66h-1.718v-.79h1.717v-1.693h.788v1.692h1.722v.79h-1.722v1.68l-.788-.02zM49.092 33.147V31.47h-1.727v-.772h1.718v-1.692h.787v1.692h1.722v.772H49.88v1.678h-.788zM41.236 33.147V31.47h-1.717v-.772h1.717v-1.692h.787v1.692h1.722v.772h-1.722v1.678h-.787zM33.38 33.147V31.47h-1.718v-.772h1.717v-1.692h.788v1.692h1.722v.772h-1.722v1.678h-.788zM26.424 49.995v-1.683h-1.717v-.772h1.717v-1.688h.788v1.688h1.722v.772h-1.722v1.683h-.788zM18.569 49.995v-1.683h-1.717v-.772h1.717v-1.688h.806v1.688h1.722v.772h-1.722v1.683h-.806zM10.713 49.995v-1.683H9v-.772h1.713v-1.688h.787v1.688h1.708v.772H11.5v1.683h-.787zM26.424 41.218v-1.66h-1.717v-.79h1.717v-1.693h.788v1.692h1.722v.79h-1.722v1.68l-.788-.02zM18.569 41.218v-1.66h-1.717v-.79h1.717v-1.693h.806v1.692h1.722v.79h-1.722v1.68l-.806-.02zM10.713 41.218v-1.66H9v-.79h1.713v-1.693h.787v1.692h1.708v.79H11.5v1.68l-.787-.02zM26.424 33.147V31.47h-1.717v-.772h1.717v-1.692h.788v1.692h1.722v.772h-1.722v1.678h-.788zM18.569 33.147V31.47h-1.717v-.772h1.717v-1.692h.806v1.692h1.722v.772h-1.722v1.678h-.806zM10.713 33.147V31.47H9v-.772h1.713v-1.692h.787v1.692h1.708v.772H11.5v1.678h-.787zM67.584 33.156c1.17 0 2.12-.93 2.12-2.078 0-1.148-.95-2.078-2.12-2.078-1.172 0-2.121.93-2.121 2.078 0 1.148.95 2.078 2.12 2.078zM67.584 41.58c1.17 0 2.12-.93 2.12-2.078 0-1.148-.95-2.078-2.12-2.078-1.172 0-2.121.93-2.121 2.078 0 1.148.95 2.078 2.12 2.078zM67.584 50c1.17 0 2.12-.93 2.12-2.078 0-1.148-.95-2.078-2.12-2.078-1.172 0-2.121.93-2.121 2.078 0 1.148.95 2.078 2.12 2.078zM76.345 33.156c1.171 0 2.12-.93 2.12-2.078 0-1.148-.949-2.078-2.12-2.078-1.171 0-2.12.93-2.12 2.078 0 1.148.949 2.078 2.12 2.078zM76.345 41.58c1.171 0 2.12-.93 2.12-2.078 0-1.148-.949-2.078-2.12-2.078-1.171 0-2.12.93-2.12 2.078 0 1.148.949 2.078 2.12 2.078zM76.345 50c1.171 0 2.12-.93 2.12-2.078 0-1.148-.949-2.078-2.12-2.078-1.171 0-2.12.93-2.12 2.078 0 1.148.949 2.078 2.12 2.078zM85.113 33.156c1.17 0 2.12-.93 2.12-2.078 0-1.148-.95-2.078-2.12-2.078-1.171 0-2.12.93-2.12 2.078 0 1.148.949 2.078 2.12 2.078zM85.113 41.58c1.17 0 2.12-.93 2.12-2.078 0-1.148-.95-2.078-2.12-2.078-1.171 0-2.12.93-2.12 2.078 0 1.148.949 2.078 2.12 2.078zM85.113 50c1.17 0 2.12-.93 2.12-2.078 0-1.148-.95-2.078-2.12-2.078-1.171 0-2.12.93-2.12 2.078 0 1.148.949 2.078 2.12 2.078zM93.88 33.156c1.17 0 2.12-.93 2.12-2.078C96 29.93 95.05 29 93.88 29c-1.172 0-2.121.93-2.121 2.078 0 1.148.95 2.078 2.12 2.078zM93.88 41.58c1.17 0 2.12-.93 2.12-2.078 0-1.148-.95-2.078-2.12-2.078-1.172 0-2.121.93-2.121 2.078 0 1.148.95 2.078 2.12 2.078zM93.88 50c1.17 0 2.12-.93 2.12-2.078 0-1.148-.95-2.078-2.12-2.078-1.172 0-2.121.93-2.121 2.078 0 1.148.95 2.078 2.12 2.078zM58.817 33.156c1.171 0 2.12-.93 2.12-2.078 0-1.148-.949-2.078-2.12-2.078-1.171 0-2.12.93-2.12 2.078 0 1.148.949 2.078 2.12 2.078zM58.817 41.58c1.171 0 2.12-.93 2.12-2.078 0-1.148-.949-2.078-2.12-2.078-1.171 0-2.12.93-2.12 2.078 0 1.148.949 2.078 2.12 2.078zM58.817 50c1.171 0 2.12-.93 2.12-2.078 0-1.148-.949-2.078-2.12-2.078-1.171 0-2.12.93-2.12 2.078 0 1.148.949 2.078 2.12 2.078z" fill="#fff"/>
    <path d="M56.293 25.22c-.593.736-1.742 1.158-2.67 1.306.883.075 1.864.199 2.425.893.25.35.426.746.52 1.167.236.827.445 1.654.633 2.48.168-.741.373-1.474.614-2.195a3 3 0 0 1 .36-.79c.573-.802 1.71-.868 2.687-.86a35.148 35.148 0 0 1-1.427-.922 5.137 5.137 0 0 1-.86-.69c-.903-.952-1.026-2.387-1.1-3.722-.016.024-.425 2.365-1.182 3.333z" fill="#F0D227"/>
    <path d="M55.966 24.89a4.02 4.02 0 0 1-2.454 1.186c-.544.095-.36.873.123.914.875.079 1.881.194 2.29 1.1a16.46 16.46 0 0 1 .843 3.11.467.467 0 0 0 .444.336.459.459 0 0 0 .444-.336c.117-.513.253-1.022.409-1.526.094-.502.289-.98.572-1.402.528-.604 1.514-.579 2.242-.575a.464.464 0 0 0 .429-.35.477.477 0 0 0-.2-.518c-.892-.55-2.045-1.108-2.565-2.068-.478-.856-.536-1.894-.589-2.857-.029-.492-.818-.666-.904-.124-.18 1.021-.409 2.27-1.067 3.101-.36.467.29 1.133.65.662.752-.984 1.092-2.308 1.305-3.515l-.904-.124c.065 1.133.151 2.324.712 3.308.617 1.108 1.86 1.75 2.9 2.39l.233-.864c-.97 0-2.045.054-2.806.76a3.191 3.191 0 0 0-.74 1.394c-.218.67-.41 1.348-.561 2.03h.888a47.247 47.247 0 0 0-.495-1.992 5.212 5.212 0 0 0-.663-1.717c-.659-.926-1.816-1.091-2.863-1.182l.122.914a4.787 4.787 0 0 0 2.864-1.423c.376-.426-.27-1.087-.659-.632z" fill="#333"/>
    <path d="M95.526 18.467H63.942v40.599h31.584v-40.6z" fill="#fff"/>
    <path d="M95.526 58.599H63.943l.458.467V20.13a8.986 8.986 0 0 0 0-1.592.462.462 0 0 1 0-.075l-.458.467h31.583l-.462-.467V57.4c0 .525-.037 1.067 0 1.592a.463.463 0 0 1 0 .074.468.468 0 0 0 .46.423.46.46 0 0 0 .31-.121.469.469 0 0 0 .15-.302V20.13c0-.526.037-1.067 0-1.592v-.075a.474.474 0 0 0-.136-.325.464.464 0 0 0-.322-.138H63.943a.464.464 0 0 0-.325.137.474.474 0 0 0-.138.326V57.4c0 .525-.032 1.067 0 1.592a.463.463 0 0 1 0 .074c.003.123.052.24.138.327a.464.464 0 0 0 .325.136h31.583a.47.47 0 0 0 0-.93z" fill="#333"/>
    <path d="M87.582 41.029H71.887V28.234l7.866-3.53 7.83 3.53V41.03z" fill="#fff"/>
    <path d="M87.582 40.561H71.886l.458.468V28.234l-.225.414 7.862-3.531h-.466l7.833 3.531-.229-.413v12.794a.47.47 0 0 0 .15.301.46.46 0 0 0 .77-.301V28.234a.455.455 0 0 0-.224-.413l-6.954-3.143c-.287-.128-.569-.28-.863-.388-.295-.108-.692.099-1.015.244l-4.029 1.81-3.272 1.477a.454.454 0 0 0-.23.413V41.03c.004.122.053.239.14.325a.468.468 0 0 0 .323.138H87.61a.47.47 0 0 0-.029-.93z" fill="#333"/>
    <path d="m79.752 23.186-9.433 4.238v2.485l9.433-4.234 9.4 4.234v-2.485l-9.4-4.238z" fill="#DF357F"/>
    <path d="m79.52 22.785-8.263 3.721-1.17.526a.448.448 0 0 0-.23.413v2.481a.475.475 0 0 0 .23.407.463.463 0 0 0 .462.007l8.263-3.722 1.174-.525h-.466l8.214 3.722 1.186.533a.463.463 0 0 0 .63-.18.474.474 0 0 0 .061-.233v-2.482a.462.462 0 0 0-.229-.413l-8.214-3.722-1.182-.529c-.536-.244-1.006.558-.466.802l8.214 3.722 1.186.533-.23-.413v2.48l.692-.413-8.37-3.775c-.339-.149-.678-.33-1.026-.46-.348-.127-.777.142-1.12.294l-4.852 2.18-3.927 1.761.691.414v-2.481l-.229.413 8.263-3.721 1.174-.526c.54-.256.074-1.058-.466-.814z" fill="#333"/>
    <path d="M82.411 33.147h-5.354v7.877h5.354v-7.877z" fill="#DF357F"/>
    <path d="M82.412 40.561h-5.355l.458.467v-7.881l-.458.467h5.355l-.463-.467v7.881a.47.47 0 0 0 .15.302.46.46 0 0 0 .77-.302v-7.881a.47.47 0 0 0-.135-.327.46.46 0 0 0-.322-.136h-5.355a.464.464 0 0 0-.324.136.474.474 0 0 0-.138.327v7.881a.469.469 0 0 0 .462.463h5.355a.46.46 0 0 0 .298-.15.47.47 0 0 0 0-.63.46.46 0 0 0-.298-.15z" fill="#333"/>
    <path d="M91.047 44.32H68.426v1.877h22.62V44.32zM91.047 48.066H68.426v1.877h22.62v-1.877zM82.415 51.809h-13.99v1.877h13.99v-1.877z" fill="#CCC"/>
    <path d="M75.637 30.318H74.2a.411.411 0 0 0-.409.414v1.451c0 .228.183.413.409.413h1.436c.226 0 .409-.185.409-.413v-1.451a.411.411 0 0 0-.41-.414zM85.099 30.318h-1.436a.411.411 0 0 0-.41.414v1.451c0 .228.184.413.41.413h1.436c.226 0 .409-.185.409-.413v-1.451a.411.411 0 0 0-.41-.414z" fill="#333"/>
    <path d="M63.943 60.534c5.785 0 10.476-4.742 10.476-10.59 0-5.85-4.69-10.59-10.476-10.59-5.786 0-10.476 4.74-10.476 10.59 0 5.848 4.69 10.59 10.476 10.59z" fill="#DF357F"/>
    <path d="M73.956 49.94c0 2.087-.638 4.123-1.828 5.83-1.19 1.707-2.872 3-4.816 3.702a9.911 9.911 0 0 1-6.047.222 10.005 10.005 0 0 1-5.07-3.34 10.211 10.211 0 0 1-.835-11.63 10.049 10.049 0 0 1 4.539-4.045 9.914 9.914 0 0 1 6.015-.664c2.26.478 4.289 1.723 5.752 3.529a10.295 10.295 0 0 1 2.29 6.395.47.47 0 0 0 .149.302.46.46 0 0 0 .771-.302c0-2.283-.7-4.51-2.003-6.375a10.953 10.953 0 0 0-5.273-4.041 10.826 10.826 0 0 0-6.613-.228 10.93 10.93 0 0 0-5.533 3.668 11.153 11.153 0 0 0-.863 12.722 10.975 10.975 0 0 0 4.986 4.398 10.83 10.83 0 0 0 6.582.686 11.027 11.027 0 0 0 6.24-3.867 11.24 11.24 0 0 0 2.477-6.963.46.46 0 0 0-.92 0z" fill="#333"/>
    <path d="M63.943 58.623c4.742 0 8.586-3.886 8.586-8.68 0-4.793-3.844-8.68-8.586-8.68-4.742 0-8.587 3.887-8.587 8.68 0 4.794 3.845 8.68 8.587 8.68z" fill="#fff"/>
    <path d="M72.066 49.94a8.274 8.274 0 0 1-1.486 4.726 8.134 8.134 0 0 1-3.906 3 8.041 8.041 0 0 1-4.902.18 8.117 8.117 0 0 1-4.11-2.705 8.284 8.284 0 0 1-.69-9.429 8.153 8.153 0 0 1 3.674-3.286 8.044 8.044 0 0 1 4.875-.55 8.199 8.199 0 0 1 4.68 2.863 8.359 8.359 0 0 1 1.865 5.2.47.47 0 0 0 .149.302.46.46 0 0 0 .77-.301 9.212 9.212 0 0 0-1.654-5.267 9.056 9.056 0 0 0-4.355-3.341 8.95 8.95 0 0 0-5.463-.194 9.036 9.036 0 0 0-4.576 3.023 9.222 9.222 0 0 0-.739 10.509 9.075 9.075 0 0 0 4.108 3.646 8.956 8.956 0 0 0 5.436.588 9.136 9.136 0 0 0 5.18-3.195 9.312 9.312 0 0 0 2.064-5.77.47.47 0 0 0-.15-.301.46.46 0 0 0-.77.302z" fill="#333"/>
    <path d="M63.219 54.67a.296.296 0 0 1-.221-.09.32.32 0 0 1-.09-.22v-.798a4.139 4.139 0 0 1-1.518-.496 2.535 2.535 0 0 1-.908-.852 2.038 2.038 0 0 1-.315-1.042.243.243 0 0 1 .074-.178.245.245 0 0 1 .175-.074h2.173a.608.608 0 0 1 .278.05c.074.042.146.09.213.144.074.053.152.101.233.145.086.044.179.076.274.095.112.017.226.026.34.025.21.008.42-.02.621-.083.155-.058.233-.136.233-.24a.27.27 0 0 0-.13-.227 1.339 1.339 0 0 0-.45-.17 8.812 8.812 0 0 0-.892-.144 5.731 5.731 0 0 1-1.567-.414 2.426 2.426 0 0 1-1.023-.827 2.242 2.242 0 0 1-.36-1.286 2.29 2.29 0 0 1 .692-1.679 3.416 3.416 0 0 1 1.857-.897v-.827c0-.082.032-.161.09-.22a.303.303 0 0 1 .22-.095h1.38a.328.328 0 0 1 .31.314v.828c.486.09.95.279 1.362.554.336.215.625.496.851.827.182.259.29.564.31.88a.252.252 0 0 1-.073.179.233.233 0 0 1-.168.074h-2.282a.64.64 0 0 1-.258-.046.94.94 0 0 1-.2-.14.901.901 0 0 0-.622-.207.787.787 0 0 0-.409.087.271.271 0 0 0-.13.236.267.267 0 0 0 .101.198c.113.081.241.136.377.161.26.06.524.105.79.137a6.69 6.69 0 0 1 1.832.447c.412.163.763.452 1.006.827.217.375.326.805.315 1.24.004.44-.121.872-.36 1.24a2.821 2.821 0 0 1-.994.902 4.49 4.49 0 0 1-1.456.488v.827a.31.31 0 0 1-.094.22.289.289 0 0 1-.217.09l-1.37.037z" fill="#DF357F"/>
</svg>
