<svg width="175" height="150" fill="none" xmlns="http://www.w3.org/2000/svg" viewBox="0 0 175 150">
    <path d="M82.803 136.42c34.634 0 62.71-28.076 62.71-62.71S117.437 11 82.803 11c-34.633 0-62.71 28.076-62.71 62.71s28.076 62.71 62.71 62.71z" fill="#F6F2EF"/>
    <path d="M142.333 23.84c-1.36 2.2-4.36 3.75-6.84 4.48 2.44-.12 5.17-.13 6.94 1.55a8.837 8.837 0 0 1 1.83 3c.94 2.13 1.8 4.3 2.6 6.5.21-2.07.51-4.12.92-6.16a8.144 8.144 0 0 1 .7-2.26c1.29-2.37 4.37-2.95 7-3.27-1.42-.63-2.83-1.3-4.22-2a15.11 15.11 0 0 1-2.59-1.56c-2.8-2.26-3.64-6.1-4.3-9.63.04-.01-.26 6.46-2.04 9.35z" fill="#F0D227"/>
    <path d="M141.363 23.27c-1.37 2.08-3.86 3.26-6.17 4-1.17.36-1 2.27.3 2.21 2.42-.1 5.33-.22 6.82 2.05 1.49 2.27 2.48 5.47 3.47 8.16a1.133 1.133 0 0 0 1.922.424c.179-.2.281-.456.288-.724.15-1.49.35-3 .61-4.44a9.068 9.068 0 0 1 1.13-3.84c1.28-1.71 3.83-2 5.79-2.29 1-.12 1.72-1.58.57-2.09-2.72-1.22-6.22-2.37-8-4.88-1.57-2.21-2.08-5-2.57-7.63-.25-1.3-2.15-.91-2.21.3-.14 2.88-.45 6.27-1.93 8.79a1.134 1.134 0 0 0 .451 1.453 1.13 1.13 0 0 0 1.489-.313c1.69-2.88 2.08-6.65 2.24-9.93l-2.21.3c.55 2.93 1.19 6 3 8.45 2.06 2.77 5.56 4 8.61 5.4l.56-2.1c-2.61.33-5.57.79-7.37 2.93a8.552 8.552 0 0 0-1.59 4.14c-.36 1.9-.62 3.82-.82 5.75l2.21-.3c-.65-1.76-1.33-3.49-2.05-5.22a15.973 15.973 0 0 0-2.28-4.33c-2-2.35-5.27-2.43-8.13-2.31l.3 2.21c2.9-.89 5.81-2.4 7.51-5 .8-1.25-1.15-2.38-1.94-1.17z" fill="#333"/>
    <path d="M124.793 109.2h-74.23V39.74l37.19-15.46 37.04 15.46v69.46z" fill="#fff"/>
    <path d="M124.803 108.08h-74.24l1.13 1.12V39.74l-.83 1.08 32.47-13.49 3.15-1.31c.35-.14 1.25-.33 1.49-.62s-.54-.18-.44 0c.1.18.43.18.52.22l2.26.94 19 7.93 15.19 6.34-.83-1.08v69.44a1.132 1.132 0 0 0 1.886.729c.208-.189.338-.449.364-.729V39.73a1.16 1.16 0 0 0-.82-1.08l-32.77-13.68a28.998 28.998 0 0 0-4.24-1.77c-1-.24-2.56.79-3.47 1.17l-19.2 8-15.15 6.31a1.17 1.17 0 0 0-.83 1.08v69.43a1.151 1.151 0 0 0 1.12 1.13h74.24a1.132 1.132 0 0 0 .98-1.12 1.13 1.13 0 0 0-.98-1.12z" fill="#333"/>
    <path d="m87.774 20.85-44.63 19.83v8.05l44.63-19.82 44.44 19.82v-8.05l-44.44-19.83z" fill="#DF357F"/>
    <path d="m87.194 19.88-15.11 6.72-24 10.65-5.53 2.45a1.12 1.12 0 0 0-.56 1v8.05a1.14 1.14 0 0 0 1.69 1l15.12-6.72 24-10.65 5.54-2.46h-1.14l15 6.71 23.94 10.68 5.47 2.44a1.137 1.137 0 0 0 1.54-.435c.098-.172.15-.367.15-.565V40.7a1.114 1.114 0 0 0-.55-1l-15-6.7-23.95-10.68-5.47-2.44c-1.31-.58-2.46 1.35-1.14 1.94l15 6.71 23.94 10.68 5.47 2.44-.56-1v8.05l1.7-1-15.26-6.8-24-10.72c-1.69-.76-3.38-1.65-5.13-2.29-1.27-.47-3.36 1-4.49 1.47l-23 10.2-11.57 5.14c-2.11.94-4.43 1.73-6.44 2.86-.103.055-.21.102-.32.14l1.69 1v-8.05l-.56 1 15.12-6.72 24-10.65 5.54-2.46c1.33-.58.19-2.52-1.13-1.94z" fill="#333"/>
    <path d="M68.463 65.98a6.56 6.56 0 1 0 0-13.12 6.56 6.56 0 0 0 0 13.12z" fill="#DF357F"/>
    <path d="M73.894 59.42a5.43 5.43 0 1 1-4.48-5.35 5.47 5.47 0 0 1 4.48 5.35 1.13 1.13 0 0 0 2.25 0 7.8 7.8 0 0 0-5-7.21 7.67 7.67 0 1 0 5 7.21 1.13 1.13 0 0 0-2.25 0z" fill="#333"/>
    <path d="M89.103 65.98a6.56 6.56 0 1 0 0-13.12 6.56 6.56 0 0 0 0 13.12z" fill="#DF357F"/>
    <path d="M94.533 59.42a5.43 5.43 0 1 1-4.47-5.35 5.46 5.46 0 0 1 4.47 5.35 1.13 1.13 0 0 0 2.25 0 7.681 7.681 0 1 0-6.21 7.53 7.78 7.78 0 0 0 6.21-7.53 1.13 1.13 0 0 0-2.25 0z" fill="#333"/>
    <path d="M109.753 65.98a6.56 6.56 0 1 0 0-13.12 6.56 6.56 0 0 0 0 13.12z" fill="#DF357F"/>
    <path d="M115.184 59.42a5.444 5.444 0 0 1-3.58 5.117 5.44 5.44 0 1 1-.9-10.467 5.49 5.49 0 0 1 4.48 5.35 1.127 1.127 0 0 0 1.125 1.024 1.129 1.129 0 0 0 1.125-1.024 7.816 7.816 0 0 0-5-7.21 7.669 7.669 0 1 0 5 7.21 1.133 1.133 0 0 0-1.125-1.023 1.13 1.13 0 0 0-1.125 1.023zM50.503 103.37h74.3a1.13 1.13 0 0 0 0-2.25h-74.3a1.133 1.133 0 0 0-1.023 1.125 1.132 1.132 0 0 0 1.023 1.125z" fill="#333"/>
    <path d="M100.954 77.48h-26.54v31.32h26.54V77.48z" fill="#DF357F"/>
    <path d="M100.943 107.67h-26.54l1.13 1.13V77.48l-1.13 1.12h26.54l-1.12-1.12v31.32a1.127 1.127 0 0 0 1.125 1.023 1.126 1.126 0 0 0 1.125-1.023V77.48a1.152 1.152 0 0 0-1.13-1.13h-26.54a1.14 1.14 0 0 0-1.12 1.13v31.32a1.131 1.131 0 0 0 1.12 1.12h26.54a1.13 1.13 0 0 0 0-2.25z" fill="#333"/>
    <path d="M96.664 96.08a2.94 2.94 0 1 0 0-5.88 2.94 2.94 0 0 0 0 5.88z" fill="#333"/>
    <path d="M66.443 70.05h-39.93a6.34 6.34 0 0 0-6.34 6.34v55.86a6.34 6.34 0 0 0 6.34 6.34h39.93a6.34 6.34 0 0 0 6.34-6.34V76.39a6.34 6.34 0 0 0-6.34-6.34z" fill="#fff"/>
    <path d="M66.443 137.46h-38.53c-.933.066-1.872.006-2.79-.18a5.298 5.298 0 0 1-3.82-5.17v-52.1c0-2.11-.35-4.68.88-6.51 1.88-2.79 5.26-2.3 8.17-2.3h12.89c7.65 0 15.31-.06 23 0a5.31 5.31 0 0 1 5.17 3.5c.242.865.337 1.764.28 2.66v36.83c0 6 .13 12 0 18a5.278 5.278 0 0 1-5.21 5.26c-1.44 0-1.45 2.29 0 2.25a7.549 7.549 0 0 0 7.34-6.13c.11-.791.15-1.591.12-2.39V80.45c0-2.07.29-4.55-.42-6.53a7.56 7.56 0 0 0-7.06-5h-39.47a7.628 7.628 0 0 0-7.94 7.67v35.96c0 6.53-.12 13.07 0 19.6a7.591 7.591 0 0 0 3.69 6.53 8.653 8.653 0 0 0 4.52 1h39.18a1.13 1.13 0 0 0 0-2.22z" fill="#333"/>
    <path d="M63.773 77.63h-34.59a2.48 2.48 0 0 0-2.48 2.48v8.98a2.48 2.48 0 0 0 2.48 2.48h34.59a2.48 2.48 0 0 0 2.48-2.48v-8.98a2.48 2.48 0 0 0-2.48-2.48z" fill="#CCC"/>
    <path d="M63.803 90.45h-33.61c-1 0-2.18.06-2.33-1.35a39.813 39.813 0 0 1 0-4.37 41.704 41.704 0 0 1 0-4.61c.14-1.35 1.22-1.36 2.25-1.36h27.91c1.926-.1 3.855-.1 5.78 0 1.87.2 1.35 2.81 1.35 4.14v5.73c0 .89-.27 1.75-1.35 1.82-1.44.1-1.45 2.35 0 2.25a3.67 3.67 0 0 0 3.42-2.49c.17-.68.23-1.381.18-2.08v-6.52c0-2.14-.28-4.43-2.8-5a10.766 10.766 0 0 0-2.34-.1h-24.92c-2.67 0-5.35-.08-8 0a3.7 3.7 0 0 0-3.71 3.74c-.06 1.94 0 3.89 0 5.83 0 1.72-.35 3.92.84 5.33a4.262 4.262 0 0 0 3.57 1.29h9.9c7.8 0 15.6.11 23.4 0h.48a1.13 1.13 0 0 0-.02-2.25z" fill="#333"/>
    <path d="M62.553 97.5h-32.15a3.7 3.7 0 0 0-3.7 3.7v23.62a3.7 3.7 0 0 0 3.7 3.7h32.15a3.7 3.7 0 0 0 3.7-3.7V101.2a3.7 3.7 0 0 0-3.7-3.7z" fill="#DF357F"/>
    <path d="M62.553 127.4h-31.37c-1.73 0-3.26-.64-3.35-2.66-.22-4.26 0-8.58 0-12.85v-7.7c0-1.21-.29-2.999.27-4.129.8-1.59 2.47-1.41 4-1.41h28.85c1.48 0 3.15-.18 4 1.41.56 1.14.27 2.919.27 4.129v7.72c0 4.27.21 8.591 0 12.851a2.628 2.628 0 0 1-2.57 2.659c-1.44.06-1.45 2.31 0 2.25 3.08-.14 4.82-2.509 4.82-5.419v-22.2c0-2.55-1.09-5-3.85-5.55a18.868 18.868 0 0 0-3.68-.1h-16.47c-4.26 0-8.52-.06-12.77 0a4.92 4.92 0 0 0-5 4.88c-.06 1.63 0 3.279 0 4.919v16.561c0 2-.14 3.95 1.41 5.5 1.38 1.38 3.1 1.409 4.89 1.409h30.67a1.132 1.132 0 0 0 1.075-1.195 1.137 1.137 0 0 0-1.195-1.075z" fill="#333"/>
    <path d="M26.703 113.01h39.55" stroke="#333" stroke-width=".75" stroke-miterlimit="10"/>
    <path d="M26.703 106.51h39.55a1.134 1.134 0 0 0 1.024-1.125 1.13 1.13 0 0 0-1.024-1.125h-39.55a1.128 1.128 0 0 0-.73 1.885c.19.208.45.338.73.365zM26.703 114.189h39.55a1.128 1.128 0 0 0 .73-1.885 1.134 1.134 0 0 0-.73-.365h-39.55a1.134 1.134 0 0 0-1.023 1.125 1.13 1.13 0 0 0 1.023 1.125zM26.703 121.77h39.55a1.134 1.134 0 0 0 1.024-1.125 1.13 1.13 0 0 0-1.024-1.125h-39.55a1.128 1.128 0 0 0-.73 1.885c.19.208.45.338.73.365z" fill="#333"/>
    <path d="M38.653 97.51v31a1.133 1.133 0 0 0 1.125 1.024 1.131 1.131 0 0 0 1.125-1.024v-31a1.13 1.13 0 0 0-2.25 0zM51.724 97.51v31a1.133 1.133 0 0 0 1.125 1.024 1.131 1.131 0 0 0 1.125-1.024v-31a1.13 1.13 0 0 0-2.25 0zM34.663 88.8a.27.27 0 0 1-.27-.27v-5.16l-1.49 1.14a.21.21 0 0 1-.2 0 .27.27 0 0 1-.18-.12l-.64-.83a.33.33 0 0 1 0-.21.22.22 0 0 1 .13-.18l2.49-1.93.13-.06H36.123a.27.27 0 0 1 .27.27v7.05a.27.27 0 0 1-.08.19.22.22 0 0 1-.19.08l-1.46.03zM38.313 88.8a.26.26 0 0 1-.2-.08.27.27 0 0 1-.08-.19v-.77a.843.843 0 0 1 0-.23.58.58 0 0 1 .23-.3l1.13-1.11c.58-.44 1-.81 1.43-1.12a5.36 5.36 0 0 0 .83-.82 1.11 1.11 0 0 0 .27-.67 1 1 0 0 0-.19-.61.78.78 0 0 0-.66-.25.94.94 0 0 0-.52.14.999.999 0 0 0-.32.35 1.62 1.62 0 0 0-.16.45.288.288 0 0 1-.14.19.46.46 0 0 1-.23.06h-1.35a.222.222 0 0 1-.16-.07.2.2 0 0 1-.07-.16c.003-.345.078-.686.22-1 .14-.31.345-.586.6-.81.269-.24.581-.427.92-.55a3.53 3.53 0 0 1 1.21-.2 3.7 3.7 0 0 1 1.57.3 2.22 2.22 0 0 1 1 .82c.229.37.347.796.34 1.23a2.14 2.14 0 0 1-.24 1 3.08 3.08 0 0 1-.66.87c-.314.311-.648.602-1 .87l-1 1h2.79a.29.29 0 0 1 .2.07.281.281 0 0 1 .08.2v1.09a.27.27 0 0 1-.08.19.26.26 0 0 1-.2.08l-5.56.03zM48.704 88.91a4.37 4.37 0 0 1-1.43-.2 3 3 0 0 1-1-.52 2.18 2.18 0 0 1-.56-.68 1.781 1.781 0 0 1-.2-.7.24.24 0 0 1 .24-.23h1.42a.39.39 0 0 1 .2.05c.06.039.11.094.14.16a.769.769 0 0 0 .26.33.87.87 0 0 0 .4.18c.173.016.347.016.52 0a1.3 1.3 0 0 0 .86-.25.861.861 0 0 0 .31-.7.73.73 0 0 0-.29-.67 1.47 1.47 0 0 0-.83-.2h-1.21a.27.27 0 0 1-.27-.27v-.61a.44.44 0 0 1 .06-.23.4.4 0 0 1 .11-.14l1.78-1.51h-3a.26.26 0 0 1-.19-.07.24.24 0 0 1-.08-.2v-1a.22.22 0 0 1 .08-.19.27.27 0 0 1 .19-.08h5a.3.3 0 0 1 .2.08.26.26 0 0 1 .08.19v.92a.43.43 0 0 1-.06.22.401.401 0 0 1-.11.14l-1.65 1.53h.07c.387.04.763.152 1.11.33.32.156.588.403.77.71.2.356.298.761.28 1.17a2 2 0 0 1-.42 1.27 2.63 2.63 0 0 1-1.13.83 4.402 4.402 0 0 1-1.65.34zM57.093 88.8a.22.22 0 0 1-.19-.08.25.25 0 0 1-.09-.19v-1.22h-3.37a.29.29 0 0 1-.19-.08.26.26 0 0 1-.08-.19v-1a.34.34 0 0 1 0-.18.802.802 0 0 1 .08-.16l3.16-4.27a.45.45 0 0 1 .4-.19h1.58c.072 0 .14.029.19.08a.26.26 0 0 1 .08.19v4.21h1a.281.281 0 0 1 .2.08.29.29 0 0 1 .08.19v1.08a.26.26 0 0 1-.08.19.29.29 0 0 1-.19.08h-1v1.22a.27.27 0 0 1-.08.19.24.24 0 0 1-.19.08l-1.31-.03zm-2-3h1.82v-2.61l-1.82 2.61z" fill="#333"/>
</svg>
