<svg width="120" height="80" fill="none" xmlns="http://www.w3.org/2000/svg">
    <path opacity=".15" d="M18.13 42.68a26.791 26.791 0 0 1-8.5-1.17 16.651 16.651 0 0 1-5.56-3A12.27 12.27 0 0 1 1 34.71a9.12 9.12 0 0 1-1-3.66 1.16 1.16 0 0 1 .37-.87 1.18 1.18 0 0 1 .86-.36h11.2a2 2 0 0 1 1.14.25c.271.192.525.406.76.64.244.209.505.396.78.56.36.212.757.355 1.17.42.628.103 1.264.15 1.9.14a3.84 3.84 0 0 0 2.82-.87 2.82 2.82 0 0 0 .87-2.09 2.05 2.05 0 0 0-.92-1.87 5.26 5.26 0 0 0-2.77-.59h-7a1.52 1.52 0 0 1-1.51-1.51v-4.53a2.68 2.68 0 0 1 .36-1.42c.18-.33.442-.609.76-.81l7.76-4.25H3.88a1.499 1.499 0 0 1-1.51-1.51V4.5a1.47 1.47 0 0 1 .44-1.06A1.5 1.5 0 0 1 3.88 3h28.61a1.47 1.47 0 0 1 1.06.44A1.44 1.44 0 0 1 34 4.5v7.1c.008.478-.11.95-.34 1.37a2.38 2.38 0 0 1-.78.87l-6.58 4.37v.16a18.91 18.91 0 0 1 5.09 2 10.11 10.11 0 0 1 3.63 3.66 11.599 11.599 0 0 1 1.34 5.84 10.23 10.23 0 0 1-2.38 6.74 15.34 15.34 0 0 1-6.48 4.47 26 26 0 0 1-9.37 1.6z" fill="#DF357F"/>
    <path d="M71.12 76.58c19.352 0 35.04-15.688 35.04-35.04 0-19.352-15.688-35.04-35.04-35.04-19.352 0-35.04 15.688-35.04 35.04 0 19.352 15.688 35.04 35.04 35.04z" fill="#F6F2EF"/>
    <path d="M99.99 12.85a5 5 0 0 1-2.79 1.82 3.8 3.8 0 0 1 2.84.64c.321.352.573.763.74 1.21.38.88.74 1.76 1.07 2.66.079-.843.202-1.681.37-2.51.046-.324.144-.638.29-.93.52-1 1.78-1.2 2.87-1.33-.58-.26-1.15-.53-1.72-.82a5.401 5.401 0 0 1-1.06-.63c-1.14-.92-1.49-2.49-1.76-3.94a10.617 10.617 0 0 1-.85 3.83z" fill="#F0D227"/>
    <path d="M99.45 12.53a4.38 4.38 0 0 1-2.41 1.54.63.63 0 0 0 .16 1.23c.92 0 2.07-.11 2.64.76.59 1.04 1.06 2.143 1.4 3.29a.628.628 0 0 0 1.068.23c.1-.11.157-.252.162-.4.06-.59.14-1.18.25-1.77.029-.53.176-1.045.43-1.51a3.259 3.259 0 0 1 2.23-.87c.53-.06 1-.88.32-1.17-1.08-.48-2.5-.93-3.21-1.93a7.563 7.563 0 0 1-1-3.07c-.14-.73-1.2-.51-1.23.16a8.001 8.001 0 0 1-.77 3.51.63.63 0 0 0 1.09.63 9.202 9.202 0 0 0 .93-4.14l-1.23.17a8.273 8.273 0 0 0 1.25 3.49 8.45 8.45 0 0 0 3.57 2.27l.32-1.17a4.65 4.65 0 0 0-3.13 1.24 3.634 3.634 0 0 0-.69 1.77c-.15.79-.26 1.59-.34 2.39l1.23-.17c-.26-.713-.54-1.424-.84-2.13a6.393 6.393 0 0 0-1-1.84 4.063 4.063 0 0 0-3.44-1l.17 1.23a5.662 5.662 0 0 0 3.17-2.12c.43-.66-.66-1.3-1.1-.62z" fill="#333"/>
    <path d="M71.12 69.57c15.154 0 27.44-12.286 27.44-27.44 0-15.155-12.286-27.44-27.44-27.44-15.155 0-27.44 12.285-27.44 27.44 0 15.154 12.285 27.44 27.44 27.44z" fill="#DF357F"/>
    <path d="M97.94 42.12a26.82 26.82 0 1 1-21.49-26.28 27.09 27.09 0 0 1 21.49 26.28.63.63 0 0 0 1.25 0 28 28 0 1 0-.33 4.32c.215-1.43.325-2.874.33-4.32a.63.63 0 0 0-1.25 0z" fill="#333"/>
    <path d="M71.12 65.4c12.851 0 23.27-10.419 23.27-23.27 0-12.852-10.419-23.27-23.27-23.27-12.852 0-23.27 10.418-23.27 23.27 0 12.851 10.418 23.27 23.27 23.27z" fill="#fff"/>
    <path d="M93.77 42.12a22.65 22.65 0 1 1-18-22.17 22.87 22.87 0 0 1 18 22.17.63.63 0 0 0 1.26 0 23.91 23.91 0 1 0-19.3 23.46 24.19 24.19 0 0 0 19.3-23.46.63.63 0 0 0-1.26 0z" fill="#333"/>
    <path d="M71.12 65.4c12.851 0 23.27-10.419 23.27-23.27 0-12.852-10.419-23.27-23.27-23.27-12.852 0-23.27 10.418-23.27 23.27 0 12.851 10.418 23.27 23.27 23.27z" fill="#fff"/>
    <path d="M93.77 42.12a22.65 22.65 0 1 1-18-22.17 22.87 22.87 0 0 1 18 22.17.63.63 0 0 0 1.26 0 23.91 23.91 0 1 0-19.3 23.46 24.19 24.19 0 0 0 19.3-23.46.63.63 0 0 0-1.26 0z" fill="#333"/>
    <path d="M61.94 59.2a19.42 19.42 0 0 1-8.64-24.62" fill="#fff"/>
    <path d="M62.3 58.66a19 19 0 0 1-8.38-23.92c.3-.75-.91-1.07-1.22-.33a20.24 20.24 0 0 0 9 25.33c.71.39 1.34-.69.63-1.08h-.03z" fill="#333"/>
    <path d="M87.12 31.16a19.45 19.45 0 0 1 1.87 18.51" fill="#fff"/>
    <path d="M86.57 31.47a19.06 19.06 0 0 1 1.81 18c-.31.75.91 1.07 1.22.34a20.27 20.27 0 0 0-1.94-19c-.45-.67-1.54 0-1.09.63v.03z" fill="#333"/>
    <path d="M71.13 22.73a19.31 19.31 0 0 1 9.17 2.31z" fill="#fff"/>
    <path d="M71.13 23.36a19 19 0 0 1 8.85 2.22c.72.38 1.35-.7.64-1.08a20.3 20.3 0 0 0-9.49-2.39.63.63 0 0 0 0 1.25z" fill="#333"/>
    <path d="M69.23 54.38a.82.82 0 0 1-.81-.81v-2.06a11.101 11.101 0 0 1-4-1.29 6.64 6.64 0 0 1-2.38-2.21 5.29 5.29 0 0 1-.82-2.7.62.62 0 0 1 .19-.46.639.639 0 0 1 .47-.19h5.68c.25-.016.5.03.73.13.198.109.385.236.56.38.2.13.4.26.61.37.227.115.47.196.72.24a5.93 5.93 0 0 0 2.51-.15c.41-.15.62-.36.62-.61a.72.72 0 0 0-.35-.6 3.6 3.6 0 0 0-1.18-.44 23.54 23.54 0 0 0-2.33-.37 15.002 15.002 0 0 1-4.1-1.11 6.281 6.281 0 0 1-2.68-2.14 5.68 5.68 0 0 1-.94-3.33 5.869 5.869 0 0 1 1.81-4.36 8.88 8.88 0 0 1 4.86-2.31v-2.1a.82.82 0 0 1 .81-.81h3.62a.762.762 0 0 1 .56.24.783.783 0 0 1 .24.57v2.19a9.771 9.771 0 0 1 3.58 1.43 7.901 7.901 0 0 1 2.23 2.19 4.39 4.39 0 0 1 .81 2.27.63.63 0 0 1-.2.46.601.601 0 0 1-.43.2h-6a1.58 1.58 0 0 1-.67-.12 2.218 2.218 0 0 1-.52-.36 2.19 2.19 0 0 0-.56-.35 2.37 2.37 0 0 0-1-.19 2 2 0 0 0-1.09.22.69.69 0 0 0-.08 1.13c.298.212.64.356 1 .42.683.151 1.374.268 2.07.35a17.37 17.37 0 0 1 4.8 1.16 5.68 5.68 0 0 1 2.63 2.11c.578.986.863 2.117.82 3.26a5.701 5.701 0 0 1-.94 3.24 7.21 7.21 0 0 1-2.6 2.34 12.188 12.188 0 0 1-3.82 1.27v2.09a.783.783 0 0 1-.24.57.761.761 0 0 1-.56.24h-3.63z" fill="#DF357F"/>
</svg>
