<svg width="146" height="70" fill="none" xmlns="http://www.w3.org/2000/svg">
    <path d="M64.092 45.995v-1.683h-1.727v-.772h1.718v-1.688h.787v1.688h1.722v.772H64.88v1.683h-.787zM56.236 45.995v-1.683h-1.717v-.772h1.717v-1.688h.787v1.688h1.722v.772h-1.722v1.683h-.787zM48.38 45.995v-1.683h-1.718v-.772h1.717v-1.688h.788v1.688h1.722v.772h-1.722v1.683h-.788zM64.092 37.218v-1.66h-1.727v-.79h1.718v-1.693h.787v1.692h1.722v.79H64.88v1.68l-.787-.02zM56.236 37.218v-1.66h-1.717v-.79h1.717v-1.693h.787v1.692h1.722v.79h-1.722v1.68l-.787-.02zM48.38 37.218v-1.66h-1.718v-.79h1.717v-1.693h.788v1.692h1.722v.79h-1.722v1.68l-.788-.02zM64.092 29.147V27.47h-1.727v-.772h1.718v-1.692h.787v1.692h1.722v.772H64.88v1.678h-.787zM56.236 29.147V27.47h-1.717v-.772h1.717v-1.692h.787v1.692h1.722v.772h-1.722v1.678h-.787zM48.38 29.147V27.47h-1.718v-.772h1.717v-1.692h.788v1.692h1.722v.772h-1.722v1.678h-.788zM41.424 45.995v-1.683h-1.717v-.772h1.717v-1.688h.788v1.688h1.722v.772h-1.722v1.683h-.788zM33.569 45.995v-1.683h-1.717v-.772h1.717v-1.688h.806v1.688h1.722v.772h-1.722v1.683h-.806zM25.713 45.995v-1.683H24v-.772h1.713v-1.688h.787v1.688h1.708v.772H26.5v1.683h-.787zM41.424 37.218v-1.66h-1.717v-.79h1.717v-1.693h.788v1.692h1.722v.79h-1.722v1.68l-.788-.02zM33.569 37.218v-1.66h-1.717v-.79h1.717v-1.693h.806v1.692h1.722v.79h-1.722v1.68l-.806-.02zM25.713 37.218v-1.66H24v-.79h1.713v-1.693h.787v1.692h1.708v.79H26.5v1.68l-.787-.02zM41.424 29.147V27.47h-1.717v-.772h1.717v-1.692h.788v1.692h1.722v.772h-1.722v1.678h-.788zM33.569 29.147V27.47h-1.717v-.772h1.717v-1.692h.806v1.692h1.722v.772h-1.722v1.678h-.806zM25.713 29.147V27.47H24v-.772h1.713v-1.692h.787v1.692h1.708v.772H26.5v1.678h-.787zM82.584 29.156c1.17 0 2.12-.93 2.12-2.078 0-1.148-.95-2.078-2.12-2.078-1.172 0-2.121.93-2.121 2.078 0 1.148.95 2.078 2.12 2.078zM82.584 37.58c1.17 0 2.12-.93 2.12-2.078 0-1.148-.95-2.078-2.12-2.078-1.172 0-2.121.93-2.121 2.078 0 1.148.95 2.078 2.12 2.078zM82.584 46c1.17 0 2.12-.93 2.12-2.078 0-1.148-.95-2.078-2.12-2.078-1.172 0-2.121.93-2.121 2.078 0 1.148.95 2.078 2.12 2.078zM91.345 29.156c1.171 0 2.12-.93 2.12-2.078 0-1.148-.949-2.078-2.12-2.078-1.171 0-2.12.93-2.12 2.078 0 1.148.949 2.078 2.12 2.078zM91.345 37.58c1.171 0 2.12-.93 2.12-2.078 0-1.148-.949-2.078-2.12-2.078-1.171 0-2.12.93-2.12 2.078 0 1.148.949 2.078 2.12 2.078zM91.345 46c1.171 0 2.12-.93 2.12-2.078 0-1.148-.949-2.078-2.12-2.078-1.171 0-2.12.93-2.12 2.078 0 1.148.949 2.078 2.12 2.078zM100.113 29.156c1.171 0 2.12-.93 2.12-2.078 0-1.148-.949-2.078-2.12-2.078-1.171 0-2.12.93-2.12 2.078 0 1.148.949 2.078 2.12 2.078zM100.113 37.58c1.171 0 2.12-.93 2.12-2.078 0-1.148-.949-2.078-2.12-2.078-1.171 0-2.12.93-2.12 2.078 0 1.148.949 2.078 2.12 2.078zM100.113 46c1.171 0 2.12-.93 2.12-2.078 0-1.148-.949-2.078-2.12-2.078-1.171 0-2.12.93-2.12 2.078 0 1.148.949 2.078 2.12 2.078zM108.879 29.156c1.172 0 2.121-.93 2.121-2.078 0-1.148-.949-2.078-2.121-2.078-1.171 0-2.12.93-2.12 2.078 0 1.148.949 2.078 2.12 2.078zM108.879 37.58c1.172 0 2.121-.93 2.121-2.078 0-1.148-.949-2.078-2.121-2.078-1.171 0-2.12.93-2.12 2.078 0 1.148.949 2.078 2.12 2.078zM108.879 46c1.172 0 2.121-.93 2.121-2.078 0-1.148-.949-2.078-2.121-2.078-1.171 0-2.12.93-2.12 2.078 0 1.148.949 2.078 2.12 2.078zM73.817 29.156c1.171 0 2.12-.93 2.12-2.078 0-1.148-.949-2.078-2.12-2.078-1.171 0-2.12.93-2.12 2.078 0 1.148.949 2.078 2.12 2.078zM73.817 37.58c1.171 0 2.12-.93 2.12-2.078 0-1.148-.949-2.078-2.12-2.078-1.171 0-2.12.93-2.12 2.078 0 1.148.949 2.078 2.12 2.078zM73.817 46c1.171 0 2.12-.93 2.12-2.078 0-1.148-.949-2.078-2.12-2.078-1.171 0-2.12.93-2.12 2.078 0 1.148.949 2.078 2.12 2.078zM77.326 32.599c.92 0 1.665-.74 1.665-1.65 0-.912-.745-1.651-1.665-1.651s-1.666.739-1.666 1.65c0 .912.746 1.65 1.666 1.65z" fill="#fff"/>
    <path d="M79.406 30.953a2.077 2.077 0 0 0-.382-1.182 2.108 2.108 0 0 0-.991-.759 2.101 2.101 0 0 0-2.295.61 2.053 2.053 0 0 0-.423 1.858 2.081 2.081 0 0 0 2.28 1.517c.331-.043.648-.165.922-.355a2.046 2.046 0 0 0 .889-1.69.413.413 0 0 0-.416-.375.42.42 0 0 0-.417.376 1.24 1.24 0 0 1-.222.7 1.256 1.256 0 0 1-.795.517h-.16a1.048 1.048 0 0 1-.41-.047.941.941 0 0 1-.34-.15 1.18 1.18 0 0 1-.308-.276c.037.04 0 0 0 0l-.07-.11a.461.461 0 0 1-.041-.073s-.06-.125-.033-.059a1.144 1.144 0 0 1-.067-.21.813.813 0 0 1-.033-.179 1.241 1.241 0 0 1 .022-.367c.026-.13.078-.255.152-.366.14-.234.353-.416.607-.517a1.258 1.258 0 0 1 1.461.402c.166.216.254.481.252.753a.414.414 0 0 0 .417.319.42.42 0 0 0 .401-.337z" fill="#333"/>
    <path d="M94.602 29.298H82.503a1.69 1.69 0 0 0-1.698 1.682c0 .928.76 1.681 1.698 1.681h12.1A1.69 1.69 0 0 0 96.3 30.98a1.69 1.69 0 0 0-1.699-1.682z" fill="#fff"/>
    <path d="M82.523 33.075h10.293c.685.04 1.372.04 2.057 0 2.158-.253 2.51-3.3.467-4.034-.678-.242-1.559-.125-2.258-.125h-8.339c-.78 0-1.576-.047-2.357 0a2.12 2.12 0 0 0-1.435.678 2.083 2.083 0 0 0 .09 2.918c.395.379.924.59 1.474.59.533.021.533-.804 0-.826a1.304 1.304 0 0 1-1.118-.679 1.275 1.275 0 0 1 .052-1.298 1.366 1.366 0 0 1 1.196-.561H92.67c.64 0 1.284-.026 1.921 0 .34 0 .665.134.906.372a1.263 1.263 0 0 1 0 1.794c-.24.238-.566.372-.906.372-1.925.066-3.86 0-5.785 0h-6.292a.418.418 0 0 0-.304.402.412.412 0 0 0 .312.397z" fill="#333"/>
    <path d="M86.12 15.418h-20.1c-.396 0-.776.156-1.056.433a1.471 1.471 0 0 0 0 2.09c.28.277.66.433 1.055.433h1.414c.866.103 1.532.734 1.532 1.467 0 .815-.803 1.467-1.791 1.467h-4.227c-.392 0-.769.155-1.047.43a1.46 1.46 0 0 0 0 2.075c.278.275.655.43 1.047.43h17.765c.393 0 .77-.155 1.047-.43a1.46 1.46 0 0 0 0-2.075 1.487 1.487 0 0 0-1.047-.43h-.303c-.988 0-1.791-.663-1.791-1.467 0-.733.666-1.357 1.532-1.467h5.977c.396 0 .775-.155 1.055-.433a1.472 1.472 0 0 0 0-2.09 1.498 1.498 0 0 0-1.055-.433h-.007z" fill="#fff"/>
    <path d="M86.12 15.004H66.134a2.07 2.07 0 0 0-1.373.473 1.91 1.91 0 0 0-.638 1.359 1.892 1.892 0 0 0 .549 1.396c.622.616 1.428.554 2.22.554.344-.034.69.019 1.007.154a.982.982 0 0 1 .543.531.964.964 0 0 1-.006.756c-.34.664-1.11.671-1.758.671H62.948a1.92 1.92 0 0 0-1.36.525 1.882 1.882 0 0 0-.458 2.05c.09.231.227.442.4.622.35.361.83.57 1.336.581h12.287c1.85 0 3.701.063 5.53 0 .496.004.975-.184 1.334-.524a1.88 1.88 0 0 0 .093-2.634 1.913 1.913 0 0 0-1.294-.616c-.477-.037-.925 0-1.343-.275a.934.934 0 0 1-.434-.61.918.918 0 0 1 .16-.729c.37-.48.895-.506 1.436-.506h5.459c.491-.021.955-.23 1.296-.582a1.884 1.884 0 0 0 0-2.617A1.917 1.917 0 0 0 86.093 15c-.537-.022-.537.804 0 .826 1.291.055 1.443 1.966.126 2.127a9.04 9.04 0 0 1-1.044 0h-4.212a8.33 8.33 0 0 0-.959 0c-.988.117-1.902.943-1.85 1.973.052 1.031 1.077 1.71 2.061 1.772.422.026.815-.033 1.163.275a1.075 1.075 0 0 1 .085 1.504c-.433.48-1.236.367-1.825.367H64.165a6.652 6.652 0 0 1-1.529-.033c-1.225-.308-.936-2.036.267-2.098.448-.022.9 0 1.347 0h2.095a4.956 4.956 0 0 0 1.562-.121c.932-.305 1.65-1.222 1.365-2.22a2.106 2.106 0 0 0-.77-1.027 2.137 2.137 0 0 0-1.228-.396c-.618 0-1.51.176-2.017-.271a1.073 1.073 0 0 1-.268-1.18c.08-.2.218-.372.398-.493.18-.121.392-.186.61-.187 1.573-.077 3.168 0 4.745 0H86.09a.42.42 0 0 0 .356-.394.412.412 0 0 0-.326-.42z" fill="#333"/>
    <path d="M90.887 18.374c.824 0 1.492-.662 1.492-1.478s-.668-1.478-1.492-1.478-1.492.662-1.492 1.478.668 1.478 1.492 1.478z" fill="#fff"/>
    <path d="M89.814 16.897a1.04 1.04 0 0 1 .218-.645c.067-.103-.03.03 0-.026l.063-.07.056-.055s.103-.084.037-.033a1.55 1.55 0 0 1 .163-.106l.07-.033c.044-.022.044-.022 0 0l.055-.022a1.68 1.68 0 0 1 .193-.051c.018 0 .103-.019.03 0h.1c.068-.006.138-.006.207 0 .077 0-.093-.022.033 0l.115.025.115.037s.07.033 0 0c.058.028.114.058.17.092.1.063.19.144.263.238-.041-.048 0 0 0 0a.85.85 0 0 1 .062.095l.041.07s.056.121.022.04c.025.062.046.124.063.188v.077c0 .025 0 .055 0 0v.062c.004.061.004.122 0 .183v.052a.64.64 0 0 1 0 .08 1.793 1.793 0 0 1-.055.188c-.037.113.037-.06-.022.043a.907.907 0 0 1-.056.103.598.598 0 0 1-.052.08s-.063.081 0 .026c-.041.05-.086.096-.133.14 0 0-.089.077-.044.044a1.595 1.595 0 0 1-.255.147l-.116.036-.077.022H90.69a2.367 2.367 0 0 1-.23-.066c-.118-.036.038.022-.029 0l-.118-.062-.067-.044-.063-.044c.033.026.03.022 0 0l-.137-.136c-.081-.084.037.059-.03-.037l-.066-.099-.056-.102c-.04-.074 0 .044 0-.044a2.312 2.312 0 0 1-.066-.228s0-.08 0 0v-.161a.41.41 0 0 0-.247-.418.422.422 0 0 0-.479.1.415.415 0 0 0-.107.318c.005.388.128.765.353 1.082.225.316.542.558.91.693a1.926 1.926 0 0 0 2.098-.554 1.883 1.883 0 0 0 .388-1.703 1.885 1.885 0 0 0-1.187-1.29 1.922 1.922 0 0 0-1.747.224 1.877 1.877 0 0 0-.815 1.548.413.413 0 0 0 .416.375.42.42 0 0 0 .417-.375l-.015-.004z" fill="#333"/>
    <path d="M129.559 20.477H85.831v3.565h43.728v-3.565z" fill="#DF357F"/>
    <path d="M129.56 23.627H86.501a3.593 3.593 0 0 0-.596 0h-.074l.415.415v-3.565l-.415.414h43.059c.198.017.397.017.596 0a.481.481 0 0 1 .074 0l-.419-.414v3.565a.414.414 0 0 0 .417.375.419.419 0 0 0 .416-.375v-3.565a.415.415 0 0 0-.414-.411H91.22c-1.765 0-3.55-.074-5.315 0h-.074a.423.423 0 0 0-.418.41v3.566a.416.416 0 0 0 .418.41h38.34c1.765 0 3.549.074 5.315 0h.074a.412.412 0 0 0 .27-.692.42.42 0 0 0-.27-.133z" fill="#333"/>
    <path d="M129.559 24.042H85.831v25.147c0 .634.254 1.242.707 1.69.452.45 1.066.701 1.706.701h38.902c.64 0 1.254-.252 1.707-.7a2.382 2.382 0 0 0 .706-1.691V24.042z" fill="#fff"/>
    <path d="M129.56 23.627H91.22c-1.765 0-3.55-.073-5.315 0h-.074a.42.42 0 0 0-.418.414v25.143c.01.72.294 1.408.795 1.928.502.52 1.183.832 1.907.875.53.03 1.062 0 1.588 0h37.699a2.87 2.87 0 0 0 1.835-.903 2.82 2.82 0 0 0 .756-1.888V24.053a.414.414 0 0 0-.417-.376.42.42 0 0 0-.416.376V49.17a1.995 1.995 0 0 1-.583 1.41c-.374.377-.883.59-1.416.596-1.85.04-3.745 0-5.614 0h-33.28a2.037 2.037 0 0 1-1.42-.599 2 2 0 0 1-.583-1.414V24.07l-.414.411h38.339c1.766 0 3.55.073 5.315 0h.074a.433.433 0 0 0 .422-.436.432.432 0 0 0-.44-.418z" fill="#333"/>
    <path d="M112.911 28.582H89.398v2.219h23.513v-2.219zM99.288 32.636h-9.89v2.218h9.89v-2.218zM112.912 32.636h-12.28v2.218h12.28v-2.218zM112.911 36.688H89.398v2.22h23.513v-2.22zM100.009 40.741h-10.61v2.219h10.61v-2.219z" fill="#E5DCD8"/>
    <path d="M93.122 22.806a.549.549 0 0 0 .551-.547.549.549 0 0 0-.551-.546.549.549 0 0 0-.552.546c0 .302.247.547.552.547zM88.792 22.806a.549.549 0 0 0 .551-.547.549.549 0 0 0-.551-.546.549.549 0 0 0-.552.546c0 .302.247.547.552.547zM90.909 22.806a.549.549 0 0 0 .551-.547.549.549 0 0 0-.551-.546.549.549 0 0 0-.552.546c0 .302.247.547.552.547zM125.859 29.096h-10.515v13.45h10.515v-13.45z" fill="#fff"/>
    <path d="M125.859 42.132h-10.515l.415.414v-13.45l-.415.41h10.515l-.418-.41v13.45a.409.409 0 0 0 .134.268.422.422 0 0 0 .563 0 .414.414 0 0 0 .135-.268v-13.45a.418.418 0 0 0-.414-.414h-10.515a.42.42 0 0 0-.418.415v13.45a.426.426 0 0 0 .418.41h10.515a.413.413 0 0 0 0-.825z" fill="#333"/>
    <path d="M125.858 42.546h-10.514s2.28-3.877 3.442-3.877h3.993c1.162 0 3.079 3.877 3.079 3.877z" fill="#fff"/>
    <path d="M125.858 42.271h-10.514l.236.411c.436-.738.916-1.45 1.436-2.131.467-.613 1.111-1.607 1.977-1.607h3.109c.269-.03.54-.02.807.026.455.14.84.697 1.11 1.056a16.935 16.935 0 0 1 1.603 2.656c.159.32.636.04.481-.275a18.474 18.474 0 0 0-1.518-2.546c-.522-.733-1.11-1.467-2.058-1.467h-3.364a1.746 1.746 0 0 0-.855.136 4.272 4.272 0 0 0-1.254 1.1 19.558 19.558 0 0 0-1.932 2.762.277.277 0 0 0 .24.415h10.515a.275.275 0 0 0-.019-.535z" fill="#333"/>
    <path d="M123.974 36.174c.05-.219.17-.417.341-.565a.595.595 0 0 1 .577-.04.733.733 0 0 1 .37.447.506.506 0 0 1 0 .294.627.627 0 0 1-.126.227 2.547 2.547 0 0 1-.644.598.445.445 0 0 1-.222.084.307.307 0 0 1-.233-.124.829.829 0 0 1-.126-.239" fill="#fff"/>
    <path d="M124.233 36.248c0-.048.033-.096.052-.14a.2.2 0 0 1 .018-.048s-.018.033 0 0l.041-.08.037-.063c.026-.044 0 0 0-.022l.063-.062c.022-.022 0 0 0 0l.044-.026c.041-.025-.022 0 .023 0l.074-.018h.077c.026 0 .026 0 0 0l.074.018h.026l.067.037.03.03.051.054c-.029-.033 0 0 0 .026l.037.066s0 .04 0 0v.03c.01.032.018.065.023.098V36.232c0 .012-.023.041-.03.052l-.059.084c0-.029-.022.026-.03.033l-.122.14-.133.128-.126.103h-.019l-.048.033-.092.062-.034.019h-.029.029s-.044 0 0 0h-.022l-.033-.037c.026.033 0 0 0 0s0-.03-.026-.048a.266.266 0 0 1-.018-.037c0-.044.025.06 0-.022a.288.288 0 0 0-.131-.166.283.283 0 0 0-.309.022.273.273 0 0 0-.097.291.96.96 0 0 0 .34.48.57.57 0 0 0 .593 0c.307-.181.575-.422.788-.707a.808.808 0 0 0 .192-.536.979.979 0 0 0-.181-.52.928.928 0 0 0-.966-.367c-.414.095-.596.477-.74.84a.278.278 0 0 0 .196.337.292.292 0 0 0 .209-.03.284.284 0 0 0 .131-.164l.03.026z" fill="#333"/>
    <path d="M117.597 36.174a1.058 1.058 0 0 0-.34-.565.603.603 0 0 0-.578-.04.733.733 0 0 0-.37.447.506.506 0 0 0 0 .294.642.642 0 0 0 .126.227c.178.235.396.437.644.598a.448.448 0 0 0 .222.084.316.316 0 0 0 .233-.124.805.805 0 0 0 .126-.239" fill="#fff"/>
    <path d="M117.867 36.105a1.182 1.182 0 0 0-.592-.796.937.937 0 0 0-1.027.245.918.918 0 0 0-.131 1.038c.196.29.447.54.74.734a.639.639 0 0 0 .644.099.856.856 0 0 0 .396-.51.276.276 0 0 0-.029-.208.283.283 0 0 0-.167-.13.288.288 0 0 0-.341.191v.019l-.037.07c-.022.04 0 .025 0 0l-.026.029a.152.152 0 0 1-.041.025c.041-.018-.029 0 .023 0-.026 0 0 0 0 0a.736.736 0 0 1-.163-.099l-.071-.051-.033-.026-.152-.132c-.04-.04-.081-.08-.118-.124l-.056-.063-.029-.033v-.022a.866.866 0 0 1-.093-.146V36.053s.026-.07 0-.03a.77.77 0 0 1 .037-.065.145.145 0 0 1 .019-.033s.033-.044 0-.022l.033-.037s.056-.047.022-.022l.063-.04.034-.019c.029 0-.034 0 0 0h.07c.03 0 0 0 0 0h.2c-.026 0 0 0 0 0l.033.023c.033 0-.033-.037 0 0l.059.062c0 .026 0 0 0 0l.03.044c0 .022.026.047.041.073v.04c.026.063.048.125.07.188a.271.271 0 0 0 .13.167.273.273 0 0 0 .21.027.278.278 0 0 0 .204-.23.277.277 0 0 0-.007-.108l.055.034z" fill="#333"/>
    <path d="M124.307 36.702c.165-1.628-1.263-3.105-3.191-3.297-1.928-.192-3.626.972-3.791 2.6-.165 1.629 1.263 3.105 3.191 3.297 1.928.193 3.625-.971 3.791-2.6z" fill="#fff"/>
    <path d="M124.001 36.64c-.148 1.236-1.251 2.062-2.421 2.282a3.655 3.655 0 0 1-1.896-.132 3.625 3.625 0 0 1-1.568-1.064 2.373 2.373 0 0 1 .1-3.136 3.529 3.529 0 0 1 1.634-.903 3.554 3.554 0 0 1 1.871.056c1.31.366 2.398 1.485 2.28 2.897-.03.367.525.349.555 0 .122-1.467-.9-2.721-2.221-3.264a4.234 4.234 0 0 0-4.26.58 2.926 2.926 0 0 0-1.016 1.735 2.91 2.91 0 0 0 .346 1.976c.401.626.967 1.13 1.638 1.457.67.327 1.419.465 2.163.4 1.636-.126 3.143-1.2 3.331-2.884.06-.352-.496-.348-.536 0z" fill="#333"/>
    <path d="m119.726 37.213 1.795.026c.033 0 .067 0 .085.022.008.014.013.03.013.045a.093.093 0 0 1-.013.046 4.813 4.813 0 0 1-.2.631.393.393 0 0 1-.151.216.428.428 0 0 1-.215.044 1.584 1.584 0 0 1-.681-.095 1.939 1.939 0 0 1-.644-.935" fill="#DF357F"/>
    <path d="M119.726 37.352H121.447c.048 0 .107.026.059-.03-.048-.054-.026-.018-.037.023v.051l-.078.264-.088.246a.273.273 0 0 1-.108.158.556.556 0 0 1-.233.022 1.534 1.534 0 0 1-.259 0 .667.667 0 0 1-.318-.107 1.215 1.215 0 0 1-.197-.212 2.998 2.998 0 0 1-.218-.342.742.742 0 0 1-.1-.256.136.136 0 0 0-.116-.1.14.14 0 0 0-.137.069.132.132 0 0 0-.013.104c.021.11.063.216.122.312.064.127.139.25.222.367.074.108.163.207.263.293a.944.944 0 0 0 .451.161c.206.048.42.048.626 0a.62.62 0 0 0 .311-.425c.037-.098.07-.197.099-.297.04-.099.065-.203.075-.308 0-.253-.289-.217-.463-.22h-1.573a.143.143 0 0 0-.085.047.141.141 0 0 0-.033.09c0 .033.012.065.033.09a.143.143 0 0 0 .085.048l-.011-.048zM120.54 34.975a1.99 1.99 0 0 0-.652.976 2.78 2.78 0 0 0-.059.286.529.529 0 0 0 .059.407.502.502 0 0 0 .371.165c.105.01.212.01.318 0 .253-.007.503-.056.74-.143a.277.277 0 0 0 .194-.34.28.28 0 0 0-.342-.192c-.107.041-.217.073-.329.096l-.1.018h-.022a1.365 1.365 0 0 1-.174 0h-.285c-.063 0-.034-.037.04.037.041.135.056.172.052.106a.072.072 0 0 0 0-.03.496.496 0 0 1 0-.076v-.022c.019-.095.045-.188.078-.279v-.033c0-.018 0-.037.029-.059.03-.022.045-.088.071-.132.026-.044.052-.084.081-.124.03-.04.034-.052 0 0l.056-.067c.066-.074.139-.143.218-.205a.273.273 0 0 0-.196-.467.282.282 0 0 0-.196.078h.048zM122.45 34.92h-.078c-.1 0-.182.08-.182.18v.58c0 .098.082.179.182.179h.078c.1 0 .181-.08.181-.18v-.58a.18.18 0 0 0-.181-.18zM119.056 34.92h-.078a.18.18 0 0 0-.181.18v.58c0 .098.081.179.181.179h.078c.1 0 .182-.08.182-.18v-.58c0-.099-.082-.18-.182-.18z" fill="#333"/>
    <path d="m121.498 33.963-.022-.517a6.375 6.375 0 0 1 2.387 2.135 2.696 2.696 0 0 0 0-2.887 3.26 3.26 0 0 0-1.027-.933 3.294 3.294 0 0 0-1.326-.424c-.929-.11-3.983-.367-4.697 2.094-.241.833-.167 1.874.614 2.26.418-1.28 2.432-1.424 2.928-2.682.076.252.225.477.428.646.203.17.452.276.715.308z" fill="#DF357F"/>
    <path d="m121.913 33.963-.022-.517-.626.367a6.084 6.084 0 0 1 2.221 1.984.418.418 0 0 0 .359.199.42.42 0 0 0 .359-.199 3.12 3.12 0 0 0-.274-3.646c-.718-.843-1.791-1.174-2.868-1.258-1.64-.132-3.624.206-4.442 1.812-.533 1.053-.64 2.703.563 3.352a.423.423 0 0 0 .611-.249c.218-.616.932-.92 1.48-1.229a3.143 3.143 0 0 0 1.48-1.467h-.803a1.778 1.778 0 0 0 1.447 1.24c.522.084.741-.712.223-.796a1.032 1.032 0 0 1-.867-.664.416.416 0 0 0-.401-.29.422.422 0 0 0-.402.29c-.255.598-.995.902-1.517 1.21a2.905 2.905 0 0 0-1.41 1.468l.61-.25c-.777-.418-.584-1.606-.24-2.26a2.487 2.487 0 0 1 1.551-1.199c1.18-.348 2.82-.322 3.871.367a2.3 2.3 0 0 1 .992 1.428 2.281 2.281 0 0 1-.293 1.708h.718a6.943 6.943 0 0 0-2.538-2.281.425.425 0 0 0-.421.003.42.42 0 0 0-.205.364l.022.517c.011.524.844.528.822-.004zM120.621 39.839c.31.345.594.713.848 1.1a.286.286 0 0 0 .37.099 11.176 11.176 0 0 0 1.921-1.445c.255-.246-.137-.634-.392-.389-.552.517-1.159.972-1.81 1.357l.37.1c-.283-.421-.596-.82-.937-1.196-.24-.26-.629.128-.392.388l.022-.014z" fill="#333"/>
    <path d="M120.314 39.16c-.126.213-.252.422-.37.628-.06.095-.123.19-.185.286-.063.095-.063.091-.097.139a.691.691 0 0 1-.1.147l.141-.037a.817.817 0 0 1-.226-.084l-.262-.114a5.79 5.79 0 0 1-.53-.246 12.9 12.9 0 0 1-1.021-.561c-.304-.187-.581.29-.278.473.619.38 1.271.707 1.947.976.17.07.352.161.529.055.142-.118.259-.263.344-.426.21-.313.41-.632.6-.957a.272.272 0 0 0-.106-.362.282.282 0 0 0-.203-.031.274.274 0 0 0-.168.114h-.015z" fill="#333"/>
    <path d="M120.377 40.602a5.93 5.93 0 0 0-.207 1.585c.307 0 .94.132 1.414.11a9.245 9.245 0 0 1-.448-1.376c-.033-.132-.081-.282-.211-.326a.47.47 0 0 0-.122 0h-.392" fill="#DF357F"/>
    <path d="M120.111 40.53a6.446 6.446 0 0 0-.218 1.657c.001.073.03.142.082.193.052.052.122.08.195.082.474.018.937.128 1.414.11a.271.271 0 0 0 .236-.139.272.272 0 0 0 .001-.272c0-.026 0-.047-.03-.07v-.033c0-.04-.033-.084-.048-.128a4.305 4.305 0 0 1-.1-.3c-.066-.206-.122-.411-.181-.62a1.092 1.092 0 0 0-.256-.569c-.199-.187-.529-.143-.78-.154a.277.277 0 0 0-.258.17.277.277 0 0 0 .062.3c.052.05.122.08.196.08H120.847h-.025s.025 0 0 0c-.026 0 0 0 0 0s0-.033 0 0 .029.073 0 .022a.19.19 0 0 1 0 .048.599.599 0 0 1 .033.117l.078.275c.093.376.217.744.37 1.1l.24-.414c-.477 0-.94-.092-1.414-.11l.278.275a5.754 5.754 0 0 1 .196-1.51.265.265 0 0 0-.025-.209.268.268 0 0 0-.167-.13.286.286 0 0 0-.341.19l.041.038z" fill="#333"/>
    <path d="M119.999 40.587a.025.025 0 0 0-.004.015c0 .005.001.01.004.015a.038.038 0 0 0 .026 0h1.055c.037 0 .078 0 .1-.034a.113.113 0 0 0 0-.077 1.658 1.658 0 0 0-.315-.95.146.146 0 0 0-.063-.054.115.115 0 0 0-.07 0l-.148.025a.322.322 0 0 0-.119.037.291.291 0 0 0-.077.088l-.274.414-.115.521z" fill="#DF357F"/>
    <path d="M119.722 40.587a.301.301 0 0 0 .141.267c.066.035.14.05.215.044h.888c.115.011.23-.006.337-.05a.362.362 0 0 0 .177-.367 1.84 1.84 0 0 0-.096-.55 1.944 1.944 0 0 0-.233-.485.423.423 0 0 0-.344-.227 1.372 1.372 0 0 0-.293.04.494.494 0 0 0-.31.202l-.163.245c-.08.099-.142.209-.185.327l-.126.47a.274.274 0 0 0 .194.339.28.28 0 0 0 .342-.193l.089-.337c0-.055.034-.11.045-.165 0 .047-.026.058 0 .025l.026-.04.144-.216c0-.033.041-.066.063-.1l.026-.036c.026-.04 0 0-.023 0 .026 0 0 0 0 0h.034a.24.24 0 0 0 .122-.022h.052a.163.163 0 0 1-.13-.022s-.037-.04-.052-.048c-.014-.007.03.04.037.048.008.007.071.117.1.176l.023.048c.022.05 0 0 0 0a.553.553 0 0 0 .037.095c.022.064.041.129.055.194a.274.274 0 0 0 0 .1v-.034c.002.01.002.02 0 .03v.051a.88.88 0 0 0 0 .103v-.026c.163-.11.204-.158.126-.136h.044a.895.895 0 0 0-.137 0H119.996l.141.037.126.161v.044a.295.295 0 0 0-.02-.105.275.275 0 0 0-.258-.17.285.285 0 0 0-.263.283z" fill="#333"/>
    <path d="M71.834 44.083a2.162 2.162 0 0 1 .27-1.87c.186-.196.314-.438.37-.701a1.86 1.86 0 0 0-.296-.781c-.37-.877.303-1.875 1.11-2.377.152-.095.326-.198.37-.367a.883.883 0 0 0 0-.312 1.915 1.915 0 0 1 .593-1.467c.37-.396 2.05-.396 2.431 0a1.928 1.928 0 0 1 .592 1.467.802.802 0 0 0 0 .312c.045.173.219.275.37.367.818.502 1.48 1.5 1.11 2.377-.157.234-.26.502-.299.78.058.263.185.505.37.701a2.141 2.141 0 0 1 .27 1.871c-.126.367-.37.734-.322 1.148.049.506.54.957.396 1.445-.144.488-7.261.517-7.402 0-.14-.517.344-.939.396-1.445.034-.4-.203-.767-.33-1.148z" fill="#fff"/>
    <path d="M72.238 43.976a1.817 1.817 0 0 1-.026-1.023c.123-.309.287-.6.488-.866.16-.242.22-.536.167-.821-.07-.323-.307-.58-.37-.899-.13-.69.492-1.31 1.006-1.658.26-.128.46-.348.563-.616.096-.367-.044-.734.115-1.078.248-.558.6-.69 1.177-.705.496 0 .958 0 1.247.444.195.323.278.7.237 1.075a.91.91 0 0 0 .418.767c.533.392 1.155.828 1.192 1.558a2.114 2.114 0 0 1-.3.88 1.092 1.092 0 0 0 0 .888c.118.268.337.473.466.734.164.342.212.728.137 1.1-.137.668-.555 1.17-.296 1.878.096.264.23.51.322.778.093.267-.067.091.074 0 .026 0 .04-.044.04-.033 0 .01.023 0-.032 0a20.86 20.86 0 0 1-4.279.234 12.621 12.621 0 0 1-2.29-.176l-.167-.04-.052-.018c-.1-.019 0 0 0 0l-.034-.019c0-.04.126.176.123.176.028-.176.076-.35.14-.517.155-.275.249-.58.274-.895a3.394 3.394 0 0 0-.34-1.177c-.182-.499-.985-.283-.803.216.136.367.392.77.266 1.178a4.72 4.72 0 0 0-.37 1.008.688.688 0 0 0 .477.807 7.423 7.423 0 0 0 2.11.257c1.007.044 2.013.048 3.02 0a7.952 7.952 0 0 0 2.165-.25.678.678 0 0 0 .518-.7 2.088 2.088 0 0 0-.263-.862 1.188 1.188 0 0 1-.162-.554c.054-.255.142-.502.262-.733a2.593 2.593 0 0 0-.151-2.153c-.078-.143-.182-.264-.27-.4a.492.492 0 0 1-.041-.59c.189-.337.288-.716.288-1.101a2.64 2.64 0 0 0-1.006-1.786c-.134-.114-.282-.202-.422-.308-.211-.162-.152-.22-.152-.474a2.238 2.238 0 0 0-.37-1.188 1.669 1.669 0 0 0-1.321-.814 3.177 3.177 0 0 0-1.725.169c-.64.297-1.04 1.159-1.04 1.834.019.1.026.202.022.304-.048.121-.189.172-.292.242-.165.11-.321.233-.466.367a2.89 2.89 0 0 0-.681.975c-.162.365-.206.77-.126 1.16.047.19.119.374.214.546a.514.514 0 0 1 0 .653 2.736 2.736 0 0 0-.474 2.41.417.417 0 0 0 .47.217.42.42 0 0 0 .323-.4z" fill="#333"/>
    <path d="M77.936 45.836a2.68 2.68 0 0 1 .34-2.336c.23-.244.388-.544.46-.87 0-.366-.233-.653-.37-.979-.47-1.1.37-2.333 1.395-2.96.192-.117.407-.246.466-.462a1.06 1.06 0 0 0 0-.389 2.374 2.374 0 0 1 .74-1.834c.44-.469.95-.867 1.514-1.18a6.285 6.285 0 0 1 1.514 1.18 2.385 2.385 0 0 1 .74 1.834 1.06 1.06 0 0 0 0 .389c.056.216.274.345.463.462 1.018.627 1.85 1.867 1.395 2.96-.14.326-.37.627-.37.98.072.325.23.625.459.869a2.69 2.69 0 0 1 .337 2.336c-.156.473-.452.928-.404 1.427.063.63.678 1.192.493 1.8-.185.61-9.05.643-9.253 0-.204-.641.433-1.17.492-1.8.045-.499-.266-.954-.41-1.427z" fill="#DF357F" stroke="#333" stroke-width=".742" stroke-miterlimit="10"/>
    <path d="M80.032 45.542a6.42 6.42 0 0 1 2.143 1.515l-.123-.293v4.343a.413.413 0 0 0 .417.375.42.42 0 0 0 .416-.375v-3.668a4.28 4.28 0 0 0 0-.734c-.04-.238-.288-.425-.459-.583a7.3 7.3 0 0 0-.61-.506 6.677 6.677 0 0 0-1.359-.789c-.484-.212-.91.5-.418.712l-.007.003z" fill="#333"/>
    <path d="M82.86 46.91c.161-1.139.204-2.292.125-3.44a.424.424 0 0 0-.418-.414.416.416 0 0 0-.415.414 15.656 15.656 0 0 1-.096 3.224.422.422 0 0 0 .289.506.425.425 0 0 0 .514-.29zM76.45 49.35c-.097-2.869-.097-5.74-.193-8.609 0-.528-.851-.532-.833 0 .096 2.868.096 5.74.193 8.609.018.528.85.532.832 0z" fill="#333"/>
    <path d="M76.064 43.15c-.333-.186-.651-.4-.984-.586a5.34 5.34 0 0 0-1.147-.433.422.422 0 0 0-.511.29.415.415 0 0 0 .288.506c.211.059.422.121.63.198l.063.026c.077.029-.093-.04 0 0l.092.04.2.103c.326.183.64.392.966.58a.422.422 0 0 0 .56-.156.41.41 0 0 0-.138-.56l-.019-.007z" fill="#333"/>
    <path d="M112.246 44.545h-9.097a.678.678 0 0 0-.681.675v2.285c0 .373.305.675.681.675h9.097a.678.678 0 0 0 .681-.675V45.22a.678.678 0 0 0-.681-.675z" fill="#DF357F"/>
    <path d="M112.242 47.765h-8.76c-.182 0-.452.047-.563-.129a.808.808 0 0 1-.037-.396v-.788a6.733 6.733 0 0 1 0-1.222c.089-.458 1.081-.275 1.421-.275h7.506c.178 0 .478-.051.615.085.137.135.085.344.085.502v.862c0 .282.17 1.32-.267 1.36-.529.048-.533.874 0 .826 1.455-.128 1.111-1.93 1.111-2.934 0-.55-.03-1.1-.6-1.39a1.67 1.67 0 0 0-.814-.125h-6.61c-.711 0-1.429-.03-2.14 0-1.369.059-1.11 1.555-1.11 2.498 0 .447-.089 1.023.152 1.423a1.191 1.191 0 0 0 1.088.539h8.953a.423.423 0 0 0 .407-.433.417.417 0 0 0-.134-.291.425.425 0 0 0-.303-.112z" fill="#333"/>
</svg>
