<svg width="183" height="45" viewBox="0 0 183 45" fill="none" xmlns="http://www.w3.org/2000/svg">
<path d="M84.3305 44.9897V41.3833H80.6982V39.7296H84.3105V36.1133H85.967V39.7296H89.5893V41.3833H85.987V44.9897H84.3305Z" fill="white"/>
<path d="M67.8057 44.9897V41.3833H64.1934V39.7296H67.8057V36.1133H69.4621V39.7296H73.0844V41.3833H69.4621V44.9897H67.8057Z" fill="white"/>
<path d="M51.2808 44.9897V41.3833H47.6685V39.7296H51.2808V36.1133H52.9372V39.7296H56.5595V41.3833H52.9372V44.9897H51.2808Z" fill="white"/>
<path d="M84.3305 26.1811V22.6245H80.6982V20.9309H84.3105V17.3047H85.967V20.9309H89.5893V22.6245H85.987V26.2209L84.3305 26.1811Z" fill="white"/>
<path d="M67.8057 26.1811V22.6245H64.1934V20.9309H67.8057V17.3047H69.4621V20.9309H73.0844V22.6245H69.4621V26.2209L67.8057 26.1811Z" fill="white"/>
<path d="M51.2808 26.1811V22.6245H47.6685V20.9309H51.2808V17.3047H52.9372V20.9309H56.5595V22.6245H52.9372V26.2209L51.2808 26.1811Z" fill="white"/>
<path d="M84.3305 8.88614V5.28978H80.6982V3.63604H84.3105V0.00976562H85.967V3.63604H89.5893V5.28978H85.987V8.88614H84.3305Z" fill="white"/>
<path d="M67.8057 8.88614V5.28978H64.1934V3.63604H67.8057V0.00976562H69.4621V3.63604H73.0844V5.28978H69.4621V8.88614H67.8057Z" fill="white"/>
<path d="M51.2808 8.88614V5.28978H47.6685V3.63604H51.2808V0.00976562H52.9372V3.63604H56.5595V5.28978H52.9372V8.88614H51.2808Z" fill="white"/>
<path d="M36.6518 44.9897V41.3833H33.0396V39.7296H36.6518V36.1133H38.3084V39.7296H41.9306V41.3833H38.3084V44.9897H36.6518Z" fill="white"/>
<path d="M20.1269 44.9897V41.3833H16.5146V39.7296H20.1269V36.1133H21.8233V39.7296H25.4456V41.3833H21.8233V44.9897H20.1269Z" fill="white"/>
<path d="M3.60231 44.9897V41.3833H0V39.7296H3.60231V36.1133H5.25878V39.7296H8.85113V41.3833H5.25878V44.9897H3.60231Z" fill="white"/>
<path d="M36.6518 26.1811V22.6245H33.0396V20.9309H36.6518V17.3047H38.3084V20.9309H41.9306V22.6245H38.3084V26.2209L36.6518 26.1811Z" fill="white"/>
<path d="M20.1269 26.1811V22.6245H16.5146V20.9309H20.1269V17.3047H21.8233V20.9309H25.4456V22.6245H21.8233V26.2209L20.1269 26.1811Z" fill="white"/>
<path d="M3.60231 26.1811V22.6245H0V20.9309H3.60231V17.3047H5.25878V20.9309H8.85113V22.6245H5.25878V26.2209L3.60231 26.1811Z" fill="white"/>
<path d="M36.6518 8.88614V5.28978H33.0396V3.63604H36.6518V0.00976562H38.3084V3.63604H41.9306V5.28978H38.3084V8.88614H36.6518Z" fill="white"/>
<path d="M20.1269 8.88614V5.28978H16.5146V3.63604H20.1269V0.00976562H21.8233V3.63604H25.4456V5.28978H21.8233V8.88614H20.1269Z" fill="white"/>
<path d="M3.60231 8.88614V5.28978H0V3.63604H3.60231V0.00976562H5.25878V3.63604H8.85113V5.28978H5.25878V8.88614H3.60231Z" fill="white"/>
<path d="M123.227 8.90626C125.691 8.90626 127.688 6.91253 127.688 4.45313C127.688 1.99373 125.691 0 123.227 0C120.764 0 118.767 1.99373 118.767 4.45313C118.767 6.91253 120.764 8.90626 123.227 8.90626Z" fill="white"/>
<path d="M123.227 26.958C125.691 26.958 127.688 24.9643 127.688 22.5049C127.688 20.0455 125.691 18.0518 123.227 18.0518C120.764 18.0518 118.767 20.0455 118.767 22.5049C118.767 24.9643 120.764 26.958 123.227 26.958Z" fill="white"/>
<path d="M123.227 45C125.691 45 127.688 43.0063 127.688 40.5469C127.688 38.0875 125.691 36.0938 123.227 36.0938C120.764 36.0938 118.767 38.0875 118.767 40.5469C118.767 43.0063 120.764 45 123.227 45Z" fill="white"/>
<path d="M141.658 8.90626C144.121 8.90626 146.118 6.91253 146.118 4.45313C146.118 1.99373 144.121 0 141.658 0C139.194 0 137.197 1.99373 137.197 4.45313C137.197 6.91253 139.194 8.90626 141.658 8.90626Z" fill="white"/>
<path d="M141.658 26.958C144.121 26.958 146.118 24.9643 146.118 22.5049C146.118 20.0455 144.121 18.0518 141.658 18.0518C139.194 18.0518 137.197 20.0455 137.197 22.5049C137.197 24.9643 139.194 26.958 141.658 26.958Z" fill="white"/>
<path d="M141.658 45C144.121 45 146.118 43.0063 146.118 40.5469C146.118 38.0875 144.121 36.0938 141.658 36.0938C139.194 36.0938 137.197 38.0875 137.197 40.5469C137.197 43.0063 139.194 45 141.658 45Z" fill="white"/>
<path d="M160.099 8.90626C162.562 8.90626 164.559 6.91253 164.559 4.45313C164.559 1.99373 162.562 0 160.099 0C157.635 0 155.638 1.99373 155.638 4.45313C155.638 6.91253 157.635 8.90626 160.099 8.90626Z" fill="white"/>
<path d="M160.099 26.958C162.562 26.958 164.559 24.9643 164.559 22.5049C164.559 20.0455 162.562 18.0518 160.099 18.0518C157.635 18.0518 155.638 20.0455 155.638 22.5049C155.638 24.9643 157.635 26.958 160.099 26.958Z" fill="white"/>
<path d="M160.099 45C162.562 45 164.559 43.0063 164.559 40.5469C164.559 38.0875 162.562 36.0938 160.099 36.0938C157.635 36.0938 155.638 38.0875 155.638 40.5469C155.638 43.0063 157.635 45 160.099 45Z" fill="white"/>
<path d="M178.54 8.90626C181.003 8.90626 183 6.91253 183 4.45313C183 1.99373 181.003 0 178.54 0C176.076 0 174.079 1.99373 174.079 4.45313C174.079 6.91253 176.076 8.90626 178.54 8.90626Z" fill="white"/>
<path d="M178.54 26.958C181.003 26.958 183 24.9643 183 22.5049C183 20.0455 181.003 18.0518 178.54 18.0518C176.076 18.0518 174.079 20.0455 174.079 22.5049C174.079 24.9643 176.076 26.958 178.54 26.958Z" fill="white"/>
<path d="M178.54 45C181.003 45 183 43.0063 183 40.5469C183 38.0875 181.003 36.0938 178.54 36.0938C176.076 36.0938 174.079 38.0875 174.079 40.5469C174.079 43.0063 176.076 45 178.54 45Z" fill="white"/>
<path d="M104.787 8.90626C107.25 8.90626 109.247 6.91253 109.247 4.45313C109.247 1.99373 107.25 0 104.787 0C102.323 0 100.326 1.99373 100.326 4.45313C100.326 6.91253 102.323 8.90626 104.787 8.90626Z" fill="white"/>
<path d="M104.787 26.958C107.25 26.958 109.247 24.9643 109.247 22.5049C109.247 20.0455 107.25 18.0518 104.787 18.0518C102.323 18.0518 100.326 20.0455 100.326 22.5049C100.326 24.9643 102.323 26.958 104.787 26.958Z" fill="white"/>
<path d="M104.787 45C107.25 45 109.247 43.0063 109.247 40.5469C109.247 38.0875 107.25 36.0938 104.787 36.0938C102.323 36.0938 100.326 38.0875 100.326 40.5469C100.326 43.0063 102.323 45 104.787 45Z" fill="white"/>
</svg>
