<svg width="385" height="45" fill="none" xmlns="http://www.w3.org/2000/svg" viewBox="0 0 385 45">
    <path d="M84.506 44.99v-3.607h-3.62V39.73h3.62v-3.617h1.68v3.617h3.63v1.653h-3.63v3.607h-1.68zM67.947 44.99v-3.607h-3.62V39.73h3.62v-3.617h1.66v3.617h3.63v1.653h-3.63v3.607h-1.66zM51.387 44.99v-3.607h-3.61V39.73h3.61v-3.617h1.66v3.617h3.64v1.653h-3.64v3.607h-1.66zM84.506 26.181v-3.596h-3.62V20.93h3.62v-3.626h1.68v3.626h3.63v1.654h-3.63v3.596h-1.68zM67.947 26.181v-3.596h-3.62V20.93h3.62v-3.626h1.66v3.626h3.63v1.654h-3.63v3.596h-1.66zM51.387 26.181v-3.596h-3.61V20.93h3.61v-3.626h1.66v3.626h3.64v1.654h-3.64v3.596h-1.66zM84.506 8.886V5.29h-3.62V3.636h3.62V.01h1.68v3.626h3.63V5.29h-3.63v3.596h-1.68zM67.947 8.886V5.29h-3.62V3.636h3.62V.01h1.66v3.626h3.63V5.29h-3.63v3.596h-1.66zM51.387 8.886V5.29h-3.61V3.636h3.61V.01h1.66v3.626h3.64V5.29h-3.64v3.596h-1.66zM36.728 44.99v-3.607h-3.62V39.73h3.62v-3.617h1.66v3.617h3.63v1.653h-3.63v3.607h-1.66zM20.19 44.99v-3.607h-3.61V39.73h3.61v-3.617h1.66v3.617h3.64v1.653h-3.64v3.607h-1.66zM3.61 44.99v-3.607H0V39.73h3.61v-3.617h1.66v3.617h3.64v1.653H5.27v3.607H3.61zM36.728 26.181v-3.596h-3.62V20.93h3.62v-3.626h1.66v3.626h3.63v1.654h-3.63v3.596h-1.66zM20.19 26.181v-3.596h-3.61V20.93h3.61v-3.626h1.66v3.626h3.64v1.654h-3.64v3.596h-1.66zM3.61 26.181v-3.596H0V20.93h3.61v-3.626h1.66v3.626h3.64v1.654H5.27v3.596H3.61zM36.728 8.886V5.29h-3.62V3.636h3.62V.01h1.66v3.626h3.63V5.29h-3.63v3.596h-1.66zM20.19 8.886V5.29h-3.61V3.636h3.61V.01h1.66v3.626h3.64V5.29h-3.64v3.596h-1.66zM3.61 8.886V5.29H0V3.636h3.61V.01h1.66v3.626h3.64V5.29H5.27v3.596H3.61zM123.484 8.906c2.468 0 4.47-1.993 4.47-4.453S125.952 0 123.484 0c-2.469 0-4.47 1.994-4.47 4.453 0 2.46 2.001 4.453 4.47 4.453zM123.484 26.958c2.468 0 4.47-1.994 4.47-4.453 0-2.46-2.002-4.453-4.47-4.453-2.469 0-4.47 1.994-4.47 4.453 0 2.46 2.001 4.453 4.47 4.453zM123.484 45c2.468 0 4.47-1.994 4.47-4.453 0-2.46-2.002-4.453-4.47-4.453-2.469 0-4.47 1.993-4.47 4.453S121.015 45 123.484 45zM141.953 8.906c2.469 0 4.47-1.993 4.47-4.453S144.422 0 141.953 0s-4.47 1.994-4.47 4.453c0 2.46 2.001 4.453 4.47 4.453zM141.953 26.958c2.469 0 4.47-1.994 4.47-4.453 0-2.46-2.001-4.453-4.47-4.453s-4.47 1.994-4.47 4.453c0 2.46 2.001 4.453 4.47 4.453zM141.953 45c2.469 0 4.47-1.994 4.47-4.453 0-2.46-2.001-4.453-4.47-4.453s-4.47 1.993-4.47 4.453S139.484 45 141.953 45zM160.432 8.906c2.469 0 4.47-1.993 4.47-4.453S162.901 0 160.432 0s-4.47 1.994-4.47 4.453c0 2.46 2.001 4.453 4.47 4.453zM160.432 26.958c2.469 0 4.47-1.994 4.47-4.453 0-2.46-2.001-4.453-4.47-4.453s-4.47 1.994-4.47 4.453c0 2.46 2.001 4.453 4.47 4.453zM160.432 45c2.469 0 4.47-1.994 4.47-4.453 0-2.46-2.001-4.453-4.47-4.453s-4.47 1.993-4.47 4.453S157.963 45 160.432 45zM178.911 8.906c2.469 0 4.47-1.993 4.47-4.453S181.38 0 178.911 0s-4.47 1.994-4.47 4.453c0 2.46 2.001 4.453 4.47 4.453zM178.911 26.958c2.469 0 4.47-1.994 4.47-4.453 0-2.46-2.001-4.453-4.47-4.453s-4.47 1.994-4.47 4.453c0 2.46 2.001 4.453 4.47 4.453zM178.911 45c2.469 0 4.47-1.994 4.47-4.453 0-2.46-2.001-4.453-4.47-4.453s-4.47 1.993-4.47 4.453S176.442 45 178.911 45zM105.005 8.906c2.468 0 4.47-1.993 4.47-4.453S107.473 0 105.005 0c-2.469 0-4.47 1.994-4.47 4.453 0 2.46 2.001 4.453 4.47 4.453zM105.005 26.958c2.468 0 4.47-1.994 4.47-4.453 0-2.46-2.002-4.453-4.47-4.453-2.469 0-4.47 1.994-4.47 4.453 0 2.46 2.001 4.453 4.47 4.453zM105.005 45c2.468 0 4.47-1.994 4.47-4.453 0-2.46-2.002-4.453-4.47-4.453-2.469 0-4.47 1.993-4.47 4.453S102.536 45 105.005 45zM286.175 44.99v-3.607h-3.62V39.73h3.62v-3.617h1.66v3.617h3.63v1.653h-3.63v3.607h-1.66zM269.566 44.99v-3.607h-3.62V39.73h3.62v-3.617h1.66v3.617h3.63v1.653h-3.63v3.607h-1.66zM253.007 44.99v-3.607h-3.62V39.73h3.62v-3.617h1.66v3.617h3.63v1.653h-3.63v3.607h-1.66zM286.175 26.181v-3.596h-3.62V20.93h3.62v-3.626h1.66v3.626h3.63v1.654h-3.63v3.596h-1.66zM269.566 26.181v-3.596h-3.62V20.93h3.62v-3.626h1.66v3.626h3.63v1.654h-3.63v3.596h-1.66zM253.007 26.181v-3.596h-3.62V20.93h3.62v-3.626h1.66v3.626h3.63v1.654h-3.63v3.596h-1.66zM286.175 8.886V5.29h-3.62V3.636h3.62V.01h1.66v3.626h3.63V5.29h-3.63v3.596h-1.66zM269.566 8.886V5.29h-3.62V3.636h3.62V.01h1.66v3.626h3.63V5.29h-3.63v3.596h-1.66zM253.007 8.886V5.29h-3.62V3.636h3.62V.01h1.66v3.626h3.63V5.29h-3.63v3.596h-1.66zM238.348 44.99v-3.607h-3.62V39.73h3.62v-3.617h1.66v3.617h3.63v1.653h-3.63v3.607h-1.66zM221.789 44.99v-3.607h-3.61V39.73h3.62v-3.617h1.66v3.617h3.63v1.653h-3.63v3.607h-1.67zM205.23 44.99v-3.607h-3.61V39.73h3.61v-3.617h1.66v3.617h3.64v1.653h-3.64v3.607h-1.66zM238.348 26.181v-3.596h-3.62V20.93h3.62v-3.626h1.66v3.626h3.63v1.654h-3.63v3.596h-1.66zM221.789 26.181v-3.596h-3.61V20.93h3.62v-3.626h1.66v3.626h3.63v1.654h-3.63v3.596h-1.67zM205.23 26.181v-3.596h-3.61V20.93h3.61v-3.626h1.66v3.626h3.64v1.654h-3.64v3.596h-1.66zM238.348 8.886V5.29h-3.62V3.636h3.62V.01h1.66v3.626h3.63V5.29h-3.63v3.596h-1.66zM221.789 8.886V5.29h-3.61V3.636h3.62V.01h1.66v3.626h3.63V5.29h-3.63v3.596h-1.67zM205.23 8.886V5.29h-3.61V3.636h3.61V.01h1.66v3.626h3.64V5.29h-3.64v3.596h-1.66zM325.094 8.906c2.468 0 4.47-1.993 4.47-4.453S327.562 0 325.094 0c-2.469 0-4.47 1.994-4.47 4.453 0 2.46 2.001 4.453 4.47 4.453zM325.094 26.958c2.468 0 4.47-1.994 4.47-4.453 0-2.46-2.002-4.453-4.47-4.453-2.469 0-4.47 1.994-4.47 4.453 0 2.46 2.001 4.453 4.47 4.453zM325.094 45c2.468 0 4.47-1.994 4.47-4.453 0-2.46-2.002-4.453-4.47-4.453-2.469 0-4.47 1.993-4.47 4.453S322.625 45 325.094 45zM343.573 8.906c2.468 0 4.47-1.993 4.47-4.453S346.041 0 343.573 0c-2.469 0-4.47 1.994-4.47 4.453 0 2.46 2.001 4.453 4.47 4.453zM343.573 26.958c2.468 0 4.47-1.994 4.47-4.453 0-2.46-2.002-4.453-4.47-4.453-2.469 0-4.47 1.994-4.47 4.453 0 2.46 2.001 4.453 4.47 4.453zM343.573 45c2.468 0 4.47-1.994 4.47-4.453 0-2.46-2.002-4.453-4.47-4.453-2.469 0-4.47 1.993-4.47 4.453S341.104 45 343.573 45zM362.052 8.906c2.468 0 4.47-1.993 4.47-4.453S364.52 0 362.052 0c-2.469 0-4.47 1.994-4.47 4.453 0 2.46 2.001 4.453 4.47 4.453zM362.052 26.958c2.468 0 4.47-1.994 4.47-4.453 0-2.46-2.002-4.453-4.47-4.453-2.469 0-4.47 1.994-4.47 4.453 0 2.46 2.001 4.453 4.47 4.453zM362.052 45c2.468 0 4.47-1.994 4.47-4.453 0-2.46-2.002-4.453-4.47-4.453-2.469 0-4.47 1.993-4.47 4.453S359.583 45 362.052 45zM380.531 8.906c2.468 0 4.47-1.993 4.47-4.453S382.999 0 380.531 0c-2.469 0-4.47 1.994-4.47 4.453 0 2.46 2.001 4.453 4.47 4.453zM380.531 26.958c2.468 0 4.47-1.994 4.47-4.453 0-2.46-2.002-4.453-4.47-4.453-2.469 0-4.47 1.994-4.47 4.453 0 2.46 2.001 4.453 4.47 4.453zM380.531 45c2.468 0 4.47-1.994 4.47-4.453 0-2.46-2.002-4.453-4.47-4.453-2.469 0-4.47 1.993-4.47 4.453S378.062 45 380.531 45zM306.624 8.906c2.469 0 4.47-1.993 4.47-4.453S309.093 0 306.624 0c-2.468 0-4.47 1.994-4.47 4.453 0 2.46 2.002 4.453 4.47 4.453zM306.624 26.958c2.469 0 4.47-1.994 4.47-4.453 0-2.46-2.001-4.453-4.47-4.453-2.468 0-4.47 1.994-4.47 4.453 0 2.46 2.002 4.453 4.47 4.453zM306.624 45c2.469 0 4.47-1.994 4.47-4.453 0-2.46-2.001-4.453-4.47-4.453-2.468 0-4.47 1.993-4.47 4.453S304.156 45 306.624 45z" fill="#EFE4DB"/>
</svg>
