<svg width="154" height="105" fill="none" xmlns="http://www.w3.org/2000/svg" viewBox="0 0 154 105">
    <path d="M77 27.92C34.51 27.92 0 62.422 0 105h154c0-42.578-34.411-77.08-77-77.08z" fill="#F6F2EF"/>
    <path d="M117.694 78.775c-1.197 1.495-3.491 2.293-5.386 2.592 1.795.1 3.79.4 4.887 1.795.499.698.798 1.496 1.098 2.294.498 1.695.897 3.29 1.296 4.985.299-1.495.798-2.991 1.197-4.387.2-.598.399-1.097.698-1.596 1.197-1.595 3.491-1.695 5.486-1.695a47.785 47.785 0 0 1-2.892-1.894c-.599-.4-1.197-.798-1.696-1.396-1.795-1.895-2.095-4.787-2.194-7.38 0 .1-.898 4.787-2.494 6.682z" fill="#F0D227"/>
    <path d="M116.996 77.977c-1.197 1.396-3.092 1.995-4.887 2.294-1.297.2-.898 2.094.299 2.194 1.695.1 3.69.398 4.488 2.093.898 1.895 1.197 4.188 1.696 6.183.199 1.097 1.895 1.097 2.194 0 .2-.997.499-2.094.798-3.091.299-.898.499-1.995 1.097-2.693.998-1.196 2.992-1.096 4.389-1.096 1.097 0 1.496-1.496.598-2.095-1.795-1.096-4.089-2.193-5.087-4.088-.997-1.695-1.097-3.69-1.196-5.584-.1-1.197-1.995-1.595-2.195-.299-.498 2.094-.997 4.587-2.194 6.182-.399.499-.499 1.097 0 1.596.399.399 1.197.498 1.596 0 1.496-1.994 2.294-4.687 2.693-7.08-.698-.1-1.496-.2-2.194-.3.099 2.294.299 4.687 1.496 6.782 1.296 2.293 3.79 3.59 5.984 4.886l.599-2.095c-1.995 0-4.289.1-5.785 1.596-.798.798-1.197 1.795-1.497 2.892-.399 1.296-.797 2.692-1.097 4.088h2.195c-.3-1.296-.599-2.692-.998-3.989-.299-1.196-.598-2.492-1.396-3.49-1.397-1.894-3.79-2.293-5.985-2.492.1.698.2 1.495.3 2.193 2.194-.399 4.488-1.196 5.884-2.891.698-1.197-.897-2.793-1.795-1.696z" fill="#333"/>
    <path d="M76.302 102.009c16.746 0 30.321-13.572 30.321-30.314 0-16.741-13.575-30.313-30.321-30.313-16.746 0-30.322 13.572-30.322 30.313 0 16.742 13.576 30.314 30.322 30.314z" fill="#DF357F"/>
    <path d="M105.526 71.695c-.1 12.066-7.78 23.234-19.15 27.422-11.57 4.188-24.636.598-32.516-8.775-7.88-9.373-8.777-23.234-2.493-33.704 6.283-10.47 18.85-15.954 30.82-13.462 11.769 2.394 21.045 12.066 22.94 23.932.199 1.396.399 2.992.399 4.587 0 1.396 2.294 1.496 2.194 0-.1-13.063-8.378-25.028-20.646-29.516-12.268-4.587-26.631-.598-35.01 9.473-8.377 10.171-9.574 24.93-2.692 36.297C56.154 99.216 69.519 105 82.386 102.507c12.667-2.493 22.94-13.063 24.935-25.926.299-1.595.399-3.29.399-4.986 0-1.396-2.194-1.396-2.194.1z" fill="#333"/>
    <path d="M76.302 97.422c14.212 0 25.733-11.518 25.733-25.727 0-14.208-11.521-25.726-25.733-25.726S50.569 57.487 50.569 71.695c0 14.209 11.521 25.727 25.733 25.727z" fill="#fff"/>
    <path d="M100.838 71.695c-.1 10.171-6.483 19.644-16.158 23.134-9.775 3.49-20.846.399-27.429-7.578-6.483-7.878-7.28-19.445-2.094-28.12 5.286-8.875 15.858-13.561 25.932-11.467 11.47 2.194 19.749 12.364 19.749 24.031 0 1.396 2.294 1.496 2.194 0-.099-11.268-7.181-21.439-17.853-25.228-10.573-3.789-22.741-.399-29.823 8.376-7.081 8.775-7.98 21.34-2.095 30.912 5.885 9.573 17.355 14.459 28.327 12.265 12.368-2.493 21.345-13.76 21.345-26.225.199-1.596-1.995-1.596-2.095-.1z" fill="#333"/>
    <path d="M74.207 85.157c-.2 0-.498-.1-.598-.3-.1-.199-.3-.398-.3-.598v-2.293c-1.795-.3-3.191-.698-4.388-1.396s-1.995-1.496-2.593-2.493a5.275 5.275 0 0 1-.898-2.992c0-.199.1-.398.2-.498.1-.1.299-.2.498-.2h6.284c.399 0 .598 0 .798.1.2.1.399.2.598.399.2.2.4.3.699.399.2.1.498.2.797.299.3.1.599.1.998.1.798 0 1.396-.1 1.795-.2.499-.2.699-.399.699-.698 0-.299-.1-.498-.4-.698-.299-.2-.698-.299-1.296-.498-.599-.1-1.496-.3-2.593-.4-1.696-.199-3.292-.697-4.489-1.196-1.296-.598-2.294-1.396-2.992-2.393-.698-.997-.997-2.194-.997-3.69 0-1.894.698-3.49 1.994-4.786 1.297-1.296 3.092-2.194 5.386-2.592v-2.294c0-.2.1-.498.3-.598.2-.2.399-.3.598-.3h3.99c.2 0 .499.1.598.3.2.2.3.399.3.598v2.393c1.595.3 2.892.898 3.99 1.596 1.096.698 1.894 1.496 2.493 2.393.598.897.897 1.695.897 2.493 0 .2-.1.399-.2.498-.099.1-.299.2-.498.2h-6.583c-.3 0-.598 0-.698-.1-.2-.1-.399-.2-.599-.399-.1-.1-.299-.2-.598-.399-.3-.1-.698-.199-1.097-.199-.599 0-.998.1-1.197.2-.2.1-.399.398-.399.697 0 .2.1.4.3.599.199.2.598.299 1.097.498.498.1 1.296.3 2.294.4 2.194.298 3.99.697 5.286 1.296 1.296.598 2.294 1.395 2.892 2.293.599.997.898 2.194.898 3.59 0 1.296-.3 2.493-.998 3.59-.698.997-1.695 1.894-2.892 2.592-1.197.698-2.593 1.097-4.19 1.396v2.293c0 .2-.099.499-.298.599-.2.1-.4.299-.599.299h-4.289v.1z" fill="#DF357F"/>
    <path d="M103.232 32.906H46.779c-9.077 0-16.458-7.379-16.458-16.453S37.702 0 46.778 0h56.454c9.076 0 16.457 7.379 16.457 16.453s-7.381 16.453-16.457 16.453z" fill="#333"/>
    <path d="M61.041 17.151c.2-.299.4-.498.698-.598.1-.1.3-.1.4-.1.199 0 .299 0 .498.1l.399.2c.3.099.499.298.599.598 0 .1.1.199.1.299 0 .2-.1.299-.2.498-.698 1.097-1.596 2.194-2.593 3.191-.1.1-.1.2-.1.3.399 1.196.798 1.794 1.197 1.794.299 0 .498-.698.598-2.094 0-.2.1-.399.399-.498.2-.1.399-.1.599.1.199.099.299.299.498.398.3.2.499.4.698.698.1.2.2.4.2.698v.3c-.2 1.296-.599 2.193-1.097 2.592-.499.498-1.197.698-2.095.698-1.297 0-2.394-.898-3.291-2.692 0-.1-.1-.1-.2-.1-.698.498-1.496 1.097-2.294 1.496-.2.1-.399.2-.598.2h-.3c-.299-.1-.598-.2-.797-.5-.2-.199-.3-.398-.5-.598.1 0 0-.2 0-.399v-.2c.1-.298.2-.498.4-.597a34.378 34.378 0 0 0 3.191-1.995c.1-.1.1-.1.1-.2-.399-1.395-.698-3.09-.897-4.785 0-.1-.1-.2-.2-.2h-3.49c-.1 0-.1.1-.1.2v1.495c0 .1 0 .1.1.1l1.595-.3h.2c.199 0 .398.1.598.2.2.2.399.4.399.798v.399c0 .299-.1.498-.3.798-.199.299-.498.398-.797.498-.998.2-1.596.3-1.796.399-.1 0-.1.1-.1.2v2.692c0 .797-.099 1.396-.298 1.795-.2.398-.5.698-.898.997-.599.299-1.496.498-2.593.498h-.1c-.3 0-.599-.1-.798-.299-.3-.2-.4-.498-.499-.798-.1-.199-.2-.498-.299-.797 0-.1-.1-.2-.1-.3 0-.1 0-.298.1-.398.1-.2.3-.3.598-.3h1.397c.2 0 .299 0 .399-.1.1-.099.1-.198.1-.298V20.94c0-.1 0-.1-.1-.1l-1.995.4h-.2c-.199 0-.498-.1-.698-.2-.299-.2-.399-.399-.498-.698l-.2-.698v-.3c0-.199.1-.398.2-.597.199-.3.398-.4.698-.4.997-.099 1.895-.298 2.693-.398.1 0 .1-.1.1-.2v-1.894c0-.1 0-.2-.1-.2h-2.195c-.299 0-.598-.1-.797-.299-.2-.2-.3-.498-.3-.797v-.4c0-.298.1-.598.3-.797.199-.2.498-.3.797-.3h2.394c.1 0 .1 0 .1-.099v-1.496c0-.1 0-.1-.1-.1-.598.1-1.097.1-1.596.2h-.2c-.298 0-.498-.1-.697-.2-.3-.199-.4-.498-.499-.797 0-.1-.1-.2-.1-.3 0-.099-.1-.199-.1-.298 0-.2 0-.3.1-.4.1-.398.3-.597.599-.597 2.094-.3 4.09-.698 5.785-1.197.2 0 .299-.1.498-.1.2 0 .4 0 .5.1.298.1.598.3.797.598l.499.698c.1.1.2.3.2.499v.299c-.1.3-.3.399-.5.498-.598.1-1.196.3-1.994.4-.1 0-.1.1-.1.199v1.994c0 .1 0 .1.1.1h3.191c.1 0 .1 0 .1-.1-.1-1.695-.2-3.091-.2-4.088 0-.3.1-.598.3-.798.2-.2.499-.3.798-.3h.698c.3 0 .598.1.798.3.2.2.3.499.3.798 0 1.296.099 2.692.199 4.088 0 .1.1.1.2.1h3.989c.299 0 .598.1.798.299.2.2.299.499.299.798v.399c0 .299-.1.598-.3.797-.199.2-.498.3-.797.3h-3.69c-.1 0-.1.1-.1.199.2.997.299 1.795.399 2.393v.1h.1c.298-.4.498-.798.797-1.197zm2.893-6.98c.2.2.2.399.2.598v.2c-.1.299-.2.598-.5.798l-.398.299c-.2.1-.4.2-.599.2h-.2c-.299-.1-.498-.2-.698-.5-.399-.498-.797-.997-1.296-1.495-.2-.2-.3-.399-.3-.698 0-.3.1-.598.4-.798l.299-.2c.2-.199.498-.298.798-.298h.1c.398 0 .598.199.897.398.499.599.998 1.097 1.297 1.496zM85.677 19.345c0 .3-.1.598-.3.798-.199.2-.498.299-.797.299h-2.494c-.1 0-.2 0-.2.1a15.588 15.588 0 0 1-1.296 1.894v.1s0 .1.1.1c1.197.398 2.394.698 3.391.997.3.1.499.299.499.498v.3c0 .199-.1.299-.2.498l-.399.499c-.199.299-.498.498-.797.498-.1 0-.3.1-.4.1-.199 0-.398 0-.498-.1a69.663 69.663 0 0 0-4.289-1.496h-.3c-1.695.798-4.288 1.396-7.779 1.696h-.1c-.299 0-.498-.1-.798-.2-.299-.2-.498-.399-.598-.798-.1-.1-.1-.299-.2-.398-.1-.1-.1-.2-.1-.3 0-.1 0-.199.1-.398.1-.2.3-.3.599-.4 1.895-.099 3.49-.298 4.588-.498l-.798-.2c-.1.1-.1.1-.2.1l-1.595-.299c-.3-.1-.4-.2-.5-.498v-.3c0-.199.1-.299.2-.498l.599-.898v-.1h-2.693c-.3 0-.599-.099-.798-.298-.2-.2-.3-.499-.3-.798 0-.3.1-.598.3-.798.2-.2.499-.299.798-.299h4.09c.099 0 .199 0 .199-.1.1-.2.299-.398.498-.698v-.1H69.62c-.3 0-.599-.1-.798-.299-.2-.199-.3-.498-.3-.797v-3.59c0-.3.1-.598.3-.798.2-.2.499-.299.798-.299h2.992c.1 0 .2 0 .2-.1v-.498c0-.1-.1-.2-.2-.2h-3.89c-.3 0-.598-.1-.798-.299-.2-.2-.3-.498-.3-.797v-.499c0-.3.1-.598.3-.798.2-.2.499-.299.798-.299h15.36c.3 0 .599.1.798.3.2.199.3.498.3.797v.2c0 .299-.1.598-.3.797-.2.2-.499.3-.798.3h-3.99c-.1 0-.199.099-.199.199v.498c0 .1.1.1.2.1h3.49c.3 0 .599.1.798.3.2.199.3.498.3.797v3.59c0 .299-.1.598-.3.797-.2.2-.498.3-.797.3H76.7c-.1 0-.2 0-.2.1l-.398.697v.1h8.578c.299 0 .598.1.798.3.1.498.199.797.199 1.096zm-14.363-5.783c-.1 0-.1 0-.1.1v1.096c0 .1 0 .2.1.2h1.297c.1 0 .2-.1.2-.2v-1.097c0-.1-.1-.1-.2-.1h-1.297zm3.292 6.98c-.1 0-.2 0-.2.1l-.2.298c-.099.1 0 .1.1.2.799.2 1.796.399 2.893.698.1 0 .2 0 .3-.1.398-.299.797-.698 1.096-1.097v-.1h-3.99zm.997-9.972c-.1 0-.1.1-.1.2v.498c0 .1 0 .1.1.1H77c.1 0 .2 0 .2-.1v-.498c0-.1-.1-.2-.2-.2h-1.397zm-.1 4.288c0 .1 0 .2.1.2H77c.1 0 .2-.1.2-.2V13.76c0-.1-.1-.1-.2-.1h-1.397c-.1 0-.1 0-.1.1v1.097zm6.284-1.097c0-.1 0-.1-.1-.1h-1.596c-.1 0-.199 0-.199.1v1.097c0 .1.1.2.2.2h1.595c.1-.1.1-.1.1-.2V13.76zM99.142 24.131c-.399.399-.997.598-1.695.598-.699 0-1.197-.199-1.696-.598-.499-.399-.698-.897-.698-1.595 0-.599.2-1.097.698-1.596.399-.399.997-.598 1.695-.598.699 0 1.197.2 1.696.598.4.4.698.898.698 1.596-.1.598-.299 1.097-.698 1.595zm-1.795-4.986c-.3 0-.599-.1-.898-.299-.2-.2-.399-.498-.399-.797l-.698-5.186-.1-2.193c0-.3.1-.599.3-.798.199-.2.498-.3.797-.3h2.095c.3 0 .598.1.798.3.2.2.3.498.3.798l-.1 2.193-.699 5.186c0 .299-.2.598-.399.797-.2.2-.498.3-.897.3h-.1z" fill="#fff"/>
</svg>
