<svg width="154" height="105" fill="none" xmlns="http://www.w3.org/2000/svg" viewBox="0 0 154 105">
    <path d="M77 27.92C34.51 27.92 0 62.42 0 105h154c0-42.579-34.411-77.08-77-77.08z" fill="#F6F2EF"/>
    <path d="M103.232 32.906H46.779c-9.077 0-16.458-7.379-16.458-16.453S37.702 0 46.778 0h56.454c9.076 0 16.457 7.379 16.457 16.453s-7.381 16.453-16.457 16.453z" fill="#F0D227"/>
    <path d="M61.042 17.151c.2-.299.399-.498.698-.598.1-.1.3-.1.399-.1.2 0 .3 0 .499.1l.398.2c.3.099.5.298.599.598 0 .1.1.199.1.299 0 .2-.1.299-.2.498-.698 1.097-1.596 2.194-2.593 3.191-.1.1-.1.2-.1.3.4 1.196.798 1.794 1.197 1.794.3 0 .499-.698.599-2.094 0-.2.1-.399.398-.498.2-.1.4-.1.599.1.2.099.3.299.499.398.299.2.498.4.698.698.1.2.2.4.2.698v.3c-.2 1.296-.6 2.193-1.098 2.592-.498.498-1.197.698-2.094.698-1.297 0-2.394-.898-3.292-2.692 0-.1-.1-.1-.2-.1-.697.498-1.495 1.097-2.293 1.496-.2.1-.4.2-.599.2h-.299c-.3-.1-.598-.2-.798-.5-.2-.199-.3-.398-.499-.598.1 0 0-.2 0-.399v-.2c.1-.298.2-.498.4-.597a34.378 34.378 0 0 0 3.191-1.995c.1-.1.1-.1.1-.2-.4-1.395-.698-3.09-.898-4.785 0-.1-.1-.2-.2-.2h-3.49c-.1 0-.1.1-.1.2v1.495c0 .1 0 .1.1.1l1.596-.3h.199c.2 0 .399.1.598.2.2.2.4.4.4.798v.399c0 .299-.1.498-.3.798-.2.299-.498.398-.798.498-.997.2-1.596.3-1.795.399-.1 0-.1.1-.1.2v2.692c0 .797-.1 1.396-.299 1.795-.2.398-.499.698-.898.997-.598.299-1.496.498-2.593.498h-.1c-.299 0-.598-.1-.798-.299-.299-.2-.399-.498-.498-.798-.1-.199-.2-.498-.3-.797 0-.1-.1-.2-.1-.3 0-.1 0-.298.1-.398.1-.2.3-.3.599-.3h1.396c.2 0 .3 0 .4-.1.099-.099.099-.198.099-.298V20.94c0-.1 0-.1-.1-.1l-1.995.4h-.2c-.198 0-.498-.1-.697-.2-.3-.2-.4-.399-.499-.698l-.2-.698v-.3c0-.199.1-.398.2-.597.2-.3.399-.4.698-.4.998-.099 1.895-.298 2.693-.398.1 0 .1-.1.1-.2v-1.894c0-.1 0-.2-.1-.2h-2.194c-.3 0-.598-.1-.798-.299-.2-.2-.3-.498-.3-.797v-.4c0-.298.1-.598.3-.797.2-.2.499-.3.798-.3h2.394c.1 0 .1 0 .1-.099v-1.496c0-.1 0-.1-.1-.1-.599.1-1.097.1-1.596.2h-.2c-.299 0-.498-.1-.698-.2-.299-.199-.399-.498-.498-.797 0-.1-.1-.2-.1-.3 0-.099-.1-.199-.1-.298 0-.2 0-.3.1-.4.1-.398.299-.597.598-.597 2.095-.3 4.09-.698 5.785-1.197.2 0 .3-.1.499-.1.2 0 .399 0 .499.1.299.1.598.3.798.598l.498.698c.1.1.2.3.2.499v.299c-.1.3-.3.399-.499.498-.598.1-1.197.3-1.995.4-.1 0-.1.1-.1.199v1.994c0 .1 0 .1.1.1h3.192c.1 0 .1 0 .1-.1-.1-1.695-.2-3.091-.2-4.088 0-.3.1-.598.3-.798.199-.2.498-.3.797-.3h.699c.299 0 .598.1.797.3.2.2.3.499.3.798 0 1.296.1 2.692.2 4.088 0 .1.099.1.199.1h3.99c.298 0 .598.1.797.299.2.2.3.499.3.798v.399c0 .299-.1.598-.3.797-.2.2-.498.3-.798.3h-3.69c-.1 0-.1.1-.1.199.2.997.3 1.795.399 2.393v.1h.1c.299-.4.498-.798.798-1.197zm2.892-6.98c.2.2.2.399.2.598v.2c-.1.299-.2.598-.499.798l-.399.299c-.2.1-.399.2-.598.2h-.2c-.3-.1-.499-.2-.698-.5-.4-.498-.798-.997-1.297-1.495-.2-.2-.299-.399-.299-.698 0-.3.1-.598.399-.798l.3-.2c.199-.199.498-.298.797-.298h.1c.399 0 .598.199.898.398.498.599.997 1.097 1.296 1.496zM85.677 19.345c0 .3-.1.598-.299.798-.2.2-.498.299-.798.299h-2.493c-.1 0-.2 0-.2.1a15.577 15.577 0 0 1-1.296 1.894v.1s0 .1.1.1c1.196.398 2.393.698 3.39.997.3.1.5.299.5.498v.3c0 .199-.1.299-.2.498l-.4.499c-.199.299-.498.498-.797.498-.1 0-.3.1-.399.1-.2 0-.399 0-.499-.1a69.733 69.733 0 0 0-4.288-1.496h-.3c-1.695.798-4.289 1.396-7.78 1.696h-.1c-.299 0-.498-.1-.797-.2-.3-.2-.499-.399-.599-.798-.1-.1-.1-.299-.2-.398-.099-.1-.099-.2-.099-.3 0-.1 0-.199.1-.398.1-.2.3-.3.598-.4 1.895-.099 3.491-.298 4.588-.498l-.797-.2c-.1.1-.1.1-.2.1l-1.596-.299c-.3-.1-.399-.2-.499-.498v-.3c0-.199.1-.299.2-.498l.598-.898v-.1h-2.693c-.299 0-.598-.099-.798-.298-.2-.2-.299-.499-.299-.798 0-.3.1-.598.3-.798.199-.2.498-.299.797-.299h4.09c.1 0 .2 0 .2-.1.099-.2.298-.398.498-.698v-.1H69.62c-.3 0-.6-.1-.799-.299-.2-.199-.299-.498-.299-.797v-3.59c0-.3.1-.598.3-.798.199-.2.498-.299.797-.299h2.993c.1 0 .199 0 .199-.1v-.498c0-.1-.1-.2-.2-.2h-3.89c-.299 0-.598-.1-.797-.299-.2-.2-.3-.498-.3-.797v-.499c0-.3.1-.598.3-.798.2-.2.498-.299.798-.299h15.36c.299 0 .598.1.798.3.2.199.299.498.299.797v.2c0 .299-.1.598-.3.797-.199.2-.498.3-.797.3h-3.99c-.1 0-.2.099-.2.199v.498c0 .1.1.1.2.1h3.491c.3 0 .598.1.798.3.2.199.3.498.3.797v3.59c0 .299-.1.598-.3.797-.2.2-.499.3-.798.3h-6.882c-.1 0-.2 0-.2.1l-.399.697v.1h8.578c.3 0 .599.1.798.3.1.498.2.797.2 1.096zm-14.362-5.783c-.1 0-.1 0-.1.1v1.096c0 .1 0 .2.1.2h1.297c.1 0 .199-.1.199-.2v-1.097c0-.1-.1-.1-.2-.1h-1.296zm3.291 6.98c-.1 0-.2 0-.2.1l-.199.298c-.1.1 0 .1.1.2.798.2 1.795.399 2.892.698.1 0 .2 0 .3-.1.399-.299.798-.698 1.097-1.097v-.1h-3.99zm.998-9.972c-.1 0-.1.1-.1.2v.498c0 .1 0 .1.1.1H77c.1 0 .2 0 .2-.1v-.498c0-.1-.1-.2-.2-.2h-1.396zm-.1 4.288c0 .1 0 .2.1.2H77c.1 0 .2-.1.2-.2V13.76c0-.1-.1-.1-.2-.1h-1.396c-.1 0-.1 0-.1.1v1.097zm6.284-1.097c0-.1 0-.1-.1-.1h-1.596c-.1 0-.2 0-.2.1v1.097c0 .1.1.2.2.2h1.596c.1-.1.1-.1.1-.2V13.76zM99.143 24.131c-.4.399-.998.598-1.696.598s-1.197-.199-1.696-.598c-.498-.399-.698-.897-.698-1.595 0-.599.2-1.097.698-1.596.4-.399.998-.598 1.696-.598s1.197.2 1.696.598c.399.4.698.898.698 1.596-.1.598-.3 1.097-.698 1.595zm-1.796-4.986c-.299 0-.598-.1-.897-.299-.2-.2-.4-.498-.4-.797l-.698-5.186-.1-2.193c0-.3.1-.599.3-.798.2-.2.499-.3.798-.3h2.094c.3 0 .599.1.798.3.2.2.3.498.3.798l-.1 2.193-.698 5.186c0 .299-.2.598-.4.797-.199.2-.498.3-.897.3h-.1z" fill="#333"/>
    <path d="M88.97 93.932H53.161V65.014l17.953-7.977 17.854 7.977v28.918z" fill="#fff"/>
    <path d="M88.969 92.735H53.16l1.098 1.097V65.014c-.2.3-.399.599-.598.998 5.984-2.693 11.968-5.285 17.953-7.978h-1.097c5.984 2.693 11.869 5.285 17.853 7.977-.2-.299-.398-.598-.598-.997v28.818c0 1.396 2.194 1.496 2.194 0V65.014c0-.398-.2-.797-.598-.997a1114.843 1114.843 0 0 0-15.959-7.08c-.598-.299-1.296-.598-1.895-.897-.798-.3-1.596.2-2.394.499-3.092 1.396-6.184 2.692-9.176 4.088l-7.48 3.29c-.4.2-.599.599-.599.998v28.818c0 .598.499 1.096 1.097 1.096H88.77c1.596.2 1.596-2.094.2-2.094z" fill="#333"/>
    <path d="m71.115 52.251-21.544 9.573v6.98l21.544-9.573 21.445 9.573v-6.98L71.115 52.25z" fill="#DF357F"/>
    <path d="M70.517 51.353 51.666 59.73l-2.693 1.197c-.399.2-.599.598-.599.997v6.98c0 .898.898 1.296 1.696.997l18.851-8.376 2.693-1.196h-1.097c6.284 2.792 12.468 5.584 18.751 8.376l2.693 1.196c.798.3 1.696 0 1.696-.997v-6.98c0-.399-.2-.797-.599-.997-6.283-2.792-12.467-5.584-18.75-8.376l-2.694-1.197c-1.297-.598-2.493 1.396-1.097 1.895 6.284 2.792 12.468 5.584 18.751 8.376l2.693 1.197c-.2-.3-.399-.599-.598-.997v6.98c.598-.3 1.097-.599 1.695-.998-6.383-2.792-12.667-5.683-19.05-8.475-.798-.4-1.596-.798-2.394-1.097-.898-.3-1.795.299-2.593.598-3.69 1.596-7.38 3.29-10.972 4.886-2.992 1.296-6.084 2.692-9.076 3.989.598.299 1.097.598 1.696.997v-6.98c-.2.299-.4.598-.599.997l18.851-8.376 2.693-1.197c1.396-.498.2-2.393-1.097-1.795z" fill="#333"/>
    <path d="M77.2 76.082H64.932v17.75H77.2v-17.75z" fill="#DF357F"/>
    <path d="M77.2 92.735H64.932l1.097 1.097V76.083l-1.097 1.097H77.2l-1.097-1.097v17.749c0 1.396 2.194 1.496 2.194 0V76.083c0-.599-.499-1.097-1.097-1.097H64.932c-.599 0-1.098.498-1.098 1.097v17.749c0 .598.5 1.097 1.098 1.097H77.2c1.396.1 1.396-2.194 0-2.194z" fill="#333"/>
    <path d="M61.241 74.886h-2.394c-.797 0-1.396-.598-1.396-1.396v-2.393c0-.797.599-1.396 1.396-1.396h2.394c.798 0 1.397.599 1.397 1.396v2.393c0 .798-.599 1.396-1.397 1.396z" fill="#F0D227"/>
    <path d="M61.241 73.39h-2.593c.1 0 .3 0 .399.1h-.2c-.2-.1.3.2.1.1l-.1-.1c.3.1.2.2.1.1 0 0-.2-.2 0 0v.1c.1.1.1.2 0 .1v-.2c0 .1 0 .3.1.399-.1-.499 0-.898 0-1.396v-1.396c0 .1 0 .299-.1.399v-.2c.1-.2-.2.3-.1.1l.1-.1c-.1.3-.2.2-.1.1 0 0 .2-.2 0 0h-.1c-.099.1-.199.1-.1 0h.2c-.1 0-.299 0-.398.1.498-.1.897 0 1.396 0h1.396c-.1 0-.299 0-.399-.1h.2c.2.1-.3-.2-.1-.1l.1.1c-.3-.1-.2-.2-.1-.1 0 0 .2.2 0 0v-.1c-.1-.1-.1-.199 0-.1v.2c0-.1 0-.299-.1-.399.1.499 0 .898 0 1.396v1.396c.3-.199.3-.299.4-.398-.1 0-.1.1-.1.1-.1.199.1-.3.1-.1-.1 0-.1.1-.1.1.1-.2.199-.2.1-.1-.1.1-.3.199 0 0 .099-.1 0 0 0 0-.2.1-.2.1 0 0 .099 0 .099-.1 0 0h-.2c.1 0 .299 0 .399-.1 0 .1-.1.1-.2.1-.798 0-1.496.698-1.496 1.495 0 .798.698 1.496 1.496 1.496a2.894 2.894 0 0 0 2.893-2.892v-2.293c0-.798-.3-1.496-.798-1.995-.499-.498-1.297-.797-1.995-.797h-2.394c-1.596 0-2.793 1.196-2.892 2.792v1.595c0 .798 0 1.596.399 2.393.498.898 1.396 1.396 2.393 1.396h2.394c.798 0 1.496-.698 1.496-1.495 0-.997-.598-1.695-1.496-1.695z" fill="#333"/>
    <path d="M82.885 74.886H80.49c-.798 0-1.396-.598-1.396-1.396v-2.393c0-.797.598-1.396 1.396-1.396h2.394c.798 0 1.396.599 1.396 1.396v2.393c-.1.798-.698 1.396-1.396 1.396z" fill="#F0D227"/>
    <path d="M82.885 73.39h-2.593c.1 0 .299 0 .398.1h-.199c-.2-.1.3.2.1.1l-.1-.1c.3.1.2.2.1.1 0 0-.2-.2 0 0v.1c.1.1.1.2 0 .1v-.2c0 .1 0 .3.1.399-.1-.499 0-.898 0-1.396v-1.396c0 .1 0 .299-.1.399v-.2c.1-.2-.2.3-.1.1l.1-.1c-.1.3-.2.2-.1.1 0 0 .2-.2 0 0h-.1c-.1.1-.2.1-.1 0h.2c-.1 0-.3 0-.399.1.499-.1.898 0 1.396 0h1.397c-.1 0-.3 0-.4-.1h.2c.2.1-.299-.2-.1-.1l.1.1c-.299-.1-.2-.2-.1-.1 0 0 .2.2 0 0-.199-.2 0 0 0 0v-.1c-.1-.1-.1-.199 0-.1v.2c0-.1 0-.299-.1-.399.1.499 0 .898 0 1.396v1.396l.4-.398c-.1 0-.1.1-.1.1-.1.199.1-.3.1-.1-.1 0-.1.1-.1.1 0-.2.1-.2.1-.1-.2.1-.3.199 0 0 .1-.1-.1 0 0 0-.2.1-.2.1 0 0 .1 0 .1-.1 0 0h-.2c.1 0 .3 0 .4-.1-.1.1-.2.1-.2.1-.798 0-1.496.698-1.496 1.495 0 .798.698 1.496 1.496 1.496a2.894 2.894 0 0 0 2.892-2.892v-2.293c0-.798-.299-1.496-.798-1.995-.498-.498-1.296-.797-1.995-.797h-2.393c-1.596 0-2.793 1.196-2.893 2.792v1.595c0 .798 0 1.596.4 2.393.498.898 1.396 1.396 2.393 1.396h2.394c.798 0 1.496-.698 1.496-1.495-.1-.997-.698-1.695-1.496-1.695z" fill="#333"/>
    <path d="M97.846 90.84c0 1.397 1.197 2.593 2.593 2.593s2.593-1.196 2.593-2.592V67.108h-5.186v23.733z" fill="#F0D227"/>
    <path d="M96.35 90.84c.1 2.095 1.596 3.89 3.79 4.089 1.995.2 3.89-1.197 4.289-3.191.299-1.296.099-2.692.099-3.989V67.208c0-.798-.698-1.496-1.496-1.496h-5.186c-.798 0-1.496.698-1.496 1.496v23.633c0 1.894 2.992 1.894 2.992 0V67.009l-1.496 1.495h5.186l-1.496-1.495V90.64c-.1 1.396-2.094 1.496-2.194 0-.1-1.695-3.092-1.695-2.992.2z" fill="#333"/>
    <path d="M106.822 48.76c-4.887 0-8.976 3.99-8.976 8.975v2.992h5.186v-2.992a3.788 3.788 0 0 1 3.79-3.79 3.788 3.788 0 0 1 3.791 3.79v8.177c0 1.396 1.196 2.592 2.593 2.592 1.396 0 2.593-1.196 2.593-2.592v-8.177c0-4.886-3.99-8.974-8.977-8.974z" fill="#F0D227"/>
    <path d="M106.823 47.265c-3.791.1-7.381 2.094-9.177 5.484-1.296 2.493-1.197 5.186-1.197 7.978 0 .797.699 1.495 1.497 1.495h5.186c.798 0 1.496-.698 1.496-1.495 0-1.197-.299-2.892.2-3.989.997-1.994 4.089-1.496 4.289.698.099 1.097 0 2.393 0 3.49v4.587c0 2.094 1.197 3.989 3.391 4.387 2.593.4 4.688-1.595 4.787-4.088.1-2.692 0-5.384 0-7.977-.099-5.784-4.687-10.47-10.472-10.57-1.895 0-1.895 2.992 0 2.992 4.189.1 7.48 3.49 7.48 7.578 0 2.593.2 5.285 0 7.877-.1 1.496-2.094 1.496-2.194 0-.1-1.196 0-2.492 0-3.689 0-3.19.598-7.28-2.893-9.074-2.693-1.396-5.984-.2-7.181 2.593-.698 1.595-.499 3.49-.499 5.085l1.496-1.496h-5.186l1.496 1.496c0-1.994-.2-4.088.599-5.983 1.196-2.692 3.889-4.487 6.882-4.487 1.895.1 1.895-2.892 0-2.892z" fill="#333"/>
    <path d="M103.032 60.727h-5.186v6.282h5.186v-6.282z" fill="#fff"/>
    <path d="M97.846 68.604h5.186c.798 0 1.496-.698 1.496-1.496v-6.282c0-.797-.698-1.495-1.496-1.495h-5.186c-.798 0-1.496.698-1.496 1.495v6.282c0 .798.698 1.496 1.496 1.496s1.496-.698 1.496-1.496v-6.282l-1.496 1.496h5.186l-1.496-1.496v6.282l1.496-1.495h-5.186c-.798 0-1.496.698-1.496 1.495.1.798.698 1.496 1.496 1.496z" fill="#333"/>
    <path d="M122.581 79.373c-1.197 1.496-3.491 2.294-5.386 2.593 1.796.1 3.79.399 4.888 1.795.498.698.798 1.496 1.097 2.293.498 1.695.897 3.29 1.296 4.986.3-1.496.798-2.992 1.197-4.388.2-.598.399-1.096.698-1.595 1.197-1.595 3.491-1.695 5.486-1.695a47.785 47.785 0 0 1-2.892-1.895c-.599-.399-1.197-.797-1.696-1.396-1.795-1.894-2.094-4.786-2.194-7.379-.1 0-.898 4.687-2.494 6.681z" fill="#F0D227"/>
    <path d="M121.784 78.576c-1.197 1.396-3.092 1.994-4.888 2.293-1.296.2-.897 2.094.299 2.194 1.696.1 3.691.398 4.489 2.094.897 1.894 1.197 4.188 1.695 6.182.2 1.097 1.896 1.097 2.195 0 .199-.997.498-2.094.798-3.091.299-.898.498-1.995 1.097-2.693.997-1.196 2.992-1.096 4.388-1.096 1.098 0 1.497-1.496.599-2.094-1.795-1.097-4.09-2.194-5.087-4.089-.997-1.695-1.097-3.69-1.197-5.584-.1-1.196-1.995-1.595-2.194-.299-.399 1.994-.898 4.487-2.194 6.183-.399.498-.499 1.096 0 1.595.399.399 1.196.498 1.595 0 1.497-1.994 2.294-4.687 2.693-7.08-.698-.1-1.496-.2-2.194-.299.1 2.293.299 4.687 1.496 6.78 1.297 2.294 3.79 3.59 5.985 4.887l.598-2.094c-1.995 0-4.289.1-5.785 1.595-.798.798-1.197 1.795-1.496 2.892-.399 1.296-.798 2.692-1.097 4.088h2.194c-.299-1.296-.598-2.692-.997-3.989-.299-1.196-.599-2.492-1.397-3.49-1.396-1.894-3.79-2.293-5.984-2.492.1.698.199 1.495.299 2.193 2.194-.399 4.489-1.196 5.885-2.891.698-1.197-.798-2.792-1.795-1.695z" fill="#333"/>
</svg>
