<svg width="154" height="105" fill="none" xmlns="http://www.w3.org/2000/svg" viewBox="0 0 154 105">
    <path d="M77 27.95C34.51 27.95 0 62.483 0 105h154c0-42.517-34.411-77.05-77-77.05z" fill="#F6F2EF"/>
    <path d="M96.15 95.02H53.26V60.485l21.544-9.581 21.345 9.581V95.02z" fill="#fff"/>
    <path d="M96.15 93.921H53.26l1.097 1.098V60.486c-.199.3-.398.6-.598.998 6.284-2.794 12.468-5.589 18.751-8.383l2.693-1.198h-1.097c6.284 2.795 12.468 5.59 18.752 8.384l2.693 1.197c-.2-.299-.4-.598-.599-.998V95.02c0 1.398 2.194 1.497 2.194 0V60.486c0-.399-.2-.798-.598-.998-6.384-2.794-12.667-5.689-19.05-8.483-.798-.3-1.497-.799-2.295-.998-.897-.3-1.795.3-2.593.698-3.69 1.597-7.38 3.294-11.071 4.89-2.992 1.298-5.985 2.696-8.877 3.993-.4.2-.598.599-.598.998V95.12c0 .599.498 1.098 1.097 1.098H96.05c1.496-.1 1.496-2.296.1-2.296z" fill="#333"/>
    <path d="M74.806 45.216 48.973 56.693v8.284L74.806 53.6l25.633 11.378v-8.284L74.806 45.216z" fill="#DF357F"/>
    <path d="M74.207 44.218c-7.48 3.293-15.06 6.687-22.541 9.98-1.097.5-2.095.999-3.192 1.398-.399.2-.598.599-.598.998v8.384c0 .898.897 1.297 1.695.998 7.48-3.294 15.061-6.687 22.541-9.98 1.098-.5 2.095-.999 3.192-1.398h-1.097c7.48 3.393 14.961 6.687 22.542 10.08 1.097.5 2.094.898 3.191 1.398.798.299 1.696 0 1.696-.999v-8.383c0-.4-.2-.799-.599-.998-7.48-3.394-14.96-6.687-22.541-10.08-1.097-.5-2.095-.899-3.192-1.398-1.296-.599-2.493 1.397-1.097 1.896 7.48 3.394 14.961 6.687 22.542 10.08 1.097.5 2.094.899 3.191 1.398-.2-.3-.399-.599-.598-.998v8.384c.598-.3 1.097-.6 1.695-.998-7.68-3.294-15.26-6.688-22.84-10.08-.898-.4-1.895-.9-2.793-1.298-.997-.4-2.095.399-2.992.798-4.389 1.996-8.777 3.892-13.166 5.889l-10.772 4.79c.598.3 1.097.6 1.696.998v-8.383c-.2.3-.4.598-.599.998 7.48-3.294 15.061-6.687 22.541-9.98 1.098-.5 2.095-.999 3.192-1.398 1.297-.699.2-2.695-1.097-2.096z" fill="#333"/>
    <path d="M82.087 73.76H67.425V95.02h14.662V73.76z" fill="#DF357F"/>
    <path d="M81.987 93.921H67.325l1.097 1.098V73.76l-1.097 1.098h14.662L80.89 73.76V95.02c0 1.397 2.194 1.497 2.194 0V73.76c0-.598-.499-1.097-1.097-1.097H67.325c-.598 0-1.097.499-1.097 1.097V95.02c0 .599.499 1.098 1.097 1.098h14.662c1.496 0 1.496-2.196 0-2.196z" fill="#333"/>
    <path d="M63.036 72.263h-2.893a1.682 1.682 0 0 1-1.695-1.696v-2.895c0-.898.698-1.696 1.695-1.696h2.893c.898 0 1.695.698 1.695 1.696v2.895c-.1.998-.797 1.696-1.695 1.696z" fill="#F0D227"/>
    <path d="M63.036 70.766H60.043h.1c-.199 0 .1 0 .1.1 0 0-.1-.1-.2-.1-.199-.1.3.3.1.1l-.1-.1.1.1s-.1-.1-.1-.2c-.099-.1.1.4 0 .1v-.1.2V67.672v.2-.2c0-.2 0 .1-.099.1 0 0 .1-.1.1-.2.1-.199-.3.3-.1.1l.1-.1-.1.1s.1-.1.2-.1c.1-.1-.4.1-.1 0h-.1 3.192c-.3 0 0 0 0 0 .2 0 0 .1-.1-.1l.1.1c.2.1-.2-.199-.1-.1l.1.1c.1.1-.1.1-.1-.1l.1.2c-.2-.2-.1-.299-.1-.1 0 .1 0 .3 0 0V70.568c0 .2.1-.4 0-.1 0 .2-.1.1.1-.1 0 .2-.1.4-.1.4.1 0 .3-.3.2-.1-.1 0-.2.1-.2.1.2-.2.2-.1.1 0h-.1.2c-.1-.1-.2 0-.2 0h.2-.2c-.798 0-1.496.698-1.496 1.496 0 .799.698 1.498 1.496 1.498 1.795 0 3.092-1.398 3.192-3.194v-2.795c0-.798-.3-1.597-.898-2.196a3.093 3.093 0 0 0-2.194-.898H60.343c-1.696 0-3.092 1.298-3.192 3.094v1.896c0 .899-.1 1.897.4 2.695.598.899 1.495 1.497 2.592 1.497h2.993c.798 0 1.496-.698 1.496-1.497-.2-.898-.798-1.597-1.596-1.597z" fill="#333"/>
    <path d="M88.869 72.263h-2.893a1.682 1.682 0 0 1-1.695-1.696v-2.895c0-.898.698-1.696 1.695-1.696h2.893c.897 0 1.695.698 1.695 1.696v2.895c-.1.998-.797 1.696-1.695 1.696z" fill="#F0D227"/>
    <path d="M88.869 70.766H85.876h.1c-.199 0 .1 0 .1.1 0 0-.1-.1-.2-.1-.199-.1.3.3.1.1l-.1-.1.1.1s-.1-.1-.1-.2c-.099-.1.1.4 0 .1v-.1.2V67.672v.2-.2c0-.2 0 .1-.099.1 0 0 .1-.1.1-.2.1-.199-.3.3-.1.1l.1-.1-.1.1s.1-.1.2-.1c.1-.1-.4.1-.1 0h-.1 3.192c-.3 0 0 0 0 0 .2 0 0 .1-.1-.1l.1.1c.2.1-.2-.199-.1-.1l.1.1c.1.1-.1.1-.1-.1l.1.2c-.2-.2-.1-.299-.1-.1 0 .1 0 .3 0 0V70.568c0 .2.1-.4 0-.1 0 .2-.1.1.1-.1 0 .2-.1.4-.1.4.1 0 .3-.3.2-.1-.1 0-.2.1-.2.1.2-.2.2-.1.1 0h-.1.2c-.1-.1-.2 0-.2 0h.2-.2c-.798 0-1.496.698-1.496 1.496 0 .799.698 1.498 1.496 1.498 1.795 0 3.092-1.398 3.192-3.194v-2.795c0-.798-.3-1.597-.898-2.196a3.093 3.093 0 0 0-2.194-.898h-2.793c-1.696 0-3.092 1.298-3.192 3.094v1.896c0 .899-.1 1.897.4 2.695.598.899 1.495 1.497 2.592 1.497h2.993c.798 0 1.496-.698 1.496-1.497-.2-.898-.798-1.597-1.596-1.597z" fill="#333"/>
    <path d="M105.825 47.412c-1.197 1.497-3.491 2.295-5.386 2.595 1.795.1 3.79.399 4.887 1.796.499.699.798 1.497 1.097 2.296a91.606 91.606 0 0 1 1.297 4.99c.299-1.497.798-2.994 1.197-4.392.199-.598.399-1.097.698-1.596 1.197-1.597 3.491-1.697 5.486-1.697a47.842 47.842 0 0 1-2.893-1.896c-.598-.4-1.196-.799-1.695-1.398-1.796-1.896-2.095-4.79-2.195-7.385-.099.1-.897 4.79-2.493 6.687z" fill="#F0D227"/>
    <path d="M105.027 46.613c-1.197 1.397-3.092 1.996-4.887 2.296-1.297.2-.898 2.096.299 2.195 1.696.1 3.691.4 4.488 2.096.898 1.897 1.197 4.192 1.696 6.188.2 1.098 1.895 1.098 2.194 0 .2-.998.499-2.096.798-3.094.3-.898.499-1.996 1.097-2.694.998-1.198 2.993-1.098 4.389-1.098 1.097 0 1.496-1.497.599-2.096-1.796-1.098-4.09-2.196-5.087-4.092-.998-1.697-1.097-3.693-1.197-5.59-.1-1.197-1.995-1.596-2.194-.299-.399 2.096-.898 4.591-2.195 6.188-.399.5-.498 1.098 0 1.597.399.4 1.197.499 1.596 0 1.496-1.996 2.294-4.69 2.693-7.086-.698-.1-1.496-.2-2.194-.3.1 2.296.299 4.691 1.496 6.787 1.297 2.296 3.79 3.593 5.984 4.89l.599-2.095c-1.995 0-4.289.1-5.785 1.597-.798.798-1.197 1.796-1.496 2.894-.399 1.297-.798 2.695-1.097 4.092h2.194c-.299-1.297-.599-2.695-.998-3.992-.299-1.198-.598-2.495-1.396-3.493-1.396-1.897-3.79-2.296-5.984-2.496.099.7.199 1.497.299 2.196 2.194-.399 4.488-1.197 5.885-2.894.698-1.198-.898-2.795-1.796-1.697z" fill="#333"/>
    <path d="M48.973 98.313c5.563 0 10.074-4.514 10.074-10.08 0-5.568-4.51-10.081-10.074-10.081s-10.074 4.513-10.074 10.08 4.51 10.08 10.074 10.08z" fill="#fff"/>
    <path d="M57.95 88.233c-.1 3.692-2.294 7.086-5.885 8.383-3.59 1.298-7.58.2-9.974-2.794-2.394-2.895-2.594-7.087-.699-10.18 1.896-3.194 5.686-4.891 9.276-4.192 4.19.798 7.182 4.49 7.282 8.782 0 1.398 2.294 1.498 2.194 0-.1-4.69-2.893-8.782-7.281-10.48-4.389-1.696-9.575-.299-12.468 3.394-2.992 3.593-3.391 8.783-.997 12.875 2.393 3.992 7.081 6.088 11.67 5.29 5.286-.898 8.976-5.689 9.076-10.979.1-1.597-2.194-1.597-2.194-.1z" fill="#333"/>
    <path d="M48.175 93.522c-.1 0-.2 0-.2-.1-.1-.1-.1-.2-.1-.299v-.898c-.697-.1-1.296-.3-1.695-.6-.499-.299-.798-.598-.997-.997-.2-.4-.3-.799-.4-1.198 0-.1 0-.1.1-.2s.1-.1.2-.1h2.493c.1 0 .2 0 .3.1.1 0 .2.1.2.2.099.1.199.1.298.2.1.1.2.1.3.1h.399c.299 0 .498 0 .698-.1.2-.1.299-.2.299-.3 0-.1 0-.2-.1-.299-.1-.1-.299-.1-.498-.2-.2-.1-.599-.1-.998-.2-.698-.1-1.296-.299-1.795-.498a2.723 2.723 0 0 1-1.197-.898c-.3-.4-.4-.899-.4-1.398 0-.699.3-1.397.799-1.896.498-.5 1.197-.799 2.094-.998v-.898c0-.1 0-.2.1-.2.1-.1.2-.1.2-.1h1.596c.1 0 .199 0 .199.1.1.1.1.2.1.2v.898c.598.1 1.097.3 1.496.599s.698.599.997.898c.2.3.3.698.3.998 0 .1 0 .1-.1.2s-.1.1-.2.1H50.07c-.1 0-.2 0-.3-.1-.099 0-.099-.1-.199-.2 0 0-.1-.1-.2-.1-.099-.1-.299-.1-.398-.1-.2 0-.4 0-.499.1-.1.1-.1.2-.1.3 0 .1 0 .2.1.2.1.099.2.099.4.199.199.1.498.1.897.2.897.1 1.596.299 2.094.498.499.2.898.5 1.097.899.2.399.4.898.4 1.397s-.1.998-.4 1.397c-.299.4-.598.699-1.097.998-.498.3-.997.4-1.695.6v.897c0 .1 0 .2-.1.2-.1.1-.2.1-.2.1h-1.695v.3z" fill="#DF357F"/>
    <path d="M105.227 32.936H48.773c-9.076 0-16.457-7.386-16.457-16.468S39.696 0 48.773 0h56.454c9.076 0 16.457 7.386 16.457 16.468s-7.381 16.468-16.457 16.468z" fill="#F0D227"/>
    <path d="M63.036 17.167c.2-.3.4-.5.698-.6.1-.099.3-.099.4-.099.199 0 .299 0 .498.1l.4.2c.298.1.498.299.598.598 0 .1.1.2.1.3 0 .2-.1.3-.2.499-.698 1.098-1.596 2.195-2.593 3.194-.1.1-.1.2-.1.299.399 1.198.798 1.796 1.197 1.796.299 0 .498-.698.598-2.096 0-.2.1-.399.4-.498.199-.1.398-.1.598.1.2.1.299.299.498.398.3.2.499.4.698.7.1.199.2.398.2.698v.3c-.2 1.297-.599 2.195-1.097 2.594-.499.5-1.197.699-2.095.699-1.296 0-2.394-.898-3.291-2.695 0-.1-.1-.1-.2-.1-.698.5-1.496 1.098-2.294 1.497-.2.1-.399.2-.598.2h-.3c-.299-.1-.598-.2-.797-.5-.2-.199-.3-.398-.499-.598.1 0 0-.2 0-.4v-.199c.1-.3.2-.499.399-.599a34.397 34.397 0 0 0 3.192-1.996c.1-.1.1-.1.1-.2-.4-1.397-.699-3.093-.898-4.79 0-.1-.1-.2-.2-.2h-3.49c-.1 0-.1.1-.1.2v1.497c0 .1 0 .1.1.1l1.595-.3h.2c.2 0 .399.1.598.2.2.2.4.4.4.799v.399c0 .3-.1.499-.3.798-.2.3-.499.4-.798.5-.997.199-1.596.299-1.795.398-.1 0-.1.1-.1.2v2.695c0 .798-.1 1.397-.3 1.796-.199.4-.498.699-.897.998-.599.3-1.496.5-2.593.5h-.1c-.3 0-.599-.1-.798-.3-.3-.2-.399-.499-.499-.798-.1-.2-.2-.5-.299-.799 0-.1-.1-.2-.1-.3 0-.1 0-.299.1-.399.1-.2.3-.299.599-.299h1.396c.2 0 .3 0 .399-.1.1-.1.1-.2.1-.3V20.96c0-.1 0-.1-.1-.1l-1.995.4h-.2c-.199 0-.498-.1-.698-.2-.299-.2-.399-.4-.498-.699l-.2-.698v-.3c0-.2.1-.399.2-.598.2-.3.399-.4.698-.4.997-.1 1.895-.3 2.693-.399.1 0 .1-.1.1-.2V15.87c0-.1 0-.2-.1-.2h-2.194c-.3 0-.599-.1-.798-.299-.2-.2-.3-.499-.3-.798v-.4c0-.299.1-.598.3-.798.2-.2.498-.3.798-.3h2.393c.1 0 .1 0 .1-.1v-1.496c0-.1 0-.1-.1-.1-.598.1-1.097.1-1.596.2h-.199c-.3 0-.499-.1-.698-.2-.3-.2-.4-.5-.499-.799 0-.1-.1-.2-.1-.299 0-.1-.1-.2-.1-.3 0-.199 0-.299.1-.399.2-.399.4-.598.699-.598 2.094-.3 4.089-.7 5.785-1.198.199 0 .299-.1.498-.1.2 0 .4 0 .499.1.3.1.598.3.798.599l.499.698c.1.1.2.3.2.5v.299c-.1.3-.3.399-.5.499-.598.1-1.197.3-1.994.4-.1 0-.1.099-.1.199v1.996c0 .1 0 .1.1.1h3.191c.1 0 .1 0 .1-.1-.1-1.697-.2-3.094-.2-4.092 0-.3.1-.6.3-.799.2-.2.498-.3.798-.3h.698c.3 0 .598.1.798.3.2.2.299.5.299.799 0 1.297.1 2.695.2 4.092 0 .1.1.1.199.1h3.99c.299 0 .598.1.797.299.2.2.3.499.3.798v.4c0 .3-.1.599-.3.798-.199.2-.498.3-.797.3h-3.79c-.1 0-.1.1-.1.2.2.997.299 1.796.399 2.395v.1h.1c.299-.4.598-.8.797-1.198zm2.993-6.987c.199.2.199.4.199.6v.199c-.1.3-.2.599-.499.798l-.399.3c-.2.1-.399.2-.598.2h-.2c-.299-.1-.498-.2-.698-.5-.399-.499-.798-.998-1.296-1.497-.2-.2-.3-.4-.3-.699 0-.299.1-.598.4-.798l.199-.2c.2-.2.499-.3.798-.3h.1c.398 0 .598.2.897.4.599.599.998 1.098 1.397 1.497zM87.772 19.363c0 .3-.1.599-.299.799-.2.2-.499.299-.798.299h-2.493c-.1 0-.2 0-.2.1a15.603 15.603 0 0 1-1.296 1.896v.1s0 .1.1.1c1.196.399 2.393.698 3.39.998.3.1.5.3.5.499v.3c0 .199-.1.299-.2.498l-.4.5c-.199.299-.498.498-.797.498-.1 0-.3.1-.4.1-.199 0-.398 0-.498-.1a69.56 69.56 0 0 0-4.289-1.497h-.299c-1.696.799-4.289 1.398-7.78 1.697h-.1c-.299 0-.498-.1-.797-.2-.3-.2-.5-.399-.599-.798-.1-.1-.1-.3-.2-.4-.1-.1-.1-.199-.1-.299 0-.1 0-.2.1-.399.1-.2.3-.3.599-.4 1.895-.1 3.491-.299 4.588-.498l-.798-.2c-.1.1-.1.1-.2.1l-1.595-.5c-.3-.099-.4-.199-.499-.498v-.3c0-.2.1-.299.2-.499l.598-.898v-.1h-2.693c-.3 0-.598-.1-.798-.3-.2-.199-.3-.498-.3-.798 0-.299.1-.598.3-.798.2-.2.499-.3.798-.3h4.09c.1 0 .199 0 .199-.1.1-.199.3-.398.499-.698v-.1h-3.591c-.3 0-.599-.1-.798-.3-.2-.199-.3-.498-.3-.797v-3.594c0-.299.1-.598.3-.798.2-.2.499-.3.798-.3h2.992c.1 0 .2 0 .2-.1v-.498c0-.1-.1-.2-.2-.2h-3.89c-.299 0-.598-.1-.798-.3-.2-.199-.299-.498-.299-.798v-.3c0-.299.1-.598.3-.798.199-.2.498-.299.797-.299h15.36c.3 0 .599.1.798.3.2.199.3.498.3.798v.2c0 .299-.1.598-.3.798-.2.2-.498.3-.798.3h-3.99c-.099 0-.199.1-.199.199v.499c0 .1.1.1.2.1h3.49c.3 0 .6.1.799.3.2.199.299.498.299.798v3.593c0 .3-.1.598-.3.798-.199.2-.498.3-.797.3h-6.882c-.1 0-.2 0-.2.1l-.399.698v.1h8.578c.3 0 .598.1.798.3 0 .498.2.798.2 1.097zM73.41 13.574c-.1 0-.1 0-.1.1v1.098c0 .1 0 .2.1.2h1.296c.1 0 .2-.1.2-.2v-1.098c0-.1-.1-.1-.2-.1H73.41zm3.291 6.987c-.1 0-.2 0-.2.1l-.299.299c-.1.1 0 .1.1.2.798.2 1.795.399 2.892.698.1 0 .2 0 .3-.1.399-.299.798-.698 1.097-1.098v-.1H76.7zm.997-9.98c-.1 0-.1.099-.1.199v.499c0 .1 0 .1.1.1h1.397c.1 0 .2 0 .2-.1v-.5c0-.1-.1-.199-.2-.199h-1.397zm-.2 4.29c0 .1 0 .2.1.2h1.397c.1 0 .2-.1.2-.2v-1.097c0-.1-.1-.1-.2-.1H77.6c-.1 0-.1 0-.1.1v1.098zm6.285-1.097c0-.1 0-.1-.1-.1h-1.596c-.1 0-.2 0-.2.1v1.098c0 .1.1.2.2.2h1.596c.1-.1.1-.1.1-.2v-1.098zM101.137 24.153c-.399.4-.997.6-1.695.6-.699 0-1.197-.2-1.696-.6-.499-.399-.698-.898-.698-1.597 0-.599.2-1.098.698-1.597.399-.399.997-.598 1.696-.598.698 0 1.197.2 1.695.598.399.4.698.899.698 1.597 0 .6-.199 1.098-.698 1.597zm-1.795-4.99c-.3 0-.599-.1-.898-.3-.2-.2-.399-.498-.399-.798l-.698-5.19-.1-2.196c0-.299.1-.598.3-.798.199-.2.498-.3.797-.3h2.095c.299 0 .598.1.798.3.199.2.299.499.299.798l-.1 2.196-.698 5.19c0 .3-.199.599-.399.798-.199.2-.498.3-.897.3h-.1z" fill="#333"/>
</svg>
