<svg width="682" height="407" fill="none" xmlns="http://www.w3.org/2000/svg">
    <path d="M677.005 15H0V0h677.005L682 7.549 677.005 15zM677.005 407H0v-15h677.005l4.995 7.5-4.995 7.5z" fill="#E5DCD8"/>
    <path d="M119.235 158.404H56.517v15.284h62.718v-15.284zM119.235 277.678H56.517v15.284h62.718v-15.284z" fill="#F0D227"/>
    <path d="M71.794 293V166.035H56.49V293h15.304z" fill="#F0D227"/>
    <path d="M71.75 237.115v-71.124H56.446v71.124H71.75zM284.583 158.404h-87.425v15.284h87.425v-15.284zM331.397 68H238.47v15.284h92.927V68zM647.79 83.284H417.123V68H647.79l5.002 7.692-5.002 7.592z" fill="#F0D227"/>
    <path d="M56.717 233.824H0v-15.283h56.717l5.001 7.591-5.001 7.692zM676.799 292.962H211.062v-15.284h465.737l5.001 7.592-5.001 7.692zM676.999 137.826H612.18v-15.284h64.819l5.001 7.692-5.001 7.592zM676.999 215.443H612.18V200.16h64.819l5.001 7.592-5.001 7.691z" fill="#F0D227"/>
    <path d="M642.588 125.239V68h15.305v57.239l-7.602 4.995-7.703-4.995zM460.635 158.404h-43.512v15.284h43.512v-15.284z" fill="#F0D227"/>
    <path d="M470.719 215.367v-96.298h-15.304v96.298h15.304z" fill="#F0D227"/>
    <path d="M510.75 118.347h-55.316v15.283h55.316v-15.283zM510.75 200.16h-55.316v15.283h55.316V200.16zM331.397 158.404H238.47v15.284h92.927v-15.284z" fill="#F0D227"/>
    <path d="M253.84 173.696V68.008h-15.305v105.688h15.305z" fill="#F0D227"/>
    <path d="M180.925 194.734h-63.251c-17.63 0-31.874-13.406-31.874-30s14.244-30 31.874-30h63.251c17.631 0 31.875 13.406 31.875 30s-14.244 30-31.875 30z" fill="#F6F2EF"/>
    <path d="M127.76 165.725h-17.403v-1.768h17.403v1.768zm19.804-6.563c-.481 2.917-1.302 5.251-2.46 7.002l-1.524-.801c.814-1.289 1.413-2.77 1.797-4.443h-6.318c-.827 1.712-1.674 3.04-2.539 3.984l-1.377-1.064c1.614-1.817 2.867-4.284 3.759-7.402l1.758.302a33.37 33.37 0 0 1-.84 2.422h7.744zm-11.181 1.641h-5.567v-1.739h5.567v1.739zm11.553 11.875-1.114 1.523c-2.871-1.738-4.817-3.9-5.84-6.484-1.009 2.695-3.089 4.844-6.24 6.445l-1.26-1.357c2.598-1.394 4.343-2.78 5.235-4.16.892-1.387 1.338-3.246 1.338-5.577 0-.39-.013-.807-.039-1.25h1.767c-.019.365-.029.713-.029 1.045 0 1.634.215 3.015.644 4.141.437 1.12 1.198 2.21 2.286 3.271 1.087 1.062 2.171 1.862 3.252 2.403zm-11.075-4.619h-6.484v-1.758h6.484v1.758zm27.598-10.957-.723 1.201c-.553-.241-1.344-.489-2.373-.742l.616-1.241c1.054.248 1.881.508 2.48.782zm-7.344.136a19.83 19.83 0 0 1-2.099 1.758v3.682h-1.778v-2.539c-.638.338-1.351.7-2.138 1.084l-.938-1.485c2.344-1.041 4.144-2.174 5.4-3.398l1.553.898zm10.684 3.985c-.222 1.028-.528 1.738-.918 2.129-.391.384-.775.576-1.152.576a.985.985 0 0 1-.245-.03v7.422h-8.847l1.025.996c-1.907.886-4.121 1.501-6.641 1.846l-.781-1.601a21.968 21.968 0 0 0 5.459-1.241h-2.92v-8.056h10.479c-1.485-.788-2.643-1.784-3.477-2.989l-3.74.303-.156-1.514 3.056-.205a13.54 13.54 0 0 1-.82-2.158l1.758-.283c.338 1.035.651 1.797.937 2.285l5.801-.42.127 1.514-4.844.342a7.255 7.255 0 0 0 1.993 1.543c.768.403 1.25.605 1.445.605.241 0 .452-.244.635-.732.182-.495.293-.899.332-1.211l1.494.879zm-4.121 4.336v-.86h-9.082v.86h9.082zm0 2.158v-.938h-9.082v.938h9.082zm0 2.168v-.928h-9.082v.928h9.082zm4.365 2.773-.781 1.543c-1.914-.547-3.981-.941-6.201-1.181l.8-1.524c2.383.319 4.444.706 6.182 1.162zm20.039-.82-.547 1.719c-1.282.045-2.672.068-4.17.068-2.233 0-3.808-.059-4.726-.176a7.315 7.315 0 0 1-2.569-.801 5.51 5.51 0 0 1-1.992-1.787c-.683 1.127-1.569 2.227-2.656 3.301l-1.338-1.338c2.194-1.979 3.564-4.606 4.111-7.881l1.807.274c-.293 1.549-.667 2.884-1.123 4.004.788 1.393 1.976 2.207 3.564 2.441v-7.9h-6.005v-6.7h13.242v6.7h-5.42v2.92h6.621v1.699h-6.621v3.476a112.485 112.485 0 0 0 7.822-.019zm-4.199-9.776v-3.339h-9.6v3.339h9.6z" fill="#333"/>
    <path d="M180.125 314h-63.25C99.244 314 85 300.594 85 284s14.244-30 31.875-30h63.25C197.756 254 212 267.406 212 284s-14.244 30-31.875 30zM590.223 160h-76.446C496.29 160 482 146.688 482 130.188v-.376C482 113.406 496.19 100 513.777 100h76.446C607.71 100 622 113.312 622 129.812v.376c0 16.5-14.19 29.812-31.777 29.812zM590.223 242h-76.446C496.29 242 482 228.687 482 212.187v-.375C482 195.406 496.19 182 513.777 182h76.446C607.71 182 622 195.312 622 211.812v.375c0 16.5-14.19 29.813-31.777 29.813zM392.749 106h-87.498C287.434 106 273 93.554 273 78.189V73.81C273 58.446 287.434 46 305.251 46h87.498C410.566 46 425 58.446 425 73.811v4.378C425 93.554 410.566 106 392.749 106zM395.042 194.834h-90.284c-17.022 0-30.858-13.052-30.858-29.108v-1.784c0-16.056 13.836-29.108 30.858-29.108h90.284c17.022 0 30.858 13.052 30.858 29.108v1.784c0 16.056-13.836 29.108-30.858 29.108z" fill="#F6F2EF"/>
    <path d="M127.76 278.66h-12.139v-1.601h4.941c-.097-.313-.286-.713-.566-1.202l1.768-.419c.234.423.472.963.713 1.621h5.283v1.601zm-12.559 1.856h-1.181v2.968c.195-.091.455-.241.781-.449l.097 1.807a15.29 15.29 0 0 1-.878.478v6.358c0 .293-.101.556-.303.791-.202.241-.42.397-.655.469-.227.078-.664.117-1.308.117-.339 0-.651-.013-.938-.039l-.332-1.739c.339.013.625.02.86.02.468 0 .748-.026.84-.078.091-.052.136-.16.136-.323v-4.697c-.631.326-1.198.593-1.699.801l-.42-1.641c.879-.338 1.585-.657 2.119-.957v-3.886h-2.021v-1.7h2.021v-3.193h1.7v3.193h1.181v1.7zm12.637 11.904h-5.674v.615h-1.582v-8.096a4.968 4.968 0 0 1-.518.665l-.781-1.622a22.147 22.147 0 0 0 2.481-5.039l1.513.362c-.215.651-.42 1.194-.615 1.631h1.494c-.052-.202-.237-.681-.556-1.436l1.435-.498c.313.638.567 1.283.762 1.934h1.767v1.582h-1.962v1.718h1.718v1.543h-1.718v1.7h1.738v1.542h-1.738v1.836h2.236v1.563zM124 284.236v-1.718h-1.836v1.718H124zm0 3.243v-1.7h-1.836v1.7H124zm0 3.378v-1.836h-1.836v1.836H124zm-3.799-10.019c-.989 2.565-2.096 4.626-3.32 6.182a7.948 7.948 0 0 0 1.435-.323c.079-.286.127-.651.147-1.093l1.435.117a8.306 8.306 0 0 1-1.279 4.463c-.846 1.367-1.999 2.353-3.457 2.959l-.84-1.387c1.849-.833 3.028-1.979 3.535-3.438-1.171.254-2.05.427-2.636.518l-.362-1.436c.788-.683 1.514-1.637 2.178-2.861l-1.514.186-.283-1.241c.697-.787 1.296-2.288 1.797-4.502l1.445.274c-.442 1.504-.95 2.773-1.523 3.808.299-.026.573-.068.82-.126.3-.586.632-1.426.996-2.52l1.426.42zm27.578-1.699h-9.717c-.26.527-.608 1.1-1.044 1.718h9.384v10.723c0 .443-.12.785-.361 1.025-.234.241-.592.368-1.074.381-.482.013-.957.02-1.426.02-.749 0-1.364-.01-1.846-.029l-.771-1.778c.846.039 1.93.059 3.252.059.28 0 .42-.153.42-.459v-1.836h-8.916c-.339 1.413-1.032 2.757-2.08 4.033l-1.7-.957c1.439-1.575 2.159-3.05 2.159-4.424v-3.213c-.886.925-1.758 1.664-2.618 2.217l-1.279-1.357a19.033 19.033 0 0 0 5.781-6.123h-5.566V277.4h6.504c.423-.748.729-1.409.918-1.982l1.846.303c-.17.508-.404 1.067-.704 1.679h8.838v1.739zm-3.183 5v-1.582h-8.711v1.582h8.711zm0 3.183v-1.562h-8.711v1.562h8.711zm22.744-7.207h-4.902v-4.336h4.902v4.336zm-1.563-1.396v-1.524h-1.797v1.524h1.797zm-4.414 1.396h-4.883v-4.336h4.883v4.336zm-1.504-1.396v-1.524h-1.836v1.524h1.836zm-4.375 2.978h-2.841l-.166 2.842h2.841c-.032 4.29-.205 6.768-.517 7.432-.313.664-1.234.996-2.764.996-.267 0-.651-.01-1.152-.029l-.528-1.7c1.622 0 2.484-.016 2.588-.049a.558.558 0 0 0 .264-.214c.078-.111.146-.583.205-1.416.065-.84.114-1.954.147-3.34h-2.92l.4-6.143h2.734v-2.597h-3.379v-1.661h5.088v5.879zm12.354 8.741h-5.059v2.48h-1.64v-2.48h-5.176v-1.475h5.176v-1.084h-4.16v-6.875h9.941v6.875h-4.141v1.084h5.059v1.475zm-2.559-6.7v-1.318h-2.5v1.318h2.5zm-4.14 0v-1.299h-2.442v1.299h2.442zm4.14 2.705v-1.347h-2.5v1.347h2.5zm-4.14 0v-1.347h-2.442v1.347h2.442zm15.4-5.088-1.055 1.387c-.241-.41-.52-.823-.839-1.24v11.562h-1.729l-.059-17.48.039-.02 1.719.02v3.691a16.457 16.457 0 0 1 1.924 2.08zm11.24 11.29h-11.455v-1.709h5.078v-4.2h-4.14v-1.679h4.14v-3.672h-2.422c-.54 1.321-1.048 2.327-1.523 3.017l-1.602-.8c1.153-1.765 2.015-4.011 2.588-6.739l1.7.274c-.098.618-.293 1.458-.586 2.519h1.845v-4.052h1.778v4.052h4.101v1.699h-4.101v3.702h3.662v1.679h-3.662v4.2h4.599v1.709zm-15.42-12.549c-.104 1.842-.325 3.502-.664 4.98l-1.474-.654c.312-1.543.504-3.089.576-4.639l1.562.313zM313.01 72.898h-1.826v-.976h-10.079v.976h-1.816V56.043h13.721v16.855zm-1.826-12.138v-3.018h-10.079v3.018h10.079zm0 4.697V62.4h-10.079v3.057h10.079zm0 4.785v-3.164h-10.079v3.164h10.079zm20.761-14.101c-1.074.638-2.021 1.09-2.841 1.357l-1.836-.84a23.311 23.311 0 0 0 2.822-1.416l1.855.899zm-6.982.517-1.836.84c-.794-.469-1.768-.915-2.92-1.338l1.855-.898c1.081.37 2.048.836 2.901 1.396zm9.961 2.744h-17.403v-1.66h17.403v1.66zm-1.416 11.416c0 .834-.192 1.387-.576 1.66-.384.28-1.097.42-2.139.42-.41 0-.846-.013-1.309-.039l-.556-1.718h2.5c.091 0 .176-.053.254-.157a.51.51 0 0 0 .127-.322V60.496h1.699v10.322zm-7.403.225c0 .514-.11.905-.332 1.172a1.478 1.478 0 0 1-.791.537c-.306.091-.849.137-1.63.137-.391 0-.739-.01-1.045-.03l-.625-1.718c.286.032.595.048.927.048.762 0 1.26-.026 1.495-.078.24-.052.361-.189.361-.41V68.68h-3.838c-.3 1.836-.898 3.268-1.797 4.297l-1.465-.938c1.185-1.191 1.778-3.278 1.778-6.26v-5.117h6.962v10.381zm-1.64-7.139v-1.64h-3.643v1.64h3.643zm0 3.252v-1.699h-3.643v1.7h3.643zm5.4 2.422h-1.738v-8.643h1.738v8.643zm25.02-1.601h-17.383v-1.621h2.549V63.66h-2.188v-1.62h2.188v-2.081a61.07 61.07 0 0 1-1.367 1.143l-1.319-1.377c1.888-1.348 3.308-2.81 4.258-4.385l1.865.517a7.814 7.814 0 0 1-1.064 1.563h11.924v1.66H340.93c-.176.202-.45.475-.821.82h1.719v2.14h1.856V59.9h1.699v2.14h1.982V59.9h1.68v2.14h1.982V59.9h1.719v2.14h1.777v1.62h-1.777v2.696h2.139v1.62zm-3.858-1.621V63.66h-1.982v2.696h1.982zm-3.662 0V63.66h-1.982v2.696h1.982zm-3.681 0V63.66h-1.856v2.696h1.856zm11.337 6.025-1.757.762a19.098 19.098 0 0 0-2.198-3.985l1.719-.781a20 20 0 0 1 2.236 4.004zm-13.671-3.164c-.638 1.556-1.4 2.903-2.286 4.043l-1.66-1.065c.723-.833 1.472-2.07 2.246-3.71l1.7.732zm8.955 3.203-1.719.683a19.686 19.686 0 0 0-1.621-3.798l1.719-.664c.748 1.465 1.289 2.724 1.621 3.779zm-4.756.156-1.768.528a24.264 24.264 0 0 0-1.093-3.829l1.699-.595c.436 1.022.823 2.32 1.162 3.896zm28.515-15.879c-3.958.853-7.806 1.28-11.543 1.28h-1.63v.986h12.89v4.316h-12.89c-.124 4.154-.957 7.4-2.5 9.737l-1.162-1.534c1.25-2.063 1.875-4.918 1.875-8.564v-6.494h3.642c3.796 0 7.243-.374 10.342-1.123l.976 1.396zm-2.08 5.059v-1.319h-11.093v1.319h11.093zm2.823 4.746h-8.399l-.185 1.24h7.666c-.065 1.211-.196 2.243-.391 3.096-.189.846-.511 1.4-.967 1.66-.455.26-1.256.39-2.402.39-.501 0-1.175-.016-2.022-.048l-.537-1.68c.769.052 1.553.078 2.354.078.69 0 1.12-.01 1.289-.029.176-.02.329-.14.459-.361.13-.222.215-.765.254-1.631h-6.065c-.911 1.83-2.522 3.118-4.834 3.867l-1.045-1.523c3.067-.866 4.594-2.553 4.58-5.059h-3.115v-1.504h5.44a6.207 6.207 0 0 0-.664-.977l1.923-.42c.254.346.515.811.782 1.397h5.879v1.504zm16.738-10.4-.723 1.2c-.553-.24-1.344-.487-2.373-.742l.615-1.24c1.055.248 1.882.508 2.481.782zm-7.344.136a19.841 19.841 0 0 1-2.099 1.758v3.682h-1.778v-2.54c-.638.34-1.351.7-2.138 1.085l-.938-1.485c2.344-1.041 4.144-2.174 5.4-3.398l1.553.898zm10.684 3.985c-.222 1.028-.528 1.738-.918 2.129-.391.384-.775.576-1.153.576-.084 0-.166-.01-.244-.03v7.422h-8.847l1.025.996c-1.908.886-4.121 1.501-6.641 1.846l-.781-1.602a21.948 21.948 0 0 0 5.459-1.24h-2.92v-8.056h10.479c-1.485-.788-2.643-1.784-3.477-2.989l-3.74.303-.156-1.514 3.056-.205a13.57 13.57 0 0 1-.82-2.158l1.758-.283c.338 1.035.651 1.797.937 2.285l5.801-.42.127 1.514-4.844.342a7.247 7.247 0 0 0 1.993 1.543c.768.403 1.25.605 1.445.605.241 0 .452-.244.635-.732.182-.495.293-.899.332-1.211l1.494.879zm-4.121 4.336v-.86h-9.082v.86h9.082zm0 2.158v-.938h-9.082v.938h9.082zm0 2.168v-.928h-9.082v.928h9.082zm4.365 2.773-.781 1.543c-1.914-.547-3.981-.94-6.202-1.181l.801-1.524c2.383.32 4.444.707 6.182 1.162zm9.971-14.785-7.295 17.637h-2.09l7.275-17.637h2.11zm-86.621 23.824c-3.959.853-7.806 1.28-11.543 1.28h-1.631v.986h12.89v4.316h-12.89c-.124 4.154-.957 7.4-2.5 9.737l-1.162-1.534c1.25-2.063 1.875-4.918 1.875-8.564v-6.494h3.642c3.796 0 7.243-.375 10.342-1.123l.977 1.396zm-2.081 5.059v-1.319h-11.093v1.319h11.093zm2.823 4.746h-8.399l-.185 1.24h7.666c-.065 1.211-.196 2.243-.391 3.096-.189.846-.511 1.4-.967 1.66-.455.26-1.256.39-2.402.39-.501 0-1.175-.016-2.022-.048l-.537-1.68c.769.052 1.553.078 2.354.078.69 0 1.12-.01 1.289-.029.176-.02.329-.14.459-.361.13-.222.215-.765.254-1.631h-6.065c-.911 1.83-2.522 3.118-4.834 3.867l-1.045-1.523c3.067-.866 4.594-2.553 4.581-5.059h-3.116v-1.504h5.44a6.207 6.207 0 0 0-.664-.977l1.924-.42c.253.346.514.811.781 1.397h5.879v1.504zm16.738-10.4-.723 1.2c-.553-.24-1.344-.488-2.373-.742l.616-1.24c1.054.248 1.881.508 2.48.782zm-7.344.136a19.841 19.841 0 0 1-2.099 1.758v3.682h-1.778v-2.54c-.638.34-1.351.7-2.138 1.085l-.938-1.485c2.344-1.041 4.144-2.174 5.4-3.398l1.553.898zm10.684 3.985c-.222 1.028-.528 1.738-.918 2.129-.391.384-.775.576-1.152.576-.085 0-.167-.01-.245-.03v7.422h-8.847l1.025.996c-1.907.886-4.121 1.501-6.641 1.846l-.781-1.602a21.948 21.948 0 0 0 5.459-1.24h-2.92v-8.056h10.479c-1.485-.788-2.643-1.784-3.477-2.989l-3.74.303-.156-1.514 3.056-.205a13.57 13.57 0 0 1-.82-2.158l1.758-.283c.338 1.035.651 1.797.937 2.285l5.801-.42.127 1.514-4.844.342a7.247 7.247 0 0 0 1.993 1.543c.768.403 1.25.605 1.445.605.241 0 .452-.244.635-.732.182-.495.293-.899.332-1.211l1.494.879zm-4.121 4.336v-.86h-9.082v.86h9.082zm0 2.158v-.938h-9.082v.938h9.082zm0 2.168v-.928h-9.082v.928h9.082zm4.365 2.773-.781 1.543c-1.914-.547-3.981-.94-6.201-1.181l.8-1.524c2.383.32 4.444.707 6.182 1.162zm19.756.684h-12.656v.693h-1.807v-7.773c-.697.696-1.328 1.25-1.895 1.66l-1.22-1.465c2.103-1.55 3.763-3.33 4.98-5.342h-4.365v-1.718h5.342c.377-.736.791-1.729 1.24-2.979l1.758.459a31.998 31.998 0 0 1-.977 2.52h9.317v1.718h-10.235a28.587 28.587 0 0 1-2.138 3.184v7.304h5.078v-4.667h-4.063v-1.7h4.063v-3.193h1.855v3.193h4.365v1.7h-4.365v4.667h5.723v1.739zm20.166-9.541-1.543 1.24a19.163 19.163 0 0 0-1.24-1.758c-5.144.606-9.909.97-14.297 1.094l-.42-1.68c1.914-.618 3.991-2.724 6.23-6.318l2.022.4a27.073 27.073 0 0 1-4.737 5.743c2.611-.098 5.905-.359 9.883-.782-.827-.911-1.829-1.846-3.008-2.802l1.543-1.182c2.39 2.07 4.245 4.085 5.567 6.045zm-1.768 10.195h-1.816v-.898h-10.518v.898h-1.826v-8.271h14.16v8.271zm-1.816-2.637v-3.896h-10.518v3.896h10.518zm15.195-4.003h-3.74v6.68h-1.758v-6.68h-3.682v-1.66h3.682v-1.573h-3.476v-1.602h1.962a19.648 19.648 0 0 0-.839-2.285l1.191-.615h-2.275V81.02h3.203a5.444 5.444 0 0 0-.606-1.22l1.905-.42c.351.683.599 1.23.742 1.64h3.359v1.602h-2.168l1.24.684c-.312.8-.651 1.54-1.015 2.216h1.963v1.602h-3.428v1.572h3.74v1.66zm-2.939-7.735h-3.252c.442.99.794 1.957 1.054 2.9h1.065a17.7 17.7 0 0 0 1.133-2.9zm11.142 4.6h-1.816v9.775h-1.738v-9.775h-2.022c-.039 4.557-.801 7.822-2.285 9.795l-1.455-1.192c1.302-1.751 1.953-4.433 1.953-8.047v-6.855c2.233-.306 4.115-.8 5.645-1.484l1.22 1.484c-1.452.631-3.144 1.136-5.078 1.514v3.066h5.576v1.719zm-8.554 6.318-1.446.82A13.67 13.67 0 0 0 388 91.361l1.484-.683c.606 1.041 1.019 1.995 1.241 2.861zm-5.606-1.924c-.638 1.732-1.286 3.067-1.943 4.004l-1.436-1.084c.69-.983 1.302-2.2 1.836-3.652l1.543.732zM316.924 162.898h-1.826v-.976H305.02v.976h-1.817v-16.855h13.721v16.855zm-1.826-12.138v-3.018H305.02v3.018h10.078zm0 4.697V152.4H305.02v3.057h10.078zm0 4.785v-3.164H305.02v3.164h10.078zm20.761-14.101c-1.074.638-2.021 1.09-2.841 1.357l-1.836-.84a23.399 23.399 0 0 0 2.822-1.416l1.855.899zm-6.982.517-1.836.84c-.794-.469-1.768-.915-2.92-1.338l1.856-.898c1.08.371 2.047.836 2.9 1.396zm9.961 2.744h-17.402v-1.66h17.402v1.66zm-1.416 11.416c0 .834-.192 1.387-.576 1.661-.384.279-1.097.419-2.139.419-.41 0-.846-.013-1.309-.039l-.556-1.718h2.5c.091 0 .176-.052.254-.157a.509.509 0 0 0 .127-.322v-10.166h1.699v10.322zm-7.402.225c0 .514-.111.905-.332 1.172a1.488 1.488 0 0 1-.792.537c-.306.091-.849.137-1.63.137-.391 0-.739-.01-1.045-.03l-.625-1.718c.286.032.595.048.927.048.762 0 1.26-.026 1.495-.078.24-.052.361-.188.361-.41v-2.021h-3.838c-.299 1.836-.898 3.268-1.797 4.297l-1.465-.938c1.185-1.191 1.778-3.278 1.778-6.26v-5.117h6.963v10.381zm-1.641-7.139v-1.64h-3.643v1.64h3.643zm0 3.252v-1.699h-3.643v1.699h3.643zm5.4 2.422h-1.738v-8.642h1.738v8.642zm25-10.439h-9.717c-.26.527-.608 1.1-1.044 1.718h9.384v10.723c0 .443-.12.785-.361 1.025-.234.241-.592.368-1.074.381-.482.013-.957.02-1.426.02-.749 0-1.364-.01-1.846-.029l-.771-1.778c.846.039 1.93.059 3.252.059.28 0 .42-.153.42-.459v-1.836h-8.916c-.339 1.413-1.032 2.757-2.08 4.033l-1.7-.957c1.439-1.575 2.159-3.05 2.159-4.424v-3.213c-.886.925-1.758 1.664-2.618 2.217l-1.279-1.357a19.033 19.033 0 0 0 5.781-6.123h-5.566V147.4h6.504c.423-.748.729-1.409.918-1.982l1.846.303c-.17.508-.404 1.067-.704 1.679h8.838v1.739zm-3.183 5v-1.582h-8.711v1.582h8.711zm0 3.183v-1.562h-8.711v1.562h8.711zm22.383-10.625c-3.959.853-7.806 1.28-11.543 1.28h-1.631v.986h12.89v4.316h-12.89c-.124 4.154-.957 7.399-2.5 9.737l-1.162-1.534c1.25-2.063 1.875-4.918 1.875-8.564v-6.494h3.642c3.796 0 7.243-.375 10.342-1.123l.977 1.396zm-2.081 5.059v-1.318h-11.093v1.318h11.093zm2.823 4.746h-8.399l-.185 1.24h7.666c-.065 1.211-.196 2.243-.391 3.096-.189.846-.511 1.4-.967 1.66-.455.26-1.256.391-2.402.391a56.81 56.81 0 0 1-2.022-.049l-.537-1.68c.769.052 1.553.078 2.354.078.69 0 1.12-.009 1.289-.029.176-.02.329-.14.459-.361.13-.222.215-.765.254-1.631h-6.065c-.911 1.829-2.522 3.118-4.834 3.867l-1.045-1.523c3.067-.866 4.594-2.553 4.581-5.059h-3.116v-1.504h5.44a6.251 6.251 0 0 0-.664-.977l1.924-.419c.253.345.514.81.781 1.396h5.879v1.504zm16.738-10.4-.723 1.201c-.553-.241-1.344-.489-2.373-.742l.616-1.241c1.054.248 1.881.508 2.48.782zm-7.344.136a19.83 19.83 0 0 1-2.099 1.758v3.682h-1.778v-2.539c-.638.338-1.351.7-2.138 1.084l-.938-1.485c2.344-1.041 4.144-2.174 5.4-3.398l1.553.898zm10.684 3.985c-.222 1.028-.528 1.738-.918 2.129-.391.384-.775.576-1.152.576a.985.985 0 0 1-.245-.03v7.422h-8.847l1.025.996c-1.907.886-4.121 1.501-6.641 1.846l-.781-1.601a21.968 21.968 0 0 0 5.459-1.241h-2.92v-8.056h10.479c-1.485-.788-2.643-1.784-3.477-2.989l-3.74.303-.156-1.514 3.056-.205a13.54 13.54 0 0 1-.82-2.158l1.758-.283c.338 1.035.651 1.797.937 2.285l5.801-.42.127 1.514-4.844.342a7.255 7.255 0 0 0 1.993 1.543c.768.403 1.25.605 1.445.605.241 0 .452-.244.635-.732.182-.495.293-.899.332-1.211l1.494.879zm-4.121 4.336v-.86h-9.082v.86h9.082zm0 2.158v-.938h-9.082v.938h9.082zm0 2.168v-.928h-9.082v.928h9.082zm4.365 2.773-.781 1.543c-1.914-.547-3.981-.941-6.201-1.181l.8-1.524c2.383.319 4.444.706 6.182 1.162zm-80.244 24.684h-12.656v.693h-1.807v-7.773c-.697.696-1.328 1.25-1.895 1.66l-1.22-1.465c2.103-1.549 3.763-3.33 4.98-5.342h-4.365v-1.719h5.342c.377-.735.791-1.728 1.24-2.978l1.758.459a32.014 32.014 0 0 1-.977 2.519h9.317v1.719h-10.235a28.61 28.61 0 0 1-2.138 3.184v7.305h5.078v-4.668h-4.063v-1.7h4.063v-3.193h1.855v3.193h4.365v1.7h-4.365v4.668h5.723v1.738zm19.98-3.662h-17.343V181h2.919v-8.057h-2.695V171.4h2.695v-1.836h1.827v1.836h7.861v-1.836h1.758v1.836h2.656v1.543h-2.656V181h2.978v1.68zm-4.736-8.116v-1.621h-7.861v1.621h7.861zm0 3.213v-1.552h-7.861v1.552h7.861zm0 3.223v-1.602h-7.861V181h7.861zm4.922 4.697-.908 1.465c-1.634-.931-3.741-1.833-6.319-2.705l1.026-1.494c2.786.937 4.853 1.849 6.201 2.734zm-10.283-1.474c-2.585 1.491-4.772 2.477-6.563 2.959l-.918-1.524a27.146 27.146 0 0 0 6.035-2.656l1.446 1.221zm18.154-14.541c-.195.696-.518 1.565-.967 2.607l-.674 1.514v13.154h-1.738v-10.078c-.488.703-.908 1.25-1.26 1.641l-.859-1.817c1.517-1.927 2.757-4.381 3.721-7.363l1.777.342zm12.06 13.623c-.143 1.367-.432 2.295-.869 2.783-.429.488-1.025.732-1.787.732h-6.357c-.619 0-1.12-.175-1.504-.527-.384-.345-.576-.876-.576-1.592v-7.06l-1.543.478-.196-1.738 1.739-.576v-4.483h1.738v3.897l2.5-.821v-4.834h1.738v4.258l4.483-1.465c-.104 3.054-.472 5.961-1.104 8.721l-1.601-.498c.527-2.155.794-4.075.8-5.762l-2.578.821v7.724h-1.738v-7.119l-2.5.772v7.607c0 .104.049.205.147.303.097.091.195.136.292.136h5.977c.371 0 .641-.159.811-.478.175-.319.306-.98.39-1.982l1.738.703zm10.342-9.844-1.093 1.318a8.657 8.657 0 0 0-.381-.478v1.523h-1.768v1.494h2.744v1.621h-2.744v5.284c1.185-.228 2.106-.45 2.764-.664l.058 1.679c-2.76.69-5.159 1.192-7.197 1.504l-.381-1.64a33.518 33.518 0 0 0 3.076-.518v-5.645h-2.656v-1.621h2.656v-1.494h-1.552v-.947a4.77 4.77 0 0 1-.684.586l-.918-1.504c1.244-1.009 2.448-2.523 3.613-4.541l1.709.518c-.039.156-.12.312-.244.468 1.263 1.114 2.263 2.132 2.998 3.057zm-1.601.723c-.782-.944-1.54-1.732-2.276-2.364-.761 1.055-1.383 1.843-1.865 2.364h4.141zm10.058 4.14h-6.338v6.436a16.775 16.775 0 0 0 2.461-.957l.303 1.66c-1.087.514-2.5 1.048-4.238 1.601l-.625-1.484c.241-.124.361-.296.361-.518v-15h8.076v8.262zm-1.777-4.961v-1.64h-4.561v1.64h4.561zm0 3.321v-1.748h-4.561v1.748h4.561zm3.047 9.16-1.182 1.299c-2.337-1.791-3.997-4.398-4.98-7.823l1.621-.595c.26.905.511 1.65.752 2.236.612-.456 1.279-1.156 2.002-2.1l1.445.899c-.644.911-1.546 1.819-2.705 2.724.736 1.205 1.751 2.325 3.047 3.36zm-15.186-2.149-1.504.489c-.032-1.068-.244-2.461-.634-4.18l1.523-.361c.3 1.419.505 2.77.615 4.052zm4.922-3.613c-.234 1.387-.514 2.513-.84 3.379l-1.377-.479c.371-1.191.635-2.285.791-3.281l1.426.381zm18.701-9.902a17.803 17.803 0 0 1-5.341 4.756l-.86-1.719c1.589-.827 3.076-2.106 4.463-3.838l1.738.801zm10.86 1.699h-10.059v-1.738h10.059v1.738zm-10.44 2.002a30.423 30.423 0 0 1-1.982 2.959v10.176h-1.856v-8.037c-.716.709-1.383 1.263-2.002 1.66l-.781-1.778c1.693-1.106 3.327-3.001 4.903-5.683l1.718.703zm10.938 3.057h-2.696v8.105c0 1.328-.722 1.992-2.168 1.992-.924 0-1.829-.019-2.714-.058l-.664-1.817c.559.013 1.595.02 3.105.02a.55.55 0 0 0 .371-.157.517.517 0 0 0 .186-.4v-7.685h-6.524v-1.758h11.104v1.758zM520.916 214.961l-1.035 1.455c-2.09-1.745-4.411-3.35-6.963-4.814v9.375h-1.875v-10.02c-2.109 2.188-4.398 3.994-6.865 5.42l-1.035-1.514c4.518-2.604 7.63-5.644 9.336-9.121h-8.995v-1.758h17.012v1.758h-5.957c-.397.847-.937 1.794-1.621 2.842v.977c3.796 2.187 6.462 3.987 7.998 5.4zm19.863-4.58h-5.742c-.573.417-1.491.996-2.754 1.738h7.412v1.582h-8.252l-.459 1.641h8.838c-.019.495-.13 1.347-.332 2.558-.202 1.205-.495 1.983-.879 2.334-.384.352-.739.564-1.064.635-.326.078-1.247.117-2.764.117-1.12 0-2.347-.029-3.681-.088l-.538-1.64c1.185.084 3.165.127 5.938.127.358 0 .628-.114.81-.342.183-.234.359-.941.528-2.119h-9.199l.976-3.467c-2.187 1.003-4.02 1.771-5.498 2.305l-.918-1.504c3.718-1.289 6.651-2.582 8.799-3.877h-8.604v-1.602h6.602v-1.875h-5.019v-1.601h5.019v-1.68h1.826v1.68h4.375v1.601h-4.375v1.875h2.637c1.322-.963 2.936-2.562 4.844-4.795l1.396.938c-.937 1.23-2.145 2.516-3.623 3.857h3.701v1.602zm19.961-4.18c-.39 1.419-.849 2.585-1.377 3.496l-1.543-.556c.397-.756.651-1.27.762-1.543h-6.484v.761c1.849-.026 3.571-.091 5.166-.195l.078 1.133c-2.559.124-4.307.198-5.244.224v.254c0 .202.107.303.322.303h6.123v1.201h-6.963c-.338 0-.638-.123-.898-.371a1.218 1.218 0 0 1-.381-.908v-.4l-3.057.136-.068-1.132a71.775 71.775 0 0 0 3.125-.147v-.859h-3.799v4.922c0 3.652-.661 6.52-1.982 8.603l-1.28-1.367c1.029-1.582 1.543-3.962 1.543-7.139v-6.416h5.879v-2.617h1.777v.674h7.139v1.26h-7.139v.683h8.301zm-1.084 10.703h-12.041v-4.902h12.041v4.902zm-1.679-3.047v-.673H554.5v.673h3.477zm-5.098 0-.02-.673h-3.554v.673h3.574zm5.098 1.866v-.762H554.5v.762h3.477zm-5.098 0v-.762h-3.574v.762h3.574zm2.685 2.519-1.123 1.016c-.501-.339-1.201-.703-2.099-1.094l1.054-1.045c.984.449 1.706.824 2.168 1.123zm5.498 1.455-1.386 1.045a10.214 10.214 0 0 0-1.973-2.597l1.318-.948c.632.554 1.312 1.387 2.041 2.5zm-11.806-1.718c-.319.957-.957 1.969-1.914 3.037l-1.406-.977c.599-.677 1.207-1.624 1.826-2.842l1.494.782zm8.642.917c-.13.866-.351 1.423-.664 1.67-.306.248-.573.385-.8.411-.228.026-1.934.039-5.118.039-.403 0-.755-.127-1.054-.381-.293-.248-.44-.619-.44-1.114v-2.041h1.856v1.68c0 .169.068.28.205.332.137.052.576.078 1.318.078l2.315-.029c.39 0 .638-.439.742-1.318l1.64.673zm22.998-4.179-1.279.84a10.528 10.528 0 0 0-.556-.782 78.046 78.046 0 0 1-8.096.508l-.283-1.426a82.18 82.18 0 0 0 4.16-.097v-1.084h-3.418v-5.635h3.418v-.918h-3.78v-1.504h3.78v-1.123h1.699v1.123h3.838v1.504h-3.838v.918h3.379v5.635h-.557a36.22 36.22 0 0 1 1.533 2.041zm-2.617-5.518v-.82h-1.738v.82h1.738zm-3.437 0v-.82h-1.778v.82h1.778zm3.437 2.158v-.859h-1.738v.859h1.738zm-3.437 0v-.859h-1.778v.859h1.778zm3.994 1.319h-2.295v.967l1.475-.147a2.66 2.66 0 0 0-.313-.273l1.133-.547zm-8.34-6.172h-2.656v1.152h2.324v8.067h-2.324v1.054h2.519v1.641h-2.519v2.646h-1.621v-2.646h-2.842v-1.641h2.842v-1.054h-2.383v-8.067h2.383v-1.152h-2.823v-1.582h2.823v-1.426h1.621v1.426h2.656v1.582zm-1.836 4.414v-1.66h-.82v1.66h.82zm-2.441 0v-1.66h-.86v1.66h.86zm2.441 3.223v-1.68h-.82v1.68h.82zm-2.441 0v-1.68h-.86v1.68h.86zm14.58 3.242h-1.856v2.392c0 .306-.143.596-.429.87-.287.279-.586.419-.899.419-.846 0-1.406-.016-1.679-.048l-.538-1.553c.547.026 1.049.039 1.504.039.215 0 .323-.114.323-.342v-1.777h-6.329v-1.465h6.329v-.615h1.718v.615h1.856v1.465zm-5.557 1.738-1.465.899a13.298 13.298 0 0 0-1.738-1.582l1.465-.86c.436.345 1.016.86 1.738 1.543zm22.217-15.019-.723 1.201c-.553-.241-1.344-.489-2.373-.742l.616-1.241c1.054.248 1.881.508 2.48.782zm-7.344.136a19.83 19.83 0 0 1-2.099 1.758v3.682h-1.778v-2.539c-.638.338-1.351.7-2.138 1.084l-.938-1.485c2.344-1.041 4.144-2.174 5.4-3.398l1.553.898zm10.684 3.985c-.222 1.028-.528 1.738-.918 2.129-.391.384-.775.576-1.152.576a.985.985 0 0 1-.245-.03v7.422h-8.847l1.025.996c-1.907.886-4.121 1.501-6.641 1.846l-.781-1.601a21.968 21.968 0 0 0 5.459-1.241h-2.92v-8.056h10.479c-1.485-.788-2.643-1.784-3.477-2.989l-3.74.303-.156-1.514 3.056-.205a13.54 13.54 0 0 1-.82-2.158l1.758-.283c.338 1.035.651 1.797.937 2.285l5.801-.42.127 1.514-4.844.342a7.255 7.255 0 0 0 1.993 1.543c.768.403 1.25.605 1.445.605.241 0 .452-.244.635-.732.182-.495.293-.899.332-1.211l1.494.879zm-4.121 4.336v-.86h-9.082v.86h9.082zm0 2.158v-.938h-9.082v.938h9.082zm0 2.168v-.928h-9.082v.928h9.082zm4.365 2.773-.781 1.543c-1.914-.547-3.981-.941-6.201-1.181l.8-1.524c2.383.319 4.444.706 6.182 1.162zM530.877 123.576h-3.037a13.78 13.78 0 0 1-.44 1.621h2.784v10.225h-4.366l.84.801c-.788 1.08-1.953 2.08-3.496 2.998l-1.064-1.446c1.015-.54 2.015-1.324 2.998-2.353h-1.7v-10.225h2.061c.176-.416.345-.957.508-1.621h-2.969v-1.68h7.881v1.68zm-2.393 4.522v-1.28h-3.339v1.28h3.339zm0 2.881v-1.417h-3.339v1.417h3.339zm0 2.88v-1.396h-3.339v1.396h3.339zm-6.045-10.283h-2.119a18.562 18.562 0 0 1-.42 1.426h2.237v7.539h-1.719v4.902c0 .476-.101.834-.303 1.075-.195.247-.42.39-.674.429-.247.046-.768.069-1.562.069l-.42-1.7c.547.033.898.03 1.055-.009.162-.039.244-.183.244-.43v-4.336h-2.119v-7.539h1.445c.156-.43.303-.905.439-1.426h-2.705v6.201c0 4.44-.426 7.556-1.279 9.346l-1.416-1.348c.664-1.79.996-4.388.996-7.793v-8.086h8.32v1.68zm-1.904 4.444v-1.416h-2.236v1.416h2.236zm0 2.9v-1.397h-2.236v1.397h2.236zm2.764 5.225-1.602.673a16.017 16.017 0 0 0-.957-3.242l1.455-.596c.365.736.733 1.791 1.104 3.165zm-4.942-2.5a21.435 21.435 0 0 1-1.494 4.16l-1.406-.948c.547-1.087 1.009-2.327 1.387-3.72l1.513.508zm12.725 4.091-1.182 1.348c-.794-.703-1.748-1.41-2.861-2.119l1.143-1.221a13.742 13.742 0 0 1 2.9 1.992zm19.502-10.82h-17.022v-1.475h4.737a5.9 5.9 0 0 0-.723-1.142h-3.017v-1.436h6.337a7.58 7.58 0 0 0-.595-1.084l1.855-.4c.267.423.515.918.742 1.484h6.68v1.436h-2.939a14.16 14.16 0 0 1-.782 1.142h4.727v1.475zm-6.104-2.617h-4.736c.156.254.355.635.596 1.142h3.301c.403-.501.683-.882.839-1.142zm4.024 9.765h-12.842v-6.181h12.842v6.181zm-1.768-3.867v-.859h-9.277v.859h9.277zm0 2.403v-1.036h-9.277v1.036h9.277zm-2.675 3.642-1.68.401a11.24 11.24 0 0 0-1.065-1.866l1.68-.517c.482.709.837 1.37 1.065 1.982zm6.923 1.582-1.523.977c-.553-1.179-1.299-2.311-2.236-3.399l1.474-1.006c1.035 1.218 1.797 2.361 2.285 3.428zm-13.623-2.422c-.84 1.498-1.66 2.683-2.461 3.555l-1.484-1.016c.866-.898 1.647-2.011 2.344-3.339l1.601.8zm9.864.782c-.137 1.77-.7 2.656-1.69 2.656l-3.701.019c-1.569 0-2.497-.022-2.783-.068a1.174 1.174 0 0 1-.723-.391c-.195-.214-.293-.563-.293-1.045v-2.617h1.768v1.944c0 .358.146.537.439.537l4.414-.02c.534 0 .801-.508.801-1.523l1.768.508zm23.671-3.467-1.279.84a10.528 10.528 0 0 0-.556-.782 78.046 78.046 0 0 1-8.096.508l-.283-1.426a82.18 82.18 0 0 0 4.16-.097v-1.084h-3.418v-5.635h3.418v-.918h-3.78v-1.504h3.78v-1.123h1.699v1.123h3.838v1.504h-3.838v.918h3.379v5.635h-.557a36.22 36.22 0 0 1 1.533 2.041zm-2.617-5.518v-.82h-1.738v.82h1.738zm-3.437 0v-.82h-1.778v.82h1.778zm3.437 2.158v-.859h-1.738v.859h1.738zm-3.437 0v-.859h-1.778v.859h1.778zm3.994 1.319h-2.295v.967l1.475-.147a2.66 2.66 0 0 0-.313-.273l1.133-.547zm-8.34-6.172h-2.656v1.152h2.324v8.067h-2.324v1.054h2.519v1.641h-2.519v2.646h-1.621v-2.646h-2.842v-1.641h2.842v-1.054h-2.383v-8.067h2.383v-1.152h-2.823v-1.582h2.823v-1.426h1.621v1.426h2.656v1.582zm-1.836 4.414v-1.66h-.82v1.66h.82zm-2.441 0v-1.66h-.86v1.66h.86zm2.441 3.223v-1.68h-.82v1.68h.82zm-2.441 0v-1.68h-.86v1.68h.86zm14.58 3.242h-1.856v2.392c0 .306-.143.596-.429.87-.287.279-.586.419-.899.419-.846 0-1.406-.016-1.679-.048l-.538-1.553c.547.026 1.049.039 1.504.039.215 0 .323-.114.323-.342v-1.777h-6.329v-1.465h6.329v-.615h1.718v.615h1.856v1.465zm-5.557 1.738-1.465.899a13.298 13.298 0 0 0-1.738-1.582l1.465-.86c.436.345 1.016.86 1.738 1.543zm22.217-15.019-.723 1.201c-.553-.241-1.344-.489-2.373-.742l.616-1.241c1.054.248 1.881.508 2.48.782zm-7.344.136a19.83 19.83 0 0 1-2.099 1.758v3.682h-1.778v-2.539c-.638.338-1.351.7-2.138 1.084l-.938-1.485c2.344-1.041 4.144-2.174 5.4-3.398l1.553.898zm10.684 3.985c-.222 1.028-.528 1.738-.918 2.129-.391.384-.775.576-1.152.576a.985.985 0 0 1-.245-.03v7.422h-8.847l1.025.996c-1.907.886-4.121 1.501-6.641 1.846l-.781-1.601a21.968 21.968 0 0 0 5.459-1.241h-2.92v-8.056h10.479c-1.485-.788-2.643-1.784-3.477-2.989l-3.74.303-.156-1.514 3.056-.205a13.54 13.54 0 0 1-.82-2.158l1.758-.283c.338 1.035.651 1.797.937 2.285l5.801-.42.127 1.514-4.844.342a7.255 7.255 0 0 0 1.993 1.543c.768.403 1.25.605 1.445.605.241 0 .452-.244.635-.732.182-.495.293-.899.332-1.211l1.494.879zm-4.121 4.336v-.86h-9.082v.86h9.082zm0 2.158v-.938h-9.082v.938h9.082zm0 2.168v-.928h-9.082v.928h9.082zm4.365 2.773-.781 1.543c-1.914-.547-3.981-.941-6.201-1.181l.8-1.524c2.383.319 4.444.706 6.182 1.162z" fill="#333"/>
</svg>
