<svg width="304" height="360" fill="none" xmlns="http://www.w3.org/2000/svg">
    <path d="M159 30.184V0h-12.781v30.184H159zM111.375 51.222V21.038h-12.78v30.184h12.78zM111.375 117.08V86.895h-12.78v30.185h12.78zM82 287v-42H69v42h13zM55.688 298.186V109.762H42.907v188.424h12.78zM264.744 345.75V21.038h-12.781V345.75h12.781z" fill="#F0D227"/>
    <path d="M251.963 355.775v-47.912h12.781v47.912L258.396 360l-6.433-4.225zM159.76 298.186V109.762h-12.781v188.424h12.781z" fill="#F0D227"/>
    <path d="M147.892 355.37v-57.516h12.781v57.516l-6.349 4.226-6.432-4.226zM42.907 355.37v-57.516h12.78v57.516l-6.348 4.226-6.432-4.226zM262.919 21.038H98.595v12.806h164.324V21.038zM159.76 108.847H42.907v12.807H159.76v-12.807zM159.821 245.201H68.923v13.011h90.898v-13.011z" fill="#F0D227"/>
    <rect x="60.252" y="51.222" width="92.204" height="36.587" rx="18.294" fill="#F6F2EF"/>
    <rect x="105.898" y="287.21" width="90" height="36" rx="18" fill="#F6F2EF"/>
    <path d="M93.164 69.685H82.723v-1.061h10.441v1.06zm11.883-3.938c-.289 1.75-.781 3.15-1.477 4.201l-.914-.48c.489-.774.848-1.662 1.078-2.666h-3.79c-.497 1.027-1.005 1.824-1.524 2.39l-.826-.638c.969-1.09 1.72-2.57 2.256-4.442l1.054.182c-.14.465-.308.95-.504 1.453h4.647zm-6.71.984h-3.339V65.69h3.34v1.042zm6.933 7.125-.668.915c-1.723-1.043-2.891-2.34-3.504-3.891-.606 1.617-1.854 2.906-3.745 3.867l-.755-.814c1.558-.836 2.605-1.668 3.14-2.497.535-.832.803-1.947.803-3.345 0-.235-.008-.485-.023-.75h1.06c-.012.219-.017.428-.017.627 0 .98.128 1.808.386 2.484.262.672.719 1.326 1.371 1.963.653.637 1.303 1.117 1.952 1.441zm-6.645-2.771h-3.89V70.03h3.89v1.055zm16.559-6.574-.434.72c-.332-.144-.807-.292-1.424-.445l.369-.744c.633.148 1.129.305 1.489.469zm-4.407.082c-.351.343-.771.695-1.259 1.054v2.21h-1.067v-1.524c-.383.203-.81.42-1.283.65l-.563-.89c1.407-.625 2.487-1.305 3.241-2.04l.931.54zm6.411 2.39c-.133.618-.317 1.043-.551 1.278-.235.23-.465.345-.692.345a.604.604 0 0 1-.146-.017v4.453h-5.309l.615.598c-1.144.53-2.472.9-3.984 1.107l-.469-.96a13.177 13.177 0 0 0 3.276-.745h-1.752v-4.834h6.287c-.891-.473-1.586-1.07-2.086-1.793l-2.244.182-.094-.908 1.834-.124a8.062 8.062 0 0 1-.492-1.294l1.055-.17c.203.62.39 1.078.562 1.37l3.481-.251.076.908-2.907.205c.34.375.739.684 1.196.926.461.242.75.363.867.363.144 0 .271-.146.381-.44.109-.296.176-.538.199-.726l.897.527zm-2.473 2.602v-.516h-5.449v.516h5.449zm0 1.295v-.563h-5.449v.563h5.449zm0 1.3v-.556h-5.449v.557h5.449zm2.619 1.665-.469.925a22.286 22.286 0 0 0-3.72-.709l.48-.914c1.43.192 2.666.424 3.709.698zm12.023-.492-.328 1.03a70.83 70.83 0 0 1-2.502.042c-1.339 0-2.285-.035-2.836-.106a4.416 4.416 0 0 1-1.541-.48 3.31 3.31 0 0 1-1.195-1.072 10.34 10.34 0 0 1-1.594 1.98l-.802-.803c1.316-1.187 2.138-2.763 2.466-4.728l1.084.164c-.175.93-.4 1.73-.673 2.402.472.836 1.185 1.324 2.138 1.465v-4.74h-3.603v-4.02h7.945v4.02h-3.252v1.752h3.973v1.02h-3.973v2.085a67.545 67.545 0 0 0 4.693-.011zm-2.519-5.866v-2.004h-5.76v2.004h5.76zM133.213 306.219l-.621.873a29.128 29.128 0 0 0-4.178-2.889v5.625h-1.125v-6.012a18.744 18.744 0 0 1-4.119 3.252l-.621-.908c2.711-1.562 4.578-3.387 5.601-5.472h-5.396v-1.055h10.207v1.055h-3.574a14.529 14.529 0 0 1-.973 1.705v.586c2.277 1.312 3.877 2.392 4.799 3.24zm11.918-2.748h-3.445c-.344.25-.895.597-1.653 1.043h4.447v.949h-4.951l-.275.984h5.303c-.012.297-.078.809-.2 1.535-.121.723-.296 1.19-.527 1.401-.23.211-.443.338-.639.381-.195.047-.748.07-1.658.07-.672 0-1.408-.018-2.209-.053l-.322-.984c.711.051 1.898.076 3.562.076.215 0 .377-.068.487-.205.109-.141.215-.564.316-1.272h-5.519l.586-2.08c-1.313.602-2.413 1.063-3.299 1.383l-.551-.902c2.23-.774 3.99-1.549 5.279-2.326h-5.162v-.961h3.961v-1.125h-3.012v-.961h3.012v-1.008h1.096v1.008h2.625v.961h-2.625v1.125h1.582c.793-.578 1.762-1.537 2.906-2.877l.838.562c-.563.739-1.287 1.51-2.174 2.315h2.221v.961zm11.976-2.508c-.234.851-.509 1.551-.826 2.098l-.926-.334c.239-.454.391-.762.457-.926h-3.89v.457a61.934 61.934 0 0 0 3.099-.117l.047.679c-1.535.075-2.584.119-3.146.135v.152c0 .122.064.182.193.182h3.674v.721h-4.178a.76.76 0 0 1-.539-.223.732.732 0 0 1-.228-.545v-.24l-1.834.082-.041-.68a40.707 40.707 0 0 0 1.875-.088v-.515h-2.28v2.953c0 2.191-.396 3.912-1.189 5.162l-.768-.82c.618-.95.926-2.377.926-4.284v-3.849h3.528v-1.57h1.066v.404h4.283v.756h-4.283v.41h4.98zm-.65 6.422h-7.225v-2.942h7.225v2.942zm-1.008-1.828v-.405h-2.086v.405h2.086zm-3.058 0-.012-.405h-2.133v.405h2.145zm3.058 1.119v-.457h-2.086v.457h2.086zm-3.058 0v-.457h-2.145v.457h2.145zm1.611 1.512-.674.609c-.301-.203-.721-.422-1.26-.656l.633-.627c.59.269 1.024.494 1.301.674zm3.299.873-.832.627a6.135 6.135 0 0 0-1.184-1.559l.791-.568c.379.332.787.832 1.225 1.5zm-7.084-1.032c-.192.575-.574 1.182-1.149 1.823l-.843-.586c.359-.407.724-.975 1.095-1.705l.897.468zm5.185.551c-.078.52-.211.854-.398 1.002-.184.148-.344.23-.481.246-.136.016-1.16.024-3.07.024a.952.952 0 0 1-.633-.229c-.175-.148-.263-.371-.263-.668v-1.225h1.113v1.008c0 .102.041.168.123.2.082.031.346.046.791.046l1.389-.017c.234 0 .382-.264.445-.791l.984.404zm13.799-2.508-.767.504a6.586 6.586 0 0 0-.334-.469 46.83 46.83 0 0 1-4.858.305l-.17-.855c.899 0 1.731-.02 2.496-.059v-.65h-2.05v-3.381h2.05v-.551h-2.267v-.902h2.267v-.674h1.02v.674h2.303v.902h-2.303v.551h2.027v3.381h-.334c.395.496.701.904.92 1.224zm-1.57-3.31v-.492h-1.043v.492h1.043zm-2.063 0v-.492h-1.066v.492h1.066zm2.063 1.295v-.516h-1.043v.516h1.043zm-2.063 0v-.516h-1.066v.516h1.066zm2.397.791h-1.377v.58l.885-.088a1.603 1.603 0 0 0-.188-.164l.68-.328zm-5.004-3.703h-1.594v.691h1.395v4.84h-1.395v.633h1.512v.984h-1.512v1.588h-.972v-1.588h-1.706v-.984h1.706v-.633h-1.43v-4.84h1.43v-.691h-1.694v-.95h1.694v-.855h.972v.855h1.594v.95zm-1.102 2.648v-.996h-.492v.996h.492zm-1.464 0v-.996h-.516v.996h.516zm1.464 1.934v-1.008h-.492v1.008h.492zm-1.464 0v-1.008h-.516v1.008h.516zm8.748 1.945h-1.114v1.435c0 .184-.086.358-.258.522-.171.168-.351.252-.539.252-.507 0-.843-.01-1.007-.029l-.323-.932c.328.016.629.023.903.023.129 0 .193-.068.193-.205v-1.066h-3.797v-.879h3.797v-.369h1.031v.369h1.114v.879zm-3.334 1.043-.879.539a8.059 8.059 0 0 0-1.043-.949l.879-.516c.261.207.609.516 1.043.926zm13.33-9.012-.434.721c-.332-.145-.807-.293-1.424-.445l.369-.745c.633.149 1.129.305 1.489.469zm-4.407.082c-.351.344-.771.695-1.259 1.055v2.209h-1.067v-1.524c-.383.204-.81.42-1.283.651l-.562-.891c1.406-.625 2.486-1.305 3.24-2.039l.931.539zm6.411 2.391c-.133.617-.317 1.043-.551 1.277-.235.231-.465.346-.692.346a.59.59 0 0 1-.146-.018v4.453h-5.309l.616.598c-1.145.531-2.473.9-3.985 1.107l-.469-.96a13.18 13.18 0 0 0 3.276-.745h-1.752V303.4h6.287c-.891-.472-1.586-1.07-2.086-1.793l-2.244.182-.094-.908 1.834-.123a8.084 8.084 0 0 1-.492-1.295l1.055-.17c.203.621.39 1.078.562 1.371l3.481-.252.076.908-2.906.205c.339.375.738.684 1.195.926.461.242.75.363.867.363.145 0 .272-.146.381-.439a3.45 3.45 0 0 0 .199-.727l.897.528zm-2.473 2.601v-.515h-5.449v.515h5.449zm0 1.295v-.562h-5.449v.562h5.449zm0 1.301v-.557h-5.449v.557h5.449zm2.619 1.664-.469.926a22.236 22.236 0 0 0-3.72-.709l.48-.914c1.43.191 2.666.424 3.709.697z" fill="#333"/>
    <rect y="142.69" width="102.246" height="47.563" rx="23.782" fill="#F6F2EF"/>
    <rect x="6" y="287" width="90" height="36" rx="18" fill="#F6F2EF"/>
    <path d="M29.133 162.661h-1.096v-.586H21.99v.586H20.9v-10.114h8.233v10.114zm-1.096-7.284v-1.81H21.99v1.81h6.047zm0 2.819v-1.834H21.99v1.834h6.047zm0 2.871v-1.899H21.99v1.899h6.047zm12.457-8.461c-.644.383-1.213.654-1.705.814l-1.102-.503c.626-.266 1.19-.549 1.694-.85l1.113.539zm-4.19.311-1.1.503a10.82 10.82 0 0 0-1.753-.802l1.114-.539a7.7 7.7 0 0 1 1.74.838zm5.977 1.646H31.84v-.996H42.28v.996zm-.85 6.85c0 .5-.115.832-.345.996-.23.168-.658.252-1.283.252-.246 0-.508-.008-.785-.024l-.334-1.031h1.5c.054 0 .105-.031.152-.094a.303.303 0 0 0 .076-.193v-6.1h1.02v6.194zm-4.44.134c0 .309-.067.543-.2.703a.887.887 0 0 1-.475.323c-.183.054-.51.082-.978.082-.235 0-.444-.006-.627-.018l-.375-1.031c.172.019.357.029.557.029.457 0 .755-.015.896-.047.145-.031.217-.113.217-.246v-1.213h-2.303c-.18 1.102-.539 1.961-1.078 2.579l-.879-.563c.711-.715 1.067-1.967 1.067-3.756v-3.07h4.177v6.228zm-.985-4.283v-.984H33.82v.984h2.186zm0 1.951v-1.019H33.82v1.019h2.186zm3.24 1.453h-1.043v-5.185h1.043v5.185zm15.012-.96h-10.43v-.973h1.53v-1.617h-1.313v-.973h1.312v-1.248c-.183.16-.457.389-.82.686l-.79-.827c1.132-.808 1.983-1.685 2.554-2.631l1.119.311c-.176.34-.389.652-.639.938h7.154v.996h-8.05a7.18 7.18 0 0 1-.492.492h1.03v1.283h1.114v-1.283h1.02v1.283h1.19v-1.283h1.007v1.283h1.19v-1.283h1.03v1.283h1.067v.973h-1.066v1.617h1.283v.973zm-2.315-.973v-1.617h-1.19v1.617h1.19zm-2.197 0v-1.617h-1.19v1.617h1.19zm-2.209 0v-1.617h-1.113v1.617h1.113zm6.803 3.615-1.055.457a11.45 11.45 0 0 0-1.318-2.39l1.031-.469a12.021 12.021 0 0 1 1.342 2.402zm-8.203-1.898c-.383.933-.84 1.742-1.371 2.425l-.996-.638c.433-.5.882-1.242 1.347-2.227l1.02.44zm5.373 1.922-1.032.41a11.802 11.802 0 0 0-.972-2.28l1.031-.398c.45.879.773 1.635.973 2.268zm-2.854.093-1.06.317c-.14-.731-.36-1.496-.656-2.297l1.019-.358c.262.614.494 1.393.697 2.338zm17.11-9.527c-2.375.512-4.684.768-6.926.768h-.979v.591h7.735v2.59H57.86c-.074 2.492-.574 4.44-1.5 5.842l-.697-.92c.75-1.238 1.125-2.951 1.125-5.139v-3.896h2.186c2.277 0 4.345-.225 6.205-.674l.586.838zm-1.248 3.035v-.791H57.86v.791h6.657zm1.693 2.848h-5.04l-.11.744h4.6a11.13 11.13 0 0 1-.235 1.857c-.114.508-.307.84-.58.996-.274.157-.754.235-1.442.235-.3 0-.705-.01-1.213-.03l-.322-1.007c.461.031.932.047 1.412.047.414 0 .672-.006.774-.018.105-.012.197-.084.275-.217.078-.133.129-.459.152-.978h-3.638c-.547 1.097-1.514 1.871-2.9 2.32l-.628-.914c1.84-.52 2.756-1.531 2.748-3.035h-1.869v-.903h3.264a3.791 3.791 0 0 0-.399-.586l1.155-.251c.152.207.308.486.469.837h3.527v.903zm10.043-6.24-.434.72c-.332-.144-.806-.293-1.423-.445l.369-.744c.632.148 1.128.304 1.488.469zm-4.406.082c-.352.343-.772.695-1.26 1.054v2.209h-1.066v-1.523c-.383.203-.811.42-1.284.65l-.562-.89c1.406-.625 2.486-1.305 3.24-2.04l.932.54zm6.41 2.39c-.133.617-.317 1.043-.551 1.278-.234.23-.465.345-.691.345a.64.64 0 0 1-.147-.017v4.453h-5.308l.615.597c-1.145.532-2.473.901-3.985 1.108l-.468-.961a13.217 13.217 0 0 0 3.275-.744h-1.752v-4.834h6.287c-.89-.473-1.586-1.071-2.086-1.793l-2.244.181-.094-.908 1.834-.123a8.099 8.099 0 0 1-.492-1.295l1.055-.17c.203.621.39 1.078.562 1.371l3.48-.251.077.908-2.906.205c.34.375.738.683 1.195.926.461.242.75.363.867.363.145 0 .272-.147.381-.44.11-.296.176-.539.2-.726l.896.527zm-2.473 2.602v-.516h-5.45v.516h5.45zm0 1.295v-.563h-5.45v.563h5.45zm0 1.3v-.556h-5.45v.556h5.45zm2.62 1.665-.47.925a22.352 22.352 0 0 0-3.72-.709l.48-.914c1.43.192 2.666.424 3.71.698zm5.982-8.872-4.377 10.582h-1.254l4.365-10.582h1.266zM29.766 168.94c-2.375.512-4.684.768-6.926.768h-.979v.591h7.735v2.59H21.86c-.074 2.492-.574 4.44-1.5 5.842l-.697-.92c.75-1.238 1.125-2.951 1.125-5.139v-3.896h2.186c2.277 0 4.345-.225 6.205-.674l.586.838zm-1.248 3.035v-.791H21.86v.791h6.657zm1.693 2.848h-5.04l-.11.744h4.6a11.13 11.13 0 0 1-.235 1.857c-.113.508-.307.84-.58.996-.274.157-.754.235-1.442.235-.3 0-.705-.01-1.213-.03l-.322-1.007c.461.031.932.047 1.412.047.414 0 .672-.006.774-.018.105-.012.197-.084.275-.217.078-.133.129-.459.152-.978h-3.638c-.547 1.097-1.514 1.871-2.9 2.32l-.628-.914c1.84-.52 2.756-1.531 2.748-3.035h-1.869v-.903h3.264a3.791 3.791 0 0 0-.398-.586l1.154-.251c.152.207.308.486.469.837h3.527v.903zm10.043-6.24-.434.72c-.332-.144-.806-.293-1.423-.445l.369-.744c.632.148 1.129.304 1.488.469zm-4.406.082c-.352.343-.772.695-1.26 1.054v2.209h-1.066v-1.523c-.383.203-.811.42-1.284.65l-.562-.89c1.406-.625 2.486-1.305 3.24-2.04l.932.54zm6.41 2.39c-.133.617-.317 1.043-.551 1.278-.234.23-.465.345-.691.345a.64.64 0 0 1-.147-.017v4.453H35.56l.616.597c-1.145.532-2.473.901-3.985 1.108l-.468-.961a13.217 13.217 0 0 0 3.275-.744h-1.752v-4.834h6.287c-.89-.473-1.586-1.071-2.086-1.793l-2.244.181-.094-.908 1.834-.123a8.099 8.099 0 0 1-.492-1.295l1.055-.17c.203.621.39 1.078.562 1.371l3.48-.251.077.908-2.906.205c.34.375.738.683 1.195.926.461.242.75.363.867.363.145 0 .272-.147.381-.44.11-.296.176-.539.2-.726l.896.527zm-2.473 2.602v-.516h-5.45v.516h5.45zm0 1.295v-.563h-5.45v.563h5.45zm0 1.3v-.556h-5.45v.556h5.45zm2.62 1.665-.47.925a22.352 22.352 0 0 0-3.72-.709l.48-.914c1.43.192 2.666.424 3.71.698zm11.853.41h-7.594v.416H45.58v-4.664c-.418.418-.797.75-1.137.996l-.732-.879c1.262-.93 2.258-1.998 2.988-3.205H44.08v-1.032h3.205c.227-.441.475-1.037.744-1.787l1.055.276a18.979 18.979 0 0 1-.586 1.511h5.59v1.032h-6.14a17.193 17.193 0 0 1-1.284 1.91v4.383h3.047v-2.801h-2.438v-1.02h2.438v-1.916h1.113v1.916h2.62v1.02h-2.62v2.801h3.434v1.043zm12.1-5.725-.926.744a11.34 11.34 0 0 0-.745-1.054c-3.085.363-5.945.582-8.578.656l-.252-1.008c1.149-.371 2.395-1.635 3.739-3.791l1.213.24a16.233 16.233 0 0 1-2.842 3.445c1.566-.058 3.543-.214 5.93-.468a16.333 16.333 0 0 0-1.805-1.682l.926-.709c1.433 1.242 2.546 2.451 3.34 3.627zm-1.061 6.117h-1.09v-.539h-6.31v.539H56.8v-4.963h8.496v4.963zm-1.09-1.582v-2.338h-6.31v2.338h6.31zm9.117-2.402H71.08v4.008h-1.055v-4.008h-2.209v-.996h2.21v-.944h-2.087v-.961h1.178a11.963 11.963 0 0 0-.504-1.371l.715-.369h-1.365v-.961h1.922a3.275 3.275 0 0 0-.364-.732l1.143-.252c.211.41.36.738.445.984h2.016v.961h-1.3l.743.41c-.187.481-.39.924-.609 1.33h1.178v.961H71.08v.944h2.244v.996zm-1.763-4.641h-1.952c.266.594.477 1.174.633 1.74h.639c.27-.539.496-1.119.68-1.74zm6.685 2.76h-1.09v5.865h-1.043v-5.865H74.9c-.023 2.734-.48 4.693-1.37 5.877l-.874-.715c.781-1.051 1.172-2.66 1.172-4.828v-4.113c1.34-.184 2.469-.481 3.387-.891l.732.891c-.87.379-1.886.681-3.047.908v1.84h3.346v1.031zm-5.133 3.791-.867.492a8.22 8.22 0 0 0-.767-1.799l.89-.41c.363.625.612 1.197.744 1.717zm-3.363-1.154c-.383 1.039-.772 1.84-1.166 2.402l-.861-.65c.414-.59.78-1.321 1.101-2.192l.926.44zM38.326 300.346h-1.822a8.33 8.33 0 0 1-.264.972h1.67v6.135h-2.619l.504.481c-.473.648-1.172 1.248-2.098 1.798l-.638-.867c.609-.324 1.209-.795 1.798-1.412h-1.02v-6.135h1.237c.106-.25.207-.574.305-.972h-1.781v-1.008h4.728v1.008zm-1.435 2.713v-.768h-2.004v.768h2.004zm0 1.728v-.849h-2.004v.849h2.004zm0 1.729v-.838h-2.004v.838h2.004zm-3.627-6.17h-1.272c-.094.359-.178.644-.252.855h1.342v4.524h-1.031v2.941c0 .285-.06.5-.182.645a.636.636 0 0 1-.404.257c-.149.028-.461.041-.938.041l-.252-1.019c.329.019.54.017.633-.006.098-.023.147-.109.147-.258v-2.601h-1.272v-4.524h.867c.094-.258.182-.543.264-.855h-1.623v3.72c0 2.664-.256 4.534-.768 5.608l-.85-.809c.4-1.074.599-2.633.599-4.676v-4.851h4.992v1.008zm-1.143 2.666v-.85H30.78v.85h1.342zm0 1.74v-.838H30.78v.838h1.342zm1.658 3.135-.96.404a9.582 9.582 0 0 0-.575-1.945l.873-.358c.219.442.44 1.074.662 1.899zm-2.965-1.5a12.883 12.883 0 0 1-.896 2.496l-.844-.569c.328-.652.606-1.396.832-2.232l.909.305zm7.635 2.455-.709.808a13.815 13.815 0 0 0-1.717-1.271l.686-.733c.61.309 1.19.708 1.74 1.196zm11.701-6.492H39.938v-.885h2.841a3.574 3.574 0 0 0-.433-.686h-1.81v-.861h3.802a4.542 4.542 0 0 0-.358-.65l1.114-.241c.16.254.308.551.445.891h4.008v.861h-1.764c-.11.184-.265.412-.468.686h2.835v.885zm-3.662-1.571h-2.841c.093.153.212.381.357.686h1.98a6.81 6.81 0 0 0 .504-.686zm2.414 5.86h-7.705v-3.709h7.705v3.709zm-1.06-2.321v-.515h-5.567v.515h5.567zm0 1.442v-.621h-5.567v.621h5.567zm-1.606 2.185-1.008.241a6.736 6.736 0 0 0-.638-1.12l1.008-.31c.289.426.502.822.638 1.189zm4.155.95-.914.585a8.976 8.976 0 0 0-1.342-2.039l.885-.603c.62.73 1.078 1.416 1.37 2.057zm-8.174-1.454c-.504.899-.996 1.61-1.477 2.133l-.89-.609c.52-.539.988-1.207 1.406-2.004l.96.48zm5.918.469c-.082 1.063-.42 1.594-1.014 1.594l-2.22.012c-.942 0-1.499-.014-1.67-.041a.708.708 0 0 1-.434-.235c-.117-.129-.176-.338-.176-.627v-1.57h1.06v1.166c0 .215.089.322.264.322l2.649-.011c.32 0 .48-.305.48-.915l1.06.305zm14.203-2.08-.768.504a6.249 6.249 0 0 0-.334-.469 46.815 46.815 0 0 1-4.857.305l-.17-.856c.898 0 1.73-.019 2.496-.058v-.651h-2.05v-3.38h2.05v-.551h-2.267v-.903h2.267v-.673h1.02v.673h2.302v.903h-2.302v.551h2.027v3.38h-.334c.395.497.701.905.92 1.225zm-1.57-3.31v-.493h-1.043v.493h1.043zm-2.063 0v-.493H57.64v.493h1.066zm2.063 1.294v-.515h-1.043v.515h1.043zm-2.063 0v-.515H57.64v.515h1.066zm2.397.791h-1.377v.581l.884-.088a1.485 1.485 0 0 0-.187-.164l.68-.329zm-5.004-3.703h-1.594v.692h1.394v4.84h-1.394v.632h1.512v.985h-1.512v1.588h-.973v-1.588h-1.705v-.985h1.705v-.632h-1.43v-4.84h1.43v-.692h-1.693v-.949h1.693v-.855h.973v.855h1.594v.949zm-1.102 2.649v-.996h-.492v.996h.492zm-1.465 0v-.996h-.515v.996h.515zm1.465 1.933v-1.007h-.492v1.007h.492zm-1.465 0v-1.007h-.515v1.007h.515zm8.748 1.946h-1.113v1.435c0 .184-.086.358-.258.522-.172.168-.351.252-.539.252-.508 0-.844-.01-1.008-.03l-.322-.931c.328.015.629.023.902.023.13 0 .194-.068.194-.205v-1.066h-3.797v-.879h3.797v-.369h1.031v.369h1.113v.879zm-3.334 1.043-.879.539a8.105 8.105 0 0 0-1.043-.95l.88-.515c.261.207.609.515 1.042.926zm13.33-9.012-.433.721c-.332-.145-.807-.293-1.424-.446l.37-.744c.632.149 1.128.305 1.487.469zm-4.406.082a11.89 11.89 0 0 1-1.26 1.055v2.209h-1.066v-1.524c-.383.203-.81.42-1.283.651l-.563-.891c1.406-.625 2.487-1.305 3.24-2.039l.932.539zm6.41 2.391c-.132.617-.316 1.043-.55 1.277-.235.23-.465.346-.692.346-.05 0-.1-.006-.146-.018v4.453h-5.309l.615.598c-1.144.531-2.472.9-3.984 1.107l-.469-.961a13.128 13.128 0 0 0 3.275-.744h-1.751v-4.834h6.287c-.89-.472-1.586-1.07-2.086-1.793l-2.244.182-.094-.908 1.834-.123a8.143 8.143 0 0 1-.492-1.295l1.054-.17c.204.621.391 1.078.563 1.371l3.48-.252.077.908-2.907.205c.34.375.739.684 1.196.926.46.242.75.363.867.363.144 0 .271-.146.38-.439.11-.297.176-.539.2-.727l.896.528zm-2.472 2.601v-.515h-5.45v.515h5.45zm0 1.295v-.562h-5.45v.562h5.45zm0 1.301v-.557h-5.45v.557h5.45zm2.619 1.664-.469.926a22.25 22.25 0 0 0-3.72-.709l.48-.914c1.43.191 2.666.423 3.709.697z" fill="#333"/>
    <rect x="109.549" y="142.69" width="102.246" height="47.563" rx="23.782" fill="#F6F2EF"/>
    <path d="M139.01 162.661h-1.096v-.586h-6.047v.586h-1.09v-10.114h8.233v10.114zm-1.096-7.284v-1.81h-6.047v1.81h6.047zm0 2.819v-1.834h-6.047v1.834h6.047zm0 2.871v-1.899h-6.047v1.899h6.047zm12.457-8.461c-.644.383-1.213.654-1.705.814l-1.102-.503c.625-.266 1.19-.549 1.694-.85l1.113.539zm-4.189.311-1.102.503a10.778 10.778 0 0 0-1.752-.802l1.113-.539a7.7 7.7 0 0 1 1.741.838zm5.976 1.646h-10.441v-.996h10.441v.996zm-.849 6.85c0 .5-.116.832-.346.996-.231.168-.658.252-1.283.252-.246 0-.508-.008-.785-.024l-.334-1.031h1.5c.054 0 .105-.031.152-.094a.302.302 0 0 0 .076-.193v-6.1h1.02v6.194zm-4.442.134c0 .309-.066.543-.199.703a.887.887 0 0 1-.475.323c-.183.054-.509.082-.978.082a9.69 9.69 0 0 1-.627-.018l-.375-1.031c.172.019.357.029.557.029.457 0 .755-.015.896-.047.145-.031.217-.113.217-.246v-1.213h-2.303c-.18 1.102-.539 1.961-1.078 2.579l-.879-.563c.711-.715 1.066-1.967 1.066-3.756v-3.07h4.178v6.228zm-.984-4.283v-.984h-2.186v.984h2.186zm0 1.951v-1.019h-2.186v1.019h2.186zm3.24 1.453h-1.043v-5.185h1.043v5.185zm15-6.263h-5.83a7.81 7.81 0 0 1-.627 1.031h5.631v6.434c0 .265-.072.47-.217.615-.141.144-.355.221-.644.228-.29.008-.575.012-.856.012-.449 0-.818-.006-1.107-.017l-.463-1.067c.508.024 1.158.035 1.951.035.168 0 .252-.092.252-.275v-1.102h-5.35c-.203.848-.619 1.655-1.248 2.42l-1.019-.574c.863-.945 1.295-1.83 1.295-2.654v-1.928c-.532.555-1.055.998-1.571 1.33l-.767-.814a11.42 11.42 0 0 0 3.468-3.674h-3.339v-1.043h3.902c.254-.449.437-.846.551-1.19l1.107.182a8.115 8.115 0 0 1-.422 1.008h5.303v1.043zm-1.91 3v-.949h-5.227v.949h5.227zm0 1.91v-.938h-5.227v.938h5.227zm13.43-6.375c-2.375.512-4.684.768-6.926.768h-.979v.591h7.735v2.59h-7.735c-.074 2.492-.574 4.44-1.5 5.842l-.697-.92c.75-1.238 1.125-2.951 1.125-5.139v-3.896h2.186c2.277 0 4.345-.225 6.205-.674l.586.838zm-1.248 3.035v-.791h-6.657v.791h6.657zm1.693 2.848h-5.039l-.111.744h4.599a11.145 11.145 0 0 1-.234 1.857c-.114.508-.307.84-.58.996-.274.157-.754.235-1.442.235-.301 0-.705-.01-1.213-.03l-.322-1.007c.461.031.932.047 1.412.047.414 0 .672-.006.774-.018.105-.012.197-.084.275-.217.078-.133.129-.459.152-.978h-3.638c-.547 1.097-1.514 1.871-2.901 2.32l-.627-.914c1.84-.52 2.756-1.531 2.748-3.035h-1.869v-.903h3.264a3.88 3.88 0 0 0-.398-.586l1.154-.251c.152.207.308.486.469.837h3.527v.903zm10.043-6.24-.434.72c-.332-.144-.806-.293-1.424-.445l.37-.744c.632.148 1.128.304 1.488.469zm-4.406.082c-.352.343-.772.695-1.26 1.054v2.209h-1.067v-1.523c-.382.203-.81.42-1.283.65l-.562-.89c1.406-.625 2.486-1.305 3.24-2.04l.932.54zm6.41 2.39c-.133.617-.317 1.043-.551 1.278-.234.23-.465.345-.691.345a.643.643 0 0 1-.147-.017v4.453h-5.308l.615.597c-1.145.532-2.473.901-3.985 1.108l-.468-.961a13.224 13.224 0 0 0 3.275-.744h-1.752v-4.834h6.287c-.89-.473-1.586-1.071-2.086-1.793l-2.244.181-.094-.908 1.834-.123a8.243 8.243 0 0 1-.492-1.295l1.055-.17c.203.621.39 1.078.562 1.371l3.481-.251.076.908-2.906.205c.34.375.738.683 1.195.926.461.242.75.363.867.363.145 0 .272-.147.381-.44.109-.296.176-.539.199-.726l.897.527zm-2.473 2.602v-.516h-5.449v.516h5.449zm0 1.295v-.563h-5.449v.563h5.449zm0 1.3v-.556h-5.449v.556h5.449zm2.619 1.665-.469.925a22.337 22.337 0 0 0-3.72-.709l.48-.914c1.43.192 2.666.424 3.709.698zm-48.146 16.41h-7.594v.416h-1.084v-4.664a9.71 9.71 0 0 1-1.137.996l-.732-.879c1.262-.93 2.258-1.998 2.988-3.205h-2.619v-1.032h3.205c.227-.441.475-1.037.744-1.787l1.055.276a19.251 19.251 0 0 1-.586 1.511h5.59v1.032h-6.141a17.136 17.136 0 0 1-1.283 1.91v4.383h3.047v-2.801h-2.438v-1.02h2.438v-1.916h1.113v1.916h2.619v1.02h-2.619v2.801h3.434v1.043zm11.988-2.198h-10.406v-1.007h1.752v-4.834h-1.617v-.926h1.617v-1.102h1.095v1.102h4.717v-1.102h1.055v1.102h1.594v.926h-1.594v4.834h1.787v1.007zm-2.842-4.869v-.972h-4.717v.972h4.717zm0 1.928v-.932h-4.717v.932h4.717zm0 1.934v-.961h-4.717v.961h4.717zm2.953 2.818-.545.879c-.98-.559-2.244-1.1-3.791-1.623l.616-.897c1.672.563 2.912 1.11 3.72 1.641zm-6.17-.885c-1.55.895-2.863 1.487-3.937 1.776l-.551-.914a16.278 16.278 0 0 0 3.621-1.594l.867.732zm10.893-8.724a13 13 0 0 1-.58 1.564l-.404.908v7.893h-1.043v-6.047c-.293.422-.545.75-.756.984l-.516-1.09c.91-1.156 1.654-2.628 2.233-4.418l1.066.206zm7.236 8.173c-.086.821-.259 1.377-.521 1.67-.258.293-.615.44-1.072.44h-3.815c-.371 0-.672-.106-.902-.317-.231-.207-.346-.525-.346-.955v-4.236l-.926.287-.117-1.043 1.043-.346v-2.689h1.043v2.338l1.5-.492v-2.901h1.043v2.555l2.689-.879a27.596 27.596 0 0 1-.662 5.232l-.961-.298c.317-1.293.477-2.446.481-3.457l-1.547.492v4.635h-1.043v-4.272l-1.5.463v4.564c0 .063.029.123.088.182.059.055.117.082.176.082h3.586a.513.513 0 0 0 .486-.287c.105-.191.184-.588.234-1.189l1.043.421zm6.205-5.906-.656.791a4.996 4.996 0 0 0-.228-.287v.914h-1.061v.897h1.647v.972h-1.647v3.17c.711-.137 1.264-.269 1.658-.398l.035 1.008c-1.656.414-3.095.714-4.318.902l-.228-.984a20.18 20.18 0 0 0 1.845-.311v-3.387h-1.593v-.972h1.593v-.897h-.931v-.568a2.951 2.951 0 0 1-.41.351l-.551-.902c.746-.605 1.468-1.514 2.168-2.725l1.025.311a.745.745 0 0 1-.146.281c.757.668 1.357 1.279 1.798 1.834zm-.96.434a11.624 11.624 0 0 0-1.366-1.418c-.457.633-.83 1.105-1.119 1.418h2.485zm6.035 2.484h-3.803v3.861a9.871 9.871 0 0 0 1.476-.574l.182.996c-.652.309-1.5.629-2.543.961l-.375-.89c.145-.075.217-.178.217-.311v-9h4.846v4.957zm-1.067-2.976v-.985h-2.736v.985h2.736zm0 1.992v-1.049h-2.736v1.049h2.736zm1.828 5.496-.709.779c-1.402-1.074-2.398-2.639-2.988-4.693l.973-.358c.156.543.306.991.451 1.342.367-.273.768-.693 1.201-1.26l.867.539c-.386.547-.927 1.092-1.623 1.635.442.723 1.051 1.395 1.828 2.016zm-9.111-1.289-.902.293c-.02-.641-.147-1.477-.381-2.508l.914-.217c.18.852.303 1.662.369 2.432zm2.953-2.168c-.14.832-.308 1.508-.504 2.027l-.826-.287c.223-.715.381-1.371.475-1.969l.855.229zm11.221-5.942a10.667 10.667 0 0 1-3.205 2.854l-.516-1.031c.953-.496 1.846-1.264 2.678-2.303l1.043.48zm6.515 1.02h-6.035v-1.043h6.035v1.043zm-6.263 1.201a18.108 18.108 0 0 1-1.19 1.775v6.106h-1.113v-4.822c-.43.425-.83.758-1.201.996l-.469-1.067c1.016-.664 1.996-1.8 2.942-3.41l1.031.422zm6.562 1.834h-1.617v4.863c0 .797-.433 1.196-1.301 1.196a37.71 37.71 0 0 1-1.629-.035l-.398-1.09c.336.007.957.011 1.863.011a.333.333 0 0 0 .223-.093.314.314 0 0 0 .111-.241v-4.611h-3.914v-1.055h6.662v1.055z" fill="#333"/>
    <rect x="211.796" y="51.222" width="92.204" height="36.587" rx="18.294" fill="#F6F2EF"/>
    <path d="M244.994 66.046h-7.283v-.961h2.965a3.888 3.888 0 0 0-.34-.72l1.06-.253c.141.254.284.578.428.973h3.17v.96zm-7.535 1.113h-.709v1.781c.117-.054.273-.144.469-.27l.058 1.085a9.18 9.18 0 0 1-.527.287v3.814a.71.71 0 0 1-.182.475.843.843 0 0 1-.392.281c-.137.047-.399.07-.785.07-.203 0-.391-.007-.563-.023l-.199-1.043c.203.008.375.012.516.012.281 0 .449-.016.503-.047.055-.031.082-.096.082-.193v-2.819c-.378.196-.718.356-1.019.48l-.252-.984c.527-.203.951-.394 1.271-.574V67.16h-1.212v-1.02h1.212v-1.915h1.02v1.916h.709v1.02zm7.582 7.143h-3.404v.369h-.949v-4.858a3.058 3.058 0 0 1-.311.399l-.469-.973c.613-.922 1.11-1.93 1.488-3.023l.909.217c-.129.39-.252.716-.369.978h.896c-.031-.121-.143-.408-.334-.861l.861-.299c.188.383.34.77.457 1.16h1.061v.95h-1.178v1.03h1.031v.926h-1.031v1.02h1.043v.926h-1.043v1.101h1.342v.938zm-2.303-4.91V68.36h-1.101v1.032h1.101zm0 1.945v-1.02h-1.101v1.02h1.101zm0 2.027v-1.101h-1.101v1.101h1.101zm-2.279-6.011c-.594 1.539-1.258 2.775-1.992 3.709.316-.043.603-.108.861-.194.047-.172.076-.39.088-.656l.861.07a4.99 4.99 0 0 1-.767 2.678 4.35 4.35 0 0 1-2.074 1.775l-.504-.832c1.109-.5 1.816-1.187 2.121-2.062-.703.152-1.231.256-1.582.31l-.217-.861c.473-.41.908-.982 1.307-1.717l-.909.112-.17-.745c.418-.472.778-1.373 1.079-2.7l.867.163c-.266.903-.571 1.664-.914 2.285.179-.015.343-.04.492-.076.18-.351.379-.855.598-1.511l.855.252zm16.547-1.02h-5.83c-.156.316-.365.66-.627 1.031h5.631v6.434c0 .266-.073.47-.217.615-.141.145-.356.22-.645.229a31.694 31.694 0 0 1-1.963-.006l-.462-1.067c.507.024 1.158.035 1.951.035.168 0 .252-.091.252-.275v-1.101h-5.35c-.203.847-.619 1.654-1.248 2.42l-1.019-.575c.863-.945 1.294-1.83 1.294-2.654V69.49c-.531.555-1.054.998-1.57 1.33l-.767-.814a11.422 11.422 0 0 0 3.468-3.674h-3.34V65.29h3.903c.254-.45.437-.846.551-1.19l1.107.182c-.102.305-.242.64-.422 1.008h5.303v1.043zm-1.91 3v-.95h-5.227v.95h5.227zm0 1.91v-.937h-5.227v.937h5.227zm13.646-4.324h-2.941v-2.602h2.941v2.602zm-.937-.838v-.914h-1.078v.914h1.078zm-2.649.838h-2.929v-2.602h2.929v2.602zm-.902-.838v-.914h-1.102v.914h1.102zm-2.625 1.787h-1.705l-.1 1.705h1.705c-.019 2.575-.123 4.06-.31 4.46-.188.398-.74.597-1.658.597-.161 0-.391-.006-.692-.018l-.316-1.02c.972 0 1.49-.009 1.552-.028a.333.333 0 0 0 .159-.13c.047-.066.088-.349.123-.849.039-.504.068-1.172.088-2.004h-1.752l.24-3.686h1.641v-1.558h-2.028v-.996h3.053v3.527zm7.412 5.244h-3.035v1.489h-.985v-1.489h-3.105v-.884h3.105v-.65h-2.496v-4.126h5.965v4.125h-2.484v.65h3.035v.885zm-1.535-4.02v-.79h-1.5v.79h1.5zm-2.485 0v-.778h-1.464v.779h1.464zm2.485 1.624v-.809h-1.5v.809h1.5zm-2.485 0v-.809h-1.464v.809h1.464zm9.241-3.053-.633.832a7.502 7.502 0 0 0-.504-.744v6.938h-1.037l-.035-10.489.023-.011 1.031.011v2.215a9.86 9.86 0 0 1 1.155 1.248zm6.744 6.773h-6.873v-1.025h3.047v-2.52h-2.485v-1.007h2.485V67.68h-1.453c-.325.793-.629 1.396-.915 1.81l-.96-.48c.691-1.059 1.209-2.406 1.552-4.043l1.02.164c-.059.37-.176.875-.352 1.512h1.108v-2.432h1.066v2.432h2.461v1.02h-2.461v2.22h2.197v1.008h-2.197v2.52h2.76v1.024zm-9.252-7.529c-.063 1.106-.195 2.102-.399 2.989l-.884-.393c.187-.926.302-1.854.345-2.783l.938.187z" fill="#333"/>
</svg>
