<svg width="127" height="215" fill="none" xmlns="http://www.w3.org/2000/svg">
    <path d="M103.344 172.803c1.199-3.684.599-7.865-1.598-11.05-.899-1.294-2.097-2.489-2.197-4.082-.1-1.692 1.099-3.086 1.698-4.579 2.197-5.177-1.798-10.951-6.492-13.937-.899-.598-1.897-1.195-2.197-2.19-.2-.598 0-1.195 0-1.792.3-3.186-1.199-6.371-3.496-8.661-2.197-2.29-11.984-2.29-14.182 0-2.197 2.29-3.795 5.475-3.495 8.661.1.597.2 1.194 0 1.792-.3.995-1.299 1.592-2.197 2.19-4.794 2.986-8.79 8.76-6.492 13.937.699 1.493 1.798 2.986 1.698 4.579-.1 1.593-1.299 2.788-2.198 4.082-2.197 3.185-2.796 7.366-1.597 11.05.699 2.19 2.097 4.38 1.897 6.769-.3 2.987-3.196 5.675-2.297 8.462.899 2.986 42.346 2.986 43.345 0 .899-2.887-1.998-5.475-2.297-8.462 0-2.389 1.398-4.579 2.097-6.769z" fill="#DF357F"/>
    <path d="M104.442 173.101c1.298-4.28.499-8.86-2.197-12.543-.599-.796-1.498-1.792-1.498-2.887-.1-1.194.699-2.29 1.298-3.385.899-1.791 1.298-3.683.999-5.674-.6-3.982-3.396-7.466-6.492-9.756-.799-.597-1.998-1.095-2.597-1.891-.599-.896 0-2.589-.1-3.684-.2-2.19-1.098-4.28-2.397-6.072-.898-1.195-1.797-2.19-3.295-2.788-1.399-.497-2.897-.697-4.395-.896-2.796-.199-6.292-.099-8.689 1.394-1.498.996-2.696 2.887-3.495 4.48-.4.896-.8 1.891-.999 2.887-.2 1.194-.1 2.389 0 3.584 0 1.294-1.099 1.692-1.997 2.289a25.637 25.637 0 0 0-2.597 1.991c-1.498 1.394-2.797 2.987-3.596 4.878-.799 1.792-1.298 3.684-1.098 5.675.1.896.3 1.792.699 2.687.5 1.096 1.198 2.091 1.498 3.186.6 2.19-1.798 4.082-2.697 5.874a13.807 13.807 0 0 0-1.498 6.271c0 2.389.7 4.38 1.598 6.571.4.995.9 2.09.9 3.285.1 1.194-.4 2.289-.9 3.384-.898 1.892-2.996 5.774-.499 7.367 1.099.697 2.497.797 3.795.996 2.197.298 4.395.497 6.492.696 5.493.299 11.086.399 16.579.299 4.594-.099 9.388-.199 13.982-1.095 1.099-.199 2.497-.398 3.296-1.195.899-.895.699-2.488.499-3.484-.499-1.991-1.798-3.584-2.197-5.575-.699-2.389.799-4.778 1.598-6.869.499-1.393-1.698-1.991-2.197-.597-.699 2.091-1.798 3.982-1.998 6.172-.1 1.892.799 3.684 1.598 5.376.4.796.799 1.692.899 2.588v.697c0 .498-.2.1 0 .1s0-.1 0 0c0 0 .2-.1 0 0-.1 0-.2.099-.2.099.3-.099-.399.1-.499.199-3.496 1.095-7.39 1.095-10.986 1.195-5.193.199-10.487.299-15.68.099-3.995-.099-8.19-.199-12.185-1.095-.499-.099-1.098-.199-1.598-.398.3.1-.2-.199-.3-.199.5-.199-.099.199 0 0 0-.099.1.697.1 0-.1-1.991 1.1-3.683 1.798-5.475.8-1.991.8-3.883.1-5.874-.699-2.09-1.697-3.882-1.897-6.172-.2-2.09.2-4.28 1.198-6.172.9-1.792 2.597-3.285 2.996-5.376.4-2.09-.799-3.683-1.697-5.475-1.698-3.683.399-7.665 2.996-10.353.699-.697 1.498-1.394 2.397-1.991.799-.498 1.598-.996 2.297-1.593 1.698-1.593.799-3.584.998-5.575.3-2.19 1.399-4.38 2.997-5.873.799-.797 1.897-1.095 2.896-1.294 2.697-.498 5.992-.498 8.59.398 1.397.498 2.296 1.792 2.995 3.086.6.995.999 1.991 1.199 3.086.2 1.195.1 2.19 0 3.385-.1 2.19 1.498 3.185 3.096 4.28 1.698 1.095 3.196 2.489 4.294 4.182 1.099 1.493 1.898 3.285 1.998 5.276.1 2.19-.999 3.683-1.798 5.674-.799 1.891-.6 3.584.5 5.276 1.198 1.892 2.496 3.484 2.996 5.675.499 2.09.399 4.181-.3 6.271-.2 1.195 1.898 1.792 2.397.398z" fill="#333"/>
    <path d="M72.782 183.056c1.498-4.579.7-9.755-1.998-13.737-1.098-1.593-2.596-3.186-2.696-5.078-.1-2.09 1.398-3.882 2.197-5.773 2.797-6.372-2.197-13.738-8.19-17.422-1.098-.697-2.396-1.493-2.696-2.688-.2-.696 0-1.493 0-2.289.4-3.982-1.498-7.964-4.294-10.851-2.797-2.887-5.394-4.978-8.89-6.969-3.495 1.991-6.092 3.982-8.888 6.969-2.796 2.887-4.694 6.869-4.294 10.851.1.796.2 1.493 0 2.289-.3 1.295-1.598 1.991-2.697 2.688-5.892 3.684-10.886 10.951-8.19 17.422.8 1.891 2.297 3.683 2.198 5.773-.1 1.991-1.598 3.485-2.697 5.078-2.696 3.982-3.495 9.158-1.997 13.737.898 2.788 2.596 5.476 2.397 8.363-.4 3.683-3.995 6.968-2.897 10.552 1.099 3.783 52.833 3.783 53.932 0 1.098-3.584-2.497-6.869-2.897-10.552 0-2.887 1.698-5.575 2.597-8.363z" fill="#fff"/>
    <path d="M73.88 183.355c1.599-4.977.7-10.552-2.296-14.932-.7-.996-1.499-1.892-1.998-2.987-.6-1.493-.2-2.787.5-4.181 1.098-2.19 2.097-4.181 2.097-6.67 0-4.878-2.996-9.358-6.492-12.444a25.637 25.637 0 0 0-2.597-1.991c-1.198-.796-2.596-1.393-2.596-3.086 0-1.294.2-2.489.1-3.783-.2-1.294-.5-2.488-1.099-3.683-2.297-5.376-7.59-9.457-12.584-12.344-.3-.199-.799-.199-1.099 0-6.491 3.783-14.381 10.154-13.682 18.516.1 1.195.4 2.19-.5 3.086-.699.697-1.697 1.095-2.496 1.692-1.598 1.096-2.997 2.39-4.295 3.883-2.297 2.688-4.095 6.073-4.294 9.756-.1 1.792.4 3.584 1.198 5.176.899 1.892 2.397 3.783 1.398 5.874-.799 1.891-2.397 3.285-3.296 5.177-.898 1.791-1.398 3.683-1.697 5.674-.2 1.991-.1 3.982.4 5.873.498 2.091 1.597 3.982 2.196 6.073.7 2.091.4 3.982-.499 5.973-.7 1.593-1.698 3.186-1.997 4.978-.3 1.592-.3 3.484 1.298 4.38.999.497 2.197.796 3.296.995 3.895.697 7.89.896 11.785 1.095 9.787.498 19.675.498 29.462-.398 2.897-.299 6.292-.398 8.889-1.593 1.498-.697 1.797-2.09 1.598-3.683-.4-3.783-3.795-6.77-2.897-10.752.5-1.791 1.499-3.683 2.198-5.674.5-1.394-1.698-1.991-2.198-.597-1.298 3.783-3.295 7.167-1.797 11.149.599 1.593 1.498 3.087 2.097 4.779.3.697.5 1.493.4 2.29 0 .199-.2.597-.1.696 0 0 .1-.298.1-.199 0 0-.2.1.1 0-.1 0-.1.1-.2.1s-.1.099-.2.099c-.3.1.1 0-.1.1-.5.199-.999.299-1.398.398-1.398.299-2.797.498-4.295.697-9.088.995-18.376.995-27.465.796-4.194-.099-8.389-.298-12.584-.796-1.398-.199-2.796-.398-4.095-.697-.2-.099-.499-.099-.699-.199-.1 0-.699-.299-.4-.1-.199-.099-.299-.099-.399-.199-.2-.099.1 0 0 0 0 0-.1 0-.1-.099.1-.199 0 .199.1.099 0 0 0 .299 0 0 0-.398-.1-.796-.1-1.194.1-.896.4-1.693.7-2.489.699-1.593 1.598-3.086 2.097-4.778 1.199-4.082-1.398-7.467-2.397-11.349-.999-3.883-.3-8.163 1.898-11.548.998-1.593 2.397-2.887 2.896-4.778.5-1.792-.1-3.485-.899-5.077-.899-1.693-1.798-3.286-1.898-5.277-.1-1.792.4-3.484 1.1-5.077 1.597-3.384 4.393-6.072 7.59-8.163 1.398-.896 2.796-1.991 2.996-3.783.1-.995-.1-1.991-.2-2.986 0-.996.2-1.991.4-2.987 1.098-3.882 4.194-6.968 7.29-9.457 1.498-1.294 3.196-2.29 4.894-3.285h-1.099c4.295 2.489 8.889 5.973 11.286 10.453.6 1.095.999 2.289 1.198 3.484.3 1.394.1 2.588 0 3.982-.1 2.588 1.698 3.783 3.696 4.977 3.895 2.489 7.49 6.67 7.99 11.449.3 2.588-.7 4.479-1.798 6.67-1.099 2.09-1.398 4.181-.3 6.371.6 1.194 1.598 2.289 2.297 3.384a13.766 13.766 0 0 1 1.798 3.883c.799 2.887.799 5.774-.1 8.661-.699 1.394 1.498 1.991 1.898.597z" fill="#333"/>
    <path d="M58.8 178.278a39.568 39.568 0 0 0-12.784 8.96c-.699.696-.799 1.095-.799 1.891v24.788c0 1.394 2.197 1.493 2.197 0v-25.485c-.1.299-.2.498-.3.797 3.596-3.883 7.89-6.969 12.785-9.059 1.398-.498.2-2.489-1.099-1.892z" fill="#333"/>
    <path d="M47.514 188.432a89.115 89.115 0 0 1-.6-19.313c.1-1.393-2.196-1.393-2.196 0-.5 6.67-.2 13.241.699 19.91.1 1.394 2.297.797 2.097-.597zM79.973 203.663c.5-13.638.6-27.276.899-40.915.1-3.185.1-6.371.3-9.557 0-1.393-2.198-1.393-2.198 0-.5 13.639-.599 27.277-.899 40.916-.1 3.185-.1 6.371-.3 9.556-.1 1.494 2.098 1.494 2.198 0z" fill="#333"/>
    <path d="M80.472 170.314c5.693-3.186 11.685-5.674 17.977-7.367 1.399-.398.8-2.588-.599-2.19-6.392 1.792-12.684 4.38-18.476 7.666-1.299.696-.2 2.687 1.098 1.891z" fill="#333"/>
    <path d="M92.158 162.35c-.9-3.484-1.698-6.869-2.597-10.353-.4-1.394-2.497-.797-2.197.597.898 3.484 1.697 6.869 2.596 10.353.3 1.394 2.497.797 2.198-.597z" fill="#333"/>
    <path d="M120.621 112.874c2.868 0 5.194-2.318 5.194-5.177 0-2.859-2.326-5.177-5.194-5.177s-5.193 2.318-5.193 5.177c0 2.859 2.325 5.177 5.193 5.177z" fill="#fff"/>
    <path d="M116.527 107.697c0-1.692 1.098-3.285 2.596-3.783 1.698-.597 3.496-.1 4.694 1.294.999 1.294 1.199 3.186.3 4.579-.899 1.394-2.597 2.191-4.195 1.892-1.997-.299-3.395-1.991-3.395-3.982 0-1.394-2.298-1.493-2.198 0 0 2.688 1.698 4.977 4.195 5.973 2.397.896 5.393.099 6.991-1.892 1.698-2.09 1.998-4.977.599-7.267-1.398-2.289-4.094-3.384-6.691-2.986-2.996.498-5.094 3.285-5.094 6.172-.1 1.493 2.198 1.493 2.198 0z" fill="#333"/>
    <path d="M104.442 113.172H66.59c-2.896 0-5.293-2.389-5.293-5.276s2.397-5.276 5.293-5.276h37.852c2.896 0 5.293 2.389 5.293 5.276s-2.397 5.276-5.293 5.276z" fill="#fff"/>
    <path d="M104.442 111.978H67.489c-.999 0-1.998 0-2.896-.598-2.697-1.593-2.697-5.575 0-7.167 1.697-.996 4.194-.598 6.092-.598h33.957c3.096.1 5.193 3.385 3.695 6.172-.999 1.394-2.397 2.191-3.895 2.191-1.398 0-1.498 2.289 0 2.19 3.196-.1 5.892-2.39 6.392-5.575.399-2.987-1.498-5.973-4.395-6.969-1.997-.697-4.594-.298-6.691-.298H73.98c-2.397 0-4.794-.1-7.191 0-2.397.099-4.694 1.294-5.793 3.384-1.398 2.688-.699 6.172 1.798 8.064 2.197 1.692 4.994 1.394 7.49 1.394H82.27c7.29 0 14.582.199 21.872 0h.4c1.298.099 1.298-2.19-.1-2.19z" fill="#333"/>
    <path d="M16.853 63.098H67.59a3.787 3.787 0 0 1 3.795 3.783 3.787 3.787 0 0 1-3.795 3.783h-3.596c-2.197.299-3.895 1.792-3.895 3.683 0 2.091 1.998 3.783 4.495 3.783h10.786a3.787 3.787 0 0 1 3.795 3.783c0 2.09-1.698 3.684-3.795 3.684H30.536a3.787 3.787 0 0 1-3.795-3.783 3.787 3.787 0 0 1 3.795-3.783h.799c2.497 0 4.494-1.693 4.494-3.783 0-1.892-1.698-3.484-3.895-3.683h-15.08a3.787 3.787 0 0 1-3.796-3.783c.1-1.991 1.798-3.684 3.795-3.684z" fill="#fff"/>
    <path d="M16.853 64.193h50.835c2.697.2 3.696 3.883 1.099 5.078-1.298.597-3.196.099-4.494.199-2.397.1-4.694 1.791-4.994 4.18-.4 2.49 1.498 4.58 3.895 5.277 1.199.298 2.497.199 3.695.199 2.897 0 5.793-.2 8.69 0 3.096.199 3.595 4.778.399 5.276-.4.1-.8 0-1.199 0h-6.491c-12.385 0-24.769.1-37.153 0-1.099 0-2.097-.299-2.697-1.294-.699-1.095-.4-2.588.7-3.385.998-.796 2.297-.498 3.395-.597 2.397-.398 4.594-2.19 4.594-4.779 0-2.488-2.297-4.48-4.694-4.778-2.596-.299-5.393 0-7.99 0H19.25c-.799 0-1.798.1-2.597 0-3.295-.597-2.896-5.177.2-5.376 1.398-.1 1.498-2.29 0-2.19-2.796.1-5.093 2.39-4.894 5.177.2 2.588 2.397 4.48 4.894 4.58 2.896.099 5.793 0 8.69 0h5.192c1.399 0 2.797.099 3.596 1.393.799 1.194.2 2.489-.899 3.285-1.099.697-2.297.498-3.496.597-2.696.399-4.494 2.788-4.194 5.476.3 2.488 2.397 4.18 4.794 4.28h41.147c1.399 0 2.697.1 4.095 0 2.797-.199 4.894-2.787 4.494-5.475-.3-2.489-2.397-4.181-4.893-4.28-3.096-.1-6.292 0-9.388 0-1.598 0-3.396 0-4.295-1.494-.799-1.195-.2-2.588.999-3.285.899-.498 1.698-.498 2.696-.498 1.998 0 3.895.2 5.493-1.194 2.098-1.792 2.198-5.177.2-7.069-1.598-1.592-3.495-1.393-5.493-1.393H16.853c-1.398-.1-1.398 2.09 0 2.09z" fill="#333"/>
    <path d="M4.868 70.664a3.79 3.79 0 0 0 3.796-3.783 3.79 3.79 0 0 0-3.796-3.783 3.79 3.79 0 0 0-3.795 3.783 3.79 3.79 0 0 0 3.795 3.783z" fill="#fff"/>
    <path d="M9.762 66.881a4.857 4.857 0 0 0-3.196-4.579c-1.897-.697-4.094-.1-5.393 1.394-1.298 1.593-1.598 3.882-.5 5.674 1.1 1.792 3.097 2.688 5.194 2.29 2.198-.398 3.795-2.589 3.895-4.779 0-.597-.499-1.194-1.098-1.095-.6 0-1.099.498-1.099 1.095v.299c0 .2 0 .1 0 0 0 .2-.1.299-.1.498 0 .1-.1.199-.1.298 0 0 .1-.199 0 0-.1.2-.2.299-.3.498-.199.299.1-.1 0 0l-.199.2c-.1.099-.4.298-.2.198-.1.1-.3.2-.4.299-.1 0-.1.1-.199.1-.1.1-.1.1 0 0 0 0-.1 0-.1.1-.2.099-.3.099-.5.099H4.57c-.2 0 .3.1-.1 0-.1 0-.2 0-.3-.1-.1 0-.2-.1-.3-.1 0 0-.199-.099 0 0-.099-.099-.299-.099-.399-.199-.1 0-.1-.1-.2-.1a1497.38 1497.38 0 0 0-.4-.398c.101.2.001 0 .001 0-.1-.099-.1-.198-.2-.198 0-.1-.2-.498-.2-.3-.1-.198-.1-.298-.2-.497v-.199c0-.1 0-.1 0 0V66.682s.1-.398 0-.1v-.198c0-.2.1-.3.1-.498.1-.299-.1.199 0-.1 0-.1.1-.199.1-.298 0-.1.1-.1.1-.2 0 0 .2-.199 0 0 .1-.099.2-.199.3-.398l.1-.1.1-.099c.2-.1.3-.199.5-.298 0 0-.2.1 0 0 .1 0 .199-.1.299-.1h.2s.3-.1.2 0H5.168c.199 0 .399.1.598.2.3.099-.1-.1.1 0 .1.099.2.099.3.198.1 0 .1.1.2.1s.1.1.2.1c-.1-.1-.1-.1 0 0l.299.298c.2.2-.1-.2.1.1.1.1.1.199.2.199.1.1.1.199.1.298.1.2 0-.1 0 .1.1.199.1.398.2.597 0 0 0 .2 0 0v.398c0 .598.499 1.195 1.098 1.095.699 0 1.198-.497 1.198-1.095z" fill="#333"/>
    <g opacity=".5" fill="#fff">
        <path opacity=".5" d="M37.2 6.4a3.2 3.2 0 1 0 0-6.4 3.2 3.2 0 0 0 0 6.4zM37.2 19.5a3.2 3.2 0 1 0 0-6.4 3.2 3.2 0 0 0 0 6.4zM37.2 32.6a3.2 3.2 0 1 0 0-6.4 3.2 3.2 0 0 0 0 6.4zM37.2 45.7a3.2 3.2 0 1 0 0-6.4 3.2 3.2 0 0 0 0 6.4zM37.2 58.8a3.2 3.2 0 1 0 0-6.4 3.2 3.2 0 0 0 0 6.4zM50.6 6.4a3.2 3.2 0 1 0 0-6.4 3.2 3.2 0 0 0 0 6.4zM50.6 19.5a3.2 3.2 0 1 0 0-6.4 3.2 3.2 0 0 0 0 6.4zM50.6 32.6a3.2 3.2 0 1 0 0-6.4 3.2 3.2 0 0 0 0 6.4zM50.6 45.7a3.2 3.2 0 1 0 0-6.4 3.2 3.2 0 0 0 0 6.4zM50.6 58.8a3.2 3.2 0 1 0 0-6.4 3.2 3.2 0 0 0 0 6.4zM63.9 6.4a3.2 3.2 0 1 0 0-6.4 3.2 3.2 0 0 0 0 6.4zM63.9 19.5a3.2 3.2 0 1 0 0-6.4 3.2 3.2 0 0 0 0 6.4zM63.9 32.6a3.2 3.2 0 1 0 0-6.4 3.2 3.2 0 0 0 0 6.4zM63.9 45.7a3.2 3.2 0 1 0 0-6.4 3.2 3.2 0 0 0 0 6.4zM63.9 58.8a3.2 3.2 0 1 0 0-6.4 3.2 3.2 0 0 0 0 6.4zM77.3 6.4a3.2 3.2 0 1 0 0-6.4 3.2 3.2 0 0 0 0 6.4zM77.3 19.5a3.2 3.2 0 1 0 0-6.4 3.2 3.2 0 0 0 0 6.4zM77.3 32.6a3.2 3.2 0 1 0 0-6.4 3.2 3.2 0 0 0 0 6.4zM77.3 45.7a3.2 3.2 0 1 0 0-6.4 3.2 3.2 0 0 0 0 6.4zM77.3 58.8a3.2 3.2 0 1 0 0-6.4 3.2 3.2 0 0 0 0 6.4zM90.7 6.4a3.2 3.2 0 1 0 0-6.4 3.2 3.2 0 0 0 0 6.4zM90.7 19.5a3.2 3.2 0 1 0 0-6.4 3.2 3.2 0 0 0 0 6.4zM90.7 32.6a3.2 3.2 0 1 0 0-6.4 3.2 3.2 0 0 0 0 6.4zM90.7 45.7a3.2 3.2 0 1 0 0-6.4 3.2 3.2 0 0 0 0 6.4zM90.7 58.8a3.2 3.2 0 1 0 0-6.4 3.2 3.2 0 0 0 0 6.4z"/>
    </g>
</svg>
