<svg xmlns="http://www.w3.org/2000/svg" width="768" height="1097" fill="none" viewBox="0 0 768 1097">
    <path fill="#F6F2EF" d="M490.052 562.88c.8-2.501.4-5.303-1.1-7.504-.6-.901-1.399-1.701-1.499-2.802-.1-1.101.7-2.101 1.199-3.102 1.5-3.502-1.199-7.404-4.399-9.506-.6-.4-1.299-.8-1.499-1.5-.1-.401 0-.801 0-1.201.2-2.201-.8-4.303-2.3-5.904-1.5-1.601-8.098-1.601-9.598 0s-2.6 3.703-2.3 5.904c0 .4.1.8 0 1.201-.2.7-.9 1.1-1.499 1.5-3.2 2.002-5.899 6.004-4.4 9.506.4 1.001 1.2 2.001 1.2 3.102-.1 1.101-.9 1.901-1.5 2.802-1.499 2.101-1.899 5.003-1.099 7.504.5 1.501 1.399 3.002 1.299 4.603-.2 2.001-2.099 3.802-1.599 5.803.6 2.102 28.594 2.102 29.194 0 .6-1.901-1.4-3.702-1.6-5.803.1-1.601 1-3.102 1.5-4.603z"/>
    <path fill="#fff" d="M491.152 563.181c.9-3.002.4-6.104-1.4-8.605-.4-.501-1-1.101-1.1-1.801-.1-.801.5-1.601.8-2.302.6-1.3.8-2.601.7-4.002-.4-2.702-2.199-5.103-4.399-6.704-.5-.4-1.7-.801-1.9-1.501-.2-.6.1-1.501 0-2.201-.2-1.701-.9-3.202-1.899-4.503-1.3-1.701-3.2-2.201-5.299-2.301-1.9-.1-4.299-.1-5.999 1-2.3 1.401-3.5 4.803-3.3 7.405.1 1-.499 1.2-1.199 1.701-.6.4-1.2.9-1.7 1.3-1.1 1.001-2 2.202-2.599 3.503-.5 1.1-.8 2.401-.8 3.602.1 1.601.999 2.601 1.399 4.102.5 1.501-1.099 2.702-1.699 4.003-.7 1.3-1 2.801-1 4.302 0 1.601.4 3.002 1 4.503.2.6.5 1.201.6 1.901.1 1.001-.2 1.801-.7 2.702-.7 1.4-1.8 4.002-.1 5.103.7.5 1.699.6 2.499.7 1.5.2 3.1.4 4.599.5 3.7.2 7.499.301 11.298.2 3.4-.1 6.999-.1 10.198-.9 1.2-.3 2-.801 2.2-2.101.2-1.601-.7-2.902-1.3-4.303-.6-1.901.5-3.402 1.1-5.303.5-1.401-1.7-2.001-2.2-.6-.4 1.3-1.099 2.401-1.299 3.802-.2 1.401.199 2.501.799 3.702.3.6.6 1.101.7 1.701 0 .1.1 1.101 0 1.101 0 0 .1-.3.2-.4h-.1c-.2 0 .2-.101 0 0-.1 0-.2.1-.3.1-2.399.6-4.899.7-7.298.8-3.5.2-6.999.2-10.398.1-2.7-.1-5.499-.1-8.199-.7-.4-.1-.7-.2-1.1-.3.2.1-.199-.101-.199-.101.2-.3.099 1.001.199 0 .2-1.2.8-2.201 1.3-3.402.5-1.3.5-2.601.1-3.902-.4-1.301-1.1-2.401-1.3-3.802-.2-1.501.001-3.102.6-4.403.6-1.201 1.6-2.101 2-3.302.4-1.301 0-2.501-.6-3.702-1.4-2.602-.6-5.103 1.4-7.204.9-.901 1.899-1.501 2.899-2.302 1.3-1 1.2-2.001 1.1-3.502 0-1.401.6-2.801 1.4-4.002.6-.801 1.2-1.101 2.199-1.401 1.8-.4 4-.4 5.699.3 1 .4 1.7 1.501 2.1 2.502.4.8.6 1.701.6 2.601 0 .801-.2 1.501.1 2.302.6 1.3 2.099 1.901 3.099 2.801 1.1 1.001 2.1 2.102 2.6 3.502.6 1.401.499 2.802-.2 4.103-.7 1.301-1.3 2.601-.8 4.102.5 1.501 1.799 2.602 2.299 4.103.5 1.601.5 3.202 0 4.803 0 1.4 2.2 2.001 2.6.6z"/>
    <path fill="#F6F2EF" d="M473.556 583.893c.3-7.605.5-26.716.8-34.221l-.8 34.221z"/>
    <path fill="#fff" d="M474.657 583.893c.4-11.407.4-22.813.8-34.22 0-1.401-2.2-1.401-2.2 0-.4 11.407-.4 22.813-.8 34.22-.1 1.401 2.2 1.401 2.2 0z"/>
    <path fill="#F6F2EF" d="M474.256 560.578c3.9-2.201 4.2-2.301 8.5-3.501l-8.5 3.501z"/>
    <path fill="#fff" d="M474.856 561.58c.8-.4 1.6-.901 2.299-1.301.3-.2.6-.3.9-.5.1-.1.3-.1.4-.2.1 0 .1-.1.2-.1.3-.1-.2.1 0 0 1.4-.601 2.9-1.001 4.4-1.401 1.4-.4.8-2.602-.6-2.201-1.5.4-3 .8-4.5 1.4-1.5.601-2.899 1.401-4.299 2.202-1.2.9-.1 2.801 1.2 2.101z"/>
    <path fill="#F6F2EF" d="M606.33 217.974c.8-2.302.4-5.003-1-7.004-.6-.801-1.3-1.601-1.4-2.602-.1-1.101.7-2.001 1.1-2.902 1.4-3.302-1.1-7.004-4.099-8.905-.6-.4-1.2-.701-1.4-1.401-.1-.4 0-.8 0-1.201.2-2.001-.8-4.002-2.2-5.503-1.399-1.501-7.598-1.501-8.998 0-1.4 1.501-2.399 3.502-2.199 5.503 0 .401.1.801 0 1.201-.2.6-.8 1.001-1.4 1.401-3 1.901-5.499 5.603-4.099 8.905.4 1.001 1.199 1.901 1.099 2.902-.1 1.001-.799 1.801-1.399 2.602-1.4 2.001-1.8 4.702-1 7.004.5 1.401 1.3 2.801 1.2 4.302-.2 1.901-2 3.602-1.5 5.403.6 1.902 26.895 1.902 27.395 0 .5-1.801-1.3-3.502-1.5-5.403 0-1.501.9-2.901 1.4-4.302z"/>
    <path fill="#fff" d="M607.329 218.275c.8-2.602.4-5.604-1.099-7.905-.4-.6-1.1-1.201-1.2-2.001-.1-.701.5-1.401.8-2.102.6-1.2.8-2.401.7-3.702-.3-2.701-2.2-5.003-4.3-6.604-.499-.3-1.499-.7-1.599-1.3-.2-.601.1-1.401.1-2.002-.1-1.501-.8-2.901-1.7-4.102-1.3-1.701-2.899-2.201-4.999-2.402-1.8-.2-4.099-.1-5.699.901-2.199 1.301-3.399 4.403-3.199 6.904 0 .901-.1 1.101-.8 1.601-.5.3-1 .7-1.4 1.101-1.1.9-2.099 2.101-2.799 3.402-.5 1-.9 2.101-.9 3.302 0 1.601.7 2.601 1.3 4.102.599 1.501-.7 2.402-1.4 3.602-.7 1.301-1.1 2.802-1.1 4.303 0 1.301.2 2.501.7 3.702.7 1.701 1.2 2.902.3 4.703-.6 1.401-1.9 3.902-.2 5.103.7.5 1.6.6 2.399.7 1.4.201 2.8.301 4.2.401 3.599.2 7.198.3 10.698.2 3.199-.1 6.598-.1 9.698-.801 1.1-.3 1.999-.8 2.099-2.001.1-1.401-.6-2.601-1.199-3.902-.9-2.001 0-3.402.599-5.203.5-1.401-1.699-2.002-2.199-.601-.4 1.201-1.1 2.402-1.2 3.803-.1 1.2.3 2.301.8 3.402.3.5.6 1.1.7 1.701v.7c-.1-.1.3-.4.2-.3.3-.1 0 0-.1 0 .2 0-.2.1-.3.1-2.2.6-4.599.6-6.899.7-3.299.1-6.499.2-9.798 0-2.5-.1-5.099-.1-7.599-.6-.299-.1-.599-.2-.999-.3.1 0-.1 0-.1-.1 0 .2.2.1.1.1.4.2.1.5.2-.2.1-1.101.899-2.202 1.299-3.202.4-1.201.3-2.402-.1-3.602-.399-1.301-1.099-2.502-1.199-3.903-.1-1.301.2-2.701.799-3.902.5-1.001 1.4-1.801 1.7-2.802.4-1.301 0-2.401-.6-3.602-1.299-2.501-.4-4.803 1.5-6.804.9-.901 2-1.401 2.899-2.201 1-1.001.8-1.901.8-3.202s.5-2.602 1.3-3.602c.6-.901 1.2-1.101 2.2-1.301 1.599-.3 3.599-.3 5.099.2.999.4 1.699 1.501 2.099 2.501.4.801.5 1.701.4 2.602 0 .6-.1 1.201.1 1.801.5 1.201 1.8 1.701 2.8 2.502 1.099.9 2.199 2.101 2.699 3.502.5 1.401.3 2.701-.4 4.002-.6 1.201-1.1 2.402-.6 3.702.5 1.301 1.6 2.302 2.1 3.602.5 1.501.5 3.002.1 4.503-.3 1.601 1.8 2.101 2.199.801z"/>
    <path fill="#F6F2EF" d="M584.334 221.876c.9-2.902.5-6.204-1.2-8.705-.7-1.001-1.6-2.001-1.7-3.202-.1-1.301.9-2.401 1.4-3.602 1.7-4.103-1.399-8.705-5.199-11.107-.7-.4-1.5-.9-1.7-1.701-.099-.5 0-1 0-1.401.3-2.501-.999-5.003-2.699-6.904-1.8-1.801-3.399-3.102-5.599-4.402-2.199 1.3-3.799 2.601-5.599 4.402-1.8 1.801-2.999 4.303-2.699 6.904 0 .501.2 1.001 0 1.401-.2.801-1 1.301-1.7 1.701-3.799 2.302-6.899 7.004-5.199 11.107.5 1.201 1.4 2.301 1.4 3.602-.1 1.201-1 2.201-1.7 3.202-1.7 2.501-2.2 5.803-1.2 8.705.6 1.801 1.7 3.502 1.5 5.303-.2 2.402-2.499 4.503-1.8 6.704.7 2.402 33.494 2.402 34.194 0 .7-2.301-1.6-4.402-1.8-6.704-.4-1.901.7-3.602 1.3-5.303z"/>
    <path fill="#fff" d="M585.434 222.177c1-3.102.6-6.704-1.3-9.406-.4-.7-1-1.301-1.4-2.001-.5-1.001-.2-1.801.3-2.601.7-1.401 1.3-2.802 1.3-4.403-.1-3.102-1.9-5.904-4.199-7.905-.5-.5-1.1-.9-1.7-1.301-.9-.6-1.6-.9-1.5-2.001.1-1.601-.1-3.102-.699-4.603-1.5-3.502-4.9-6.103-8.099-8.004-.3-.2-.8-.2-1.1 0-4.199 2.401-9.198 6.504-8.898 11.907 0 .7.3 1.301-.2 1.901-.3.4-.9.6-1.3.9-1.099.801-2.199 1.701-3.099 2.702-1.5 1.801-2.6 3.902-2.8 6.204-.1 1.1.1 2.201.5 3.202.5 1.2 1.6 2.401 1.2 3.802-.3 1.201-1.5 2.201-2.1 3.302-.599 1.101-.999 2.401-1.199 3.702-.2 1.201-.1 2.402.1 3.602.3 1.501 1 2.802 1.399 4.203.5 1.301.4 2.401-.1 3.702-.5 1.101-1.099 2.201-1.399 3.402-.5 2.502.9 3.402 2.999 3.802 2.5.501 5.099.601 7.599.801 6.298.3 12.597.3 18.896-.2 1.9-.2 4.399-.2 6.099-1.201 1.4-.901 1-3.002.5-4.303-.5-1.3-1.4-2.501-1.5-3.902.1-2.201 1.1-3.802 1.7-5.303.5-1.401-1.7-2.001-2.2-.6-.8 2.401-2.1 4.602-1.2 7.104.3 1 .9 1.901 1.3 2.801.2.601.3 1.101.4 1.701 0 .501-.2.201 0 .201.4 0 0-.201.1-.1 0-.201.2-.101 0 0-.3.1.1 0-.2.1l-.9.3c-.9.2-1.799.3-2.699.4-5.699.6-11.598.6-17.297.5-2.599-.1-5.199-.2-7.798-.5-.8-.1-1.7-.2-2.5-.4-.2 0-.7-.2-.7-.2l-.2-.1c.1 0 0 .1.1.2.2 0 0 .3 0-.2 0-.301 0-.601.1-.901.1-.5.4-1.001.6-1.601.5-1 1-2.001 1.2-3.202.4-2.601-1.3-4.803-1.8-7.304-.5-2.502.2-5.003 1.7-7.004 1.5-2.102 2.099-3.703.9-6.104-.6-1.301-1.2-2.401-1.1-3.802.1-1.201.6-2.402 1.2-3.502.7-1.101 1.599-2.102 2.599-2.902 1-.801 2.3-1.301 3-2.301.799-1.101.499-2.202.499-3.503 0-1.4.6-2.801 1.4-3.902 1.6-2.401 3.999-4.202 6.499-5.603h-1.1c3.4 2.001 7.699 5.203 7.799 9.505 0 .801-.2 1.701 0 2.502.2.9.9 1.501 1.599 2.001 1.6 1.101 3.1 2.201 4.3 3.902.999 1.501 1.699 3.402 1.299 5.204-.4 1.901-1.999 3.302-1.699 5.303.2 1.901 1.799 3.202 2.599 4.803.9 2.001 1 4.302.4 6.503-.8 1.401 1.3 2.002 1.8.701z"/>
    <path fill="#F6F2EF" d="M575.838 219.375c-3.1 1.401-6 3.402-8.2 5.903v16.21"/>
    <path fill="#fff" d="M575.237 218.475c-3.1 1.401-6 3.302-8.199 5.803-.8.901-.6 1.801-.6 2.902v14.409c0 1.4 2.2 1.5 2.2 0v-16.21c-.1.3-.2.5-.3.8 2.299-2.501 4.999-4.402 7.999-5.703 1.3-.7.2-2.602-1.1-2.001z"/>
    <path fill="#F6F2EF" d="M567.638 225.478c-.6-4.102-.7-8.305-.4-12.407l.4 12.407z"/>
    <path fill="#fff" d="M568.638 225.179c-.6-4.003-.6-8.105-.4-12.108.1-1.4-2.2-1.4-2.2 0-.3 4.303-.1 8.506.5 12.708.1.6.9.901 1.4.801.6-.201.8-.801.7-1.401z"/>
    <path fill="#F6F2EF" d="M590.733 237.586c.2-7.105.5-25.015.7-32.12l-.7 32.12z"/>
    <path fill="#fff" d="M591.833 237.586c.4-10.706.4-21.413.7-32.119 0-1.401-2.2-1.401-2.2 0-.4 10.706-.399 21.413-.699 32.119-.1 1.501 2.199 1.501 2.199 0z"/>
    <path fill="#F6F2EF" d="M591.433 215.772c3.6-2.001 3.1-1.801 7.1-2.901l-7.1 2.901z"/>
    <path fill="#fff" d="M592.033 216.774l2.1-1.201c.2-.1.4-.2.7-.4.1-.1.2-.1.3-.1.1 0 .1 0 .2-.1.2-.1-.2.1-.1 0 1.2-.401 2.4-.801 3.7-1.101.6-.2 1-.8.8-1.401-.2-.6-.8-1-1.4-.8-1.2.3-2.5.6-3.7 1.1-1.3.501-2.4 1.201-3.6 1.901-.5.301-.7 1.001-.4 1.501.2.701.8.901 1.4.601z"/>
    <path fill="#F6F2EF" stroke="#fff" stroke-miterlimit="10" stroke-width="2" d="M721.508 2.545h-16.196V76.99h16.196V2.545z"/>
    <path stroke="#fff" stroke-miterlimit="10" stroke-width="2" d="M737.705 2.545h-16.197V76.99h16.197V2.545zM727.107 14.053v49.83M732.506 36.866v33.22M688.062 7.646L672.88 2l-25.937 69.772 15.182 5.646 25.937-69.772zM674.219 14.853L663.12 44.671M671.319 38.067l-11.597 31.119"/>
    <path fill="#fff" d="M721.508 8.75h-16.196v2.6h16.196v-2.6zM721.508 12.752h-16.196v2.6h16.196v-2.6zM721.508 63.882h-16.196v2.6h16.196v-2.6zM721.508 67.885h-16.196v2.6h16.196v-2.6z"/>
    <path fill="#F6F2EF" stroke="#fff" stroke-miterlimit="10" stroke-width="2" d="M705.312 2.545h-16.197V76.99h16.197V2.545z"/>
    <path fill="#fff" d="M705.312 8.75h-16.197v2.6h16.197v-2.6zM705.312 12.752h-16.197v2.6h16.197v-2.6zM701.314 20.256h-8.1v34.52h8.1v-34.52zM705.312 63.882h-16.197v2.6h16.197v-2.6zM705.312 67.885h-16.197v2.6h16.197v-2.6z"/>
    <path stroke="#fff" stroke-miterlimit="10" stroke-width="2" d="M671.618 5.647l15.097 5.703M648.522 67.585l15.198 5.803"/>
    <path fill="#F6F2EF" d="M739.805 684.252h-50.39v64.139h50.39v-64.139z"/>
    <path fill="#fff" d="M739.805 747.291h-50.391l1.1 1.1v-21.612-34.621-7.905l-1.1 1.101h50.391l-1.1-1.101v64.138c0 1.401 2.199 1.501 2.199 0v-21.612-34.621-7.905c0-.6-.5-1.101-1.099-1.101h-50.391c-.6 0-1.1.501-1.1 1.101v64.138c0 .601.5 1.101 1.1 1.101h50.391c1.499 0 1.499-2.201 0-2.201z"/>
    <path fill="#F6F2EF" d="M721.108 698.161h-50.39v64.138h50.39v-64.138z"/>
    <path fill="#fff" d="M721.208 761.199h-50.39l1.099 1.101v-21.613-34.621-7.905l-1.099 1.101h50.39l-1.1-1.101V762.3c0 1.401 2.2 1.501 2.2 0v-21.613-34.621-7.905c0-.6-.5-1.1-1.1-1.1h-50.39c-.6 0-1.1.5-1.1 1.1V762.3c0 .6.5 1.1 1.1 1.1h50.39c1.4.101 1.4-2.201 0-2.201z"/>
    <path fill="#fff" d="M714.309 737.685h-36.093v3.001h36.093v-3.001zM714.309 743.589h-36.093v3.001h36.093v-3.001zM700.512 749.592h-22.296v3.001h22.296v-3.001z"/>
    <path fill="#F6F2EF" stroke="#fff" stroke-linecap="round" stroke-linejoin="round" stroke-miterlimit="10" stroke-width="2" d="M704.812 730.08h-20.296v-19.012l10.198-4.302 10.098 4.302v19.012z"/>
    <path fill="#F6F2EF" stroke="#fff" stroke-linecap="round" stroke-linejoin="round" stroke-miterlimit="10" stroke-width="2" d="M694.713 703.365l-12.197 5.403v4.703l12.197-5.404 12.098 5.404v-4.703l-12.098-5.403z"/>
    <path fill="#fff" d="M694.715 718.374c1.491 0 2.7-1.21 2.7-2.702s-1.209-2.702-2.7-2.702-2.7 1.21-2.7 2.702 1.209 2.702 2.7 2.702z"/>
    <path stroke="#fff" stroke-linecap="round" stroke-linejoin="round" stroke-miterlimit="10" stroke-width="2" d="M698.816 721.375h-8.2v8.605h8.2v-8.605z"/>
    <g opacity=".7">
        <path fill="#fff" d="M470.957 659.739c2.485 0 4.5-2.016 4.5-4.503s-2.015-4.503-4.5-4.503-4.5 2.016-4.5 4.503 2.015 4.503 4.5 4.503zM470.957 677.849c2.485 0 4.5-2.015 4.5-4.502 0-2.487-2.015-4.503-4.5-4.503s-4.5 2.016-4.5 4.503 2.015 4.502 4.5 4.502zM470.957 696.06c2.485 0 4.5-2.016 4.5-4.502 0-2.487-2.015-4.503-4.5-4.503s-4.5 2.016-4.5 4.503c0 2.486 2.015 4.502 4.5 4.502zM470.957 714.171c2.485 0 4.5-2.016 4.5-4.503 0-2.486-2.015-4.502-4.5-4.502s-4.5 2.016-4.5 4.502c0 2.487 2.015 4.503 4.5 4.503zM470.957 732.282c2.485 0 4.5-2.016 4.5-4.503s-2.015-4.502-4.5-4.502-4.5 2.015-4.5 4.502c0 2.487 2.015 4.503 4.5 4.503zM489.454 659.739c2.485 0 4.5-2.016 4.5-4.503s-2.015-4.503-4.5-4.503c-2.486 0-4.5 2.016-4.5 4.503s2.014 4.503 4.5 4.503zM489.454 677.849c2.485 0 4.5-2.015 4.5-4.502 0-2.487-2.015-4.503-4.5-4.503-2.486 0-4.5 2.016-4.5 4.503s2.014 4.502 4.5 4.502zM489.454 696.06c2.485 0 4.5-2.016 4.5-4.502 0-2.487-2.015-4.503-4.5-4.503-2.486 0-4.5 2.016-4.5 4.503 0 2.486 2.014 4.502 4.5 4.502zM489.454 714.171c2.485 0 4.5-2.016 4.5-4.503 0-2.486-2.015-4.502-4.5-4.502-2.486 0-4.5 2.016-4.5 4.502 0 2.487 2.014 4.503 4.5 4.503zM489.454 732.282c2.485 0 4.5-2.016 4.5-4.503s-2.015-4.502-4.5-4.502c-2.486 0-4.5 2.015-4.5 4.502 0 2.487 2.014 4.503 4.5 4.503zM507.95 659.739c2.485 0 4.5-2.016 4.5-4.503s-2.015-4.503-4.5-4.503c-2.486 0-4.5 2.016-4.5 4.503s2.014 4.503 4.5 4.503zM507.95 677.849c2.485 0 4.5-2.015 4.5-4.502 0-2.487-2.015-4.503-4.5-4.503-2.486 0-4.5 2.016-4.5 4.503s2.014 4.502 4.5 4.502zM507.95 696.06c2.485 0 4.5-2.016 4.5-4.502 0-2.487-2.015-4.503-4.5-4.503-2.486 0-4.5 2.016-4.5 4.503 0 2.486 2.014 4.502 4.5 4.502zM507.95 714.171c2.485 0 4.5-2.016 4.5-4.503 0-2.486-2.015-4.502-4.5-4.502-2.486 0-4.5 2.016-4.5 4.502 0 2.487 2.014 4.503 4.5 4.503zM507.95 732.282c2.485 0 4.5-2.016 4.5-4.503s-2.015-4.502-4.5-4.502c-2.486 0-4.5 2.015-4.5 4.502 0 2.487 2.014 4.503 4.5 4.503zM526.446 659.739c2.486 0 4.5-2.016 4.5-4.503s-2.014-4.503-4.5-4.503c-2.485 0-4.5 2.016-4.5 4.503s2.015 4.503 4.5 4.503zM526.446 677.849c2.486 0 4.5-2.015 4.5-4.502 0-2.487-2.014-4.503-4.5-4.503-2.485 0-4.5 2.016-4.5 4.503s2.015 4.502 4.5 4.502zM526.446 696.06c2.486 0 4.5-2.016 4.5-4.502 0-2.487-2.014-4.503-4.5-4.503-2.485 0-4.5 2.016-4.5 4.503 0 2.486 2.015 4.502 4.5 4.502zM526.446 714.171c2.486 0 4.5-2.016 4.5-4.503 0-2.486-2.014-4.502-4.5-4.502-2.485 0-4.5 2.016-4.5 4.502 0 2.487 2.015 4.503 4.5 4.503zM526.446 732.282c2.486 0 4.5-2.016 4.5-4.503s-2.014-4.502-4.5-4.502c-2.485 0-4.5 2.015-4.5 4.502 0 2.487 2.015 4.503 4.5 4.503zM680.417 900.483c2.485 0 4.5-2.016 4.5-4.503s-2.015-4.503-4.5-4.503c-2.486 0-4.5 2.016-4.5 4.503s2.014 4.503 4.5 4.503zM680.417 918.593c2.485 0 4.5-2.016 4.5-4.502 0-2.487-2.015-4.503-4.5-4.503-2.486 0-4.5 2.016-4.5 4.503 0 2.486 2.014 4.502 4.5 4.502zM680.417 936.804c2.485 0 4.5-2.016 4.5-4.503 0-2.486-2.015-4.502-4.5-4.502-2.486 0-4.5 2.016-4.5 4.502 0 2.487 2.014 4.503 4.5 4.503zM680.417 954.915c2.485 0 4.5-2.016 4.5-4.503s-2.015-4.502-4.5-4.502c-2.486 0-4.5 2.015-4.5 4.502 0 2.487 2.014 4.503 4.5 4.503zM680.417 973.026c2.485 0 4.5-2.016 4.5-4.503 0-2.486-2.015-4.502-4.5-4.502-2.486 0-4.5 2.016-4.5 4.502 0 2.487 2.014 4.503 4.5 4.503zM698.913 900.483c2.485 0 4.5-2.016 4.5-4.503s-2.015-4.503-4.5-4.503-4.5 2.016-4.5 4.503 2.015 4.503 4.5 4.503zM698.913 918.593c2.485 0 4.5-2.016 4.5-4.502 0-2.487-2.015-4.503-4.5-4.503s-4.5 2.016-4.5 4.503c0 2.486 2.015 4.502 4.5 4.502zM698.913 936.804c2.485 0 4.5-2.016 4.5-4.503 0-2.486-2.015-4.502-4.5-4.502s-4.5 2.016-4.5 4.502c0 2.487 2.015 4.503 4.5 4.503zM698.913 954.915c2.485 0 4.5-2.016 4.5-4.503s-2.015-4.502-4.5-4.502-4.5 2.015-4.5 4.502c0 2.487 2.015 4.503 4.5 4.503zM698.913 973.026c2.485 0 4.5-2.016 4.5-4.503 0-2.486-2.015-4.502-4.5-4.502s-4.5 2.016-4.5 4.502c0 2.487 2.015 4.503 4.5 4.503zM717.41 900.483c2.485 0 4.5-2.016 4.5-4.503s-2.015-4.503-4.5-4.503c-2.486 0-4.5 2.016-4.5 4.503s2.014 4.503 4.5 4.503zM717.41 918.593c2.485 0 4.5-2.016 4.5-4.502 0-2.487-2.015-4.503-4.5-4.503-2.486 0-4.5 2.016-4.5 4.503 0 2.486 2.014 4.502 4.5 4.502zM717.41 936.804c2.485 0 4.5-2.016 4.5-4.503 0-2.486-2.015-4.502-4.5-4.502-2.486 0-4.5 2.016-4.5 4.502 0 2.487 2.014 4.503 4.5 4.503zM717.41 954.915c2.485 0 4.5-2.016 4.5-4.503s-2.015-4.502-4.5-4.502c-2.486 0-4.5 2.015-4.5 4.502 0 2.487 2.014 4.503 4.5 4.503zM717.41 973.026c2.485 0 4.5-2.016 4.5-4.503 0-2.486-2.015-4.502-4.5-4.502-2.486 0-4.5 2.016-4.5 4.502 0 2.487 2.014 4.503 4.5 4.503zM735.806 900.483c2.485 0 4.5-2.016 4.5-4.503s-2.015-4.503-4.5-4.503c-2.486 0-4.5 2.016-4.5 4.503s2.014 4.503 4.5 4.503zM735.806 918.593c2.485 0 4.5-2.016 4.5-4.502 0-2.487-2.015-4.503-4.5-4.503-2.486 0-4.5 2.016-4.5 4.503 0 2.486 2.014 4.502 4.5 4.502zM735.806 936.804c2.485 0 4.5-2.016 4.5-4.503 0-2.486-2.015-4.502-4.5-4.502-2.486 0-4.5 2.016-4.5 4.502 0 2.487 2.014 4.503 4.5 4.503zM735.806 954.915c2.485 0 4.5-2.016 4.5-4.503s-2.015-4.502-4.5-4.502c-2.486 0-4.5 2.015-4.5 4.502 0 2.487 2.014 4.503 4.5 4.503zM735.806 973.026c2.485 0 4.5-2.016 4.5-4.503 0-2.486-2.015-4.502-4.5-4.502-2.486 0-4.5 2.016-4.5 4.502 0 2.487 2.014 4.503 4.5 4.503zM754.302 900.483c2.486 0 4.5-2.016 4.5-4.503s-2.014-4.503-4.5-4.503c-2.485 0-4.5 2.016-4.5 4.503s2.015 4.503 4.5 4.503zM754.302 918.593c2.486 0 4.5-2.016 4.5-4.502 0-2.487-2.014-4.503-4.5-4.503-2.485 0-4.5 2.016-4.5 4.503 0 2.486 2.015 4.502 4.5 4.502zM754.302 936.804c2.486 0 4.5-2.016 4.5-4.503 0-2.486-2.014-4.502-4.5-4.502-2.485 0-4.5 2.016-4.5 4.502 0 2.487 2.015 4.503 4.5 4.503zM754.302 954.915c2.486 0 4.5-2.016 4.5-4.503s-2.014-4.502-4.5-4.502c-2.485 0-4.5 2.015-4.5 4.502 0 2.487 2.015 4.503 4.5 4.503zM754.302 973.026c2.486 0 4.5-2.016 4.5-4.503 0-2.486-2.014-4.502-4.5-4.502-2.485 0-4.5 2.016-4.5 4.502 0 2.487 2.015 4.503 4.5 4.503z" opacity=".7"/>
        <g fill="#fff" opacity=".7">
            <path d="M747.203 542.268h-89.582c-5.799 0-10.498-4.702-10.498-10.506 0-5.803 4.699-10.506 10.498-10.506h89.582c5.799 0 10.498 4.703 10.498 10.506 0 5.804-4.699 10.506-10.498 10.506zM725.707 583.993h-105.98c-5.798 0-10.498-4.703-10.498-10.506 0-5.804 4.7-10.506 10.498-10.506h105.98c5.799 0 10.498 4.702 10.498 10.506-.1 5.803-4.699 10.506-10.498 10.506z" opacity=".7"/>
            <path d="M705.012 552.775c0-5.804 5.599-10.507 12.597-10.507H659.82c6.899 0 12.598 4.703 12.598 10.507 0 5.803-5.599 10.506-12.598 10.506h57.789c-6.898-.1-12.597-4.703-12.597-10.506zM586.234 584.093c5.798 0 10.498-4.703 10.498-10.506 0-5.802-4.7-10.506-10.498-10.506-5.798 0-10.498 4.704-10.498 10.506 0 5.803 4.7 10.506 10.498 10.506z" opacity=".7"/>
        </g>
        <path fill="#fff" d="M473.856 381.672h97.281c4.499 0 8.198-3.702 8.198-8.205 0-4.502-3.699-8.205-8.198-8.205h-97.281c-4.5 0-8.199 3.703-8.199 8.205 0 4.503 3.599 8.205 8.199 8.205zM490.653 414.292h110.078c4.5 0 8.199-3.703 8.199-8.205 0-4.503-3.699-8.205-8.199-8.205H490.653c-4.5 0-8.199 3.702-8.199 8.205 0 4.502 3.699 8.205 8.199 8.205z" opacity=".7"/>
        <path fill="#fff" d="M506.749 389.877c0-4.502-4.399-8.205-9.798-8.205h72.386c-5.399 0-9.798 3.703-9.798 8.205 0 4.503 4.399 8.205 9.798 8.205h-72.386c5.399-.1 9.798-3.702 9.798-8.205zM626.826 414.292c4.528 0 8.199-3.674 8.199-8.205 0-4.532-3.671-8.205-8.199-8.205-4.528 0-8.198 3.673-8.198 8.205 0 4.531 3.67 8.205 8.198 8.205zM583.235 17.855c4.362 0 7.898-3.54 7.898-7.905 0-4.366-3.536-7.905-7.898-7.905s-7.899 3.54-7.899 7.905c0 4.366 3.537 7.905 7.899 7.905zM558.839 18.055H501.75c-4.399 0-7.998-3.602-7.998-8.005 0-4.402 3.599-8.005 7.998-8.005h57.089c4.4 0 7.999 3.603 7.999 8.005 0 4.403-3.599 8.005-7.999 8.005z" opacity=".7"/>
        <g fill="#fff" opacity=".7">
            <path d="M725.107 1096.8c4.363 0 7.899-3.54 7.899-7.91 0-4.36-3.536-7.9-7.899-7.9-4.362 0-7.898 3.54-7.898 7.9 0 4.37 3.536 7.91 7.898 7.91zM575.836 1064.48h97.281c4.5 0 8.199-3.7 8.199-8.2 0-4.51-3.699-8.21-8.199-8.21h-97.281c-4.499 0-8.198 3.7-8.198 8.21.1 4.5 3.699 8.2 8.198 8.2zM592.733 1097h110.079c4.499 0 8.198-3.7 8.198-8.2 0-4.51-3.699-8.21-8.198-8.21H592.733c-4.499 0-8.198 3.7-8.198 8.21 0 4.6 3.599 8.2 8.198 8.2z" opacity=".7"/>
            <path d="M608.83 1072.59c0-4.51-4.399-8.21-9.798-8.21h72.386c-5.399 0-9.798 3.7-9.798 8.21 0 4.5 4.399 8.2 9.798 8.2h-72.386c5.399 0 9.798-3.6 9.798-8.2z" opacity=".7"/>
        </g>
        <g opacity=".7">
            <path fill="#fff" d="M692.315 167.044c2.375 0 4.3-1.926 4.3-4.302 0-2.377-1.925-4.303-4.3-4.303s-4.3 1.926-4.3 4.303c0 2.376 1.925 4.302 4.3 4.302zM692.315 184.554c2.375 0 4.3-1.926 4.3-4.302 0-2.376-1.925-4.303-4.3-4.303s-4.3 1.927-4.3 4.303 1.925 4.302 4.3 4.302zM692.315 201.965c2.375 0 4.3-1.926 4.3-4.303 0-2.376-1.925-4.302-4.3-4.302s-4.3 1.926-4.3 4.302c0 2.377 1.925 4.303 4.3 4.303zM692.315 219.475c2.375 0 4.3-1.926 4.3-4.302 0-2.376-1.925-4.303-4.3-4.303s-4.3 1.927-4.3 4.303 1.925 4.302 4.3 4.302zM692.315 236.986c2.375 0 4.3-1.926 4.3-4.303 0-2.376-1.925-4.302-4.3-4.302s-4.3 1.926-4.3 4.302c0 2.377 1.925 4.303 4.3 4.303zM710.111 167.044c2.375 0 4.3-1.926 4.3-4.302 0-2.377-1.925-4.303-4.3-4.303s-4.3 1.926-4.3 4.303c0 2.376 1.925 4.302 4.3 4.302zM710.111 184.554c2.375 0 4.3-1.926 4.3-4.302 0-2.376-1.925-4.303-4.3-4.303s-4.3 1.927-4.3 4.303 1.925 4.302 4.3 4.302zM710.111 201.965c2.375 0 4.3-1.926 4.3-4.303 0-2.376-1.925-4.302-4.3-4.302s-4.3 1.926-4.3 4.302c0 2.377 1.925 4.303 4.3 4.303zM710.111 219.475c2.375 0 4.3-1.926 4.3-4.302 0-2.376-1.925-4.303-4.3-4.303s-4.3 1.927-4.3 4.303 1.925 4.302 4.3 4.302zM710.111 236.986c2.375 0 4.3-1.926 4.3-4.303 0-2.376-1.925-4.302-4.3-4.302s-4.3 1.926-4.3 4.302c0 2.377 1.925 4.303 4.3 4.303zM728.008 167.044c2.375 0 4.3-1.926 4.3-4.302 0-2.377-1.925-4.303-4.3-4.303s-4.3 1.926-4.3 4.303c0 2.376 1.925 4.302 4.3 4.302zM728.008 184.554c2.375 0 4.3-1.926 4.3-4.302 0-2.376-1.925-4.303-4.3-4.303s-4.3 1.927-4.3 4.303 1.925 4.302 4.3 4.302zM728.008 201.965c2.375 0 4.3-1.926 4.3-4.303 0-2.376-1.925-4.302-4.3-4.302s-4.3 1.926-4.3 4.302c0 2.377 1.925 4.303 4.3 4.303zM728.008 219.475c2.375 0 4.3-1.926 4.3-4.302 0-2.376-1.925-4.303-4.3-4.303s-4.3 1.927-4.3 4.303 1.925 4.302 4.3 4.302zM728.008 236.986c2.375 0 4.3-1.926 4.3-4.303 0-2.376-1.925-4.302-4.3-4.302s-4.3 1.926-4.3 4.302c0 2.377 1.925 4.303 4.3 4.303zM745.804 167.044c2.375 0 4.3-1.926 4.3-4.302 0-2.377-1.925-4.303-4.3-4.303-2.374 0-4.3 1.926-4.3 4.303 0 2.376 1.926 4.302 4.3 4.302zM745.804 184.554c2.375 0 4.3-1.926 4.3-4.302 0-2.376-1.925-4.303-4.3-4.303-2.374 0-4.3 1.927-4.3 4.303s1.926 4.302 4.3 4.302zM745.804 201.965c2.375 0 4.3-1.926 4.3-4.303 0-2.376-1.925-4.302-4.3-4.302-2.374 0-4.3 1.926-4.3 4.302 0 2.377 1.926 4.303 4.3 4.303zM745.804 219.475c2.375 0 4.3-1.926 4.3-4.302 0-2.376-1.925-4.303-4.3-4.303-2.374 0-4.3 1.927-4.3 4.303s1.926 4.302 4.3 4.302zM745.804 236.986c2.375 0 4.3-1.926 4.3-4.303 0-2.376-1.925-4.302-4.3-4.302-2.374 0-4.3 1.926-4.3 4.302 0 2.377 1.926 4.303 4.3 4.303zM763.7 167.044c2.375 0 4.3-1.926 4.3-4.302 0-2.377-1.925-4.303-4.3-4.303-2.374 0-4.3 1.926-4.3 4.303 0 2.376 1.926 4.302 4.3 4.302zM763.7 184.554c2.375 0 4.3-1.926 4.3-4.302 0-2.376-1.925-4.303-4.3-4.303-2.374 0-4.3 1.927-4.3 4.303s1.926 4.302 4.3 4.302zM763.7 201.965c2.375 0 4.3-1.926 4.3-4.303 0-2.376-1.925-4.302-4.3-4.302-2.374 0-4.3 1.926-4.3 4.302 0 2.377 1.926 4.303 4.3 4.303zM763.7 219.475c2.375 0 4.3-1.926 4.3-4.302 0-2.376-1.925-4.303-4.3-4.303-2.374 0-4.3 1.927-4.3 4.303s1.926 4.302 4.3 4.302zM763.7 236.986c2.375 0 4.3-1.926 4.3-4.303 0-2.376-1.925-4.302-4.3-4.302-2.374 0-4.3 1.926-4.3 4.302 0 2.377 1.926 4.303 4.3 4.303z" opacity=".7"/>
        </g>
        <g opacity=".7">
            <g opacity=".7">
                <path fill="#fff" d="M745.204 414.392v-3.602h-3.6v-1.701h3.6v-3.602h1.7v3.602h3.6v1.701h-3.6v3.602h-1.7zM728.608 414.392v-3.602h-3.6v-1.701h3.6v-3.602h1.7v3.602h3.6v1.701h-3.6v3.602h-1.7zM712.011 414.392v-3.602h-3.6v-1.701h3.6v-3.602h1.7v3.602h3.6v1.701h-3.6v3.602h-1.7zM695.514 414.392v-3.602h-3.6v-1.701h3.6v-3.602h1.7v3.602h3.6v1.701h-3.6v3.602h-1.7zM678.917 414.392v-3.602h-3.6v-1.701h3.6v-3.602h1.7v3.602h3.6v1.701h-3.6v3.602h-1.7z" opacity=".7"/>
            </g>
            <g opacity=".7">
                <path fill="#fff" d="M745.204 395.481v-3.603h-3.6v-1.701h3.6v-3.602h1.7v3.602h3.6v1.701h-3.6v3.603h-1.7zM728.608 395.481v-3.603h-3.6v-1.701h3.6v-3.602h1.7v3.602h3.6v1.701h-3.6v3.603h-1.7zM712.011 395.481v-3.603h-3.6v-1.701h3.6v-3.602h1.7v3.602h3.6v1.701h-3.6v3.603h-1.7z" opacity=".7"/>
            </g>
        </g>
        <g opacity=".7">
            <g opacity=".7">
                <path fill="#fff" d="M568.138 864.461v-3.602h-3.6v-1.601h3.6v-3.602h1.7v3.602h3.6v1.701h-3.6v3.602h-1.7v-.1zM551.541 864.461v-3.602h-3.6v-1.601h3.6v-3.602h1.7v3.602h3.6v1.701h-3.6v3.602h-1.7v-.1zM535.044 864.461v-3.602h-3.6v-1.601h3.6v-3.602h1.7v3.602h3.6v1.701h-3.6v3.602h-1.7v-.1zM518.448 864.461v-3.602h-3.6v-1.601h3.6v-3.602h1.7v3.602h3.6v1.701h-3.6v3.602h-1.7v-.1zM501.951 864.461v-3.602h-3.6v-1.601h3.6v-3.602h1.7v3.602h3.6v1.701h-3.6v3.602h-1.7v-.1z" opacity=".7"/>
            </g>
            <g opacity=".7">
                <path fill="#fff" d="M568.138 845.65v-3.603h-3.6v-1.701h3.6v-3.602h1.7v3.602h3.6v1.701h-3.6v3.603h-1.7zM551.541 845.65v-3.603h-3.6v-1.701h3.6v-3.602h1.7v3.602h3.6v1.701h-3.6v3.603h-1.7zM535.044 845.65v-3.603h-3.6v-1.701h3.6v-3.602h1.7v3.602h3.6v1.701h-3.6v3.603h-1.7z" opacity=".7"/>
            </g>
        </g>
        <path fill="#fff" d="M452.46 659.739c2.486 0 4.5-2.016 4.5-4.503s-2.014-4.503-4.5-4.503c-2.485 0-4.5 2.016-4.5 4.503s2.015 4.503 4.5 4.503zM452.46 677.849c2.486 0 4.5-2.015 4.5-4.502 0-2.487-2.014-4.503-4.5-4.503-2.485 0-4.5 2.016-4.5 4.503s2.015 4.502 4.5 4.502zM452.46 696.06c2.486 0 4.5-2.016 4.5-4.502 0-2.487-2.014-4.503-4.5-4.503-2.485 0-4.5 2.016-4.5 4.503 0 2.486 2.015 4.502 4.5 4.502zM452.46 714.171c2.486 0 4.5-2.016 4.5-4.503 0-2.486-2.014-4.502-4.5-4.502-2.485 0-4.5 2.016-4.5 4.502 0 2.487 2.015 4.503 4.5 4.503zM452.46 732.282c2.486 0 4.5-2.016 4.5-4.503s-2.014-4.502-4.5-4.502c-2.485 0-4.5 2.015-4.5 4.502 0 2.487 2.015 4.503 4.5 4.503z" opacity=".7"/>
    </g>
    <path fill="#fff" d="M4.3 1049.43c2.375 0 4.3-1.93 4.3-4.31 0-2.37-1.925-4.3-4.3-4.3s-4.3 1.93-4.3 4.3c0 2.38 1.925 4.31 4.3 4.31z"/>
    <path fill="#fff" d="M4.3 1049.43c2.375 0 4.3-1.93 4.3-4.31 0-2.37-1.925-4.3-4.3-4.3s-4.3 1.93-4.3 4.3c0 2.38 1.925 4.31 4.3 4.31z"/>
    <path fill="#fff" d="M4.3 1049.43c2.375 0 4.3-1.93 4.3-4.31 0-2.37-1.925-4.3-4.3-4.3s-4.3 1.93-4.3 4.3c0 2.38 1.925 4.31 4.3 4.31z"/>
    <path fill="#fff" d="M4.3 1049.43c2.375 0 4.3-1.93 4.3-4.31 0-2.37-1.925-4.3-4.3-4.3s-4.3 1.93-4.3 4.3c0 2.38 1.925 4.31 4.3 4.31z"/>
    <path fill="#fff" d="M4.3 1049.43c2.375 0 4.3-1.93 4.3-4.31 0-2.37-1.925-4.3-4.3-4.3s-4.3 1.93-4.3 4.3c0 2.38 1.925 4.31 4.3 4.31z"/>
    <path fill="#F6F2EF" d="M64.788 731.235c.8-2.301.4-5.003-1-7.004-.6-.801-1.3-1.601-1.4-2.602-.1-1.1.7-2.001 1.1-2.901 1.4-3.302-1.1-7.005-4.099-8.906-.6-.4-1.2-.7-1.4-1.401-.1-.4 0-.8 0-1.2.2-2.001-.8-4.003-2.2-5.504-1.399-1.5-7.598-1.5-8.997 0-1.4 1.501-2.4 3.503-2.2 5.504 0 .4.1.8 0 1.2-.2.601-.8 1.001-1.4 1.401-3 1.901-5.499 5.604-4.099 8.906.4 1 1.2 1.901 1.1 2.901-.1 1.001-.8 1.801-1.4 2.602-1.4 2.001-1.8 4.703-1 7.004.5 1.401 1.3 2.802 1.2 4.303-.2 1.901-2 3.602-1.5 5.403.6 1.901 26.895 1.901 27.395 0 .5-1.801-1.3-3.502-1.5-5.403 0-1.501.9-2.902 1.4-4.303z"/>
    <path fill="#fff" d="M65.888 731.536c.8-2.602.4-5.603-1.1-7.905-.4-.6-1.1-1.2-1.2-2.001-.1-.7.5-1.401.8-2.101.6-1.201.8-2.402.7-3.702-.3-2.702-2.2-5.003-4.299-6.604-.5-.3-1.5-.701-1.6-1.301-.2-.6.1-1.401.1-2.001-.1-1.501-.8-2.902-1.7-4.103-1.3-1.701-2.899-2.201-4.998-2.401-1.8-.2-4.1-.1-5.7.9-2.199 1.301-3.399 4.403-3.199 6.904 0 .901-.1 1.101-.8 1.601-.5.301-1 .701-1.4 1.101-1.1.901-2.099 2.101-2.799 3.402-.5 1.001-.9 2.101-.9 3.302 0 1.601.7 2.602 1.3 4.103.6 1.5-.7 2.401-1.4 3.602-.7 1.301-1.1 2.801-1.1 4.302 0 1.301.2 2.502.7 3.703.7 1.701 1.2 2.901.3 4.702-.6 1.401-1.9 3.903-.2 5.103.7.501 1.6.601 2.4.701 1.4.2 2.8.3 4.2.4 3.599.2 7.198.3 10.697.2 3.2-.1 6.599-.1 9.698-.8 1.1-.3 2-.801 2.1-2.002.1-1.4-.6-2.601-1.2-3.902-1-2.001-.1-3.402.6-5.203.5-1.401-1.7-2.001-2.2-.6-.4 1.2-1.1 2.401-1.2 3.802-.1 1.201.3 2.301.8 3.402.3.5.6 1.101.7 1.701v.7c-.1-.1.3-.4.2-.3.3-.1 0 0-.1 0 .2 0-.2.1-.3.1-2.2.601-4.599.601-6.898.701-3.3.1-6.499.2-9.798 0-2.5-.1-5.1-.1-7.599-.601-.3-.1-.6-.2-1-.3.1 0-.1 0-.1-.1 0 .2.2.1.1.1.4.2.1.5.2-.2.1-1.101.9-2.201 1.3-3.202.4-1.201.3-2.401-.1-3.602-.4-1.301-1.1-2.502-1.2-3.902-.1-1.301.2-2.702.8-3.903.5-1 1.4-1.801 1.7-2.801.4-1.301 0-2.402-.6-3.603-1.3-2.501-.4-4.802 1.5-6.804.9-.9 2-1.4 2.899-2.201 1-1 .8-1.901.8-3.202s.5-2.601 1.3-3.602c.6-.9 1.2-1.101 2.2-1.301 1.599-.3 3.599-.3 5.098.2 1 .401 1.7 1.501 2.1 2.502.4.8.5 1.701.4 2.601 0 .601-.1 1.201.1 1.802.5 1.2 1.8 1.701 2.8 2.501 1.099.901 2.199 2.101 2.699 3.502.5 1.401.3 2.702-.4 4.002-.6 1.201-1.1 2.402-.6 3.703.5 1.301 1.6 2.301 2.1 3.602.5 1.501.5 3.002.1 4.503-.4 1.601 1.7 2.201 2.199.8z"/>
    <path fill="#F6F2EF" d="M42.795 735.138c.9-2.902.5-6.204-1.2-8.706-.7-1-1.6-2.001-1.7-3.202-.1-1.3.9-2.401 1.4-3.602 1.7-4.102-1.4-8.705-5.199-11.106-.7-.401-1.5-.901-1.7-1.701-.1-.501 0-1.001 0-1.401.3-2.502-1-5.003-2.699-6.904-1.8-1.801-3.4-3.102-5.599-4.403-2.2 1.301-3.8 2.602-5.599 4.403-1.8 1.801-3 4.302-2.7 6.904 0 .5.2 1 0 1.401-.2.8-1 1.3-1.699 1.701-3.8 2.301-6.899 7.004-5.199 11.106.5 1.201 1.4 2.302 1.4 3.602-.1 1.201-1 2.202-1.7 3.202-1.7 2.502-2.2 5.804-1.2 8.706.6 1.801 1.7 3.502 1.5 5.303-.2 2.401-2.5 4.502-1.8 6.704.7 2.401 33.494 2.401 34.194 0 .7-2.302-1.6-4.403-1.8-6.704-.4-1.901.7-3.602 1.3-5.303z"/>
    <path fill="#fff" d="M43.894 735.438c1-3.102.6-6.704-1.3-9.405-.4-.701-1-1.301-1.4-2.002-.5-1-.2-1.801.3-2.601.7-1.401 1.3-2.802 1.3-4.403-.1-3.102-1.9-5.903-4.199-7.904-.5-.501-1.1-.901-1.7-1.301-.9-.601-1.6-.901-1.5-2.001.1-1.601-.1-3.102-.699-4.603-1.5-3.502-4.9-6.104-8.098-8.005-.3-.2-.8-.2-1.1 0-4.2 2.402-9.199 6.504-8.899 11.907 0 .701.3 1.301-.2 1.901-.3.401-.9.601-1.3.901-1.099.8-2.199 1.701-3.099 2.702-1.5 1.801-2.6 3.902-2.8 6.203-.1 1.101.1 2.201.5 3.202.5 1.201 1.6 2.402 1.2 3.802-.3 1.201-1.5 2.202-2.099 3.302-.6 1.101-1 2.402-1.2 3.703-.2 1.2-.1 2.401.1 3.602.3 1.501 1 2.801 1.4 4.202.5 1.301.4 2.402-.1 3.702-.5 1.101-1.1 2.202-1.4 3.402-.5 2.502.9 3.402 3 3.803 2.5.5 5.099.6 7.598.8 6.299.3 12.598.3 18.896-.2 1.9-.2 4.4-.2 6.1-1.201 1.4-.9 1-3.001.5-4.302-.5-1.301-1.4-2.502-1.5-3.903.1-2.201 1.1-3.802 1.7-5.303.5-1.401-1.7-2.001-2.2-.6-.8 2.401-2.1 4.603-1.2 7.104.3 1.001.9 1.901 1.3 2.802.2.6.3 1.101.4 1.701 0 .5-.2.2 0 .2.4 0 0-.2.1-.1 0-.2.2-.1 0 0-.3.1.1 0-.2.1l-.9.3c-.9.2-1.8.3-2.7.4-5.699.601-11.597.601-17.296.501-2.6-.1-5.2-.2-7.799-.501-.8-.1-1.7-.2-2.5-.4-.2 0-.7-.2-.7-.2l-.2-.1c.1 0 0 .1.1.2.2 0 0 .3 0-.2 0-.3 0-.6.1-.901.1-.5.4-1 .6-1.6.5-1.001 1-2.002 1.2-3.202.4-2.602-1.3-4.803-1.8-7.305-.5-2.501.2-5.003 1.7-7.004 1.5-2.101 2.1-3.702.9-6.104-.6-1.3-1.2-2.401-1.1-3.802.1-1.201.6-2.401 1.2-3.502.7-1.101 1.6-2.101 2.6-2.902 1-.8 2.3-1.3 3-2.301.799-1.101.499-2.201.499-3.502 0-1.401.6-2.802 1.4-3.902 1.6-2.402 3.999-4.203 6.498-5.604h-1.1c3.4 2.001 7.7 5.203 7.8 9.506 0 .8-.2 1.701 0 2.501.2.901.899 1.501 1.599 2.002 1.6 1.1 3.1 2.201 4.3 3.902.999 1.501 1.699 3.402 1.299 5.203-.4 1.901-2 3.302-1.7 5.303.2 1.901 1.8 3.202 2.6 4.803.9 2.001 1 4.303.4 6.504-.8 1.501 1.4 2.101 1.8.7z"/>
    <path fill="#F6F2EF" d="M34.297 732.736c-3.1 1.401-6 3.402-8.2 5.904v16.209"/>
    <path fill="#fff" d="M33.696 731.736c-3.1 1.401-6 3.302-8.2 5.804-.8.9-.6 1.801-.6 2.901v14.409c0 1.401 2.2 1.501 2.2 0v-16.21c-.1.301-.2.501-.3.801 2.3-2.502 5-4.403 8-5.704 1.4-.7.2-2.601-1.1-2.001z"/>
    <path fill="#F6F2EF" d="M26.097 738.74c-.6-4.103-.7-8.305-.4-12.408l.4 12.408z"/>
    <path fill="#fff" d="M27.197 738.44c-.6-4.002-.6-8.105-.4-12.107.1-1.401-2.2-1.401-2.2 0-.3 4.303-.1 8.505.5 12.708.1.6.9.9 1.4.8.5-.2.7-.8.7-1.401z"/>
    <path fill="#F6F2EF" d="M49.192 750.847c.2-7.104.5-25.015.7-32.119l-.7 32.119z"/>
    <path fill="#fff" d="M50.392 750.848c.4-10.707.4-21.413.7-32.12 0-1.4-2.2-1.4-2.2 0-.4 10.707-.4 21.413-.7 32.12-.1 1.501 2.1 1.501 2.2 0z"/>
    <path fill="#F6F2EF" d="M49.892 729.033c3.6-2.001 3.1-1.801 7.1-2.901l-7.1 2.901z"/>
    <path fill="#fff" d="M50.492 730.035l2.1-1.201c.2-.1.4-.2.7-.4.1-.1.2-.1.3-.1.1 0 .1 0 .2-.1.2-.1-.2.1-.1 0 1.2-.4 2.4-.8 3.7-1.101.6-.2 1-.8.8-1.4-.2-.601-.8-1.001-1.4-.801-1.2.3-2.5.6-3.7 1.101-1.3.5-2.4 1.2-3.6 1.901-.5.3-.7 1.001-.4 1.501.2.7.8.9 1.4.6z"/>
    <path fill="#F6F2EF" d="M239.655 86.15h-50.39v64.138h50.39V86.15z"/>
    <path fill="#fff" d="M239.655 149.188h-50.39l1.1 1.101v-21.613-34.621-7.905l-1.1 1.101h50.39l-1.1-1.1v64.138c0 1.4 2.2 1.501 2.2 0v-21.613-34.621-7.905c0-.6-.5-1.1-1.1-1.1h-50.39c-.6 0-1.1.5-1.1 1.1v64.139c0 .6.5 1.1 1.1 1.1h50.39c1.4.1 1.4-2.201 0-2.201z"/>
    <path fill="#F6F2EF" d="M220.959 100.158h-50.39v64.138h50.39v-64.138z"/>
    <path fill="#fff" d="M220.959 163.196h-50.39l1.099 1.101v-21.613-34.621-7.904l-1.099 1.1h50.39l-1.1-1.1V164.297c0 1.401 2.2 1.501 2.2 0v-21.613-34.621-7.904c0-.6-.5-1.101-1.1-1.101h-50.39c-.6 0-1.1.5-1.1 1.101V164.297c0 .6.5 1.101 1.1 1.101h50.39c1.5 0 1.5-2.202 0-2.202z"/>
    <path fill="#fff" d="M214.16 139.682h-36.093v3.001h36.093v-3.001zM214.16 145.586h-36.093v3.001h36.093v-3.001zM200.363 151.489h-22.296v3.001h22.296v-3.001z"/>
    <path fill="#F6F2EF" d="M30.395 293.374c.8-2.502.4-5.304-1.1-7.505-.6-.9-1.4-1.701-1.5-2.802-.099-1.1.7-2.101 1.2-3.101 1.5-3.502-1.2-7.405-4.398-9.506-.6-.4-1.3-.801-1.5-1.501-.1-.4 0-.8 0-1.201.2-2.201-.8-4.302-2.3-5.903-1.5-1.601-8.098-1.601-9.598 0s-2.6 3.702-2.3 5.903c0 .401.1.801 0 1.201-.2.7-.9 1.101-1.5 1.501-3.199 2.001-5.898 6.004-4.398 9.506.4 1 1.2 2.001 1.2 3.101-.1 1.101-.9 1.902-1.5 2.802-1.5 2.101-1.9 5.003-1.1 7.505.5 1.501 1.4 3.001 1.3 4.602-.2 2.002-2.1 3.803-1.6 5.804.6 2.101 28.594 2.101 29.194 0 .6-1.901-1.4-3.702-1.6-5.804.1-1.701 1-3.101 1.5-4.602z"/>
    <path fill="#fff" d="M31.495 293.674c.9-3.001.4-6.103-1.4-8.605-.4-.5-1-1.1-1.1-1.801-.1-.8.5-1.601.8-2.301.6-1.301.8-2.602.7-4.003-.4-2.701-2.2-5.103-4.399-6.704-.5-.4-1.7-.8-1.9-1.5-.2-.601.1-1.501 0-2.202-.2-1.701-.9-3.202-1.9-4.503-1.299-1.701-3.198-2.201-5.298-2.301-1.9-.1-4.3-.1-5.999 1.001-2.3 1.401-3.5 4.803-3.3 7.404.1 1.001-.5 1.201-1.2 1.701-.599.4-1.199.901-1.699 1.301-1.1 1.001-2 2.201-2.6 3.502-.5 1.101-.8 2.401-.8 3.602.1 1.601 1 2.602 1.4 4.103.5 1.501-1.1 2.701-1.699 4.002-.7 1.301-1 2.802-1 4.303 0 1.601.4 3.001 1 4.502.2.601.5 1.201.6 1.901.1 1.001-.2 1.802-.7 2.702-.7 1.401-1.8 4.002-.1 5.103.7.5 1.7.6 2.5.701 1.5.2 3.099.4 4.599.5 3.699.2 7.498.3 11.297.2 3.4-.1 7-.1 10.198-.901 1.2-.3 2-.8 2.2-2.101.2-1.601-.7-2.902-1.3-4.302-.6-1.902.4-3.503 1.1-5.304.5-1.4-1.7-2.001-2.2-.6-.4 1.301-1.1 2.401-1.3 3.802-.2 1.401.2 2.502.8 3.703.3.6.6 1.1.7 1.701 0 .1.1 1.1 0 1.1 0 0 .1-.3.2-.4h-.1c-.2 0 .2-.1 0 0-.1 0-.2.1-.3.1-2.399.6-4.899.7-7.298.801-3.5.2-6.999.2-10.398.1-2.7-.101-5.499-.1-8.198-.701-.4-.1-.7-.2-1.1-.3l-.2-.1c.2-.3.1 1.001.2 0 .2-1.201.8-2.201 1.3-3.402.5-1.301.5-2.602.1-3.902-.4-1.301-1.1-2.402-1.3-3.803-.2-1.501 0-3.102.6-4.402.6-1.201 1.6-2.102 2-3.302.4-1.301 0-2.502-.6-3.703-1.4-2.601-.6-5.103 1.4-7.204.899-.9 1.899-1.501 2.899-2.301 1.3-1.001 1.2-2.001 1.1-3.502 0-1.401.6-2.802 1.399-4.003.6-.8 1.2-1.1 2.2-1.401 1.8-.4 3.999-.4 5.699.301 1 .4 1.7 1.501 2.1 2.501.399.801.599 1.701.599 2.602 0 .8-.2 1.501.1 2.301.6 1.301 2.1 1.901 3.1 2.802 1.1 1 2.099 2.101 2.599 3.502.6 1.401.5 2.801-.2 4.102-.7 1.301-1.3 2.602-.8 4.103s1.8 2.601 2.3 4.102c.5 1.601.5 3.202 0 4.803 0 1.401 2.2 2.001 2.6.6z"/>
    <path fill="#F6F2EF" d="M13.799 314.286c.3-7.604.5-26.716.8-34.22l-.8 34.22z"/>
    <path fill="#fff" d="M14.999 314.287c.4-11.407.4-22.814.8-34.221 0-1.401-2.2-1.401-2.2 0-.4 11.407-.4 22.814-.8 34.221-.1 1.501 2.1 1.501 2.2 0z"/>
    <path fill="#F6F2EF" d="M14.498 291.071c3.9-2.201 4.2-2.301 8.5-3.501l-8.5 3.501z"/>
    <path fill="#fff" d="M15.098 292.073c.8-.4 1.6-.9 2.3-1.3.3-.2.6-.301.9-.501.1-.1.3-.1.4-.2.1 0 .1-.1.2-.1.3-.1-.2.1 0 0 1.4-.6 2.9-1 4.4-1.401 1.4-.4.8-2.601-.6-2.201-1.5.4-3 .8-4.5 1.401-1.5.6-2.9 1.401-4.3 2.201-1.2.801-.1 2.802 1.2 2.101z"/>
    <path stroke="#fff" stroke-miterlimit="10" stroke-width="2" d="M220.159 453.87h-16.197v74.444h16.197V453.87zM236.356 453.87h-16.197v74.444h16.197V453.87zM225.758 465.377v49.83M231.157 488.19v33.22M186.813 459.038l-15.183-5.646-25.937 69.772 15.183 5.646 25.937-69.772zM172.869 466.077l-11.098 29.918M169.969 489.391l-11.598 31.119"/>
    <path fill="#fff" d="M220.159 460.074h-16.197v2.6h16.197v-2.6zM220.159 464.076h-16.197v2.6h16.197v-2.6zM220.159 515.207h-16.197v2.6h16.197v-2.6zM220.159 519.109h-16.197v2.6h16.197v-2.6z"/>
    <path stroke="#fff" stroke-miterlimit="10" stroke-width="2" d="M203.962 453.87h-16.197v74.444h16.197V453.87z"/>
    <path fill="#fff" d="M203.962 460.074h-16.197v2.6h16.197v-2.6zM203.962 464.076h-16.197v2.6h16.197v-2.6zM199.964 471.581h-8.1v34.52h8.1v-34.52zM203.962 515.207h-16.197v2.6h16.197v-2.6zM203.962 519.109h-16.197v2.6h16.197v-2.6z"/>
    <path stroke="#fff" stroke-miterlimit="10" stroke-width="2" d="M170.269 456.971l15.097 5.703M147.273 518.909l15.098 5.803"/>
    <path fill="#F6F2EF" stroke="#fff" stroke-linecap="round" stroke-linejoin="round" stroke-miterlimit="10" stroke-width="2" d="M204.662 131.977h-20.296v-19.012l10.098-4.202 10.198 4.202v19.012z"/>
    <path fill="#F6F2EF" stroke="#fff" stroke-linecap="round" stroke-linejoin="round" stroke-miterlimit="10" stroke-width="2" d="M194.464 105.262l-12.198 5.403v4.803l12.198-5.504 12.197 5.504v-4.803l-12.197-5.403z"/>
    <path fill="#fff" d="M194.466 120.371c1.491 0 2.7-1.21 2.7-2.702s-1.209-2.702-2.7-2.702-2.7 1.21-2.7 2.702 1.209 2.702 2.7 2.702z"/>
    <path stroke="#fff" stroke-linecap="round" stroke-linejoin="round" stroke-miterlimit="10" stroke-width="2" d="M198.566 123.272h-8.2v8.606h8.2v-8.606z"/>
    <g opacity=".7">
        <path fill="#fff" d="M6.499 118.77h77.485c3.6 0 6.499-2.902 6.499-6.504 0-3.602-2.9-6.504-6.5-6.504H6.5c-3.6 0-6.499 2.902-6.499 6.504 0 3.502 2.9 6.504 6.499 6.504zM19.896 144.685h87.783c3.6 0 6.499-2.902 6.499-6.504 0-3.602-2.899-6.504-6.499-6.504H19.896c-3.6 0-6.498 2.902-6.498 6.504 0 3.602 2.899 6.504 6.498 6.504z" opacity=".7"/>
        <path fill="#fff" d="M32.794 125.274c0-3.602-3.5-6.504-7.798-6.504h57.788c-4.299 0-7.798 2.902-7.798 6.504 0 3.602 3.5 6.504 7.798 6.504H24.996c4.299 0 7.798-2.902 7.798-6.504zM128.475 144.685c3.589 0 6.499-2.912 6.499-6.504 0-3.592-2.91-6.504-6.499-6.504-3.589 0-6.498 2.912-6.498 6.504 0 3.592 2.909 6.504 6.498 6.504zM63.088 883.827h83.884c3.899 0 6.998 3.202 6.998 7.004 0 3.902-3.199 7.004-6.998 7.004H63.088c-3.9 0-6.999-3.202-6.999-7.004-.1-3.902 3.1-7.004 6.999-7.004zM77.585 855.61h94.982c3.899 0 6.998 3.202 6.998 7.004 0 3.903-3.199 7.005-6.998 7.005H77.585c-3.9 0-6.999-3.202-6.999-7.005-.1-3.802 3.1-7.004 6.999-7.004zM91.482 876.723c0 3.902-3.799 7.004-8.498 7.004h62.488c-4.699 0-8.498-3.202-8.498-7.004 0-3.903 3.799-7.004 8.498-7.004H83.084c4.599 0 8.398 3.101 8.398 7.004zM195.063 869.719c3.865 0 6.998-3.136 6.998-7.004 0-3.869-3.133-7.005-6.998-7.005-3.866 0-6.999 3.136-6.999 7.005 0 3.868 3.133 7.004 6.999 7.004zM261.95 21.412c5.356 0 9.698-4.346 9.698-9.706 0-5.36-4.342-9.706-9.698-9.706-5.357 0-9.699 4.345-9.699 9.706 0 5.36 4.342 9.706 9.699 9.706zM231.856 21.812h-70.487c-5.499 0-9.898-4.403-9.898-9.906 0-5.503 4.399-9.906 9.898-9.906h70.487c5.499 0 9.898 4.403 9.898 9.906 0 5.503-4.499 9.906-9.898 9.906zM184.964 611.965c5.356 0 9.698-4.346 9.698-9.706 0-5.361-4.342-9.706-9.698-9.706-5.356 0-9.698 4.345-9.698 9.706 0 5.36 4.342 9.706 9.698 9.706zM215.158 592.253h70.487c5.499 0 9.898 4.403 9.898 9.906 0 5.503-4.399 9.906-9.898 9.906h-70.487c-5.499 0-9.898-4.403-9.898-9.906 0-5.503 4.399-9.906 9.898-9.906zM337.235 289.272h-92.282c-4.299 0-7.799-3.502-7.799-7.805s3.5-7.805 7.799-7.805h92.382c4.299 0 7.799 3.502 7.799 7.805-.1 4.403-3.6 7.805-7.899 7.805zM321.338 320.29h-104.58c-4.299 0-7.799-3.502-7.799-7.804 0-4.303 3.5-7.805 7.799-7.805h104.48c4.299 0 7.798 3.502 7.798 7.805 0 4.302-3.499 7.804-7.698 7.804z" opacity=".7"/>
        <path fill="#fff" d="M305.941 297.076c0-4.302 4.199-7.804 9.298-7.804h-68.786c5.099 0 9.298 3.502 9.298 7.804 0 4.303-4.199 7.805-9.298 7.805h68.786c-5.099-.1-9.298-3.502-9.298-7.805zM191.964 320.29c4.307 0 7.798-3.494 7.798-7.804 0-4.311-3.491-7.805-7.798-7.805s-7.799 3.494-7.799 7.805c0 4.31 3.492 7.804 7.799 7.804z" opacity=".7"/>
        <g opacity=".7">
            <path fill="#fff" d="M33.594 426.053c2.375 0 4.3-1.926 4.3-4.302 0-2.376-1.925-4.303-4.3-4.303-2.374 0-4.3 1.927-4.3 4.303s1.926 4.302 4.3 4.302zM33.594 443.464c2.375 0 4.3-1.926 4.3-4.303 0-2.376-1.925-4.302-4.3-4.302-2.374 0-4.3 1.926-4.3 4.302 0 2.377 1.926 4.303 4.3 4.303zM33.594 460.974c2.375 0 4.3-1.926 4.3-4.302 0-2.377-1.925-4.303-4.3-4.303-2.374 0-4.3 1.926-4.3 4.303 0 2.376 1.926 4.302 4.3 4.302zM33.594 478.485c2.375 0 4.3-1.927 4.3-4.303s-1.925-4.302-4.3-4.302c-2.374 0-4.3 1.926-4.3 4.302 0 2.376 1.926 4.303 4.3 4.303zM33.594 495.995c2.375 0 4.3-1.926 4.3-4.303 0-2.376-1.925-4.302-4.3-4.302-2.374 0-4.3 1.926-4.3 4.302 0 2.377 1.926 4.303 4.3 4.303zM51.39 426.053c2.376 0 4.3-1.926 4.3-4.302 0-2.376-1.924-4.303-4.3-4.303-2.374 0-4.3 1.927-4.3 4.303s1.926 4.302 4.3 4.302zM51.39 443.464c2.376 0 4.3-1.926 4.3-4.303 0-2.376-1.924-4.302-4.3-4.302-2.374 0-4.3 1.926-4.3 4.302 0 2.377 1.926 4.303 4.3 4.303zM51.39 460.974c2.376 0 4.3-1.926 4.3-4.302 0-2.377-1.924-4.303-4.3-4.303-2.374 0-4.3 1.926-4.3 4.303 0 2.376 1.926 4.302 4.3 4.302zM51.39 478.485c2.376 0 4.3-1.927 4.3-4.303s-1.924-4.302-4.3-4.302c-2.374 0-4.3 1.926-4.3 4.302 0 2.376 1.926 4.303 4.3 4.303zM51.39 495.995c2.376 0 4.3-1.926 4.3-4.303 0-2.376-1.924-4.302-4.3-4.302-2.374 0-4.3 1.926-4.3 4.302 0 2.377 1.926 4.303 4.3 4.303zM69.287 426.053c2.375 0 4.3-1.926 4.3-4.302 0-2.376-1.925-4.303-4.3-4.303s-4.3 1.927-4.3 4.303 1.925 4.302 4.3 4.302zM69.287 443.464c2.375 0 4.3-1.926 4.3-4.303 0-2.376-1.925-4.302-4.3-4.302s-4.3 1.926-4.3 4.302c0 2.377 1.925 4.303 4.3 4.303zM69.287 460.974c2.375 0 4.3-1.926 4.3-4.302 0-2.377-1.925-4.303-4.3-4.303s-4.3 1.926-4.3 4.303c0 2.376 1.925 4.302 4.3 4.302zM69.287 478.485c2.375 0 4.3-1.927 4.3-4.303s-1.925-4.302-4.3-4.302-4.3 1.926-4.3 4.302c0 2.376 1.925 4.303 4.3 4.303zM69.287 495.995c2.375 0 4.3-1.926 4.3-4.303 0-2.376-1.925-4.302-4.3-4.302s-4.3 1.926-4.3 4.302c0 2.377 1.925 4.303 4.3 4.303zM87.084 426.053c2.374 0 4.3-1.926 4.3-4.302 0-2.376-1.925-4.303-4.3-4.303s-4.3 1.927-4.3 4.303 1.925 4.302 4.3 4.302zM87.084 443.464c2.374 0 4.3-1.926 4.3-4.303 0-2.376-1.925-4.302-4.3-4.302s-4.3 1.926-4.3 4.302c0 2.377 1.925 4.303 4.3 4.303zM87.084 460.974c2.374 0 4.3-1.926 4.3-4.302 0-2.377-1.925-4.303-4.3-4.303s-4.3 1.926-4.3 4.303c0 2.376 1.925 4.302 4.3 4.302zM87.084 478.485c2.374 0 4.3-1.927 4.3-4.303s-1.925-4.302-4.3-4.302-4.3 1.926-4.3 4.302c0 2.376 1.925 4.303 4.3 4.303zM87.084 495.995c2.374 0 4.3-1.926 4.3-4.303 0-2.376-1.925-4.302-4.3-4.302s-4.3 1.926-4.3 4.302c0 2.377 1.925 4.303 4.3 4.303zM104.88 426.053c2.375 0 4.3-1.926 4.3-4.302 0-2.376-1.925-4.303-4.3-4.303s-4.3 1.927-4.3 4.303 1.925 4.302 4.3 4.302zM104.88 443.464c2.375 0 4.3-1.926 4.3-4.303 0-2.376-1.925-4.302-4.3-4.302s-4.3 1.926-4.3 4.302c0 2.377 1.925 4.303 4.3 4.303zM104.88 460.974c2.375 0 4.3-1.926 4.3-4.302 0-2.377-1.925-4.303-4.3-4.303s-4.3 1.926-4.3 4.303c0 2.376 1.925 4.302 4.3 4.302zM104.88 478.485c2.375 0 4.3-1.927 4.3-4.303s-1.925-4.302-4.3-4.302-4.3 1.926-4.3 4.302c0 2.376 1.925 4.303 4.3 4.303zM104.88 495.995c2.375 0 4.3-1.926 4.3-4.303 0-2.376-1.925-4.302-4.3-4.302s-4.3 1.926-4.3 4.302c0 2.377 1.925 4.303 4.3 4.303z" opacity=".7"/>
        </g>
        <path fill="#fff" d="M214.759 979.384c2.375 0 4.3-1.926 4.3-4.302 0-2.377-1.925-4.303-4.3-4.303-2.374 0-4.3 1.926-4.3 4.303 0 2.376 1.926 4.302 4.3 4.302zM214.759 996.895c2.375 0 4.3-1.927 4.3-4.303s-1.925-4.302-4.3-4.302c-2.374 0-4.3 1.926-4.3 4.302 0 2.376 1.926 4.303 4.3 4.303zM214.759 1014.41c2.375 0 4.3-1.93 4.3-4.31 0-2.37-1.925-4.3-4.3-4.3-2.374 0-4.3 1.93-4.3 4.3 0 2.38 1.926 4.31 4.3 4.31zM214.759 1031.92c2.375 0 4.3-1.93 4.3-4.31 0-2.37-1.925-4.3-4.3-4.3-2.374 0-4.3 1.93-4.3 4.3 0 2.38 1.926 4.31 4.3 4.31zM232.556 979.384c2.375 0 4.3-1.926 4.3-4.302 0-2.377-1.925-4.303-4.3-4.303s-4.3 1.926-4.3 4.303c0 2.376 1.925 4.302 4.3 4.302zM232.556 996.895c2.375 0 4.3-1.927 4.3-4.303s-1.925-4.302-4.3-4.302-4.3 1.926-4.3 4.302c0 2.376 1.925 4.303 4.3 4.303zM232.556 1014.41c2.375 0 4.3-1.93 4.3-4.31 0-2.37-1.925-4.3-4.3-4.3s-4.3 1.93-4.3 4.3c0 2.38 1.925 4.31 4.3 4.31zM232.556 1031.92c2.375 0 4.3-1.93 4.3-4.31 0-2.37-1.925-4.3-4.3-4.3s-4.3 1.93-4.3 4.3c0 2.38 1.925 4.31 4.3 4.31zM250.353 979.384c2.375 0 4.3-1.926 4.3-4.302 0-2.377-1.925-4.303-4.3-4.303s-4.3 1.926-4.3 4.303c0 2.376 1.925 4.302 4.3 4.302zM250.353 996.895c2.375 0 4.3-1.927 4.3-4.303s-1.925-4.302-4.3-4.302-4.3 1.926-4.3 4.302c0 2.376 1.925 4.303 4.3 4.303zM250.353 1014.41c2.375 0 4.3-1.93 4.3-4.31 0-2.37-1.925-4.3-4.3-4.3s-4.3 1.93-4.3 4.3c0 2.38 1.925 4.31 4.3 4.31zM250.353 1031.92c2.375 0 4.3-1.93 4.3-4.31 0-2.37-1.925-4.3-4.3-4.3s-4.3 1.93-4.3 4.3c0 2.38 1.925 4.31 4.3 4.31zM268.249 979.384c2.375 0 4.3-1.926 4.3-4.302 0-2.377-1.925-4.303-4.3-4.303s-4.3 1.926-4.3 4.303c0 2.376 1.925 4.302 4.3 4.302zM268.249 996.895c2.375 0 4.3-1.927 4.3-4.303s-1.925-4.302-4.3-4.302-4.3 1.926-4.3 4.302c0 2.376 1.925 4.303 4.3 4.303zM268.249 1014.41c2.375 0 4.3-1.93 4.3-4.31 0-2.37-1.925-4.3-4.3-4.3s-4.3 1.93-4.3 4.3c0 2.38 1.925 4.31 4.3 4.31zM268.249 1031.92c2.375 0 4.3-1.93 4.3-4.31 0-2.37-1.925-4.3-4.3-4.3s-4.3 1.93-4.3 4.3c0 2.38 1.925 4.31 4.3 4.31zM286.046 979.384c2.374 0 4.3-1.926 4.3-4.302 0-2.377-1.926-4.303-4.3-4.303-2.375 0-4.3 1.926-4.3 4.303 0 2.376 1.925 4.302 4.3 4.302zM286.046 996.895c2.374 0 4.3-1.927 4.3-4.303s-1.926-4.302-4.3-4.302c-2.375 0-4.3 1.926-4.3 4.302 0 2.376 1.925 4.303 4.3 4.303zM286.046 1014.41c2.374 0 4.3-1.93 4.3-4.31 0-2.37-1.926-4.3-4.3-4.3-2.375 0-4.3 1.93-4.3 4.3 0 2.38 1.925 4.31 4.3 4.31zM286.046 1031.92c2.374 0 4.3-1.93 4.3-4.31 0-2.37-1.926-4.3-4.3-4.3-2.375 0-4.3 1.93-4.3 4.3 0 2.38 1.925 4.31 4.3 4.31z" opacity=".7"/>
        <g opacity=".7">
            <g opacity=".7">
                <path fill="#fff" d="M284.546 746.545v-3.602h-3.6v-1.701h3.6v-3.602h1.7v3.602h3.6v1.701h-3.6v3.602h-1.7zM268.049 746.545v-3.602h-3.6v-1.701h3.6v-3.602h1.7v3.602h3.6v1.701h-3.6v3.602h-1.7zM251.452 746.545v-3.602h-3.6v-1.701h3.6v-3.602h1.7v3.602h3.6v1.701h-3.6v3.602h-1.7zM234.855 746.545v-3.602h-3.6v-1.701h3.6v-3.602h1.7v3.602h3.6v1.701h-3.6v3.602h-1.7zM218.358 746.545v-3.602h-3.6v-1.701h3.6v-3.602h1.7v3.602h3.6v1.701h-3.7v3.602h-1.6z" opacity=".7"/>
            </g>
            <g opacity=".7">
                <path fill="#fff" d="M284.546 727.734v-3.602h-3.6v-1.701h3.6v-3.602h1.7v3.602h3.6v1.701h-3.6v3.602h-1.7zM268.049 727.734v-3.602h-3.6v-1.701h3.6v-3.602h1.7v3.602h3.6v1.701h-3.6v3.602h-1.7zM251.452 727.734v-3.602h-3.6v-1.701h3.6v-3.602h1.7v3.602h3.6v1.701h-3.6v3.602h-1.7z" opacity=".7"/>
            </g>
        </g>
    </g>
</svg>
