<svg xmlns="http://www.w3.org/2000/svg" width="1916" height="1120" fill="none" viewBox="0 0 1916 1120">
    <path fill="#fff" d="M214.778 1047.17c2.375 0 4.3-1.92 4.3-4.3 0-2.37-1.925-4.3-4.3-4.3s-4.3 1.93-4.3 4.3c0 2.38 1.925 4.3 4.3 4.3zM232.576 1047.17c2.375 0 4.3-1.92 4.3-4.3 0-2.37-1.925-4.3-4.3-4.3s-4.3 1.93-4.3 4.3c0 2.38 1.925 4.3 4.3 4.3zM250.374 1047.17c2.375 0 4.3-1.92 4.3-4.3 0-2.37-1.925-4.3-4.3-4.3s-4.3 1.93-4.3 4.3c0 2.38 1.925 4.3 4.3 4.3zM268.273 1047.17c2.374 0 4.3-1.92 4.3-4.3 0-2.37-1.926-4.3-4.3-4.3-2.375 0-4.3 1.93-4.3 4.3 0 2.38 1.925 4.3 4.3 4.3zM286.071 1047.17c2.374 0 4.3-1.92 4.3-4.3 0-2.37-1.926-4.3-4.3-4.3-2.375 0-4.3 1.93-4.3 4.3 0 2.38 1.925 4.3 4.3 4.3z"/>
    <path fill="#F6F2EF" d="M110.988 729.06c.8-2.301.4-5.002-1-7.003-.6-.8-1.3-1.6-1.4-2.6-.1-1.101.7-2.001 1.1-2.902 1.4-3.301-1.1-7.002-4.1-8.903-.599-.4-1.199-.7-1.399-1.4-.1-.4 0-.8 0-1.201.2-2-.8-4.001-2.2-5.502-1.4-1.5-7.6-1.5-9 0-1.4 1.501-2.399 3.502-2.199 5.502 0 .401.1.801 0 1.201-.2.6-.8 1-1.4 1.4-3 1.901-5.5 5.602-4.1 8.903.4 1.001 1.2 1.901 1.1 2.902-.1 1-.8 1.8-1.4 2.6-1.4 2.001-1.8 4.702-1 7.003.5 1.4 1.3 2.801 1.2 4.301-.2 1.901-2 3.602-1.5 5.402.6 1.901 26.898 1.901 27.398 0 .5-1.8-1.3-3.501-1.5-5.402 0-1.5.9-2.901 1.4-4.301z"/>
    <path fill="#fff" d="M112.088 729.36c.8-2.6.4-5.601-1.1-7.902-.4-.601-1.1-1.201-1.2-2.001-.1-.7.5-1.401.8-2.101.6-1.2.8-2.401.7-3.701-.3-2.701-2.2-5.002-4.3-6.602-.5-.301-1.499-.701-1.599-1.301-.2-.6.1-1.4.1-2.001-.1-1.5-.8-2.901-1.7-4.101-1.3-1.701-2.9-2.201-5-2.401-1.8-.2-4.1-.1-5.7.9-2.199 1.301-3.399 4.402-3.199 6.903 0 .9-.1 1.1-.8 1.6-.5.301-1 .701-1.4 1.101-1.1.9-2.1 2.101-2.8 3.401-.5 1-.9 2.101-.9 3.301 0 1.601.7 2.601 1.3 4.102.6 1.5-.7 2.401-1.4 3.601-.7 1.3-1.1 2.801-1.1 4.301 0 1.301.2 2.501.7 3.702.7 1.7 1.2 2.901.3 4.701-.6 1.401-1.899 3.902-.2 5.102.7.5 1.6.601 2.4.701 1.4.2 2.8.3 4.2.4 3.6.2 7.2.3 10.699.2 3.2-.1 6.599-.1 9.699-.801 1.1-.3 2-.8 2.1-2 .1-1.401-.6-2.601-1.2-3.902-1-2-.1-3.401.6-5.202.5-1.4-1.7-2-2.2-.6-.4 1.201-1.1 2.401-1.2 3.802-.1 1.2.3 2.3.8 3.401.3.5.6 1.1.7 1.7v.701c-.1-.1.3-.4.2-.3.3-.1 0 0-.1 0 .2 0-.2.1-.3.1-2.2.6-4.599.6-6.899.7-3.3.1-6.5.2-9.8 0-2.499-.1-5.099-.1-7.598-.6-.3-.1-.6-.2-1-.3.1 0-.1 0-.1-.1 0 .2.2.1.1.1.4.2.1.5.2-.201.1-1.1.9-2.2 1.3-3.201.4-1.2.3-2.4-.1-3.601-.4-1.3-1.1-2.501-1.2-3.901-.1-1.301.2-2.701.8-3.902.5-1 1.4-1.8 1.7-2.801.4-1.3 0-2.401-.6-3.601-1.3-2.501-.4-4.802 1.5-6.802.9-.901 2-1.401 2.9-2.201.999-1.001.799-1.901.799-3.201 0-1.301.5-2.601 1.3-3.602.6-.9 1.2-1.1 2.2-1.3 1.6-.3 3.6-.3 5.099.2 1 .4 1.7 1.5 2.1 2.501.4.8.5 1.7.4 2.601 0 .6-.1 1.2.1 1.8.5 1.201 1.8 1.701 2.8 2.501 1.099.901 2.199 2.101 2.699 3.502.5 1.4.3 2.701-.4 4.001-.6 1.2-1.1 2.401-.6 3.701.5 1.301 1.6 2.301 2.1 3.602.5 1.5.5 3.001.1 4.501-.4 1.601 1.7 2.201 2.2.8z"/>
    <path fill="#F6F2EF" d="M88.992 732.961c.9-2.901.5-6.202-1.2-8.703-.7-1-1.6-2-1.7-3.201-.1-1.3.9-2.401 1.4-3.601 1.7-4.102-1.4-8.703-5.2-11.104-.7-.4-1.5-.9-1.7-1.701-.1-.5 0-1 0-1.4.3-2.501-1-5.002-2.7-6.903-1.799-1.8-3.399-3.101-5.599-4.401-2.2 1.3-3.8 2.601-5.599 4.401-1.8 1.801-3 4.302-2.7 6.903 0 .5.2 1 0 1.4-.2.801-1 1.301-1.7 1.701-3.8 2.301-6.899 7.002-5.199 11.104.5 1.2 1.4 2.301 1.4 3.601-.1 1.201-1 2.201-1.7 3.201-1.7 2.501-2.2 5.802-1.2 8.703.6 1.801 1.7 3.502 1.5 5.302-.2 2.401-2.5 4.502-1.8 6.703.7 2.401 33.497 2.401 34.197 0 .7-2.301-1.6-4.402-1.8-6.703-.4-1.9.7-3.601 1.3-5.302z"/>
    <path fill="#fff" d="M90.091 733.262c1-3.101.6-6.703-1.3-9.404-.4-.7-1-1.3-1.4-2-.5-1.001-.2-1.801.3-2.601.7-1.401 1.3-2.801 1.3-4.402-.1-3.101-1.9-5.902-4.2-7.903-.5-.5-1.1-.9-1.699-1.3-.9-.6-1.6-.9-1.5-2.001.1-1.6-.1-3.101-.7-4.601-1.5-3.502-4.9-6.103-8.099-8.003-.3-.2-.8-.2-1.1 0-4.2 2.401-9.199 6.502-8.899 11.904 0 .7.3 1.3-.2 1.901-.3.4-.9.6-1.3.9-1.1.8-2.2 1.701-3.1 2.701-1.5 1.801-2.6 3.901-2.8 6.202-.1 1.101.1 2.201.5 3.201.5 1.201 1.6 2.401 1.2 3.802-.3 1.2-1.5 2.201-2.1 3.301-.599 1.1-.999 2.401-1.199 3.701-.2 1.201-.1 2.401.1 3.602.3 1.5 1 2.801 1.4 4.201.5 1.3.4 2.401-.1 3.701-.5 1.101-1.1 2.201-1.4 3.402-.5 2.5.9 3.401 3 3.801 2.5.5 5.1.6 7.599.8 6.3.3 12.599.3 18.898-.2 1.9-.2 4.4-.2 6.1-1.2 1.4-.901 1-3.001.5-4.302-.5-1.3-1.4-2.501-1.5-3.901.1-2.201 1.1-3.802 1.7-5.302.5-1.401-1.7-2.001-2.2-.6-.8 2.401-2.1 4.601-1.2 7.102.3 1.001.9 1.901 1.3 2.801.2.6.3 1.101.4 1.701 0 .5-.2.2 0 .2.4 0 0-.2.1-.1 0-.2.2-.1 0 0-.3.1.1 0-.2.1l-.9.3c-.9.2-1.8.3-2.7.4-5.7.6-11.599.6-17.298.5-2.6-.1-5.2-.2-7.8-.5-.8-.1-1.7-.2-2.5-.4-.2 0-.7-.2-.7-.2l-.2-.1c.1 0 0 .1.1.2.2 0 0 .3 0-.2 0-.3 0-.6.1-.9.1-.501.4-1.001.6-1.601.5-1 1-2.001 1.2-3.201.4-2.601-1.3-4.802-1.8-7.303-.5-2.501.2-5.002 1.7-7.002 1.5-2.101 2.1-3.702.9-6.102-.6-1.301-1.2-2.401-1.1-3.802.1-1.2.6-2.401 1.2-3.501.7-1.1 1.6-2.101 2.6-2.901 1-.8 2.3-1.301 3-2.301.8-1.1.5-2.201.5-3.501 0-1.401.6-2.801 1.4-3.902 1.6-2.4 4-4.201 6.499-5.602h-1.1c3.4 2.001 7.7 5.202 7.8 9.504 0 .8-.2 1.7 0 2.501.2.9.9 1.5 1.6 2 1.599 1.101 3.099 2.201 4.299 3.902 1 1.5 1.7 3.401 1.3 5.202-.4 1.9-2 3.301-1.7 5.302.2 1.9 1.8 3.201 2.6 4.801.9 2.001 1 4.302.4 6.503-.8 1.5 1.4 2.1 1.8.7z"/>
    <path fill="#F6F2EF" d="M80.493 730.561c-3.1 1.4-6 3.401-8.2 5.902v16.205"/>
    <path fill="#fff" d="M79.892 729.561c-3.1 1.4-6 3.301-8.2 5.802-.8.9-.6 1.8-.6 2.901V752.669c0 1.4 2.2 1.5 2.2 0v-16.206c-.1.3-.2.5-.3.8 2.3-2.501 5-4.401 8-5.702 1.4-.7.2-2.601-1.1-2z"/>
    <path fill="#F6F2EF" d="M72.293 736.563c-.6-4.102-.7-8.303-.4-12.405l.4 12.405z"/>
    <path fill="#fff" d="M73.393 736.263c-.6-4.001-.6-8.103-.4-12.104.1-1.401-2.2-1.401-2.2 0-.3 4.301-.1 8.503.5 12.704.1.6.9.901 1.4.8.5-.2.7-.8.7-1.4z"/>
    <path fill="#F6F2EF" d="M95.39 748.667c.2-7.102.5-25.009.7-32.111l-.7 32.111z"/>
    <path fill="#fff" d="M96.59 748.667c.4-10.703.4-21.407.7-32.111 0-1.401-2.2-1.401-2.2 0-.4 10.704-.4 21.408-.7 32.111-.1 1.501 2.1 1.501 2.2 0z"/>
    <path fill="#F6F2EF" d="M96.09 726.859c3.6-2.001 3.1-1.8 7.1-2.901l-7.1 2.901z"/>
    <path fill="#fff" d="M96.69 727.86l2.1-1.2c.2-.1.4-.201.7-.401.1-.1.2-.1.3-.1.1 0 .1 0 .2-.1.2-.1-.2.1-.1 0 1.2-.4 2.4-.8 3.7-1.1.6-.2 1-.8.8-1.401-.2-.6-.8-1-1.4-.8-1.2.3-2.5.6-3.7 1.101-1.3.5-2.4 1.2-3.6 1.9-.5.3-.7 1.001-.4 1.501.2.7.8.9 1.4.6z"/>
    <path fill="#F6F2EF" d="M285.87 84.13h-50.394v64.123h50.394V84.13z"/>
    <path fill="#fff" d="M285.87 147.153h-50.395l1.1 1.1v-21.608-34.612-7.903l-1.1 1.1H285.87l-1.1-1.1v64.123c0 1.4 2.2 1.5 2.2 0v-21.608-34.612-7.903c0-.6-.5-1.1-1.1-1.1h-50.395c-.6 0-1.1.5-1.1 1.1v64.123c0 .6.5 1.1 1.1 1.1H285.87c1.4.1 1.4-2.2 0-2.2z"/>
    <path fill="#F6F2EF" d="M267.172 98.135h-50.395v64.123h50.395V98.135z"/>
    <path fill="#fff" d="M267.172 161.158H216.777l1.1 1.1V140.65v-34.612-7.903l-1.1 1.1H267.172l-1.1-1.1v64.123c0 1.4 2.2 1.5 2.2 0V140.65v-34.612-7.903c0-.6-.5-1.1-1.1-1.1H216.777c-.6 0-1.1.5-1.1 1.1v64.123c0 .6.5 1.1 1.1 1.1H267.172c1.5 0 1.5-2.2 0-2.2z"/>
    <path fill="#fff" d="M260.373 137.649h-36.097v3.001h36.097v-3.001zM260.373 143.551h-36.097v3.001h36.097v-3.001zM246.574 149.453h-22.298v3.001h22.298v-3.001z"/>
    <path fill="#F6F2EF" d="M76.592 291.304c.8-2.501.4-5.302-1.1-7.503-.6-.9-1.4-1.701-1.5-2.801-.1-1.1.7-2.101 1.2-3.101 1.5-3.501-1.2-7.403-4.4-9.503-.6-.401-1.3-.801-1.5-1.501-.1-.4 0-.8 0-1.2.2-2.201-.8-4.302-2.3-5.902-1.499-1.601-8.098-1.601-9.598 0-1.5 1.6-2.6 3.701-2.3 5.902 0 .4.1.8 0 1.2-.2.7-.9 1.1-1.5 1.501-3.2 2-5.9 6.002-4.4 9.503.4 1 1.2 2.001 1.2 3.101-.1 1.1-.9 1.901-1.5 2.801-1.5 2.101-1.9 5.002-1.1 7.503.5 1.5 1.4 3.001 1.3 4.601-.2 2.001-2.1 3.802-1.6 5.802.6 2.101 28.598 2.101 29.198 0 .6-1.9-1.4-3.701-1.6-5.802.1-1.7 1-3.101 1.5-4.601z"/>
    <path fill="#fff" d="M77.692 291.604c.9-3.001.4-6.102-1.4-8.603-.4-.5-1-1.1-1.1-1.8-.1-.801.5-1.601.8-2.301.6-1.301.8-2.601.7-4.002-.4-2.701-2.2-5.102-4.4-6.702-.5-.4-1.7-.8-1.9-1.501-.2-.6.1-1.5 0-2.2-.2-1.701-.9-3.202-1.9-4.502-1.3-1.701-3.199-2.201-5.299-2.301-1.9-.1-4.3-.1-6 1-2.299 1.401-3.499 4.802-3.299 7.403.1 1-.5 1.201-1.2 1.701-.6.4-1.2.9-1.7 1.3-1.1 1.001-2 2.201-2.6 3.501-.5 1.101-.8 2.401-.8 3.602.1 1.6 1 2.601 1.4 4.101.5 1.501-1.1 2.701-1.7 4.002-.699 1.3-.999 2.801-.999 4.301 0 1.601.4 3.001 1 4.502.2.6.5 1.2.6 1.9.1 1.001-.2 1.801-.7 2.701-.7 1.401-1.8 4.002-.1 5.102.7.5 1.7.6 2.5.7 1.5.201 3.1.401 4.6.501 3.699.2 7.498.3 11.298.2 3.4-.1 7-.1 10.199-.901 1.2-.3 2-.8 2.2-2.1.2-1.601-.7-2.901-1.3-4.302-.6-1.901.4-3.501 1.1-5.302.5-1.4-1.7-2.001-2.2-.6-.4 1.3-1.1 2.401-1.3 3.801-.2 1.401.2 2.501.8 3.702.3.6.6 1.1.7 1.7 0 .1.1 1.101 0 1.101 0 0 .1-.3.2-.4h-.1c-.2 0 .2-.101 0 0-.1 0-.2.1-.3.1-2.4.6-4.9.7-7.3.8-3.499.2-6.998.2-10.398.1-2.7-.1-5.5-.1-8.2-.7-.4-.1-.7-.2-1.1-.3l-.2-.1c.2-.301.1 1 .2 0 .2-1.201.8-2.201 1.3-3.402.5-1.3.5-2.601.1-3.901-.4-1.301-1.1-2.401-1.3-3.801-.2-1.501 0-3.102.6-4.402.6-1.2 1.6-2.101 2-3.301.4-1.301 0-2.501-.6-3.702-1.4-2.6-.6-5.101 1.4-7.202.9-.9 1.9-1.501 2.9-2.301 1.3-1 1.2-2.001 1.1-3.501 0-1.401.6-2.801 1.4-4.002.6-.8 1.2-1.1 2.2-1.4 1.8-.4 4-.4 5.699.3 1 .4 1.7 1.501 2.1 2.501.4.8.6 1.701.6 2.601 0 .8-.2 1.5.1 2.301.6 1.3 2.1 1.9 3.1 2.801 1.1 1 2.1 2.1 2.6 3.501.6 1.4.5 2.801-.2 4.101-.7 1.301-1.3 2.601-.8 4.102.5 1.5 1.8 2.601 2.299 4.101.5 1.601.5 3.201 0 4.802 0 1.4 2.2 2.001 2.6.6z"/>
    <path fill="#F6F2EF" d="M59.994 312.211c.3-7.603.5-26.709.8-34.212l-.8 34.212z"/>
    <path fill="#fff" d="M61.194 312.212c.4-11.405.4-22.809.8-34.213 0-1.4-2.2-1.4-2.2 0-.4 11.404-.4 22.808-.8 34.213-.1 1.5 2.1 1.5 2.2 0z"/>
    <path fill="#F6F2EF" d="M60.693 289.003c3.9-2.201 4.2-2.301 8.5-3.502l-8.5 3.502z"/>
    <path fill="#fff" d="M61.293 290.004c.8-.401 1.6-.901 2.3-1.301.3-.2.6-.3.9-.5.1-.1.3-.1.4-.2.1 0 .1-.1.2-.1.3-.1-.2.1 0 0 1.4-.6 2.9-1.001 4.4-1.401 1.4-.4.8-2.601-.6-2.2-1.5.4-3 .8-4.5 1.4-1.5.6-2.9 1.401-4.3 2.201-1.2.8-.1 2.801 1.2 2.101z"/>
    <path stroke="#fff" stroke-miterlimit="10" stroke-width="2" d="M266.373 451.761h-16.199v74.427h16.199v-74.427z"/>
    <path stroke="#fff" stroke-miterlimit="10" stroke-width="2" d="M282.57 451.761h-16.198v74.427h16.198v-74.427zM271.972 463.265v49.818M277.371 486.074v33.211M233.023 456.93l-15.184-5.646-25.933 69.757 15.183 5.646 25.934-69.757zM219.077 463.966l-11.098 29.91M216.178 487.274l-11.599 31.111"/>
    <path fill="#fff" d="M266.373 457.964h-16.199v2.6h16.199v-2.6zM266.373 461.965h-16.199v2.6h16.199v-2.6zM266.373 513.083h-16.199v2.6h16.199v-2.6zM266.373 516.985h-16.199v2.6h16.199v-2.6z"/>
    <path stroke="#fff" stroke-miterlimit="10" stroke-width="2" d="M250.174 451.761h-16.198v74.427h16.198v-74.427z"/>
    <path fill="#fff" d="M250.174 457.964h-16.198v2.6h16.198v-2.6zM250.174 461.965h-16.198v2.6h16.198v-2.6zM246.175 469.468h-8.1v34.512h8.1v-34.512zM250.174 513.083h-16.198v2.6h16.198v-2.6zM250.174 516.985h-16.198v2.6h16.198v-2.6z"/>
    <path stroke="#fff" stroke-miterlimit="10" stroke-width="2" d="M216.478 454.862l15.098 5.702M193.48 516.785l15.099 5.802"/>
    <path fill="#F6F2EF" stroke="#fff" stroke-linecap="round" stroke-linejoin="round" stroke-miterlimit="10" stroke-width="2" d="M250.874 129.946h-20.298V110.94l10.099-4.202 10.199 4.202v19.006z"/>
    <path fill="#F6F2EF" stroke="#fff" stroke-linecap="round" stroke-linejoin="round" stroke-miterlimit="10" stroke-width="2" d="M240.675 103.237l-12.199 5.402v4.801l12.199-5.502 12.199 5.502v-4.801l-12.199-5.402z"/>
    <path fill="#fff" d="M240.676 118.342c1.491 0 2.7-1.209 2.7-2.701 0-1.491-1.209-2.701-2.7-2.701s-2.7 1.21-2.7 2.701c0 1.492 1.209 2.701 2.7 2.701z"/>
    <path stroke="#fff" stroke-linecap="round" stroke-linejoin="round" stroke-miterlimit="10" stroke-width="2" d="M244.776 121.243h-8.2v8.603h8.2v-8.603z"/>
    <g opacity=".7">
        <path fill="#fff" d="M6.5 116.742H83.99c3.6 0 6.5-2.901 6.5-6.503 0-3.601-2.9-6.502-6.5-6.502H6.5c-3.6 0-6.499 2.901-6.499 6.502 0 3.502 2.9 6.503 6.5 6.503zM19.898 142.651h87.791c3.599 0 6.499-2.901 6.499-6.502 0-3.602-2.9-6.503-6.499-6.503H19.898c-3.6 0-6.5 2.901-6.5 6.503 0 3.601 2.9 6.502 6.5 6.502z" opacity=".7"/>
        <path fill="#fff" d="M32.797 123.244c0-3.601-3.5-6.502-7.8-6.502h57.794c-4.299 0-7.799 2.901-7.799 6.502s3.5 6.502 7.8 6.502H24.998c4.3 0 7.799-2.901 7.799-6.502zM128.487 142.651c3.589 0 6.499-2.911 6.499-6.502 0-3.592-2.91-6.503-6.499-6.503-3.59 0-6.5 2.911-6.5 6.503 0 3.591 2.91 6.502 6.5 6.502zM63.093 881.615h83.892c3.899 0 6.999 3.201 6.999 7.002 0 3.902-3.2 7.003-6.999 7.003H63.093c-3.9 0-6.999-3.201-6.999-7.003-.1-3.901 3.1-7.002 7-7.002zM77.592 853.405h94.99c3.9 0 6.999 3.201 6.999 7.002 0 3.902-3.199 7.003-6.999 7.003h-94.99c-3.9 0-7-3.201-7-7.003-.1-3.801 3.1-7.002 7-7.002zM91.49 874.512c0 3.902-3.8 7.003-8.499 7.003h62.494c-4.7 0-8.499-3.201-8.499-7.003 0-3.901 3.799-7.002 8.499-7.002H83.091c4.6 0 8.4 3.101 8.4 7.002zM195.08 867.51c3.865 0 6.999-3.135 6.999-7.003 0-3.867-3.134-7.002-6.999-7.002-3.866 0-6.999 3.135-6.999 7.002 0 3.868 3.133 7.003 6.999 7.003zM261.972 19.407c5.357 0 9.699-4.345 9.699-9.704 0-5.359-4.342-9.703-9.699-9.703-5.356 0-9.699 4.344-9.699 9.703 0 5.36 4.343 9.704 9.699 9.704zM231.876 19.807h-70.493c-5.499 0-9.899-4.401-9.899-9.903 0-5.502 4.4-9.904 9.899-9.904h70.493c5.499 0 9.899 4.402 9.899 9.904s-4.5 9.903-9.899 9.903zM184.981 609.818c5.356 0 9.699-4.345 9.699-9.704 0-5.359-4.343-9.703-9.699-9.703-5.357 0-9.699 4.344-9.699 9.703 0 5.359 4.342 9.704 9.699 9.704zM215.177 590.111h70.493c5.499 0 9.899 4.401 9.899 9.903 0 5.502-4.4 9.904-9.899 9.904h-70.493c-5.499 0-9.899-4.402-9.899-9.904s4.4-9.903 9.899-9.903zM337.265 287.203h-92.291c-4.299 0-7.799-3.502-7.799-7.803 0-4.302 3.5-7.803 7.799-7.803h92.391c4.299 0 7.799 3.501 7.799 7.803-.1 4.401-3.6 7.803-7.899 7.803zM321.366 318.214H216.777c-4.299 0-7.799-3.502-7.799-7.803 0-4.302 3.5-7.803 7.799-7.803h104.489c4.3 0 7.799 3.501 7.799 7.803 0 4.301-3.499 7.803-7.699 7.803z" opacity=".7"/>
        <path fill="#fff" d="M305.968 295.005c0-4.301 4.199-7.802 9.299-7.802h-68.793c5.1 0 9.299 3.501 9.299 7.802 0 4.302-4.199 7.803-9.299 7.803h68.793c-5.1-.1-9.299-3.501-9.299-7.803zM191.98 318.214c4.308 0 7.8-3.494 7.8-7.803 0-4.309-3.492-7.803-7.8-7.803-4.307 0-7.799 3.494-7.799 7.803 0 4.309 3.492 7.803 7.799 7.803z" opacity=".7"/>
        <g opacity=".7">
            <path fill="#fff" d="M33.597 423.951c2.375 0 4.3-1.925 4.3-4.301 0-2.376-1.925-4.302-4.3-4.302s-4.3 1.926-4.3 4.302c0 2.376 1.925 4.301 4.3 4.301zM33.597 441.358c2.375 0 4.3-1.926 4.3-4.302 0-2.376-1.925-4.301-4.3-4.301s-4.3 1.925-4.3 4.301c0 2.376 1.925 4.302 4.3 4.302zM33.597 458.864c2.375 0 4.3-1.926 4.3-4.302 0-2.375-1.925-4.301-4.3-4.301s-4.3 1.926-4.3 4.301c0 2.376 1.925 4.302 4.3 4.302zM33.597 476.37c2.375 0 4.3-1.926 4.3-4.301 0-2.376-1.925-4.302-4.3-4.302s-4.3 1.926-4.3 4.302c0 2.375 1.925 4.301 4.3 4.301zM33.597 493.876c2.375 0 4.3-1.925 4.3-4.301 0-2.376-1.925-4.302-4.3-4.302s-4.3 1.926-4.3 4.302c0 2.376 1.925 4.301 4.3 4.301zM51.395 423.951c2.375 0 4.3-1.925 4.3-4.301 0-2.376-1.925-4.302-4.3-4.302s-4.3 1.926-4.3 4.302c0 2.376 1.925 4.301 4.3 4.301zM51.395 441.358c2.375 0 4.3-1.926 4.3-4.302 0-2.376-1.925-4.301-4.3-4.301s-4.3 1.925-4.3 4.301c0 2.376 1.925 4.302 4.3 4.302zM51.395 458.864c2.375 0 4.3-1.926 4.3-4.302 0-2.375-1.925-4.301-4.3-4.301s-4.3 1.926-4.3 4.301c0 2.376 1.925 4.302 4.3 4.302zM51.395 476.37c2.375 0 4.3-1.926 4.3-4.301 0-2.376-1.925-4.302-4.3-4.302s-4.3 1.926-4.3 4.302c0 2.375 1.925 4.301 4.3 4.301zM51.395 493.876c2.375 0 4.3-1.925 4.3-4.301 0-2.376-1.925-4.302-4.3-4.302s-4.3 1.926-4.3 4.302c0 2.376 1.925 4.301 4.3 4.301zM69.293 423.951c2.375 0 4.3-1.925 4.3-4.301 0-2.376-1.925-4.302-4.3-4.302s-4.3 1.926-4.3 4.302c0 2.376 1.925 4.301 4.3 4.301zM69.293 441.358c2.375 0 4.3-1.926 4.3-4.302 0-2.376-1.925-4.301-4.3-4.301s-4.3 1.925-4.3 4.301c0 2.376 1.925 4.302 4.3 4.302zM69.293 458.864c2.375 0 4.3-1.926 4.3-4.302 0-2.375-1.925-4.301-4.3-4.301s-4.3 1.926-4.3 4.301c0 2.376 1.925 4.302 4.3 4.302zM69.293 476.37c2.375 0 4.3-1.926 4.3-4.301 0-2.376-1.925-4.302-4.3-4.302s-4.3 1.926-4.3 4.302c0 2.375 1.925 4.301 4.3 4.301zM69.293 493.876c2.375 0 4.3-1.925 4.3-4.301 0-2.376-1.925-4.302-4.3-4.302s-4.3 1.926-4.3 4.302c0 2.376 1.925 4.301 4.3 4.301zM87.091 423.951c2.375 0 4.3-1.925 4.3-4.301 0-2.376-1.925-4.302-4.3-4.302s-4.3 1.926-4.3 4.302c0 2.376 1.925 4.301 4.3 4.301zM87.091 441.358c2.375 0 4.3-1.926 4.3-4.302 0-2.376-1.925-4.301-4.3-4.301s-4.3 1.925-4.3 4.301c0 2.376 1.925 4.302 4.3 4.302zM87.091 458.864c2.375 0 4.3-1.926 4.3-4.302 0-2.375-1.925-4.301-4.3-4.301s-4.3 1.926-4.3 4.301c0 2.376 1.925 4.302 4.3 4.302zM87.091 476.37c2.375 0 4.3-1.926 4.3-4.301 0-2.376-1.925-4.302-4.3-4.302s-4.3 1.926-4.3 4.302c0 2.375 1.925 4.301 4.3 4.301zM87.091 493.876c2.375 0 4.3-1.925 4.3-4.301 0-2.376-1.925-4.302-4.3-4.302s-4.3 1.926-4.3 4.302c0 2.376 1.925 4.301 4.3 4.301zM104.889 423.951c2.375 0 4.3-1.925 4.3-4.301 0-2.376-1.925-4.302-4.3-4.302s-4.3 1.926-4.3 4.302c0 2.376 1.925 4.301 4.3 4.301zM104.889 441.358c2.375 0 4.3-1.926 4.3-4.302 0-2.376-1.925-4.301-4.3-4.301s-4.3 1.925-4.3 4.301c0 2.376 1.925 4.302 4.3 4.302zM104.889 458.864c2.375 0 4.3-1.926 4.3-4.302 0-2.375-1.925-4.301-4.3-4.301s-4.3 1.926-4.3 4.301c0 2.376 1.925 4.302 4.3 4.302zM104.889 476.37c2.375 0 4.3-1.926 4.3-4.301 0-2.376-1.925-4.302-4.3-4.302s-4.3 1.926-4.3 4.302c0 2.375 1.925 4.301 4.3 4.301zM104.889 493.876c2.375 0 4.3-1.925 4.3-4.301 0-2.376-1.925-4.302-4.3-4.302s-4.3 1.926-4.3 4.302c0 2.376 1.925 4.301 4.3 4.301z" opacity=".7"/>
        </g>
        <path fill="#fff" d="M214.778 977.149c2.375 0 4.3-1.926 4.3-4.302 0-2.375-1.925-4.301-4.3-4.301s-4.3 1.926-4.3 4.301c0 2.376 1.925 4.302 4.3 4.302zM214.778 994.655c2.375 0 4.3-1.926 4.3-4.301 0-2.376-1.925-4.302-4.3-4.302s-4.3 1.926-4.3 4.302c0 2.375 1.925 4.301 4.3 4.301zM214.778 1012.16c2.375 0 4.3-1.92 4.3-4.3s-1.925-4.3-4.3-4.3-4.3 1.92-4.3 4.3 1.925 4.3 4.3 4.3zM214.778 1029.67c2.375 0 4.3-1.93 4.3-4.3 0-2.38-1.925-4.31-4.3-4.31s-4.3 1.93-4.3 4.31c0 2.37 1.925 4.3 4.3 4.3zM232.576 977.149c2.375 0 4.3-1.926 4.3-4.302 0-2.375-1.925-4.301-4.3-4.301s-4.3 1.926-4.3 4.301c0 2.376 1.925 4.302 4.3 4.302zM232.576 994.655c2.375 0 4.3-1.926 4.3-4.301 0-2.376-1.925-4.302-4.3-4.302s-4.3 1.926-4.3 4.302c0 2.375 1.925 4.301 4.3 4.301zM232.576 1012.16c2.375 0 4.3-1.92 4.3-4.3s-1.925-4.3-4.3-4.3-4.3 1.92-4.3 4.3 1.925 4.3 4.3 4.3zM232.576 1029.67c2.375 0 4.3-1.93 4.3-4.3 0-2.38-1.925-4.31-4.3-4.31s-4.3 1.93-4.3 4.31c0 2.37 1.925 4.3 4.3 4.3zM250.374 977.149c2.375 0 4.3-1.926 4.3-4.302 0-2.375-1.925-4.301-4.3-4.301s-4.3 1.926-4.3 4.301c0 2.376 1.925 4.302 4.3 4.302zM250.374 994.655c2.375 0 4.3-1.926 4.3-4.301 0-2.376-1.925-4.302-4.3-4.302s-4.3 1.926-4.3 4.302c0 2.375 1.925 4.301 4.3 4.301zM250.374 1012.16c2.375 0 4.3-1.92 4.3-4.3s-1.925-4.3-4.3-4.3-4.3 1.92-4.3 4.3 1.925 4.3 4.3 4.3zM250.374 1029.67c2.375 0 4.3-1.93 4.3-4.3 0-2.38-1.925-4.31-4.3-4.31s-4.3 1.93-4.3 4.31c0 2.37 1.925 4.3 4.3 4.3zM268.273 977.149c2.374 0 4.3-1.926 4.3-4.302 0-2.375-1.926-4.301-4.3-4.301-2.375 0-4.3 1.926-4.3 4.301 0 2.376 1.925 4.302 4.3 4.302zM268.273 994.655c2.374 0 4.3-1.926 4.3-4.301 0-2.376-1.926-4.302-4.3-4.302-2.375 0-4.3 1.926-4.3 4.302 0 2.375 1.925 4.301 4.3 4.301zM268.273 1012.16c2.374 0 4.3-1.92 4.3-4.3s-1.926-4.3-4.3-4.3c-2.375 0-4.3 1.92-4.3 4.3s1.925 4.3 4.3 4.3zM268.273 1029.67c2.374 0 4.3-1.93 4.3-4.3 0-2.38-1.926-4.31-4.3-4.31-2.375 0-4.3 1.93-4.3 4.31 0 2.37 1.925 4.3 4.3 4.3zM286.071 977.149c2.374 0 4.3-1.926 4.3-4.302 0-2.375-1.926-4.301-4.3-4.301-2.375 0-4.3 1.926-4.3 4.301 0 2.376 1.925 4.302 4.3 4.302zM286.071 994.655c2.374 0 4.3-1.926 4.3-4.301 0-2.376-1.926-4.302-4.3-4.302-2.375 0-4.3 1.926-4.3 4.302 0 2.375 1.925 4.301 4.3 4.301zM286.071 1012.16c2.374 0 4.3-1.92 4.3-4.3s-1.926-4.3-4.3-4.3c-2.375 0-4.3 1.92-4.3 4.3s1.925 4.3 4.3 4.3zM286.071 1029.67c2.374 0 4.3-1.93 4.3-4.3 0-2.38-1.926-4.31-4.3-4.31-2.375 0-4.3 1.93-4.3 4.31 0 2.37 1.925 4.3 4.3 4.3z" opacity=".7"/>
        <g opacity=".7">
            <g opacity=".7">
                <path fill="#fff" d="M284.571 744.366v-3.601h-3.6v-1.701h3.6v-3.601h1.7v3.601h3.6v1.701h-3.6v3.601h-1.7zM268.072 744.366v-3.601h-3.6v-1.701h3.6v-3.601h1.7v3.601h3.6v1.701h-3.6v3.601h-1.7zM251.474 744.366v-3.601h-3.6v-1.701h3.6v-3.601h1.7v3.601h3.6v1.701h-3.6v3.601h-1.7zM234.876 744.366v-3.601h-3.6v-1.701h3.6v-3.601h1.7v3.601h3.6v1.701h-3.6v3.601h-1.7zM218.377 744.366v-3.601h-3.6v-1.701h3.6v-3.601h1.7v3.601h3.6v1.701h-3.7v3.601h-1.6z" opacity=".7"/>
            </g>
            <g opacity=".7">
                <path fill="#fff" d="M284.571 725.559v-3.601h-3.6v-1.701h3.6v-3.601h1.7v3.601h3.6v1.701h-3.6v3.601h-1.7zM268.072 725.559v-3.601h-3.6v-1.701h3.6v-3.601h1.7v3.601h3.6v1.701h-3.6v3.601h-1.7zM251.474 725.559v-3.601h-3.6v-1.701h3.6v-3.601h1.7v3.601h3.6v1.701h-3.6v3.601h-1.7z" opacity=".7"/>
            </g>
        </g>
    </g>
    <path fill="#F6F2EF" d="M1638.03 586.009c.8-2.501.4-5.302-1.1-7.503-.6-.9-1.4-1.7-1.5-2.801-.1-1.1.7-2.1 1.2-3.101 1.5-3.501-1.2-7.402-4.4-9.503-.6-.4-1.3-.801-1.5-1.501-.1-.4 0-.8 0-1.2.2-2.201-.8-4.302-2.3-5.902-1.5-1.601-8.1-1.601-9.6 0-1.5 1.6-2.6 3.701-2.3 5.902 0 .4.1.8 0 1.2-.2.7-.9 1.101-1.5 1.501-3.2 2-5.9 6.002-4.4 9.503.4 1.001 1.2 2.001 1.2 3.101-.1 1.101-.9 1.901-1.5 2.801-1.5 2.101-1.9 5.002-1.1 7.503.5 1.5 1.4 3.001 1.3 4.602-.2 2-2.1 3.801-1.6 5.802.6 2.1 28.6 2.1 29.2 0 .6-1.901-1.4-3.702-1.6-5.802.1-1.601 1-3.102 1.5-4.602z"/>
    <path fill="#fff" d="M1639.13 586.309c.9-3.001.4-6.102-1.4-8.603-.4-.5-1-1.1-1.1-1.8-.1-.801.5-1.601.8-2.301.6-1.301.8-2.601.7-4.002-.4-2.701-2.2-5.101-4.4-6.702-.5-.4-1.7-.8-1.9-1.5-.2-.601.1-1.501 0-2.201-.2-1.701-.9-3.201-1.9-4.502-1.3-1.7-3.2-2.201-5.3-2.301-1.9-.1-4.3-.1-6 1.001-2.3 1.4-3.5 4.801-3.3 7.402.1 1.001-.5 1.201-1.2 1.701-.6.4-1.2.9-1.7 1.3-1.1 1.001-2 2.201-2.6 3.502-.5 1.1-.8 2.4-.8 3.601.1 1.6 1 2.601 1.4 4.101.5 1.501-1.1 2.701-1.7 4.002-.7 1.3-1 2.801-1 4.301 0 1.601.4 3.001 1 4.502.2.6.5 1.2.6 1.901.1 1-.2 1.8-.7 2.701-.7 1.4-1.8 4.001-.1 5.101.7.501 1.7.601 2.5.701 1.5.2 3.1.4 4.6.5 3.7.2 7.5.3 11.3.2 3.4-.1 7-.1 10.2-.9 1.2-.301 2-.801 2.2-2.101.2-1.601-.7-2.901-1.3-4.302-.6-1.9.5-3.401 1.1-5.302.5-1.4-1.7-2-2.2-.6-.4 1.301-1.1 2.401-1.3 3.802-.2 1.4.2 2.5.8 3.701.3.6.6 1.1.7 1.7 0 .101.1 1.101 0 1.101 0 0 .1-.3.2-.4h-.1c-.2 0 .2-.1 0 0-.1 0-.2.1-.3.1-2.4.6-4.9.7-7.3.8-3.5.2-7 .2-10.4.1-2.7-.1-5.5-.1-8.2-.7-.4-.1-.7-.2-1.1-.3l-.2-.1c.2-.3.1 1 .2 0 .2-1.201.8-2.201 1.3-3.402.5-1.3.5-2.6.1-3.901-.4-1.3-1.1-2.401-1.3-3.801-.2-1.501 0-3.101.6-4.402.6-1.2 1.6-2.101 2-3.301.4-1.3 0-2.501-.6-3.701-1.4-2.601-.6-5.102 1.4-7.203.9-.9 1.9-1.5 2.9-2.301 1.3-1 1.2-2 1.1-3.501 0-1.401.6-2.801 1.4-4.001.6-.801 1.2-1.101 2.2-1.401 1.8-.4 4-.4 5.7.3 1 .4 1.7 1.501 2.1 2.501.4.8.6 1.701.6 2.601 0 .8-.2 1.501.1 2.301.6 1.3 2.1 1.901 3.1 2.801 1.1 1 2.1 2.101 2.6 3.501.6 1.401.5 2.801-.2 4.102-.7 1.3-1.3 2.6-.8 4.101s1.8 2.601 2.3 4.101c.5 1.601.5 3.202 0 4.802 0 1.401 2.2 2.001 2.6.6z"/>
    <path fill="#F6F2EF" d="M1621.53 607.016c.3-7.602.5-26.709.8-34.212l-.8 34.212z"/>
    <path fill="#fff" d="M1622.63 607.017c.4-11.404.4-22.808.8-34.212 0-1.401-2.2-1.401-2.2 0-.4 11.404-.4 22.808-.8 34.212-.1 1.4 2.2 1.4 2.2 0z"/>
    <path fill="#F6F2EF" d="M1622.23 583.708c3.9-2.201 4.2-2.301 8.5-3.501l-8.5 3.501z"/>
    <path fill="#fff" d="M1622.83 584.709c.8-.4 1.6-.9 2.3-1.301.3-.2.6-.3.9-.5.1-.1.3-.1.4-.2.1 0 .1-.1.2-.1.3-.1-.2.1 0 0 1.4-.6 2.9-1 4.4-1.4 1.4-.401.8-2.601-.6-2.201-1.5.4-3 .8-4.5 1.4-1.5.601-2.9 1.401-4.3 2.201-1.2.9-.1 2.801 1.2 2.101z"/>
    <path fill="#F6F2EF" d="M1754.32 241.186c.8-2.301.4-5.002-1-7.003-.6-.8-1.3-1.6-1.4-2.601-.1-1.1.7-2 1.1-2.901 1.4-3.301-1.1-7.002-4.1-8.903-.6-.4-1.2-.7-1.4-1.4-.1-.401 0-.801 0-1.201.2-2.001-.8-4.001-2.2-5.502-1.4-1.5-7.6-1.5-9 0-1.4 1.501-2.4 3.501-2.2 5.502 0 .4.1.8 0 1.201-.2.6-.8 1-1.4 1.4-3 1.901-5.5 5.602-4.1 8.903.4 1.001 1.2 1.901 1.1 2.901-.1 1.001-.8 1.801-1.4 2.601-1.4 2.001-1.8 4.702-1 7.003.5 1.4 1.3 2.801 1.2 4.301-.2 1.901-2 3.601-1.5 5.402.6 1.901 26.9 1.901 27.4 0 .5-1.801-1.3-3.501-1.5-5.402 0-1.5.9-2.901 1.4-4.301z"/>
    <path fill="#fff" d="M1755.32 241.486c.8-2.601.4-5.602-1.1-7.903-.4-.6-1.1-1.2-1.2-2-.1-.701.5-1.401.8-2.101.6-1.201.8-2.401.7-3.701-.3-2.701-2.2-5.002-4.3-6.603-.5-.3-1.5-.7-1.6-1.3-.2-.6.1-1.401.1-2.001-.1-1.5-.8-2.901-1.7-4.101-1.3-1.701-2.9-2.201-5-2.401-1.8-.2-4.1-.1-5.7.9-2.2 1.301-3.4 4.402-3.2 6.903 0 .9-.1 1.1-.8 1.6-.5.3-1 .7-1.4 1.1-1.1.901-2.1 2.101-2.8 3.402-.5 1-.9 2.1-.9 3.301 0 1.6.7 2.601 1.3 4.101.6 1.501-.7 2.401-1.4 3.602-.7 1.3-1.1 2.801-1.1 4.301 0 1.301.2 2.501.7 3.701.7 1.701 1.2 2.902.3 4.702-.6 1.401-1.9 3.902-.2 5.102.7.5 1.6.6 2.4.7 1.4.2 2.8.3 4.2.4 3.6.2 7.2.3 10.7.2 3.2-.1 6.6-.1 9.7-.8 1.1-.3 2-.8 2.1-2.001.1-1.4-.6-2.6-1.2-3.901-.9-2.001 0-3.401.6-5.202.5-1.4-1.7-2.001-2.2-.6-.4 1.2-1.1 2.401-1.2 3.801-.1 1.201.3 2.301.8 3.402.3.5.6 1.1.7 1.7v.7c-.1-.1.3-.4.2-.3.3-.1 0 0-.1 0 .2 0-.2.1-.3.1-2.2.601-4.6.601-6.9.701-3.3.1-6.5.2-9.8 0-2.5-.1-5.1-.1-7.6-.601-.3-.1-.6-.2-1-.3.1 0-.1 0-.1-.1 0 .2.2.1.1.1.4.2.1.5.2-.2.1-1.1.9-2.201 1.3-3.201.4-1.2.3-2.401-.1-3.601-.4-1.301-1.1-2.501-1.2-3.902-.1-1.3.2-2.701.8-3.901.5-1 1.4-1.801 1.7-2.801.4-1.3 0-2.401-.6-3.601-1.3-2.501-.4-4.802 1.5-6.803.9-.9 2-1.4 2.9-2.201 1-1 .8-1.9.8-3.201 0-1.3.5-2.601 1.3-3.601.6-.9 1.2-1.1 2.2-1.3 1.6-.301 3.6-.301 5.1.2 1 .4 1.7 1.5 2.1 2.501.4.8.5 1.7.4 2.6 0 .601-.1 1.201.1 1.801.5 1.201 1.8 1.701 2.8 2.501 1.1.9 2.2 2.101 2.7 3.501.5 1.401.3 2.701-.4 4.002-.6 1.2-1.1 2.401-.6 3.701.5 1.3 1.6 2.301 2.1 3.601.5 1.501.5 3.001.1 4.502-.3 1.6 1.8 2.101 2.2.8z"/>
    <path fill="#F6F2EF" d="M1732.32 245.087c.9-2.901.5-6.202-1.2-8.703-.7-1-1.6-2.001-1.7-3.201-.1-1.301.9-2.401 1.4-3.601 1.7-4.102-1.4-8.704-5.2-11.104-.7-.401-1.5-.901-1.7-1.701-.1-.5 0-1 0-1.401.3-2.5-1-5.001-2.7-6.902-1.8-1.801-3.4-3.101-5.6-4.402-2.2 1.301-3.8 2.601-5.6 4.402-1.8 1.801-3 4.302-2.7 6.902 0 .501.2 1.001 0 1.401-.2.8-1 1.3-1.7 1.701-3.8 2.3-6.9 7.002-5.2 11.104.5 1.2 1.4 2.3 1.4 3.601-.1 1.2-1 2.201-1.7 3.201-1.7 2.501-2.2 5.802-1.2 8.703.6 1.801 1.7 3.501 1.5 5.302-.2 2.401-2.5 4.502-1.8 6.702.7 2.401 33.5 2.401 34.2 0 .7-2.3-1.6-4.401-1.8-6.702-.4-1.901.7-3.601 1.3-5.302z"/>
    <path fill="#fff" d="M1733.42 245.388c1-3.102.6-6.703-1.3-9.404-.4-.7-1-1.3-1.4-2-.5-1.001-.2-1.801.3-2.601.7-1.401 1.3-2.801 1.3-4.402-.1-3.101-1.9-5.902-4.2-7.903-.5-.5-1.1-.9-1.7-1.3-.9-.6-1.6-.901-1.5-2.001.1-1.601-.1-3.101-.7-4.602-1.5-3.501-4.9-6.102-8.1-8.002-.3-.201-.8-.201-1.1 0-4.2 2.4-9.2 6.502-8.9 11.904 0 .7.3 1.3-.2 1.9-.3.401-.9.601-1.3.901-1.1.8-2.2 1.7-3.1 2.701-1.5 1.8-2.6 3.901-2.8 6.202-.1 1.1.1 2.201.5 3.201.5 1.201 1.6 2.401 1.2 3.801-.3 1.201-1.5 2.201-2.1 3.302-.6 1.1-1 2.4-1.2 3.701-.2 1.2-.1 2.401.1 3.601.3 1.501 1 2.801 1.4 4.202.5 1.3.4 2.401-.1 3.701-.5 1.1-1.1 2.201-1.4 3.401-.5 2.501.9 3.401 3 3.802 2.5.5 5.1.6 7.6.8 6.3.3 12.6.3 18.9-.2 1.9-.2 4.4-.2 6.1-1.201 1.4-.9 1-3.001.5-4.301-.5-1.301-1.4-2.501-1.5-3.902.1-2.2 1.1-3.801 1.7-5.301.5-1.401-1.7-2.001-2.2-.601-.8 2.401-2.1 4.602-1.2 7.103.3 1 .9 1.901 1.3 2.801.2.6.3 1.1.4 1.701 0 .5-.2.2 0 .2.4 0 0-.2.1-.1 0-.201.2-.1 0 0-.3.1.1 0-.2.1l-.9.3c-.9.2-1.8.3-2.7.4-5.7.6-11.6.6-17.3.5-2.6-.1-5.2-.2-7.8-.5-.8-.1-1.7-.2-2.5-.4-.2 0-.7-.2-.7-.2l-.2-.1c.1 0 0 .1.1.2.2 0 0 .3 0-.2 0-.301 0-.601.1-.901.1-.5.4-1 .6-1.6.5-1.001 1-2.001 1.2-3.201.4-2.601-1.3-4.802-1.8-7.303-.5-2.501.2-5.002 1.7-7.003 1.5-2.1 2.1-3.701.9-6.102-.6-1.3-1.2-2.401-1.1-3.801.1-1.201.6-2.401 1.2-3.501.7-1.101 1.6-2.101 2.6-2.901 1-.801 2.3-1.301 3-2.301.8-1.101.5-2.201.5-3.501 0-1.401.6-2.801 1.4-3.902 1.6-2.401 4-4.201 6.5-5.602h-1.1c3.4 2.001 7.7 5.202 7.8 9.504 0 .8-.2 1.7 0 2.5.2.901.9 1.501 1.6 2.001 1.6 1.101 3.1 2.201 4.3 3.902 1 1.5 1.7 3.401 1.3 5.201-.4 1.901-2 3.302-1.7 5.302.2 1.901 1.8 3.201 2.6 4.802.9 2.001 1 4.302.4 6.502-.8 1.401 1.3 2.001 1.8.701z"/>
    <path fill="#F6F2EF" d="M1723.82 242.586c-3.1 1.401-6 3.401-8.2 5.902v16.206"/>
    <path fill="#fff" d="M1723.22 241.686c-3.1 1.401-6 3.301-8.2 5.802-.8.901-.6 1.801-.6 2.901v14.406c0 1.4 2.2 1.5 2.2 0v-16.206c-.1.3-.2.5-.3.8 2.3-2.501 5-4.402 8-5.702 1.3-.7.2-2.601-1.1-2.001z"/>
    <path fill="#F6F2EF" d="M1715.62 248.688c-.6-4.101-.7-8.303-.4-12.404l.4 12.404z"/>
    <path fill="#fff" d="M1716.62 248.389c-.6-4.002-.6-8.103-.4-12.105.1-1.4-2.2-1.4-2.2 0-.3 4.302-.1 8.503.5 12.705.1.6.9.9 1.4.8.6-.2.8-.8.7-1.4z"/>
    <path fill="#F6F2EF" d="M1738.72 260.793c.2-7.103.5-25.009.7-32.112l-.7 32.112z"/>
    <path fill="#fff" d="M1739.82 260.793c.4-10.704.4-21.408.7-32.111 0-1.401-2.2-1.401-2.2 0-.4 10.703-.4 21.407-.7 32.111-.1 1.501 2.2 1.501 2.2 0z"/>
    <path fill="#F6F2EF" d="M1739.42 238.985c3.6-2.001 3.1-1.801 7.1-2.901l-7.1 2.901z"/>
    <path fill="#fff" d="M1740.02 239.986l2.1-1.201c.2-.1.4-.2.7-.4.1-.1.2-.1.3-.1.1 0 .1 0 .2-.1.2-.1-.2.1-.1 0 1.2-.4 2.4-.8 3.7-1.1.6-.2 1-.801.8-1.401-.2-.6-.8-1-1.4-.8-1.2.3-2.5.6-3.7 1.1-1.3.5-2.4 1.201-3.6 1.901-.5.3-.7 1-.4 1.5.2.701.8.901 1.4.601z"/>
    <path fill="#F6F2EF" stroke="#fff" stroke-miterlimit="10" stroke-width="2" d="M1869.51 25.81h-16.2v74.426h16.2V25.809z"/>
    <path stroke="#fff" stroke-miterlimit="10" stroke-width="2" d="M1885.7 25.81h-16.19v74.426h16.19V25.809zM1875.1 37.313v49.818M1880.5 60.121v33.212M1836.06 30.91l-15.19-5.646-25.93 69.757 15.18 5.646 25.94-69.757zM1822.21 38.114l-11.1 29.81M1819.31 61.322l-11.6 31.111"/>
    <path fill="#fff" d="M1869.51 32.011h-16.2v2.6h16.2v-2.6zM1869.51 36.013h-16.2v2.6h16.2v-2.6zM1869.51 87.131h-16.2v2.6h16.2v-2.6zM1869.51 91.132h-16.2v2.6h16.2v-2.6z"/>
    <path fill="#F6F2EF" stroke="#fff" stroke-miterlimit="10" stroke-width="2" d="M1853.31 25.81h-16.2v74.426h16.2V25.809z"/>
    <path fill="#fff" d="M1853.31 32.011h-16.2v2.6h16.2v-2.6zM1853.31 36.013h-16.2v2.6h16.2v-2.6zM1849.31 43.516h-8.1v34.512h8.1V43.515zM1853.31 87.131h-16.2v2.6h16.2v-2.6zM1853.31 91.132h-16.2v2.6h16.2v-2.6z"/>
    <path stroke="#fff" stroke-miterlimit="10" stroke-width="2" d="M1819.61 28.91l15.1 5.702M1796.51 90.832l15.2 5.803"/>
    <path fill="#F6F2EF" d="M1887.8 707.352h-50.39v64.123h50.39v-64.123z"/>
    <path fill="#fff" d="M1887.8 770.375h-50.39l1.1 1.101v-21.608-34.613-7.902l-1.1 1.1h50.39l-1.1-1.1v64.123c0 1.4 2.2 1.5 2.2 0v-21.608-34.613-7.902c0-.601-.5-1.101-1.1-1.101h-50.39c-.6 0-1.1.5-1.1 1.101v64.123c0 .6.5 1.1 1.1 1.1h50.39c1.5 0 1.5-2.201 0-2.201z"/>
    <path fill="#F6F2EF" d="M1869.1 721.257h-50.39v64.123h50.39v-64.123z"/>
    <path fill="#fff" d="M1869.2 784.28h-50.39l1.1 1.1v-21.607-34.613-7.902l-1.1 1.1h50.39l-1.1-1.1v64.122c0 1.401 2.2 1.501 2.2 0v-21.607-34.613-7.902c0-.601-.5-1.101-1.1-1.101h-50.39c-.6 0-1.1.5-1.1 1.101v64.122c0 .601.5 1.101 1.1 1.101h50.39c1.4.1 1.4-2.201 0-2.201z"/>
    <path fill="#fff" d="M1862.31 760.772h-36.1v3.001h36.1v-3.001zM1862.31 766.674h-36.1v3.001h36.1v-3.001zM1848.51 772.676h-22.3v3.001h22.3v-3.001z"/>
    <path fill="#F6F2EF" stroke="#fff" stroke-linecap="round" stroke-linejoin="round" stroke-miterlimit="10" stroke-width="2" d="M1852.81 753.169h-20.3v-19.007l10.2-4.301 10.1 4.301v19.007z"/>
    <path fill="#F6F2EF" stroke="#fff" stroke-linecap="round" stroke-linejoin="round" stroke-miterlimit="10" stroke-width="2" d="M1842.71 726.459l-12.2 5.402v4.702l12.2-5.402 12.1 5.402v-4.702l-12.1-5.402z"/>
    <path fill="#fff" d="M1842.71 741.465c1.49 0 2.7-1.209 2.7-2.701s-1.21-2.701-2.7-2.701c-1.49 0-2.7 1.209-2.7 2.701s1.21 2.701 2.7 2.701z"/>
    <path stroke="#fff" stroke-linecap="round" stroke-linejoin="round" stroke-miterlimit="10" stroke-width="2" d="M1846.81 744.466h-8.2v8.603h8.2v-8.603z"/>
    <g opacity=".7">
        <path fill="#fff" d="M1618.93 682.844c2.49 0 4.5-2.016 4.5-4.502 0-2.486-2.01-4.501-4.5-4.501-2.48 0-4.5 2.015-4.5 4.501s2.02 4.502 4.5 4.502zM1618.93 700.95c2.49 0 4.5-2.015 4.5-4.501s-2.01-4.502-4.5-4.502c-2.48 0-4.5 2.016-4.5 4.502 0 2.486 2.02 4.501 4.5 4.501zM1618.93 719.157c2.49 0 4.5-2.016 4.5-4.502 0-2.486-2.01-4.501-4.5-4.501-2.48 0-4.5 2.015-4.5 4.501s2.02 4.502 4.5 4.502zM1618.93 737.263c2.49 0 4.5-2.015 4.5-4.501s-2.01-4.502-4.5-4.502c-2.48 0-4.5 2.016-4.5 4.502 0 2.486 2.02 4.501 4.5 4.501zM1618.93 755.37c2.49 0 4.5-2.016 4.5-4.502 0-2.486-2.01-4.501-4.5-4.501-2.48 0-4.5 2.015-4.5 4.501s2.02 4.502 4.5 4.502zM1637.43 682.844c2.48 0 4.5-2.016 4.5-4.502 0-2.486-2.02-4.501-4.5-4.501-2.49 0-4.5 2.015-4.5 4.501s2.01 4.502 4.5 4.502zM1637.43 700.95c2.48 0 4.5-2.015 4.5-4.501s-2.02-4.502-4.5-4.502c-2.49 0-4.5 2.016-4.5 4.502 0 2.486 2.01 4.501 4.5 4.501zM1637.43 719.157c2.48 0 4.5-2.016 4.5-4.502 0-2.486-2.02-4.501-4.5-4.501-2.49 0-4.5 2.015-4.5 4.501s2.01 4.502 4.5 4.502zM1637.43 737.263c2.48 0 4.5-2.015 4.5-4.501s-2.02-4.502-4.5-4.502c-2.49 0-4.5 2.016-4.5 4.502 0 2.486 2.01 4.501 4.5 4.501zM1637.43 755.37c2.48 0 4.5-2.016 4.5-4.502 0-2.486-2.02-4.501-4.5-4.501-2.49 0-4.5 2.015-4.5 4.501s2.01 4.502 4.5 4.502zM1655.93 682.844c2.48 0 4.5-2.016 4.5-4.502 0-2.486-2.02-4.501-4.5-4.501-2.49 0-4.5 2.015-4.5 4.501s2.01 4.502 4.5 4.502zM1655.93 700.95c2.48 0 4.5-2.015 4.5-4.501s-2.02-4.502-4.5-4.502c-2.49 0-4.5 2.016-4.5 4.502 0 2.486 2.01 4.501 4.5 4.501zM1655.93 719.157c2.48 0 4.5-2.016 4.5-4.502 0-2.486-2.02-4.501-4.5-4.501-2.49 0-4.5 2.015-4.5 4.501s2.01 4.502 4.5 4.502zM1655.93 737.263c2.48 0 4.5-2.015 4.5-4.501s-2.02-4.502-4.5-4.502c-2.49 0-4.5 2.016-4.5 4.502 0 2.486 2.01 4.501 4.5 4.501zM1655.93 755.37c2.48 0 4.5-2.016 4.5-4.502 0-2.486-2.02-4.501-4.5-4.501-2.49 0-4.5 2.015-4.5 4.501s2.01 4.502 4.5 4.502zM1674.43 682.844c2.48 0 4.5-2.016 4.5-4.502 0-2.486-2.02-4.501-4.5-4.501-2.49 0-4.5 2.015-4.5 4.501s2.01 4.502 4.5 4.502zM1674.43 700.95c2.48 0 4.5-2.015 4.5-4.501s-2.02-4.502-4.5-4.502c-2.49 0-4.5 2.016-4.5 4.502 0 2.486 2.01 4.501 4.5 4.501zM1674.43 719.157c2.48 0 4.5-2.016 4.5-4.502 0-2.486-2.02-4.501-4.5-4.501-2.49 0-4.5 2.015-4.5 4.501s2.01 4.502 4.5 4.502zM1674.43 737.263c2.48 0 4.5-2.015 4.5-4.501s-2.02-4.502-4.5-4.502c-2.49 0-4.5 2.016-4.5 4.502 0 2.486 2.01 4.501 4.5 4.501zM1674.43 755.37c2.48 0 4.5-2.016 4.5-4.502 0-2.486-2.02-4.501-4.5-4.501-2.49 0-4.5 2.015-4.5 4.501s2.01 4.502 4.5 4.502zM1828.41 923.53c2.48 0 4.5-2.016 4.5-4.502 0-2.486-2.02-4.501-4.5-4.501-2.49 0-4.5 2.015-4.5 4.501s2.01 4.502 4.5 4.502zM1828.41 941.636c2.48 0 4.5-2.015 4.5-4.501 0-2.487-2.02-4.502-4.5-4.502-2.49 0-4.5 2.015-4.5 4.502 0 2.486 2.01 4.501 4.5 4.501zM1828.41 959.843c2.48 0 4.5-2.016 4.5-4.502 0-2.486-2.02-4.501-4.5-4.501-2.49 0-4.5 2.015-4.5 4.501s2.01 4.502 4.5 4.502zM1828.41 977.949c2.48 0 4.5-2.015 4.5-4.501 0-2.487-2.02-4.502-4.5-4.502-2.49 0-4.5 2.015-4.5 4.502 0 2.486 2.01 4.501 4.5 4.501zM1828.41 996.056c2.48 0 4.5-2.016 4.5-4.502 0-2.486-2.02-4.502-4.5-4.502-2.49 0-4.5 2.016-4.5 4.502 0 2.486 2.01 4.502 4.5 4.502zM1846.91 923.53c2.48 0 4.5-2.016 4.5-4.502 0-2.486-2.02-4.501-4.5-4.501-2.49 0-4.5 2.015-4.5 4.501s2.01 4.502 4.5 4.502zM1846.91 941.636c2.48 0 4.5-2.015 4.5-4.501 0-2.487-2.02-4.502-4.5-4.502-2.49 0-4.5 2.015-4.5 4.502 0 2.486 2.01 4.501 4.5 4.501zM1846.91 959.843c2.48 0 4.5-2.016 4.5-4.502 0-2.486-2.02-4.501-4.5-4.501-2.49 0-4.5 2.015-4.5 4.501s2.01 4.502 4.5 4.502zM1846.91 977.949c2.48 0 4.5-2.015 4.5-4.501 0-2.487-2.02-4.502-4.5-4.502-2.49 0-4.5 2.015-4.5 4.502 0 2.486 2.01 4.501 4.5 4.501zM1846.91 996.056c2.48 0 4.5-2.016 4.5-4.502 0-2.486-2.02-4.502-4.5-4.502-2.49 0-4.5 2.016-4.5 4.502 0 2.486 2.01 4.502 4.5 4.502zM1865.41 923.53c2.48 0 4.5-2.016 4.5-4.502 0-2.486-2.02-4.501-4.5-4.501-2.49 0-4.5 2.015-4.5 4.501s2.01 4.502 4.5 4.502zM1865.41 941.636c2.48 0 4.5-2.015 4.5-4.501 0-2.487-2.02-4.502-4.5-4.502-2.49 0-4.5 2.015-4.5 4.502 0 2.486 2.01 4.501 4.5 4.501zM1865.41 959.843c2.48 0 4.5-2.016 4.5-4.502 0-2.486-2.02-4.501-4.5-4.501-2.49 0-4.5 2.015-4.5 4.501s2.01 4.502 4.5 4.502zM1865.41 977.949c2.48 0 4.5-2.015 4.5-4.501 0-2.487-2.02-4.502-4.5-4.502-2.49 0-4.5 2.015-4.5 4.502 0 2.486 2.01 4.501 4.5 4.501zM1865.41 996.056c2.48 0 4.5-2.016 4.5-4.502 0-2.486-2.02-4.502-4.5-4.502-2.49 0-4.5 2.016-4.5 4.502 0 2.486 2.01 4.502 4.5 4.502zM1883.8 923.53c2.49 0 4.5-2.016 4.5-4.502 0-2.486-2.01-4.501-4.5-4.501-2.48 0-4.5 2.015-4.5 4.501s2.02 4.502 4.5 4.502zM1883.8 941.636c2.49 0 4.5-2.015 4.5-4.501 0-2.487-2.01-4.502-4.5-4.502-2.48 0-4.5 2.015-4.5 4.502 0 2.486 2.02 4.501 4.5 4.501zM1883.8 959.843c2.49 0 4.5-2.016 4.5-4.502 0-2.486-2.01-4.501-4.5-4.501-2.48 0-4.5 2.015-4.5 4.501s2.02 4.502 4.5 4.502zM1883.8 977.949c2.49 0 4.5-2.015 4.5-4.501 0-2.487-2.01-4.502-4.5-4.502-2.48 0-4.5 2.015-4.5 4.502 0 2.486 2.02 4.501 4.5 4.501zM1883.8 996.056c2.49 0 4.5-2.016 4.5-4.502 0-2.486-2.01-4.502-4.5-4.502-2.48 0-4.5 2.016-4.5 4.502 0 2.486 2.02 4.502 4.5 4.502zM1902.3 923.53c2.49 0 4.5-2.016 4.5-4.502 0-2.486-2.01-4.501-4.5-4.501-2.48 0-4.5 2.015-4.5 4.501s2.02 4.502 4.5 4.502zM1902.3 941.636c2.49 0 4.5-2.015 4.5-4.501 0-2.487-2.01-4.502-4.5-4.502-2.48 0-4.5 2.015-4.5 4.502 0 2.486 2.02 4.501 4.5 4.501zM1902.3 959.843c2.49 0 4.5-2.016 4.5-4.502 0-2.486-2.01-4.501-4.5-4.501-2.48 0-4.5 2.015-4.5 4.501s2.02 4.502 4.5 4.502zM1902.3 977.949c2.49 0 4.5-2.015 4.5-4.501 0-2.487-2.01-4.502-4.5-4.502-2.48 0-4.5 2.015-4.5 4.502 0 2.486 2.02 4.501 4.5 4.501zM1902.3 996.056c2.49 0 4.5-2.016 4.5-4.502 0-2.486-2.01-4.502-4.5-4.502-2.48 0-4.5 2.016-4.5 4.502 0 2.486 2.02 4.502 4.5 4.502z" opacity=".7"/>
        <g fill="#fff" opacity=".7">
            <path d="M1895.2 565.402h-89.59c-5.8 0-10.5-4.702-10.5-10.504s4.7-10.504 10.5-10.504h89.59c5.8 0 10.5 4.702 10.5 10.504s-4.7 10.504-10.5 10.504zM1873.7 607.117h-105.98c-5.8 0-10.5-4.702-10.5-10.504s4.7-10.504 10.5-10.504h105.98c5.8 0 10.5 4.702 10.5 10.504-.1 5.802-4.7 10.504-10.5 10.504z" opacity=".7"/>
            <path d="M1853.01 575.906c0-5.802 5.6-10.504 12.6-10.504h-57.8c6.9 0 12.6 4.702 12.6 10.504s-5.6 10.503-12.6 10.503h57.8c-6.9-.1-12.6-4.701-12.6-10.503zM1734.22 607.217c5.8 0 10.5-4.703 10.5-10.504 0-5.801-4.7-10.504-10.5-10.504s-10.5 4.703-10.5 10.504c0 5.801 4.7 10.504 10.5 10.504z" opacity=".7"/>
        </g>
        <path fill="#fff" d="M1621.83 404.845h97.29c4.5 0 8.2-3.702 8.2-8.203 0-4.502-3.7-8.203-8.2-8.203h-97.29c-4.5 0-8.2 3.701-8.2 8.203 0 4.501 3.6 8.203 8.2 8.203zM1638.63 437.456h110.09c4.5 0 8.2-3.701 8.2-8.203 0-4.501-3.7-8.203-8.2-8.203h-110.09c-4.5 0-8.2 3.702-8.2 8.203 0 4.502 3.7 8.203 8.2 8.203z" opacity=".7"/>
        <path fill="#fff" d="M1654.73 413.048c0-4.502-4.4-8.203-9.8-8.203h72.39c-5.4 0-9.8 3.701-9.8 8.203 0 4.501 4.4 8.202 9.8 8.202h-72.39c5.4-.1 9.8-3.701 9.8-8.202zM1774.81 437.456c4.53 0 8.2-3.672 8.2-8.203 0-4.53-3.67-8.203-8.2-8.203-4.52 0-8.19 3.673-8.19 8.203 0 4.531 3.67 8.203 8.19 8.203zM1731.22 41.115c4.36 0 7.9-3.538 7.9-7.903s-3.54-7.903-7.9-7.903-7.9 3.538-7.9 7.903c0 4.364 3.54 7.903 7.9 7.903zM1706.82 41.315h-57.09c-4.4 0-8-3.601-8-8.003s3.6-8.003 8-8.003h57.09c4.4 0 8 3.601 8 8.003s-3.6 8.003-8 8.003z" opacity=".7"/>
        <g fill="#fff" opacity=".7">
            <path d="M1873.1 1119.8c4.37 0 7.9-3.54 7.9-7.9 0-4.37-3.53-7.91-7.9-7.91-4.36 0-7.89 3.54-7.89 7.91 0 4.36 3.53 7.9 7.89 7.9zM1723.82 1087.49h97.29c4.5 0 8.2-3.7 8.2-8.2 0-4.51-3.7-8.21-8.2-8.21h-97.29c-4.5 0-8.2 3.7-8.2 8.21.1 4.5 3.7 8.2 8.2 8.2zM1740.72 1120h110.09c4.5 0 8.2-3.7 8.2-8.2 0-4.5-3.7-8.21-8.2-8.21h-110.09c-4.5 0-8.2 3.71-8.2 8.21 0 4.6 3.6 8.2 8.2 8.2z" opacity=".7"/>
            <path d="M1756.82 1095.59c0-4.5-4.4-8.2-9.8-8.2h72.39c-5.4 0-9.8 3.7-9.8 8.2 0 4.5 4.4 8.2 9.8 8.2h-72.39c5.4 0 9.8-3.6 9.8-8.2z" opacity=".7"/>
        </g>
        <g opacity=".7">
            <path fill="#fff" d="M1840.31 190.268c2.37 0 4.3-1.926 4.3-4.302 0-2.375-1.93-4.301-4.3-4.301-2.38 0-4.3 1.926-4.3 4.301 0 2.376 1.92 4.302 4.3 4.302zM1840.31 207.774c2.37 0 4.3-1.926 4.3-4.301 0-2.376-1.93-4.302-4.3-4.302-2.38 0-4.3 1.926-4.3 4.302 0 2.375 1.92 4.301 4.3 4.301zM1840.31 225.18c2.37 0 4.3-1.925 4.3-4.301 0-2.376-1.93-4.302-4.3-4.302-2.38 0-4.3 1.926-4.3 4.302 0 2.376 1.92 4.301 4.3 4.301zM1840.31 242.687c2.37 0 4.3-1.926 4.3-4.302 0-2.376-1.93-4.301-4.3-4.301-2.38 0-4.3 1.925-4.3 4.301 0 2.376 1.92 4.302 4.3 4.302zM1840.31 260.193c2.37 0 4.3-1.926 4.3-4.302 0-2.375-1.93-4.301-4.3-4.301-2.38 0-4.3 1.926-4.3 4.301 0 2.376 1.92 4.302 4.3 4.302zM1858.11 190.268c2.37 0 4.3-1.926 4.3-4.302 0-2.375-1.93-4.301-4.3-4.301-2.38 0-4.3 1.926-4.3 4.301 0 2.376 1.92 4.302 4.3 4.302zM1858.11 207.774c2.37 0 4.3-1.926 4.3-4.301 0-2.376-1.93-4.302-4.3-4.302-2.38 0-4.3 1.926-4.3 4.302 0 2.375 1.92 4.301 4.3 4.301zM1858.11 225.18c2.37 0 4.3-1.925 4.3-4.301 0-2.376-1.93-4.302-4.3-4.302-2.38 0-4.3 1.926-4.3 4.302 0 2.376 1.92 4.301 4.3 4.301zM1858.11 242.687c2.37 0 4.3-1.926 4.3-4.302 0-2.376-1.93-4.301-4.3-4.301-2.38 0-4.3 1.925-4.3 4.301 0 2.376 1.92 4.302 4.3 4.302zM1858.11 260.193c2.37 0 4.3-1.926 4.3-4.302 0-2.375-1.93-4.301-4.3-4.301-2.38 0-4.3 1.926-4.3 4.301 0 2.376 1.92 4.302 4.3 4.302zM1876.01 190.268c2.37 0 4.3-1.926 4.3-4.302 0-2.375-1.93-4.301-4.3-4.301-2.38 0-4.3 1.926-4.3 4.301 0 2.376 1.92 4.302 4.3 4.302zM1876.01 207.774c2.37 0 4.3-1.926 4.3-4.301 0-2.376-1.93-4.302-4.3-4.302-2.38 0-4.3 1.926-4.3 4.302 0 2.375 1.92 4.301 4.3 4.301zM1876.01 225.18c2.37 0 4.3-1.925 4.3-4.301 0-2.376-1.93-4.302-4.3-4.302-2.38 0-4.3 1.926-4.3 4.302 0 2.376 1.92 4.301 4.3 4.301zM1876.01 242.687c2.37 0 4.3-1.926 4.3-4.302 0-2.376-1.93-4.301-4.3-4.301-2.38 0-4.3 1.925-4.3 4.301 0 2.376 1.92 4.302 4.3 4.302zM1876.01 260.193c2.37 0 4.3-1.926 4.3-4.302 0-2.375-1.93-4.301-4.3-4.301-2.38 0-4.3 1.926-4.3 4.301 0 2.376 1.92 4.302 4.3 4.302zM1893.8 190.268c2.38 0 4.3-1.926 4.3-4.302 0-2.375-1.92-4.301-4.3-4.301-2.37 0-4.3 1.926-4.3 4.301 0 2.376 1.93 4.302 4.3 4.302zM1893.8 207.774c2.38 0 4.3-1.926 4.3-4.301 0-2.376-1.92-4.302-4.3-4.302-2.37 0-4.3 1.926-4.3 4.302 0 2.375 1.93 4.301 4.3 4.301zM1893.8 225.18c2.38 0 4.3-1.925 4.3-4.301 0-2.376-1.92-4.302-4.3-4.302-2.37 0-4.3 1.926-4.3 4.302 0 2.376 1.93 4.301 4.3 4.301zM1893.8 242.687c2.38 0 4.3-1.926 4.3-4.302 0-2.376-1.92-4.301-4.3-4.301-2.37 0-4.3 1.925-4.3 4.301 0 2.376 1.93 4.302 4.3 4.302zM1893.8 260.193c2.38 0 4.3-1.926 4.3-4.302 0-2.375-1.92-4.301-4.3-4.301-2.37 0-4.3 1.926-4.3 4.301 0 2.376 1.93 4.302 4.3 4.302zM1911.7 190.268c2.38 0 4.3-1.926 4.3-4.302 0-2.375-1.92-4.301-4.3-4.301-2.37 0-4.3 1.926-4.3 4.301 0 2.376 1.93 4.302 4.3 4.302zM1911.7 207.774c2.38 0 4.3-1.926 4.3-4.301 0-2.376-1.92-4.302-4.3-4.302-2.37 0-4.3 1.926-4.3 4.302 0 2.375 1.93 4.301 4.3 4.301zM1911.7 225.18c2.38 0 4.3-1.925 4.3-4.301 0-2.376-1.92-4.302-4.3-4.302-2.37 0-4.3 1.926-4.3 4.302 0 2.376 1.93 4.301 4.3 4.301zM1911.7 242.687c2.38 0 4.3-1.926 4.3-4.302 0-2.376-1.92-4.301-4.3-4.301-2.37 0-4.3 1.925-4.3 4.301 0 2.376 1.93 4.302 4.3 4.302zM1911.7 260.193c2.38 0 4.3-1.926 4.3-4.302 0-2.375-1.92-4.301-4.3-4.301-2.37 0-4.3 1.926-4.3 4.301 0 2.376 1.93 4.302 4.3 4.302z" opacity=".7"/>
        </g>
        <g opacity=".7">
            <g opacity=".7">
                <path fill="#fff" d="M1893.2 437.556v-3.601h-3.6v-1.701h3.6v-3.601h1.7v3.601h3.6v1.701h-3.6v3.601h-1.7zM1876.6 437.556v-3.601h-3.6v-1.701h3.6v-3.601h1.7v3.601h3.6v1.701h-3.6v3.601h-1.7zM1860.01 437.556v-3.601h-3.6v-1.701h3.6v-3.601h1.7v3.601h3.6v1.701h-3.6v3.601h-1.7zM1843.51 437.556v-3.601h-3.6v-1.701h3.6v-3.601h1.7v3.601h3.6v1.701h-3.6v3.601h-1.7zM1826.91 437.556v-3.601h-3.6v-1.701h3.6v-3.601h1.7v3.601h3.6v1.701h-3.6v3.601h-1.7z" opacity=".7"/>
            </g>
            <g opacity=".7">
                <path fill="#fff" d="M1893.2 418.65v-3.602h-3.6v-1.7h3.6v-3.602h1.7v3.602h3.6v1.7h-3.6v3.602h-1.7zM1876.6 418.65v-3.602h-3.6v-1.7h3.6v-3.602h1.7v3.602h3.6v1.7h-3.6v3.602h-1.7zM1860.01 418.65v-3.602h-3.6v-1.7h3.6v-3.602h1.7v3.602h3.6v1.7h-3.6v3.602h-1.7z" opacity=".7"/>
            </g>
        </g>
        <g opacity=".7">
            <g opacity=".7">
                <path fill="#fff" d="M1716.12 887.517v-3.601h-3.6v-1.601h3.6v-3.601h1.7v3.601h3.6v1.701h-3.6v3.601h-1.7v-.1zM1699.52 887.517v-3.601h-3.6v-1.601h3.6v-3.601h1.7v3.601h3.6v1.701h-3.6v3.601h-1.7v-.1zM1683.02 887.517v-3.601h-3.6v-1.601h3.6v-3.601h1.7v3.601h3.6v1.701h-3.6v3.601h-1.7v-.1zM1666.43 887.517v-3.601h-3.6v-1.601h3.6v-3.601h1.7v3.601h3.6v1.701h-3.6v3.601h-1.7v-.1zM1649.93 887.517v-3.601h-3.6v-1.601h3.6v-3.601h1.7v3.601h3.6v1.701h-3.6v3.601h-1.7v-.1z" opacity=".7"/>
            </g>
            <g opacity=".7">
                <path fill="#fff" d="M1716.12 868.71v-3.601h-3.6v-1.701h3.6v-3.601h1.7v3.601h3.6v1.701h-3.6v3.601h-1.7zM1699.52 868.71v-3.601h-3.6v-1.701h3.6v-3.601h1.7v3.601h3.6v1.701h-3.6v3.601h-1.7zM1683.02 868.71v-3.601h-3.6v-1.701h3.6v-3.601h1.7v3.601h3.6v1.701h-3.6v3.601h-1.7z" opacity=".7"/>
            </g>
        </g>
        <path fill="#fff" d="M1600.43 682.844c2.49 0 4.5-2.016 4.5-4.502 0-2.486-2.01-4.501-4.5-4.501-2.48 0-4.5 2.015-4.5 4.501s2.02 4.502 4.5 4.502zM1600.43 700.95c2.49 0 4.5-2.015 4.5-4.501s-2.01-4.502-4.5-4.502c-2.48 0-4.5 2.016-4.5 4.502 0 2.486 2.02 4.501 4.5 4.501zM1600.43 719.157c2.49 0 4.5-2.016 4.5-4.502 0-2.486-2.01-4.501-4.5-4.501-2.48 0-4.5 2.015-4.5 4.501s2.02 4.502 4.5 4.502zM1600.43 737.263c2.49 0 4.5-2.015 4.5-4.501s-2.01-4.502-4.5-4.502c-2.48 0-4.5 2.016-4.5 4.502 0 2.486 2.02 4.501 4.5 4.501zM1600.43 755.37c2.49 0 4.5-2.016 4.5-4.502 0-2.486-2.01-4.501-4.5-4.501-2.48 0-4.5 2.015-4.5 4.501s2.02 4.502 4.5 4.502z" opacity=".7"/>
    </g>
</svg>
