<svg xmlns="http://www.w3.org/2000/svg" width="278" height="261" fill="none" viewBox="0 0 278 261">
    <path fill="#DF357F" stroke="#333" stroke-miterlimit="10" stroke-width="2" d="M118.99 255.108c-4.194 0-7.49-3.395-7.49-7.489v-.2c0-4.193 3.396-7.488 7.49-7.488h53.631c1.099 0 1.898-.899 1.898-1.897 0-1.099-.899-1.897-1.898-1.897h-54.729c-6.292 0-11.485 5.092-11.485 11.482 0 6.29 5.093 11.482 11.485 11.482h54.729c1.099 0 1.898-.898 1.898-1.897 0-1.098-.899-1.897-1.898-1.897H118.99v-.199z"/>
    <path fill="#fff" stroke="#333" stroke-miterlimit="10" stroke-width="2" d="M172.222 255.108h-53.531c-3.995 0-7.291-3.295-7.291-7.289v-.699c0-3.994 3.296-7.289 7.291-7.289h53.531v15.277z"/>
    <path stroke="#333" stroke-miterlimit="10" stroke-width="2" d="M119.39 244.823h20.074M137.367 249.716h26.865"/>
    <path fill="#F0D227" stroke="#333" stroke-miterlimit="10" stroke-width="2" d="M175.018 216.467c4.194 0 7.49 3.395 7.49 7.488v.2c0 4.194-3.395 7.489-7.49 7.489h-53.631c-1.098 0-1.897.898-1.897 1.897 0 1.098.899 1.897 1.897 1.897h54.729c6.292 0 11.486-5.092 11.486-11.483 0-6.29-5.094-11.482-11.486-11.482h-54.729c-1.098 0-1.897.899-1.897 1.897 0 1.099.899 1.897 1.897 1.897h53.631v.2z"/>
    <path fill="#fff" stroke="#333" stroke-miterlimit="10" stroke-width="2" d="M121.788 216.467h53.53c3.995 0 7.291 3.295 7.291 7.289v.699c0 3.994-3.296 7.288-7.291 7.288h-53.53v-15.276z"/>
    <path stroke="#333" stroke-miterlimit="10" stroke-width="2" d="M174.618 226.851h-20.074M156.642 221.959h-26.866"/>
    <path fill="#fff" d="M147.254 63.403c3.309 0 5.992-2.683 5.992-5.991 0-3.309-2.683-5.991-5.992-5.991s-5.992 2.682-5.992 5.99c0 3.31 2.683 5.992 5.992 5.992z"/>
    <path fill="#333" d="M154.345 57.412c0-2.996-1.898-5.592-4.694-6.69-2.697-.998-5.992-.2-7.89 2.097-1.897 2.296-2.197 5.591-.699 8.187 1.498 2.596 4.494 3.894 7.49 3.295 3.396-.599 5.793-3.594 5.793-6.89 0-1.397-2.197-1.397-2.197 0 0 1.998-1.299 3.895-3.196 4.594-1.998.699-4.195.1-5.493-1.498-1.298-1.597-1.398-3.794-.399-5.491.998-1.698 3.096-2.696 4.993-2.297 2.297.4 3.995 2.396 3.995 4.793.1 1.298 2.297 1.298 2.297-.1z"/>
    <path fill="#fff" d="M165.831 63.602h43.444c3.396 0 6.092-2.696 6.092-6.09 0-3.395-2.696-6.091-6.092-6.091h-43.444c-3.395 0-6.092 2.696-6.092 6.09 0 3.395 2.697 6.091 6.092 6.091z"/>
    <path fill="#333" d="M165.83 64.7h21.572c7.29 0 14.581.2 21.871 0 3.396-.1 6.392-2.396 7.091-5.69.699-3.396-1.198-6.89-4.494-8.188-2.297-.899-5.493-.5-7.89-.5h-37.951c-2.496 0-4.893 1.199-6.291 3.295-1.898 2.896-1.299 6.99 1.298 9.286 1.398 1.198 3.096 1.798 4.794 1.798 1.398 0 1.398-2.197 0-2.197-3.496-.1-5.992-3.694-4.494-6.99.898-1.996 2.796-2.895 4.893-2.895h43.044c2.697.1 4.994 1.997 5.094 4.793.1 2.895-2.197 5.092-4.994 5.092-6.791.2-13.682 0-20.573 0-7.49 0-14.981-.2-22.471 0h-.399c-1.498 0-1.498 2.197-.1 2.197z"/>
    <path fill="#fff" d="M178.814 1.098h-72.106c-2.996 0-5.393 2.397-5.393 5.392 0 2.995 2.397 5.392 5.393 5.392h5.093c3.096.4 5.493 2.596 5.493 5.292 0 2.995-2.896 5.391-6.392 5.391h-15.28c-2.996 0-5.393 2.397-5.393 5.392 0 2.995 2.397 5.392 5.393 5.392h63.717c2.997 0 5.393-2.397 5.393-5.392 0-2.995-2.396-5.392-5.393-5.392h-1.098c-3.595 0-6.392-2.396-6.392-5.391 0-2.696 2.397-4.893 5.493-5.292h21.472c2.996 0 5.393-2.397 5.393-5.392 0-2.995-2.397-5.392-5.393-5.392z"/>
    <path fill="#333" d="M178.813 0h-71.707c-1.798 0-3.396.5-4.794 1.697-2.896 2.596-2.796 7.19.1 9.685 2.197 1.898 5.093 1.598 7.89 1.598 1.398 0 2.496.1 3.795.799 1.697.998 2.596 2.995 1.697 4.892-1.198 2.496-3.894 2.696-6.291 2.696H95.92c-3.196 0-6.092 2.197-6.591 5.492-.6 3.794 2.297 7.189 6.092 7.388h44.243c6.591 0 13.282.2 19.874 0 3.196-.1 5.992-2.396 6.491-5.69.5-3.895-2.596-7.19-6.391-7.29-1.698 0-3.296-.1-4.694-1.098-1.598-1.198-2.197-3.195-1.199-4.893 1.199-1.996 3.296-2.296 5.393-2.296h19.875c3.395-.1 6.192-2.596 6.491-5.99.1-3.795-2.996-6.89-6.691-6.99-1.398 0-1.398 2.197 0 2.197 4.194.1 5.892 5.79 2.097 7.888-1.298.798-2.996.599-4.494.599h-15.081c-1.298 0-2.696-.1-3.994 0-3.296.2-6.592 2.895-6.592 6.39 0 3.994 3.895 6.39 7.59 6.49 1.498 0 2.797 0 3.995 1.098 1.398 1.298 1.798 3.395.899 5.092-1.398 2.696-4.494 2.297-7.091 2.297h-55.628c-1.797 0-3.695.2-5.493-.1-4.294-.7-4.694-6.79-.599-8.188 1.498-.499 3.396-.2 4.894-.2h7.89c1.697 0 3.395.1 5.093-.1 3.495-.598 6.691-3.494 6.092-7.288-.499-3.195-3.795-5.392-6.991-5.491-2.197 0-5.293.599-7.191-.8-3.295-2.396-1.498-7.488 2.497-7.687 5.493-.2 10.986 0 16.479 0H178.913c1.398.1 1.398-2.197-.1-2.197z"/>
    <path fill="#fff" d="M195.991 11.882c2.978 0 5.393-2.414 5.393-5.392s-2.415-5.392-5.393-5.392c-2.979 0-5.393 2.414-5.393 5.392s2.414 5.392 5.393 5.392z"/>
    <path fill="#333" d="M191.696 6.49c0-1.697 1.099-3.395 2.696-3.994 1.698-.599 3.696-.1 4.794 1.298 1.099 1.398 1.199 3.295.3 4.793-.899 1.498-2.697 2.296-4.394 1.997-1.898-.3-3.396-2.097-3.396-4.094 0-1.398-2.297-1.498-2.197 0 0 2.696 1.698 5.092 4.294 6.09 2.497.9 5.493.1 7.191-1.896 1.698-2.097 1.997-5.092.599-7.489C200.185.8 197.488-.299 194.792.2c-2.996.499-5.193 3.295-5.193 6.39-.2 1.298 2.097 1.298 2.097-.1z"/>
    <path fill="#DF357F" d="M147.056 76.183H1.245v12.88h145.811v-12.88z"/>
    <path fill="#333" d="M146.954 87.965H7.035c-1.797 0-3.895-.3-5.692 0h-.2l1.099 1.098v-12.88L1.143 77.28H141.062c1.797 0 3.895.3 5.692 0h.2l-1.098-1.098v12.88c0 1.398 2.197 1.498 2.197 0v-12.88c0-.6-.5-1.099-1.099-1.099H19.02c-5.893 0-11.785-.2-17.677 0h-.2c-.6 0-1.099.5-1.099 1.099v12.88c0 .6.5 1.098 1.099 1.098h127.934c5.893 0 11.785.2 17.677 0h.2c1.498 0 1.498-2.196 0-2.196z"/>
    <path fill="#fff" d="M147.056 89.063H1.245v99.747h145.811V89.063z"/>
    <path fill="#333" d="M146.954 87.965H19.02c-5.893 0-11.785-.2-17.677 0h-.2c-.6 0-1.099.499-1.099 1.098v95.553c0 1.298-.1 2.596 0 3.894v.2c0 .599.5 1.098 1.099 1.098h127.934c5.893 0 11.785.2 17.677 0h.2c.599 0 1.099-.499 1.099-1.098v-9.885-23.764-28.855-24.862-8.187c0-1.298.1-2.596 0-3.894v-.2c0-1.398-2.198-1.498-2.198 0v95.553c0 1.198-.199 2.696 0 3.894v.2l1.099-1.099H7.035c-1.797 0-3.895-.299-5.692 0h-.2l1.099 1.099v-9.885-23.764-28.855-24.862-8.187c0-1.198.2-2.696 0-3.894v-.2l-1.099 1.098h127.934c5.893 0 11.785.2 17.677 0h.2c1.498 0 1.498-2.196 0-2.196z"/>
    <path fill="#fff" d="M68.057 163.748H19.02v-45.929l24.569-10.185 24.468 10.185v45.929z"/>
    <path fill="#333" d="M68.056 162.55H19.02l1.099 1.098v-15.476-24.662-5.691c-.3.399-.6.699-.8 1.098 7.191-2.995 14.282-5.991 21.473-8.886.699-.3 1.398-.599 1.997-.799.2-.1.899-.2.999-.399-.1.199-.899-.2-.1.099l1.498.599c4.195 1.798 8.39 3.495 12.584 5.292 3.295 1.398 6.591 2.796 9.987 4.194-.3-.4-.6-.699-.8-1.098v45.829c0 1.398 2.198 1.498 2.198 0v-15.476-24.662-5.691c0-.5-.4-.899-.799-1.099l-21.572-8.986c-.899-.399-1.898-.998-2.896-1.198-.8-.2-1.698.499-2.397.699-4.195 1.697-8.39 3.494-12.584 5.192-3.395 1.398-6.791 2.796-10.187 4.293-.499.2-.799.499-.799 1.099v45.829c0 .599.5 1.098 1.099 1.098h49.036c1.499 0 1.499-2.296 0-2.296z"/>
    <path fill="#DF357F" d="M43.59 104.14l-29.462 13.18v6.39l29.462-13.08 29.362 13.08v-6.39L43.59 104.14z"/>
    <path fill="#333" d="M42.989 103.241c-8.59 3.794-17.178 7.588-25.767 11.483-1.198.499-2.497 1.098-3.695 1.597-.4.2-.6.599-.6.999v6.49c0 .898.9 1.298 1.699.998 8.588-3.794 17.177-7.588 25.766-11.482 1.199-.5 2.497-1.099 3.695-1.598H42.99c8.589 3.794 17.078 7.588 25.667 11.482 1.198.5 2.496 1.099 3.695 1.598.799.3 1.698 0 1.698-.998v-6.49c0-.4-.2-.799-.6-.999-8.588-3.794-17.078-7.588-25.666-11.482-1.199-.5-2.497-1.099-3.696-1.598-1.298-.599-2.496 1.398-1.098 1.897 8.589 3.794 17.078 7.589 25.667 11.483 1.198.499 2.496 1.098 3.695 1.597-.2-.299-.4-.599-.6-.998v6.49c.6-.3 1.1-.599 1.698-.999-8.688-3.894-17.277-7.688-25.966-11.582-1.099-.499-2.197-1.098-3.396-1.498-.998-.399-2.297.5-3.196.899-5.093 2.197-10.086 4.493-15.18 6.69l-12.284 5.391c.6.3 1.099.599 1.698.999v-6.49c-.2.299-.4.599-.6.998 8.59-3.794 17.178-7.588 25.767-11.482 1.199-.499 2.497-1.098 3.695-1.598 1.499-.499.4-2.396-.998-1.797z"/>
    <path fill="#F0D227" d="M30.806 135.092c2.372 0 4.295-1.922 4.295-4.293 0-2.371-1.923-4.294-4.295-4.294s-4.294 1.923-4.294 4.294c0 2.371 1.922 4.293 4.294 4.293z"/>
    <path fill="#333" d="M34.1 130.799c0 .699-.2 1.298-.599 1.897-.2.299.1-.1-.1.1l-.2.199-.2.2s-.299.2-.1.1c-.099.1-.299.2-.498.299-.1 0-.1.1-.2.1-.1.1-.1.1 0 0-.1 0-.1 0-.2.1-1.398.499-2.696.1-3.695-.998.1.1 0 0 0 0-.1-.1-.1-.2-.2-.3 0-.1-.1-.1-.1-.2 0 0-.2-.299-.1-.099-.1-.2-.1-.4-.2-.5 0-.099 0-.199-.1-.199v-.1-.2c0-.399 0-.699.1-.898 0-.2.1-.4.2-.6 0-.099.1-.199.2-.499.4-.599.8-.998 1.498-1.298 0 0-.2.1 0 0 .1 0 .2-.1.3-.1.1 0 .2 0 .2-.099 0 0 .3-.1.2 0h.998c.5.099.7.199 1.099.399.1 0 .1.1.2.1s.1.1.2.1c-.1-.1-.1 0 0 0l.399.399c.599.499.799 1.398.898 2.097 0 1.398 2.297 1.497 2.197 0 0-2.297-1.497-4.294-3.595-5.092-2.097-.799-4.594-.1-5.992 1.597-1.498 1.797-1.698 4.294-.5 6.29 1.2 1.997 3.496 2.996 5.793 2.596 2.497-.499 4.394-2.795 4.394-5.391-.1-1.398-2.297-1.398-2.297 0z"/>
    <path fill="#F0D227" d="M44.489 135.092c2.372 0 4.294-1.922 4.294-4.293 0-2.371-1.922-4.294-4.294-4.294s-4.295 1.923-4.295 4.294c0 2.371 1.923 4.293 4.295 4.293z"/>
    <path fill="#333" d="M47.683 130.799c0 .699-.2 1.298-.6 1.897-.2.299.1-.1-.1.1l-.199.199-.2.2s-.3.2-.1.1c-.1.1-.3.2-.499.299-.1 0-.1.1-.2.1-.1.1-.1.1 0 0-.1 0-.1 0-.2.1-1.398.499-2.696.1-3.695-.998.1.1 0 0 0 0-.1-.1-.1-.2-.2-.3 0-.1-.1-.1-.1-.2 0 0-.199-.299-.1-.099-.099-.2-.099-.4-.199-.5 0-.099 0-.199-.1-.199v-.1-.2c0-.399 0-.699.1-.898 0-.2.1-.4.2-.6 0-.099.1-.199.2-.499.4-.599.799-.998 1.498-1.298 0 0-.2.1 0 0 .1 0 .2-.1.3-.1.1 0 .2 0 .2-.099 0 0 .299-.1.199 0H44.887c.499.099.699.199 1.098.399.1 0 .1.1.2.1s.1.1.2.1c-.1-.1-.1 0 0 0l.4.399c.598.499.898 1.398.898 2.097 0 1.398 2.297 1.497 2.197 0 0-2.297-1.498-4.294-3.595-5.092-2.098-.799-4.594-.1-5.992 1.597-1.499 1.797-1.698 4.294-.5 6.29 1.199 1.997 3.496 2.996 5.793 2.596 2.496-.499 4.394-2.795 4.394-5.391 0-1.398-2.297-1.398-2.297 0z"/>
    <path fill="#F0D227" d="M58.17 135.092c2.373 0 4.295-1.922 4.295-4.293 0-2.371-1.922-4.294-4.294-4.294s-4.294 1.923-4.294 4.294c0 2.371 1.922 4.293 4.294 4.293z"/>
    <path fill="#333" d="M61.365 130.799c0 .699-.2 1.298-.6 1.897-.199.299.1-.1-.1.1l-.199.199-.2.2s-.3.2-.1.1c-.1.1-.299.2-.499.299-.1 0-.1.1-.2.1-.1.1-.1.1 0 0-.1 0-.1 0-.2.1-1.397.499-2.696.1-3.695-.998.1.1 0 0 0 0-.1-.1-.1-.2-.2-.3 0-.1-.1-.1-.1-.2 0 0-.199-.299-.099-.099-.1-.2-.1-.4-.2-.5 0-.099 0-.199-.1-.199v-.1-.2c0-.399 0-.699.1-.898 0-.2.1-.4.2-.6 0-.099.1-.199.2-.499.4-.599.799-.998 1.498-1.298 0 0-.2.1 0 0 .1 0 .2-.1.3-.1.1 0 .2 0 .2-.099 0 0 .299-.1.199 0H58.569c.499.099.699.199 1.098.399.1 0 .1.1.2.1s.1.1.2.1c-.1-.1-.1 0 0 0l.4.399c.598.499.898 1.398.898 2.097 0 1.398 2.297 1.497 2.197 0 0-2.297-1.498-4.294-3.595-5.092-2.097-.799-4.594-.1-5.992 1.597-1.498 1.797-1.698 4.294-.5 6.29 1.199 1.997 3.496 2.996 5.793 2.596 2.496-.499 4.394-2.795 4.394-5.391-.1-1.398-2.297-1.398-2.297 0z"/>
    <path fill="#fff" d="M53.476 142.78H33.7v20.669h19.775V142.78z"/>
    <path fill="#333" d="M53.375 162.35H33.601l1.099 1.099v-18.173-2.596l-1.099 1.099H53.375l-1.098-1.099v20.769c0 1.397 2.197 1.497 2.197 0v-18.173-2.596c0-.599-.5-1.098-1.099-1.098H33.601c-.6 0-1.099.499-1.099 1.098v20.769c0 .599.5 1.098 1.099 1.098H53.375c1.498 0 1.498-2.197 0-2.197z"/>
    <path fill="#333" d="M49.48 154.962c1.049 0 1.898-.85 1.898-1.897 0-1.048-.85-1.898-1.898-1.898-1.047 0-1.897.85-1.897 1.898 0 1.047.85 1.897 1.898 1.897z"/>
    <path fill="#F0D227" d="M130.975 118.418H78.443v6.989h52.532v-6.989zM100.514 131.198H78.443v6.989h22.071v-6.989zM130.975 131.198h-27.464v6.989h27.464v-6.989zM130.975 143.979H78.443v6.989h52.532v-6.989zM102.112 156.759h-23.67v6.989h23.67v-6.989z"/>
    <path fill="#fff" d="M27.509 84.57c1.103 0 1.997-.894 1.997-1.997 0-1.103-.894-1.997-1.997-1.997-1.104 0-1.998.894-1.998 1.997 0 1.103.895 1.997 1.998 1.997zM11.93 84.57c1.102 0 1.997-.894 1.997-1.997 0-1.103-.895-1.997-1.998-1.997s-1.997.894-1.997 1.997c0 1.103.894 1.997 1.997 1.997zM19.519 84.57c1.103 0 1.997-.894 1.997-1.997 0-1.103-.894-1.997-1.997-1.997-1.103 0-1.997.894-1.997 1.997 0 1.103.894 1.997 1.997 1.997zM119.59 168.641l-2.996-10.484c-.1-.3-.2-.599-.4-.799-.299-.2-.599-.2-.998-.1-8.489 1.198-17.078 2.596-25.468 4.293 1.199 2.996 4.295 5.093 7.49 5.891 3.197.899 6.492.699 9.788.6.799 2.895 2.597 5.491 4.894 7.388"/>
    <path fill="#333" d="M120.688 168.341c-.999-3.495-1.898-6.989-2.996-10.484-.4-1.098-1.099-1.797-2.297-1.697-1.698.1-3.396.499-5.094.699-6.99 1.098-13.981 2.296-20.972 3.594-.8.2-.9.999-.7 1.698 3.096 6.989 11.685 7.288 18.177 7.089-.399-.3-.699-.599-1.099-.799.899 3.095 2.697 5.891 5.194 7.888 1.098.898 2.696-.699 1.598-1.598-2.198-1.797-3.795-4.193-4.594-6.889-.1-.499-.6-.799-1.099-.799-5.792.2-13.483.3-16.279-5.891-.2.599-.4 1.098-.699 1.697 6.092-1.198 12.184-2.196 18.276-3.195 1.399-.199 2.897-.399 4.295-.699.799-.099 1.598-.199 2.397-.399h.499c.1.1.3.999.3 1.198l2.696 9.286c.699 1.298 2.797.699 2.397-.699z"/>
    <path fill="#DF357F" d="M178.016 150.568c-9.987-2.496-42.745 29.954-42.745 35.845 0 3.295 2.697 6.79 5.693 9.885 2.696 2.796 6.991 3.295 10.286 1.098l13.982-4.293 1.398 2.097s-1.697 32.649 4.894 63.402H267.1s4.295-81.475-31.359-100.046c-35.654-18.571-57.526-7.189-57.526-7.189"/>
    <path fill="#333" d="M178.314 149.47c-2.098-.499-4.395.2-6.292.998-2.896 1.199-5.593 2.796-8.09 4.593-6.292 4.394-12.084 9.486-17.477 14.878-2.397 2.496-4.794 4.992-6.991 7.588-1.598 1.897-3.196 3.894-4.394 6.09-.4.699-.699 1.398-.799 2.097-.4 2.097.699 4.294 1.697 6.091 2.797 4.593 6.991 9.086 12.784 7.888 1.398-.3 2.597-1.099 3.895-1.498l4.794-1.498c2.696-.798 5.393-1.697 8.089-2.496-.399-.199-.799-.299-1.298-.499.299.499.699.998.999 1.598.099.099.499.898.299.299s0-.299-.1-.2c-.199.4-.1 1.199-.1 1.598-.099 2.895-.099 5.791-.099 8.687 0 10.483.499 21.067 1.697 31.551.799 7.289 1.898 14.578 3.396 21.767.1.499.599.798 1.099.798H263.204c1.198 0 2.496.1 3.695 0h.2c.599 0 1.098-.499 1.098-1.098.3-5.591.2-11.183 0-16.674-.399-12.182-1.598-24.463-4.095-36.444-2.596-12.581-6.591-25.561-14.381-35.945-3.495-4.693-7.69-8.786-12.883-11.582-8.989-4.893-18.976-8.587-29.162-10.185-6.692-1.098-13.583-1.298-20.274-.199-3.196.499-6.492 1.198-9.388 2.596-.1.1-.3.1-.399.199-1.299.699-.2 2.597 1.098 1.898.1-.1.3-.1.4-.2.099 0 .099-.1.199-.1.2-.1-.199.1 0 0 .2-.1.5-.2.699-.3 1.498-.599 2.997-.998 4.594-1.397 5.693-1.298 11.585-1.598 17.378-1.099 9.488.799 18.776 3.595 27.464 7.489 3.596 1.597 7.191 3.295 10.387 5.691 2.197 1.697 4.194 3.595 5.992 5.791 8.19 9.585 12.384 22.066 15.18 34.148 2.797 11.881 4.095 24.162 4.694 36.344.2 4.393.3 8.686.3 13.08 0 2.096-.3 4.293-.1 6.39v.299l1.099-1.098H175.218c-1.199 0-2.597-.2-3.696 0h-.199c.399.299.699.599 1.098.799-4.294-19.97-5.592-40.738-4.893-61.006 0-.599.099-1.298.099-1.997-.099-.999-.998-1.997-1.597-2.796-.3-.399-.799-.699-1.299-.499-4.594 1.398-9.188 2.696-13.682 4.293-.3.1-.499.2-.799.4-1.198.599-2.397.998-3.795.998-2.796-.1-4.594-1.797-6.392-3.794-1.698-1.997-3.795-4.593-3.795-7.389v-.1c0-.099.1-.199.1-.399.2-.499.1-.399.3-.799 2.396-4.593 6.291-8.587 9.887-12.281 4.993-5.192 10.386-10.084 16.179-14.278 2.696-1.997 5.593-3.994 8.689-5.392 1.897-.898 4.294-1.897 6.092-1.398 1.598.2 2.197-1.996.799-2.296z"/>
    <path fill="#fff" d="M232.943 155.96c7.69 1.997 13.083 8.787 17.777 15.277 8.489 11.981 16.379 24.662 21.173 38.64-2.198 0-3.895 1.897-5.693 3.295-3.995 3.195-9.388 3.894-14.381 5.392-6.991 2.097-13.683 5.991-21.073 5.691-.5 0-.999-.1-1.398-.399-.4-.4-.5-.999-.6-1.598-.399-4.493-.599-8.986-.499-13.479 0-.499 0-.899.3-1.298.299-.4.799-.599 1.298-.699 7.99-2.396 11.984-3.495 19.774-6.59-1.298-4.393-14.581-38.441-18.176-44.432M175.519 152.166c6.891 19.869 15.979 38.94 27.065 56.713 2.896-19.271 13.982-36.245 22.671-53.718.299-.699.699-1.497.299-2.096-.399-.899-1.698-.999-2.596-1.199-2.098-.399-3.696-1.997-5.593-2.995-4.394-2.396-9.787-1.697-14.781-.799-8.489 1.498-16.978 2.896-25.567 4.393"/>
    <path fill="#333" d="M174.419 152.465c5.393 15.477 12.084 30.553 20.074 44.931 2.297 4.094 4.594 8.088 7.091 12.082.499.699 1.897.699 2.097-.3 2.297-14.877 9.288-28.256 16.279-41.336 1.797-3.295 3.495-6.59 5.193-9.885.699-1.298 1.898-3.095 1.698-4.693-.2-1.398-1.398-1.997-2.597-2.296-1.797-.4-2.996-.999-4.494-1.997-1.498-.999-2.996-1.797-4.694-2.297-3.395-.898-6.991-.599-10.386-.099-9.288 1.397-18.576 3.195-27.864 4.792-1.399.2-.799 2.396.599 2.197 7.89-1.398 15.68-2.696 23.569-4.094 3.496-.599 6.991-1.298 10.487-1.098 1.698.1 3.495.499 4.993 1.198 1.399.699 2.697 1.797 4.095 2.596.699.299 1.398.599 2.097.799.4.1 1.498.1 1.798.399.399.499-.3 1.498-.599 1.997-.5.899-.899 1.797-1.398 2.696-1.598 3.095-3.296 6.19-4.894 9.385-3.296 6.191-6.592 12.381-9.288 18.871-3.096 7.089-5.593 14.478-6.691 22.266l2.097-.299c-8.589-13.879-15.979-28.457-22.072-43.533-1.697-4.294-3.295-8.587-4.793-12.881-.699-1.397-2.797-.798-2.397.599z"/>
    <path fill="#333" d="M181.609 158.456c2.197 14.778 5.393 29.954 13.283 42.834 1.298 2.197 4.394 8.188 7.79 5.891 1.198-.798.1-2.795-1.099-1.897-1.798 1.198-6.591-8.287-7.29-9.685-1.998-3.894-3.596-7.888-4.894-12.081-2.697-8.387-4.295-16.974-5.593-25.661-.2-1.398-2.397-.799-2.197.599zM197.589 211.774c-.1 14.977 1.198 30.054 1.897 45.031.1 1.398 2.297 1.498 2.198 0-.699-14.977-1.998-30.054-1.898-45.031.1-1.398-2.097-1.398-2.197 0z"/>
    <path fill="#F0D227" d="M191.997 153.364c-.4 2.197-.6 4.393-.6 6.69 0 .299 0 .599.2.799.2.199.599.199.999.199 3.096-.399 6.092-.799 9.188-1.298.3 0 .599-.1.799-.299.2-.3.2-.699.1-.999-.3-1.997-.599-3.994-.999-5.991 0-.199-.1-.399-.2-.599-.199-.299-.699-.199-1.098-.099l-6.592 1.497"/>
    <path fill="#333" d="M190.997 153.065c-.2 1.298-.4 2.596-.5 3.993-.099.599-.099 1.298-.099 1.897 0 .6-.1 1.298.099 1.798.1.599.6 1.098 1.199 1.298.699.199 1.398 0 1.997-.1 1.299-.2 2.697-.4 3.995-.599 1.298-.2 2.697-.4 3.995-.599.499-.1.999-.1 1.398-.4.599-.399.899-1.098.799-1.797-.1-1.298-.399-2.696-.599-3.994-.1-.599-.2-1.298-.3-1.897-.1-.599-.2-1.298-.699-1.797-.599-.499-1.298-.499-1.997-.399-.699.099-1.398.299-2.197.499-1.498.299-2.997.699-4.495.998-1.398.3-.799 2.496.6 2.197 1.997-.499 4.094-.999 6.092-1.398.1 0 .599-.1.599-.1s-.3-.399-.4-.399l.1.299.3 1.498c.2.998.3 2.097.499 3.095.1.4.1.999.2 1.398.1.1-.1.3.1 0 .3-.299.1-.1 0-.1-.2 0-.499.1-.799.1-.999.1-2.097.3-3.096.399-.999.1-2.097.3-3.096.4-.499.1-.999.1-1.598.2-.2 0-.399.099-.699.099h-.3s.2.3.3.3c.1 0 0-.499 0-.599v-.899c0-.599.1-1.198.1-1.697.1-1.098.2-2.197.499-3.395.1-.599-.2-1.198-.799-1.398-.399.2-1.098.499-1.198 1.099z"/>
    <path fill="#F0D227" d="M192.496 162.65c-1.299 4.393-.1 25.86-.599 30.353-.1.799-.2 1.598 0 2.297.199.898.799 1.697 1.298 2.496 2.097 3.095 3.296 14.178 5.593 17.073 1.997-4.792 4.694-17.972 5.792-23.064.1-.399.2-.899.1-1.298-.1-.499-.3-.899-.599-1.298-1.898-3.395-4.694-24.363-5.493-28.257-1.798.3-3.496.599-5.293.899"/>
    <path fill="#333" d="M191.397 162.35c-.699 2.696-.599 5.691-.599 8.487-.1 4.094 0 8.188.1 12.281 0 3.096.199 6.191 0 9.186-.1.899-.2 1.698-.1 2.596.1 1.398.899 2.496 1.598 3.694.898 1.398 1.298 3.096 1.697 4.693.6 2.297 1.099 4.593 1.698 6.89.5 1.797.999 3.794 2.098 5.292.599.798 1.697.698 2.097-.3 1.598-3.894 2.497-8.088 3.395-12.081l1.498-6.89c.2-.898.4-1.797.6-2.596.199-.998.599-2.097.499-3.095-.1-1.298-.999-2.396-1.398-3.694-.4-1.498-.799-2.996-1.099-4.593-.799-3.894-1.398-7.888-2.097-11.782-.499-3.295-.899-6.59-1.598-9.785-.1-.599-.799-.899-1.398-.799-1.798.3-3.496.599-5.293.899-1.398.199-.799 2.396.599 2.196 1.798-.299 3.495-.599 5.293-.898-.499-.3-.899-.5-1.398-.799 1.298 6.59 1.997 13.279 3.296 19.769.499 2.796.898 5.891 2.197 8.388.2.299.399.599.499.998.1.499-.1 1.098-.2 1.598-.199.798-.399 1.597-.499 2.396-.499 2.197-.899 4.293-1.398 6.49-.999 4.593-1.998 9.286-3.695 13.579l2.097-.299c-.999-1.199-1.398-2.896-1.798-4.294-.599-1.997-.998-4.094-1.498-6.091-.399-1.797-.899-3.494-1.598-5.192-.299-.698-.699-1.397-1.198-1.996-.799-1.298-.799-2.297-.699-3.795.199-2.895.1-5.791.1-8.586 0-3.894-.1-7.788-.1-11.682 0-3.096-.2-6.59.599-9.586.2-1.398-1.898-1.997-2.297-.599z"/>
    <path fill="#fff" d="M111.001 177.926c-.599-.699-1.198-1.398-1.897-2.097-.1-.099-.3-.299-.3-.499 0-.199.2-.399.3-.499 3.695-3.295 7.59-6.59 11.485-9.585.1-.1.2-.2.399-.2.2 0 .3.1.4.2.599.499 1.198 1.098 1.698 1.597.1.1.299.3.299.4 0 .199-.1.499-.299.699-3.296 3.894-7.191 7.288-11.585 9.884.199 0 .399.1.599.1"/>
    <path fill="#333" d="M111.8 177.127c-.3-.399-.7-.798-.999-1.098-.2-.2-.799-.699-.799-.898v.599c0-.1.499-.5.699-.599l.599-.6c.5-.399.999-.898 1.498-1.298.899-.798 1.898-1.597 2.896-2.396.999-.799 1.898-1.597 2.897-2.396l1.498-1.198c.399-.3.899-.899 1.398-1.099h-.599c-.2 0 0 0 .1.1.199.2.299.3.499.4.3.199.599.699.899.798l.2.2v-.499s-.3.299-.3.399c-.2.3-.499.599-.699.799-.999 1.098-2.097 2.197-3.196 3.195-2.197 1.997-4.594 3.694-7.091 5.292-.799.499-.699 1.897.3 2.097.199 0 .399.1.599.1 1.398.299 1.997-1.898.599-2.197-.2 0-.399-.1-.599-.1l.3 2.097c2.396-1.398 4.694-3.095 6.791-4.893.999-.898 1.997-1.897 2.996-2.895.499-.499.899-.999 1.398-1.498.4-.499 1.099-1.098 1.199-1.697.399-1.398-1.399-2.496-2.198-3.195-.499-.4-.998-.799-1.598-.599-.699.199-1.398.898-1.997 1.298-2.397 1.897-4.794 3.794-7.091 5.791-.699.599-1.298 1.198-1.997 1.697-.599.499-1.398 1.098-1.798 1.697-.399.699-.1 1.398.4 1.997.599.699 1.198 1.398 1.897 2.097.699 1.198 2.297-.399 1.299-1.498z"/>
    <path fill="#fff" d="M220.36 213.372c-1.198-.899-1.498-2.796-.599-4.094.5-.799 1.398-1.198 2.197-1.598 1.898-.698 4.295-.698 5.493.899 0 0 1.698 12.681 3.296 18.971-3.396.599-6.691 1.198-10.087 1.797-.899.1-1.997.1-2.297-.699-.1-.399 0-.799-.3-1.098-.199-.2-.499-.3-.799-.399-.599-.3-1.098-.799-1.498-1.298-.499-.699-.898-1.598-.898-2.497 0-.898.399-1.797 1.298-2.196-.999-.899-2.097-1.897-1.998-3.195.1-1.698 1.998-2.696 3.696-3.195 1.398-.5 2.696-.899 4.094-1.398"/>
    <path fill="#333" d="M221.158 212.573c-2.896-2.596 2.696-5.292 4.894-3.694.299.199.399.599.299.1v.099c0 .2.1.4.1.599.1.799.2 1.698.4 2.497.799 5.291 1.598 10.583 2.896 15.675.299-.499.499-.898.799-1.397-1.798.299-3.596.599-5.493.898-.999.2-1.997.3-2.896.499-.699.1-1.698.5-2.297.3-.4-.1-.3-.1-.4-.499-.1-.3-.1-.599-.299-.799-.4-.599-1.099-.699-1.698-1.098-.999-.699-2.197-2.996-.699-3.794.599-.3.799-1.298.199-1.798-.599-.599-1.598-1.298-1.697-2.296 0-.799.699-1.298 1.298-1.598 1.698-.998 3.795-1.497 5.693-2.096 1.398-.5.799-2.596-.6-2.197l-4.494 1.498c-1.098.399-2.197.898-2.996 1.797-2.097 2.196-.599 4.792 1.298 6.39.1-.599.2-1.198.2-1.797-1.798.998-2.197 3.095-1.398 4.892.399.999.999 1.897 1.798 2.496.299.3.898.4 1.198.699.3.3.2.899.499 1.298 1.199 1.698 3.795.799 5.493.5 2.697-.5 5.293-.899 7.99-1.398.599-.1.899-.799.799-1.398-1.298-4.992-1.998-10.085-2.796-15.077-.2-1.198-.2-2.696-.6-3.894-.299-.998-1.598-1.697-2.596-1.997-1.299-.399-2.797-.2-3.995.2-1.598.599-3.196 1.597-3.695 3.295-.4 1.497.099 3.195 1.298 4.293.999 1.398 2.597-.2 1.498-1.198z"/>
    <path fill="#fff" d="M197.79 153.264l3.295 10.484c.1.3.2.599.5.799.299.2.699.299 1.098.299 1.798-.099 3.496-.898 5.193-1.697 5.693-2.896 11.585-5.791 15.88-10.484.2-.2.399-.399.399-.699 0-.299-.199-.499-.399-.699-1.598-1.697-3.196-3.494-4.794-5.192-6.192 3.395-13.083 5.492-20.074 6.191"/>
    <path fill="#333" d="M196.689 153.564c.7 2.396 1.499 4.792 2.198 7.089.399 1.198.699 2.496 1.098 3.594.3.699.699 1.298 1.498 1.498 1.798.599 4.095-.499 5.693-1.198 1.997-.899 3.995-1.997 5.892-2.996 3.695-1.996 7.291-4.193 10.387-7.188 1.198-1.199 2.397-2.397 1.098-3.994-1.498-1.897-3.295-3.595-4.893-5.292-.3-.4-.899-.4-1.398-.2-5.993 3.295-12.684 5.292-19.475 5.991-1.398.1-1.398 2.396 0 2.197 7.29-.699 14.181-2.796 20.673-6.291-.499-.1-.899-.1-1.398-.2l3.895 4.194c.2.2.998.799.998.999 0-.4-.499.399-.599.499-.499.599-1.098 1.098-1.698 1.597-2.596 2.197-5.492 3.994-8.489 5.592-1.398.798-2.896 1.497-4.394 2.296-1.398.699-3.096 1.797-4.794 1.797-1.098 0-1.198-1.298-1.498-2.196-.299-.999-.599-1.897-.899-2.896l-1.797-5.691c-.3-1.198-2.497-.599-2.098.799z"/>
    <path fill="#DF357F" d="M229.448 122.012c.998.1 1.498-.998 1.697-1.997 4.295-19.869-34.555-31.651-39.548-35.545-.899 3.594 1.198 9.785 4.494 11.582-8.589-.499-17.078-1.398-25.567-2.796 0 0 4.594 11.782 9.787 14.678l44.842 15.776 4.295-1.698z"/>
    <path fill="#333" d="M229.449 123.111c2.796 0 3.096-3.595 3.196-5.692.099-1.997-.3-3.994-.999-5.891-1.498-3.993-4.394-7.388-7.59-10.184-6.891-5.99-15.38-10.084-23.67-13.879-2.696-1.198-5.892-2.296-8.289-4.093-.599-.4-1.498 0-1.698.699-.998 4.293.999 10.583 4.994 12.78l.599-2.097c-8.489-.499-16.878-1.398-25.267-2.796-.699-.1-1.698.5-1.398 1.398.799 2.097 1.797 4.194 2.896 6.29 1.698 3.196 3.795 6.591 6.791 8.687.799.599 1.798.799 2.697 1.099 1.797.599 3.695 1.298 5.492 1.897 10.886 3.894 21.872 7.688 32.758 11.582 1.498.499 2.896 1.098 4.394 1.597.5.2.899.1 1.398-.099 1.299-.5 2.597-.999 3.796-1.498 1.298-.499.799-2.696-.6-2.197l-3.295 1.198c-.2.1-.6.2-.799.3-.5.399.399-.2.399.1l-.2-.1c-.898-.599-2.297-.799-3.295-1.198-4.794-1.698-9.688-3.395-14.482-5.092l-17.077-5.991c-2.098-.699-4.195-1.498-6.292-2.197-1.099-.399-2.297-.699-3.296-1.198-2.297-1.098-4.294-4.393-5.693-6.69-1.398-2.296-2.596-4.892-3.595-7.288l-1.398 1.397c8.589 1.398 17.178 2.397 25.866 2.796 1.099.1 1.498-1.597.6-2.097-3.096-1.797-4.794-6.889-3.995-10.284-.6.2-1.099.4-1.698.7 1.798 1.397 4.194 2.196 6.192 3.194 3.495 1.598 7.091 3.195 10.486 4.993 7.291 3.794 15.58 8.287 20.074 15.476 1.099 1.697 1.898 3.594 2.297 5.591.2.999.2 1.897.2 2.896 0 .599-.1 3.295-.899 3.295-1.098.399-1.098 2.596.4 2.596z"/>
    <path fill="#fff" d="M225.966 131.207c1.897-13.154-9.091-25.617-24.541-27.838-15.451-2.221-29.514 6.641-31.41 19.795-1.897 13.154 9.091 25.618 24.541 27.839 15.451 2.221 29.514-6.642 31.41-19.796z"/>
    <path fill="#333" d="M224.954 130.899c-1.598 10.483-10.786 17.373-20.773 18.97-10.586 1.698-22.471-2.296-28.962-11.182-2.896-3.894-4.494-8.587-4.295-13.48.2-4.892 2.297-9.485 5.593-12.98 7.49-7.888 19.575-9.785 29.662-6.689 10.886 3.394 20.373 13.479 18.775 25.361-.199 1.397 1.998 1.997 2.198.599 1.498-11.283-5.593-21.367-15.48-26.26-10.587-5.192-24.169-4.593-33.657 2.696-4.194 3.195-7.39 7.688-8.589 12.78-1.298 5.192-.599 10.684 1.798 15.476 5.193 10.584 17.377 16.375 28.863 16.176 11.085-.2 22.371-6.291 26.166-17.074.399-1.298.699-2.596.899-3.894.099-1.298-1.998-1.897-2.198-.499z"/>
    <path fill="#333" d="M179.112 122.512c-1.098-.2-1.797-1.099-1.598-2.197l.6-3.794c.199-1.099 1.098-1.798 2.197-1.598 1.098.2 1.798 1.099 1.598 2.197l-.599 3.794c-.1 1.098-1.099 1.797-2.198 1.598zM202.482 123.31c-1.099-.199-1.798-1.098-1.598-2.196l.599-3.795c.2-1.098 1.099-1.797 2.197-1.597 1.099.2 1.798 1.098 1.598 2.197l-.599 3.794c-.1.998-1.098 1.697-2.197 1.597zM188.7 116.72c-2.497 1.798-4.294 4.294-5.393 7.189-.3.699-.4 1.398-.599 2.097-.2.799-.4 1.797 0 2.496.399.799 1.198 1.099 2.097 1.198.899.2 1.798.2 2.696.3 1.998 0 3.995-.3 5.893-.899 1.398-.499.799-2.596-.599-2.196-1.698.599-3.496.898-5.393.799-.5 0-.899 0-1.399-.1-.199 0-.499-.1-.699-.1-.199 0-.399-.1-.499-.1-.3 0-.1-.1-.1.1 0 .299.1-.3.1-.4 0-.299.1-.698.2-.998.699-2.995 2.397-5.691 4.794-7.488.499-.4.699-.999.399-1.498-.3-.499-1.099-.799-1.498-.4z"/>
    <path fill="#fff" d="M223.057 127.304c.699-1.697 1.398-3.494 2.996-4.493 1.398-.899 3.196-.899 4.694-.1 1.398.699 2.497 2.197 2.896 3.794.2.799.2 1.598 0 2.397-.2.699-.599 1.298-1.099 1.797-1.498 1.797-3.395 3.395-5.393 4.593-.599.299-1.198.599-1.797.599-.699 0-1.398-.499-1.798-1.098-.399-.599-.699-1.298-.899-1.997"/>
    <path fill="#333" d="M224.154 127.604c.6-1.498 1.199-3.195 2.697-3.994 1.498-.799 3.395-.2 4.494.998 1.198 1.298 1.698 3.295.699 4.793-1.098 1.597-2.597 2.895-4.095 3.994-.499.299-.898.599-1.398.898-.399.2-.799.5-1.298.5-.999-.1-1.398-1.498-1.698-2.197-.499-1.398-2.696-.799-2.197.599.499 1.298.999 2.596 2.197 3.395 1.199.799 2.597.599 3.795-.1 2.297-1.198 4.395-2.995 5.992-5.092.899-1.098 1.498-2.297 1.498-3.694 0-1.298-.499-2.696-1.198-3.695-1.398-2.097-3.895-3.295-6.392-2.795-2.896.599-4.294 3.294-5.293 5.89-.2.6.2 1.199.799 1.398.599.1 1.199-.299 1.398-.898z"/>
    <path fill="#DF357F" d="M187.003 134.593c2.896.1 5.792-.499 8.489-1.598.3-.099.699-.299.999-.099.399.199.399.698.499 1.098.1 1.797.1 3.694-.999 5.192-1.198 1.697-3.795 2.097-5.592 1.098-1.798-.898-2.997-2.995-3.096-5.092"/>
    <path fill="#333" d="M187.002 135.691c1.998.1 4.095-.199 5.993-.699.998-.299 1.897-.699 2.896-1.098 0 0 .2 0 .2-.1.299-.2-.5 0-.4-.299v1.497c0 .799-.1 1.598-.299 2.397-.2.599-.6 1.098-1.199 1.497-1.098.699-2.497.699-3.595 0-1.398-.798-2.197-2.396-2.197-3.994 0-.599-.5-1.098-1.099-1.098s-1.198.499-1.098 1.098c.099 2.097.998 4.094 2.696 5.392 1.598 1.298 3.795 1.698 5.793.899 2.197-.899 3.195-2.896 3.395-5.092.1-.999.2-2.197-.1-3.195-.1-.6-.499-1.099-1.098-1.298-.799-.3-1.399 0-2.098.299-2.397.999-5.093 1.498-7.69 1.398-1.598.1-1.598 2.396-.1 2.396z"/>
    <path fill="#fff" d="M175.518 150.968c-.998 2.097 3.096 36.044 4.994 39.639 2.197-.2 4.494-.1 6.691.199-.799 2.996-1.098 13.38-.299 14.778.599 1.098 7.889 12.081 12.583 17.473 1.498.699-3.495-27.558-15.779-63.203l-8.19-8.886z"/>
    <path fill="#333" d="M174.518 150.468c-.599 1.398-.3 3.295-.2 4.793.2 2.996.5 5.991.799 8.986.699 6.89 1.598 13.879 2.897 20.669.399 2.096.599 4.393 1.598 6.29.199.299.599.599.998.599 2.098-.2 4.295-.1 6.392.2-.3-.5-.499-.899-.799-1.398-.999 3.694-.899 7.987-.799 11.782 0 1.298 0 2.695.599 3.894.599 1.098 1.398 2.196 2.098 3.295 2.596 3.993 5.393 7.887 8.289 11.582.699.898 1.398 1.797 2.097 2.596.499.499.999.799 1.698.399.599-.399.699-1.098.699-1.697.1-1.997-.4-4.194-.699-6.191-.599-3.694-1.398-7.289-2.197-10.883-2.597-11.482-5.793-22.765-9.288-33.948-1.199-3.794-2.397-7.688-3.795-11.482-.4-1.098-1.498-1.897-2.198-2.796l-6.291-6.889c-.999-1.099-2.597.499-1.598 1.597 1.698 1.798 3.295 3.695 4.993 5.492l2.697 2.995.299.3c.1.1.1.2 0 .1.799 1.497 1.199 3.494 1.698 5.092 3.695 11.083 6.991 22.365 9.787 33.748 1.698 6.69 3.396 13.579 4.195 20.468.1.699.1 1.498.2 2.197v.3c0 .299.1 0 0 0 0 0-.4.399 0-.1.2-.2.2-.3.599-.4.599-.199.899.3.699-.099-.399-.799-1.398-1.698-1.897-2.397-.799-.998-1.498-1.997-2.297-2.995-1.399-1.897-2.797-3.794-4.095-5.791-1.099-1.598-2.097-3.195-3.196-4.793-.599-.998-.699-1.298-.799-2.696-.1-2.097-.1-4.293 0-6.49.1-1.897.2-3.894.599-5.691.1-.499-.199-1.298-.799-1.398-2.297-.299-4.594-.399-6.991-.2.3.2.6.4.999.6-.1-.2-.1-.1-.2-.6l-.299-1.198c-.3-1.098-.5-2.096-.699-3.195-.6-2.995-.999-6.09-1.498-9.086-.899-6.49-1.698-12.98-2.198-19.47-.099-1.198-.199-2.396-.199-3.594v-1.198c0-.2.1-.4 0-.2.699-1.298-1.199-2.397-1.898-1.099z"/>
    <path fill="#fff" d="M193.694 153.065c-2.497 3.494-6.192 8.786-7.79 12.78-4.394-4.393-6.991-10.284-11.185-14.777 1.398-1.298 2.996-2.497 4.594-3.595.399-.2.799-.499 1.298-.499.4 0 .799.299 1.199.499 3.795 2.496 8.489 2.896 12.483 5.092"/>
    <path fill="#333" d="M192.795 152.565c-2.896 4.194-5.992 8.288-7.989 13.08.599-.2 1.298-.299 1.897-.499-4.394-4.393-6.991-10.184-11.185-14.777v1.597c1.298-1.198 2.796-2.496 4.394-3.395.599-.299.699-.299 1.298.1.3.2.5.3.799.499.699.4 1.498.799 2.297 1.099 3.096 1.298 6.392 1.897 9.388 3.494 1.298.699 2.397-1.298 1.099-1.897-3.396-1.797-7.391-2.396-10.786-4.093-.799-.4-1.598-.999-2.397-1.398-.899-.4-1.898-.3-2.697.299-1.797 1.099-3.495 2.397-4.993 3.794-.5.4-.4 1.199 0 1.598 4.194 4.593 6.791 10.384 11.185 14.777.599.699 1.598.3 1.898-.499 1.797-4.493 4.893-8.587 7.69-12.481.799-1.398-1.099-2.496-1.898-1.298z"/>
    <path fill="#fff" d="M234.641 206.083c-1.997.599-4.095 1.298-6.092 1.897-.2.1-.499.2-.699.3-.499.399-.499 1.098-.499 1.697 0 5.392.699 10.783 2.097 15.975.1.5.299 1.099.699 1.398.599.499 1.398.499 2.197.499 2.297-.099 4.594-.499 6.791-1.098-.399-6.59-1.198-13.18-2.297-19.67-.1-.499-.299-.998-.699-.998"/>
    <path fill="#333" d="M234.341 204.985c-1.798.499-3.495 1.098-5.293 1.597-1.398.4-2.497.799-2.796 2.396-.3 1.598-.1 3.395 0 5.093.099 1.797.299 3.494.599 5.192.299 1.797.599 3.494.998 5.292.3 1.397.6 3.095 1.898 3.894 1.298.798 3.096.499 4.494.299 1.698-.2 3.396-.499 5.094-.998.499-.1.898-.599.799-1.099-.3-3.994-.6-7.987-1.199-11.981-.3-1.997-.499-3.894-.799-5.891-.2-1.398-.2-3.495-1.897-3.994-1.399-.399-1.998 1.797-.6 2.197-.199-.1 0 .499 0 .698.1.4.1.899.2 1.298.1.899.3 1.698.4 2.596.199 1.698.499 3.395.699 5.093.399 3.394.699 6.689.899 10.084.299-.399.599-.699.798-1.098-1.298.399-2.596.699-3.994.898-.699.1-1.399.2-2.098.2-.499 0-1.298.2-1.697-.1-.4-.299-.5-1.298-.7-1.797-.199-.699-.299-1.298-.499-1.997-.3-1.298-.599-2.696-.799-4.094-.399-2.695-.599-5.391-.599-8.187 0-.499-.1-1.198.3-1.498.499-.299 1.398-.399 1.997-.599 1.398-.399 2.896-.898 4.294-1.298 1.399-.499.899-2.696-.499-2.196z"/>
    <path fill="#DF357F" d="M230.547 154.662c34.755-.998 46.041 53.518 46.141 54.217.699 8.487-12.984 19.969-38.151 21.666-1.099-5.491-3.695-18.871-4.694-24.362 6.991-2.297 4.295-2.397 10.986-4.194-3.296-9.385-2.097-3.794-6.691-14.078"/>
    <path fill="#333" d="M230.546 155.76c8.789-.199 16.878 3.495 23.17 9.486 6.092 5.891 10.586 13.279 14.182 20.868 2.796 5.99 4.993 12.181 6.691 18.471.399 1.398.699 2.796.999 4.194.099.499 0-.3 0 .1 0 .699 0 1.298-.2 1.997-.3 1.597-1.099 2.995-1.998 4.293-2.596 3.594-6.591 6.19-10.486 8.187-5.792 2.896-12.184 4.493-18.576 5.392-1.897.3-3.895.499-5.792.599.399.3.699.599 1.098.799-1.598-8.088-3.096-16.275-4.694-24.363-.299.5-.499.899-.799 1.398 1.998-.699 3.895-1.398 5.693-2.396 1.698-.899 3.395-1.398 5.293-1.897.599-.1.999-.799.799-1.398-.799-2.296-1.598-4.793-2.996-6.889-1.498-2.397-2.697-4.793-3.795-7.389-.599-1.298-2.497-.2-1.898 1.098 1.099 2.496 2.297 4.993 3.795 7.289 1.299 1.997 1.998 4.293 2.797 6.49.299-.499.499-.899.799-1.398-1.898.499-3.795 1.099-5.493 1.997-1.798.899-3.596 1.598-5.493 2.297-.599.199-.899.798-.799 1.397 1.598 8.088 3.096 16.275 4.694 24.363.1.499.599.899 1.098.799 7.191-.499 14.482-1.797 21.273-4.393 4.794-1.898 9.488-4.394 13.183-7.988 2.497-2.496 4.694-5.791 4.893-9.386.1-1.298-.299-2.596-.599-3.794-1.498-6.091-3.495-12.081-5.992-17.872-3.396-8.088-7.79-15.876-13.782-22.266-6.092-6.59-14.082-11.383-23.17-12.181-1.199-.1-2.397-.1-3.695-.1-1.598 0-1.598 2.196-.2 2.196z"/>
    <path fill="#fff" d="M199.488 223.157c4.594-8.487 10.386-16.375 17.078-23.564.399-.399.899-.899.998-1.498.1-.499-.099-.998-.299-1.497-.999-2.596-2.797-4.893-5.094-6.69 2.098-.1 4.295-.1 6.392-.2 2.896-11.882 8.489-23.164 16.179-32.849-2.996-1.598-6.292-2.696-9.787-3.195 0 0-24.568 25.96-25.467 69.493z"/>
    <path fill="#333" d="M200.485 223.756c3.595-6.59 7.79-12.781 12.584-18.472 1.198-1.398 2.397-2.796 3.695-4.193 1.098-1.099 2.097-2.197 1.897-3.795-.499-3.195-3.295-6.19-5.692-8.187-.3.599-.5 1.298-.799 1.897 2.097-.1 4.294-.1 6.392-.2.499 0 .998-.299 1.098-.798 2.996-11.782 8.389-22.865 15.88-32.45.399-.5.499-1.398-.2-1.798-2.097-1.098-4.394-2.096-6.691-2.695-1.099-.3-3.396-1.199-4.395-.3-.399.3-.699.799-.999 1.098-1.997 2.397-3.894 4.893-5.592 7.489-6.791 10.184-11.885 21.467-15.081 33.348-2.496 9.286-3.895 18.871-4.094 28.457 0 1.398 2.197 1.398 2.197 0 .299-14.378 3.295-28.756 8.888-42.036 3.496-8.187 7.89-16.175 13.383-23.264.899-1.198 1.897-2.396 2.896-3.494-.399.099-.699.199-1.098.299 3.295.499 6.491 1.498 9.487 3.095-.1-.599-.199-1.198-.199-1.797-7.79 9.885-13.383 21.167-16.479 33.349.399-.3.699-.599 1.098-.799-2.097.1-4.294.1-6.391.2-.899 0-1.598 1.298-.799 1.897 1.298.998 2.397 2.097 3.295 3.494.799 1.099 2.298 3.096 1.399 4.394s-2.197 2.396-3.196 3.594l-3.296 3.894c-4.095 5.192-7.79 10.684-10.986 16.575-.899 1.298 1.099 2.496 1.798 1.198zM222.157 258.502v-21.067l-1.498 1.497h29.462l-1.499-1.497v21.067l1.499-1.497h-29.462c-1.898 0-1.898 2.995 0 2.995h29.462c.799 0 1.498-.699 1.498-1.498v-21.067c0-.799-.699-1.498-1.498-1.498h-29.462c-.799 0-1.498.699-1.498 1.498v21.067c0 1.997 2.996 1.997 2.996 0z"/>
    <path fill="#DF357F" d="M170.524 186.014c-1.598 3.694-14.981 23.464-18.976 23.663-2.996.2-5.692-1.497-8.189-3.195-11.785-7.987-22.671-17.473-32.358-27.957l10.586-8.387c1.398-1.198 3.096-2.396 4.894-1.997.699.2 17.078 3.595 22.571 7.189"/>
    <path fill="#333" d="M169.525 185.515c-1.298 2.895-3.296 5.591-4.994 8.187-2.496 3.694-5.093 7.289-8.089 10.584-1.099 1.298-2.197 2.496-3.595 3.594-.4.3-.999.699-1.199.699-.899.3-2.896-.2-4.095-.799-3.195-1.497-5.992-3.794-8.788-5.791-3.096-2.196-5.992-4.593-8.889-6.989-6.391-5.292-12.483-11.083-18.076-17.273v1.597c3.495-2.796 6.891-5.491 10.386-8.287 1.199-.899 2.497-2.097 4.095-1.797.699.099 1.298.299 1.997.399 3.196.699 6.492 1.598 9.688 2.496 3.595 1.098 7.49 2.097 10.586 4.194 1.199.798 2.397-1.198 1.099-1.897-2.996-1.897-6.492-2.996-9.788-3.994-3.395-1.099-6.891-1.897-10.386-2.796-.799-.2-1.698-.399-2.497-.599-2.097-.399-3.895.499-5.493 1.697-1.797 1.398-3.495 2.796-5.293 4.194l-5.992 4.793c-.499.399-.4 1.198 0 1.597 5.293 5.791 10.886 11.183 16.878 16.175 2.896 2.496 5.892 4.793 8.988 7.089 2.996 2.297 6.092 4.693 9.488 6.49 2.097 1.099 5.093 2.397 7.39 1.298 1.399-.699 2.497-1.797 3.596-2.895 3.196-3.295 5.992-6.989 8.589-10.784 2.297-3.195 4.793-6.589 6.391-10.184.5-1.198-1.398-2.296-1.997-.998z"/>
    <path fill="#fff" d="M42.39 232.842c-.698-2.297-.399-4.793 1-6.79.499-.799 1.298-1.597 1.298-2.496.1-.998-.7-1.897-1.099-2.796-1.398-3.195 1.099-6.789 3.995-8.586.6-.3 1.199-.699 1.298-1.298.1-.4 0-.799 0-1.099-.2-1.997.8-3.894 2.098-5.391 1.398-1.398 7.39-1.398 8.689 0 1.398 1.397 2.297 3.394 2.097 5.391 0 .4-.1.799 0 1.099.2.599.799.998 1.298 1.298 2.896 1.797 5.393 5.391 3.995 8.586-.4.899-1.099 1.798-1.099 2.796.1.999.8 1.697 1.299 2.496 1.298 1.997 1.698 4.493.998 6.79-.499 1.398-1.298 2.696-1.198 4.193.2 1.798 1.997 3.495 1.398 5.192-.6 1.897-26.066 1.897-26.665 0-.5-1.797 1.198-3.394 1.398-5.192.5-1.497-.4-2.795-.8-4.193z"/>
    <path fill="#333" d="M43.489 232.542c-.4-1.298-.4-2.596-.1-3.894.4-1.298 1.198-2.196 1.897-3.395.5-.898.7-1.897.4-2.995-.4-1.198-1.299-2.197-1.299-3.495 0-2.596 2.098-4.593 4.095-5.891.799-.499 1.498-1.098 1.598-2.096.1-.599-.1-1.099 0-1.698 0-.798.2-1.597.6-2.296.399-.799.898-1.698 1.697-1.997.799-.3 1.798-.399 2.597-.399 1.697-.1 3.495 0 4.594 1.397.699.999 1.298 2.197 1.198 3.495 0 1.198-.2 2.197.799 3.095.799.799 1.898 1.298 2.697 2.097.898.899 1.697 1.997 1.997 3.295.7 2.496-1.898 4.293-1.099 6.79.3.998 1.199 1.797 1.698 2.795.6 1.198.899 2.596.7 3.994-.3 2.496-2.098 4.393-1.2 6.989.3.999 1 1.897 1.2 2.896v.399c-.1.4-.1.499 0 .3l.299-.4c0 .1-.4.2-.1.1-1.997.599-4.095.699-6.192.799-3.196.2-6.392.2-9.488.1-2.696-.1-5.592-.1-8.289-.699-.2 0-.4-.1-.6-.2-.299-.1-.199-.1-.199-.1l-.2-.099s.5.399.3.499c-.2 0 .3-1.598.3-1.698.499-1.198 1.198-2.296 1.098-3.594.2-1.498-.6-2.796-.998-4.094-.5-1.398-2.697-.799-2.198.599.5 1.298 1.399 2.796.999 4.194-.3 1.298-1.198 2.296-1.398 3.594-.2 1.298.2 2.297 1.398 2.796 2.297.799 4.993.799 7.39.899 3.496.199 7.091.199 10.687 0 2.496-.1 5.393-.1 7.79-.899 1.098-.399 1.697-.998 1.797-2.197 0-1.098-.5-2.096-.998-3.195-.7-1.497-.4-2.596.2-4.193 1.098-2.696 1.198-5.492-.2-8.088-.6-1.198-1.898-2.097-1.399-3.494.5-1.298 1.199-2.297 1.199-3.695.1-2.596-1.598-5.192-3.496-6.789-.5-.4-.899-.699-1.398-1.099-.699-.499-.799-.599-.799-1.497.1-1.398-.2-2.696-.899-3.994-1.098-2.097-2.497-3.095-4.794-3.395-1.897-.299-3.994-.2-5.792.499-2.397.899-3.795 4.094-3.795 6.59 0 .3.2.899.1 1.198-.1.4-.5.5-.8.699-.598.4-1.198.799-1.697 1.298-1.099.999-1.997 2.197-2.597 3.595-.499 1.298-.799 2.596-.499 3.994.3 1.497 1.898 2.995.899 4.493-.899 1.298-1.698 2.496-1.998 3.994-.3 1.597-.3 3.195.2 4.692.3 1.398 2.497.799 2.098-.599z"/>
    <path fill="#DF357F" stroke="#333" stroke-miterlimit="10" stroke-width="2" d="M64.262 239.232c-.9-2.796-.5-5.991 1.198-8.487.7-.998 1.598-1.997 1.698-3.195.1-1.298-.8-2.396-1.298-3.495-1.698-3.994 1.398-8.487 4.993-10.683.7-.4 1.498-.899 1.698-1.698.1-.499 0-.898 0-1.398-.3-2.496.899-4.892 2.696-6.689 1.698-1.797 3.296-2.996 5.393-4.294 2.098 1.199 3.696 2.497 5.393 4.294 1.698 1.797 2.897 4.193 2.697 6.689 0 .5-.1.899 0 1.398.2.799.999 1.198 1.698 1.698 3.695 2.296 6.691 6.789 4.993 10.683-.5 1.198-1.398 2.297-1.298 3.495.1 1.198.999 2.197 1.698 3.195 1.698 2.396 2.097 5.691 1.198 8.487-.599 1.697-1.598 3.395-1.498 5.192.2 2.296 2.397 4.293 1.798 6.49-.7 2.296-32.458 2.296-33.157 0-.7-2.197 1.498-4.194 1.797-6.49 0-1.897-1.098-3.495-1.697-5.192z"/>
    <path fill="#333" d="M71.951 237.834c2.996 1.298 5.593 3.195 7.79 5.492-.1-.3-.2-.5-.3-.799v15.676c0 1.398 2.198 1.497 2.198 0v-7.888-5.492c0-.798.1-1.797 0-2.596-.1-.798-.999-1.398-1.598-1.897l-2.098-1.797c-1.498-1.098-3.096-2.097-4.893-2.896-1.199-.299-2.397 1.598-1.099 2.197z"/>
    <path fill="#333" d="M81.639 243.026c.599-4.094.699-8.187.4-12.381 0-.599-.5-1.098-1.1-1.098-.599 0-1.198.499-1.098 1.098.3 3.894.2 7.888-.4 11.782-.1.599.1 1.198.8 1.398.499.1 1.298-.2 1.398-.799zM58.569 251.912c-.3-10.384-.4-20.768-.7-31.152 0-1.398-2.296-1.497-2.196 0 .3 10.384.4 20.768.699 31.152 0 1.498 2.297 1.498 2.197 0z"/>
    <path fill="#333" d="M57.37 229.846c-1.198-.699-2.297-1.497-3.495-2.096-1.298-.699-2.597-1.099-3.995-1.498-.6-.2-1.198.2-1.398.799-.1.599.2 1.198.799 1.398.799.199 1.498.399 2.297.698.1 0 .2.1.2.1.3.1-.2-.1 0 0 .1.1.2.1.3.2.199.1.498.2.698.399 1.199.699 2.297 1.398 3.496 2.097.5.3 1.198.1 1.498-.399.3-.699.1-1.398-.4-1.698z"/>
</svg>
