<svg width="76" height="166" fill="none" xmlns="http://www.w3.org/2000/svg">
    <path d="M61.21 141.177c.708-2.166.354-4.626-.943-6.5-.531-.761-1.239-1.464-1.298-2.401-.059-.995.649-1.815 1.003-2.693 1.297-3.045-1.062-6.442-3.834-8.199-.53-.351-1.12-.702-1.298-1.288-.118-.351 0-.703 0-1.054.177-1.874-.707-3.748-2.064-5.095-1.298-1.346-7.078-1.346-8.375 0-1.298 1.347-2.241 3.221-2.064 5.095.059.351.118.703 0 1.054-.177.586-.767.937-1.298 1.288-2.831 1.757-5.19 5.154-3.834 8.199.413.878 1.062 1.756 1.003 2.693-.059.937-.767 1.64-1.297 2.401-1.298 1.874-1.652 4.334-.944 6.5.413 1.289 1.238 2.577 1.12 3.982-.177 1.757-1.887 3.338-1.356 4.978.53 1.757 25.007 1.757 25.597 0 .531-1.698-1.18-3.221-1.356-4.978 0-1.405.825-2.693 1.238-3.982z" fill="#DF357F"/>
    <path d="M61.859 141.354c.767-2.518.295-5.212-1.298-7.379-.353-.468-.884-1.054-.884-1.698-.06-.703.413-1.347.766-1.991.531-1.054.767-2.167.59-3.338-.354-2.342-2.005-4.392-3.834-5.738-.471-.352-1.18-.645-1.533-1.113-.354-.527 0-1.523-.059-2.167-.118-1.288-.649-2.518-1.416-3.572-.53-.703-1.061-1.288-1.946-1.64-.825-.292-1.71-.409-2.595-.527-1.651-.117-3.716-.058-5.131.82-.885.586-1.593 1.698-2.064 2.635-.236.527-.472 1.113-.59 1.699-.118.702-.06 1.405 0 2.108 0 .761-.65.995-1.18 1.347-.53.351-1.062.761-1.533 1.171-.885.82-1.652 1.757-2.124 2.869-.471 1.054-.766 2.167-.648 3.338.058.527.176 1.054.412 1.581.295.644.708 1.23.885 1.874.354 1.288-1.062 2.401-1.592 3.455a8.097 8.097 0 0 0-.885 3.689c0 1.406.413 2.577.944 3.865.236.586.53 1.23.53 1.933.06.702-.236 1.346-.53 1.991-.531 1.112-1.77 3.396-.295 4.333.649.41 1.474.468 2.241.586 1.297.175 2.595.292 3.834.409 3.244.176 6.547.235 9.79.176 2.713-.058 5.544-.117 8.258-.644.648-.117 1.474-.234 1.946-.703.53-.527.413-1.464.295-2.049-.295-1.172-1.062-2.108-1.298-3.28-.413-1.405.472-2.81.944-4.04.295-.82-1.003-1.171-1.298-.352-.413 1.23-1.061 2.343-1.18 3.631-.058 1.113.473 2.167.944 3.162.236.469.472.996.531 1.523v.41c0 .293-.118.058 0 .058s0-.058 0 0c0 0 .118-.058 0 0-.059 0-.118.059-.118.059.177-.059-.236.058-.295.117-2.064.644-4.364.644-6.487.703-3.067.117-6.193.175-9.26.058-2.36-.058-4.837-.117-7.196-.644-.295-.058-.649-.117-.944-.234.177.058-.117-.117-.176-.117.294-.117-.06.117 0 0 0-.059.058.41.058 0-.058-1.171.65-2.167 1.062-3.221.472-1.171.472-2.284.06-3.455-.414-1.23-1.004-2.284-1.122-3.631a6.493 6.493 0 0 1 .708-3.63c.531-1.054 1.534-1.933 1.77-3.162.236-1.23-.472-2.167-1.003-3.221-1.003-2.167.236-4.509 1.77-6.09.412-.41.884-.82 1.415-1.172.472-.292.944-.585 1.357-.936 1.002-.937.471-2.109.59-3.28.176-1.288.825-2.576 1.769-3.455.471-.468 1.12-.644 1.71-.761 1.593-.293 3.539-.293 5.072.234.826.293 1.357 1.054 1.77 1.816a5.29 5.29 0 0 1 .708 1.815c.117.703.059 1.288 0 1.991-.06 1.288.884 1.874 1.828 2.518 1.003.644 1.887 1.464 2.536 2.459.649.879 1.12 1.933 1.18 3.104.059 1.288-.59 2.167-1.062 3.338-.472 1.112-.354 2.108.295 3.103.708 1.113 1.474 2.05 1.77 3.338a6.567 6.567 0 0 1-.178 3.69c-.117.702 1.121 1.054 1.416.234z" fill="#333"/>
    <path d="M43.161 147.209c.885-2.694.413-5.739-1.18-8.081-.648-.937-1.533-1.874-1.592-2.987-.059-1.229.826-2.283 1.298-3.396 1.651-3.748-1.298-8.081-4.836-10.248-.65-.41-1.416-.878-1.593-1.581-.118-.41 0-.878 0-1.347.236-2.342-.885-4.685-2.536-6.383-1.652-1.698-3.185-2.928-5.25-4.099-2.064 1.171-3.597 2.342-5.248 4.099-1.652 1.698-2.773 4.041-2.537 6.383.06.469.118.879 0 1.347-.177.761-.943 1.171-1.592 1.581-3.48 2.167-6.429 6.442-4.836 10.248.471 1.113 1.356 2.167 1.297 3.396-.059 1.172-.944 2.05-1.592 2.987-1.593 2.342-2.065 5.387-1.18 8.081.53 1.64 1.534 3.221 1.416 4.919-.236 2.167-2.36 4.099-1.71 6.207.648 2.226 31.2 2.226 31.848 0 .65-2.108-1.474-4.04-1.71-6.207 0-1.698 1.003-3.279 1.533-4.919z" fill="#fff"/>
    <path d="M43.81 147.385c.944-2.928.413-6.207-1.356-8.783-.413-.586-.885-1.113-1.18-1.757-.353-.879-.117-1.64.295-2.46.65-1.288 1.239-2.459 1.239-3.923 0-2.87-1.77-5.505-3.834-7.32a15.01 15.01 0 0 0-1.533-1.171c-.708-.469-1.534-.82-1.534-1.816 0-.761.118-1.464.06-2.225-.119-.761-.296-1.464-.65-2.166-1.356-3.163-4.482-5.564-7.431-7.262a.644.644 0 0 0-.649 0c-3.833 2.225-8.493 5.973-8.08 10.892.059.703.236 1.288-.295 1.816-.413.409-1.003.644-1.474.995a13.306 13.306 0 0 0-2.537 2.284c-1.356 1.581-2.418 3.572-2.536 5.739-.059 1.054.236 2.108.708 3.045.53 1.112 1.415 2.225.826 3.455-.472 1.112-1.416 1.932-1.947 3.045-.53 1.054-.825 2.166-1.002 3.338-.118 1.171-.06 2.342.236 3.455.295 1.229.943 2.342 1.297 3.572.413 1.229.236 2.342-.295 3.513-.412.937-1.002 1.874-1.18 2.928-.176.937-.176 2.05.768 2.577.59.293 1.297.468 1.946.585 2.3.41 4.66.527 6.96.644 5.78.293 11.619.293 17.399-.234 1.71-.175 3.715-.234 5.249-.937.884-.41 1.061-1.229.944-2.166-.236-2.226-2.242-3.982-1.711-6.325.295-1.054.885-2.166 1.298-3.338.294-.819-1.003-1.171-1.298-.351-.767 2.225-1.946 4.216-1.062 6.559.354.937.885 1.815 1.239 2.81.177.41.295.879.236 1.347 0 .117-.118.352-.06.41 0 0 .06-.175.06-.117 0 0-.118.059.059 0-.06 0-.06.059-.118.059-.06 0-.06.058-.118.058-.177.059.059 0-.059.059-.295.117-.59.175-.826.234-.825.176-1.651.293-2.536.41-5.367.586-10.852.586-16.22.468-2.477-.058-4.954-.175-7.43-.468-.827-.117-1.652-.234-2.42-.41-.117-.059-.294-.059-.412-.117-.059 0-.413-.176-.236-.059-.118-.058-.177-.058-.236-.117-.118-.058.06 0 0 0 0 0-.059 0-.059-.058.06-.117 0 .117.06.058 0 0 0 .176 0 0 0-.234-.06-.468-.06-.702.06-.528.236-.996.413-1.464.413-.937.944-1.816 1.239-2.811.707-2.401-.826-4.392-1.416-6.676a8.63 8.63 0 0 1 1.12-6.793c.59-.937 1.416-1.698 1.711-2.811.295-1.054-.059-2.049-.53-2.986-.531-.996-1.062-1.933-1.121-3.104-.06-1.054.236-2.049.649-2.986.943-1.991 2.595-3.572 4.482-4.802.826-.527 1.652-1.171 1.77-2.225.058-.586-.06-1.172-.119-1.757 0-.586.118-1.171.236-1.757.65-2.284 2.478-4.099 4.306-5.563.885-.761 1.887-1.347 2.89-1.933h-.649c2.536 1.464 5.25 3.514 6.665 6.149.354.644.59 1.347.708 2.05.177.82.059 1.522 0 2.342-.06 1.523 1.002 2.225 2.182 2.928 2.3 1.464 4.423 3.924 4.718 6.734.177 1.523-.413 2.636-1.061 3.924-.65 1.23-.826 2.459-.177 3.748.354.702.944 1.346 1.356 1.991a8.074 8.074 0 0 1 1.062 2.283c.472 1.699.472 3.397-.059 5.095-.413.82.885 1.171 1.12.351z" fill="#333"/>
    <path d="M34.905 144.399a23.37 23.37 0 0 0-7.55 5.27c-.413.41-.472.644-.472 1.113v14.581c0 .82 1.298.878 1.298 0V150.372c-.06.176-.118.293-.177.468 2.123-2.283 4.66-4.099 7.55-5.328.825-.293.117-1.464-.65-1.113z" fill="#333"/>
    <path d="M28.24 150.372a52.221 52.221 0 0 1-.354-11.361c.059-.819-1.298-.819-1.298 0-.294 3.924-.118 7.789.413 11.712.06.82 1.357.469 1.239-.351zM47.409 159.331c.295-8.022.354-16.045.53-24.067.06-1.874.06-3.748.178-5.622 0-.82-1.298-.82-1.298 0-.295 8.023-.354 16.045-.53 24.068-.06 1.874-.06 3.748-.178 5.621-.059.879 1.239.879 1.298 0z" fill="#333"/>
    <path d="M47.703 139.714c3.362-1.874 6.901-3.338 10.617-4.333.826-.234.472-1.523-.354-1.289a49.266 49.266 0 0 0-10.911 4.51c-.767.409-.118 1.581.648 1.112z" fill="#333"/>
    <path d="M54.604 135.029c-.53-2.049-1.002-4.04-1.533-6.09-.236-.82-1.475-.468-1.298.352.53 2.049 1.003 4.04 1.534 6.09.176.82 1.474.468 1.297-.352z" fill="#333"/>
    <path d="M71.413 105.925c1.694 0 3.067-1.363 3.067-3.045s-1.374-3.045-3.067-3.045c-1.694 0-3.067 1.363-3.067 3.045s1.373 3.045 3.067 3.045z" fill="#fff"/>
    <path d="M68.995 102.881c0-.995.649-1.932 1.534-2.225 1.002-.352 2.064-.059 2.772.761.59.761.707 1.874.177 2.694-.531.82-1.534 1.288-2.477 1.112a2.342 2.342 0 0 1-2.006-2.342c0-.82-1.356-.878-1.297 0 0 1.581 1.002 2.928 2.477 3.514 1.415.527 3.185.058 4.128-1.113 1.003-1.23 1.18-2.928.354-4.275-.825-1.347-2.418-1.99-3.951-1.757-1.77.293-3.008 1.933-3.008 3.631-.06.878 1.297.878 1.297 0z" fill="#333"/>
    <path d="M61.858 106.101H39.505c-1.71 0-3.126-1.406-3.126-3.104 0-1.698 1.415-3.104 3.126-3.104h22.353c1.71 0 3.126 1.406 3.126 3.104 0 1.698-1.415 3.104-3.126 3.104z" fill="#fff"/>
    <path d="M61.859 105.399H40.036c-.59 0-1.18 0-1.71-.352-1.593-.937-1.593-3.279 0-4.216 1.002-.586 2.477-.351 3.597-.351h20.054c1.828.058 3.067 1.991 2.182 3.63-.59.82-1.416 1.289-2.3 1.289-.826 0-.885 1.346 0 1.288 1.887-.059 3.48-1.406 3.774-3.279.236-1.757-.884-3.514-2.595-4.1-1.18-.41-2.713-.175-3.951-.175H43.87c-1.416 0-2.831-.059-4.247 0-1.415.058-2.772.761-3.42 1.991-.826 1.581-.414 3.63 1.061 4.743 1.298.996 2.949.82 4.423.82h7.078c4.306 0 8.611.117 12.917 0h.236c.766.058.766-1.288-.06-1.288z" fill="#333"/>
    <path d="M10.132 76.645h29.962c1.238 0 2.241.996 2.241 2.226a2.232 2.232 0 0 1-2.241 2.225H37.97c-1.297.176-2.3 1.054-2.3 2.167 0 1.23 1.18 2.225 2.654 2.225h6.37c1.239 0 2.241.995 2.241 2.225s-1.002 2.167-2.24 2.167H18.211a2.232 2.232 0 0 1-2.241-2.225 2.232 2.232 0 0 1 2.241-2.226h.472c1.474 0 2.654-.995 2.654-2.225 0-1.112-1.003-2.05-2.3-2.167h-8.906a2.232 2.232 0 0 1-2.241-2.225c.059-1.171 1.061-2.166 2.24-2.166z" fill="#fff"/>
    <path d="M10.133 77.29H40.153c1.592.117 2.182 2.284.648 2.987-.767.351-1.887.058-2.654.117-1.416.058-2.772 1.054-2.949 2.46-.236 1.463.885 2.693 2.3 3.103.708.176 1.475.117 2.182.117 1.71 0 3.421-.117 5.132 0 1.828.117 2.123 2.81.236 3.104-.236.058-.472 0-.708 0h-3.834c-7.313 0-14.627.058-21.94 0-.65 0-1.239-.176-1.593-.762-.413-.644-.236-1.522.413-1.99.59-.469 1.357-.293 2.005-.352 1.416-.234 2.713-1.288 2.713-2.81 0-1.465-1.356-2.636-2.772-2.812-1.533-.175-3.184 0-4.718 0h-3.067c-.472 0-1.062.059-1.533 0-1.947-.35-1.71-3.045.117-3.162.826-.058.885-1.347 0-1.288-1.65.059-3.007 1.405-2.89 3.045.118 1.523 1.416 2.635 2.89 2.694 1.71.058 3.421 0 5.132 0h3.067c.826 0 1.651.058 2.123.82.472.702.118 1.463-.53 1.932-.65.41-1.357.293-2.065.351-1.593.235-2.654 1.64-2.477 3.221.177 1.464 1.415 2.46 2.83 2.518H42.514c.825 0 1.592.059 2.418 0 1.651-.117 2.89-1.64 2.654-3.22-.177-1.465-1.416-2.46-2.89-2.519-1.829-.058-3.716 0-5.544 0-.944 0-2.006 0-2.536-.878-.472-.703-.118-1.523.59-1.932.53-.293 1.002-.293 1.592-.293 1.18 0 2.3.117 3.244-.703 1.238-1.054 1.297-3.045.118-4.158-.944-.937-2.065-.82-3.244-.82H10.133c-.826-.058-.826 1.23 0 1.23z" fill="#333"/>
    <path d="M3.055 81.096a2.233 2.233 0 0 0 2.241-2.225 2.233 2.233 0 0 0-2.241-2.225A2.233 2.233 0 0 0 .813 78.87a2.233 2.233 0 0 0 2.242 2.225z" fill="#fff"/>
    <path d="M5.945 78.871c0-1.23-.766-2.283-1.887-2.693a2.95 2.95 0 0 0-3.185.82c-.767.936-.944 2.283-.295 3.337.649 1.054 1.829 1.582 3.067 1.347 1.298-.234 2.241-1.522 2.3-2.81 0-.352-.295-.703-.648-.645a.652.652 0 0 0-.65.644v.176c0 .117 0 .059 0 0 0 .117-.058.176-.058.293 0 .058-.06.117-.06.175 0 0 .06-.117 0 0-.058.118-.117.176-.176.293-.118.176.059-.058 0 0l-.118.117c-.06.059-.236.176-.118.118-.059.058-.177.117-.236.175-.059 0-.059.059-.118.059-.059.058-.059.058 0 0 0 0-.059 0-.059.058-.118.059-.177.059-.295.059H2.878c-.118 0 .177.058-.059 0-.059 0-.118 0-.177-.059-.059 0-.117-.058-.176-.058 0 0-.118-.059 0 0-.06-.059-.177-.059-.236-.117-.06 0-.06-.059-.118-.059-.06-.058.118.117 0 0-.06-.058-.177-.176-.236-.234.059.117 0 0 0 0-.06-.059-.06-.117-.118-.117 0-.059-.118-.293-.118-.176-.06-.117-.06-.176-.118-.293v-.117c0-.058 0-.058 0 0v-.41s.059-.234 0-.058v-.117c0-.117.059-.176.059-.293.059-.176-.06.117 0-.059 0-.058.059-.117.059-.175 0-.059.059-.059.059-.118 0 0 .118-.117 0 0a.808.808 0 0 0 .177-.234l.059-.058c-.06.058.059-.059.059-.059.118-.058.177-.117.295-.176 0 0-.118.059 0 0 .059 0 .118-.058.177-.058h.117s.177-.059.118 0h.532c.117 0 .235.058.353.117.177.059-.059-.059.06 0 .058.059.117.059.176.117.059 0 .059.059.118.059s.059.058.118.058c-.059-.058-.059-.058 0 0l.177.176c.118.117-.06-.117.059.058.059.059.059.118.118.118.059.058.059.117.059.175.059.117 0-.058 0 .059.059.117.059.234.118.351 0 0 0 .117 0 0v.234c0 .352.295.703.649.645.412 0 .707-.293.707-.645z" fill="#333"/>
    <g opacity=".5" fill="#fff">
        <path opacity=".5" d="M11.685 3.824a1.888 1.888 0 1 0 0-3.776 1.888 1.888 0 0 0 0 3.776zM11.685 11.553a1.888 1.888 0 1 0 0-3.776 1.888 1.888 0 0 0 0 3.776zM11.685 19.282a1.888 1.888 0 1 0 0-3.776 1.888 1.888 0 0 0 0 3.776zM11.685 27.011a1.888 1.888 0 1 0 0-3.776 1.888 1.888 0 0 0 0 3.776zM11.685 34.74a1.888 1.888 0 1 0 0-3.776 1.888 1.888 0 0 0 0 3.776zM19.59 3.824a1.888 1.888 0 1 0 0-3.776 1.888 1.888 0 0 0 0 3.776zM19.59 11.553a1.888 1.888 0 1 0 0-3.776 1.888 1.888 0 0 0 0 3.776zM19.59 19.282a1.888 1.888 0 1 0 0-3.776 1.888 1.888 0 0 0 0 3.776zM19.59 27.011a1.888 1.888 0 1 0 0-3.776 1.888 1.888 0 0 0 0 3.776zM19.59 34.74a1.888 1.888 0 1 0 0-3.776 1.888 1.888 0 0 0 0 3.776zM27.438 3.824a1.888 1.888 0 1 0 0-3.776 1.888 1.888 0 0 0 0 3.776zM27.438 11.553a1.888 1.888 0 1 0 0-3.776 1.888 1.888 0 0 0 0 3.776zM27.438 19.282a1.888 1.888 0 1 0 0-3.776 1.888 1.888 0 0 0 0 3.776zM27.438 27.011a1.888 1.888 0 1 0 0-3.776 1.888 1.888 0 0 0 0 3.776zM27.438 34.74a1.888 1.888 0 1 0 0-3.776 1.888 1.888 0 0 0 0 3.776zM35.344 3.824a1.888 1.888 0 1 0 0-3.776 1.888 1.888 0 0 0 0 3.776zM35.344 11.553a1.888 1.888 0 1 0 0-3.776 1.888 1.888 0 0 0 0 3.776zM35.344 19.282a1.888 1.888 0 1 0 0-3.776 1.888 1.888 0 0 0 0 3.776zM35.344 27.011a1.888 1.888 0 1 0 0-3.776 1.888 1.888 0 0 0 0 3.776zM35.344 34.74a1.888 1.888 0 1 0 0-3.776 1.888 1.888 0 0 0 0 3.776zM43.25 3.824a1.888 1.888 0 1 0 0-3.776 1.888 1.888 0 0 0 0 3.776zM43.25 11.553a1.888 1.888 0 1 0 0-3.776 1.888 1.888 0 0 0 0 3.776zM43.25 19.282a1.888 1.888 0 1 0 0-3.776 1.888 1.888 0 0 0 0 3.776zM43.25 27.011a1.888 1.888 0 1 0 0-3.776 1.888 1.888 0 0 0 0 3.776zM43.25 34.74a1.888 1.888 0 1 0 0-3.776 1.888 1.888 0 0 0 0 3.776z"/>
    </g>
</svg>
