<svg xmlns="http://www.w3.org/2000/svg" width="360" height="200" fill="none" viewBox="0 0 360 200">
    <mask id="102dlkzlga" width="360" height="200" x="0" y="0" maskUnits="userSpaceOnUse">
        <path fill="#F0D227" d="M0 0H360V200H0z"/>
    </mask>
    <g mask="url(#102dlkzlga)">
        <path fill="#F0D227" d="M0 0H360V200H0z"/>
        <g opacity=".5">
            <path fill="#fff" d="M286.2 27.4c1.767 0 3.2-1.433 3.2-3.2 0-1.767-1.433-3.2-3.2-3.2-1.767 0-3.2 1.433-3.2 3.2 0 1.767 1.433 3.2 3.2 3.2zM286.2 40.5c1.767 0 3.2-1.433 3.2-3.2 0-1.767-1.433-3.2-3.2-3.2-1.767 0-3.2 1.433-3.2 3.2 0 1.767 1.433 3.2 3.2 3.2zM286.2 53.6c1.767 0 3.2-1.433 3.2-3.2 0-1.767-1.433-3.2-3.2-3.2-1.767 0-3.2 1.433-3.2 3.2 0 1.767 1.433 3.2 3.2 3.2zM286.2 66.7c1.767 0 3.2-1.433 3.2-3.2 0-1.767-1.433-3.2-3.2-3.2-1.767 0-3.2 1.433-3.2 3.2 0 1.767 1.433 3.2 3.2 3.2zM286.2 79.8c1.767 0 3.2-1.433 3.2-3.2 0-1.767-1.433-3.2-3.2-3.2-1.767 0-3.2 1.433-3.2 3.2 0 1.767 1.433 3.2 3.2 3.2zM299.5 27.4c1.767 0 3.2-1.433 3.2-3.2 0-1.767-1.433-3.2-3.2-3.2-1.768 0-3.2 1.433-3.2 3.2 0 1.767 1.432 3.2 3.2 3.2zM299.5 40.5c1.767 0 3.2-1.433 3.2-3.2 0-1.767-1.433-3.2-3.2-3.2-1.768 0-3.2 1.433-3.2 3.2 0 1.767 1.432 3.2 3.2 3.2zM299.5 53.6c1.767 0 3.2-1.433 3.2-3.2 0-1.767-1.433-3.2-3.2-3.2-1.768 0-3.2 1.433-3.2 3.2 0 1.767 1.432 3.2 3.2 3.2zM299.5 66.7c1.767 0 3.2-1.433 3.2-3.2 0-1.767-1.433-3.2-3.2-3.2-1.768 0-3.2 1.433-3.2 3.2 0 1.767 1.432 3.2 3.2 3.2zM299.5 79.8c1.767 0 3.2-1.433 3.2-3.2 0-1.767-1.433-3.2-3.2-3.2-1.768 0-3.2 1.433-3.2 3.2 0 1.767 1.432 3.2 3.2 3.2zM312.9 27.4c1.768 0 3.2-1.433 3.2-3.2 0-1.767-1.432-3.2-3.2-3.2-1.767 0-3.2 1.433-3.2 3.2 0 1.767 1.433 3.2 3.2 3.2zM312.9 40.5c1.768 0 3.2-1.433 3.2-3.2 0-1.767-1.432-3.2-3.2-3.2-1.767 0-3.2 1.433-3.2 3.2 0 1.767 1.433 3.2 3.2 3.2zM312.9 53.6c1.768 0 3.2-1.433 3.2-3.2 0-1.767-1.432-3.2-3.2-3.2-1.767 0-3.2 1.433-3.2 3.2 0 1.767 1.433 3.2 3.2 3.2zM312.9 66.7c1.768 0 3.2-1.433 3.2-3.2 0-1.767-1.432-3.2-3.2-3.2-1.767 0-3.2 1.433-3.2 3.2 0 1.767 1.433 3.2 3.2 3.2zM312.9 79.8c1.768 0 3.2-1.433 3.2-3.2 0-1.767-1.432-3.2-3.2-3.2-1.767 0-3.2 1.433-3.2 3.2 0 1.767 1.433 3.2 3.2 3.2zM326.3 27.4c1.767 0 3.2-1.433 3.2-3.2 0-1.767-1.433-3.2-3.2-3.2-1.768 0-3.2 1.433-3.2 3.2 0 1.767 1.432 3.2 3.2 3.2zM326.3 40.5c1.767 0 3.2-1.433 3.2-3.2 0-1.767-1.433-3.2-3.2-3.2-1.768 0-3.2 1.433-3.2 3.2 0 1.767 1.432 3.2 3.2 3.2zM326.3 53.6c1.767 0 3.2-1.433 3.2-3.2 0-1.767-1.433-3.2-3.2-3.2-1.768 0-3.2 1.433-3.2 3.2 0 1.767 1.432 3.2 3.2 3.2zM326.3 66.7c1.767 0 3.2-1.433 3.2-3.2 0-1.767-1.433-3.2-3.2-3.2-1.768 0-3.2 1.433-3.2 3.2 0 1.767 1.432 3.2 3.2 3.2zM326.3 79.8c1.767 0 3.2-1.433 3.2-3.2 0-1.767-1.433-3.2-3.2-3.2-1.768 0-3.2 1.433-3.2 3.2 0 1.767 1.432 3.2 3.2 3.2zM339.6 27.4c1.768 0 3.2-1.433 3.2-3.2 0-1.767-1.432-3.2-3.2-3.2-1.767 0-3.2 1.433-3.2 3.2 0 1.767 1.433 3.2 3.2 3.2zM339.6 40.5c1.768 0 3.2-1.433 3.2-3.2 0-1.767-1.432-3.2-3.2-3.2-1.767 0-3.2 1.433-3.2 3.2 0 1.767 1.433 3.2 3.2 3.2zM339.6 53.6c1.768 0 3.2-1.433 3.2-3.2 0-1.767-1.432-3.2-3.2-3.2-1.767 0-3.2 1.433-3.2 3.2 0 1.767 1.433 3.2 3.2 3.2zM339.6 66.7c1.768 0 3.2-1.433 3.2-3.2 0-1.767-1.432-3.2-3.2-3.2-1.767 0-3.2 1.433-3.2 3.2 0 1.767 1.433 3.2 3.2 3.2zM339.6 79.8c1.768 0 3.2-1.433 3.2-3.2 0-1.767-1.432-3.2-3.2-3.2-1.767 0-3.2 1.433-3.2 3.2 0 1.767 1.433 3.2 3.2 3.2z" opacity=".5"/>
        </g>
        <g opacity=".5">
            <path fill="#fff" d="M24.2 27.4c1.767 0 3.2-1.433 3.2-3.2 0-1.767-1.433-3.2-3.2-3.2-1.767 0-3.2 1.433-3.2 3.2 0 1.767 1.433 3.2 3.2 3.2zM24.2 40.5c1.767 0 3.2-1.433 3.2-3.2 0-1.767-1.433-3.2-3.2-3.2-1.767 0-3.2 1.433-3.2 3.2 0 1.767 1.433 3.2 3.2 3.2zM24.2 53.6c1.767 0 3.2-1.433 3.2-3.2 0-1.767-1.433-3.2-3.2-3.2-1.767 0-3.2 1.433-3.2 3.2 0 1.767 1.433 3.2 3.2 3.2zM24.2 66.7c1.767 0 3.2-1.433 3.2-3.2 0-1.767-1.433-3.2-3.2-3.2-1.767 0-3.2 1.433-3.2 3.2 0 1.767 1.433 3.2 3.2 3.2zM24.2 79.8c1.767 0 3.2-1.433 3.2-3.2 0-1.767-1.433-3.2-3.2-3.2-1.767 0-3.2 1.433-3.2 3.2 0 1.767 1.433 3.2 3.2 3.2zM37.5 27.4c1.767 0 3.2-1.433 3.2-3.2 0-1.767-1.433-3.2-3.2-3.2-1.768 0-3.2 1.433-3.2 3.2 0 1.767 1.432 3.2 3.2 3.2zM37.5 40.5c1.767 0 3.2-1.433 3.2-3.2 0-1.767-1.433-3.2-3.2-3.2-1.768 0-3.2 1.433-3.2 3.2 0 1.767 1.432 3.2 3.2 3.2zM37.5 53.6c1.767 0 3.2-1.433 3.2-3.2 0-1.767-1.433-3.2-3.2-3.2-1.768 0-3.2 1.433-3.2 3.2 0 1.767 1.432 3.2 3.2 3.2zM37.5 66.7c1.767 0 3.2-1.433 3.2-3.2 0-1.767-1.433-3.2-3.2-3.2-1.768 0-3.2 1.433-3.2 3.2 0 1.767 1.432 3.2 3.2 3.2zM37.5 79.8c1.767 0 3.2-1.433 3.2-3.2 0-1.767-1.433-3.2-3.2-3.2-1.768 0-3.2 1.433-3.2 3.2 0 1.767 1.432 3.2 3.2 3.2zM50.9 27.4c1.767 0 3.2-1.433 3.2-3.2 0-1.767-1.433-3.2-3.2-3.2-1.767 0-3.2 1.433-3.2 3.2 0 1.767 1.433 3.2 3.2 3.2zM50.9 40.5c1.767 0 3.2-1.433 3.2-3.2 0-1.767-1.433-3.2-3.2-3.2-1.767 0-3.2 1.433-3.2 3.2 0 1.767 1.433 3.2 3.2 3.2zM50.9 53.6c1.767 0 3.2-1.433 3.2-3.2 0-1.767-1.433-3.2-3.2-3.2-1.767 0-3.2 1.433-3.2 3.2 0 1.767 1.433 3.2 3.2 3.2zM50.9 66.7c1.767 0 3.2-1.433 3.2-3.2 0-1.767-1.433-3.2-3.2-3.2-1.767 0-3.2 1.433-3.2 3.2 0 1.767 1.433 3.2 3.2 3.2zM50.9 79.8c1.767 0 3.2-1.433 3.2-3.2 0-1.767-1.433-3.2-3.2-3.2-1.767 0-3.2 1.433-3.2 3.2 0 1.767 1.433 3.2 3.2 3.2zM64.3 27.4c1.767 0 3.2-1.433 3.2-3.2 0-1.767-1.433-3.2-3.2-3.2-1.768 0-3.2 1.433-3.2 3.2 0 1.767 1.432 3.2 3.2 3.2zM64.3 40.5c1.767 0 3.2-1.433 3.2-3.2 0-1.767-1.433-3.2-3.2-3.2-1.768 0-3.2 1.433-3.2 3.2 0 1.767 1.432 3.2 3.2 3.2zM64.3 53.6c1.767 0 3.2-1.433 3.2-3.2 0-1.767-1.433-3.2-3.2-3.2-1.768 0-3.2 1.433-3.2 3.2 0 1.767 1.432 3.2 3.2 3.2zM64.3 66.7c1.767 0 3.2-1.433 3.2-3.2 0-1.767-1.433-3.2-3.2-3.2-1.768 0-3.2 1.433-3.2 3.2 0 1.767 1.432 3.2 3.2 3.2zM64.3 79.8c1.767 0 3.2-1.433 3.2-3.2 0-1.767-1.433-3.2-3.2-3.2-1.768 0-3.2 1.433-3.2 3.2 0 1.767 1.432 3.2 3.2 3.2zM77.6 27.4c1.768 0 3.2-1.433 3.2-3.2 0-1.767-1.432-3.2-3.2-3.2-1.767 0-3.2 1.433-3.2 3.2 0 1.767 1.433 3.2 3.2 3.2zM77.6 40.5c1.768 0 3.2-1.433 3.2-3.2 0-1.767-1.432-3.2-3.2-3.2-1.767 0-3.2 1.433-3.2 3.2 0 1.767 1.433 3.2 3.2 3.2zM77.6 53.6c1.768 0 3.2-1.433 3.2-3.2 0-1.767-1.432-3.2-3.2-3.2-1.767 0-3.2 1.433-3.2 3.2 0 1.767 1.433 3.2 3.2 3.2zM77.6 66.7c1.768 0 3.2-1.433 3.2-3.2 0-1.767-1.432-3.2-3.2-3.2-1.767 0-3.2 1.433-3.2 3.2 0 1.767 1.433 3.2 3.2 3.2zM77.6 79.8c1.768 0 3.2-1.433 3.2-3.2 0-1.767-1.432-3.2-3.2-3.2-1.767 0-3.2 1.433-3.2 3.2 0 1.767 1.433 3.2 3.2 3.2z" opacity=".5"/>
        </g>
    </g>
</svg>
