<svg xmlns="http://www.w3.org/2000/svg" width="202" height="130" fill="none" viewBox="0 0 202 130">
    <path fill="#333" d="M94.974 26H13.026C5.817 26 0 20.18 0 13.032 0 5.82 5.817 0 13.026 0h81.948C102.183 0 108 5.82 108 13.032 107.937 20.18 102.119 26 94.974 26z"/>
    <path fill="#fff" d="M28.517 10.121c-.063 0-.063 0-.063.064v1.518c0 .38.063.76.127 1.265.063.506.19.95.316 1.518.126.57.38 1.14.632 1.709.253.569.633 1.075 1.075 1.518.127.19.253.38.253.632v.127c0 .19-.063.38-.19.57 0 .063-.063.063-.063.126-.126.19-.316.316-.569.316h-.063c-.19 0-.316-.063-.506-.253-.506-.57-.949-1.329-1.265-2.15-.316-.823-.506-1.582-.632-2.278-.127.696-.38 1.518-.759 2.404-.38.885-.885 1.581-1.517 2.214-.127.063-.253.126-.38.126h-.126c-.19 0-.316-.126-.38-.253l-.063-.063h-4.679c-.063 0-.063 0-.063.063 0 .127-.063.253-.127.38-.063.126-.253.126-.38.126h-.252c-.19 0-.38-.063-.506-.253s-.253-.316-.253-.506v-2.72h-.063c-.127.127-.253.19-.38.19-.126 0-.252-.127-.379-.253 0-.063-.063-.127-.063-.127-.127-.19-.19-.38-.19-.632 0-.253.064-.507.253-.696.57-.76 1.012-1.708 1.328-2.72v-.064l-.063-.063h-.253c-.253 0-.443-.063-.632-.253-.19-.19-.253-.38-.253-.633V9.805c0-.253.063-.443.253-.632.19-.19.379-.253.632-.253h1.454c.253 0 .443.063.633.253s.252.38.252.632v1.265c0 .253-.063.443-.252.633-.19.19-.38.253-.633.253h-.442.063c.19.063.316.19.442.316.064.127.064.19.064.317 0 .063 0 .126-.064.253 0 .063 0 .063.064.063h1.011c.064 0 .127-.063.127-.127.126-.316.19-.632.253-.885-.063 0-.127 0-.19-.064-.063-.063-.063-.126-.063-.19V9.743c0-.253.063-.443.253-.633s.38-.253.632-.253h1.518c.253 0 .442.064.632.253.19.19.253.38.253.633v1.202h.063c.506-1.139.885-2.594 1.138-4.428 0-.253.127-.443.317-.57.126-.126.316-.19.505-.19h.19c.253 0 .443.127.57.317.126.126.189.316.189.506v.126c-.063.507-.19 1.076-.253 1.519 0 .063 0 .126.063.126h2.593c.126-.063.316-.063.442 0l.38.127c.19.063.316.19.38.316.062.127.125.253.125.443v.126c-.126 1.14-.316 2.151-.505 2.974-.064.19-.127.316-.317.38-.063 0-.126.062-.252.062-.127 0-.19 0-.253-.063-.19-.126-.316-.253-.443-.443-.126-.19-.126-.316-.126-.506v-.19c.063-.38.126-.822.19-1.391 0-.064-.064-.127-.127-.127h-.633v.063zm-9.295-1.454c-.19 0-.316-.064-.506-.19-.19-.127-.19-.253-.19-.443 0-.063 0-.063-.062-.063h-.822c-.19 0-.317-.064-.443-.19-.127-.127-.19-.253-.19-.443s.064-.316.19-.443c.126-.126.253-.19.443-.19h.758c.064 0 .064-.063.064-.126 0-.19.063-.38.253-.57.19-.19.316-.252.569-.252.253 0 .379.063.569.253.19.19.253.316.253.569 0 .063.063.126.126.126h1.201c.064 0 .127-.063.127-.126 0-.19.063-.38.253-.57.19-.19.316-.252.569-.252.19 0 .38.063.57.253.189.19.252.316.252.569 0 .063 0 .126.063.126h.886c.19 0 .316.064.442.19.127.127.19.253.19.443s-.127.253-.253.38c-.127.126-.253.19-.443.19h-.885c-.063 0-.063 0-.063.063 0 .19-.064.316-.19.442-.126.127-.316.19-.506.19h-.253c-.19 0-.316-.063-.506-.19-.19-.126-.19-.253-.19-.442 0-.064 0-.064-.063-.064h-1.264c-.063 0-.063 0-.063.064 0 .19-.064.316-.19.442-.127.127-.316.19-.506.19h-.19v.064zm-.569 1.328c-.063 0-.126.063-.126.127v.632c0 .063.063.127.126.127h.57c.063 0 .126-.064.126-.127v-.633c0-.063-.063-.126-.127-.126h-.569zm.949 4.618c0 .063.063.127.126.127h1.012c.063 0 .126-.064.126-.127v-.38c0-.063-.063-.126-.126-.126h-1.012c-.063 0-.126.063-.126.126v.38zm.063 1.202c-.063 0-.063.063-.063.127v.379c0 .063.063.127.126.127h1.012c.063 0 .126-.064.126-.127v-.38c0-.063-.063-.126-.126-.126h-1.075zm0 1.645c-.063 0-.126.063-.126.126v.38c0 .063.063.126.126.126h1.012c.063 0 .126-.063.126-.126v-.38c0-.063-.063-.126-.126-.126h-1.012zm2.656.442c0 .064.063.127.126.127h1.644c.063 0 .127 0 .19-.063.506-.443.885-.95 1.265-1.582.379-.632.569-1.202.758-1.771.19-.57.253-1.139.317-1.582.063-.442.063-.822.063-1.202v-1.581c0-.063 0-.063-.064-.063-.063 0-.063-.064-.063 0-.253.759-.506 1.518-.758 2.087-.127.19-.253.317-.506.38h-.127c-.19 0-.316-.063-.506-.19-.253-.19-.442-.316-.695-.506-.063-.063-.127-.063-.19-.063h-1.96l.316.126c.19.064.316.127.443.317 0 .063.063.126.063.253 0 .126 0 .19-.063.253v.063h1.264c.19 0 .316.063.443.19.126.126.19.253.19.443s-.064.316-.19.442c-.127.127-.253.19-.443.19H22.51c-.063 0-.126.063-.126.127v.38c0 .063.063.126.126.126h1.012c.127 0 .253.063.38.126.126.063.126.253.126.38 0 .126-.063.253-.127.38-.063.126-.316.126-.442.126h-1.012c-.063 0-.126.063-.126.127v.379c0 .063.063.127.126.127h1.012c.126 0 .253.063.38.126.126.063.126.253.126.38 0 .126-.064.253-.127.38-.063.126-.253.126-.38.126h-1.01c-.064 0-.127.063-.127.126v.317zm0-7.907c-.064 0-.127.063-.127.127v.632c0 .063.064.127.127.127h.632c.063 0 .127-.064.127-.127v-.633c0-.063-.064-.126-.127-.126h-.632zM34.587 11.64c.253 0 .443.063.633.253s.253.38.253.632v3.86c0 .062 0 .126.063.189.569.885 1.644 1.392 3.225 1.455.632 0 1.328.063 2.276.063h.949c1.327 0 2.529-.063 3.604-.126.19 0 .316.063.442.253.064.126.127.253.127.316v.19c-.063.253-.19.442-.443.632s-.442.253-.695.253c-1.265.064-2.403.064-3.478.064-1.012 0-1.96 0-2.846-.064-.948-.063-1.707-.19-2.34-.442-.631-.253-1.137-.633-1.58-1.202-.063-.064-.126-.064-.126 0l-1.202 1.201c-.126.127-.253.19-.442.19h-.127c-.19-.063-.38-.126-.443-.38l-.063-.126c-.063-.19-.126-.316-.126-.506 0-.063 0-.19.063-.253.063-.253.19-.443.38-.57.379-.316.695-.569 1.011-.822.063-.063.063-.126.063-.19v-3.1c0-.062-.063-.126-.126-.126h-.632c-.253 0-.443-.063-.57-.253-.126-.19-.252-.38-.252-.57 0-.189.063-.442.252-.568.19-.127.38-.254.57-.254h1.58zm.57-3.796c.126.126.19.316.19.443v.19c-.064.253-.19.442-.38.569l-.063.063c-.127.063-.253.127-.443.127h-.19c-.253-.064-.38-.19-.569-.38-.253-.38-.569-.822-1.012-1.265-.126-.127-.19-.316-.19-.506v-.063c0-.19.127-.38.317-.507.19-.126.38-.19.569-.19h.126c.253 0 .443.127.633.317.38.443.758.822 1.011 1.202zm1.96 8.097h-.253c-.127 0-.253-.063-.38-.126-.19-.127-.316-.253-.38-.506v-.19c0-.127.064-.253.127-.38.127-.19.253-.316.506-.38.063 0 .127-.063.127-.126V7.591c0-.19.063-.38.253-.506.126-.063.253-.127.379-.127h.38c.442-.253.821-.443 1.2-.696.19-.126.38-.19.57-.19h.126c.253 0 .443.127.633.317l.569.633c0-.127.063-.19.126-.253.063-.064.127-.127.253-.127h3.73c.254 0 .444.063.633.253.19.19.253.38.253.633v6.832c0 .38-.063.696-.126.885-.064.19-.253.38-.506.507-.253.126-.696.252-1.202.252h-.063c-.19 0-.38-.063-.569-.19-.19-.126-.316-.316-.38-.569v-.19c0-.126 0-.19.064-.316.126-.126.253-.253.443-.253h.379c.126 0 .19 0 .19-.063s.063-.127.063-.19v-6.01c0-.063-.063-.126-.127-.126h-1.39c-.064 0-.127.063-.127.126V16.7c0 .253-.063.443-.253.57-.19.126-.38.253-.57.253-.189 0-.442-.064-.568-.253-.127-.19-.253-.38-.253-.57V7.211s0-.063-.063-.063h-.064c-.632.38-1.39.696-2.213 1.012-.063 0-.126.063-.126.127v5.503c0 .064.063.127.126.064.316-.064.633-.127 1.012-.253h.19c.126 0 .253.063.379.126.19.127.253.253.316.506v.127c0 .19-.063.316-.126.506-.127.19-.316.316-.506.38-1.012.252-1.897.442-2.782.695zM50.269 6.452c.127-.19.316-.38.506-.443.126-.063.253-.063.38-.063.126 0 .189 0 .315.063.19.064.38.19.443.443.063.064.063.19.063.253 0 .127-.063.253-.126.317-.253.38-.443.759-.696 1.075-.063.063-.063.127-.063.19v5.44c0 .253-.063.443-.253.633s-.38.253-.632.253c-.253 0-.443-.063-.633-.253s-.252-.38-.252-.633V10.311h-.064c-.126.127-.253.253-.442.38-.19.126-.316.19-.506.19h-.127c-.253 0-.379-.127-.569-.317 0 0-.063 0-.063-.063-.126-.19-.19-.316-.19-.506v-.127c0-.253.127-.443.316-.569 1.075-.822 1.898-1.771 2.593-2.847zm-.885 12.4c-.19.19-.38.316-.633.316h-.063c-.253 0-.442-.064-.632-.19h-.063c-.19-.127-.253-.317-.253-.57 0-.19.063-.38.253-.506.442-.506.822-1.075 1.075-1.77.063-.19.253-.38.442-.507.127-.063.253-.063.38-.063.063 0 .19 0 .253.063.252.063.379.253.505.443.064.126.127.253.127.38 0 .063 0 .19-.063.252-.38.823-.822 1.582-1.328 2.151zm4.363-.823h2.086c.19 0 .38-.063.506-.127.127-.063.19-.253.19-.506.063-.19.126-.316.316-.443.127-.063.19-.063.316-.063.063 0 .127 0 .253.063.253.064.443.253.57.443.126.127.126.317.126.506v.19c-.127.633-.316 1.012-.633 1.265-.316.253-.822.253-1.517.253h-2.403c-.948 0-1.58-.126-1.897-.442-.316-.317-.506-.823-.506-1.645v-1.455c0-.253.063-.443.253-.633s.38-.253.633-.253h.063c.253 0 .442.063.632.253s.253.38.253.633v1.455c0 .19.063.38.126.443.064.063.317.063.633.063zm1.96-9.363c0-.063-.063-.126-.127-.126h-1.327c-.064 0-.127 0-.19.063-.253.38-.506.696-.696 1.012-.126.19-.379.253-.632.253s-.443-.063-.632-.253c-.19-.19-.253-.316-.253-.506s.063-.38.253-.57c.506-.568.885-1.201 1.264-1.96.127-.19.253-.38.506-.506.127-.064.253-.127.443-.127h.253c.19.063.38.19.506.38.063.126.063.253.063.316s0 .19-.063.253v.063l.063.064h5.248l.38.063c.19.063.316.126.379.253.063.063.063.19.063.253s0 .126-.063.19c-.19.632-.443 1.265-.696 1.771-.063.127-.19.253-.316.316-.126.064-.316.064-.442.064.379.632.695 1.201 1.011 1.834v.506c0 .127 0 .19-.063.316-.063.254-.253.38-.506.507-.126.063-.19.063-.316.063s-.19 0-.316-.063c-.19-.064-.38-.254-.443-.443-.253-.57-.569-1.139-.885-1.708-.063-.127-.127-.253-.127-.38 0-.063 0-.126.064-.253.063-.253.19-.38.442-.506h.064c.063 0 .126-.063.126-.126.063-.19.19-.507.38-.95v-.063l-.064-.063h-1.517c-.064 0-.127.063-.127.127v4.238c0 .443-.063.76-.126.949-.063.19-.253.38-.506.506-.316.19-.885.253-1.644.253v.063c.19.127.38.253.506.38.19.126.253.316.253.57 0 .252-.064.442-.253.632-.253.063-.443.126-.633.126h-.063c-.253 0-.442-.126-.632-.253-.38-.316-.759-.632-1.265-.949-.19-.126-.253-.316-.253-.506s.063-.316.19-.443c.19-.126.38-.252.632-.252h.127c.19 0 .38.063.569.126.063.063.126.063.126.127h.063v-.064c0-.126-.063-.253-.126-.38 0-.063-.063-.126-.063-.19 0-.126.063-.189.126-.315.127-.19.253-.253.443-.253h.506c.063 0 .126 0 .19-.064.063-.063.063-.063.063-.19V8.666h.063zm-2.53 1.708c.127-.19.254-.38.507-.506.126-.063.253-.126.442-.126.063 0 .19 0 .253.063.19.063.38.19.506.38.063.126.063.19.063.316s0 .19-.063.316c-.316.633-.696 1.202-1.075 1.708-.127.19-.316.316-.57.316h-.126c-.19 0-.379-.063-.505-.19-.19-.126-.253-.252-.317-.505v-.127c0-.19.064-.316.19-.506.19-.253.443-.633.696-1.139zm4.743 6.01c-.126-.126-.19-.253-.19-.443v-.126c0-.19.127-.38.317-.506.19-.127.316-.127.505-.127h.19c.253.063.443.127.632.316.696.76 1.265 1.455 1.644 2.088.064.127.127.253.127.38 0 .063 0 .19-.063.253-.064.253-.19.442-.443.506l-.126.063c-.064.19-.127.19-.317.19-.063 0-.19 0-.252-.064-.19-.063-.38-.19-.506-.442-.38-.633-.886-1.329-1.518-2.088zM75.625 12.842c.19.126.253.38.253.632 0 .19-.063.38-.253.57-.19.19-.38.253-.632.253-.253 0-.443-.064-.633-.253-.316-.317-.758-.633-1.264-1.076-.064-.063-.064-.063-.127 0l-.38.57c-.126.19-.379.316-.632.316h-.126c-.19 0-.38-.063-.57-.19-.126-.063-.252-.126-.379-.253.57.76 1.328 1.518 2.15 2.151.822.633 1.77 1.202 2.72 1.645.189.063.316.253.316.443v.126c0 .127-.064.253-.127.38-.063.126-.126.19-.253.316-.126.19-.38.316-.569.38h-.253c-.126 0-.316-.064-.442-.127-1.518-.822-2.846-1.961-4.047-3.353h-.064c-.063 0 0 0 0 .063v3.417c0 .253-.063.442-.252.632-.19.19-.38.253-.633.253h-.126c-.253 0-.443-.063-.633-.253s-.252-.38-.252-.633v-3.416h-.064c-1.201 1.329-2.53 2.468-4.047 3.29-.126.063-.316.127-.442.127h-.253c-.253-.064-.443-.19-.57-.38l-.189-.19c-.126-.126-.126-.253-.126-.38v-.126c.063-.19.19-.38.379-.443 1.075-.506 2.087-1.138 2.972-1.897.885-.76 1.707-1.645 2.276-2.531.064-.063.064-.127.064-.19V9.49c0-.063-.064-.127-.127-.127h-4.426c-.253 0-.443-.063-.633-.253s-.253-.38-.253-.632c0-.253.064-.443.253-.633.19-.19.38-.253.633-.253h4.553c.063 0 .126-.063.126-.126v-.886c0-.253.063-.443.253-.633s.38-.253.632-.253h.127c.253 0 .442.064.632.253.19.19.253.38.253.633v.886c0 .063.063.126.126.126h4.743c.253 0 .442.063.632.253s.253.38.253.633-.063.443-.253.632c-.19.19-.38.253-.632.253h-4.743c-.063 0-.126.064-.126.127v3.163c0 .063 0 .127.063.19l.063.063.064.063c.063.064.063.064.126 0 .696-.632 1.265-1.581 1.644-2.72.063-.253.19-.443.443-.57.126-.126.316-.126.505-.126h.254c.252.064.379.127.505.38.064.126.127.253.127.38v.252c-.063.253-.127.443-.253.696 0 .063 0 .127.063.19.696.633 1.265 1.139 1.58 1.392zm-10.37-2.53c.063-.254.253-.38.443-.57.126-.127.316-.127.505-.127h.19c.253.064.443.19.506.38.063.127.126.253.126.38 0 .063 0 .19-.063.253-.063.253-.19.442-.253.695 0 .064 0 .127.063.19.317.253.57.506.76.633.189.126.252.38.252.632 0 .254-.063.443-.253.633-.126.19-.38.253-.569.253-.253 0-.443-.126-.632-.253l-.316-.316c-.064-.063-.127-.063-.127 0-.316.506-.695 1.012-1.075 1.391-.19.19-.38.254-.569.254-.253 0-.442-.064-.632-.254 0 0-.063 0-.063-.063-.19-.126-.253-.316-.253-.57 0-.252.063-.379.253-.568.695-.76 1.264-1.772 1.707-2.974zM82.517 17.08c0 .063.064.126.127.126l2.023-.253h.127c.19 0 .316.064.506.19.19.127.253.316.253.57 0 .126 0 .316-.064.442-.063.127-.19.253-.316.38-.126.126-.253.126-.442.19-.127 0-2.087.253-5.944.759h-.127c-.19 0-.379-.064-.505-.19-.19-.127-.317-.316-.38-.57v-.063-.126c0-.19.063-.316.19-.506.126-.19.316-.317.569-.317.822-.063 1.58-.19 2.15-.253.063 0 .126-.063.126-.126v-1.708c0-.063-.063-.127-.126-.127H79.04c-.19 0-.38-.063-.57-.253-.189-.19-.252-.38-.252-.569 0-.19.063-.38.253-.57.19-.19.316-.252.569-.252h1.58c.064 0 .127-.064.127-.127v-.443c0-.253.063-.443.253-.632.19-.19.38-.253.632-.253h.063c.253 0 .443.063.633.253s.253.38.253.632v.506c0 .064.063.127.126.127h1.581c.253 0 .443.063.57.253.126.19.252.316.252.57 0 .252-.063.442-.253.569-.19.126-.316.253-.569.253h-1.58c-.064 0-.127.063-.127.126v1.392h-.064zm.317-7.212c-.064-.126-.127-.253-.127-.38v-.19c.064-.189.127-.315.316-.442.127-.063.253-.126.443-.126h.19c.19.063.38.126.506.316.569.759 1.011 1.392 1.39 2.024.064.127.064.253.064.38v.253c-.063.19-.19.38-.443.506h-.063c-.126.063-.253.063-.316.063s-.127 0-.253-.063c-.19-.063-.316-.19-.443-.38 0-.063-.063-.063-.126-.063-1.454.063-3.225.19-5.312.253h-.063c-.19 0-.38-.063-.569-.19-.19-.19-.316-.38-.316-.632 0-.19.063-.38.253-.506.126-.19.38-.253.569-.253h.38c.063 0 .126-.064.126-.127.253-.696.442-1.392.632-2.024v-.064h-1.138c-.19 0-.38-.063-.57-.253-.189-.19-.252-.316-.252-.569 0-.253.063-.38.253-.57.19-.19.316-.252.569-.252h6.07c.253 0 .443.063.57.253.126.19.252.316.252.57 0 .252-.063.379-.253.568-.19.19-.316.253-.569.253h-2.782c-.063 0-.127.064-.127.127-.316.76-.569 1.392-.821 2.024v.064h.063c.506 0 1.201-.064 2.15-.064h.063v-.063c-.063-.127-.19-.316-.316-.443zm3.477-2.024c.19-.19.38-.253.633-.253s.442.063.632.253.253.38.253.632v6.833c0 .253-.063.442-.253.632s-.38.253-.632.253c-.253 0-.443-.063-.633-.253s-.253-.38-.253-.632V8.413c0-.19.064-.443.253-.57zm3.162-.822c0-.254.063-.443.253-.633s.38-.253.632-.253c.253 0 .443.063.633.253s.252.38.252.633v10.754c0 .506-.063.885-.19 1.202-.126.316-.315.506-.632.632-.379.19-1.074.317-1.96.317h-.063c-.253 0-.442-.064-.632-.253-.19-.127-.316-.38-.443-.633 0-.063-.063-.127-.063-.19v-.19c0-.126.063-.253.126-.316.127-.19.253-.253.443-.253h1.265c.126 0 .253-.063.316-.063s.063-.127.063-.253V7.022z"/>
    <path fill="#333" d="M34.805 43.46c.65 0 1.198.235 1.64.704.443.443.664.977.664 1.602v.586c0 .625-.221 1.171-.664 1.64-.442.443-.99.664-1.64.664H5.39c-.651 0-1.198-.221-1.641-.664-.443-.469-.664-1.015-.664-1.64v-.586c0-.625.221-1.16.664-1.602.443-.469.99-.703 1.64-.703h29.415zM16.719 66.353c.026-.183-.052-.274-.235-.274h-5.312c-.182 0-.287.091-.313.274-.468 3.255-1.198 6.028-2.187 8.32-.026.052-.026.104 0 .156.052.026.104.026.156 0 1.432-.443 2.643-.95 3.633-1.523.99-.573 1.758-1.224 2.305-1.953.572-.756 1.002-1.51 1.289-2.266.286-.755.508-1.667.664-2.734zm12.187-12.149c0-.182-.09-.273-.273-.273H11.602c-.183 0-.274.09-.274.273v1.094c0 .208.091.312.274.312h17.03c.183 0 .274-.104.274-.312v-1.094zm-10.078 7.383c.182 0 .274-.091.274-.273v-1.25c0-.209-.092-.313-.274-.313h-7.226c-.183 0-.274.104-.274.313 0 .13-.013.338-.039.624v.626c0 .182.091.273.274.273h7.265zm18.594.664c.443.443.664.977.664 1.602 0 .599-.221 1.12-.664 1.562-.443.443-.964.664-1.563.664H22.852c-.183 0-.287.091-.313.274-.078.494-.143.898-.195 1.21-.052.183.026.274.234.274h10.04c.624 0 1.158.234 1.6.703.365.39.548.86.548 1.406 0 4.193-.612 6.953-1.836 8.282-.782.807-1.927 1.302-3.438 1.484-.729.078-1.706.13-2.93.156h-.039c-.625 0-1.184-.221-1.68-.664-.494-.416-.833-.963-1.015-1.64-.052-.13-.091-.274-.117-.43-.078-.156-.117-.326-.117-.508 0-.287.09-.56.273-.82.287-.417.664-.625 1.133-.625l.04.039c.624.026 1.184.039 1.679.039.573 0 1.028-.143 1.367-.43.286-.234.52-1.016.703-2.344.026-.182-.052-.273-.234-.273H21.25c-.182 0-.326.078-.43.234-1.458 2.865-4.101 5.052-7.93 6.563-.286.104-.572.156-.859.156-.312 0-.625-.065-.937-.195-.6-.26-1.081-.677-1.446-1.25-.416-.625-.846-1.211-1.289-1.758-.13-.13-.247-.104-.351.078-.287.573-.612 1.12-.977 1.64-.338.522-.833.821-1.484.9h-.313c-.52 0-1.002-.157-1.445-.47-.365-.234-.742-.468-1.133-.703-.495-.312-.794-.755-.898-1.328-.026-.13-.04-.273-.04-.43 0-.39.118-.768.352-1.132.756-1.12 1.38-2.357 1.875-3.711.495-1.38.847-2.8 1.055-4.258.234-1.459.378-2.747.43-3.867.078-1.146.117-2.422.117-3.828v-6.758c0-.625.221-1.16.664-1.602.469-.469 1.016-.703 1.64-.703h24.493c.625 0 1.159.234 1.601.703.47.443.703.977.703 1.602v5.351c0 .651-.234 1.198-.703 1.64-.442.444-.976.665-1.601.665h-7.188c-.182 0-.273.104-.273.313v1.25c0 .182.091.273.273.273H35.86c.6 0 1.12.221 1.563.664zm13.008-6.719c-.651 0-1.198-.221-1.64-.664-.444-.469-.665-1.015-.665-1.64v-1.524c0-.078-.026-.13-.078-.156-.052-.026-.104-.026-.156 0-.443.312-.899.612-1.368.898-.442.26-.898.39-1.367.39-.156 0-.312-.012-.468-.038-.678-.13-1.238-.443-1.68-.938-.313-.312-.6-.612-.86-.898-.312-.313-.468-.677-.468-1.094v-.273c.078-.521.364-.912.86-1.172 2.994-1.51 5.507-3.281 7.538-5.313.495-.494 1.068-.82 1.719-.976.26-.078.534-.117.82-.117.39 0 .768.065 1.133.195l.938.352c.546.208.885.585 1.015 1.132.052.157.078.313.078.47 0 .364-.143.702-.43 1.015-.442.468-.924.963-1.445 1.484-.156.156-.234.326-.234.508v6.055c0 .625-.221 1.171-.664 1.64-.443.443-.99.664-1.64.664h-.938zm2.11 12.813c-.21 0-.313.104-.313.312v.586c0 .182.104.274.312.274h15.234c.209 0 .313-.092.313-.274v-.586c0-.208-.104-.312-.313-.312H52.54zm0-4.258c-.21 0-.313.091-.313.273v.547c0 .209.104.313.312.313h15.234c.209 0 .313-.104.313-.313v-.547c0-.182-.104-.273-.313-.273H52.54zm0-4.297c-.21 0-.313.104-.313.313v.507c0 .209.104.313.312.313h15.234c.209 0 .313-.104.313-.313v-.507c0-.209-.104-.313-.313-.313H52.54zm21.796-10.195c0-.052-.026-.104-.078-.157-.052-.078-.117-.117-.195-.117l-6.055.39c-.052 0-.091.027-.117.08 0 .051.013.09.039.116 1.51 1.25 3.15 1.875 4.922 1.875.468 0 .807-.143 1.015-.43.209-.312.365-.898.469-1.757zm-.39 20.937c0 .651-.222 1.198-.665 1.64-.443.444-.99.665-1.64.665h-3.32c-.027 0-.04.013-.04.039 0 .026.013.052.04.078 3.41 1.38 6.106 2.526 8.085 3.438.39.182.573.481.547.898-.026.443-.234.742-.625.898l-2.578.938c-.547.208-1.094.313-1.64.313-.834 0-1.667-.235-2.5-.704-1.772-.99-3.725-1.953-5.86-2.89-.443-.182-.664-.534-.664-1.055 0-.417.195-.73.586-.937l1.523-.86c.026-.026.026-.052 0-.078 0-.052-.013-.078-.039-.078H55.04c-.026 0-.039.026-.039.078 0 .026.013.04.04.04l1.25.585c.494.208.741.586.741 1.133 0 .443-.195.781-.586 1.016-2.448 1.328-5.286 2.525-8.515 3.593-.365.104-.73.156-1.094.156-.313 0-.625-.039-.938-.117-.677-.182-1.263-.533-1.757-1.054l-1.016-1.016c-.156-.156-.26-.338-.313-.547-.026-.104-.039-.208-.039-.312 0-.105.013-.196.04-.274.052-.208.143-.39.273-.547.156-.156.352-.247.586-.273 2.943-.651 5.482-1.432 7.617-2.344.026 0 .04-.013.04-.039 0-.052-.027-.078-.079-.078h-2.305c-.625 0-1.172-.221-1.64-.664-.443-.443-.664-.99-.664-1.64V58.733c0-.625.221-1.159.664-1.601.468-.469 1.015-.703 1.64-.703h20.196c0-.026-.013-.052-.04-.078-3.28-.886-5.91-2.865-7.89-5.938-.104-.156-.26-.234-.469-.234l-3.633.195c-.026.026-.065.04-.117.04-.547 0-1.028-.183-1.445-.548-.443-.39-.703-.885-.781-1.484v-.235c0-.468.156-.898.468-1.289.391-.442.873-.677 1.446-.703L58.906 46c.183 0 .248-.091.196-.273-.157-.521-.287-1.068-.391-1.641-.026-.156-.04-.3-.04-.43 0-.416.157-.807.47-1.172.39-.468.898-.703 1.523-.703h.742c.651 0 1.224.222 1.719.664.52.417.872.95 1.055 1.602.156.469.325.924.507 1.367.079.182.209.26.391.234l3.79-.195c.025 0 .038-.013.038-.039 0-.026-.013-.052-.039-.078-.52-.182-.99-.339-1.406-.469-.417-.13-.69-.39-.82-.781-.105-.417-.013-.781.273-1.094.417-.442.898-.755 1.445-.937.313-.105.625-.157.938-.157.234 0 .482.04.742.118 1.25.312 2.435.69 3.555 1.132.364.13.586.404.664.82.078.391-.013.743-.274 1.055-.026 0-.026.026 0 .079.026.026.053.039.079.039l1.523-.078h.117c.521 0 .99.169 1.406.507.443.39.69.873.743 1.446.026.078.039.156.039.234 0 .469-.157.885-.47 1.25-.364.443-.833.677-1.405.703l-1.29.078c-.052.026-.09.065-.117.117 0 .026.026.052.079.079.468.338 1.054.664 1.757.976.625.287 1.107.716 1.446 1.29.208.338.312.702.312 1.093 0 .208-.039.43-.117.664-.339 1.068-.807 1.849-1.406 2.344-.6.468-1.407.781-2.422.937-.209.026-.313.13-.313.313V70.53zm22.968-26.758c0-.625.221-1.158.664-1.601.469-.469 1.016-.703 1.64-.703h1.798c.625 0 1.158.234 1.601.703.469.443.703.976.703 1.601V71.86c0 1.667-.208 2.943-.625 3.829-.416.885-1.133 1.575-2.148 2.07-1.328.625-3.542.976-6.64 1.055h-.079c-.625 0-1.185-.209-1.68-.626-.546-.416-.924-.95-1.132-1.601-.183-.573-.404-1.159-.664-1.758-.105-.182-.157-.377-.157-.586 0-.234.078-.469.235-.703.26-.417.625-.625 1.093-.625h.079c.755.026 1.47.04 2.148.04.677 0 1.315-.014 1.914-.04.469 0 .794-.078.977-.234.182-.183.273-.47.273-.86V43.773zm10.625 10.43c-.13-.286-.195-.586-.195-.898 0-.26.052-.521.156-.782.208-.573.599-.963 1.172-1.171l1.406-.547c.313-.105.612-.157.899-.157.312 0 .625.066.937.196.625.208 1.094.612 1.406 1.21 1.276 2.423 2.448 4.91 3.516 7.462.963 2.343 1.719 4.466 2.266 6.367.052.234.078.456.078.664 0 .39-.091.781-.274 1.172-.312.573-.781.976-1.406 1.21l-2.109.86c-.235.078-.469.117-.703.117-.313 0-.612-.078-.899-.234-.521-.287-.846-.73-.977-1.328-.442-1.875-1.119-4.01-2.031-6.406-.963-2.657-2.044-5.235-3.242-7.735zm-21.484-1.445c.13-.625.455-1.12.976-1.485.39-.286.82-.43 1.29-.43.13 0 .26.014.39.04l2.11.351c.624.105 1.106.417 1.445.938.234.364.351.755.351 1.172 0 .182-.013.364-.039.547-1.458 6.041-3.112 10.69-4.96 13.945-.287.547-.743.885-1.368 1.016-.182.026-.365.039-.547.039-.443 0-.86-.118-1.25-.352-.52-.312-1.08-.599-1.68-.86-.52-.26-.872-.676-1.054-1.25-.052-.208-.078-.403-.078-.585 0-.365.09-.703.273-1.016.885-1.536 1.68-3.333 2.383-5.39.755-2.266 1.341-4.493 1.758-6.68zm64.687 1.953c0-.208-.091-.313-.273-.313h-2.617c-.183 0-.261.092-.235.274.443 2.526.977 4.74 1.602 6.64.026.053.052.079.078.079.052 0 .091-.026.117-.078.573-2.006 1.016-4.206 1.328-6.602zm-15.312 3.672h.234c.182-.052.365-.078.547-.078.417 0 .794.143 1.133.43l.547.43c.104.077.195.064.273-.04.469-.625.925-1.276 1.367-1.953.026-.052.026-.104 0-.156-.026-.052-.078-.078-.156-.078h-3.398c-.209 0-.365.065-.469.195-.391.469-.69.82-.899 1.054-.052.027-.065.066-.039.118.026.052.065.078.118.078h.742zm-3.164-8.438c-.209 0-.313.105-.313.313v1.406c0 .208.104.313.313.313h.156c.208 0 .364-.079.469-.235.39-.52.742-1.028 1.054-1.523.052-.052.052-.104 0-.157-.026-.078-.065-.117-.117-.117h-1.562zm26.718 2.422c0 .573-.195 1.055-.586 1.446-.39.39-.859.585-1.406.585-.182 0-.286.092-.312.274-.756 5.573-2.032 10.17-3.828 13.789-.079.182-.066.352.039.508 1.354 1.875 2.89 3.411 4.609 4.61.469.312.742.754.82 1.327.026.104.039.196.039.274 0 .468-.156.885-.468 1.25-.417.468-.808.963-1.172 1.484-.391.52-.899.846-1.524.977-.156.052-.312.078-.468.078-.417 0-.821-.143-1.211-.43-1.537-1.172-2.943-2.591-4.219-4.258-.13-.156-.248-.169-.352-.039-1.614 1.797-3.541 3.346-5.781 4.649-.338.208-.69.312-1.055.312-.234 0-.455-.039-.664-.117-.599-.208-1.067-.586-1.406-1.133-.26-.469-.547-.937-.859-1.406-.235-.339-.352-.703-.352-1.094 0-.156.026-.325.078-.508.13-.547.456-.963.977-1.25 2.396-1.276 4.362-2.93 5.898-4.96.13-.13.157-.287.078-.47-.781-1.874-1.484-3.919-2.109-6.132-.026-.052-.065-.078-.117-.078-.026 0-.052.013-.078.039-.287.442-.69.677-1.211.703h-.117c-.495 0-.925-.17-1.289-.508-.417-.417-.86-.807-1.329-1.172-.13-.13-.26-.117-.39.04-1.511 1.822-3.203 3.54-5.078 5.156-.105.078-.157.182-.157.312 0 .104.065.156.196.156l2.109-.117c.938-.078 1.654-.143 2.149-.195h.156c.547 0 1.028.195 1.445.586.443.416.664.937.664 1.562v.313c0 .65-.221 1.224-.664 1.718-.417.47-.95.73-1.601.782-.912.078-2.292.182-4.141.312-.208 0-.313.104-.313.313v2.5c0 1.25-.143 2.213-.429 2.89-.261.677-.782 1.198-1.563 1.563-.937.443-2.187.703-3.75.781h-.156c-.599 0-1.133-.195-1.602-.586-.52-.416-.885-.95-1.093-1.601-.052-.183-.118-.365-.196-.547-.052-.183-.078-.365-.078-.547 0-.313.091-.612.274-.899.286-.442.69-.664 1.211-.664h1.289c.26 0 .429-.039.507-.117.105-.078.157-.221.157-.43v-1.914c0-.182-.091-.273-.274-.273l-4.57.352h-.195c-.573 0-1.081-.183-1.524-.547-.495-.417-.781-.95-.859-1.602l-.039-.508v-.273c0-.521.169-.99.508-1.406.39-.47.898-.717 1.523-.743 3.125-.182 4.844-.286 5.156-.312.183 0 .274-.104.274-.313v-1.093c0-.417.143-.769.429-1.055.287-.287.638-.43 1.055-.43.13 0 .247-.039.352-.117l1.093-1.094c.026-.052.026-.104 0-.156 0-.052-.026-.078-.078-.078h-1.367c-.182 0-.351.065-.508.195-1.067.86-2.2 1.68-3.398 2.461-.417.235-.847.352-1.289.352-.156 0-.326-.013-.508-.04-.625-.13-1.159-.442-1.602-.937-.26-.338-.533-.664-.82-.976-.312-.339-.469-.73-.469-1.172 0-.078.013-.183.039-.313.078-.547.365-.963.86-1.25.729-.416 1.432-.86 2.109-1.328.104-.052.156-.13.156-.234 0-.313.118-.586.352-.82.234-.261.521-.391.859-.391h.43c.156 0 .286-.04.391-.117.599-.47 1.054-.847 1.367-1.133.052-.052.065-.091.039-.117-.026-.052-.065-.078-.117-.078h-4.375c-.651 0-1.198-.222-1.641-.665-.443-.468-.664-1.015-.664-1.64v-.352c0-.65.221-1.198.664-1.64.443-.443.99-.664 1.641-.664h2.734c.208 0 .313-.105.313-.313v-1.406c0-.209-.105-.313-.313-.313h-1.523c-.625 0-1.172-.221-1.641-.664-.443-.442-.664-.99-.664-1.64v-.235c0-.625.221-1.159.664-1.601.469-.47 1.016-.703 1.641-.703h1.523c.208 0 .313-.092.313-.274v-.742c0-.625.221-1.159.664-1.602.468-.468 1.015-.703 1.64-.703h.742c.651 0 1.198.235 1.641.703.443.443.664.977.664 1.602v.742c0 .182.104.274.313.274h.703c.651 0 1.198.234 1.64.703.443.442.664.976.664 1.601v.274c0 .026.013.052.039.078.053 0 .092-.013.118-.04.468-.859.911-1.783 1.328-2.773.286-.599.716-1.041 1.289-1.328.364-.182.729-.273 1.094-.273.234 0 .468.026.703.078l.937.273c.599.157 1.029.521 1.289 1.094.131.286.196.573.196.86 0 .26-.052.52-.157.78-.833 1.876-1.77 3.66-2.812 5.352-.052.13-.026.196.078.196.417 0 .768.143 1.055.43.312.286.468.637.468 1.054v.82c0 .026.013.052.04.078.026 0 .052-.026.078-.078 1.276-2.89 2.252-6.302 2.929-10.234.131-.625.443-1.133.938-1.524.416-.286.859-.43 1.328-.43.13 0 .26.014.391.04l1.328.195c.625.104 1.119.404 1.484.899.287.39.43.82.43 1.289 0 .13-.013.273-.039.43-.261 1.275-.547 2.551-.86 3.827-.052.183.026.274.235.274h7.5c.651 0 1.198.221 1.64.664.443.443.664.99.664 1.64v1.016zm26.328 4.297c.027-.026.027-.052 0-.078 0-.052-.013-.078-.039-.078h-6.718c-.183 0-.326.091-.43.273-.208.39-.599 1.055-1.172 1.992-.026.079-.026.144 0 .196.026.052.078.078.156.078l7.579-.117c.026 0 .039-.013.039-.04.026-.051.026-.09 0-.117-.287-.234-.417-.533-.391-.898.026-.39.195-.69.508-.898l.468-.313zm6.641-6.953c0-.208-.091-.313-.273-.313h-23.516c-.182 0-.273.105-.273.313v1.602c0 .182.091.273.273.273h23.516c.182 0 .273-.091.273-.273V49.71zm-9.062 23.633c0 .208.091.312.273.312h12.5c.625 0 1.159.222 1.602.664.468.443.703.99.703 1.64v.47c0 .625-.235 1.158-.703 1.601-.443.469-.977.703-1.602.703H164.57c-.625 0-1.172-.234-1.64-.703-.443-.443-.664-.976-.664-1.601v-.47c0-.65.221-1.197.664-1.64.468-.442 1.015-.664 1.64-.664h12.032c.182 0 .273-.104.273-.312v-1.406c0-.209-.091-.313-.273-.313h-8.555c-.625 0-1.172-.221-1.641-.664-.442-.443-.664-.99-.664-1.64v-.352c0-.625.222-1.16.664-1.602.469-.469 1.016-.703 1.641-.703h8.555c.182 0 .273-.091.273-.273v-2.07c0-.183-.091-.274-.273-.274-1.719.052-4.727.13-9.024.234h-.039c-.625 0-1.159-.221-1.601-.664-.469-.416-.717-.95-.743-1.601l-.039-.547c-.026-.625.183-1.16.625-1.602.443-.469.977-.716 1.602-.742h3.008c.182 0 .325-.091.429-.273.235-.547.508-1.237.821-2.07.026-.053.013-.105-.039-.157-.026-.078-.066-.117-.118-.117h-2.304c-.625 0-1.172-.222-1.641-.664-.443-.443-.664-.99-.664-1.64v-.821c0-.209-.091-.313-.273-.313h-2.11c-.625 0-1.172-.221-1.64-.664-.443-.442-.664-.99-.664-1.64v-4.297c0-.651.221-1.198.664-1.64.468-.444 1.015-.665 1.64-.665h12.11c.182 0 .273-.091.273-.273 0-.573.195-1.055.586-1.446.417-.39.911-.586 1.484-.586h1.875c.573 0 1.055.196 1.446.586.416.39.625.873.625 1.446 0 .182.078.273.234.273h12.5c.625 0 1.159.221 1.602.664.468.443.703.99.703 1.64v4.298c0 .65-.235 1.198-.703 1.64-.443.443-.977.664-1.602.664h-2.148c-.183 0-.274.105-.274.313v.82c0 .651-.234 1.198-.703 1.64-.443.443-.977.665-1.602.665h-.937c-.052 0-.091.026-.117.078 0 .052.026.091.078.117 1.901 1.563 3.489 2.982 4.766 4.258.364.39.546.82.546 1.289v.273c-.078.625-.377 1.107-.898 1.446l-.742.508c-.417.26-.86.39-1.328.39-.157 0-.3-.013-.43-.039-.625-.078-1.159-.365-1.602-.86-.052-.025-.091-.064-.117-.116-.13-.13-.286-.196-.469-.196-2.89.104-5.052.17-6.484.196-.182.026-.273.13-.273.312v2.227c0 .182.091.273.273.273h9.492c.625 0 1.159.234 1.602.703.469.443.703.977.703 1.602v.351c0 .651-.234 1.198-.703 1.64-.443.444-.977.665-1.602.665h-9.492c-.182 0-.273.104-.273.313v1.406zM10.43 105.53c-.651 0-1.198-.221-1.64-.664-.444-.469-.665-1.015-.665-1.64v-1.524c0-.078-.026-.13-.078-.156-.052-.026-.104-.026-.156 0-.443.312-.899.612-1.368.898-.442.261-.898.391-1.367.391-.156 0-.312-.013-.468-.039-.678-.13-1.237-.443-1.68-.938-.313-.312-.6-.612-.86-.898-.312-.313-.468-.677-.468-1.094v-.273c.078-.521.364-.912.86-1.172 2.994-1.51 5.507-3.281 7.538-5.313.495-.494 1.068-.82 1.719-.976.26-.078.534-.117.82-.117.39 0 .768.065 1.133.195l.938.352c.546.208.885.585 1.015 1.132.052.157.078.313.078.47 0 .364-.143.702-.43 1.015-.442.468-.924.963-1.445 1.484-.156.156-.234.326-.234.508v6.055c0 .625-.222 1.171-.664 1.64-.443.443-.99.664-1.64.664h-.938zm2.11 12.813c-.21 0-.313.104-.313.312v.586c0 .182.104.274.312.274h15.234c.209 0 .313-.092.313-.274v-.586c0-.208-.104-.312-.313-.312H12.54zm0-4.258c-.21 0-.313.091-.313.273v.547c0 .209.104.313.312.313h15.234c.209 0 .313-.104.313-.313v-.547c0-.182-.104-.273-.313-.273H12.54zm0-4.297c-.21 0-.313.104-.313.313v.507c0 .209.104.313.312.313h15.234c.209 0 .313-.104.313-.313v-.507c0-.209-.104-.313-.313-.313H12.54zm21.796-10.195c0-.052-.026-.104-.078-.156-.052-.079-.117-.118-.196-.118l-6.054.39c-.052 0-.091.027-.117.08 0 .051.013.09.039.116 1.51 1.25 3.15 1.875 4.922 1.875.468 0 .807-.143 1.015-.429.209-.313.365-.899.469-1.758zm-.39 20.937c0 .651-.222 1.198-.665 1.641-.442.443-.99.664-1.64.664h-3.32c-.027 0-.04.013-.04.039 0 .026.013.052.04.078 3.41 1.38 6.106 2.526 8.085 3.438.39.182.573.481.547.898-.026.443-.234.742-.625.899l-2.578.937c-.547.208-1.094.313-1.64.313-.834 0-1.667-.235-2.5-.704-1.771-.989-3.725-1.953-5.86-2.89-.443-.183-.664-.534-.664-1.055 0-.417.195-.729.586-.937l1.523-.86c.026-.026.026-.052 0-.078 0-.052-.013-.078-.039-.078H15.04c-.026 0-.039.026-.039.078 0 .026.013.039.04.039l1.25.586c.494.208.741.586.741 1.133 0 .443-.195.781-.586 1.016-2.448 1.328-5.286 2.526-8.515 3.593-.365.104-.73.157-1.094.157-.313 0-.625-.04-.938-.118-.677-.182-1.263-.534-1.757-1.054l-1.016-1.016c-.156-.156-.26-.339-.313-.547-.026-.104-.039-.208-.039-.312 0-.105.013-.196.04-.274.052-.208.143-.39.273-.547.156-.156.352-.247.586-.273 2.943-.651 5.482-1.432 7.617-2.344.026 0 .04-.013.04-.039 0-.052-.027-.078-.079-.078H8.945c-.625 0-1.172-.221-1.64-.664-.443-.443-.664-.99-.664-1.641v-11.797c0-.625.221-1.158.664-1.601.468-.469 1.015-.703 1.64-.703h20.196c0-.026-.013-.052-.04-.078-3.28-.886-5.91-2.865-7.89-5.938-.104-.156-.26-.234-.469-.234l-3.633.195c-.026.026-.065.039-.117.039-.547 0-1.029-.182-1.445-.547-.443-.39-.703-.885-.781-1.484v-.235c0-.468.156-.898.468-1.289.391-.442.873-.677 1.446-.703L18.906 96c.183 0 .248-.091.196-.273-.157-.521-.287-1.068-.391-1.641-.026-.156-.04-.3-.04-.43 0-.416.157-.807.47-1.172.39-.468.898-.703 1.523-.703h.742c.651 0 1.224.222 1.719.664.52.417.872.95 1.055 1.602.156.469.325.924.508 1.367.078.182.208.26.39.234l3.79-.195c.025 0 .038-.013.038-.039 0-.026-.013-.052-.039-.078-.52-.182-.99-.339-1.406-.469-.417-.13-.69-.39-.82-.781-.104-.417-.013-.781.273-1.094.417-.443.898-.755 1.445-.937.313-.105.625-.157.938-.157.234 0 .482.04.742.118 1.25.312 2.435.69 3.555 1.132.364.13.586.404.664.82.078.391-.013.743-.274 1.055-.026 0-.026.026 0 .079.026.026.052.039.078.039l1.524-.079h.117c.521 0 .99.17 1.406.508.443.39.69.873.743 1.446.026.078.039.156.039.234 0 .469-.157.885-.47 1.25-.364.443-.832.677-1.405.703l-1.29.078c-.051.026-.09.065-.117.117 0 .026.026.053.078.079.47.338 1.055.664 1.758.976.625.287 1.107.716 1.446 1.289.208.339.312.703.312 1.094 0 .208-.039.43-.117.664-.339 1.068-.807 1.849-1.406 2.344-.6.468-1.407.781-2.422.937-.209.026-.313.13-.313.313v13.437zm14.1-26.406c.261-.599.678-1.042 1.25-1.328.34-.182.691-.274 1.056-.274.234 0 .481.04.742.118l1.054.351c.6.182 1.042.56 1.329 1.133.13.287.195.586.195.898 0 .26-.052.521-.156.782-.808 1.927-1.693 3.815-2.657 5.664-.104.156-.156.338-.156.547v25.429c0 .651-.221 1.198-.664 1.641-.443.443-.99.664-1.64.664H47.5c-.625 0-1.172-.221-1.64-.664-.443-.443-.665-.99-.665-1.641v-16.836c0-.052-.026-.078-.078-.078-.026-.026-.065-.026-.117 0-.078.104-.156.222-.234.352-.287.312-.638.469-1.055.469h-.234c-.521-.105-.899-.391-1.133-.86-.339-.703-.677-1.38-1.016-2.031-.234-.469-.351-.977-.351-1.523v-.391c.078-.677.338-1.276.78-1.797 2.527-3.021 4.623-6.563 6.29-10.625zm7.813 18.281c.157-.625.508-1.107 1.055-1.445.365-.26.768-.391 1.211-.391.156 0 .325.013.508.039l1.094.235c.625.13 1.106.468 1.445 1.015.234.365.351.743.351 1.133 0 .182-.026.378-.078.586-.911 3.438-2.083 6.471-3.515 9.102-.287.521-.73.846-1.328.976-.157.026-.313.039-.47.039-.442 0-.859-.13-1.25-.39-.338-.209-.69-.43-1.054-.664-.495-.313-.82-.769-.976-1.368-.026-.182-.04-.364-.04-.546 0-.391.105-.769.313-1.133 1.12-1.979 2.031-4.375 2.734-7.188zm17.032-8.086c.026-.182-.066-.273-.274-.273h-3.555c-.208 0-.312.091-.312.273v19.141c0 1.406-.143 2.513-.43 3.32-.286.808-.82 1.446-1.601 1.914-1.016.573-2.344.925-3.985 1.055h-.195c-.573 0-1.094-.182-1.562-.547-.521-.417-.873-.95-1.055-1.601-.156-.495-.326-.99-.508-1.485-.078-.208-.117-.403-.117-.586 0-.286.091-.56.273-.82.287-.443.69-.664 1.211-.664h1.485c.286 0 .481-.039.586-.117.104-.104.156-.287.156-.547V104.32c0-.182-.104-.273-.313-.273h-3.242c-.182 0-.325.078-.43.234-.703 1.302-1.432 2.513-2.187 3.633-.365.495-.86.768-1.484.82-.052.026-.118.039-.196.039-.547 0-1.015-.182-1.406-.546-.39-.313-.768-.625-1.133-.938-.495-.365-.768-.859-.82-1.484-.026-.104-.04-.196-.04-.274 0-.495.157-.95.47-1.367 2.005-2.708 3.632-6.055 4.882-10.039.183-.599.547-1.068 1.094-1.406.39-.235.794-.352 1.211-.352.182 0 .365.026.547.078l1.25.274c.599.156 1.055.495 1.367 1.015.208.339.313.69.313 1.055 0 .208-.04.43-.118.664-.338 1.042-.69 2.031-1.054 2.969-.026.052-.026.117 0 .195.052.052.104.078.156.078h12.11c.052 0 .117-.013.195-.039.26-.052.52-.078.78-.078.261 0 .522.026.782.078l1.29.235c.572.104 1.028.39 1.366.859.287.365.43.768.43 1.211 0 .13-.013.247-.039.351-.26 1.823-.586 3.659-.977 5.508-.104.625-.43 1.12-.976 1.485-.39.286-.82.429-1.29.429-.155 0-.312-.013-.468-.039l-.39-.078c-.651-.13-1.16-.456-1.524-.976-.312-.417-.469-.886-.469-1.407v-.312c.078-.547.144-1.081.196-1.602zm-2.657 9.258c-.104-.286-.156-.56-.156-.82 0-.313.065-.612.195-.899.26-.573.69-.963 1.29-1.171l.82-.274c.286-.104.56-.156.82-.156.339 0 .677.078 1.016.234.599.261 1.028.69 1.289 1.289 1.146 2.813 2.031 5.651 2.656 8.516.052.182.078.364.078.547 0 .442-.117.872-.351 1.289-.339.573-.834.963-1.485 1.172l-1.25.468c-.208.053-.416.079-.625.079-.312 0-.625-.092-.937-.274-.495-.312-.794-.755-.899-1.328-.52-2.812-1.34-5.703-2.46-8.672zm41.055 1.367c.052-.052.065-.091.039-.117-.026-.052-.052-.078-.078-.078h-6.641c-.052 0-.091.026-.117.078-.026.052-.026.104 0 .156.573.964 1.302 1.901 2.188 2.813.13.13.273.143.429.039 1.485-.912 2.878-1.875 4.18-2.891zm3.086-.195c-.026 0-.052.026-.078.078 0 .026.013.052.039.078l1.133.782c.442.338.664.794.664 1.367 0 .547-.235.963-.703 1.25-1.276.859-2.67 1.718-4.18 2.578-.052.052-.078.104-.078.156 0 .052.039.104.117.156 1.667.86 3.516 1.537 5.547 2.032.495.13.82.429.976.898.053.156.079.313.079.469 0 .286-.105.56-.313.82-.364.469-.716.964-1.055 1.484-.364.599-.846 1.029-1.445 1.29-.364.182-.729.273-1.094.273-.26 0-.52-.039-.781-.117-3.359-1.016-6.159-2.474-8.398-4.375-2.657-2.24-4.831-5.222-6.524-8.946-.078-.182-.208-.273-.39-.273h-3.36c-.208 0-.312.104-.312.312v6.719c0 .209.09.3.273.274 1.98-.287 3.659-.521 5.04-.703h.312c.495 0 .95.169 1.367.507.469.391.716.899.742 1.524l.039.508c.026.651-.169 1.237-.586 1.757-.416.495-.937.795-1.562.899-3.672.547-7.969 1.159-12.89 1.836-.105.026-.222.039-.352.039-.521 0-.99-.156-1.407-.469-.547-.364-.898-.859-1.054-1.484l-.196-.86c-.052-.156-.078-.312-.078-.468 0-.417.13-.795.39-1.133.365-.495.847-.781 1.446-.86.885-.078 1.615-.156 2.188-.234.208-.026.312-.143.312-.352v-7.539c0-.182-.104-.273-.312-.273h-3.868c-.625 0-1.171-.221-1.64-.664-.443-.469-.664-1.016-.664-1.641v-.468c0-.625.221-1.159.664-1.602.469-.469 1.015-.703 1.64-.703h3.946c.182 0 .273-.104.273-.313V94.438c0-.626.221-1.16.664-1.602.469-.469 1.016-.703 1.64-.703h21.016c.626 0 1.159.234 1.602.703.469.443.703.977.703 1.602v.117c0 .625-.234 1.172-.703 1.64-.443.443-.976.664-1.602.664h-17.03c-.21 0-.313.105-.313.313v.781c0 .182.104.274.312.274h16.133c.625 0 1.146.22 1.563.664.442.416.664.937.664 1.562s-.222 1.159-.664 1.602c-.417.416-.938.625-1.563.625H94.531c-.208 0-.312.091-.312.273v.703c0 .183.104.274.312.274h16.133c.625 0 1.146.221 1.563.664.442.416.664.937.664 1.562s-.222 1.159-.664 1.602c-.417.416-.938.625-1.563.625H94.531c-.208 0-.312.091-.312.273v.703c0 .209.104.313.312.313h21.446c.625 0 1.158.234 1.601.703.469.443.703.977.703 1.602v.468c0 .625-.234 1.172-.703 1.641-.443.443-.976.664-1.601.664h-1.602zm25.859-4.102c0 .651-.221 1.198-.664 1.641-.442.443-.989.664-1.64.664h-3.907c-.208 0-.325.104-.351.313 0 .182-.013.325-.039.429-.052.209-.013.378.117.508 1.458 1.485 3.333 3.568 5.625 6.25.443.521.664 1.12.664 1.797 0 .651-.195 1.237-.586 1.758l-1.055 1.328c-.338.391-.755.586-1.25.586h-.117c-.573-.026-1.015-.274-1.328-.742-1.068-1.615-2.252-3.282-3.555-5-.052-.052-.117-.065-.195-.039-.052 0-.091.026-.117.078-1.25 3.203-3.008 5.859-5.274 7.969-.39.364-.833.546-1.328.546h-.312c-.599-.078-1.12-.364-1.563-.859-.312-.365-.651-.716-1.015-1.055-.391-.416-.586-.911-.586-1.484 0-.599.221-1.107.664-1.524 2.838-2.682 4.635-6.197 5.39-10.546.027-.209-.065-.313-.273-.313h-3.906c-.651 0-1.198-.221-1.641-.664-.443-.443-.664-.99-.664-1.641v-.859c0-.651.221-1.198.664-1.641.443-.442.99-.664 1.641-.664h4.336c.208 0 .312-.104.312-.312V102.367c0-.182-.104-.273-.312-.273h-.157c-.182 0-.312.091-.39.273-.391.912-.794 1.758-1.211 2.539-.287.521-.729.834-1.328.938-.13.026-.261.039-.391.039-.443 0-.859-.143-1.25-.43-.286-.234-.586-.456-.898-.664-.521-.365-.847-.859-.977-1.484-.052-.183-.078-.365-.078-.547 0-.417.104-.82.313-1.211 1.067-2.031 1.927-4.518 2.578-7.461.13-.599.455-1.08.976-1.445.391-.26.808-.391 1.25-.391.13 0 .287.013.469.04l1.016.233c.625.105 1.119.43 1.484.977.234.365.352.755.352 1.172 0 .182-.013.365-.039.547-.105.416-.209.82-.313 1.21-.026.079-.026.144 0 .196.052.052.117.078.195.078h7.5c.625 0 1.159.234 1.602.703.469.443.703.977.703 1.602v.781c0 .625-.234 1.172-.703 1.641-.443.442-.977.664-1.602.664h-2.617c-.208 0-.312.091-.312.273v4.805c0 .208.104.312.312.312h3.477c.651 0 1.198.222 1.64.664.443.443.664.99.664 1.641v.859zm6.563 9.493c0 .208.104.312.312.312h3.711c.209 0 .313-.104.313-.312v-19.18c0-.182-.104-.273-.313-.273h-3.711c-.208 0-.312.091-.312.273v19.18zm-5.625-22.579c0-.65.221-1.197.664-1.64.443-.443.99-.664 1.641-.664h11.25c.651 0 1.197.221 1.64.664.443.443.664.99.664 1.64v28.126c0 .651-.221 1.197-.664 1.64-.443.443-.989.664-1.64.664h-1.719c-.521 0-.964-.182-1.328-.547-.365-.364-.547-.807-.547-1.328 0-.156-.078-.234-.235-.234h-3.789c-.208 0-.312.091-.312.273v.196c0 .625-.221 1.158-.664 1.601-.443.469-.99.703-1.641.703h-1.015c-.651 0-1.198-.234-1.641-.703-.443-.443-.664-.976-.664-1.601v-28.79zm29.531-4.609c.599 0 1.107.221 1.524.664.442.417.664.925.664 1.524 0 .572-.222 1.08-.664 1.523-.417.417-.925.625-1.524.625h-5.781c-.599 0-1.107-.208-1.524-.625-.416-.443-.625-.95-.625-1.523 0-.6.209-1.107.625-1.524.417-.443.925-.664 1.524-.664h5.781zm.82 5.469c.625 0 1.159.221 1.602.664.443.443.664.976.664 1.602 0 .624-.221 1.158-.664 1.601-.443.443-.977.664-1.602.664h-8.281c-.625 0-1.159-.221-1.601-.664-.417-.443-.625-.977-.625-1.601 0-.626.208-1.16.625-1.602.442-.443.976-.664 1.601-.664h8.281zm-.82 5.742c.599 0 1.107.208 1.524.625.442.417.664.925.664 1.523 0 .599-.222 1.107-.664 1.524-.417.417-.925.625-1.524.625h-5.937c-.599 0-1.107-.208-1.524-.625-.416-.417-.625-.925-.625-1.524 0-.598.209-1.106.625-1.523.417-.417.925-.625 1.524-.625h5.937zm-5.937 9.844c-.599 0-1.107-.209-1.524-.625-.416-.443-.625-.951-.625-1.524 0-.599.209-1.106.625-1.523.417-.443.925-.664 1.524-.664h5.937c.599 0 1.107.221 1.524.664.442.417.664.924.664 1.523 0 .573-.222 1.081-.664 1.524-.417.416-.925.625-1.524.625h-5.937zm3.789 6.094c0-.209-.091-.313-.274-.313h-1.172c-.208 0-.312.104-.312.313v2.812c0 .182.104.274.312.274h1.172c.183 0 .274-.092.274-.274v-2.812zm2.187-4.766c.625 0 1.159.221 1.602.664.468.443.703.99.703 1.641v7.734c0 .625-.235 1.159-.703 1.602-.443.468-.977.703-1.602.703h-3.789c-.104 0-.156.052-.156.156 0 .391-.13.716-.391.976-.26.261-.573.391-.937.391h-.86c-.599 0-1.119-.221-1.562-.664-.417-.417-.625-.924-.625-1.523v-9.375c0-.651.221-1.198.664-1.641.469-.443 1.016-.664 1.641-.664h6.015zm8.477 6.016c0 .182.091.273.273.273h2.11c.182 0 .273-.091.273-.273v-.821c0-.182-.091-.273-.273-.273h-2.11c-.182 0-.273.091-.273.273v.821zm2.656-5.899c0-.208-.091-.312-.273-.312h-2.11c-.182 0-.273.104-.273.312v.742c0 .183.091.274.273.274h2.11c.182 0 .273-.091.273-.274v-.742zm.039-15.351c0-.209-.091-.313-.273-.313h-2.227c-.078 0-.143.04-.195.117-.026.052-.026.104 0 .156.26.73.482 1.511.664 2.344.052.156.078.326.078.508 0 .443-.143.859-.43 1.25-.39.547-.911.898-1.562 1.055-.026 0-.039.013-.039.039l.039.039h4.961c.026 0 .039-.013.039-.039-.469-.104-.834-.339-1.094-.703-.208-.313-.313-.651-.313-1.016v-.273c.183-1.224.3-2.279.352-3.164zm11.641 13.515c.234-.547.638-.924 1.211-1.133.234-.078.468-.117.703-.117.312 0 .625.078.937.235l.235.156c.573.312.963.781 1.171 1.406.105.26.157.534.157.82 0 .339-.078.677-.235 1.016-.989 2.057-2.187 4.049-3.593 5.977-.131.156-.157.325-.079.507.339.782.717 1.172 1.133 1.172.287 0 .521-.599.703-1.797.053-.416.274-.69.664-.82.391-.13.743-.052 1.055.234.052.026.104.066.156.118.547.494.938 1.067 1.172 1.718.131.365.196.73.196 1.094 0 .287-.039.586-.118.899-.52 1.796-1.145 3.046-1.875 3.75-.703.677-1.419 1.015-2.148 1.015h-.117c-1.901-.156-3.373-1.276-4.414-3.359-.078-.182-.183-.209-.313-.078-.859.807-1.718 1.536-2.578 2.187-.417.287-.872.43-1.367.43-.104 0-.221-.013-.352-.039-.625-.078-1.158-.352-1.601-.82-.13-.105-.248-.209-.352-.313-.312-.313-.455-.69-.429-1.133.026-.443.221-.794.585-1.054.027-.027.027-.053 0-.079 0-.026-.013-.039-.039-.039h-4.687c-.078 0-.117.039-.117.118 0 .286-.104.52-.313.703-.208.208-.455.312-.742.312h-1.133c-.599 0-1.107-.208-1.523-.625-.417-.417-.625-.924-.625-1.523v-11.016c0-.625.221-1.159.664-1.601.443-.469.989-.704 1.641-.704h7.031c.625 0 1.159.235 1.601.704.469.442.703.976.703 1.601v9.844c0 .052.026.091.079.117.052.026.091.013.117-.039.677-.625 1.328-1.302 1.953-2.031.13-.157.182-.326.156-.508-.495-2.761-.82-6.341-.976-10.742 0-.209-.105-.313-.313-.313h-11.641c-.625 0-1.171-.221-1.64-.664-.443-.443-.664-.989-.664-1.641 0-.624.221-1.158.664-1.601.443-.443.976-.664 1.601-.664.209 0 .3-.104.274-.313-.026-.651-.117-1.367-.274-2.148-.026-.156-.039-.313-.039-.469 0-.443.118-.859.352-1.25.338-.547.807-.885 1.406-1.015l1.055-.235c.026 0 .039-.013.039-.039 0-.026-.013-.039-.039-.039h-2.149c-.573 0-1.067-.208-1.484-.625-.417-.417-.625-.911-.625-1.484 0-.6.208-1.107.625-1.524.417-.416.911-.625 1.484-.625h1.289c.209 0 .313-.104.313-.312v-1.133c0-.625.221-1.159.664-1.602.443-.468.99-.703 1.641-.703h.664c.625 0 1.159.235 1.601.703.469.443.703.977.703 1.602v1.133c0 .208.105.312.313.312h1.172c.599 0 1.107.209 1.523.625.417.417.625.925.625 1.524 0 .573-.208 1.067-.625 1.484-.416.417-.924.625-1.523.625h-1.602v.04l1.016.155c.599.105 1.068.417 1.406.938.234.364.352.742.352 1.133 0 .182-.026.364-.078.547-.079.312-.183.742-.313 1.289-.104.52-.182.885-.234 1.093-.052.209.026.313.234.313h1.797c.208 0 .299-.104.273-.313-.052-2.552-.078-6.158-.078-10.82 0-.625.222-1.159.664-1.602.443-.468.99-.69 1.641-.664h.312c.625 0 1.159.222 1.602.665.443.442.651.99.625 1.64v1.406c0 .079.026.144.078.196.052.026.104.026.156 0l1.094-.39c.339-.131.677-.196 1.016-.196.286 0 .586.052.898.156.651.208 1.133.612 1.445 1.21.547 1.017 1.016 2.045 1.407 3.087.104.286.156.56.156.82 0 .339-.078.664-.234.977-.287.599-.743 1.015-1.368 1.25l-.312.156c-.261.078-.508.117-.742.117-.313 0-.612-.065-.899-.195-.547-.287-.911-.716-1.094-1.289-.39-1.224-.885-2.435-1.484-3.633-.026-.052-.065-.065-.117-.04-.026 0-.039.014-.039.04-.026 1.745-.039 4.115-.039 7.109 0 .209.104.313.312.313h3.828c.651 0 1.198.221 1.641.664.443.443.664.99.664 1.641 0 .625-.221 1.158-.664 1.601-.443.443-.99.664-1.641.664h-3.75c-.208 0-.299.104-.273.313.078 2.057.156 3.659.234 4.804 0 .052.013.078.039.078.053 0 .092-.013.118-.039.234-.442.455-.911.664-1.406z"/>
</svg>
