<svg xmlns="http://www.w3.org/2000/svg" width="442" height="101" fill="none" viewBox="0 0 442 101">
    <path fill="#333" d="M36.805 54.46c.65 0 1.198.235 1.64.704.443.443.664.977.664 1.602v.586c0 .625-.221 1.171-.664 1.64-.442.443-.99.664-1.64.664H7.39c-.651 0-1.198-.221-1.641-.664-.443-.469-.664-1.015-.664-1.64v-.586c0-.625.221-1.16.664-1.602.443-.469.99-.703 1.64-.703h29.415zM18.719 77.353c.026-.183-.052-.274-.235-.274h-5.312c-.182 0-.287.091-.313.274-.468 3.255-1.197 6.028-2.187 8.32-.026.052-.026.104 0 .156.052.026.104.026.156 0 1.432-.443 2.643-.95 3.633-1.523.99-.573 1.758-1.224 2.305-1.953.573-.756 1.002-1.51 1.289-2.266.286-.755.508-1.667.664-2.734zm12.187-12.149c0-.182-.09-.273-.273-.273H13.602c-.183 0-.274.09-.274.273v1.094c0 .208.091.312.274.312h17.03c.183 0 .274-.104.274-.312v-1.094zm-10.078 7.383c.182 0 .274-.091.274-.273v-1.25c0-.209-.092-.313-.274-.313h-7.226c-.183 0-.274.104-.274.313 0 .13-.013.338-.039.624v.626c0 .182.091.273.274.273h7.265zm18.594.664c.443.443.664.977.664 1.602 0 .599-.221 1.12-.664 1.562-.443.443-.964.664-1.563.664H24.852c-.183 0-.287.091-.313.274-.078.494-.143.898-.195 1.21-.052.183.026.274.234.274h10.04c.624 0 1.158.234 1.6.703.365.39.548.86.548 1.406 0 4.193-.612 6.953-1.836 8.282-.782.807-1.927 1.302-3.438 1.484-.729.078-1.706.13-2.93.156h-.039c-.625 0-1.184-.221-1.68-.664-.494-.416-.833-.963-1.015-1.64-.052-.13-.091-.274-.117-.43-.078-.156-.117-.326-.117-.508 0-.287.09-.56.273-.82.287-.417.664-.625 1.133-.625l.04.039c.624.026 1.184.039 1.679.039.573 0 1.028-.143 1.367-.43.286-.234.52-1.016.703-2.344.026-.182-.052-.273-.234-.273H23.25c-.182 0-.326.078-.43.234-1.458 2.865-4.101 5.052-7.93 6.563-.286.104-.572.156-.859.156-.312 0-.625-.065-.937-.195-.6-.26-1.081-.677-1.446-1.25-.416-.625-.846-1.211-1.289-1.758-.13-.13-.247-.104-.351.078-.287.573-.612 1.12-.977 1.64-.338.522-.833.821-1.484.9h-.313c-.52 0-1.002-.157-1.445-.47-.365-.234-.742-.468-1.133-.703-.495-.312-.794-.755-.898-1.328-.026-.13-.04-.273-.04-.43 0-.39.118-.768.352-1.132.756-1.12 1.38-2.357 1.875-3.711.495-1.38.847-2.8 1.055-4.258.234-1.459.378-2.748.43-3.867.078-1.146.117-2.422.117-3.828v-6.758c0-.625.221-1.16.664-1.602.469-.469 1.016-.703 1.64-.703h24.493c.625 0 1.159.234 1.601.703.47.443.703.977.703 1.602v5.351c0 .651-.234 1.198-.703 1.64-.442.444-.976.665-1.601.665h-7.188c-.182 0-.273.104-.273.313v1.25c0 .182.091.273.273.273H37.86c.6 0 1.12.221 1.563.664zm13.008-6.719c-.651 0-1.198-.221-1.64-.664-.444-.469-.665-1.015-.665-1.64v-1.524c0-.078-.026-.13-.078-.156-.052-.026-.104-.026-.156 0-.443.312-.899.612-1.368.898-.442.26-.898.39-1.367.39-.156 0-.312-.012-.468-.038-.678-.13-1.238-.443-1.68-.938-.313-.312-.6-.612-.86-.898-.312-.313-.468-.677-.468-1.094v-.273c.078-.521.364-.912.86-1.172 2.994-1.51 5.507-3.281 7.538-5.313.495-.494 1.068-.82 1.719-.976.26-.078.534-.117.82-.117.39 0 .768.065 1.133.195l.938.352c.546.208.885.585 1.015 1.132.052.157.078.313.078.47 0 .364-.143.702-.43 1.015-.442.468-.924.963-1.445 1.484-.156.156-.234.326-.234.508v6.055c0 .625-.221 1.171-.664 1.64-.443.443-.99.664-1.64.664h-.938zm2.11 12.813c-.21 0-.313.104-.313.312v.586c0 .182.104.274.312.274h15.234c.209 0 .313-.092.313-.274v-.586c0-.208-.104-.312-.313-.312H54.54zm0-4.258c-.21 0-.313.091-.313.273v.547c0 .209.104.313.312.313h15.234c.209 0 .313-.104.313-.313v-.547c0-.182-.104-.273-.313-.273H54.54zm0-4.297c-.21 0-.313.104-.313.313v.507c0 .209.104.313.312.313h15.234c.209 0 .313-.104.313-.313v-.507c0-.209-.104-.313-.313-.313H54.54zm21.796-10.195c0-.052-.026-.104-.078-.157-.052-.078-.117-.117-.195-.117l-6.055.39c-.052 0-.091.027-.117.08 0 .051.013.09.039.116 1.51 1.25 3.15 1.875 4.922 1.875.468 0 .807-.143 1.015-.43.209-.312.365-.898.469-1.757zm-.39 20.937c0 .651-.222 1.198-.665 1.64-.443.444-.99.665-1.64.665h-3.32c-.027 0-.04.013-.04.039 0 .026.013.052.04.078 3.41 1.38 6.106 2.526 8.085 3.438.39.182.573.481.547.898-.026.443-.234.742-.625.898l-2.578.938c-.547.208-1.094.313-1.64.313-.834 0-1.667-.235-2.5-.704-1.772-.99-3.725-1.953-5.86-2.89-.443-.182-.664-.534-.664-1.055 0-.417.195-.73.586-.937l1.523-.86c.026-.026.026-.052 0-.078 0-.052-.013-.078-.039-.078H57.04c-.026 0-.039.026-.039.078 0 .026.013.04.04.04l1.25.585c.494.208.741.586.741 1.133 0 .443-.195.781-.586 1.016-2.448 1.328-5.286 2.525-8.515 3.593-.365.104-.73.156-1.094.156-.313 0-.625-.039-.938-.117-.677-.182-1.263-.533-1.757-1.054l-1.016-1.016c-.156-.156-.26-.338-.313-.547-.026-.104-.039-.208-.039-.312 0-.105.013-.196.04-.274.052-.208.143-.39.273-.547.156-.156.352-.247.586-.273 2.943-.651 5.482-1.432 7.617-2.344.026 0 .04-.013.04-.039 0-.052-.027-.078-.079-.078h-2.305c-.625 0-1.172-.221-1.64-.664-.443-.443-.664-.99-.664-1.64V69.733c0-.625.221-1.158.664-1.601.468-.469 1.015-.703 1.64-.703h20.196c0-.026-.013-.052-.04-.078-3.28-.886-5.91-2.865-7.89-5.938-.104-.156-.26-.234-.469-.234l-3.633.195c-.026.026-.065.04-.117.04-.547 0-1.028-.183-1.445-.548-.443-.39-.703-.885-.781-1.484v-.235c0-.468.156-.898.468-1.289.391-.442.873-.677 1.446-.703L60.906 57c.183 0 .248-.091.196-.273-.157-.521-.287-1.068-.391-1.641-.026-.156-.04-.3-.04-.43 0-.416.157-.807.47-1.172.39-.468.898-.703 1.523-.703h.742c.651 0 1.224.222 1.719.664.52.417.872.95 1.055 1.602.156.469.325.924.507 1.367.079.182.209.26.391.234l3.79-.195c.025 0 .038-.013.038-.039 0-.026-.013-.052-.039-.078-.52-.182-.99-.339-1.406-.469-.417-.13-.69-.39-.82-.781-.105-.417-.013-.781.273-1.094.417-.442.898-.755 1.445-.937.313-.105.625-.157.938-.157.234 0 .482.04.742.118 1.25.312 2.435.69 3.555 1.132.364.13.586.404.664.82.078.391-.013.743-.274 1.055-.026 0-.026.026 0 .079.026.026.053.039.079.039l1.523-.078h.117c.521 0 .99.169 1.406.507.443.39.69.873.743 1.446.026.078.039.156.039.234 0 .469-.157.885-.47 1.25-.364.443-.833.677-1.405.703l-1.29.078c-.052.026-.09.065-.117.117 0 .026.026.052.079.079.468.338 1.054.664 1.757.976.625.287 1.107.716 1.446 1.29.208.338.312.702.312 1.093 0 .208-.039.43-.117.664-.339 1.068-.807 1.849-1.406 2.344-.6.469-1.407.781-2.422.937-.209.026-.313.13-.313.313V81.53zm22.968-26.758c0-.625.221-1.158.664-1.601.469-.469 1.016-.703 1.641-.703h1.797c.625 0 1.158.234 1.601.703.469.443.703.976.703 1.601V82.86c0 1.667-.208 2.943-.625 3.829-.416.885-1.133 1.575-2.148 2.07-1.328.625-3.542.976-6.64 1.055h-.079c-.625 0-1.185-.209-1.68-.626-.546-.416-.924-.95-1.132-1.601-.183-.573-.404-1.159-.664-1.758-.105-.182-.157-.377-.157-.586 0-.234.078-.469.235-.703.26-.417.625-.625 1.093-.625h.079c.755.026 1.47.04 2.148.04.677 0 1.315-.014 1.914-.04.469 0 .794-.078.977-.234.182-.183.273-.47.273-.86V54.773zm10.625 10.43c-.13-.286-.195-.586-.195-.898 0-.26.052-.521.156-.782.208-.573.599-.963 1.172-1.171l1.406-.547c.313-.105.612-.157.899-.157.312 0 .625.066.937.196.625.208 1.094.612 1.406 1.21 1.276 2.423 2.448 4.91 3.516 7.462.963 2.343 1.719 4.466 2.266 6.367.052.234.078.456.078.664 0 .39-.091.781-.274 1.172-.312.573-.781.976-1.406 1.21l-2.109.86c-.235.078-.469.117-.703.117-.313 0-.612-.078-.899-.234-.521-.287-.846-.73-.977-1.328-.442-1.875-1.119-4.01-2.031-6.406-.963-2.657-2.044-5.235-3.242-7.735zm-21.484-1.445c.13-.625.455-1.12.976-1.485.39-.286.82-.43 1.29-.43.13 0 .26.014.39.04l2.11.351c.624.105 1.106.417 1.445.938.234.364.351.755.351 1.172 0 .182-.013.364-.039.547-1.458 6.041-3.112 10.69-4.96 13.945-.287.547-.743.885-1.368 1.016-.182.026-.365.039-.547.039-.443 0-.86-.118-1.25-.352-.52-.312-1.08-.599-1.68-.86-.52-.26-.872-.676-1.054-1.25-.052-.208-.078-.403-.078-.585 0-.365.09-.703.273-1.016.885-1.536 1.68-3.333 2.383-5.39.755-2.266 1.341-4.493 1.758-6.68zm64.687 1.953c0-.208-.091-.313-.273-.313h-2.617c-.183 0-.261.092-.235.274.443 2.526.977 4.74 1.602 6.64.026.053.052.079.078.079.052 0 .091-.026.117-.079.573-2.005 1.016-4.205 1.328-6.601zm-15.312 3.672h.234c.182-.052.365-.078.547-.078.417 0 .794.143 1.133.43l.547.43c.104.077.195.064.273-.04.469-.625.925-1.276 1.367-1.953.026-.052.026-.104 0-.156-.026-.053-.078-.079-.156-.079h-3.398c-.209 0-.365.066-.469.196-.391.469-.69.82-.899 1.055-.052.025-.065.065-.039.117.026.052.065.078.118.078h.742zm-3.164-8.438c-.209 0-.313.105-.313.313v1.406c0 .208.104.313.313.313h.156c.208 0 .364-.079.469-.235.39-.52.742-1.028 1.054-1.523.052-.052.052-.104 0-.157-.026-.078-.065-.117-.117-.117h-1.562zm26.718 2.422c0 .573-.195 1.055-.586 1.446-.39.39-.859.585-1.406.585-.182 0-.286.092-.312.274-.756 5.573-2.032 10.17-3.828 13.789-.079.182-.066.352.039.508 1.354 1.875 2.89 3.411 4.609 4.61.469.312.742.754.82 1.327.026.104.039.196.039.274 0 .468-.156.885-.468 1.25-.417.468-.808.963-1.172 1.484-.391.52-.899.846-1.524.977-.156.052-.312.078-.468.078-.417 0-.821-.143-1.211-.43-1.537-1.172-2.943-2.591-4.219-4.258-.13-.156-.248-.169-.352-.039-1.614 1.797-3.541 3.346-5.781 4.649-.338.208-.69.312-1.055.312-.234 0-.455-.039-.664-.117-.599-.208-1.067-.586-1.406-1.133-.26-.469-.547-.937-.859-1.406-.235-.339-.352-.703-.352-1.094 0-.156.026-.325.078-.508.13-.547.456-.963.977-1.25 2.396-1.276 4.362-2.93 5.898-4.96.13-.13.157-.287.078-.47-.781-1.874-1.484-3.919-2.109-6.132-.026-.052-.065-.078-.117-.078-.026 0-.052.013-.078.039-.287.443-.69.677-1.211.703h-.117c-.495 0-.925-.17-1.289-.508-.417-.417-.86-.807-1.329-1.172-.13-.13-.26-.117-.39.04-1.511 1.822-3.203 3.54-5.078 5.156-.105.078-.157.182-.157.312 0 .104.065.156.196.156l2.109-.117c.938-.078 1.654-.143 2.149-.195h.156c.547 0 1.028.195 1.445.586.443.416.664.937.664 1.562v.313c0 .65-.221 1.224-.664 1.718-.417.47-.95.73-1.601.782-.912.078-2.292.182-4.141.312-.208 0-.313.104-.313.313v2.5c0 1.25-.143 2.213-.429 2.89-.261.677-.782 1.198-1.563 1.563-.937.443-2.187.703-3.75.781h-.156c-.599 0-1.133-.195-1.602-.586-.52-.416-.885-.95-1.093-1.601-.052-.183-.118-.365-.196-.547-.052-.183-.078-.365-.078-.547 0-.313.091-.612.274-.899.286-.442.69-.664 1.211-.664h1.289c.26 0 .429-.039.507-.117.105-.078.157-.221.157-.43v-1.914c0-.182-.091-.273-.274-.273l-4.57.352h-.195c-.573 0-1.081-.183-1.524-.547-.495-.417-.781-.95-.859-1.602l-.039-.508v-.273c0-.521.169-.99.508-1.406.39-.47.898-.717 1.523-.743 3.125-.182 4.844-.286 5.156-.312.183 0 .274-.104.274-.313v-1.093c0-.417.143-.769.429-1.055.287-.287.638-.43 1.055-.43.13 0 .247-.039.352-.117l1.093-1.094c.026-.052.026-.104 0-.156 0-.052-.026-.078-.078-.078h-1.367c-.182 0-.351.065-.508.195-1.067.86-2.2 1.68-3.398 2.461-.417.235-.847.352-1.289.352-.156 0-.326-.013-.508-.04-.625-.13-1.159-.442-1.602-.937-.26-.338-.533-.664-.82-.976-.312-.339-.469-.73-.469-1.172 0-.078.013-.182.039-.313.078-.547.365-.963.86-1.25.729-.416 1.432-.86 2.109-1.328.104-.052.156-.13.156-.234 0-.313.118-.586.352-.82.234-.261.521-.391.859-.391h.43c.156 0 .286-.04.391-.117.599-.47 1.054-.847 1.367-1.133.052-.052.065-.091.039-.117-.026-.053-.065-.079-.117-.079h-4.375c-.651 0-1.198-.22-1.641-.664-.443-.468-.664-1.015-.664-1.64v-.352c0-.65.221-1.198.664-1.64.443-.443.99-.664 1.641-.664h2.734c.208 0 .313-.105.313-.313v-1.406c0-.209-.105-.313-.313-.313h-1.523c-.625 0-1.172-.221-1.641-.664-.443-.442-.664-.99-.664-1.64v-.235c0-.625.221-1.159.664-1.601.469-.47 1.016-.703 1.641-.703h1.523c.208 0 .313-.092.313-.274v-.742c0-.625.221-1.159.664-1.602.468-.468 1.015-.703 1.64-.703h.742c.651 0 1.198.235 1.641.703.443.443.664.977.664 1.602v.742c0 .182.104.274.313.274h.703c.651 0 1.198.234 1.64.703.443.442.664.976.664 1.601v.274c0 .026.013.052.039.078.053 0 .092-.013.118-.04.468-.859.911-1.783 1.328-2.773.286-.599.716-1.041 1.289-1.328.364-.182.729-.273 1.094-.273.234 0 .468.026.703.078l.937.273c.599.157 1.029.521 1.289 1.094.131.286.196.573.196.86 0 .26-.052.52-.157.78-.833 1.876-1.77 3.66-2.812 5.352-.052.13-.026.196.078.196.417 0 .768.143 1.055.43.312.286.468.637.468 1.054v.82c0 .026.013.052.04.078.026 0 .052-.026.078-.078 1.276-2.89 2.252-6.302 2.929-10.234.131-.625.443-1.133.938-1.524.416-.286.859-.43 1.328-.43.13 0 .26.014.391.04l1.328.195c.625.104 1.119.404 1.484.899.287.39.43.82.43 1.289 0 .13-.013.273-.039.43-.261 1.275-.547 2.551-.86 3.827-.052.183.026.274.235.274h7.5c.651 0 1.198.221 1.64.664.443.443.664.99.664 1.64v1.016zm26.328 4.297c.027-.026.027-.052 0-.078 0-.052-.013-.078-.039-.078h-6.718c-.183 0-.326.091-.43.273-.208.39-.599 1.055-1.172 1.992-.026.079-.026.144 0 .196.026.052.078.078.156.078l7.579-.117c.026 0 .039-.013.039-.04.026-.052.026-.09 0-.117-.287-.234-.417-.533-.391-.898.026-.39.195-.69.508-.898l.468-.313zm6.641-6.953c0-.208-.091-.313-.273-.313h-23.516c-.182 0-.273.105-.273.313v1.602c0 .182.091.273.273.273h23.516c.182 0 .273-.091.273-.273V60.71zm-9.062 23.633c0 .208.091.312.273.312h12.5c.625 0 1.159.222 1.602.664.468.443.703.99.703 1.64v.47c0 .625-.235 1.158-.703 1.601-.443.469-.977.703-1.602.703H166.57c-.625 0-1.172-.234-1.64-.703-.443-.443-.664-.976-.664-1.601v-.47c0-.65.221-1.197.664-1.64.468-.442 1.015-.664 1.64-.664h12.032c.182 0 .273-.104.273-.312v-1.406c0-.209-.091-.313-.273-.313h-8.555c-.625 0-1.172-.221-1.641-.664-.442-.443-.664-.99-.664-1.64v-.352c0-.625.222-1.16.664-1.602.469-.469 1.016-.703 1.641-.703h8.555c.182 0 .273-.091.273-.273v-2.07c0-.183-.091-.274-.273-.274-1.719.052-4.727.13-9.024.234h-.039c-.625 0-1.159-.221-1.601-.664-.469-.416-.717-.95-.743-1.601l-.039-.547c-.026-.625.183-1.16.625-1.602.443-.469.977-.716 1.602-.742h3.008c.182 0 .325-.091.429-.273.235-.547.508-1.237.821-2.07.026-.053.013-.105-.039-.157-.026-.078-.066-.117-.118-.117h-2.304c-.625 0-1.172-.221-1.641-.664-.443-.443-.664-.99-.664-1.64v-.821c0-.209-.091-.313-.273-.313h-2.11c-.625 0-1.172-.221-1.64-.664-.443-.442-.664-.99-.664-1.64v-4.297c0-.651.221-1.198.664-1.64.468-.444 1.015-.665 1.64-.665h12.11c.182 0 .273-.091.273-.273 0-.573.195-1.055.586-1.446.417-.39.911-.586 1.484-.586h1.875c.573 0 1.055.196 1.446.586.416.39.625.873.625 1.446 0 .182.078.273.234.273h12.5c.625 0 1.159.221 1.602.664.468.443.703.99.703 1.64v4.298c0 .65-.235 1.198-.703 1.64-.443.443-.977.664-1.602.664h-2.148c-.183 0-.274.105-.274.313v.82c0 .651-.234 1.198-.703 1.64-.443.444-.977.665-1.602.665h-.937c-.052 0-.091.026-.117.078 0 .052.026.091.078.117 1.901 1.563 3.489 2.982 4.766 4.258.364.39.546.82.546 1.289v.273c-.078.625-.377 1.107-.898 1.446l-.742.508c-.417.26-.86.39-1.328.39-.157 0-.3-.013-.43-.039-.625-.078-1.159-.365-1.602-.86-.052-.025-.091-.064-.117-.116-.13-.13-.286-.196-.469-.196-2.89.104-5.052.17-6.484.196-.182.026-.273.13-.273.312v2.227c0 .182.091.273.273.273h9.492c.625 0 1.159.234 1.602.703.469.443.703.977.703 1.602v.351c0 .651-.234 1.198-.703 1.64-.443.444-.977.665-1.602.665h-9.492c-.182 0-.273.104-.273.313v1.406zm33.164-8.594c-1.094-1.094-1.641-2.409-1.641-3.945 0-1.537.547-2.852 1.641-3.946 1.093-1.093 2.409-1.64 3.945-1.64s2.852.547 3.945 1.64c1.094 1.094 1.641 2.41 1.641 3.946s-.547 2.851-1.641 3.945c-1.093 1.094-2.409 1.64-3.945 1.64s-2.852-.546-3.945-1.64zm34.375-9.219c-.651 0-1.198-.221-1.641-.664-.443-.469-.664-1.015-.664-1.64v-1.524c0-.078-.026-.13-.078-.156-.052-.026-.104-.026-.156 0-.443.312-.899.612-1.368.898-.442.26-.898.39-1.367.39-.156 0-.312-.012-.468-.038-.678-.13-1.237-.443-1.68-.938-.313-.312-.599-.612-.86-.898-.312-.313-.468-.677-.468-1.094v-.273c.078-.521.364-.912.859-1.172 2.995-1.51 5.508-3.281 7.539-5.313.495-.494 1.068-.82 1.719-.976.26-.078.534-.117.82-.117.391 0 .768.065 1.133.195l.938.352c.546.208.885.585 1.015 1.132.052.157.078.313.078.47 0 .364-.143.702-.429 1.015-.443.468-.925.963-1.446 1.484-.156.156-.234.326-.234.508v6.055c0 .625-.221 1.171-.664 1.64-.443.443-.99.664-1.641.664h-.937zm2.109 12.813c-.208 0-.312.104-.312.312v.586c0 .182.104.274.312.274h15.234c.209 0 .313-.092.313-.274v-.586c0-.208-.104-.312-.313-.312h-15.234zm0-4.258c-.208 0-.312.091-.312.273v.547c0 .209.104.313.312.313h15.234c.209 0 .313-.104.313-.313v-.547c0-.182-.104-.273-.313-.273h-15.234zm0-4.297c-.208 0-.312.104-.312.313v.507c0 .209.104.313.312.313h15.234c.209 0 .313-.104.313-.313v-.507c0-.209-.104-.313-.313-.313h-15.234zm21.797-10.195c0-.052-.026-.104-.078-.157-.052-.078-.117-.117-.196-.117l-6.054.39c-.052 0-.091.027-.117.08 0 .051.013.09.039.116 1.51 1.25 3.151 1.875 4.922 1.875.468 0 .807-.143 1.015-.43.209-.312.365-.898.469-1.757zm-.391 20.937c0 .651-.221 1.198-.664 1.64-.442.444-.989.665-1.64.665h-3.321c-.026 0-.039.013-.039.039 0 .026.013.052.039.078 3.412 1.38 6.107 2.526 8.086 3.438.391.182.573.481.547.898-.026.443-.234.742-.625.898l-2.578.938c-.547.208-1.094.313-1.641.313-.833 0-1.666-.235-2.5-.704-1.77-.99-3.724-1.953-5.859-2.89-.443-.182-.664-.534-.664-1.055 0-.417.195-.73.586-.937l1.523-.86c.026-.026.026-.052 0-.078 0-.052-.013-.078-.039-.078h-10.117c-.026 0-.039.026-.039.078 0 .026.013.04.039.04l1.25.585c.495.208.742.586.742 1.133 0 .443-.195.781-.586 1.016-2.448 1.328-5.286 2.525-8.515 3.593-.365.104-.729.156-1.094.156-.313 0-.625-.039-.938-.117-.677-.182-1.263-.533-1.757-1.054l-1.016-1.016c-.156-.156-.26-.338-.313-.547-.026-.104-.039-.208-.039-.312 0-.105.013-.196.039-.274.053-.208.144-.39.274-.547.156-.156.352-.247.586-.273 2.943-.651 5.482-1.432 7.617-2.344.026 0 .039-.013.039-.039 0-.052-.026-.078-.078-.078h-2.305c-.625 0-1.172-.221-1.64-.664-.443-.443-.664-.99-.664-1.64V69.733c0-.625.221-1.158.664-1.601.468-.469 1.015-.703 1.64-.703h20.196c0-.026-.013-.052-.039-.078-3.282-.886-5.912-2.865-7.891-5.938-.104-.156-.26-.234-.469-.234l-3.633.195c-.026.026-.065.04-.117.04-.547 0-1.028-.183-1.445-.548-.443-.39-.703-.885-.781-1.484v-.235c0-.468.156-.898.468-1.289.391-.442.873-.677 1.446-.703l2.226-.156c.183 0 .248-.091.196-.273-.157-.521-.287-1.068-.391-1.641-.026-.156-.039-.3-.039-.43 0-.416.156-.807.469-1.172.39-.468.898-.703 1.523-.703h.742c.651 0 1.224.222 1.719.664.521.417.872.95 1.055 1.602.156.469.325.924.508 1.367.078.182.208.26.39.234l3.789-.195c.026 0 .039-.013.039-.039 0-.026-.013-.052-.039-.078-.521-.182-.989-.339-1.406-.469-.417-.13-.69-.39-.82-.781-.105-.417-.013-.781.273-1.094.417-.442.898-.755 1.445-.937.313-.105.625-.157.938-.157.234 0 .482.04.742.118 1.25.312 2.435.69 3.555 1.132.364.13.586.404.664.82.078.391-.013.743-.274 1.055-.026 0-.026.026 0 .079.026.026.052.039.078.039l1.524-.078h.117c.521 0 .99.169 1.406.507.443.39.69.873.743 1.446.026.078.039.156.039.234 0 .469-.157.885-.469 1.25-.365.443-.833.677-1.406.703l-1.289.078c-.053.026-.092.065-.118.117 0 .026.026.052.079.079.468.338 1.054.664 1.757.976.625.287 1.107.716 1.446 1.29.208.338.312.702.312 1.093 0 .208-.039.43-.117.664-.339 1.068-.807 1.849-1.406 2.344-.599.469-1.407.781-2.422.937-.209.026-.313.13-.313.313V81.53zm14.102-26.406c.26-.599.677-1.042 1.25-1.328.338-.182.69-.274 1.055-.274.234 0 .481.04.742.118l1.054.351c.599.183 1.042.56 1.329 1.133.13.286.195.586.195.898 0 .26-.052.521-.156.782-.808 1.927-1.693 3.815-2.657 5.664-.104.156-.156.338-.156.547v25.43c0 .65-.221 1.197-.664 1.64-.443.443-.99.664-1.641.664h-.898c-.625 0-1.172-.221-1.641-.664-.442-.443-.664-.99-.664-1.64V71.608c0-.052-.026-.078-.078-.078-.026-.026-.065-.026-.117 0-.078.104-.156.222-.234.352-.287.312-.638.469-1.055.469h-.234c-.521-.105-.899-.391-1.133-.86-.339-.703-.677-1.38-1.016-2.031-.234-.469-.351-.977-.351-1.523v-.391c.078-.677.338-1.276.781-1.797 2.526-3.02 4.622-6.563 6.289-10.625zm7.812 18.281c.157-.625.508-1.107 1.055-1.445.365-.26.768-.39 1.211-.39.156 0 .326.012.508.038l1.094.235c.625.13 1.106.469 1.445 1.015.234.365.351.743.351 1.133 0 .182-.026.378-.078.586-.911 3.438-2.083 6.471-3.515 9.102-.287.52-.729.846-1.328.976-.157.026-.313.04-.469.04-.443 0-.86-.13-1.25-.391-.339-.209-.69-.43-1.055-.664-.495-.313-.82-.769-.976-1.368-.026-.182-.04-.364-.04-.546 0-.391.105-.769.313-1.133 1.12-1.98 2.031-4.375 2.734-7.188zm17.032-8.086c.026-.182-.065-.273-.274-.273h-3.555c-.208 0-.312.091-.312.273v19.14c0 1.407-.143 2.514-.43 3.321-.286.807-.82 1.446-1.601 1.914-1.016.573-2.344.925-3.985 1.055h-.195c-.573 0-1.094-.182-1.562-.547-.521-.416-.873-.95-1.055-1.601-.156-.495-.326-.99-.508-1.485-.078-.208-.117-.404-.117-.586 0-.286.091-.56.273-.82.287-.443.69-.664 1.211-.664h1.485c.286 0 .481-.04.586-.117.104-.105.156-.287.156-.547V65.32c0-.182-.104-.273-.313-.273h-3.242c-.182 0-.325.078-.43.234-.703 1.302-1.432 2.513-2.187 3.633-.365.495-.859.768-1.484.82-.053.026-.118.04-.196.04-.547 0-1.015-.183-1.406-.547-.391-.313-.768-.625-1.133-.938-.495-.365-.768-.86-.82-1.484-.026-.105-.039-.196-.039-.274 0-.495.156-.95.469-1.367 2.005-2.708 3.632-6.055 4.882-10.039.183-.599.547-1.068 1.094-1.406.391-.235.794-.352 1.211-.352.182 0 .365.026.547.078l1.25.274c.599.156 1.055.495 1.367 1.015.208.339.313.69.313 1.055 0 .208-.039.43-.118.664-.338 1.042-.69 2.031-1.054 2.969-.026.052-.026.117 0 .195.052.052.104.078.156.078h12.109c.052 0 .118-.013.196-.039.26-.052.521-.078.781-.078s.521.026.781.078l1.289.235c.573.104 1.029.39 1.367.859.287.365.43.768.43 1.21 0 .131-.013.248-.039.352-.26 1.823-.586 3.66-.977 5.508-.104.625-.429 1.12-.976 1.485-.391.286-.82.43-1.289.43-.156 0-.313-.014-.469-.04l-.39-.078c-.652-.13-1.159-.456-1.524-.976-.312-.417-.469-.886-.469-1.407v-.312c.078-.547.144-1.08.196-1.602zm-2.657 9.258c-.104-.286-.156-.56-.156-.82 0-.313.065-.612.195-.899.261-.572.691-.963 1.289-1.171l.821-.274c.286-.104.56-.156.82-.156.339 0 .677.078 1.016.234.599.26 1.028.69 1.289 1.29 1.146 2.812 2.031 5.65 2.656 8.515.052.182.078.365.078.547 0 .443-.117.872-.351 1.289-.339.573-.834.963-1.485 1.172l-1.25.468c-.208.053-.416.079-.625.079-.312 0-.625-.092-.937-.274-.495-.312-.795-.755-.899-1.328-.521-2.813-1.341-5.703-2.461-8.672zm41.055 1.367c.052-.052.065-.09.039-.117-.026-.052-.052-.078-.078-.078h-6.641c-.052 0-.091.026-.117.078-.026.052-.026.104 0 .156.573.964 1.302 1.901 2.188 2.813.13.13.273.143.429.039 1.485-.912 2.878-1.875 4.18-2.89zm3.086-.195c-.026 0-.052.026-.078.078 0 .026.013.052.039.078l1.133.781c.442.339.664.795.664 1.368 0 .547-.235.963-.703 1.25-1.276.86-2.67 1.718-4.18 2.578-.052.052-.078.104-.078.156 0 .052.039.104.117.156 1.667.86 3.516 1.537 5.547 2.032.495.13.82.43.976.898.053.156.079.313.079.469 0 .286-.105.56-.313.82-.364.469-.716.964-1.055 1.484-.364.6-.846 1.03-1.445 1.29-.364.182-.729.273-1.094.273-.26 0-.52-.04-.781-.117-3.359-1.016-6.159-2.474-8.398-4.375-2.657-2.24-4.831-5.222-6.524-8.946-.078-.182-.208-.273-.39-.273h-3.36c-.208 0-.312.104-.312.313v6.718c0 .209.091.3.273.274 1.979-.287 3.659-.521 5.039-.703h.313c.495 0 .95.169 1.367.507.469.391.716.899.742 1.524l.039.508c.026.65-.169 1.237-.586 1.757-.416.495-.937.795-1.562.899-3.672.547-7.969 1.159-12.891 1.836-.104.026-.221.039-.351.039-.521 0-.99-.156-1.407-.469-.547-.365-.898-.86-1.054-1.484l-.196-.86c-.052-.156-.078-.312-.078-.468 0-.417.13-.795.391-1.133.364-.495.846-.781 1.445-.86.886-.078 1.615-.156 2.188-.234.208-.026.312-.143.312-.352v-7.539c0-.182-.104-.273-.312-.273h-3.868c-.625 0-1.171-.221-1.64-.664-.443-.469-.664-1.016-.664-1.64v-.47c0-.624.221-1.158.664-1.601.469-.469 1.015-.703 1.64-.703h3.946c.182 0 .273-.104.273-.313V55.438c0-.626.222-1.16.664-1.602.469-.469 1.016-.703 1.641-.703h21.015c.626 0 1.159.234 1.602.703.469.443.703.977.703 1.602v.117c0 .625-.234 1.172-.703 1.64-.443.443-.976.664-1.602.664h-17.031c-.208 0-.312.105-.312.313v.781c0 .182.104.274.312.274h16.133c.625 0 1.146.22 1.563.664.442.416.664.937.664 1.562s-.222 1.159-.664 1.602c-.417.416-.938.625-1.563.625h-16.133c-.208 0-.312.09-.312.273v.703c0 .182.104.274.312.274h16.133c.625 0 1.146.221 1.563.664.442.416.664.937.664 1.562s-.222 1.16-.664 1.602c-.417.416-.938.625-1.563.625h-16.133c-.208 0-.312.091-.312.273v.703c0 .209.104.313.312.313h21.446c.625 0 1.158.234 1.601.703.469.443.703.977.703 1.602v.468c0 .625-.234 1.172-.703 1.64-.443.444-.976.665-1.601.665h-1.602zm25.859-4.102c0 .651-.221 1.198-.664 1.641-.442.443-.989.664-1.64.664h-3.907c-.208 0-.325.104-.351.313 0 .182-.013.325-.039.43-.052.208-.013.377.117.507 1.458 1.484 3.333 3.568 5.625 6.25.443.521.664 1.12.664 1.797 0 .651-.195 1.237-.586 1.758l-1.055 1.328c-.338.39-.755.586-1.25.586h-.117c-.573-.026-1.015-.274-1.328-.742-1.068-1.615-2.252-3.282-3.555-5-.052-.052-.117-.065-.195-.04-.052 0-.091.027-.117.079-1.25 3.203-3.008 5.86-5.274 7.969-.39.364-.833.546-1.328.546h-.312c-.599-.078-1.12-.364-1.563-.859-.312-.365-.651-.716-1.015-1.055-.391-.416-.586-.911-.586-1.484 0-.599.221-1.107.664-1.523 2.838-2.683 4.635-6.198 5.39-10.547.027-.209-.065-.313-.273-.313h-3.906c-.651 0-1.198-.221-1.641-.664-.443-.443-.664-.99-.664-1.64v-.86c0-.651.221-1.198.664-1.64.443-.443.99-.665 1.641-.665h4.336c.208 0 .312-.104.312-.312V63.367c0-.182-.104-.273-.312-.273h-.157c-.182 0-.312.09-.39.273-.391.912-.794 1.758-1.211 2.54-.287.52-.729.833-1.328.937-.13.026-.261.039-.391.039-.443 0-.859-.143-1.25-.43-.286-.234-.586-.456-.898-.664-.521-.365-.847-.86-.977-1.484-.052-.183-.078-.365-.078-.547 0-.417.104-.82.313-1.211 1.067-2.031 1.927-4.518 2.578-7.461.13-.599.455-1.08.976-1.445.391-.26.808-.391 1.25-.391.13 0 .287.013.469.04l1.016.233c.625.105 1.119.43 1.484.977.234.365.352.755.352 1.172 0 .182-.013.364-.039.547-.105.416-.209.82-.313 1.21-.026.079-.026.144 0 .196.052.052.117.078.195.078h7.5c.625 0 1.159.234 1.602.703.469.443.703.977.703 1.602v.781c0 .625-.234 1.172-.703 1.64-.443.443-.977.665-1.602.665h-2.617c-.208 0-.312.09-.312.273V68.171c0 .21.104.313.312.313h3.477c.651 0 1.198.222 1.64.664.443.443.664.99.664 1.641v.86zm6.563 9.493c0 .208.104.312.312.312h3.711c.209 0 .313-.104.313-.312V61.96c0-.182-.104-.273-.313-.273h-3.711c-.208 0-.312.09-.312.273v19.18zm-5.625-22.579c0-.65.221-1.197.664-1.64.443-.443.99-.664 1.641-.664h11.25c.651 0 1.197.221 1.64.664.443.443.664.99.664 1.64v28.126c0 .65-.221 1.197-.664 1.64-.443.443-.989.664-1.64.664h-1.719c-.521 0-.964-.182-1.328-.547-.365-.364-.547-.807-.547-1.328 0-.156-.078-.234-.235-.234h-3.789c-.208 0-.312.091-.312.273v.196c0 .625-.221 1.158-.664 1.601-.443.469-.99.703-1.641.703h-1.015c-.651 0-1.198-.234-1.641-.703-.443-.443-.664-.976-.664-1.601v-28.79zm29.531-4.609c.599 0 1.107.221 1.524.664.442.417.664.925.664 1.524 0 .573-.222 1.08-.664 1.523-.417.417-.925.625-1.524.625h-5.781c-.599 0-1.107-.208-1.524-.625-.416-.443-.625-.95-.625-1.523 0-.6.209-1.107.625-1.524.417-.442.925-.664 1.524-.664h5.781zm.82 5.469c.625 0 1.159.221 1.602.664.443.443.664.977.664 1.602 0 .624-.221 1.158-.664 1.601-.443.443-.977.664-1.602.664h-8.281c-.625 0-1.159-.221-1.601-.664-.417-.443-.625-.977-.625-1.602 0-.624.208-1.158.625-1.601.442-.443.976-.664 1.601-.664h8.281zm-.82 5.742c.599 0 1.107.208 1.524.625.442.417.664.924.664 1.523 0 .6-.222 1.107-.664 1.524-.417.417-.925.625-1.524.625h-5.937c-.599 0-1.107-.208-1.524-.625-.416-.417-.625-.924-.625-1.523 0-.6.209-1.107.625-1.524.417-.417.925-.625 1.524-.625h5.937zm-5.937 9.844c-.599 0-1.107-.209-1.524-.625-.416-.443-.625-.95-.625-1.524 0-.599.209-1.106.625-1.523.417-.443.925-.664 1.524-.664h5.937c.599 0 1.107.221 1.524.664.442.417.664.924.664 1.523 0 .573-.222 1.081-.664 1.524-.417.416-.925.625-1.524.625h-5.937zm3.789 6.094c0-.209-.091-.313-.274-.313h-1.172c-.208 0-.312.104-.312.313v2.812c0 .182.104.273.312.273h1.172c.183 0 .274-.09.274-.273v-2.812zm2.187-4.766c.625 0 1.159.221 1.602.664.468.443.703.99.703 1.64v7.735c0 .625-.235 1.159-.703 1.602-.443.468-.977.703-1.602.703h-3.789c-.104 0-.156.052-.156.156 0 .39-.13.716-.391.977-.26.26-.573.39-.937.39h-.86c-.599 0-1.119-.221-1.562-.664-.417-.417-.625-.924-.625-1.523V78.64c0-.651.221-1.198.664-1.641.469-.443 1.016-.664 1.641-.664h6.015zm8.477 6.016c0 .182.091.273.273.273h2.11c.182 0 .273-.091.273-.273v-.82c0-.183-.091-.274-.273-.274h-2.11c-.182 0-.273.091-.273.273v.82zm2.656-5.899c0-.208-.091-.312-.273-.312h-2.11c-.182 0-.273.104-.273.312v.742c0 .183.091.274.273.274h2.11c.182 0 .273-.091.273-.274v-.742zm.039-15.351c0-.209-.091-.313-.273-.313h-2.227c-.078 0-.143.04-.195.117-.026.052-.026.104 0 .157.26.729.482 1.51.664 2.343.052.157.078.326.078.508 0 .443-.143.86-.43 1.25-.39.547-.911.898-1.562 1.055-.026 0-.039.013-.039.039l.039.039h4.961c.026 0 .039-.013.039-.04-.469-.103-.834-.338-1.094-.702-.208-.313-.313-.651-.313-1.016v-.273c.183-1.224.3-2.279.352-3.164zm11.641 13.515c.234-.547.638-.924 1.211-1.133.234-.078.468-.117.703-.117.312 0 .625.078.937.235l.235.156c.573.312.963.781 1.171 1.406.105.26.157.534.157.82 0 .339-.078.678-.235 1.016-.989 2.057-2.187 4.05-3.593 5.977-.131.156-.157.325-.079.507.339.782.717 1.172 1.133 1.172.287 0 .521-.599.703-1.797.053-.416.274-.69.664-.82.391-.13.743-.052 1.055.234.052.026.104.066.156.118.547.494.938 1.067 1.172 1.718.131.365.196.73.196 1.094 0 .287-.039.586-.118.899-.52 1.796-1.145 3.046-1.875 3.75-.703.677-1.419 1.015-2.148 1.015h-.117c-1.901-.156-3.373-1.276-4.414-3.36-.078-.181-.183-.208-.313-.077-.859.807-1.718 1.536-2.578 2.187-.417.287-.872.43-1.367.43-.104 0-.221-.013-.352-.04-.625-.077-1.158-.35-1.601-.82-.13-.104-.248-.208-.352-.312-.312-.313-.455-.69-.429-1.133.026-.443.221-.794.585-1.055.027-.025.027-.052 0-.078 0-.026-.013-.039-.039-.039h-4.687c-.078 0-.117.04-.117.118 0 .286-.104.52-.313.703-.208.208-.455.312-.742.312h-1.133c-.599 0-1.107-.208-1.523-.625-.417-.416-.625-.924-.625-1.523V74.539c0-.625.221-1.159.664-1.602.443-.468.989-.703 1.641-.703h7.031c.625 0 1.159.235 1.601.704.469.442.703.976.703 1.601v9.844c0 .052.026.091.079.117.052.026.091.013.117-.04.677-.624 1.328-1.301 1.953-2.03.13-.157.182-.326.156-.508-.495-2.76-.82-6.341-.976-10.742 0-.209-.105-.313-.313-.313h-11.641c-.625 0-1.171-.221-1.64-.664-.443-.443-.664-.99-.664-1.64 0-.626.221-1.16.664-1.602.443-.443.976-.664 1.601-.664.209 0 .3-.104.274-.313-.026-.65-.117-1.367-.274-2.148-.026-.156-.039-.313-.039-.469 0-.442.118-.86.352-1.25.338-.547.807-.885 1.406-1.015l1.055-.235c.026 0 .039-.013.039-.039 0-.026-.013-.039-.039-.039h-2.149c-.573 0-1.067-.208-1.484-.625-.417-.417-.625-.911-.625-1.484 0-.6.208-1.107.625-1.524.417-.416.911-.625 1.484-.625h1.289c.209 0 .313-.104.313-.312v-1.133c0-.625.221-1.159.664-1.602.443-.468.99-.703 1.641-.703h.664c.625 0 1.159.235 1.601.703.469.443.703.977.703 1.602v1.133c0 .208.105.312.313.312h1.172c.599 0 1.107.209 1.523.625.417.417.625.925.625 1.524 0 .573-.208 1.067-.625 1.484-.416.417-.924.625-1.523.625h-1.602v.04l1.016.155c.599.105 1.068.417 1.406.938.234.364.352.742.352 1.133 0 .182-.026.364-.078.547-.079.312-.183.742-.313 1.289-.104.52-.182.885-.234 1.093-.052.209.026.313.234.313h1.797c.208 0 .299-.104.273-.313-.052-2.552-.078-6.158-.078-10.82 0-.625.222-1.159.664-1.602.443-.468.99-.69 1.641-.664h.312c.625 0 1.159.222 1.602.664.443.443.651.99.625 1.641v1.406c0 .078.026.144.078.196.052.026.104.026.156 0l1.094-.39c.339-.131.677-.196 1.016-.196.286 0 .586.052.898.156.651.208 1.133.612 1.445 1.21.547 1.017 1.016 2.045 1.407 3.087.104.286.156.56.156.82 0 .339-.078.664-.234.977-.287.599-.743 1.015-1.368 1.25l-.312.156c-.261.078-.508.117-.742.117-.313 0-.612-.065-.899-.195-.547-.287-.911-.716-1.094-1.29-.39-1.223-.885-2.434-1.484-3.632-.026-.052-.065-.065-.117-.04-.026 0-.039.014-.039.04-.026 1.745-.039 4.115-.039 7.11 0 .208.104.312.312.312h3.828c.651 0 1.198.221 1.641.664.443.443.664.99.664 1.64 0 .626-.221 1.16-.664 1.602-.443.443-.99.664-1.641.664h-3.75c-.208 0-.299.104-.273.313.078 2.057.156 3.658.234 4.804 0 .053.013.079.039.079.053 0 .092-.014.118-.04.234-.442.455-.911.664-1.406zM136.306 37.323H18.694C8.35 37.323 0 28.968 0 18.707 0 8.355 8.349 0 18.694 0h117.612C146.651 0 155 8.355 155 18.707c-.091 10.261-8.44 18.616-18.694 18.616z"/>
    <path fill="#fff" d="M40.928 14.53c-.09 0-.09 0-.09.09v2.18c0 .545.09 1.09.18 1.816.091.726.273 1.362.454 2.18.182.817.545 1.634.908 2.451.363.818.907 1.544 1.543 2.18.181.272.363.545.363.908v.181c0 .273-.091.545-.273.818 0 .09-.09.09-.09.181-.182.273-.454.454-.817.454h-.09c-.273 0-.454-.09-.727-.363-.726-.817-1.361-1.907-1.815-3.087-.453-1.18-.726-2.27-.907-3.27-.182 1-.545 2.18-1.09 3.451-.544 1.272-1.27 2.27-2.177 3.179-.182.09-.363.181-.545.181h-.181c-.272 0-.454-.181-.545-.363l-.09-.09h-6.716c-.09 0-.09 0-.09.09 0 .182-.091.363-.182.545-.09.181-.363.181-.545.181h-.363c-.272 0-.544-.09-.726-.363-.181-.272-.363-.454-.363-.726v-3.905h-.09c-.182.181-.363.272-.545.272-.181 0-.363-.181-.544-.363 0-.09-.091-.181-.091-.181-.182-.273-.272-.545-.272-.909 0-.363.09-.726.363-.998.816-1.09 1.452-2.452 1.905-3.905v-.091l-.09-.091h-.363c-.363 0-.636-.09-.908-.363s-.363-.545-.363-.908v-1.817c0-.363.09-.635.363-.908.272-.272.545-.363.908-.363h2.087c.363 0 .635.09.907.363.273.273.363.545.363.908v1.817c0 .363-.09.635-.363.908-.272.272-.544.363-.907.363h-.635.09c.273.09.454.272.636.454.09.182.09.273.09.454 0 .09 0 .182-.09.363 0 .091 0 .091.09.091h1.452c.091 0 .182-.09.182-.181.181-.454.272-.909.363-1.272-.09 0-.182 0-.272-.09-.091-.091-.091-.182-.091-.273v-2.724c0-.364.09-.636.363-.909.272-.272.544-.363.907-.363h2.178c.363 0 .636.091.908.364.272.272.363.544.363.908v1.725h.09c.726-1.635 1.271-3.723 1.634-6.357 0-.363.181-.635.454-.817.181-.182.453-.272.726-.272h.272c.363 0 .635.181.817.454.181.181.272.454.272.726v.182c-.09.726-.272 1.543-.363 2.18 0 .09 0 .18.09.18h3.722c.181-.09.453-.09.635 0l.544.182c.273.091.454.273.545.455.09.181.181.363.181.635v.182c-.181 1.634-.453 3.087-.726 4.268-.09.272-.181.454-.453.545-.091 0-.182.09-.363.09-.182 0-.273 0-.363-.09-.273-.182-.454-.363-.636-.636-.181-.272-.181-.454-.181-.726v-.273c.09-.545.181-1.18.272-1.998 0-.09-.09-.181-.181-.181h-.908v.09zm-13.34-2.09c-.272 0-.454-.09-.726-.272-.272-.181-.272-.363-.272-.635 0-.091 0-.091-.091-.091h-1.18c-.272 0-.454-.09-.635-.273-.182-.181-.272-.363-.272-.635 0-.273.09-.454.272-.636.181-.181.363-.272.635-.272h1.09c.09 0 .09-.091.09-.182 0-.272.09-.545.363-.817.272-.273.454-.363.817-.363.363 0 .544.09.816.363.273.272.363.454.363.817 0 .09.091.182.182.182h1.724c.09 0 .182-.091.182-.182 0-.272.09-.545.363-.817.272-.273.453-.363.816-.363.273 0 .545.09.817.363.272.272.363.454.363.817 0 .09 0 .182.09.182h1.271c.273 0 .454.09.636.272.181.182.272.363.272.636 0 .272-.182.363-.363.545-.182.181-.363.272-.635.272h-1.27c-.092 0-.092 0-.092.09 0 .273-.09.455-.272.637-.181.181-.454.272-.726.272h-.363c-.272 0-.454-.09-.726-.272-.272-.182-.272-.364-.272-.636 0-.09 0-.09-.09-.09h-1.816c-.09 0-.09 0-.09.09 0 .272-.091.454-.273.636-.181.181-.454.272-.726.272h-.272v.09zm-.817 1.908c-.09 0-.181.09-.181.181v.909c0 .09.09.181.181.181h.817c.09 0 .181-.09.181-.181v-.909c0-.09-.09-.181-.181-.181h-.817zm1.361 6.629c0 .09.091.182.182.182h1.452c.09 0 .181-.091.181-.182v-.545c0-.09-.09-.181-.181-.181h-1.452c-.09 0-.182.09-.182.181v.545zm.091 1.725c-.09 0-.09.091-.09.182v.545c0 .09.09.181.18.181h1.453c.09 0 .181-.09.181-.181v-.545c0-.09-.09-.182-.181-.182h-1.543zm0 2.361c-.09 0-.181.091-.181.182v.545c0 .09.09.182.181.182h1.452c.09 0 .182-.091.182-.182v-.545c0-.09-.091-.181-.182-.181h-1.452zm3.812.636c0 .091.09.182.181.182h2.36c.09 0 .181 0 .272-.091.726-.636 1.27-1.362 1.815-2.27.544-.908.817-1.726 1.089-2.543.272-.817.363-1.635.453-2.27.091-.636.091-1.18.091-1.726v-2.27c0-.09 0-.09-.09-.09-.091 0-.091-.091-.091 0-.363 1.089-.726 2.179-1.09 2.996-.18.273-.362.454-.725.545h-.182c-.272 0-.454-.09-.726-.272-.363-.273-.635-.455-.998-.727-.09-.09-.181-.09-.272-.09h-2.813l.453.18c.273.092.454.182.636.455 0 .09.09.182.09.363 0 .182 0 .272-.09.363v.091H34.213c.272 0 .453.091.635.273.181.181.272.363.272.635 0 .273-.09.454-.272.636-.182.181-.363.272-.635.272h-1.906c-.09 0-.182.091-.182.182v.545c0 .09.091.181.182.181h1.452c.181 0 .363.091.544.182.182.09.182.363.182.545 0 .182-.09.363-.182.545-.09.181-.453.181-.635.181h-1.452c-.09 0-.181.091-.181.182v.545c0 .09.09.181.181.181h1.452c.182 0 .363.091.545.182.181.091.181.363.181.545 0 .182-.09.363-.181.545-.091.181-.363.181-.545.181h-1.452c-.09 0-.181.091-.181.182v.454zm0-11.351c-.091 0-.182.09-.182.181v.909c0 .09.09.181.182.181h.907c.09 0 .182-.09.182-.181v-.909c0-.09-.091-.181-.182-.181h-.907zM49.64 16.709c.363 0 .635.09.907.363.273.272.363.545.363.908v5.54c0 .09 0 .181.091.272.817 1.271 2.36 1.998 4.628 2.088.908 0 1.906.091 3.267.091h1.362c1.905 0 3.63-.09 5.172-.181.272 0 .454.09.635.363.091.181.182.363.182.454v.272c-.09.364-.272.636-.635.908-.363.273-.635.364-.998.364-1.816.09-3.449.09-4.992.09-1.452 0-2.813 0-4.083-.09-1.362-.091-2.45-.273-3.358-.636-.908-.363-1.634-.908-2.269-1.725-.09-.091-.181-.091-.181 0l-1.725 1.725c-.181.182-.363.272-.635.272h-.181c-.273-.09-.545-.181-.636-.544l-.09-.182c-.091-.273-.182-.454-.182-.727 0-.09 0-.272.09-.363.092-.363.273-.636.545-.817.545-.454.999-.817 1.452-1.18.091-.091.091-.182.091-.273v-4.45c0-.09-.09-.181-.181-.181h-.908c-.363 0-.635-.091-.817-.364-.181-.272-.363-.544-.363-.817 0-.272.091-.636.363-.817.273-.182.545-.363.817-.363h2.269zm.817-5.45c.181.183.272.455.272.637v.272c-.09.363-.272.636-.545.817l-.09.091c-.182.091-.363.182-.636.182h-.272c-.363-.091-.544-.273-.817-.545-.363-.545-.816-1.18-1.452-1.816-.181-.182-.272-.454-.272-.727v-.09c0-.273.182-.545.454-.727.272-.182.544-.272.817-.272h.181c.363 0 .635.181.908.454.544.635 1.089 1.18 1.452 1.725zm2.813 11.625h-.363c-.182 0-.363-.091-.545-.182-.272-.182-.453-.363-.544-.726v-.273c0-.181.09-.363.181-.545.182-.272.363-.454.726-.545.091 0 .182-.09.182-.181v-9.535c0-.273.09-.545.363-.727.181-.09.363-.181.544-.181h.545c.635-.364 1.18-.636 1.724-1 .272-.18.545-.272.817-.272h.181c.363 0 .636.182.908.454l.817.908c0-.181.09-.272.181-.363.09-.09.182-.181.363-.181h5.354c.363 0 .636.09.908.363.272.272.363.545.363.908v9.807c0 .545-.091 1-.182 1.272-.09.272-.363.545-.726.726-.363.182-.998.363-1.724.363h-.09c-.273 0-.545-.09-.817-.272-.273-.182-.454-.454-.545-.817v-.273c0-.181 0-.272.09-.454.182-.181.364-.363.636-.363h.544c.182 0 .273 0 .273-.09 0-.092.09-.182.09-.273v-8.627c0-.091-.09-.182-.181-.182h-1.996c-.091 0-.182.091-.182.182v12.168c0 .364-.09.636-.363.818-.272.181-.544.363-.817.363-.272 0-.635-.09-.816-.363-.182-.273-.363-.545-.363-.818V10.352s0-.091-.091-.091h-.09c-.908.545-1.997.999-3.177 1.453-.09 0-.182.09-.182.182v7.9c0 .09.091.182.182.09.454-.09.907-.18 1.452-.362h.272c.182 0 .363.09.545.181.272.182.363.364.453.727v.181c0 .273-.09.454-.181.727-.182.272-.454.454-.726.545-1.452.363-2.723.635-3.993.999zM72.146 9.262c.181-.272.453-.545.726-.635.181-.091.363-.091.544-.091.182 0 .272 0 .454.09.272.091.544.273.635.636.09.091.09.273.09.364 0 .181-.09.363-.18.454-.364.544-.636 1.09-.999 1.543-.09.091-.09.182-.09.273v7.81c0 .363-.091.635-.364.908-.272.272-.544.363-.907.363s-.635-.091-.908-.363c-.272-.273-.363-.545-.363-.909V14.803h-.09c-.182.181-.363.363-.636.545-.272.181-.453.272-.726.272h-.181c-.363 0-.545-.182-.817-.454 0 0-.09 0-.09-.09-.182-.273-.273-.455-.273-.727v-.182c0-.363.182-.636.454-.817 1.543-1.18 2.722-2.543 3.72-4.087zm-1.27 17.8c-.273.272-.545.453-.908.453h-.091c-.363 0-.635-.09-.908-.272h-.09c-.273-.182-.363-.454-.363-.817 0-.273.09-.545.363-.727.635-.727 1.18-1.544 1.542-2.543.091-.272.363-.545.636-.726.181-.091.363-.091.544-.091.09 0 .272 0 .363.09.363.092.545.364.726.637.09.181.182.363.182.544 0 .091 0 .273-.091.364-.545 1.18-1.18 2.27-1.906 3.087zm6.26-1.181h2.996c.272 0 .544-.091.726-.182.181-.09.272-.363.272-.727.09-.272.181-.454.454-.635.181-.091.272-.091.453-.091.091 0 .182 0 .363.09.363.092.636.364.817.637.182.181.182.454.182.726v.272c-.182.909-.454 1.453-.908 1.817-.454.363-1.18.363-2.178.363h-3.448c-1.362 0-2.27-.182-2.723-.636-.454-.454-.726-1.18-.726-2.36v-2.09c0-.363.09-.635.363-.908.272-.272.545-.363.908-.363h.09c.363 0 .636.09.908.363s.363.545.363.909v2.088c0 .273.09.545.181.636.091.09.454.09.908.09zm2.814-13.44c0-.091-.09-.182-.181-.182h-1.906c-.09 0-.182 0-.272.09-.363.546-.726 1-.999 1.454-.181.272-.544.363-.907.363s-.635-.09-.908-.363c-.272-.273-.363-.454-.363-.727 0-.272.091-.545.363-.817.726-.817 1.27-1.725 1.815-2.815.182-.273.363-.545.726-.727.182-.09.363-.181.636-.181h.363c.272.09.544.272.726.545.09.181.09.363.09.454 0 .09 0 .272-.09.363v.09l.09.092H86.666l.544.09c.272.091.454.182.545.364.09.09.09.272.09.363 0 .09 0 .181-.09.272-.273.908-.636 1.816-.999 2.543-.09.182-.272.363-.453.454-.182.09-.454.09-.636.09.545.909.999 1.726 1.452 2.634v.727c0 .181 0 .272-.09.454-.091.363-.363.545-.726.726-.182.091-.273.091-.454.091-.182 0-.272 0-.454-.09-.272-.091-.544-.364-.635-.636-.363-.818-.817-1.635-1.27-2.452-.091-.182-.182-.363-.182-.545 0-.09 0-.182.09-.363.091-.364.273-.545.636-.727h.09c.091 0 .182-.09.182-.181.09-.273.272-.727.545-1.363v-.09l-.091-.091h-2.178c-.09 0-.182.09-.182.181v6.085c0 .635-.09 1.09-.181 1.362-.09.272-.363.545-.726.726-.454.273-1.27.364-2.36.364v.09c.273.182.545.364.726.545.273.182.363.454.363.818 0 .363-.09.635-.363.908-.363.09-.635.181-.907.181h-.09c-.364 0-.636-.181-.908-.363-.545-.454-1.09-.908-1.815-1.362-.273-.182-.363-.454-.363-.727 0-.272.09-.454.272-.635.272-.182.544-.363.907-.363h.182c.272 0 .544.09.817.181.09.091.181.091.181.182h.09v-.091c0-.182-.09-.363-.18-.545 0-.09-.091-.181-.091-.272 0-.182.09-.273.181-.454.182-.273.363-.364.635-.364h.726c.091 0 .182 0 .273-.09.09-.091.09-.091.09-.273v-5.993h.091zm-3.63 2.451c.182-.272.363-.544.726-.726.182-.09.363-.182.635-.182.091 0 .273 0 .363.091.273.091.545.273.726.545.091.182.091.273.091.454 0 .182 0 .273-.09.454-.454.908-.999 1.726-1.543 2.452-.182.273-.454.454-.817.454h-.182c-.272 0-.544-.09-.726-.272-.272-.182-.363-.363-.453-.727v-.181c0-.273.09-.454.272-.727.272-.363.635-.908.998-1.635zm6.806 8.628c-.181-.182-.272-.364-.272-.636v-.182c0-.272.182-.545.454-.726.272-.182.454-.182.726-.182h.272c.363.09.635.182.908.454.998 1.09 1.815 2.089 2.36 2.997.09.181.18.363.18.545 0 .09 0 .272-.09.363-.09.363-.272.636-.635.727l-.182.09c-.09.273-.181.273-.454.273-.09 0-.272 0-.363-.091-.272-.09-.544-.273-.726-.636-.544-.908-1.27-1.907-2.178-2.996zM108.536 18.434c.273.182.363.545.363.909 0 .272-.09.544-.363.817-.272.272-.544.363-.907.363s-.635-.09-.908-.363c-.453-.454-1.089-.908-1.815-1.544-.09-.09-.09-.09-.181 0l-.545.817c-.181.273-.544.454-.907.454h-.182c-.272 0-.544-.09-.816-.272-.182-.09-.363-.182-.545-.363.817 1.09 1.906 2.18 3.086 3.087 1.179.908 2.541 1.726 3.902 2.361.272.091.454.364.454.636v.182c0 .181-.091.363-.182.544-.091.182-.181.273-.363.454-.181.273-.544.455-.817.545h-.363c-.181 0-.453-.09-.635-.181-2.178-1.18-4.084-2.815-5.808-4.813h-.091c-.09 0 0 0 0 .09v4.904c0 .364-.09.636-.363.909-.272.272-.544.363-.907.363h-.182c-.363 0-.635-.091-.907-.363-.272-.273-.363-.545-.363-.909v-4.903h-.09c-1.725 1.907-3.63 3.541-5.809 4.722-.181.09-.454.181-.635.181h-.363c-.363-.09-.635-.272-.817-.544l-.272-.273c-.182-.181-.182-.363-.182-.545v-.181c.091-.273.273-.545.545-.636 1.543-.727 2.995-1.635 4.265-2.724 1.27-1.09 2.45-2.361 3.267-3.633.09-.09.09-.181.09-.272V13.62c0-.09-.09-.181-.18-.181h-6.353c-.363 0-.635-.09-.908-.363-.272-.273-.363-.545-.363-.909 0-.363.091-.635.363-.908.273-.272.545-.363.908-.363h6.534c.09 0 .181-.09.181-.181V9.444c0-.363.091-.635.363-.908.273-.272.545-.363.908-.363h.181c.363 0 .636.09.908.363s.363.545.363.908v1.272c0 .09.091.181.181.181h6.807c.363 0 .635.091.907.363.272.273.363.545.363.909 0 .363-.091.635-.363.908-.272.272-.544.363-.907.363h-6.807c-.09 0-.181.09-.181.181v4.541c0 .09 0 .182.091.272l.09.091.091.091c.091.09.091.09.182 0 .998-.908 1.815-2.27 2.359-3.905.091-.363.272-.636.635-.817.182-.182.454-.182.726-.182h.363c.363.091.545.182.726.545.091.182.182.363.182.545v.363c-.091.364-.182.636-.363 1 0 .09 0 .18.091.272.998.908 1.815 1.634 2.268 1.997zm-14.883-3.632c.091-.363.363-.545.636-.817.181-.182.453-.182.726-.182h.272c.363.09.635.272.726.545.09.182.181.363.181.545 0 .09 0 .272-.09.363-.091.363-.273.636-.363.999 0 .09 0 .182.09.272.454.364.817.727 1.09.909.272.181.362.544.362.908 0 .363-.09.635-.363.908-.181.272-.544.363-.816.363-.363 0-.636-.182-.908-.363l-.454-.454c-.09-.091-.181-.091-.181 0-.454.726-.998 1.453-1.543 1.998-.272.272-.544.363-.817.363-.363 0-.635-.091-.907-.363 0 0-.09 0-.09-.091-.273-.182-.364-.454-.364-.818 0-.363.09-.544.363-.817.998-1.09 1.815-2.543 2.45-4.268zM118.428 24.518c0 .091.091.182.182.182l2.904-.363h.181c.272 0 .454.09.726.272.272.182.363.454.363.817 0 .182 0 .454-.091.636-.09.181-.272.363-.453.545-.182.181-.363.181-.636.272-.181 0-2.994.363-8.53 1.09h-.182c-.272 0-.544-.09-.726-.273-.272-.181-.453-.454-.544-.817v-.09-.182c0-.273.091-.454.272-.727.182-.272.454-.454.817-.454 1.18-.09 2.269-.272 3.085-.363.091 0 .182-.09.182-.182V22.43c0-.091-.091-.182-.182-.182h-2.359c-.272 0-.545-.09-.817-.363-.272-.273-.363-.545-.363-.818 0-.272.091-.544.363-.817.272-.272.454-.363.817-.363h2.269c.09 0 .181-.091.181-.182v-.635c0-.364.091-.636.363-.909.272-.272.545-.363.908-.363h.09c.363 0 .636.091.908.363.272.273.363.545.363.909v.726c0 .09.091.182.181.182h2.269c.363 0 .635.09.817.363.181.272.363.454.363.817 0 .363-.091.636-.363.817-.272.182-.454.364-.817.364H118.7c-.09 0-.181.09-.181.181v1.998h-.091zm.454-10.352c-.091-.182-.182-.364-.182-.545v-.273c.091-.272.182-.454.454-.635.182-.091.363-.182.635-.182h.273c.272.091.544.182.726.454.816 1.09 1.452 1.998 1.996 2.906.091.182.091.363.091.545v.363c-.091.273-.272.545-.635.727h-.091c-.182.09-.363.09-.454.09-.091 0-.181 0-.363-.09-.272-.091-.454-.273-.635-.545 0-.09-.091-.09-.182-.09-2.087.09-4.628.272-7.623.362h-.09c-.273 0-.545-.09-.817-.272-.272-.273-.454-.545-.454-.908 0-.273.091-.545.363-.727.182-.272.545-.363.817-.363h.544c.091 0 .182-.09.182-.182.363-.998.635-1.997.907-2.905v-.091h-1.633c-.272 0-.545-.091-.817-.364-.272-.272-.363-.454-.363-.817 0-.363.091-.545.363-.817.272-.273.454-.363.817-.363h8.712c.363 0 .635.09.817.363.181.272.363.454.363.817 0 .363-.091.545-.363.817-.273.273-.454.364-.817.364h-3.993c-.091 0-.182.09-.182.181-.453 1.09-.816 1.998-1.179 2.906v.091h.09c.726 0 1.725-.09 3.086-.09h.091V14.8c-.091-.181-.273-.454-.454-.635zm4.991-2.906c.272-.273.545-.363.908-.363s.635.09.907.363c.272.272.363.545.363.908v9.808c0 .363-.091.635-.363.908-.272.272-.544.363-.907.363s-.636-.091-.908-.363c-.272-.273-.363-.545-.363-.909v-9.898c0-.272.091-.636.363-.817zm4.538-1.18c0-.364.09-.636.363-.909.272-.272.544-.363.907-.363s.635.09.908.363c.272.273.363.545.363.908v15.438c0 .727-.091 1.271-.273 1.726-.181.454-.453.726-.907.908-.545.272-1.543.454-2.813.454h-.091c-.363 0-.635-.091-.908-.364-.272-.181-.453-.544-.635-.908 0-.09-.091-.181-.091-.272v-.273c0-.181.091-.363.182-.454.181-.272.363-.363.635-.363h1.815c.182 0 .363-.09.454-.09.091 0 .091-.182.091-.364V10.08z"/>
</svg>
