<svg xmlns="http://www.w3.org/2000/svg" width="614" height="120" fill="none" viewBox="0 0 614 120">
    <path fill="#333" d="M55.309 95.68c.6.6.9 1.3.9 2.202 0 .8-.3 1.6-.9 2.201-.6.601-1.3.901-2.1.901H35.306c-.3 0-.4.1-.4.4-.1.701-.2 1.201-.3 1.702-.1.3 0 .4.3.4h13.802c.9 0 1.6.3 2.2 1.001.5.5.8 1.201.8 1.902 0 5.804-.8 9.608-2.5 11.409-1.1 1.101-2.7 1.802-4.7 2.002-1.001.1-2.301.2-4.002.2h-.1c-.9 0-1.6-.3-2.3-.901-.7-.6-1.1-1.301-1.4-2.302-.1-.2-.1-.4-.2-.6-.1-.2-.2-.401-.2-.701 0-.4.1-.8.4-1.101.4-.6.9-.9 1.6-.9l.1.1c.9 0 1.6.1 2.3.1.8 0 1.4-.2 1.9-.601.4-.3.7-1.401 1-3.202 0-.201-.1-.401-.3-.401h-10c-.3 0-.4.1-.6.3-2.001 3.904-5.602 6.906-10.903 9.008-.4.1-.8.2-1.2.2-.4 0-.9-.1-1.3-.3-.8-.4-1.5-.901-2-1.702-.6-.9-1.2-1.701-1.8-2.402-.2-.2-.3-.1-.5.101-.4.8-.8 1.501-1.3 2.301-.501.701-1.101 1.101-2.001 1.201h-.4c-.7 0-1.4-.2-2-.6-.5-.3-1-.601-1.6-1.001-.701-.4-1.101-1.001-1.201-1.801 0-.201-.1-.401-.1-.601 0-.5.2-1.101.5-1.601 1-1.501 1.9-3.203 2.6-5.104.7-1.902 1.2-3.804 1.5-5.805.3-2.002.5-3.803.6-5.305.1-1.601.1-3.302.1-5.204v-9.308c0-.9.3-1.601.9-2.202.601-.6 1.401-.9 2.201-.9h33.706c.9 0 1.6.3 2.2.9.6.6.9 1.402.9 2.202v7.206c0 .901-.3 1.602-.9 2.302-.6.6-1.4.9-2.2.9h-9.902c-.3 0-.4.101-.4.401v1.702c0 .3.1.4.4.4H53.31c.7-.1 1.4.3 2 .9zm-3.6-25.922c.9 0 1.6.3 2.3.9.6.601.9 1.402.9 2.203v.8c0 .901-.3 1.602-.9 2.202-.6.6-1.4.901-2.3.901H11.201c-.9 0-1.6-.3-2.3-.9-.6-.601-.9-1.402-.9-2.203v-.8c0-.901.3-1.602.9-2.202.6-.6 1.4-.9 2.3-.9h40.506zm-24.905 31.526c0-.2-.1-.4-.3-.4h-7.301c-.3 0-.4.1-.4.4-.6 4.504-1.6 8.307-3 11.41v.2c0 .1.1.1.2 0 2-.6 3.6-1.301 5-2.102 1.4-.8 2.4-1.701 3.2-2.702.8-1.001 1.401-2.002 1.701-3.103.4-1 .7-2.201.9-3.703zm2.9-6.605c.2 0 .4-.1.4-.4v-1.702c0-.3-.1-.4-.4-.4h-9.9c-.301 0-.401.1-.401.4v1.702c0 .3.1.4.4.4h9.902zM43.608 84.57c0-.2-.1-.4-.4-.4H19.803c-.3 0-.4.1-.4.4v1.502c0 .3.1.4.4.4h23.404c.2 0 .4-.1.4-.4V84.57zM75.912 86.372c-.9 0-1.6-.3-2.3-.901-.6-.6-.9-1.401-.9-2.202v-2.102c0-.1 0-.2-.1-.2h-.2c-.6.4-1.2.8-1.9 1.201-.6.4-1.201.5-1.901.5-.2 0-.4 0-.6-.1-.9-.2-1.7-.6-2.3-1.3l-1.2-1.201c-.4-.4-.6-.901-.6-1.502v-.4c.1-.7.5-1.301 1.2-1.601 4.1-2.102 7.6-4.504 10.401-7.306.7-.701 1.5-1.101 2.4-1.302.4-.1.7-.2 1.1-.2.5 0 1.1.1 1.6.3l1.301.5c.8.301 1.2.802 1.4 1.602.1.2.1.4.1.6 0 .501-.2 1.002-.6 1.402l-2 2.002c-.2.2-.3.4-.3.7v8.307c0 .9-.3 1.601-.9 2.202-.6.6-1.4.9-2.3.9h-1.4v.1zm32.405 20.617c0 .901-.3 1.601-.9 2.302-.6.6-1.4.901-2.3.901h-4.601s-.1 0-.1.1c0 0 0 .1.1.1 4.701 1.901 8.401 3.503 11.102 4.704.5.2.8.7.8 1.301 0 .6-.3 1.001-.9 1.201l-3.501 1.301c-.8.3-1.5.4-2.3.4-1.1 0-2.3-.3-3.401-1.001-2.4-1.401-5.1-2.702-8.1-4.003-.601-.2-.901-.701-.901-1.501 0-.601.3-1.001.8-1.301l2.1-1.201v-.1c0-.1 0-.1-.1-.1H82.313s-.1 0-.1.1 0 .1.1.1l1.7.8c.7.301 1 .801 1 1.602 0 .6-.3 1.101-.8 1.401-3.4 1.801-7.3 3.503-11.701 4.904-.5.1-1 .2-1.5.2-.4 0-.9-.1-1.3-.2-.901-.3-1.701-.701-2.401-1.501l-1.4-1.401c-.2-.201-.4-.501-.4-.801 0-.1-.1-.3-.1-.4 0-.101 0-.301.1-.401.1-.3.2-.5.4-.8.2-.201.5-.301.8-.401 4-.901 7.5-2.001 10.501-3.202 0 0 .1 0 .1-.101 0-.1 0-.1-.1-.1h-3.2c-.9 0-1.6-.3-2.2-.9-.6-.601-.9-1.402-.9-2.302V90.775c0-.9.3-1.6.9-2.201.6-.6 1.4-.901 2.2-.901H101.816l-.1-.1c-4.5-1.201-8.101-3.903-10.801-8.207-.1-.2-.4-.3-.6-.3l-5.001.3s-.1.1-.2.1c-.8 0-1.4-.2-2-.8-.6-.501-1-1.202-1.1-2.002v-.3c0-.601.2-1.202.6-1.802.5-.6 1.2-.9 2-1l3.1-.201c.2 0 .3-.1.3-.4-.2-.701-.4-1.502-.5-2.302 0-.2-.1-.4-.1-.6 0-.601.2-1.102.6-1.602.5-.6 1.2-1.001 2.1-1.001h1c.9 0 1.7.3 2.401.9.7.601 1.2 1.302 1.4 2.203.2.6.4 1.3.7 1.901.1.3.3.4.5.3l5.201-.3s.1 0 .1-.1c0 0 0-.1-.1-.1-.7-.2-1.4-.5-1.9-.6-.6-.2-.9-.5-1.1-1.101-.2-.6 0-1.001.3-1.502.6-.6 1.2-1 2-1.3.4-.1.9-.2 1.3-.2.3 0 .7.1 1.001.2 1.7.4 3.3.9 4.9 1.6.5.2.8.501.9 1.102.1.6 0 1-.4 1.5v.1c0 .1.1.1.1.1l2.101-.1h.2c.7 0 1.4.201 1.9.701.6.5.9 1.201 1 2.002 0 .1.1.2.1.3 0 .6-.2 1.201-.6 1.702-.5.6-1.1.9-1.9 1l-1.8.1c-.1 0-.1.1-.1.1 0 .1 0 .1.1.1.6.501 1.5.902 2.4 1.302.9.4 1.5 1 2 1.801.3.5.4 1.001.4 1.502 0 .3-.1.6-.2.9-.5 1.502-1.1 2.502-1.9 3.203-.8.7-1.9 1.101-3.301 1.301-.3 0-.4.2-.4.4v18.516h-.1zM78.813 92.277c-.3 0-.4.1-.4.4v.7c0 .3.1.4.4.4h20.903c.3 0 .4-.1.4-.4v-.7c0-.3-.1-.4-.4-.4H78.813zm0 5.905c-.3 0-.4.1-.4.4v.8c0 .3.1.4.4.4h20.903c.3 0 .4-.1.4-.4v-.8c0-.2-.1-.4-.4-.4H78.813zm0 5.804c-.3 0-.4.101-.4.401v.8c0 .301.1.401.4.401h20.903c.3 0 .4-.1.4-.401v-.8c0-.3-.1-.401-.4-.401H78.813zm30.004-25.721c0-.1 0-.2-.1-.2-.1-.1-.2-.1-.3-.1l-8.301.5c-.1 0-.1 0-.1.1v.2c2.1 1.702 4.301 2.603 6.801 2.603.6 0 1.1-.2 1.4-.6.2-.601.5-1.402.6-2.503zM127.721 82.569c.2-.9.6-1.501 1.3-2.002.5-.4 1.1-.6 1.801-.6.2 0 .4 0 .5.1l2.9.5c.9.1 1.5.6 2 1.301.3.5.5 1.001.5 1.602 0 .3.001.5-.1.8-2 8.307-4.3 14.713-6.801 19.216-.4.801-1 1.201-1.9 1.401-.3 0-.5.101-.8.101-.6 0-1.2-.201-1.7-.501-.7-.4-1.501-.801-2.301-1.201-.7-.4-1.2-.901-1.5-1.701-.1-.301-.1-.601-.1-.801 0-.5.1-1 .4-1.401 1.2-2.102 2.3-4.604 3.301-7.406 1.1-3.303 1.9-6.406 2.5-9.408zm14.902-12.31c0-.901.301-1.602.901-2.202.6-.6 1.4-.901 2.2-.901h2.5c.901 0 1.601.3 2.201.9.6.601.9 1.402.9 2.203v38.632c0 2.302-.3 4.003-.9 5.304-.6 1.201-1.601 2.202-3.001 2.803-1.8.9-4.901 1.301-9.101 1.501h-.1c-.9 0-1.601-.3-2.301-.901-.8-.6-1.3-1.301-1.6-2.202l-.9-2.402c-.1-.2-.2-.5-.2-.8 0-.301.1-.601.3-1.001.4-.601.9-.901 1.5-.901h.1c1 0 2.001.1 3.001.1.9 0 1.8 0 2.6-.1.6 0 1.1-.1 1.3-.3.2-.2.4-.601.4-1.201V70.259h.2zm14.603 14.311c-.2-.4-.3-.8-.3-1.2 0-.4.1-.701.2-1.101.3-.801.8-1.302 1.6-1.602l1.9-.8c.4-.1.901-.2 1.301-.2.4 0 .8.1 1.3.3.9.3 1.5.8 1.9 1.701 1.8 3.303 3.401 6.806 4.801 10.309 1.3 3.202 2.4 6.105 3.1 8.807.1.3.1.6.1.901 0 .5-.1 1.101-.4 1.601-.4.801-1.1 1.301-1.9 1.702l-2.9 1.2c-.3.101-.601.201-1.001.201-.4 0-.8-.1-1.2-.301-.7-.4-1.2-1-1.3-1.801-.6-2.602-1.5-5.505-2.8-8.807-1.301-3.904-2.801-7.507-4.401-10.91zM230.737 82.068c0 .8-.3 1.501-.8 2.002-.5.5-1.2.8-1.9.8-.3 0-.4.1-.4.4-1 7.707-2.8 14.013-5.301 19.017-.1.3-.1.5.1.7 1.9 2.602 4.001 4.704 6.301 6.306.6.4 1 1 1.1 1.801 0 .1.1.3.1.4 0 .601-.2 1.201-.6 1.702-.6.6-1.1 1.301-1.6 2.001-.5.701-1.2 1.201-2.1 1.302-.2.1-.4.1-.6.1-.601 0-1.101-.201-1.701-.601-2.1-1.601-4-3.603-5.801-5.905-.2-.2-.3-.2-.5-.1-2.2 2.502-4.901 4.604-7.901 6.405-.5.301-.9.401-1.5.401-.3 0-.6-.1-.9-.2-.801-.301-1.501-.801-1.901-1.602-.4-.6-.8-1.301-1.2-1.901-.3-.501-.5-1.001-.5-1.502 0-.2 0-.4.1-.7.2-.801.6-1.301 1.3-1.702 3.301-1.801 6.001-4.003 8.102-6.805.2-.2.2-.401.1-.601-1.101-2.602-2.001-5.404-2.901-8.407 0-.1-.1-.1-.1-.1s-.1 0-.1.1c-.4.6-.9.901-1.7 1.001h-.2c-.7 0-1.3-.2-1.801-.7-.6-.601-1.2-1.101-1.8-1.602-.2-.2-.4-.2-.5.1-2.1 2.502-4.401 4.904-7.001 7.106-.1.1-.2.2-.2.4 0 .201.1.201.3.201.6 0 1.6-.1 2.9-.201 1.301-.1 2.301-.2 3.001-.2h.2c.8 0 1.4.301 2 .801.6.6.9 1.301.9 2.102v.4c0 .901-.3 1.702-.9 2.302-.6.701-1.3 1.001-2.2 1.101-1.3.1-3.201.3-5.701.4-.3 0-.4.1-.4.401v3.402c0 1.702-.2 3.003-.6 4.004-.4.901-1.1 1.601-2.201 2.102-1.3.6-3 1-5.2 1.1h-.2c-.801 0-1.601-.3-2.201-.8-.7-.601-1.2-1.301-1.5-2.202-.1-.3-.2-.5-.2-.801-.1-.3-.1-.5-.1-.8 0-.401.1-.801.4-1.201.4-.601.9-.901 1.7-.901h1.801c.4 0 .6-.1.7-.2.1-.1.2-.301.2-.601v-2.602c0-.2-.1-.4-.4-.4l-6.301.5h-.3c-.801 0-1.501-.2-2.101-.801-.7-.6-1.1-1.301-1.2-2.201l-.1-.701v-.4c0-.701.2-1.401.7-1.902.5-.6 1.2-1.001 2.1-1.001 4.301-.2 6.702-.4 7.102-.4.2 0 .4-.1.4-.4v-1.502c0-.6.2-1.1.6-1.5.4-.401.9-.601 1.5-.601.2 0 .3-.1.5-.2l1.5-1.502v-.2c0-.1-.1-.1-.1-.1h-1.9c-.3 0-.5.1-.7.3-1.5 1.201-3.001 2.302-4.701 3.403-.6.3-1.2.5-1.8.5-.2 0-.4 0-.7-.1-.9-.2-1.601-.6-2.201-1.3-.4-.501-.7-.901-1.1-1.302-.4-.5-.6-1-.6-1.601 0-.1 0-.2.1-.4.1-.801.5-1.302 1.2-1.702 1-.6 2.001-1.2 2.901-1.801.1-.1.2-.2.2-.3 0-.401.2-.801.5-1.202.3-.3.7-.5 1.2-.5h.6c.2 0 .4-.1.5-.2.8-.6 1.501-1.201 1.901-1.602.1-.1.1-.1.1-.2s-.1-.1-.2-.1h-6.001c-.901 0-1.601-.3-2.301-.9-.6-.601-.9-1.402-.9-2.202v-.5c0-.902.3-1.602.9-2.303.6-.6 1.4-.9 2.301-.9h3.8c.3 0 .4-.1.4-.4v-1.902c0-.3-.1-.4-.4-.4h-2.1c-.9 0-1.6-.301-2.2-.901-.601-.601-.901-1.402-.901-2.302v-.3c0-.901.3-1.602.901-2.203.6-.6 1.4-.9 2.2-.9h2.1c.3 0 .4-.1.4-.4v-1.001c0-.901.3-1.602.9-2.202.601-.6 1.401-.901 2.201-.901h1c.9 0 1.6.3 2.3.9.6.601.9 1.402.9 2.203v1c0 .3.1.4.401.4h1c.9 0 1.6.301 2.3.901.6.601.9 1.402.9 2.202v.4s0 .1.1.1h.1c.6-1.2 1.3-2.501 1.801-3.802.4-.801 1-1.402 1.8-1.802.5-.2 1-.4 1.5-.4.3 0 .6 0 1 .1l1.3.4c.801.2 1.401.7 1.801 1.501.2.4.3.801.3 1.201s-.1.701-.2 1.101c-1.1 2.602-2.401 5.004-3.901 7.406-.1.2 0 .3.1.3.6 0 1.1.2 1.5.601.4.4.6.901.6 1.501v1.101s0 .1.101.1c0 0 .1 0 .1-.1 1.8-4.003 3.1-8.707 4-14.111.2-.901.6-1.602 1.3-2.102.6-.4 1.201-.6 1.801-.6.2 0 .4 0 .5.1l1.8.3c.9.1 1.5.6 2 1.2.4.501.6 1.102.6 1.802 0 .2 0 .4-.1.6-.4 1.802-.8 3.504-1.2 5.305-.1.3 0 .4.3.4h10.302c.9 0 1.6.3 2.3.901.6.6.901 1.401.901 2.302v1.201h-.201zm-36.806-3.403c-.3 0-.4.1-.4.4v2.002c0 .3.1.4.4.4h.201c.3 0 .5-.1.6-.3l1.5-2.101c.1-.1.1-.2 0-.2-.1-.1-.1-.1-.2-.1h-2.101v-.1zm4.401 11.61h.3c.2-.1.5-.1.8-.1.6 0 1.101.2 1.601.6l.8.6c.1.101.3.101.4-.1.6-.9 1.3-1.8 1.9-2.701v-.2c0-.1-.1-.1-.2-.1h-4.701c-.3 0-.5.1-.6.3-.5.6-.9 1.1-1.2 1.5-.1 0-.1.1-.1.201 0 .1.1.1.2.1h.8v-.1zm21.104-5.004c0-.3-.1-.4-.4-.4h-3.601c-.3 0-.4.1-.3.4.6 3.503 1.3 6.505 2.2 9.107 0 .1.1.1.1.1s.1 0 .1-.1c.8-2.802 1.401-5.804 1.901-9.107zM266.343 110.892c0 .3.1.4.4.4h17.203c.9 0 1.6.301 2.2.901.6.601.9 1.401.9 2.302v.601c0 .9-.3 1.601-.9 2.201-.6.601-1.4.901-2.2.901h-42.807c-.9 0-1.6-.3-2.2-.901-.6-.6-.901-1.401-.901-2.201v-.601c0-.901.301-1.601.901-2.302.6-.6 1.4-.901 2.2-.901h16.503c.2 0 .4-.1.4-.4v-1.902c0-.3-.1-.4-.4-.4H245.84c-.9 0-1.6-.3-2.201-.901-.6-.6-.9-1.401-.9-2.302v-.5c0-.901.3-1.601.9-2.202.601-.6 1.401-.901 2.201-.901h11.802c.2 0 .4-.1.4-.4v-2.802c0-.2-.1-.4-.4-.4-2.401.1-6.501.2-12.402.3h-.1c-.9 0-1.601-.3-2.201-.901-.6-.6-1-1.301-1-2.202l-.1-.8c0-.901.2-1.602.9-2.202.6-.6 1.3-1.001 2.201-1.001h4.1c.2 0 .4-.1.6-.4.3-.801.701-1.702 1.101-2.803v-.2c-.1-.1-.1-.1-.2-.1h-3.201c-.9 0-1.6-.3-2.2-.9-.6-.601-.9-1.402-.9-2.303v-1.1c0-.301-.101-.401-.401-.401h-2.8c-.9 0-1.6-.3-2.2-.9-.6-.601-.901-1.402-.901-2.303v-5.905c0-.9.301-1.601.901-2.302.6-.6 1.4-.9 2.2-.9h16.703c.2 0 .4-.1.4-.4 0-.801.3-1.502.8-2.002.6-.5 1.2-.801 2-.801h2.601c.8 0 1.5.3 2 .8.6.501.8 1.202.8 2.002 0 .3.1.4.3.4h17.203c.9 0 1.6.3 2.2.901.6.6.9 1.402.9 2.302v5.905c0 .901-.3 1.602-.9 2.302-.6.6-1.4.9-2.2.9h-3.001c-.3 0-.4.101-.4.401v1.101c0 .9-.3 1.602-.9 2.302-.6.6-1.4.9-2.2.9h-1.3c-.1 0-.1 0-.1.1 0 .101 0 .101.1.201 2.6 2.102 4.8 4.103 6.601 5.905.5.5.8 1.1.8 1.801v.4c-.1.902-.5 1.502-1.2 2.002l-1 .701c-.601.4-1.201.5-1.801.5-.2 0-.4 0-.6-.1-.9-.1-1.6-.5-2.2-1.2-.1 0-.1-.1-.2-.2-.2-.2-.4-.301-.6-.301-4.001.1-6.901.2-8.902.3-.3 0-.4.2-.4.4v3.103c0 .3.1.401.4.401h13.102c.9 0 1.601.3 2.201.9.6.601.9 1.401.9 2.202v.501c0 .9-.3 1.601-.9 2.301-.6.601-1.401.901-2.201.901h-13.102c-.3 0-.4.1-.4.401v1.801h-.2zm12.502-32.527c0-.3-.1-.4-.4-.4H246.14c-.3 0-.4.1-.4.4v2.202c0 .3.1.4.4.4h32.305c.2 0 .4-.1.4-.4v-2.202zm-9.201 9.608v-.1c0-.1 0-.1-.1-.1h-9.202c-.3 0-.4.1-.6.4-.3.5-.8 1.501-1.6 2.702v.3c0 .1.1.1.2.1l10.402-.2s.1 0 .1-.1v-.1c-.401-.3-.601-.7-.501-1.3 0-.501.3-.901.701-1.202l.6-.4zM313.551 98.182c-1.1 1.2-2.501 1.801-4.201 1.801-1.7 0-3.1-.6-4.2-1.801-1.101-1.201-1.701-2.602-1.701-4.304 0-1.701.6-3.202 1.701-4.403 1.1-1.201 2.5-1.802 4.2-1.802 1.7 0 3.101.6 4.201 1.802 1.1 1.2 1.7 2.602 1.7 4.403-.1 1.702-.6 3.103-1.7 4.304zM343.256 86.372c-.9 0-1.6-.3-2.301-.901-.6-.6-.9-1.401-.9-2.202v-2.102c0-.1 0-.2-.1-.2h-.2c-.6.4-1.2.8-1.9 1.201-.6.4-1.2.5-1.9.5-.2 0-.4 0-.6-.1-.901-.2-1.701-.6-2.301-1.3l-1.2-1.201c-.4-.4-.6-.901-.6-1.502v-.4c.1-.7.5-1.301 1.2-1.601 4.101-2.102 7.601-4.504 10.402-7.306.7-.701 1.5-1.101 2.4-1.302.4-.1.7-.2 1.1-.2.5 0 1.101.1 1.601.3l1.3.5c.8.301 1.2.802 1.4 1.602.1.2.1.4.1.6 0 .501-.2 1.002-.6 1.402l-2 2.002c-.2.2-.3.4-.3.7v8.307c0 .9-.3 1.601-.901 2.202-.6.6-1.4.9-2.3.9h-1.4v.1zm32.305 20.617c0 .901-.3 1.601-.9 2.302-.6.6-1.4.901-2.3.901h-4.601s-.1 0-.1.1c0 0 0 .1.1.1 4.701 1.901 8.401 3.503 11.102 4.704.5.2.8.7.8 1.301 0 .6-.3 1.001-.9 1.201l-3.501 1.301c-.8.3-1.5.4-2.3.4-1.1 0-2.301-.3-3.401-1.001-2.4-1.401-5.101-2.702-8.101-4.003-.6-.2-.9-.701-.9-1.501 0-.601.3-1.001.8-1.301l2.1-1.201v-.1c0-.1 0-.1-.1-.1h-13.902s-.1 0-.1.1 0 .1.1.1l1.7.8c.7.301 1 .801 1 1.602 0 .6-.3 1.101-.8 1.401-3.4 1.801-7.301 3.503-11.702 4.904-.5.1-1 .2-1.5.2-.4 0-.9-.1-1.3-.2-.9-.3-1.7-.701-2.401-1.501l-1.4-1.401c-.2-.201-.4-.501-.4-.801 0-.1-.1-.3-.1-.4 0-.101 0-.301.1-.401.1-.3.2-.5.4-.8.2-.201.5-.301.8-.401 4.001-.901 7.502-2.001 10.502-3.202 0 0 .1 0 .1-.101 0-.1 0-.1-.1-.1h-3.2c-.901 0-1.601-.3-2.201-.9-.6-.601-.9-1.402-.9-2.302V90.775c0-.9.3-1.6.9-2.201.6-.6 1.4-.901 2.201-.901H368.96l-.1-.1c-4.501-1.201-8.101-3.903-10.802-8.207-.1-.2-.4-.3-.6-.3l-5.001.3s-.1.1-.2.1c-.8 0-1.4-.2-2-.8-.6-.501-1-1.202-1.1-2.002v-.3c0-.601.2-1.202.6-1.802.5-.6 1.2-.9 2-1l3.101-.201c.2 0 .3-.1.3-.4-.2-.701-.4-1.502-.5-2.302 0-.2-.1-.4-.1-.6 0-.601.2-1.102.6-1.602.5-.6 1.2-1.001 2.1-1.001h1c.9 0 1.701.3 2.401.9.7.601 1.2 1.302 1.4 2.203.2.6.4 1.3.7 1.901.1.3.3.4.5.3l5.201-.3s.1 0 .1-.1c0 0 0-.1-.1-.1-.7-.2-1.4-.5-1.9-.6-.6-.2-.901-.5-1.101-1.101-.2-.6 0-1.001.301-1.502.6-.6 1.2-1 2-1.3.4-.1.9-.2 1.3-.2.3 0 .7.1 1 .2 1.7.4 3.301.9 4.901 1.6.5.2.8.501.9 1.102.1.6 0 1-.4 1.5v.1c0 .1.1.1.1.1l2.1-.1h.2c.701 0 1.401.201 1.901.701.6.5.9 1.201 1 2.002 0 .1.1.2.1.3 0 .6-.2 1.201-.6 1.702-.5.6-1.1.9-1.9 1l-1.801.1c-.1 0-.1.1-.1.1 0 .1 0 .1.1.1.6.501 1.501.902 2.401 1.302.9.4 1.5 1 2 1.801.3.5.4 1.001.4 1.502 0 .3-.1.6-.2.9-.5 1.502-1.1 2.502-1.9 3.203-.8.7-1.901 1.101-3.301 1.301-.3 0-.4.2-.4.4v18.516zm-29.405-14.712c-.3 0-.4.1-.4.4v.7c0 .3.1.4.4.4h20.904c.3 0 .4-.1.4-.4v-.7c0-.3-.1-.4-.4-.4h-20.904zm0 5.905c-.3 0-.4.1-.4.4v.8c0 .3.1.4.4.4h20.904c.3 0 .4-.1.4-.4v-.8c0-.2-.1-.4-.4-.4h-20.904zm0 5.804c-.3 0-.4.101-.4.401v.8c0 .301.1.401.4.401h20.904c.3 0 .4-.1.4-.401v-.8c0-.3-.1-.401-.4-.401h-20.904zm30.005-25.721c0-.1 0-.2-.1-.2-.1-.1-.2-.1-.3-.1l-8.301.5c-.1 0-.1 0-.1.1v.2c2.1 1.702 4.3 2.603 6.801 2.603.6 0 1.1-.2 1.4-.6.2-.601.4-1.402.6-2.503zM398.665 100.283c-.9 0-1.6-.3-2.301-.9-.6-.601-.9-1.402-.9-2.203V85.97c0-.1 0-.1-.1-.2-.1 0-.1 0-.2.1-.2.201-.4.401-.7.601-.5.5-1.1.7-1.7.7-.2 0-.3 0-.5-.1-.8-.1-1.501-.6-1.901-1.2-.3-.5-.7-.9-1-1.401-.4-.6-.6-1.201-.6-1.902v-.4c.1-.901.5-1.602 1.1-2.102 3.401-2.802 6.201-6.105 8.502-9.808.5-.8 1.1-1.301 2-1.702.5-.2.9-.3 1.3-.3s.8.1 1.2.2l1.001.3c.8.3 1.3.801 1.7 1.602.1.3.2.6.2.9 0 .501-.1.901-.3 1.302-.6 1.1-1.4 2.302-2.3 3.403-.1.2-.201.5-.201.8V96.98c0 .9-.3 1.601-.9 2.202-.6.6-1.4.901-2.3.901h-1.1v.2zm14.102 11.409h6.101c.7 0 1.2-.1 1.5-.4.3-.2.6-.801.8-1.601.1-.701.501-1.201 1.201-1.602.4-.2.7-.3 1.1-.3.3 0 .6.1.9.2.4.1.8.3 1.2.501.9.3 1.5.8 2 1.601.401.5.501 1.101.501 1.701 0 .201 0 .401-.1.701-.601 2.402-1.501 4.003-2.701 4.904-1.3.901-3.2 1.301-5.701 1.301h-7.801c-2.6 0-4.601-.3-6.001-.901-1.4-.6-2.3-1.501-2.801-2.702-.5-1.201-.8-3.002-.8-5.304v-3.904s0-.1-.1-.1h-.1c-1.4 4.304-3.1 7.607-5.101 10.009-.6.7-1.3 1.101-2.3 1.201h-.3c-.8 0-1.6-.301-2.3-.801l-1.501-1.001c-.7-.5-1-1.101-1-2.001 0-.701.2-1.402.8-1.902 1.601-1.802 2.901-3.903 3.901-6.405.3-.801.9-1.402 1.7-1.802.4-.2.9-.4 1.301-.4.3 0 .7.1 1 .2l3.6 1.201c.2.1.3 0 .3-.2 0-.501.2-1.001.6-1.401.401-.401.801-.601 1.401-.601h4.5c.1 0 .1 0 .1-.1s0-.1-.1-.1c-.5-.3-.7-.801-.7-1.301 0-.6.2-1 .6-1.401l1.601-1.301c.6-.5 1.3-.801 2.1-.901h.3c.7 0 1.3.2 1.9.5h.1c.1 0 .1-.1 0-.1-.1-.4-.2-.8-.4-1.1-.1-.2-.2-.501-.2-.801 0-.4.1-.801.4-1.201.4-.6.9-.901 1.701-.901h1.6c.3 0 .5-.1.7-.2.1-.1.2-.3.2-.6V78.364c0-.3-.1-.4-.4-.4h-3.701c-.3 0-.4.1-.6.4-.7 1.1-1.4 2.001-2.1 2.902-.2.2-.1.4.1.4l3 .801c.801.2 1.401.7 1.701 1.501.2.4.3.8.3 1.101 0 .4-.1.8-.3 1.101-1.1 2.202-2.401 4.304-3.801 6.305-.5.7-1.3 1.101-2.1 1.201-.1 0-.3.1-.5.1-.7 0-1.401-.2-2.001-.6-.3-.2-.6-.4-1-.6-.6-.4-1-1.001-1.2-1.802v-.4c0-.6.2-1.201.6-1.702 1.1-1.401 2.1-3.002 3.001-4.704-.1.1-.2.1-.3 0-.801-.8-1.801-1.801-3.101-3.002-.7-.5-1-1.301-1-2.102 0-.8.2-1.501.8-2.002 1.6-1.901 3-4.003 4.101-6.505.4-.9.9-1.501 1.7-1.902.5-.3 1.1-.4 1.6-.4.3 0 .6 0 .9.1l2.001.5c.6.1 1 .5 1.3 1.001.2.3.3.6.3 1.001 0 .2-.1.4-.2.7-.1.2 0 .301.2.301h15.602c.3-.1.701-.1 1.001-.1.4 0 .7 0 1.1.1l1.8.4c.8.1 1.3.6 1.7 1.201.2.4.4.901.4 1.301 0 .3 0 .6-.1.801-.8 2.302-1.6 4.504-2.5 6.606-.2.5-.5.8-.9 1-.4.2-.9.3-1.4.2 0 0-.1 0-.1.1v.1c1.4 2.203 2.5 4.404 3.5 6.506.2.4.3.9.3 1.301 0 .4-.1.8-.2 1.201-.4.8-.9 1.401-1.8 1.802l-1.1.5c-.4.2-.8.3-1.2.3-.401 0-.701-.1-1.101-.2-.8-.3-1.3-.9-1.7-1.701-.8-2.002-1.8-4.204-3-6.406-.3-.4-.4-.9-.4-1.3 0-.3.1-.601.2-1.001.2-.801.8-1.302 1.6-1.702l.7-.3h0c-.2 0-.3-.1-.4-.3-.1-.2-.1-.3 0-.5.4-1.002.7-2.002 1-2.803v-.2c-.1-.1-.1-.1-.2-.1h-3.701c-.3 0-.4.1-.4.4v14.112c0 1.801-.2 3.102-.6 4.103-.4.9-1.1 1.702-2.2 2.202-1.2.6-2.801 1.001-4.801 1.101-.1 0-.1.1-.1.1 0 .1 0 .1.1.2.2.1.3.3.5.4.6.501.9 1.201.9 2.002 0 .901-.3 1.702-1 2.302l-1 .801c-.6.5-1.3.8-2 .8-.1 0-.1 0-.2-.1-.901 0-1.601-.4-2.301-1.001-.9-.9-2-1.801-3.1-2.602-.1-.1-.1-.1-.2-.1s-.1.1-.1.2v6.306c0 .8.2 1.301.5 1.601.3.3.7.4 1.9.4zm13.702-4.904c-.4-.5-.6-1.001-.6-1.601 0-.1 0-.3.1-.501.1-.8.6-1.401 1.2-1.701l1.001-.6c.6-.301 1.3-.501 2-.501h.7c.9.1 1.7.601 2.3 1.301 2.501 2.702 4.401 5.205 5.901 7.707.3.5.4 1.001.4 1.501 0 .3-.1.6-.2.901-.3.9-.8 1.501-1.6 1.901l-1.6.901c-.4.2-.9.3-1.3.3-.3 0-.6-.1-1-.2-.801-.3-1.401-.801-1.801-1.501-1.4-2.402-3.2-5.104-5.501-7.907zM491.68 99.082c-.1.1-.1.2-.1.2l1.6 1.101c.6.5.9 1.101.9 1.901 0 .801-.3 1.402-1 1.702-1.8 1.201-3.701 2.402-5.701 3.503-.1.1-.1.1-.1.2s.1.1.2.2c2.301 1.201 4.801 2.102 7.601 2.802.701.201 1.101.601 1.301 1.202.1.2.1.4.1.6 0 .4-.1.801-.4 1.101-.5.6-1.001 1.301-1.501 2.002-.5.8-1.2 1.401-2 1.801-.5.2-1 .4-1.5.4-.4 0-.7-.1-1.1-.2-4.601-1.401-8.502-3.403-11.502-6.005-3.701-3.102-6.601-7.206-9.002-12.31-.1-.2-.3-.4-.5-.4h-4.601c-.3 0-.4.1-.4.4v9.208c0 .3.1.4.4.4 2.701-.4 5.001-.701 6.902-1.001h.4c.7 0 1.3.2 1.9.701.6.5 1 1.201 1 2.101l.1.701c0 .901-.2 1.701-.8 2.402-.6.701-1.3 1.101-2.1 1.301-5.001.801-11.002 1.602-17.703 2.502-.1 0-.3.1-.5.1-.7 0-1.401-.2-1.901-.6-.8-.501-1.2-1.201-1.5-2.002l-.3-1.201c-.1-.2-.1-.4-.1-.6 0-.601.2-1.101.5-1.602.5-.7 1.2-1.101 2-1.201 1.201-.1 2.201-.2 3.001-.3.3 0 .4-.2.4-.5V99.482c0-.2-.1-.4-.4-.4h-5.301c-.9 0-1.6-.3-2.2-.9-.6-.601-.9-1.402-.9-2.203v-.6c0-.901.3-1.602.9-2.202.6-.6 1.4-.9 2.2-.9h5.401c.2 0 .4-.1.4-.401V71.159c0-.901.3-1.602.9-2.202.6-.6 1.4-.901 2.201-.901h28.904c.9 0 1.6.3 2.201.9.6.601.9 1.402.9 2.203v.2c0 .9-.3 1.601-.9 2.202-.601.6-1.401.9-2.201.9h-23.404c-.3 0-.4.1-.4.4v1.102c0 .3.1.4.4.4h22.204c.9 0 1.6.3 2.2.9.601.601.901 1.302.901 2.203 0 .9-.3 1.6-.901 2.201-.6.6-1.3.901-2.2.901h-22.204c-.3 0-.4.1-.4.4v1.001c0 .3.1.4.4.4h22.204c.9 0 1.6.3 2.2.901.601.6.901 1.301.901 2.202 0 .9-.3 1.602-.901 2.202-.6.6-1.3.9-2.2.9h-22.204c-.3 0-.4.1-.4.401v1c0 .301.1.401.4.401h29.505c.9 0 1.6.3 2.201.901.6.6.9 1.401.9 2.202v.6c0 .901-.3 1.602-.9 2.202-.601.6-1.401.9-2.201.9h-2.2v-.1zm-4.201.3c.1-.1.1-.1.1-.2s-.1-.1-.1-.1h-9.101c-.1 0-.1 0-.2.1v.2c.8 1.301 1.8 2.602 3 3.903.2.2.4.2.6.1 2.001-1.301 3.901-2.602 5.701-4.003zM529.986 93.477c0 .9-.3 1.601-.9 2.302-.6.6-1.4.9-2.301.9h-5.4c-.3 0-.4.1-.5.401 0 .3 0 .4-.1.6-.101.3 0 .501.2.701 2 2.002 4.6 4.904 7.701 8.607.6.701.9 1.502.9 2.502 0 .901-.3 1.702-.8 2.402l-1.5 1.802c-.501.5-1.001.801-1.701.801h-.2c-.8 0-1.4-.401-1.8-1.001-1.5-2.202-3.101-4.504-4.901-6.906-.1-.1-.2-.1-.2-.1-.1 0-.2.1-.2.1-1.7 4.404-4.101 8.107-7.301 11.009-.5.501-1.1.801-1.8.801h-.4c-.801-.1-1.501-.501-2.101-1.201-.4-.501-.9-1.001-1.4-1.501-.5-.601-.8-1.301-.8-2.002 0-.801.3-1.501.9-2.102 3.901-3.703 6.401-8.507 7.401-14.512 0-.3-.1-.4-.4-.4h-5.401c-.9 0-1.6-.3-2.3-.901-.6-.6-.9-1.401-.9-2.302v-1.2c0-.902.3-1.602.9-2.303.6-.6 1.4-.9 2.3-.9h6.001c.3 0 .4-.1.4-.4v-6.606c0-.2-.1-.4-.4-.4h-.2c-.3 0-.4.1-.5.4-.5 1.3-1.1 2.402-1.7 3.502-.4.701-1 1.101-1.8 1.302-.2 0-.401.1-.501.1-.6 0-1.2-.2-1.7-.6l-1.2-.902c-.7-.5-1.2-1.2-1.3-2.001-.1-.2-.1-.5-.1-.8 0-.601.1-1.102.4-1.702 1.5-2.803 2.6-6.206 3.5-10.309.2-.8.6-1.501 1.301-2.002.5-.4 1.1-.5 1.7-.5.2 0 .4 0 .6.1l1.4.3c.9.1 1.5.6 2.001 1.301.3.5.5 1.001.5 1.602 0 .3 0 .5-.1.8-.1.6-.3 1.101-.4 1.702v.3c.1.1.1.1.2.1h10.301c.9 0 1.601.3 2.201.9.6.601.9 1.402.9 2.203v1.1c0 .901-.3 1.602-.9 2.203-.6.6-1.401.9-2.201.9h-3.3c-.3 0-.4.1-.4.4v6.506c0 .3.1.4.4.4h4.8c.901 0 1.601.3 2.301.901.6.6.9 1.401.9 2.302v1.301h-.1zm1.3-18.015c0-.9.3-1.601.9-2.302.6-.6 1.401-.9 2.301-.9h15.502c.9 0 1.601.3 2.301.9.6.6.9 1.401.9 2.302v38.632c0 .901-.3 1.602-.9 2.302-.6.601-1.401.901-2.301.901h-2.4c-.7 0-1.3-.3-1.8-.801-.5-.5-.801-1.101-.801-1.801 0-.2-.1-.3-.3-.3h-5.2c-.3 0-.401.1-.401.4v.3c0 .901-.3 1.601-.9 2.202-.6.6-1.4.901-2.3.901h-1.4c-.9 0-1.601-.301-2.301-.901-.6-.601-.9-1.401-.9-2.202V75.462zm7.701 31.026c0 .3.1.4.401.4h5.1c.3 0 .4-.1.4-.4V80.066c0-.2-.1-.4-.4-.4h-5.1c-.301 0-.401.1-.401.4v26.422zM575.793 76.564c.901 0 1.601.3 2.201.9.6.601.9 1.302.9 2.202 0 .901-.3 1.602-.9 2.202-.6.6-1.3.9-2.201.9h-11.402c-.9 0-1.6-.3-2.2-.9-.6-.6-.9-1.3-.9-2.202 0-.9.3-1.601.9-2.201.6-.601 1.3-.901 2.2-.901h11.402zm-1.1 23.32c.9 0 1.6.299 2.201.9.6.6.9 1.401.9 2.302v10.609c0 .9-.3 1.601-.9 2.202-.601.6-1.401.9-2.201.9h-5.201c-.1 0-.2.1-.2.2 0 .501-.2 1.001-.5 1.302-.4.4-.8.5-1.3.5h-1.2c-.8 0-1.5-.3-2.101-.901-.6-.6-.9-1.301-.9-2.102v-12.71c0-.901.3-1.601.9-2.302.601-.601 1.401-.9 2.201-.9h8.301zm0-15.414c.8 0 1.5.3 2.101.901.6.6.9 1.301.9 2.102 0 .8-.3 1.501-.9 2.102-.601.6-1.301.9-2.101.9h-8.201c-.8 0-1.5-.3-2.101-.9-.6-.6-.9-1.302-.9-2.102 0-.8.3-1.501.9-2.102.601-.6 1.301-.9 2.101-.9h8.201zm-8.201 13.612c-.8 0-1.5-.3-2.101-.901-.6-.6-.9-1.301-.9-2.102 0-.8.3-1.501.9-2.102.601-.6 1.301-.9 2.101-.9h8.201c.8 0 1.5.3 2.101.9.6.6.9 1.301.9 2.102 0 .8-.3 1.501-.9 2.102-.601.6-1.301.9-2.101.9h-8.201zm8.201-29.024c.8 0 1.5.3 2.101.9.6.6.9 1.301.9 2.102 0 .8-.3 1.501-.9 2.102-.601.6-1.301.9-2.101.9h-7.901c-.8 0-1.5-.3-2.1-.9-.601-.6-.901-1.301-.901-2.102 0-.8.3-1.501.901-2.102.6-.6 1.3-.9 2.1-.9h7.901zm-3 37.431c0-.301-.1-.401-.4-.401h-1.601c-.3 0-.4.1-.4.401v3.903c0 .3.1.4.4.4h1.601c.2 0 .4-.1.4-.4v-3.903zm34.405-9.008c.3-.8.9-1.3 1.701-1.601.3-.1.6-.2 1-.2s.9.1 1.3.3l.3.2c.8.4 1.3 1.101 1.6 1.902.1.4.2.7.2 1.1 0 .501-.1.901-.3 1.402-1.4 2.802-3 5.604-4.901 8.207-.2.2-.2.4-.1.7.501 1.101 1.001 1.602 1.601 1.602.4 0 .7-.801 1-2.503.1-.6.4-.9.9-1.1.5-.201 1-.101 1.5.3.1 0 .1.1.2.2.8.701 1.3 1.501 1.601 2.402.2.5.3 1.001.3 1.501 0 .401-.1.801-.2 1.201-.701 2.502-1.601 4.204-2.601 5.205-1 .9-2 1.401-3 1.401h-.2c-2.601-.2-4.601-1.802-6.101-4.604-.1-.3-.3-.3-.4-.1-1.201 1.101-2.401 2.102-3.501 3.002-.6.401-1.2.601-1.9.601-.1 0-.3 0-.5-.1-.901-.1-1.601-.501-2.201-1.101-.2-.1-.3-.3-.5-.401-.4-.4-.6-.9-.6-1.601 0-.6.3-1.101.8-1.501v-.1s0-.1-.1-.1h-6.401c-.1 0-.2.1-.2.2 0 .4-.1.7-.4 1.001-.3.3-.6.4-1 .4h-1.6c-.801 0-1.501-.3-2.101-.901-.6-.6-.9-1.301-.9-2.101V97.381c0-.9.3-1.601.9-2.202.6-.6 1.4-.9 2.301-.9h9.701c.9 0 1.601.3 2.201.9.6.6.9 1.401.9 2.202v13.511c0 .1 0 .1.1.201.1 0 .1 0 .2-.101.9-.9 1.8-1.801 2.7-2.802.2-.2.2-.4.2-.7-.7-3.804-1.1-8.708-1.3-14.813 0-.3-.1-.4-.4-.4h-16.003c-.9 0-1.6-.3-2.2-.9-.6-.601-.9-1.402-.9-2.303 0-.9.3-1.601.9-2.202.6-.6 1.3-.9 2.2-.9.3 0 .4-.1.4-.4 0-.901-.2-1.902-.4-3.003 0-.2-.1-.4-.1-.6 0-.601.2-1.202.5-1.702.501-.8 1.101-1.201 1.901-1.401l1.5-.3s.1 0 .1-.1c0 0 0-.1-.1-.1h-3.001c-.8 0-1.5-.301-2-.901-.6-.601-.9-1.302-.9-2.102 0-.8.3-1.501.9-2.102.6-.6 1.3-.9 2-.9h1.801c.3 0 .4-.1.4-.401v-1.601c0-.901.3-1.602.9-2.202.6-.6 1.4-.901 2.3-.901h.901c.9 0 1.6.3 2.2.9.6.601.9 1.402.9 2.203v1.6c0 .301.1.401.4.401h1.6c.8 0 1.501.3 2.101.901.6.6.9 1.301.9 2.102 0 .8-.3 1.501-.9 2.102-.6.6-1.301.9-2.101.9h-2.2v.1l1.4.2c.8.1 1.5.601 1.901 1.302.3.5.5 1 .5 1.6 0 .301 0 .501-.1.802-.1.4-.2 1-.4 1.701-.201.7-.301 1.201-.301 1.501-.1.3 0 .4.301.4h2.5c.3 0 .4-.1.4-.4-.1-3.503-.1-8.507-.1-14.912 0-.9.3-1.602.9-2.202.6-.6 1.4-.9 2.3-.9h.401c.9 0 1.6.3 2.2.9.6.6.9 1.401.9 2.302v1.901c0 .1 0 .2.1.2.1.1.1.1.2 0l1.5-.5c.5-.2.901-.3 1.401-.3.4 0 .8.1 1.2.2.9.3 1.6.8 2 1.702.8 1.4 1.4 2.802 1.9 4.203.1.4.2.8.2 1.101 0 .5-.1.9-.3 1.301-.4.8-1 1.401-1.9 1.702l-.4.2c-.4.1-.7.2-1 .2-.4 0-.8-.1-1.2-.3-.8-.4-1.301-1.001-1.501-1.802-.5-1.701-1.2-3.303-2-5.004 0-.1-.1-.1-.1-.1-.1 0-.1 0-.1.1 0 2.402-.1 5.705-.1 9.808 0 .3.1.4.4.4h5.301c.9 0 1.6.3 2.3.901.6.6.901 1.401.901 2.202 0 .9-.301 1.601-.901 2.202-.6.6-1.4.9-2.3.9h-5.201c-.3 0-.4.1-.4.4.1 2.803.2 5.005.3 6.606 0 .1 0 .1.1.1s.1 0 .1-.1c.3-.1.6-.8.9-1.5zm-16.002-18.515c0-.3-.1-.4-.4-.4h-3.101c-.1 0-.2 0-.2.1-.1.1-.1.2 0 .2.4 1 .7 2.101.9 3.202.1.2.1.4.1.7 0 .601-.2 1.202-.6 1.702-.5.801-1.3 1.201-2.1 1.502v.1h6.801s.1 0 .1-.1c-.6-.1-1.1-.5-1.5-1.001-.3-.4-.4-.901-.4-1.401v-.4c.1-1.602.3-3.003.4-4.204zm-.1 21.117c0-.3-.1-.4-.4-.4h-2.901c-.3 0-.4.1-.4.4v1.001c0 .3.1.401.4.401h2.901c.2 0 .4-.101.4-.401v-1.001zm-3.601 8.107c0 .3.1.4.4.4h2.901c.2 0 .4-.1.4-.4v-1.101c0-.2-.1-.4-.4-.4h-2.901c-.3 0-.4.1-.4.4v1.101zM150.224 41.134H20.604C9.201 41.134 0 31.927 0 20.617 0 9.207 9.201 0 20.603 0h129.621c11.402 0 20.604 9.208 20.604 20.617-.1 11.31-9.302 20.517-20.604 20.517z"/>
    <path fill="#fff" d="M45.107 16.013c-.1 0-.1 0-.1.1v2.402c0 .6.1 1.201.2 2.002.1.8.3 1.501.5 2.402.2.9.6 1.802 1 2.702.4.901 1 1.702 1.7 2.402.2.3.4.6.4 1.001v.2c0 .3-.1.6-.3.901 0 .1-.1.1-.1.2-.2.3-.5.5-.9.5h-.1c-.3 0-.5-.1-.8-.4-.8-.9-1.5-2.102-2-3.403-.5-1.3-.8-2.502-1-3.603-.2 1.101-.6 2.402-1.2 3.804-.6 1.4-1.4 2.502-2.4 3.503-.2.1-.4.2-.6.2h-.2c-.3 0-.5-.2-.6-.4l-.1-.1h-7.402c-.1 0-.1 0-.1.1 0 .2-.1.4-.2.6-.1.2-.4.2-.6.2h-.4c-.3 0-.6-.1-.8-.4-.2-.3-.4-.5-.4-.801v-4.304h-.1c-.2.2-.4.3-.6.3-.2 0-.4-.2-.6-.4 0-.1-.1-.2-.1-.2-.2-.3-.3-.6-.3-1 0-.401.1-.801.4-1.102.9-1.2 1.6-2.702 2.1-4.303v-.1l-.1-.1h-.4c-.4 0-.7-.1-1-.4-.3-.3-.4-.601-.4-1.001v-2.002c0-.4.1-.7.4-1.001.3-.3.6-.4 1-.4h2.3c.4 0 .7.1 1 .4.3.3.4.6.4 1v2.003c0 .4-.1.7-.4 1-.3.3-.6.4-1 .4h-.7.1c.3.1.5.3.7.501.1.2.1.3.1.5 0 .1 0 .2-.1.4 0 .1 0 .1.1.1h1.6c.1 0 .2-.1.2-.2.2-.5.3-1 .4-1.4-.1 0-.2 0-.3-.1-.1-.1-.1-.2-.1-.3v-3.003c0-.4.1-.7.4-1.001.3-.3.6-.4 1-.4h2.4c.401 0 .701.1 1.001.4.3.3.4.6.4 1v1.902h.1c.8-1.801 1.4-4.103 1.8-7.005 0-.4.2-.701.5-.901.2-.2.5-.3.8-.3H41.907c.4 0 .7.2.9.5.2.2.3.5.3.8v.2c-.1.801-.3 1.702-.4 2.403 0 .1 0 .2.1.2H46.909c.2-.1.5-.1.7 0l.6.2c.3.1.5.3.6.5.1.2.2.4.2.701v.2c-.2 1.802-.5 3.403-.8 4.704-.1.3-.2.5-.5.6-.1 0-.2.1-.4.1s-.3 0-.4-.1c-.3-.2-.5-.4-.7-.7-.2-.3-.2-.5-.2-.8v-.3c.1-.601.2-1.302.3-2.203 0-.1-.1-.2-.2-.2h-1v.1zm-14.702-2.302c-.3 0-.5-.1-.8-.3-.3-.2-.3-.4-.3-.7 0-.1 0-.1-.1-.1h-1.3c-.3 0-.5-.1-.7-.3-.2-.201-.3-.401-.3-.701 0-.3.1-.5.3-.701.2-.2.4-.3.7-.3h1.2c.1 0 .1-.1.1-.2 0-.3.1-.6.4-.901.3-.3.5-.4.9-.4s.6.1.9.4c.3.3.4.5.4.9 0 .1.1.2.2.2h1.9c.1 0 .2-.1.2-.2 0-.3.1-.6.4-.9.3-.3.5-.4.9-.4.3 0 .6.1.9.4.3.3.4.5.4.9 0 .1 0 .2.1.2h1.401c.3 0 .5.1.7.301.2.2.3.4.3.7 0 .3-.2.4-.4.601-.2.2-.4.3-.7.3h-1.4c-.1 0-.1 0-.1.1 0 .3-.1.5-.3.701-.2.2-.5.3-.8.3h-.4c-.3 0-.5-.1-.8-.3-.3-.2-.3-.4-.3-.7 0-.1 0-.1-.1-.1h-2c-.1 0-.1 0-.1.1 0 .3-.1.5-.301.7-.2.2-.5.3-.8.3h-.3v.1zm-.9 2.102c-.1 0-.2.1-.2.2v1.001c0 .1.1.2.2.2h.9c.1 0 .2-.1.2-.2v-1c0-.1-.1-.2-.2-.2h-.9zm1.5 7.306c0 .1.1.2.2.2h1.6c.1 0 .2-.1.2-.2v-.6c0-.1-.1-.2-.2-.2h-1.6c-.1 0-.2.1-.2.2v.6zm.1 1.902c-.1 0-.1.1-.1.2v.6c0 .1.1.2.2.2h1.6c.1 0 .2-.1.2-.2v-.6c0-.1-.1-.2-.2-.2h-1.7zm0 2.602c-.1 0-.2.1-.2.2v.6c0 .1.1.2.2.2h1.6c.1 0 .2-.1.2-.2v-.6c0-.1-.1-.2-.2-.2h-1.6zm4.2.7c0 .1.1.2.2.2h2.601c.1 0 .2 0 .3-.1.8-.7 1.4-1.5 2-2.501.6-1.001.9-1.902 1.2-2.803.3-.9.4-1.801.5-2.502.1-.7.1-1.301.1-1.902V16.213c0-.1 0-.1-.1-.1s-.1-.1-.1 0c-.4 1.201-.8 2.402-1.2 3.303-.2.3-.4.5-.8.6h-.2c-.3 0-.5-.1-.8-.3-.4-.3-.7-.5-1.1-.8-.1-.1-.2-.1-.3-.1h-3.1l.5.2c.3.1.5.2.7.5 0 .1.1.2.1.4s0 .3-.1.4v.1h2c.3 0 .5.101.7.301.2.2.3.4.3.7 0 .301-.1.501-.3.701-.2.2-.4.3-.7.3h-2.1c-.1 0-.2.1-.2.2v.601c0 .1.1.2.2.2h1.6c.2 0 .4.1.6.2.2.1.2.4.2.601 0 .2-.1.4-.2.6-.1.2-.5.2-.7.2h-1.6c-.1 0-.2.1-.2.2v.601c0 .1.1.2.2.2h1.6c.2 0 .4.1.6.2.2.1.2.401.2.601 0 .2-.1.4-.2.6-.1.2-.4.2-.6.2h-1.6c-.1 0-.2.101-.2.201v.5zm0-12.51c-.1 0-.2.1-.2.2v1.001c0 .1.1.2.2.2h1c.1 0 .2-.1.2-.2v-1c0-.1-.1-.2-.2-.2h-1zM54.709 18.415c.4 0 .7.1 1 .4.3.3.4.6.4 1.001v6.105c0 .1 0 .2.1.3.9 1.401 2.6 2.202 5.1 2.302 1.001 0 2.101.1 3.602.1h1.5c2.1 0 4-.1 5.7-.2.3 0 .5.1.7.4.1.2.2.4.2.5v.301c-.1.4-.3.7-.7 1.001-.4.3-.7.4-1.1.4-2 .1-3.8.1-5.5.1-1.6 0-3.1 0-4.501-.1-1.5-.1-2.7-.3-3.7-.7-1-.4-1.801-1.001-2.501-1.902-.1-.1-.2-.1-.2 0l-1.9 1.902c-.2.2-.4.3-.7.3h-.2c-.3-.1-.6-.2-.7-.6l-.1-.2c-.1-.3-.2-.501-.2-.801 0-.1 0-.3.1-.4.1-.401.3-.701.6-.901.6-.5 1.1-.901 1.6-1.301.1-.1.1-.2.1-.3v-4.905c0-.1-.1-.2-.2-.2h-1c-.4 0-.7-.1-.9-.4-.2-.3-.4-.6-.4-.901 0-.3.1-.7.4-.9.3-.201.6-.401.9-.401h2.5zm.9-6.005c.2.2.3.5.3.7v.3c-.1.401-.3.701-.6.901l-.1.1c-.2.1-.4.2-.7.2h-.3c-.4-.1-.6-.3-.9-.6-.4-.6-.9-1.3-1.6-2.002-.2-.2-.3-.5-.3-.8v-.1c0-.3.2-.6.5-.8.3-.201.6-.301.9-.301h.2c.4 0 .7.2 1 .5.6.7 1.2 1.301 1.6 1.902zm3.1 12.81h-.4c-.2 0-.4-.1-.6-.2-.3-.2-.5-.4-.6-.8v-.3c0-.2.1-.4.2-.601.2-.3.4-.5.8-.6.1 0 .2-.1.2-.2v-10.51c0-.3.1-.6.4-.8.2-.1.4-.2.6-.2h.6c.7-.4 1.3-.7 1.901-1.101.3-.2.6-.3.9-.3h.2c.4 0 .7.2 1 .5l.9 1c0-.2.1-.3.2-.4.1-.1.2-.2.4-.2h5.901c.4 0 .7.1 1 .4.3.3.4.601.4 1.001v10.81c0 .6-.1 1.1-.2 1.4-.1.3-.4.601-.8.801-.4.2-1.1.4-1.9.4h-.1c-.3 0-.6-.1-.9-.3-.3-.2-.5-.5-.6-.9v-.3c0-.2 0-.3.1-.501.2-.2.4-.4.7-.4h.6c.2 0 .3 0 .3-.1s.1-.2.1-.3V13.01c0-.1-.1-.2-.2-.2h-2.2c-.1 0-.2.1-.2.2v13.412c0 .4-.1.7-.4.9-.3.2-.6.4-.9.4-.3 0-.7-.1-.9-.4-.2-.3-.4-.6-.4-.9V11.409s0-.1-.1-.1h-.1c-1 .6-2.2 1.1-3.501 1.601-.1 0-.2.1-.2.2v8.708c0 .1.1.2.2.1.5-.1 1-.2 1.6-.4h.3c.2 0 .4.1.6.2.3.2.4.4.5.8v.2c0 .3-.1.5-.2.801-.2.3-.5.5-.8.6-1.6.4-3 .701-4.4 1.102zM79.513 10.208c.2-.3.5-.6.8-.7.2-.1.4-.1.6-.1.2 0 .3 0 .5.1.3.1.6.3.7.7.1.1.1.3.1.4 0 .2-.1.4-.2.5-.4.601-.7 1.202-1.1 1.702-.1.1-.1.2-.1.3v8.608c0 .4-.1.7-.4 1-.3.3-.6.4-1 .4s-.7-.1-1-.4c-.3-.3-.4-.6-.4-1V16.313h-.1c-.2.2-.4.4-.7.6-.3.2-.5.301-.8.301h-.2c-.4 0-.6-.2-.9-.5 0 0-.1 0-.1-.1-.2-.3-.3-.5-.3-.801v-.2c0-.4.2-.7.5-.901 1.7-1.301 3-2.802 4.1-4.504zm-1.4 19.617c-.3.3-.6.5-1 .5h-.1c-.4 0-.7-.1-1-.3h-.1c-.3-.2-.4-.5-.4-.901 0-.3.1-.6.4-.8.7-.801 1.3-1.702 1.7-2.803.1-.3.4-.6.7-.8.2-.1.4-.1.6-.1.1 0 .3 0 .4.1.4.1.6.4.8.7.1.2.2.4.2.6 0 .1 0 .3-.1.4-.6 1.302-1.3 2.503-2.1 3.404zm6.9-1.302h3.301c.3 0 .6-.1.8-.2.2-.1.3-.4.3-.8.1-.3.2-.5.5-.701.2-.1.3-.1.5-.1.1 0 .2 0 .4.1.4.1.7.4.9.7.2.2.2.501.2.801v.3c-.2 1.001-.5 1.602-1 2.002-.5.4-1.3.4-2.4.4h-3.8c-1.5 0-2.5-.2-3-.7-.5-.5-.8-1.301-.8-2.602V25.42c0-.4.1-.7.4-1.001.3-.3.6-.4 1-.4h.1c.4 0 .7.1 1 .4.3.3.4.6.4 1v2.303c0 .3.1.6.2.7.1.1.5.1 1 .1zm3.101-14.812c0-.1-.1-.2-.2-.2h-2.1c-.1 0-.2 0-.3.1-.4.6-.8 1.1-1.1 1.601-.2.3-.6.4-1 .4s-.7-.1-1-.4c-.3-.3-.4-.5-.4-.8 0-.3.1-.6.4-.901.8-.9 1.4-1.902 2-3.103.2-.3.4-.6.8-.8.2-.1.4-.2.7-.2h.4c.3.1.6.3.8.6.1.2.1.4.1.5 0 .1 0 .3-.1.4v.1l.1.1h8.301l.6.101c.3.1.5.2.6.4.1.1.1.3.1.4 0 .1 0 .2-.1.3-.3 1.002-.7 2.003-1.1 2.803-.1.2-.3.4-.5.5-.2.1-.5.1-.7.1.6 1.002 1.1 1.902 1.6 2.903v.8c0 .201 0 .301-.1.501-.1.4-.4.6-.8.8-.2.101-.3.101-.5.101s-.3 0-.5-.1c-.3-.1-.6-.4-.7-.7-.4-.901-.9-1.802-1.4-2.703-.1-.2-.2-.4-.2-.6 0-.1 0-.2.1-.4.1-.401.3-.601.7-.801h.1c.1 0 .2-.1.2-.2.1-.3.3-.801.6-1.502v-.1l-.1-.1h-2.4c-.1 0-.2.1-.2.2v6.706c0 .7-.1 1.2-.2 1.501-.1.3-.4.6-.8.8-.5.3-1.4.401-2.6.401v.1c.3.2.6.4.8.6.3.2.4.501.4.901s-.1.7-.4 1.001c-.4.1-.7.2-1 .2h-.1c-.401 0-.701-.2-1.001-.4-.6-.5-1.2-1-2-1.501-.3-.2-.4-.5-.4-.8 0-.301.1-.501.3-.701.3-.2.6-.4 1-.4h.2c.3 0 .6.1.9.2.1.1.2.1.2.2h.1v-.1c0-.2-.1-.4-.2-.601 0-.1-.1-.2-.1-.3 0-.2.1-.3.2-.5.2-.301.4-.401.7-.401h.8c.1 0 .2 0 .3-.1.1-.1.1-.1.1-.3V13.71h.1zm-4 2.702c.2-.3.4-.6.8-.8.2-.1.4-.2.7-.2.1 0 .3 0 .4.1.3.1.6.3.8.6.1.2.1.3.1.5s0 .3-.1.5c-.5 1.002-1.1 1.902-1.7 2.703-.2.3-.5.5-.9.5h-.2c-.3 0-.6-.1-.8-.3-.3-.2-.4-.4-.5-.8v-.2c0-.3.1-.5.3-.801.3-.4.7-1.001 1.1-1.802zm7.5 9.508c-.2-.2-.3-.4-.3-.7v-.2c0-.3.2-.601.5-.801.3-.2.5-.2.801-.2h.3c.4.1.7.2 1 .5 1.1 1.201 2 2.302 2.6 3.303.1.2.2.4.2.6 0 .1 0 .3-.1.4-.1.401-.3.701-.7.801l-.2.1c-.1.3-.2.3-.5.3-.1 0-.3 0-.4-.1-.3-.1-.6-.3-.8-.7-.6-1-1.4-2.102-2.4-3.303zM119.619 20.317c.3.2.4.6.4 1 0 .301-.1.601-.4.901-.3.3-.6.4-1 .4s-.7-.1-1-.4c-.5-.5-1.2-1-2.001-1.7-.1-.101-.1-.101-.2 0l-.6.9c-.2.3-.6.5-1 .5h-.2c-.3 0-.6-.1-.9-.3-.2-.1-.4-.2-.6-.4.9 1.2 2.1 2.402 3.4 3.402 1.301 1.001 2.801 1.902 4.301 2.603.3.1.5.4.5.7v.2c0 .2-.1.4-.2.6-.1.201-.2.301-.4.501-.2.3-.6.5-.9.6h-.4c-.2 0-.5-.1-.7-.2-2.401-1.3-4.501-3.102-6.401-5.304h-.1c-.1 0 0 0 0 .1v5.405c0 .4-.1.7-.4 1-.3.3-.6.401-1 .401h-.2c-.401 0-.701-.1-1.001-.4-.3-.3-.4-.6-.4-1.001V24.42h-.1c-1.9 2.102-4 3.904-6.401 5.205-.2.1-.5.2-.7.2h-.4c-.4-.1-.7-.3-.9-.6l-.3-.3c-.2-.201-.2-.401-.2-.601v-.2c.1-.3.3-.601.6-.701 1.7-.8 3.3-1.802 4.701-3.003 1.4-1.2 2.7-2.602 3.6-4.003.1-.1.1-.2.1-.3v-5.105c0-.1-.1-.2-.2-.2h-7.001c-.4 0-.7-.1-1-.4-.3-.3-.4-.6-.4-1 0-.401.1-.701.4-1.002.3-.3.6-.4 1-.4h7.201c.1 0 .2-.1.2-.2v-1.401c0-.4.1-.7.4-1.001.3-.3.6-.4 1.001-.4h.2c.4 0 .7.1 1 .4.3.3.4.6.4 1v1.402c0 .1.1.2.2.2h7.501c.4 0 .7.1 1 .4.3.3.4.6.4 1.001 0 .4-.1.7-.4 1.001-.3.3-.6.4-1 .4h-7.501c-.1 0-.2.1-.2.2v5.005c0 .1 0 .2.1.3l.1.1.1.1c.1.1.1.1.2 0 1.1-1 2-2.502 2.6-4.303.1-.4.3-.701.7-.901.2-.2.501-.2.801-.2h.4c.4.1.6.2.8.6.1.2.2.4.2.6v.4c-.1.401-.2.701-.4 1.102 0 .1 0 .2.1.3 1.1 1 2 1.802 2.5 2.202zm-16.403-4.003c.1-.4.401-.6.701-.901.2-.2.5-.2.8-.2h.3c.4.1.7.3.8.6.1.2.2.4.2.6 0 .1 0 .3-.1.401-.1.4-.3.7-.4 1.1 0 .101 0 .201.1.301.5.4.9.8 1.2 1.001.3.2.4.6.4 1 0 .401-.1.701-.4 1.002-.2.3-.6.4-.9.4-.4 0-.7-.2-1-.4l-.5-.5c-.1-.1-.2-.1-.2 0-.5.8-1.101 1.6-1.701 2.201-.3.3-.6.4-.9.4-.4 0-.7-.1-1-.4 0 0-.1 0-.1-.1-.3-.2-.4-.5-.4-.9 0-.401.1-.601.4-.902 1.1-1.2 2-2.802 2.7-4.703zM130.521 27.022c0 .1.1.2.2.2l3.201-.4h.2c.3 0 .5.1.8.3.3.2.4.5.4.9 0 .2 0 .501-.1.701-.1.2-.3.4-.5.6-.2.201-.4.201-.7.301-.2 0-3.301.4-9.402 1.201h-.2c-.3 0-.6-.1-.8-.3-.3-.2-.5-.5-.6-.9v-.101-.2c0-.3.1-.5.3-.8.2-.301.5-.501.9-.501 1.3-.1 2.501-.3 3.401-.4.1 0 .2-.1.2-.2V24.72c0-.1-.1-.2-.2-.2h-2.601c-.3 0-.6-.1-.9-.4-.3-.3-.4-.601-.4-.901 0-.3.1-.6.4-.901.3-.3.5-.4.9-.4h2.501c.1 0 .2-.1.2-.2v-.701c0-.4.1-.7.4-1 .3-.301.6-.401 1-.401h.1c.4 0 .7.1 1 .4.3.3.4.6.4 1v.802c0 .1.1.2.2.2h2.501c.4 0 .7.1.9.4.2.3.4.5.4.9 0 .401-.1.701-.4.902-.3.2-.5.4-.9.4h-2.501c-.1 0-.2.1-.2.2v2.202h-.1zm.5-11.41c-.1-.2-.2-.4-.2-.6v-.3c.1-.3.2-.5.5-.7.2-.101.4-.201.7-.201h.3c.301.1.601.2.801.5.9 1.201 1.6 2.202 2.2 3.203.1.2.1.4.1.6v.4c-.1.301-.3.601-.7.802h-.1c-.2.1-.4.1-.5.1-.1 0-.2 0-.4-.1-.3-.1-.5-.3-.7-.601 0-.1-.1-.1-.2-.1-2.301.1-5.101.3-8.402.4h-.1c-.3 0-.6-.1-.9-.3-.3-.3-.5-.6-.5-1 0-.301.1-.601.4-.802.2-.3.6-.4.9-.4h.6c.1 0 .2-.1.2-.2.4-1.1.7-2.202 1-3.203v-.1h-1.8c-.3 0-.6-.1-.9-.4-.3-.3-.4-.5-.4-.9 0-.401.1-.601.4-.902.3-.3.5-.4.9-.4h9.602c.4 0 .7.1.9.4.2.3.4.5.4.901 0 .4-.1.6-.4.9-.3.301-.5.401-.9.401h-4.401c-.1 0-.2.1-.2.2-.5 1.201-.9 2.202-1.3 3.203v.1h.1c.8 0 1.9-.1 3.4-.1h.1v-.1c-.1-.2-.3-.5-.5-.7zm5.501-3.202c.3-.3.6-.4 1-.4s.7.1 1 .4c.301.3.401.6.401 1v10.81c0 .4-.1.7-.401 1-.3.3-.6.4-1 .4s-.7-.1-1-.4c-.3-.3-.4-.6-.4-1V13.31c0-.3.1-.7.4-.9zm5.001-1.301c0-.4.1-.7.4-1.001.3-.3.6-.4 1-.4s.7.1 1 .4c.3.3.4.6.4 1v17.015c0 .8-.1 1.401-.3 1.901-.2.5-.5.801-1 1.001-.6.3-1.7.5-3.1.5h-.1c-.4 0-.7-.1-1-.4-.301-.2-.501-.6-.701-1 0-.1-.1-.2-.1-.3v-.301c0-.2.1-.4.2-.5.2-.3.4-.4.701-.4h2c.2 0 .4-.1.5-.1.1 0 .1-.201.1-.401V11.109z"/>
</svg>
