<svg xmlns="http://www.w3.org/2000/svg" width="100" height="100" fill="none" viewBox="0 0 100 100">
    <path fill="#F6F2EF" d="M50 100c27.614 0 50-22.386 50-50S77.614 0 50 0 0 22.386 0 50s22.386 50 50 50z"/>
    <path fill="#fff" d="M75.2 18H25.1v63.7h50.1V18z"/>
    <path fill="#333" d="M75.2 80.6H25.1l1.1 1.1V60.2 25.9v-7.8l-1.1 1.1h50.1l-1.1-1.1V81.7c0 1.4 2.2 1.5 2.2 0V60.2 25.9v-7.8c0-.6-.5-1.1-1.1-1.1H25.1c-.6 0-1.1.5-1.1 1.1V81.7c0 .6.5 1.1 1.1 1.1h50.1c1.4 0 1.4-2.2 0-2.2z"/>
    <path fill="#fff" d="M62.6 53.4H37.7V33.3l12.5-5.5 12.4 5.5v20.1z"/>
    <path fill="#333" d="M62.6 52.3H37.7l1.1 1.1V33.3c-.2.3-.4.6-.6 1 4.2-1.8 8.3-3.7 12.5-5.5h-1.1c4.1 1.8 8.3 3.7 12.4 5.5-.2-.3-.4-.6-.6-1v20.1c0 1.4 2.2 1.5 2.2 0V33.3c0-.4-.2-.8-.6-1-3.7-1.7-7.4-3.3-11.1-5-.4-.2-.9-.4-1.3-.6-.7-.3-1.2 0-1.9.3-2.1 1-4.3 1.9-6.4 2.9-1.8.8-3.6 1.6-5.3 2.4-.4.2-.6.6-.6 1v20.1c0 .6.5 1.1 1.1 1.1H62.4c1.6 0 1.6-2.2.2-2.2z"/>
    <path fill="#DF357F" d="M50.2 24.5l-15 6.6V36l15-6.7L65.1 36v-4.9l-14.9-6.6z"/>
    <path fill="#333" d="M49.6 23.5l-15 6.6c-.4.2-.6.6-.6 1v4.8c0 .9.9 1.3 1.7 1l15-6.6h-1.1c5 2.2 9.9 4.4 14.9 6.6.8.3 1.7 0 1.7-1v-4.8c0-.4-.2-.8-.6-1-5-2.2-9.9-4.4-14.9-6.6-1.3-.6-2.5 1.4-1.1 1.9 5 2.2 9.9 4.4 14.9 6.6-.2-.3-.4-.6-.6-1v4.8c.6-.3 1.1-.6 1.7-1-4.5-2-8.9-4-13.4-6-.5-.2-1-.5-1.5-.7-.8-.3-1.4.1-2.1.4-2.6 1.1-5.2 2.3-7.7 3.4-2.1.9-4.2 1.8-6.2 2.8.6.3 1.1.6 1.7 1v-4.8c-.2.3-.4.6-.6 1l15-6.6c1.3-.4.1-2.4-1.2-1.8z"/>
    <path fill="#DF357F" d="M54.4 41h-8.5v12.4h8.5V41z"/>
    <path fill="#333" d="M54.4 52.3h-8.5l1.1 1.1V42.6v-1.5l-1.1 1.1h8.5l-1.1-1.1v12.3c0 1.4 2.2 1.5 2.2 0V42.6v-1.5c0-.6-.5-1.1-1.1-1.1h-8.5c-.6 0-1.1.5-1.1 1.1v12.3c0 .6.5 1.1 1.1 1.1h8.5c1.4 0 1.4-2.2 0-2.2z"/>
    <path fill="#CCC" d="M68.1 58.6H32.2v2.9h35.9v-2.9zM68.1 64.4H32.2v2.9h35.9v-2.9zM54.4 70.3H32.2v2.9h22.2v-2.9z"/>
    <path fill="#333" d="M43.3 40.2h-1.7c-.5 0-1-.4-1-1v-1.7c0-.5.4-1 1-1h1.7c.5 0 1 .4 1 1v1.7c0 .6-.4 1-1 1zM58.3 40.2h-1.7c-.5 0-1-.4-1-1v-1.7c0-.5.4-1 1-1h1.7c.5 0 1 .4 1 1v1.7c0 .6-.4 1-1 1z"/>
</svg>
