<svg xmlns="http://www.w3.org/2000/svg" width="130" height="130" fill="none" viewBox="0 0 130 130">
    <path fill="#fff" d="M65.5 124.7c30.1 0 54.5-24.4 54.5-54.5S95.6 15.7 65.5 15.7 11 40.1 11 70.2s24.4 54.5 54.5 54.5z"/>
    <path fill="#fff" d="M73.843 12.12L20.642 33.13l26.702 67.618 53.202-21.01L73.843 12.12z"/>
    <path fill="#333" d="M100.2 78.7c-6 2.4-11.9 4.7-17.9 7.1-9.6 3.8-19.1 7.6-28.7 11.3-2.2.9-4.4 1.7-6.6 2.6.5.3.9.5 1.4.8-3-7.7-6-15.3-9.1-23-4.7-12.1-9.5-24.2-14.3-36.3l-3.3-8.4c-.3.5-.5.9-.8 1.4 6-2.4 11.9-4.7 17.9-7.1 9.6-3.7 19.2-7.5 28.7-11.3 2.2-.9 4.4-1.7 6.6-2.6-.5-.3-.9-.5-1.4-.8 3 7.7 6 15.3 9.1 23 4.8 12.1 9.6 24.2 14.3 36.3l3.3 8.4c.5 1.3 2.7.8 2.2-.6-3-7.7-6-15.3-9.1-23-4.8-12.1-9.5-24.2-14.3-36.3l-3.3-8.4c-.2-.5-.8-1-1.4-.8-6 2.4-11.9 4.7-17.9 7.1-9.6 3.8-19.1 7.6-28.7 11.3-2.2.9-4.4 1.7-6.6 2.6-.5.2-1 .8-.8 1.4 3 7.7 6 15.3 9.1 23 4.8 12.1 9.6 24.2 14.3 36.3l3.3 8.4c.2.5.8 1 1.4.8 6-2.4 11.9-4.7 17.9-7.1 9.6-3.8 19.1-7.6 28.7-11.3 2.2-.9 4.4-1.7 6.6-2.6 1.3-.6.8-2.7-.6-2.2z"/>
    <path fill="#fff" d="M75.3 55L48.8 65.4l-8.4-21.3L51.3 33l15.5.7L75.3 55z"/>
    <path fill="#333" d="M75 53.9C67.3 57 59.6 60 51.9 63c-1.1.4-2.2.9-3.3 1.3.5.3.9.5 1.4.8-2.5-6.2-4.9-12.4-7.4-18.6-.4-.9-.7-1.8-1.1-2.7-.1.4-.2.7-.3 1.1 3.6-3.7 7.3-7.4 10.9-11.1-.3.1-.5.2-.8.3 5.2.2 10.3.4 15.5.7-.4-.3-.7-.6-1.1-.8 2.5 6.2 4.9 12.4 7.4 18.6.4.9.7 1.8 1.1 2.7.5 1.3 2.7.8 2.2-.6-2.5-6.2-4.9-12.4-7.4-18.6-.4-.9-.7-1.8-1.1-2.7-.2-.5-.5-.8-1.1-.8L53 32c-.6 0-1.2-.1-1.7-.1-.7.1-1.1.6-1.5 1.1-1.9 1.9-3.7 3.8-5.6 5.7-1.5 1.6-3.1 3.1-4.6 4.7-.3.3-.4.7-.3 1.1 2.5 6.2 4.9 12.4 7.4 18.6.4.9.7 1.8 1.1 2.7.2.5.8 1 1.4.8 7.7-3 15.4-6.1 23.1-9.1 1.1-.4 2.2-.9 3.3-1.3 1.3-.6.7-2.8-.6-2.3z"/>
    <path fill="#DF357F" d="M50.3 30.5L37.2 43.8l1.7 4.2L52 34.6l18.6.9-1.6-4.2-18.7-.8z"/>
    <path fill="#333" d="M49.5 29.7c-4.4 4.4-8.7 8.9-13.1 13.3-.3.3-.4.7-.3 1.1.5 1.4 1.1 2.8 1.6 4.1.3.8 1.2 1.2 1.9.5 4.4-4.4 8.7-8.9 13.1-13.3-.3.1-.5.2-.8.3 6.2.3 12.4.5 18.6.8.7 0 1.4-.8 1.1-1.4-.5-1.4-1.1-2.8-1.6-4.1-.2-.5-.5-.8-1.1-.8-6.2-.3-12.4-.5-18.6-.8-1.4-.1-1.4 2.2 0 2.2 6.2.3 12.4.5 18.6.8-.4-.3-.7-.6-1.1-.8.5 1.4 1.1 2.8 1.6 4.1.4-.5.7-.9 1.1-1.4-5.5-.2-11.1-.5-16.6-.7-.6 0-1.4-.2-2-.1-.8.1-1.2.8-1.7 1.3-2.2 2.3-4.5 4.6-6.7 6.9-1.8 1.8-3.6 3.7-5.4 5.5.6.2 1.3.3 1.9.5-.5-1.4-1.1-2.8-1.6-4.1-.1.4-.2.7-.3 1.1 4.4-4.4 8.7-8.9 13.1-13.3 1-1.1-.6-2.7-1.7-1.7z"/>
    <path fill="#DF357F" d="M61.367 45.313l-9.022 3.563 5.179 13.114 9.022-3.563-5.18-13.114z"/>
    <path fill="#333" d="M66.3 57.4l-9 3.6c.5.3.9.5 1.4.8-1.7-4.4-3.5-8.7-5.2-13.1-.3.5-.5.9-.8 1.4l9-3.6c-.5-.3-.9-.5-1.4-.8 1.7 4.4 3.5 8.7 5.2 13.1.5 1.3 2.7.8 2.2-.6-1.7-4.4-3.5-8.7-5.2-13.1-.2-.5-.8-1-1.4-.8l-9 3.6c-.5.2-1 .8-.8 1.4 1.7 4.4 3.5 8.7 5.2 13.1.2.5.8 1 1.4.8l9-3.6c1.3-.6.7-2.8-.6-2.2z"/>
    <path fill="#CCC" d="M83.347 58.16L45.212 73.22l1.25 3.162 38.133-15.06-1.248-3.162zM85.738 64.386l-38.134 15.06 1.249 3.162 38.134-15.06-1.249-3.162zM73.588 76.385l-23.531 9.293 1.248 3.163 23.532-9.293-1.249-3.163z"/>
    <path fill="#333" d="M49.3 49l-1.8.7c-.6.2-1.2-.1-1.4-.6l-.7-1.8c-.2-.6.1-1.2.6-1.4l1.8-.7c.6-.2 1.2.1 1.4.6l.7 1.8c.2.6-.1 1.2-.6 1.4zM65.2 42.7l-1.8.7c-.6.2-1.2-.1-1.4-.6l-.7-1.8c-.2-.6.1-1.2.6-1.4l1.8-.7c.6-.2 1.2.1 1.4.6l.7 1.8c.2.6 0 1.2-.6 1.4z"/>
    <path fill="#fff" d="M35.3 78.3c2.5-5.3 5.7-10.4 9.4-15 .5-.6 1-1.2 1.7-1.4 1.7-.5 3.1 1.7 2.8 3.4-.3 1.7-1.6 3.1-2.7 4.5-2.9 3.9-3.8 9.2-2.5 13.8.9 3 2.7 6.1 1.8 9.1-.3 1-.9 2-1 3.1-.1 2.9 3.6 4.8 3.5 7.7l-11.8-.9c-4.7-5.9-9.1-17.2-10.9-24.5-.7-2.9-1.2-6-.4-9 .7-2.9 3.8-6.6 6.7-7.2L37 74.8"/>
    <path fill="#333" d="M36.3 78.9c2-4.3 4.5-8.4 7.3-12.2l2.1-2.7c.7-.8 1.5-1.4 2.2-.2 1 1.8-1 3.7-2 5.1-2.5 3.2-3.7 7.3-3.5 11.3.1 2.2.7 4.2 1.5 6.3.8 2.3 1.6 4.4.7 6.8-.8 2.1-1 3.7.2 5.6.9 1.5 2.5 2.8 2.6 4.6l1.1-1.1c-3.9-.3-7.9-.6-11.8-.9.3.1.5.2.8.3-4.4-5.6-7.2-12.6-9.3-19.3-1.1-3.6-2.4-7.4-2.1-11.2.2-3.5 2.7-7.5 6.3-8.3-.5-.3-.9-.5-1.4-.8l5.1 12.9c.5 1.3 2.7.8 2.2-.6l-5.1-12.9c-.2-.6-.7-.9-1.4-.8-4.8 1.1-7.8 6.4-7.9 10.9-.2 5.1 1.8 10.3 3.5 15 1.7 4.7 3.8 9.4 6.5 13.7.7 1.1 1.6 3.1 3.1 3.2l3.3.3c2.7.2 5.5.4 8.2.7.6 0 1.1-.6 1.1-1.1 0-1.9-1.1-3.3-2.2-4.8-.5-.7-1-1.4-1.2-2.2-.3-1.2.5-2.4.9-3.5.7-2.4-.1-4.8-.9-7-.9-2.4-1.6-4.7-1.5-7.2.1-2.3.7-4.7 1.9-6.7 1.1-2 2.9-3.5 3.7-5.7.6-1.8.1-4-1.5-5-1.8-1.2-3.6-.1-4.8 1.4-3.7 4.6-6.9 9.7-9.5 15-.8 1.2 1.1 2.4 1.8 1.1z"/>
    <path fill="#fff" d="M31.9 108c-.9-2.4-1.2-5-.9-7.5 6.8.3 13.6.4 20.4.4.4 1.3.8 2.6 1.1 3.9.1.3.2.6.1.9-.1.6-.8.9-1.4 1-6.7 2.2-12.4 3.1-19.3 1.3z"/>
    <path fill="#333" d="M33 107.7c-.8-2.3-1.1-4.7-.8-7.1l-1.1 1.1c6.8.3 13.6.4 20.4.4-.4-.3-.7-.6-1.1-.8.3 1 .6 2.1.9 3.1.1.3.4.9.2 1.1-.2.3-1 .3-1.3.4-1.9.6-3.9 1.1-5.8 1.4-4.1.7-8.2.6-12.2-.5-1.4-.4-2 1.8-.6 2.2 4.9 1.3 9.9 1.2 14.9.2 1.2-.3 2.5-.6 3.7-1 .9-.3 2.1-.5 2.9-1.2.8-.7.8-1.6.6-2.6-.3-1.3-.8-2.6-1.1-3.9-.1-.5-.6-.8-1.1-.8-6.8 0-13.6-.1-20.4-.4-.7 0-1.1.5-1.1 1.1-.3 2.6.1 5.3.9 7.7.4 1.5 2.6.9 2.1-.4z"/>
    <path fill="#DF357F" d="M33.1 118.6c-1.5-2.7-4.5-9.9-4.1-10.5.3-.4 24.2-2.499 24.6-2.299.3.2 2.1 7.999 4 10.299"/>
    <path fill="#333" d="M34 118.1c-1-1.9-1.9-3.9-2.7-5.9-.3-.9-.7-1.7-1-2.6-.1-.3-.1-.7-.3-1v-.2c-.2 0-.4 1-.7.9.1.1.7-.1.8-.1.5-.1.8-.1 1.4-.2 1.5-.2 3-.3 4.5-.5 3.7-.4 7.3-.7 11-1l4.2-.3c.5 0 1.7.1 2.1-.1-.1 0-1.2-.4-.8-.5 0 0 0-.1.1.2 0 .3.2.7.3 1l.9 3c.7 2.2 1.4 4.5 2.9 6.3.9 1.1 2.5-.5 1.6-1.6-1.3-1.7-1.9-4.1-2.5-6.1-.3-.9-.5-1.8-.8-2.7-.2-.5-.3-1.1-.7-1.4-.6-.6-1.7-.3-2.5-.3-1.5.1-2.9.2-4.4.3-4 .3-7.9.7-11.9 1.1-1.5.2-3.1.3-4.6.5-.8.1-1.9.1-2.6.5-1.5.9 0 3.7.4 4.7.9 2.5 2 5 3.3 7.3.8 1.1 2.7-.1 2-1.3z"/>
    <path fill="#fff" d="M95.5 62.7c-5.5-2.2-11.2-3.8-17.1-4.6-.7-.1-1.5-.2-2.2.1-1.6.8-1.2 3.3.2 4.4 1.4 1.1 3.3 1.1 5 1.5 4.8.9 9 4.1 11.2 8.5 1.4 2.8 2.2 6.3 4.9 7.9.9.6 2 .9 2.8 1.6 2 2 .6 6 2.7 8l8-8.7c-.5-7.6-5-18.8-8.6-25.4-1.5-2.6-3.2-5.2-5.8-6.9-2.5-1.6-6-2.1-8.6-.5l3.8 12.8"/>
    <path fill="#333" d="M95.8 61.6c-5.3-2.1-10.9-3.7-16.6-4.5-1.9-.3-4.1-.3-4.9 1.8-.6 1.7.1 3.6 1.5 4.7 1.9 1.5 4.6 1.3 6.9 2 2.2.6 4.2 1.8 5.9 3.4 1.7 1.6 2.9 3.4 3.8 5.5.8 2 1.6 4 3 5.7.8.9 1.8 1.5 3 2 1.2.6 1.8 1.2 2.1 2.5.5 2.2.2 4.5 1.9 6.3.4.4 1.2.4 1.6 0 1.6-1.7 3.1-3.4 4.7-5.1l2.7-3 .6-.6c.5-.7.3-1.6.2-2.4-.6-4.9-2.2-9.6-3.9-14.2-1.7-4.5-3.7-9.1-6.5-13.1-3.1-4.4-8.8-8-14.1-5-.4.2-.7.8-.5 1.3 1.3 4.3 2.5 8.5 3.8 12.8.4 1.4 2.6.8 2.2-.6-1.3-4.3-2.5-8.5-3.8-12.8-.2.4-.3.8-.5 1.3 3.5-2 7.5 0 9.9 2.7 2.3 2.6 3.8 5.9 5.3 9 2.9 6.3 5.6 13.3 6.2 20.3.1-.3.2-.5.3-.8-2.7 2.9-5.3 5.8-8 8.7h1.6c-1.2-1.3-.9-3.5-1.3-5.1-.4-1.9-1.4-3.1-3.1-4-1.9-.9-3-2-3.9-3.9-.9-1.8-1.5-3.7-2.5-5.4-2.1-3.4-5.3-6-9.1-7.3-2-.7-4.5-.5-6.4-1.6-.7-.4-1.2-1.1-1.2-1.9 0-1.2 1.4-.9 2.2-.8 5.7.8 11.3 2.4 16.6 4.5 1.1.3 1.7-1.9.3-2.4z"/>
    <path fill="#fff" d="M118.2 82.1c-1-2.3-2.5-4.4-4.4-6.1-4.8 4.8-9.7 9.5-14.7 14.1.6 1.2 1.2 2.4 1.8 3.7.1.3.3.5.5.7.5.3 1.2.1 1.7-.2 6.4-2.9 11.3-6.2 15.1-12.2z"/>
    <path fill="#333" d="M119.2 81.6c-1-2.4-2.6-4.6-4.6-6.3-.5-.4-1.1-.5-1.6 0-4.8 4.8-9.7 9.5-14.7 14.1-.4.4-.4.9-.2 1.4.7 1.3 1.2 2.8 2 4 .7 1.1 2 1.2 3.1.8 2.2-.9 4.3-2.1 6.3-3.3 3.9-2.5 7.2-5.6 9.7-9.5.8-1.2-1.2-2.4-1.9-1.1-2.1 3.2-4.7 6-7.9 8.1-1.6 1.1-3.2 2-4.9 2.8-.4.2-.9.4-1.3.7-.2.1-.6.4-.9.4-.3 0-.3-.2-.5-.4-.6-1.2-1.2-2.3-1.7-3.5-.1.5-.1.9-.2 1.4 5-4.6 9.9-9.3 14.7-14.1H113c1.8 1.6 3.3 3.6 4.2 5.8.6 1.1 2.5 0 2-1.3z"/>
    <path fill="#DF357F" d="M127 89.3c-.8-3-5.8-8.9-6.5-9-.5-.1-19.4 14.6-19.6 15-.1.3 2.5 6.5 4.1 8.9"/>
    <path fill="#333" d="M128 89c-.6-2.1-2-4-3.3-5.8-1-1.3-2.2-3.1-3.6-3.9-.9-.5-1.5.1-2.2.6-1.1.8-2.2 1.6-3.2 2.4-3.1 2.3-6.1 4.6-9.1 7-2.1 1.6-4.4 3.2-6.3 5-1 1-.2 2.4.3 3.5 1 2.4 2 4.8 3.4 6.9.8 1.2 2.7.1 1.9-1.1-1.1-1.8-2-3.7-2.9-5.6-.3-.7-.6-1.5-.9-2.2l-.2-.6-.3.9.1-.1c.6-.3 1.2-1 1.8-1.5 1.1-.9 2.2-1.8 3.4-2.7 2.7-2.1 5.5-4.3 8.2-6.3 1.2-.9 2.3-1.8 3.5-2.6.6-.5 1.5-.9 2.1-1.4 0 0 .1 0 .1-.1h.1c-.3.2-.6.2-.9 0 0 0 .3.3.5.4.7.7 1.3 1.4 2 2.2 1.3 1.7 2.9 3.6 3.5 5.7.3 1.3 2.4.7 2-.7z"/>
    <path fill="#F0D227" d="M92.7 22c-1 1.6-3.2 2.7-5 3.3 1.8-.1 3.8-.1 5.1 1.1.6.6 1 1.4 1.3 2.2.7 1.6 1.3 3.1 1.9 4.8.1-1.5.4-3 .7-4.5.1-.6.2-1.1.5-1.7.9-1.7 3.2-2.2 5.1-2.4-1-.5-2.1-.9-3.1-1.5-.7-.3-1.3-.7-1.9-1.1-2-1.6-2.7-4.5-3.1-7 0 0-.2 4.7-1.5 6.8z"/>
    <path fill="#333" d="M91.7 21.5c-1 1.5-2.7 2.3-4.3 2.8-1.2.4-1 2.3.3 2.2 1.6-.1 3.7-.2 4.7 1.3 1.1 1.7 1.8 4 2.5 5.9.4 1.2 2.1 1 2.2-.3.1-1.1.2-2.1.4-3.2.2-.9.2-2 .8-2.7.9-1.2 2.7-1.4 4-1.5 1-.1 1.7-1.6.6-2.1-1.9-.9-4.5-1.7-5.7-3.5-1.1-1.6-1.5-3.6-1.9-5.5-.2-1.3-2.2-.9-2.2.3-.1 2-.3 4.5-1.4 6.3-.7 1.3 1.2 2.4 1.9 1.1 1.3-2.1 1.6-5 1.7-7.4-.7.1-1.5.2-2.2.3.4 2.2.9 4.4 2.2 6.3 1.5 2.1 4.1 3 6.4 4.1l.6-2.1c-2 .2-4.2.6-5.6 2.2-.8.9-1 2-1.2 3.2-.3 1.4-.5 2.8-.6 4.3.7-.1 1.5-.2 2.2-.3-.5-1.3-1-2.6-1.5-3.8-.5-1.1-.9-2.3-1.7-3.3-1.5-1.8-4-1.9-6.2-1.8.1.7.2 1.5.3 2.2 2.2-.7 4.4-1.8 5.7-3.8.8-1.3-1.2-2.4-2-1.2z"/>
    <path fill="#F0D227" d="M9.6 78.3c-.9 1.5-2.9 2.5-4.5 3 1.6-.1 3.4-.1 4.6 1 .6.5.9 1.3 1.2 2 .6 1.4 1.2 2.9 1.7 4.3.1-1.4.3-2.7.6-4.1.1-.5.2-1 .5-1.5.9-1.6 2.9-2 4.7-2.2-.9-.4-1.9-.9-2.8-1.3-.6-.3-1.2-.6-1.7-1-1.9-1.5-2.4-4-2.8-6.4-.1 0-.3 4.2-1.5 6.2z"/>
    <path fill="#333" d="M8.6 77.7c-.8 1.3-2.4 2-3.9 2.4-1.2.4-1 2.3.3 2.2 1.4-.1 3.3-.2 4.2 1.2 1 1.6 1.6 3.6 2.3 5.3.4 1.2 2.1 1 2.2-.3.1-1 .2-1.9.4-2.8.1-.8.2-1.8.7-2.4.8-1 2.4-1.2 3.5-1.4.5-.1.9-.3 1.1-.8.1-.4-.1-1.1-.5-1.3-1.7-.8-4-1.5-5.2-3.1-1-1.4-1.4-3.3-1.7-5-.2-1.3-2.2-.9-2.2.3 0 1.9-.2 4.1-1.2 5.7-.7 1.3 1.2 2.4 1.9 1.1 1.2-2 1.4-4.5 1.5-6.8-.7.1-1.5.2-2.2.3.4 2 .8 4 2 5.7 1.4 1.9 3.7 2.8 5.8 3.7l.6-2.1c-1.8.2-3.9.6-5.2 2-.7.8-1 1.9-1.2 2.9l-.6 3.9c.7-.1 1.5-.2 2.2-.3-.4-1.2-.9-2.3-1.4-3.5-.4-1.1-.8-2.2-1.6-3C9 80 6.7 79.9 4.7 80c.1.7.2 1.5.3 2.2 2-.6 4-1.7 5.2-3.5 1.2-1.1-.8-2.2-1.6-1z"/>
</svg>
