<svg xmlns="http://www.w3.org/2000/svg" width="130" height="130" fill="none" viewBox="0 0 130 130">
    <path fill="#fff" d="M65.5 124.7c30.1 0 54.5-24.4 54.5-54.5S95.6 15.7 65.5 15.7 11 40.1 11 70.2s24.4 54.5 54.5 54.5z"/>
    <path fill="#DF357F" d="M90.9 120.9H39.3c-3.9 0-7.1-3.2-7.1-7.1V27.3c0-3.9 3.2-7.1 7.1-7.1H91c3.9 0 7.1 3.2 7.1 7.1v86.5c0 3.9-3.2 7.1-7.2 7.1z"/>
    <path fill="#333" d="M90.9 119.7H39.3c-3.4-.1-6-2.6-6.1-6-.2-8 0-16 0-23.9V48.2 32.7c0-2.3-.5-5.5.5-7.8 1.9-4.6 7.5-3.6 11.5-3.6h44.5c2 0 4 .2 5.5 1.8C97.5 25.4 97 29 97 32v56.2c0 8.5.1 16.9 0 25.4-.1 3.4-2.6 6.1-6.1 6.1-1.4 0-1.5 2.3 0 2.2 4.6-.1 8.2-3.7 8.3-8.3v-2.1-12.9-42.1-28.7c0-2.3-.6-4.5-2.2-6.2-1.8-2-4.3-2.6-6.9-2.6H39.9c-2.7 0-5.3.9-7.1 3.1-1.4 1.7-1.8 3.7-1.8 5.9V113.7c.1 4.6 3.7 8.2 8.3 8.3 3.5.1 7 0 10.5 0H91c1.4 0 1.4-2.3-.1-2.3z"/>
    <path fill="#fff" d="M92 27.2H38.2v77.6H92V27.2z"/>
    <path fill="#333" d="M92 103.7H38.1l1.1 1.1V78.5 36.7v-9.5c-.2.3-.6.7-1 1.1H92.1L91 27.2v77.6c0 1.4 2.2 1.5 2.2 0V78.5 36.7v-9.5c-.1-.6-.6-1.2-1.2-1.2H38.1c-.5 0-1 .6-1 1.2v77.6c0 .6.5 1.1 1.1 1.1H92.1c1.3 0 1.3-2.2-.1-2.2z"/>
    <path fill="#DF357F" d="M76.6 115.8h-23c-.9 0-1.7-.8-1.7-1.7v-3.4c0-.9.8-1.7 1.7-1.7h23c.9 0 1.7.8 1.7 1.7v3.4c0 1-.8 1.7-1.7 1.7z"/>
    <path fill="#333" d="M76.6 114.7H66.5c-4.1 0-8.3.2-12.5 0-.6 0-.9-.1-1-.8-.1-.9-.2-2.2 0-3.1.2-1.1 2.2-.7 3-.7h14.5c1.9 0 3.8-.1 5.7 0 .7 0 .9.3 1 1 0 .7.4 3.5-.6 3.6-1.4.1-1.4 2.4 0 2.2 1.8-.2 2.8-1.4 2.8-3.2 0-1.1.2-2.5-.1-3.6-.6-2.3-2.8-2.2-4.6-2.2H58.4c-1.6 0-3.2-.1-4.8 0-3.3.2-3 3.6-2.9 6 .1 1.7 1.1 2.9 2.8 3h23c1.6 0 1.6-2.2.1-2.2zM50.2 24.9c.552 0 1-.448 1-1s-.448-1-1-1-1 .448-1 1 .448 1 1 1zM71.8 22.9H56.7v2h15.1v-2z"/>
    <path fill="#DF357F" d="M65.7 82.3C75.807 82.3 84 74.106 84 64c0-10.107-8.193-18.3-18.3-18.3-10.107 0-18.3 8.193-18.3 18.3 0 10.106 8.193 18.3 18.3 18.3z"/>
    <path fill="#333" d="M82.8 64c-.1 7.1-4.5 13.7-11.3 16.1-6.8 2.5-14.5.4-19.1-5.1-4.6-5.5-5.2-13.6-1.5-19.7 3.7-6.2 11-9.5 18.1-8.1 8 1.6 13.8 8.7 13.8 16.8 0 1.4 2.3 1.5 2.2 0-.1-8.1-5.1-15.4-12.8-18.3-7.6-2.8-16.6-.4-21.7 6-5.1 6.3-5.8 15.4-1.6 22.3 4.2 6.9 12.4 10.5 20.4 9 9.2-1.6 15.7-9.8 15.8-19 0-1.4-2.3-1.4-2.3 0z"/>
    <path stroke="#fff" stroke-miterlimit="10" stroke-width="6" d="M75.3 58.3L63.4 69l-6.2-6.8"/>
    <path fill="#F0D227" d="M111.605 13.105c-1.4 1.8-4.3 2.8-6.5 3.2 2.2.2 4.6.5 5.9 2.2.7.8 1 1.8 1.3 2.8.6 2 1.1 4 1.5 6 .4-1.8.9-3.6 1.5-5.3.2-.7.5-1.3.9-1.9 1.4-1.9 4.2-2.1 6.6-2.1-1.2-.7-2.3-1.5-3.5-2.2-.7-.5-1.5-1-2.1-1.7-2.2-2.3-2.5-5.8-2.7-9 0 0-1 5.7-2.9 8z"/>
    <path fill="#333" d="M110.806 12.306c-1.5 1.7-3.8 2.5-6 2.9-1.3.2-.9 2.1.3 2.2 2.1.2 4.6.5 5.6 2.7 1.1 2.3 1.5 5.1 2.1 7.5.2 1.1 1.9 1.1 2.2 0 .3-1.2.6-2.5 1-3.7.3-1.1.6-2.5 1.4-3.4 1.3-1.5 3.7-1.4 5.5-1.4 1.1 0 1.5-1.5.6-2.1-2.2-1.3-5-2.7-6.3-5-1.2-2.1-1.3-4.6-1.4-6.9-.1-1.2-2-1.6-2.2-.3-.6 2.5-1.2 5.5-2.8 7.5-.9 1.1.7 2.7 1.6 1.6 1.8-2.4 2.7-5.6 3.2-8.5-.7-.1-1.5-.2-2.2-.3.2 2.7.4 5.6 1.7 8 1.5 2.7 4.5 4.2 7.1 5.8l.6-2.1c-2.4 0-5 .1-6.9 1.8-1 .9-1.4 2.2-1.8 3.4-.5 1.6-1 3.3-1.4 4.9h2.2l-1.2-4.8c-.4-1.4-.7-2.9-1.6-4.2-1.6-2.2-4.4-2.6-7-2.9.1.7.2 1.5.3 2.2 2.6-.4 5.3-1.4 7-3.4.9-1-.7-2.6-1.6-1.5z"/>
</svg>
