<svg xmlns="http://www.w3.org/2000/svg" width="130" height="130" fill="none" viewBox="0 0 130 130">
    <path fill="#fff" d="M65.5 124.7c30.1 0 54.5-24.4 54.5-54.5S95.6 15.7 65.5 15.7 11 40.1 11 70.2s24.4 54.5 54.5 54.5z"/>
    <path fill="#fff" d="M112.544 107.4h-95.1c-2.9 0-5.2-2.3-5.2-5.2V38.4c0-2.9 2.3-5.2 5.2-5.2h95.1c2.9 0 5.2 2.3 5.2 5.2v63.8c0 2.8-2.3 5.2-5.2 5.2z"/>
    <path fill="#333" d="M112.544 106.3H18.644c-1.6 0-3.1 0-4.2-1.3-1.3-1.4-1.1-3-1.1-4.7v-6.6V72 49.5c0-3.6-.1-7.3 0-10.9.1-2.6 2.2-4.1 4.6-4.1h66.1c9.4 0 18.9-.2 28.3 0 2.6.1 4.2 1.9 4.3 4.4v63.4c-.1 2.1-1.8 3.9-4.1 4-1.4 0-1.5 2.3 0 2.2 3.8-.1 6.3-3.1 6.4-6.8v-5-20.6c0-12.4.1-24.9 0-37.4 0-3.7-2.6-6.6-6.4-6.7H17.944c-3 0-5.8 1.6-6.6 4.7-.4 1.3-.3 2.7-.3 4v59.4c0 1.6-.1 3.1.5 4.6 1.2 2.6 3.7 3.8 6.4 3.8h94.4c1.7 0 1.7-2.2.2-2.2z"/>
    <path fill="#DF357F" d="M117.745 44.3h-105.5v-9.1c0-1.1.9-2 2-2h101.5c1.1 0 2 .9 2 2v9.1z"/>
    <path fill="#333" d="M117.744 43.1h-101.2c-1.3 0-2.8-.2-4.1 0h-.2l1.1 1.1v-6.6c0-1.1-.5-3.2 1-3.4 1.6-.2 3.4 0 5 0h95.7c.7 0 1.4-.1 1.6.9.1.9 0 1.8 0 2.7v6.4c0 1.4 2.2 1.5 2.2 0v-6.8-2.3c-.1-1.8-1.4-3.1-3.2-3.2-1.4-.1-2.9 0-4.3 0h-26.4c-11.9.1-23.9.1-35.8.1h-34.6c-1.8.1-3.4 1.2-3.5 3.2-.1 2.2 0 4.5 0 6.8v2.3c0 .6.5 1.1 1.1 1.1h101.2c1.4 0 2.8.1 4.1 0h.2c1.6 0 1.6-2.3.1-2.3z"/>
    <path fill="#CCC" d="M71.445 73.7h-49.8v3.4h49.8v-3.4zM71.545 66.3h-49.8v3.4h49.8v-3.4zM52.545 81.3h-30.8v3.4h30.8v-3.4z"/>
    <path fill="#DF357F" d="M76.444 100.5h-21.7c-1.1 0-1.9-.9-1.9-1.9v-5.1c0-1.1.9-1.9 1.9-1.9h21.7c1.1 0 1.9.9 1.9 1.9v5.1c.1 1-.8 1.9-1.9 1.9z"/>
    <path fill="#333" d="M76.444 99.4h-21c-.4 0-1 .1-1.4-.2-.5-.5-.2-2.1-.2-2.8 0-.9-.2-2 0-2.9.2-1.2 2.6-.8 3.5-.8h18c.4 0 1.1-.1 1.4.1.7.5.4 2.6.4 3.3.1.8.6 3.2-.7 3.3-1.4.1-1.4 2.4 0 2.2 3.8-.3 3-4.4 3-7.1 0-1.4-.1-2.7-1.3-3.6-.7-.5-1.5-.5-2.3-.5h-15.8c-1.8 0-3.5-.1-5.3 0-1.5.1-2.7.9-3.1 2.4-.2 1.1-.1 2.4-.1 3.5s-.2 2.6.4 3.6c.6 1.1 1.7 1.6 2.9 1.6h21.5c1.6.1 1.6-2.1.1-2.1z"/>
    <path fill="#CCC" d="M46.744 55h-24.9v7h24.9v-7zM62.245 55h-12.5v7h12.5v-7z"/>
    <path fill="#333" d="M21.544 41.1c1.326 0 2.4-1.075 2.4-2.4 0-1.326-1.074-2.4-2.4-2.4-1.325 0-2.4 1.074-2.4 2.4 0 1.325 1.075 2.4 2.4 2.4zM30.844 41.1c1.326 0 2.4-1.075 2.4-2.4 0-1.326-1.074-2.4-2.4-2.4-1.325 0-2.4 1.074-2.4 2.4 0 1.325 1.075 2.4 2.4 2.4zM40.145 41.1c1.325 0 2.4-1.075 2.4-2.4 0-1.326-1.075-2.4-2.4-2.4-1.326 0-2.4 1.074-2.4 2.4 0 1.325 1.074 2.4 2.4 2.4z"/>
    <path fill="#fff" d="M108.645 53.8h-24.3v31.4h24.3V53.8z"/>
    <path fill="#333" d="M108.645 84h-24.3l1.1 1.1V57.6v-4l-1.1 1.1h24.3l-1.1-1.1v31.5c0 1.4 2.2 1.5 2.2 0V57.6v-4c0-.6-.5-1.1-1.1-1.1h-24.3c-.6 0-1.1.5-1.1 1.1v31.5c0 .6.5 1.1 1.1 1.1h24.3c1.5.1 1.5-2.2 0-2.2z"/>
    <path fill="#fff" d="M108.645 85.2h-24.3s5.3-9.1 8-9.1h9.2c2.7 0 7.1 9.1 7.1 9.1z"/>
    <path fill="#333" d="M108.645 84.4h-24.3c.2.4.4.8.6 1.1 1-1.7 2.1-3.4 3.3-4.9 1.1-1.4 2.6-3.7 4.5-3.7h7.3c.6 0 1.3-.1 1.8.1 1 .4 1.9 1.7 2.5 2.5 1.4 1.9 2.6 4 3.6 6.1.4.9 1.7.1 1.3-.8-1-2-2.2-4.1-3.5-5.9-1.2-1.7-2.6-3.5-4.8-3.5h-7.8c-.7 0-1.4 0-2.1.3-1.2.6-2.1 1.6-2.9 2.6-1.7 2-3.2 4.2-4.5 6.5-.3.5.1 1.1.6 1.1h24.3c1.1 0 1.1-1.5.1-1.5z"/>
    <path fill="#fff" d="M104.245 70.3c.2-.5.4-1 .8-1.3.4-.3.9-.3 1.3-.1.4.2.7.6.9 1 .1.2.1.5 0 .7-.1.2-.2.4-.3.5-.4.5-.9 1-1.5 1.4-.2.1-.3.2-.5.2s-.4-.1-.5-.3l-.3-.6"/>
    <path fill="#333" d="M105.045 70.5c0-.1.1-.2.1-.3v-.1s-.1.1 0 0c0-.1.1-.1.1-.2s.1-.1.1-.1c.1-.1-.1.1 0 0l.1-.1c.1-.1 0 0 0 0s.1 0 .1-.1c.1-.1-.1 0 0 0 0 0 .2-.1.2 0h-.1.2c.1 0 0 0 0 0h.2c.1 0-.1-.1 0 0 .1 0 .1.1.2.1 0 0 .1.1 0 0l.1.1.1.1c-.1-.1 0 0 0 0s.1.1.1.2c0 0 0 .1 0 0 0 .1 0 .2.1.2v.1s0-.1 0 0v.1s.1-.1 0 0c0 0 0 .1-.1.1 0 .1-.1.1-.1.2.1-.1 0 0 0 .1l-.3.3-.3.3s-.1.1-.2.1c0 0-.1 0-.1.1 0 0-.1.1-.1 0 .1 0 0 0 0 0l-.1.1c-.1 0-.1.1-.2.1h-.2c.1 0 0 0 0 0h.2s-.1 0 0 0c-.1 0 0 0 0 0l-.1-.1c.1.1 0-.1-.1-.1v-.1c-.1-.1.1.2 0 0-.1-.4-.5-.7-.9-.5-.4.1-.7.5-.5.9.2.5.4.9.8 1.2.5.3 1 .2 1.5 0 .7-.4 1.4-1 1.9-1.7.3-.4.5-.8.5-1.3 0-.4-.2-.9-.4-1.3-.5-.8-1.4-1.2-2.4-.9-1 .2-1.4 1.2-1.7 2-.1.4.1.8.5.9.3.2.6 0 .8-.4z"/>
    <path fill="#fff" d="M89.545 70.3c-.2-.5-.4-1-.8-1.3-.4-.3-.9-.3-1.3-.1-.4.2-.7.6-.9 1-.1.2-.1.5 0 .7.1.2.2.4.3.5.4.5.9 1 1.5 1.4.2.1.3.2.5.2s.4-.1.5-.3l.3-.6"/>
    <path fill="#333" d="M90.245 70.1c-.3-.8-.6-1.6-1.4-1.9-.8-.4-1.8-.2-2.4.5-.7.7-.9 1.8-.4 2.6.4.7 1.1 1.3 1.8 1.8.5.3 1 .5 1.6.2.5-.2.8-.8 1-1.2.1-.4-.2-.8-.5-.9-.4-.1-.8.1-.9.5-.1.1 0-.1 0 .1 0 .1-.1.1-.1.2-.1.1 0 0 0 0l-.1.1c0 .1 0 0 0 0l-.1.1s.1-.1 0 0h.1s.1 0 0 0c-.1-.1-.3-.2-.4-.2-.1 0-.1-.1-.2-.1.1.1 0 0-.1 0l-.3-.3-.3-.3-.1-.1s0-.1-.1-.1c0 0-.1-.1 0 0-.1-.1-.2-.2-.2-.3.1.1 0 0 0-.1 0 0 0 .1 0 0v-.1V70.3c0-.1 0 0 0 0s.1-.1.1-.2V70s.1-.1 0 0l.1-.1s.1-.1 0 0l.1-.1h.1c.1 0-.1 0 0 0h.4-.1.2s-.1-.1 0 0h.1c.1 0-.1-.1 0 0l.1.1c.1.1 0 0 0 0l.1.1c0 .1.1.1.1.2s.1.2 0 .1c.1.1.1.3.2.4.1.4.5.7.9.5.6-.3.9-.7.7-1.1z"/>
    <path fill="#fff" d="M105.022 71.35c.382-3.792-2.918-7.229-7.369-7.676-4.45-.448-8.368 2.262-8.75 6.054-.381 3.792 2.918 7.229 7.369 7.677 4.451.447 8.369-2.263 8.75-6.055z"/>
    <path fill="#333" d="M104.245 71.4c-.3 2.8-2.9 4.7-5.5 5.2-2.8.5-6.1-.5-7.9-2.8-1.7-2.2-1.7-5.2.2-7.2 2-2.1 5.2-2.7 8-1.9 3 .9 5.5 3.4 5.2 6.7-.1 1 1.4 1 1.5 0 .3-3.5-2.1-6.4-5.2-7.7-3.3-1.4-7.2-.9-10 1.4-2.6 2.2-3.3 5.9-1.6 8.8 1.8 3.1 5.5 4.6 8.9 4.4 3.9-.3 7.4-2.8 7.9-6.8.1-1.1-1.4-1.1-1.5-.1z"/>
    <path fill="#DF357F" d="M94.445 72.7c1.4 0 2.8 0 4.2.1.1 0 .1 0 .2.1s0 .1 0 .2c-.1.5-.3 1-.5 1.5-.1.2-.2.4-.4.5-.1.1-.3.1-.5.1-.5 0-1.1 0-1.6-.2s-1.3-1.8-1.4-2.3z"/>
    <path fill="#333" d="M94.445 73.1H98.545l-.1-.1c0-.1 0-.1 0 0v.2c0 .1 0 .2-.1.2-.1.2-.1.4-.2.5-.1.2-.1.6-.3.7-.1.1-.3.1-.5.1h-.5c-.3 0-.6-.1-.8-.2-.1 0-.1-.1-.2-.1l-.2-.2c-.2-.2-.3-.4-.4-.6-.2-.3-.4-.7-.5-1 0-.2-.3-.3-.5-.3-.2.1-.3.3-.3.5 0 .3.2.5.3.7.2.3.3.6.5.8.2.2.4.5.6.7.3.2.7.3 1.1.4.5.1 1 .1 1.5 0 .5-.2.6-.6.8-1 .1-.2.2-.5.2-.7.1-.2.2-.5.2-.7 0-.6-.7-.6-1.1-.6h-3.6c-.5-.1-.5.7 0 .7zM96.245 67.4c-.7.6-1.3 1.4-1.5 2.3-.1.2-.1.5-.1.7 0 .4-.1.7.2 1 .2.3.6.4 1 .4h.7c.6 0 1.2-.1 1.8-.3.2-.1.3-.2.4-.3.1-.2.1-.4.1-.6-.1-.4-.5-.7-.9-.5-.2.1-.5.2-.8.2h-.2.1-1.1c-.1 0-.1 0 0 0h-.1c-.2 0-.1-.1.1.1.3.3.1.5.2.2v-.2 0c0-.2.1-.4.2-.6v-.1c0-.1 0-.1 0 0l.1-.1c.1-.1.1-.2.2-.3.1-.1.1-.2.2-.3 0 0 0-.1.1-.1l-.1.1s.1-.1.1-.2l.5-.5c.3-.2.3-.8 0-1.1-.4-.1-.8-.1-1.2.2zM100.645 69.6c-.3 0-.5-.2-.5-.5v-1.2c0-.3.2-.5.5-.5s.5.2.5.5V69c0 .3-.2.6-.5.6zM92.845 69.6c-.3 0-.5-.2-.5-.5v-1.2c0-.3.2-.5.5-.5s.5.2.5.5V69c0 .3-.2.6-.5.6z"/>
    <path fill="#DF357F" d="M98.545 65.1c0-.4 0-.8-.1-1.2 2.2 1.2 4.2 2.9 5.5 5 1.3-2 1.3-4.8 0-6.7-1.2-1.8-3.3-2.9-5.4-3.2-2.2-.3-9.2-.9-10.9 4.9-.6 1.9-.4 4.4 1.4 5.3 1-3 5.6-3.3 6.8-6.3 0 0 .5 1.9 2.7 2.2z"/>
    <path fill="#333" d="M99.745 65.1c0-.4 0-.8-.1-1.2-.6.3-1.1.6-1.7 1 2.1 1.1 3.8 2.6 5.1 4.6.5.7 1.5.8 1.9 0 1.7-2.7 1.4-6.3-.7-8.7-1.7-2-4.2-2.8-6.8-3-3.9-.3-8.5.5-10.4 4.3-1.3 2.5-1.5 6.5 1.4 8.1.7.4 1.4 0 1.7-.7.5-1.4 2.1-2.1 3.3-2.8 1.5-.9 2.8-1.9 3.5-3.5h-2.2c.4 1.6 1.9 2.8 3.5 3 .6.1 1.2-.2 1.4-.8.2-.5-.2-1.3-.8-1.4-.6-.1-1.2-.3-1.6-.8-.1-.1-.3-.6-.2-.4 0-.1-.1-.2-.1-.2-.3-1.2-1.8-.9-2.2 0-.6 1.3-2.3 2-3.4 2.7-1.5.9-2.8 1.9-3.3 3.5.6-.2 1.1-.4 1.7-.7-1.7-.9-1.3-3.6-.5-5.1.7-1.4 2-2.3 3.5-2.7 2.7-.8 6.4-.8 8.8.8 2.4 1.6 3 4.7 1.6 7.1h1.9c-1.5-2.3-3.5-4.1-5.9-5.4-.7-.4-1.7.1-1.7 1 0 .4 0 .8.1 1.2 0 1.6 2.2 1.6 2.2.1zM96.445 78.9c.7.8 1.4 1.6 1.9 2.5.2.3.7.5 1 .3 1.6-1 3.1-2.1 4.5-3.4.7-.7-.4-1.7-1.1-1.1-1.3 1.2-2.6 2.2-4.2 3.2.3.1.7.2 1 .3-.7-1-1.4-1.9-2.2-2.8-.3-.3-.8-.3-1.1 0-.1.3 0 .7.2 1z"/>
    <path fill="#333" d="M95.745 77.2l-.9 1.5c-.1.2-.3.4-.4.7-.1.1-.1.2-.2.3 0 .1-.1.1-.1.2-.2.1-.2.1-.1.1s.3-.1.4-.1c-.1 0-.4-.1-.5-.2l-.6-.3-1.2-.6c-.8-.4-1.6-.8-2.4-1.3-.8-.5-1.6.8-.8 1.3 1.4.9 3 1.6 4.5 2.3.4.2.9.4 1.3.1.4-.2.6-.7.8-1 .5-.7 1-1.5 1.4-2.2.6-.9-.7-1.6-1.2-.8z"/>
    <path fill="#DF357F" d="M95.945 80.6c-.3 1.2-.5 2.5-.5 3.7.7 0 2.2.3 3.3.3-.4-.9-.8-2.2-1-3.2-.1-.3-.2-.7-.5-.8h-.3c-.3 0-.6-.1-1 0z"/>
    <path fill="#333" d="M95.245 80.4c-.3 1.3-.5 2.6-.5 3.9 0 .4.3.7.8.8 1.1 0 2.2.3 3.3.3.6 0 .9-.6.6-1.1 0-.1 0-.1-.1-.2.1.1 0 0 0 0 0-.1-.1-.2-.1-.3-.1-.2-.2-.5-.2-.7-.1-.5-.3-1-.4-1.4-.1-.5-.2-1-.6-1.4-.5-.5-1.3-.4-1.9-.4-.4 0-.8.4-.8.8s.3.7.8.8h1-.1c.1.1-.1-.1 0 0 0 0-.1-.1 0 0 0 0 .1.2 0 0v.1c0 .1.1.2.1.3.1.2.1.4.2.6.2.9.5 1.8.9 2.6.2-.4.4-.8.6-1.1-1.1 0-2.2-.2-3.3-.3l.8.8c0-.6 0-1.2.1-1.8 0-.1 0-.1 0 0v-.1-.2c0-.2.1-.3.1-.5.1-.3.1-.6.2-.9.1-.4-.1-.8-.5-.9-.5-.3-.9-.1-1 .3z"/>
    <path fill="#DF357F" d="M95.145 80.6s-.1 0 0 0c0 .1 0 .1 0 0 .9.1 1.7.1 2.5.1.1 0 .2 0 .2-.1v-.2c0-.8-.3-1.6-.7-2.2 0-.1-.1-.1-.1-.1h-.2c-.1 0-.2 0-.3.1-.1 0-.2 0-.3.1l-.2.2c-.2.3-.4.6-.6 1l-.3 1.1z"/>
    <path fill="#333" d="M94.345 80.6c0 .3.1.6.4.7.2.1.4.1.6.1h2c.3 0 .6 0 .8-.1.3-.2.5-.6.5-.9 0-.4-.1-.9-.2-1.3s-.3-.8-.6-1.2c-.2-.3-.5-.6-.9-.6-.2 0-.5.1-.7.1-.3.1-.6.3-.8.5-.1.2-.3.4-.4.6-.2.3-.4.5-.4.8-.1.4-.2.7-.3 1.1-.1.4.1.8.5.9.4.1.8-.1.9-.5.1-.3.1-.5.2-.8 0-.1.1-.3.1-.4 0 .1-.1.2 0 .1 0 0 0-.1.1-.1.1-.2.2-.3.3-.5.1-.1.1-.2.2-.2 0 0 0-.1.1-.1.1-.1-.1 0-.1.1h-.1.5c-.1 0-.3 0-.4-.1l-.2-.2.1.1c.1.1.2.3.2.4 0 0 .1.3 0 .1 0 .1.1.1.1.2.1.1.1.3.1.5v.2c0-.2 0-.1 0 0V80.3c.5-.3.6-.5.4-.4h.1-2.5c.1 0 .3.1.4.1.1.1.2.3.3.4v.1c0-.4-.4-.8-.8-.8-.2.2-.5.5-.5.9z"/>
    <path fill="#F0D227" d="M111.605 13.105c-1.4 1.8-4.3 2.8-6.5 3.2 2.2.2 4.6.5 5.9 2.2.7.8 1 1.8 1.3 2.8.6 2 1.1 4 1.5 6 .4-1.8.9-3.6 1.5-5.3.2-.7.5-1.3.9-1.9 1.4-1.9 4.2-2.1 6.6-2.1-1.2-.7-2.3-1.5-3.5-2.2-.7-.5-1.5-1-2.1-1.7-2.2-2.3-2.5-5.8-2.7-9 0 0-1 5.7-2.9 8z"/>
    <path fill="#333" d="M110.806 12.306c-1.5 1.7-3.8 2.5-6 2.9-1.3.2-.9 2.1.3 2.2 2.1.2 4.6.5 5.6 2.7 1.1 2.3 1.5 5.1 2.1 7.5.2 1.1 1.9 1.1 2.2 0 .3-1.2.6-2.5 1-3.7.3-1.1.6-2.5 1.4-3.4 1.3-1.5 3.7-1.4 5.5-1.4 1.1 0 1.5-1.5.6-2.1-2.2-1.3-5-2.7-6.3-5-1.2-2.1-1.3-4.6-1.4-6.9-.1-1.2-2-1.6-2.2-.3-.6 2.5-1.2 5.5-2.8 7.5-.9 1.1.7 2.7 1.6 1.6 1.8-2.4 2.7-5.6 3.2-8.5-.7-.1-1.5-.2-2.2-.3.2 2.7.4 5.6 1.7 8 1.5 2.7 4.5 4.2 7.1 5.8l.6-2.1c-2.4 0-5 .1-6.9 1.8-1 .9-1.4 2.2-1.8 3.4-.5 1.6-1 3.3-1.4 4.9h2.2l-1.2-4.8c-.4-1.4-.7-2.9-1.6-4.2-1.6-2.2-4.4-2.6-7-2.9.1.7.2 1.5.3 2.2 2.6-.4 5.3-1.4 7-3.4.9-1-.7-2.6-1.6-1.5z"/>
</svg>
