<svg xmlns="http://www.w3.org/2000/svg" width="30" height="41" fill="none" viewBox="0 0 30 41">
    <path fill="#fff" d="M26.861 40.226H3.291c-1.375 0-2.384-1.142-2.384-2.475V4.237C.815 2.904 1.916 1.76 3.29 1.76h23.662c1.376 0 2.384 1.143 2.384 2.476V37.75c0 1.333-1.1 2.475-2.476 2.475z"/>
    <path fill="#333" d="M26.861 39.56H15.764c-4.127 0-8.254.19-12.38 0-1.835-.095-1.835-1.523-1.835-2.952v-5.617-16.757-6.855c0-.952-.092-2 0-2.952.183-2.19 2.293-1.809 3.76-1.809h20.91c.642 0 1.284-.095 1.835.381.55.476.642 1.143.642 1.809V25.85c0 3.903.091 7.807 0 11.806-.092.952-.642 1.809-1.835 1.904-.917.095-.917 1.523 0 1.428 1.743-.095 3.027-1.428 3.119-3.237v-.952-5.618-17.9-6.854c0-1.333.183-2.857-.55-4C28.42.81 26.585 1 24.935 1H3.475C1.457 1 .173 2.428.082 4.522V26.517c0 3.712-.184 7.52 0 11.234.183 2.285 2.017 3.237 3.943 3.237H26.77c1.009 0 1.009-1.428.091-1.428z"/>
    <path fill="#CCC" d="M24.844 13.853H5.309c-.55 0-.917-.476-.917-.952V6.998c0-.571.459-.952.917-.952h19.535c.55 0 .917.476.917.952v5.903c0 .476-.459.952-.917.952z"/>
    <path fill="#333" d="M24.844 13.091H7.786c-.55 0-2.476.381-2.751-.285-.092-.19 0-.667 0-.952V9.949 8.236c0-.286-.092-.857 0-1.143.275-.762 2.109-.38 2.66-.38h16.324c.367 0 .825-.096 1.009.285.091.285 0 .857 0 1.238v1.999c0 .666.367 2.761-.459 2.856-.733.096-.55 1.524.184 1.429 1.284-.191 1.65-1.143 1.65-2.286V8.331c0-.952.184-2.095-.641-2.761-.46-.381-1.01-.381-1.651-.381H9.987c-1.56 0-3.118-.095-4.677 0-2.293.19-1.651 3.523-1.651 5.141 0 1.714-.367 4.094 1.926 4.19 1.834.095 3.668 0 5.41 0h13.85c.825 0 .825-1.429 0-1.429z"/>
    <path fill="#DF357F" d="M24.385 34.61H5.768c-.826 0-1.376-.667-1.376-1.429V18.614c0-.857.642-1.428 1.376-1.428h18.617c.826 0 1.376.666 1.376 1.428v14.472c0 .857-.642 1.523-1.376 1.523z"/>
    <path fill="#333" d="M24.385 33.847h-17.7c-.734 0-1.467.19-1.56-.857-.09-.761 0-1.714 0-2.475v-4.76-4.761c0-.762-.09-1.714 0-2.476.184-.952.918-.761 1.56-.761h16.233c.459 0 1.009-.096 1.56 0 1.1.19.733 1.999.733 2.76V30.8c-.092.857.183 2.952-.826 3.047-.917.096-.917 1.524 0 1.428 1.468-.19 2.11-1.237 2.11-2.666v-3.903-9.521c0-1.333-.459-2.57-1.926-2.761-.642-.096-1.284 0-1.834 0h-9.447c-2.384 0-4.86-.096-7.245 0-2.843.095-2.201 3.427-2.201 5.427v9.997c0 .952-.092 2.095.642 2.856.458.667 1.376.571 2.293.571H24.385c.826 0 .826-1.428 0-1.428z"/>
    <path fill="#333" d="M4.392 23.946H25.76c.917 0 .917-1.429 0-1.429H4.39c-.916 0-.916 1.429 0 1.429zM4.392 29.848H25.76c.917 0 .917-1.429 0-1.429H4.39c-.916 0-.916 1.429 0 1.429z"/>
    <path fill="#333" d="M10.72 17.185V34.61c0 .952 1.376.952 1.376 0V19.375v-2.19c0-.952-1.376-.952-1.376 0zM17.782 17.185V34.61c0 .952 1.376.952 1.376 0V19.375v-2.19c0-.952-1.376-.952-1.376 0z"/>
</svg>
