<svg xmlns="http://www.w3.org/2000/svg" width="100" height="100" fill="none" viewBox="0 0 100 100">
    <path fill="#F6F2EF" d="M50 100c27.614 0 50-22.386 50-50S77.614 0 50 0 0 22.386 0 50s22.386 50 50 50z"/>
    <path fill="#fff" d="M71.489 83.619h-42.9c-2.4 0-4.4-2-4.4-4.4v-58.5c0-2.4 2-4.4 4.4-4.4h42.9c2.4 0 4.4 2 4.4 4.4v58.5c0 2.4-2 4.4-4.4 4.4z"/>
    <path fill="#333" d="M71.489 82.519h-20.4c-7.4 0-14.9.2-22.3 0-1.9-.1-3.3-1.4-3.4-3.4v-2-9.8-29.7c0-5.6-.3-11.3 0-16.9.2-3.9 4.3-3.3 7-3.3h38.2c1.3 0 2.5 0 3.4 1.1.8.9.8 1.9.8 3v37.2c0 6.7.1 13.5 0 20.2 0 1.9-1.2 3.5-3.3 3.6-1.4.1-1.5 2.3 0 2.2 3.1-.1 5.4-2.5 5.5-5.6v-1.9-10.2-30.8-11.8c0-2.2.4-5-.9-6.9-2-2.9-5.4-2.5-8.5-2.5h-38.5c-3.7 0-6 2.6-6 6.2v38.5c0 6.4-.2 12.9 0 19.3.1 3 2.3 5.4 5.3 5.6H71.489c1.5.1 1.5-2.1 0-2.1z"/>
    <path fill="#CCC" d="M67.788 37.419h-35.4c-.9 0-1.7-.8-1.7-1.7v-10.3c0-.9.8-1.7 1.7-1.7h35.4c.9 0 1.7.8 1.7 1.7v10.3c0 .9-.8 1.7-1.7 1.7z"/>
    <path fill="#333" d="M67.789 36.319h-34.4c-.7 0-1.4.2-1.6-.7-.1-.6 0-1.2 0-1.8v-3.2c0-1.6-.3-3.4 0-5 .1-.9.8-.7 1.5-.7h32.9c.5 0 1.2-.1 1.7 0 1.1.3.6 3.2.6 4v6.1c-.1.4 0 1.2-.7 1.3-1.4.1-1.4 2.4 0 2.2 1.6-.1 2.8-1.2 2.8-2.8v-1.5-6.8c0-1.9.2-4.1-2.1-4.7-.7-.2-1.6-.1-2.3-.1h-25.5c-2.7 0-5.5-.1-8.2 0-1.9.1-3 1.4-3 3.3v6.2c0 1.5-.4 3.8.4 5.1.7 1.3 2 1.4 3.3 1.4H67.789c1.4-.1 1.4-2.3 0-2.3z"/>
    <path fill="#DF357F" d="M66.889 73.719h-33.7c-1.4 0-2.6-1.1-2.6-2.6v-25.3c0-1.4 1.1-2.6 2.6-2.6h33.7c1.4 0 2.6 1.1 2.6 2.6v25.3c0 1.5-1.2 2.6-2.6 2.6z"/>
    <path fill="#333" d="M66.889 72.619h-32.6c-1.2 0-2.4 0-2.5-1.6-.1-1.6 0-3.2 0-4.7v-8.4-8.1c0-1.3-.1-2.6 0-3.9.2-1.7 1.8-1.5 3.1-1.5h30c1 0 2.9-.3 3.4.8.5 1 .1 2.8.1 3.8v7.9c0 4.6.1 9.3 0 13.9-.1.9-.4 1.7-1.5 1.8-1.4.1-1.4 2.3 0 2.2 2.1-.1 3.6-1.6 3.7-3.7v-1.2-7-16.2-1.3c-.2-1.9-1.8-3.3-3.7-3.4h-20.7c-4.3 0-8.6-.1-12.8 0-2.3 0-3.8 1.7-3.9 4v22.8c0 1.8-.2 3.8 1.4 5.1 1.2 1 2.8.8 4.3.8h31.7c1.5.1 1.5-2.1 0-2.1z"/>
    <path stroke="#333" stroke-miterlimit="10" stroke-width=".75" d="M30.689 58.519h38.8"/>
    <path fill="#333" d="M30.689 52.118h38.8c1.4 0 1.5-2.2 0-2.2h-38.8c-1.5 0-1.5 2.2 0 2.2zM30.689 59.619h38.8c1.4 0 1.5-2.2 0-2.2h-38.8c-1.5-.1-1.5 2.2 0 2.2zM30.689 67.119h38.8c1.4 0 1.5-2.2 0-2.2h-38.8c-1.5-.1-1.5 2.2 0 2.2z"/>
    <path fill="#333" d="M42.39 43.218V73.618c0 1.4 2.2 1.5 2.2 0v-26.6-3.8c0-1.4-2.2-1.4-2.2 0zM55.189 43.218V73.618c0 1.4 2.2 1.5 2.2 0v-26.6-3.8c.1-1.4-2.2-1.4-2.2 0zM38.489 34.718c-.1 0-.1 0-.2-.1-.1 0-.1-.1-.1-.2v-5l-1.5 1.1c-.1 0-.1.1-.2.1s-.1-.1-.2-.1l-.6-.8c0-.1-.1-.1 0-.2s.1-.1.1-.2l2.5-1.9s.1 0 .1-.1H39.789c.1 0 .1 0 .2.1.1 0 .1 0 .1.1v6.9c0 .1 0 .1-.1.2-.1 0-.1.1-.2.1h-1.3zM42.09 34.718c-.1 0-.1 0-.2-.1-.1 0-.1-.1-.1-.2v-.8-.2c0-.1.1-.2.2-.3l1.1-1.1c.6-.4 1-.8 1.4-1.1.4-.3.6-.6.8-.8.2-.2.3-.5.3-.7 0-.2-.1-.4-.2-.6-.1-.2-.3-.2-.6-.2-.2 0-.4 0-.5.1l-.3.3c-.1.1-.1.3-.1.4 0 .1-.1.2-.1.2-.1 0-.1.1-.2.1h-1.5c-.1 0-.1 0-.2-.1 0 0-.1-.1-.1-.2 0-.3.1-.7.2-1 .1-.3.3-.6.6-.8.3-.2.6-.4.9-.5.4-.1.7-.2 1.2-.2.6 0 1.1.1 1.5.3.4.2.7.5 1 .8.2.3.3.7.3 1.2 0 .3-.1.7-.2 1l-.6.9c-.3.3-.6.6-1 .8l-1 1h2.7c.1 0 .1 0 .2.1.1 0 .1.1.1.2v1.2c0 .1 0 .1-.1.2-.1 0-.1.1-.2.1h-5.3zM52.289 34.819c-.6 0-1-.1-1.4-.2-.4-.1-.7-.3-1-.5-.2-.2-.4-.4-.6-.7-.1-.2-.2-.5-.2-.7 0-.1 0-.1.1-.2s.1-.1.2-.1H50.989s.1.1.1.2c.1.1.1.2.2.3.1.1.2.1.4.2h.5c.4 0 .6-.1.8-.3.2-.2.3-.4.3-.7 0-.3-.1-.5-.3-.7-.2-.2-.5-.2-.8-.2h-1.1c-.1 0-.1 0-.2-.1s-.1-.1-.1-.2v-.6c0-.1 0-.2.1-.2 0-.1.1-.1.1-.1l1.7-1.5h-3c-.1 0-.1 0-.2-.1-.1 0-.1-.1-.1-.2v-1c0-.1 0-.1.1-.2.1 0 .1-.1.2-.1h4.9c.1 0 .1 0 .2.1.1 0 .1.1.1.2v1.2c0 .1 0 .1-.1.2 0 .1-.1.1-.1.1l-1.6 1.5h.1c.4 0 .8.2 1.1.3.3.2.6.4.8.7.2.3.3.7.3 1.1 0 .5-.1.9-.4 1.3-.3.4-.6.6-1.1.8-.5.3-1 .4-1.6.4zM60.489 34.719c-.1 0-.1 0-.2-.1-.1 0-.1-.1-.1-.2v-1.2h-3.3c-.1 0-.1 0-.2-.1-.1 0-.1-.1-.1-.2v-1-.2c0-.1.1-.1.1-.2l3.1-4.2c.1-.1.2-.2.4-.2h1.5c.1 0 .1 0 .2.1.2.2.2.2.2.3v4.1h.9c.1 0 .2 0 .2.1s.1.1.1.2v1.1c0 .1 0 .1-.1.2-.1 0-.1.1-.2.1h-.9v1.1c0 .1 0 .1-.1.2-.1 0-.1.1-.2.1h-1.3zm-2-3h1.8v-2.5l-1.8 2.5z"/>
</svg>
