<svg xmlns="http://www.w3.org/2000/svg" width="130" height="130" fill="none" viewBox="0 0 130 130">
    <path fill="#fff" d="M65.5 124.7c30.1 0 54.5-24.4 54.5-54.5S95.6 15.7 65.5 15.7 11 40.1 11 70.2s24.4 54.5 54.5 54.5z"/>
    <path fill="#fff" d="M96.39 118.7h-61.8c-3.5 0-6.3-2.8-6.3-6.3V28c0-3.5 2.8-6.3 6.3-6.3h61.8c3.5 0 6.299 2.8 6.299 6.3v84.4c.1 3.5-2.8 6.3-6.3 6.3z"/>
    <path fill="#333" d="M96.389 117.6h-29.8c-10.6 0-21.3.2-31.9 0-3-.1-5.3-2.3-5.3-5.4v-2.8V95 52 34.7v-5c0-.8-.1-1.7 0-2.4.4-3 3.1-4.5 5.9-4.5h59.9c2 0 4 .3 5.3 2 1 1.3 1.1 2.8 1.1 4.4v82.9c0 2.9-2 5.4-5.2 5.5-1.4 0-1.5 2.3 0 2.2 4.2-.1 7.4-3.4 7.5-7.6v-2.8-14.8-44-17c0-3.2.6-7.1-1.4-9.8-2.8-3.9-7.8-3.2-11.9-3.2h-55.4c-2.9 0-5.6 1.1-7.1 3.7-.9 1.5-1 3.2-1 4.9v55.6c0 9.2-.2 18.4 0 27.5.1 4.2 3.3 7.4 7.5 7.5h61.7c1.6.1 1.6-2.2.1-2.2z"/>
    <path fill="#CCC" d="M91.089 52.2h-51.1c-1.4 0-2.5-1.1-2.5-2.5V34.9c0-1.4 1.1-2.5 2.5-2.5h51c1.4 0 2.5 1.1 2.5 2.5v14.8c0 1.4-1.1 2.5-2.4 2.5z"/>
    <path fill="#333" d="M91.089 51.1H41.289c-1.2 0-2.5.1-2.5-1.5-.1-2.5 0-5 0-7.4 0-2.3-.2-4.7 0-7.1.2-1.6 1.5-1.4 2.7-1.4h47.6c.8 0 2.1-.2 2.8.2.8.5.7 1.6.7 2.4v12.5c-.2.9-.1 2.2-1.5 2.3-1.4.1-1.4 2.3 0 2.2 2.1-.1 3.5-1.6 3.6-3.7v-2.7-9.8-2.3c-.1-2-1.6-3.5-3.6-3.6h-39.5c-3.8 0-7.6-.1-11.4 0-1.2 0-2.4.5-3.1 1.5-.7.9-.7 2-.7 3.1V45c0 2.1-.6 5.5 1.1 7.1 1.2 1.2 2.7 1.1 4.2 1.1H91.089c1.4.1 1.4-2.1 0-2.1z"/>
    <path fill="#DF357F" d="M89.789 104.5h-48.6c-2 0-3.7-1.7-3.7-3.7V64.3c0-2 1.7-3.7 3.7-3.7h48.6c2 0 3.7 1.7 3.7 3.7v36.5c0 2-1.6 3.7-3.7 3.7z"/>
    <path fill="#333" d="M89.789 103.4H41.189c-1.6-.1-2.6-1.2-2.6-2.8-.1-6.4 0-12.8 0-19.2V69.6c0-1.8-.1-3.6 0-5.3.2-2.9 3-2.6 5-2.6h43.3c1.8 0 4.4-.4 5.2 1.6.3.7.2 1.5.2 2.2v15.2c0 6.6.1 13.2 0 19.9.1 1.4-.8 2.7-2.5 2.8-1.4.1-1.5 2.3 0 2.2 2.7-.1 4.7-2.1 4.8-4.8v-1.9-10.4-22.9c0-.7 0-1.3-.1-2-.3-2.5-2.4-4.1-4.8-4.2-1.7-.1-3.5 0-5.3 0h-24.8c-6.1 0-12.1-.1-18.2 0-3.2 0-5.1 2.4-5.1 5.5v32.9c0 2.6-.3 5.5 2.4 7.1 1.6 1 3.9.7 5.7.7H89.689c1.6 0 1.6-2.2.1-2.2z"/>
    <path stroke="#333" stroke-miterlimit="10" stroke-width=".75" d="M37.489 82.5h56"/>
    <path fill="#333" d="M37.489 72.9h56c1.4 0 1.5-2.2 0-2.2h-56c-1.4-.1-1.4 2.2 0 2.2zM37.489 83.7h56c1.4 0 1.5-2.2 0-2.2h-56c-1.4-.1-1.4 2.2 0 2.2zM37.489 94.5h56c1.4 0 1.5-2.2 0-2.2h-56c-1.4-.1-1.4 2.2 0 2.2z"/>
    <path fill="#333" d="M54.89 60.6v43.9c0 1.4 2.2 1.5 2.2 0V89.7 66v-5.4c.1-1.5-2.2-1.5-2.2 0zM73.39 60.6v43.9c0 1.4 2.3 1.5 2.3 0V89.7 66v-5.4c0-1.5-2.3-1.5-2.3 0zM48.789 48.2c-.1 0-.2 0-.3-.1-.1-.1-.1-.2-.1-.3v-7.3l-2.1 1.6c-.1.1-.2.1-.3.1-.1 0-.2-.1-.3-.2l-.9-1.2c-.1-.1-.1-.2-.1-.3 0-.1.1-.2.2-.3l3.5-2.7c.1 0 .1-.1.2-.1h2.1c.1 0 .2 0 .3.1.1.1.1.2.1.3v10c0 .1 0 .2-.1.3-.1.1-.2.1-.3.1h-1.9zM53.989 48.2c-.1 0-.2 0-.3-.1-.1-.1-.1-.2-.1-.3v-1.1c0-.1 0-.2.1-.3 0-.1.1-.3.3-.4l1.6-1.6c.8-.6 1.5-1.2 2-1.6.5-.4.9-.8 1.2-1.2.3-.3.4-.7.4-1 0-.3-.1-.6-.3-.9-.2-.2-.5-.3-.9-.3-.3 0-.5.1-.7.2-.2.1-.4.3-.5.5-.1.2-.2.4-.2.6 0 .1-.1.2-.2.3-.1.1-.2.1-.3.1h-1.9c-.1 0-.2 0-.2-.1s-.1-.1-.1-.2c0-.5.1-1 .3-1.4.2-.4.5-.8.8-1.1.4-.3.8-.6 1.3-.8.5-.2 1.1-.3 1.7-.3.9 0 1.6.1 2.2.4.6.3 1.1.7 1.4 1.2.3.5.5 1.1.5 1.7 0 .5-.1 1-.3 1.4-.2.4-.5.8-.9 1.2-.4.4-.9.8-1.4 1.2l-1.4 1.4h3.9c.1 0 .2 0 .3.1.1.1.1.2.1.3v1.6c0 .1 0 .2-.1.3-.1.1-.2.1-.3.1h-8v.1zM68.689 48.4c-.8 0-1.5-.1-2-.3-.6-.2-1-.4-1.4-.7-.4-.3-.6-.6-.8-1-.2-.4-.3-.7-.3-1 0-.1 0-.2.1-.2s.1-.1.2-.1h2c.1 0 .2 0 .3.1l.2.2c.1.2.2.4.4.5l.6.3c.2 0 .5.1.7.1.5 0 .9-.1 1.2-.4.3-.2.4-.6.4-1s-.1-.8-.4-.9c-.3-.1-.7-.3-1.2-.3h-1.7c-.1 0-.2 0-.3-.1-.1-.1-.1-.2-.1-.3v-.9c0-.1 0-.2.1-.3.1-.1.1-.2.2-.2l2.5-2.1h-4.3c-.1 0-.2 0-.3-.1-.1-.1-.1-.2-.1-.3V38c0-.1 0-.2.1-.3.1-.1.2-.1.3-.1h7.1c.1 0 .2 0 .3.1.1.1.1.2.1.3v1.3c0 .1 0 .2-.1.3-.1.1-.1.2-.2.2l-2.3 2.1h.1c.6.1 1.1.2 1.6.5s.8.6 1.1 1c.3.4.4 1 .4 1.6 0 .7-.2 1.3-.6 1.8-.4.5-.9.9-1.6 1.2-.7.3-1.4.4-2.3.4zM80.589 48.2c-.1 0-.2 0-.3-.1-.1-.1-.1-.2-.1-.3v-1.7h-4.8c-.1 0-.2 0-.3-.1 0 0-.1-.1-.1-.3v-1.5c0-.1 0-.2.1-.3 0-.1.1-.2.1-.2l4.5-6.1c.1-.2.3-.3.6-.3h2.2c.1 0 .2 0 .3.1.1.1.1.2.1.3v6h1.4c.1 0 .2 0 .3.1.1.1.1.2.1.3v1.5c0 .1 0 .2-.1.3-.1.1-.2.1-.3.1h-1.4v1.7c0 .1 0 .2-.1.3-.1.1-.2.1-.3.1h-1.9v.1zm-2.9-4.3h2.6v-3.6l-2.6 3.6z"/>
    <path fill="#F0D227" d="M111.605 13.105c-1.4 1.8-4.3 2.8-6.5 3.2 2.2.2 4.6.5 5.9 2.2.7.8 1 1.8 1.3 2.8.6 2 1.1 4 1.5 6 .4-1.8.9-3.6 1.5-5.3.2-.7.5-1.3.9-1.9 1.4-1.9 4.2-2.1 6.6-2.1-1.2-.7-2.3-1.5-3.5-2.2-.7-.5-1.5-1-2.1-1.7-2.2-2.3-2.5-5.8-2.7-9 0 0-1 5.7-2.9 8z"/>
    <path fill="#333" d="M110.806 12.306c-1.5 1.7-3.8 2.5-6 2.9-1.3.2-.9 2.1.3 2.2 2.1.2 4.6.5 5.6 2.7 1.1 2.3 1.5 5.1 2.1 7.5.2 1.1 1.9 1.1 2.2 0 .3-1.2.6-2.5 1-3.7.3-1.1.6-2.5 1.4-3.4 1.3-1.5 3.7-1.4 5.5-1.4 1.1 0 1.5-1.5.6-2.1-2.2-1.3-5-2.7-6.3-5-1.2-2.1-1.3-4.6-1.4-6.9-.1-1.2-2-1.6-2.2-.3-.6 2.5-1.2 5.5-2.8 7.5-.9 1.1.7 2.7 1.6 1.6 1.8-2.4 2.7-5.6 3.2-8.5-.7-.1-1.5-.2-2.2-.3.2 2.7.4 5.6 1.7 8 1.5 2.7 4.5 4.2 7.1 5.8l.6-2.1c-2.4 0-5 .1-6.9 1.8-1 .9-1.4 2.2-1.8 3.4-.5 1.6-1 3.3-1.4 4.9h2.2l-1.2-4.8c-.4-1.4-.7-2.9-1.6-4.2-1.6-2.2-4.4-2.6-7-2.9.1.7.2 1.5.3 2.2 2.6-.4 5.3-1.4 7-3.4.9-1-.7-2.6-1.6-1.5z"/>
</svg>
