<svg xmlns="http://www.w3.org/2000/svg" width="21" height="24" fill="none" viewBox="0 0 21 24">
    <path fill="#F0D227" d="M7.605 8.945c-1.5 1.768-4.3 2.75-6.6 3.143 2.2.197 4.6.492 5.9 2.162.7.786 1 1.768 1.3 2.75.6 1.965 1.1 3.93 1.5 5.895.4-1.769.9-3.537 1.5-5.207.2-.688.5-1.277.9-1.866 1.4-1.867 4.2-2.063 6.6-2.063-1.2-.688-2.3-1.474-3.5-2.162-.7-.49-1.5-.982-2.1-1.67-2.2-2.26-2.5-5.697-2.7-8.841.1 0-1 5.6-2.8 7.859z"/>
    <path fill="#333" d="M6.806 8.16c-1.5 1.67-3.8 2.455-6 2.848-1.3.197-.9 2.063.3 2.161 2.1.197 4.6.492 5.6 2.653 1.1 2.26 1.5 5.01 2.1 7.367.2 1.081 1.9 1.081 2.2 0 .3-1.178.6-2.455 1-3.634.3-1.08.6-2.456 1.4-3.34 1.3-1.474 3.7-1.376 5.5-1.376 1.1 0 1.5-1.473.6-2.063-2.2-1.277-5-2.652-6.3-4.912-1.2-2.063-1.3-4.518-1.4-6.778-.1-1.179-2-1.572-2.2-.295-.7 2.456-1.3 5.403-2.8 7.368-.9 1.18.7 2.75 1.5 1.572 1.8-2.358 2.7-5.501 3.2-8.35-.7-.098-1.5-.197-2.2-.295.2 2.653.4 5.501 1.7 7.86 1.5 2.652 4.5 4.125 7.1 5.697l.6-2.063c-2.4 0-5 .098-6.9 1.768-1 .884-1.4 2.161-1.8 3.34-.5 1.572-1 3.242-1.4 4.814h2.2l-1.2-4.715c-.4-1.376-.7-2.85-1.6-4.126-1.6-2.162-4.4-2.555-7-2.85.1.688.2 1.474.3 2.162 2.6-.393 5.3-1.376 7-3.34 1-.983-.6-2.554-1.5-1.474z"/>
</svg>
