<svg xmlns="http://www.w3.org/2000/svg" width="30" height="40" fill="none" viewBox="0 0 30 40">
    <path fill="#fff" d="M29.329.81H.767v38.38h28.562V.81z"/>
    <path fill="#333" d="M29.33 38.38H.766l.767.81V5.468.708c-.384.305-.576.507-.767.811H29.329l-.767-.81V39.19c0 1.013 1.438 1.013 1.438 0V5.468.708C30 .305 29.712 0 29.33 0H.766C.287 0 0 .304 0 .81V39.19c0 .405.288.81.767.81H29.329c.863-.101.863-1.62 0-1.62z"/>
    <path fill="#fff" d="M22.14 22.076H7.955V10.025l7.093-3.342 7.092 3.342v12.05z"/>
    <path fill="#333" d="M22.14 21.367H7.957l.766.81V10.025c-.096.202-.192.405-.383.608 2.396-1.114 4.792-2.228 7.092-3.342h-.766c2.396 1.114 4.696 2.228 7.092 3.342-.096-.203-.192-.405-.383-.608v12.152c0 1.012 1.438 1.012 1.438 0V10.025c0-.203-.096-.506-.384-.608L16.102 6.38c-.287-.1-.479-.202-.767-.303-.479-.203-.766 0-1.15.202C12.94 6.886 11.79 7.392 10.543 8c-.958.405-2.013.911-2.971 1.316-.288.101-.384.405-.384.709v12.152c0 .405.288.81.671.81h14.185c.96-.101.96-1.62.097-1.62z"/>
    <path fill="#DF357F" d="M15.048 4.658l-8.53 4.05v2.836l8.53-3.95 8.53 3.95V8.71l-8.53-4.05z"/>
    <path fill="#333" d="M14.664 4.05C11.79 5.368 9.01 6.685 6.134 8.102c-.192 0-.384.304-.384.608v2.937c0 .607.576.911 1.055.607 2.875-1.316 5.655-2.633 8.53-4.05h-.767c2.876 1.316 5.655 2.633 8.53 4.05.48.203 1.055 0 1.055-.607V8.709c0-.202-.096-.506-.383-.608-2.876-1.316-5.655-2.632-8.53-4.05-.863-.405-1.534.911-.768 1.316 2.876 1.317 5.656 2.633 8.53 4.05-.095-.202-.19-.404-.383-.607v2.937c.384-.203.767-.405 1.055-.608-2.588-1.215-5.08-2.43-7.668-3.645-.287-.101-.575-.304-.958-.405-.48-.101-.767.101-1.246.304-1.438.708-2.972 1.417-4.41 2.025-1.15.607-2.396 1.114-3.546 1.721.384.203.767.405 1.055.608V8.81c.191.102.095.304-.096.507C9.68 8 12.46 6.684 15.335 5.266c.863-.304.192-1.62-.67-1.215z"/>
    <path fill="#DF357F" d="M17.444 14.684h-4.888v7.494h4.888v-7.494z"/>
    <path fill="#333" d="M17.445 21.367h-4.889l.767.81v-6.48-.912l-.767.81h4.889l-.767-.81v7.393c0 1.012 1.438 1.012 1.438 0v-6.481-.912c0-.405-.288-.81-.767-.81H12.46c-.384 0-.767.304-.767.81v7.393c0 .405.287.81.767.81h4.888c1.054-.101 1.054-1.62.096-1.62z"/>
    <path fill="#CCC" d="M25.304 25.215H4.792v1.823h20.512v-1.823zM25.304 28.76H4.792v1.822h20.512V28.76zM17.444 32.304H4.792v1.822h12.652v-1.822z"/>
    <path fill="#333" d="M11.118 14.177h-.958c-.287 0-.575-.304-.575-.607v-1.013c0-.304.287-.608.575-.608h.958c.288 0 .576.304.576.608v1.012c0 .304-.288.608-.576.608zM19.648 14.177h-.958c-.288 0-.575-.304-.575-.607v-1.013c0-.304.287-.608.575-.608h.958c.288 0 .575.304.575.608v1.012c0 .304-.191.608-.575.608z"/>
</svg>
