<svg xmlns="http://www.w3.org/2000/svg" width="12" height="12" fill="none" viewBox="0 0 12 12">
    <path fill="#DF357F" d="M6 12c3.314 0 6-2.686 6-6S9.314 0 6 0 0 2.686 0 6s2.686 6 6 6z"/>
    <path fill="#fff" d="M4.147 8.823c-.088 0-.088 0-.176-.088 0 0-.089-.088-.089-.176v-.442-.176c0-.088.089-.177.177-.177l.794-.794c.441-.353.794-.53 1.059-.794.264-.176.44-.353.53-.53.176-.176.264-.352.264-.529 0-.176 0-.353-.088-.44-.089-.089-.353-.089-.53-.089-.176 0-.264 0-.353.088-.088.088-.176.088-.264.265-.089.176-.089.176-.089.265 0 .088 0 .088-.088.176H4.235c-.088 0-.088 0-.088-.088l-.088-.088c0-.265.088-.442.176-.706.088-.265.177-.353.353-.53.177-.176.353-.264.618-.353.265-.088.53-.176.882-.176.441 0 .794.088 1.059.176.265.177.53.353.706.53.176.265.265.53.265.882 0 .265-.089.441-.177.706-.176.265-.265.441-.441.618-.265.264-.441.44-.706.617l-.706.706H8.03c.089 0 .089 0 .177.088 0 0 .088.089.088.177v.794c0 .088 0 .088-.088.177 0 0-.088.088-.177.088H4.147v-.177z"/>
</svg>
