<svg xmlns="http://www.w3.org/2000/svg" width="38" height="40" fill="none" viewBox="0 0 38 40">
    <path fill="#fff" d="M28.87 31.608l-4.01-3.976c-1.404-1.391-3.91-.894-4.511.994-.401 1.292-1.905 1.988-3.208 1.69-2.907-.696-6.816-4.473-7.518-7.455-.4-1.292.401-2.684 1.704-3.18 1.905-.597 2.406-2.982 1.003-4.473l-4.01-3.976c-1.203-.994-2.907-.994-3.91 0l-2.706 2.684c-2.706 2.981.301 10.536 7.117 17.294 6.816 6.76 14.435 9.84 17.342 7.058l2.706-2.684c1.003-1.292 1.003-2.982 0-3.976z"/>
    <path fill="#333" d="M29.37 31.111l-2.305-2.286c-.702-.696-1.504-1.69-2.406-2.286-1.403-.895-3.308-.596-4.41.596-.702.795-.702 1.889-1.805 2.287-1.103.397-2.205-.2-3.107-.796-1.905-1.193-3.71-2.982-4.611-5.069-.602-1.292-.502-2.485.902-3.18.802-.398 1.503-.696 2.005-1.591 1.503-2.783-1.303-4.771-3.108-6.56-.802-.795-1.604-1.79-2.706-2.286-1.504-.597-3.008-.1-4.11.994C1.905 12.822 0 14.214 0 16.997c0 3.976 2.606 7.952 4.912 10.933 3.107 3.976 7.117 7.654 11.628 10.04 2.806 1.49 7.217 3.28 10.024.795 2.205-1.889 5.412-4.771 2.806-7.654-.601-.696-1.704.298-1.103 1.094 1.304 1.49-.1 2.882-1.102 3.876-.601.596-1.303 1.491-2.105 1.988-2.606 1.59-6.716-.696-8.921-1.988-4.11-2.485-7.82-5.964-10.726-9.84-1.905-2.684-4.21-6.262-3.91-9.642.201-1.888 2.106-3.479 3.509-4.671 2.205-1.889 4.711 1.789 6.115 3.18.801.795 1.804 1.69 1.202 2.883-.4.894-1.303.994-2.004 1.49-.702.498-1.203 1.094-1.404 1.89-.4 1.59.502 3.28 1.404 4.572 1.102 1.49 2.405 2.783 3.909 3.876 1.403.895 3.208 1.79 4.912 1.093.902-.397 1.403-.994 1.804-1.888.501-.994 1.403-1.79 2.606-1.292.902.397 1.805 1.49 2.406 2.186l2.305 2.287c.803.596 1.805-.398 1.103-1.094z"/>
    <path fill="#DF357F" d="M26.864.795c-5.813 0-10.525 4.672-10.525 10.437 0 2.584 1.003 4.97 2.506 6.858l-.802 3.081 3.609-.994c1.604.895 3.408 1.392 5.313 1.392 5.814 0 10.525-4.672 10.525-10.437S32.678.795 26.864.795z"/>
    <path fill="#333" d="M26.864 0c-4.11.1-8.019 2.286-10.024 5.964-2.205 4.075-1.503 9.045 1.404 12.623-.1-.199-.1-.497-.2-.696-.302 1.094-.602 2.088-.903 3.181-.1.597.401 1.094.902.895 1.203-.298 2.406-.597 3.609-.994-.2 0-.401-.1-.602-.1 5.012 2.783 11.428 1.491 14.836-3.18 3.207-4.374 2.706-10.536-1.103-14.413C32.778 1.193 29.871 0 26.864 0c-1.002 0-1.002 1.491 0 1.491 6.015.1 10.726 5.467 9.623 11.43-1.102 6.163-7.919 9.84-13.632 7.157-.502-.199-.902-.596-1.504-.497-.3.1-.702.199-1.002.298-.802.2-1.604.398-2.506.696l.902.895c.2-.597.3-1.193.501-1.79.1-.496.401-1.093.401-1.59 0-.596-.601-.994-.902-1.391-.401-.597-.802-1.293-1.003-2.088-.5-1.391-.701-2.783-.6-4.174.4-4.97 4.81-8.747 9.722-8.847 1.003-.1 1.003-1.59 0-1.59z"/>
    <path fill="#fff" d="M25.36 12.623c-.1 0-.1 0-.2-.099-.1-.1-.1-.1-.1-.199v-.1-.098c.1-.299.2-.498.4-.796.201-.198.402-.497.602-.695.2-.2.401-.398.602-.597l.5-.497c.101-.199.201-.298.201-.397 0-.1 0-.2-.1-.2s-.1-.099-.2-.198c-.1 0-.2-.1-.301-.1-.3 0-.501.1-.602.2-.1.099-.2.198-.3.397 0 .1-.1.199-.2.298-.101.1-.201.1-.402.1h-2.706c-.1 0-.2 0-.3-.1-.101-.1-.101-.199-.101-.298 0-.398.1-.696.3-1.093.201-.398.502-.696.903-1.094.4-.397.902-.596 1.503-.795.802-.199 1.504-.298 2.306-.298s1.503.1 2.105.298c.501.199 1.002.398 1.203.696.3.298.5.596.601.894.1.299.2.597.2.796 0 .298 0 .596-.1.894-.1.298-.2.497-.4.696-.201.199-.301.398-.502.596-.2.2-.4.398-.501.597-.2.199-.3.397-.501.497l-.1.1s-.1.098-.1.198c-.1.1-.201.298-.201.298-.1.1-.2.1-.3.1H25.36zm.201 3.678c-.1 0-.2 0-.3-.1-.101-.099-.101-.198-.101-.298v-2.286c0-.099 0-.198.1-.298.1-.1.2-.1.301-.1h2.706c.1 0 .2 0 .301.1.1.1.1.199.1.298v2.286c0 .1 0 .2-.1.299-.1.1-.2.1-.3.1H25.56z"/>
</svg>
