<svg width="158" height="80" fill="none" xmlns="http://www.w3.org/2000/svg" viewBox="0 0 158 80">
    <path d="M72.092 78.51a7.402 7.402 0 1 0 0-14.802 7.402 7.402 0 1 0 0 14.802z" fill="#fff"/>
    <path d="M80.696 71.11c0-3.6-2.201-6.801-5.602-8.001-3.302-1.3-7.303-.2-9.504 2.5-2.301 2.8-2.601 6.701-.8 9.901 1.8 3.1 5.502 4.701 9.003 4.001 4.002-.8 6.803-4.4 6.903-8.401 0-1.4-2.201-1.4-2.201 0 0 2.6-1.6 5-4.102 5.9-2.5.9-5.402.1-7.102-2-1.601-2-1.801-5-.5-7.2 1.3-2.2 4-3.501 6.502-3.001 3.001.6 5.102 3.2 5.202 6.2 0 1.501 2.2 1.501 2.2.1z" fill="#333"/>
    <path d="M95.201 78.81h54.021c4.202 0 7.603-3.4 7.603-7.6 0-4.201-3.401-7.602-7.603-7.602h-54.02a7.599 7.599 0 0 0-7.604 7.601c.1 4.201 3.401 7.602 7.603 7.602z" fill="#fff"/>
    <path d="M95.201 79.91h26.511c9.103 0 18.307.2 27.51 0 3.902-.1 7.503-2.7 8.504-6.5 1.1-4.2-1.201-8.601-5.202-10.201-2.901-1.2-6.703-.6-9.704-.6H95.602c-2.901 0-5.603 1.2-7.403 3.6-2.501 3.5-2.001 8.501 1.1 11.402 1.6 1.5 3.702 2.2 5.902 2.3 1.401 0 1.401-2.2 0-2.2-4.401-.1-7.702-4.601-6.002-8.802 1-2.6 3.602-4.1 6.303-4.1h53.62c3.402 0 6.303 2.5 6.603 5.9.3 3.801-2.701 6.902-6.503 7.002-8.403.2-16.806 0-25.209 0H95.302c-1.501-.1-1.501 2.2-.1 2.2z" fill="#333"/>
    <path d="M111.407 1.1H21.672a6.702 6.702 0 1 0 0 13.402h6.302c3.902.5 6.803 3.2 6.803 6.6 0 3.701-3.601 6.702-8.003 6.702H7.967a6.702 6.702 0 1 0 0 13.402h79.23a6.702 6.702 0 1 0 0-13.402h-1.4c-4.402 0-8.003-3-8.003-6.701 0-3.3 3.001-6.101 6.803-6.601h26.71c3.701 0 6.703-3 6.703-6.701 0-3.7-3.002-6.7-6.603-6.7z" fill="#fff"/>
    <path d="M111.407 0H22.273c-2.001 0-3.802.4-5.402 1.7-3.802 3-4.002 8.901-.3 12.102 2.8 2.3 6.402 1.8 9.703 1.8 1.7 0 3.201.2 4.702 1.1 1.9 1.2 3.101 3.6 2.301 5.801-1.2 3.4-4.902 4-8.003 4H8.167c-3.801 0-7.203 2.3-8.003 6.101-1 4.901 2.701 9.302 7.603 9.402H62.088c8.303 0 16.607.2 24.91 0 4.001-.1 7.403-3 7.803-7.101.4-4.7-3.401-8.401-8.003-8.501-2.201 0-4.302-.2-6.103-1.7-1.7-1.5-2.4-3.901-1.3-6.001 1.4-2.6 4.202-3.3 6.903-3.3h24.709c3.902 0 7.303-2.701 7.903-6.602.801-4.6-2.901-8.701-7.503-8.801-1.4 0-1.4 2.2 0 2.2 5.202.1 7.603 7.001 3.202 10.102-1.701 1.2-3.802 1-5.703 1H90.299c-1.8 0-3.601-.1-5.402 0-3.901.2-7.803 3.3-8.003 7.4-.3 5.001 4.702 8.002 9.103 8.102 1.901 0 3.602.1 5.002 1.4 1.701 1.5 2.301 4 1.501 6.101-1.5 4-5.602 3.5-9.004 3.5H14.07c-2.201 0-4.702.3-6.903-.1-5.202-.7-6.403-7.8-1.8-10.301 1.9-1 4.5-.6 6.502-.6h9.803c2.001 0 4.102.1 6.003 0 4.402-.4 8.803-3.9 8.103-8.701-.6-4-4.602-6.801-8.503-6.801h-4.602c-1.6 0-3.201-.1-4.502-1.2-4.101-3.2-1.6-9.802 3.401-9.902 6.803-.2 13.706 0 20.508 0h69.227c1.501.1 1.501-2.2.1-2.2z" fill="#333"/>
    <path d="M132.615 14.502a6.702 6.702 0 1 0-6.702-6.701c0 3.7 3 6.7 6.702 6.7z" fill="#fff"/>
    <path d="M127.113 7.8c0-2.3 1.401-4.4 3.602-5.2 2.201-.8 4.702-.1 6.202 1.7 1.401 1.8 1.601 4.301.4 6.301-1.2 1.9-3.501 3-5.702 2.6-2.601-.5-4.502-2.8-4.502-5.4 0-1.4-2.301-1.5-2.2 0 0 3.3 2 6.1 5.102 7.3 3.001 1.101 6.602.2 8.603-2.3 2.101-2.5 2.401-6.1.7-9C137.617 1 134.316-.4 131.115.1c-3.601.7-6.202 4-6.303 7.6 0 1.501 2.301 1.501 2.301.1z" fill="#333"/>
</svg>
