<svg width="125" height="86" fill="none" xmlns="http://www.w3.org/2000/svg">
    <path d="M61.211 24v-1.912h-1.92v-.903h1.92v-1.912h.907v1.912h1.92v.903h-1.92v1.911h-.907zM52.41 24v-1.912h-1.92v-.903h1.92v-1.912h.907v1.912h1.92v.903h-1.92v1.911h-.907zM43.555 24v-1.912h-1.92v-.903h1.92v-1.911h.907v1.911h1.92v.903h-1.92V24h-.907zM61.211 13.964v-1.911h-1.92v-.903h1.92V9.24h.907v1.911h1.92v.903h-1.92v1.911h-.907zM52.41 13.964v-1.911h-1.92v-.903h1.92V9.24h.907v1.911h1.92v.903h-1.92v1.911h-.907zM43.555 13.965v-1.912h-1.92v-.902h1.92V9.239h.907v1.912h1.92v.902h-1.92v1.912h-.907zM61.213 4.726V2.814h-1.92v-.903h1.92V0h.907v1.911h1.92v.903h-1.92v1.912h-.907zM52.41 4.726V2.814h-1.92v-.903h1.92V0h.908v1.911h1.92v.903h-1.92v1.912h-.907zM43.556 4.726V2.814h-1.92v-.903h1.92V0h.907v1.911h1.92v.903h-1.92v1.912h-.907zM35.768 24v-1.912h-1.92v-.903h1.92v-1.912h.907v1.912h1.92v.903h-1.92v1.911h-.907zM26.913 24v-1.912h-1.92v-.903h1.92v-1.912h.906v1.912h1.92v.903h-1.92v1.911h-.906zM18.058 24v-1.912h-1.92v-.903h1.92v-1.911h.907v1.911h1.92v.903h-1.92V24h-.907zM35.768 13.964v-1.911h-1.92v-.903h1.92V9.24h.907v1.911h1.92v.903h-1.92v1.911h-.907zM26.913 13.964v-1.911h-1.92v-.903h1.92V9.24h.906v1.911h1.92v.903h-1.92v1.911h-.906zM18.058 13.965v-1.912h-1.92v-.902h1.92V9.239h.907v1.912h1.92v.902h-1.92v1.912h-.907zM35.768 4.726V2.814h-1.92v-.903h1.92V0h.907v1.911h1.92v.903h-1.92v1.912h-.907zM26.913 4.726V2.814h-1.92v-.903h1.92V0h.906v1.911h1.92v.903h-1.92v1.912h-.906zM18.056 4.726V2.814h-1.92v-.903h1.92V0h.907v1.911h1.92v.903h-1.92v1.912h-.907zM82.018 4.779c1.325 0 2.4-1.07 2.4-2.39S83.343 0 82.018 0c-1.326 0-2.4 1.07-2.4 2.39 0 1.319 1.074 2.389 2.4 2.389zM82.018 14.39c1.325 0 2.4-1.07 2.4-2.39s-1.075-2.39-2.4-2.39c-1.326 0-2.4 1.07-2.4 2.39s1.074 2.39 2.4 2.39zM82.018 24c1.325 0 2.4-1.07 2.4-2.39s-1.075-2.389-2.4-2.389c-1.326 0-2.4 1.07-2.4 2.39S80.691 24 82.017 24zM91.886 4.779c1.326 0 2.4-1.07 2.4-2.39S93.212 0 91.886 0c-1.326 0-2.4 1.07-2.4 2.39 0 1.319 1.074 2.389 2.4 2.389zM91.886 14.39c1.326 0 2.4-1.07 2.4-2.39s-1.074-2.39-2.4-2.39c-1.326 0-2.4 1.07-2.4 2.39s1.074 2.39 2.4 2.39zM91.886 24c1.326 0 2.4-1.07 2.4-2.39s-1.074-2.389-2.4-2.389c-1.326 0-2.4 1.07-2.4 2.39S90.56 24 91.885 24zM101.755 4.779c1.326 0 2.4-1.07 2.4-2.39S103.081 0 101.755 0c-1.326 0-2.4 1.07-2.4 2.39 0 1.319 1.074 2.389 2.4 2.389zM101.755 14.39c1.326 0 2.4-1.07 2.4-2.39s-1.074-2.39-2.4-2.39c-1.326 0-2.4 1.07-2.4 2.39s1.074 2.39 2.4 2.39zM101.755 24c1.326 0 2.4-1.07 2.4-2.39s-1.074-2.389-2.4-2.389c-1.326 0-2.4 1.07-2.4 2.39s1.074 2.389 2.4 2.389zM111.57 4.779a2.395 2.395 0 0 0 2.401-2.39c0-1.32-1.075-2.389-2.401-2.389-1.325 0-2.4 1.07-2.4 2.39 0 1.319 1.075 2.389 2.4 2.389zM111.57 14.39a2.395 2.395 0 0 0 2.401-2.39c0-1.32-1.075-2.39-2.401-2.39-1.325 0-2.4 1.07-2.4 2.39s1.075 2.39 2.4 2.39zM111.57 24a2.395 2.395 0 0 0 2.401-2.39c0-1.32-1.075-2.389-2.401-2.389-1.325 0-2.4 1.07-2.4 2.39S110.245 24 111.57 24zM72.148 4.779c1.326 0 2.401-1.07 2.401-2.39S73.474 0 72.149 0c-1.326 0-2.401 1.07-2.401 2.39 0 1.319 1.075 2.389 2.4 2.389zM72.148 14.39c1.326 0 2.401-1.07 2.401-2.39s-1.075-2.39-2.4-2.39c-1.326 0-2.401 1.07-2.401 2.39s1.075 2.39 2.4 2.39zM72.148 24c1.326 0 2.401-1.07 2.401-2.39s-1.075-2.389-2.4-2.389c-1.326 0-2.401 1.07-2.401 2.39S70.823 24 72.148 24z" fill="#F6F2EF"/>
    <path d="M93.864 78.174a3.279 3.279 0 0 1-3.305-3.31v-.057a3.279 3.279 0 0 1 3.305-3.31h23.582a.862.862 0 0 0 .841-.843.862.862 0 0 0-.841-.841h-24.03a5.025 5.025 0 0 0-5.042 5.05c0 2.806 2.24 5.051 5.041 5.051h24.031a.862.862 0 0 0 .841-.842.862.862 0 0 0-.841-.841H93.864v-.057z" fill="#DF357F" stroke="#333" stroke-miterlimit="10"/>
    <path d="M117.278 78.175H93.751a3.194 3.194 0 0 1-3.192-3.199v-.28c0-1.74 1.4-3.2 3.192-3.2h23.527v6.679z" fill="#fff" stroke="#333" stroke-miterlimit="10"/>
    <path d="M94.088 73.628h8.794" stroke="#333" stroke-width="2" stroke-miterlimit="10"/>
    <path d="M101.985 75.817h11.764" stroke="#333" stroke-miterlimit="10"/>
    <path d="M118.51 61.17a3.278 3.278 0 0 1 3.305 3.311v.057a3.278 3.278 0 0 1-3.305 3.31H94.927a.862.862 0 0 0-.84.843c0 .448.392.841.84.841h24.031a5.025 5.025 0 0 0 5.042-5.05 5.025 5.025 0 0 0-5.042-5.051h-24.03a.862.862 0 0 0-.841.842c0 .448.392.841.84.841h23.583v.056z" fill="#F0D227" stroke="#333" stroke-miterlimit="10"/>
    <path d="M95.096 61.17h23.527a3.194 3.194 0 0 1 3.192 3.2v.28c0 1.74-1.4 3.199-3.192 3.199H95.096V61.17z" fill="#fff" stroke="#333" stroke-miterlimit="10"/>
    <path d="M118.341 65.716h-8.794M110.443 63.584H98.624" stroke="#333" stroke-miterlimit="10"/>
    <path d="M25.972 55.109a2.635 2.635 0 0 0 2.632-2.638 2.635 2.635 0 0 0-2.632-2.637 2.635 2.635 0 0 0-2.633 2.637 2.635 2.635 0 0 0 2.633 2.638z" fill="#fff"/>
    <path d="M29.277 52.472c0-1.403-.84-2.582-2.129-3.087-1.232-.449-2.744-.056-3.585.954-.84 1.067-1.008 2.582-.336 3.76.729 1.179 2.073 1.796 3.417 1.516 1.513-.225 2.577-1.628 2.633-3.143 0-.786-1.232-.786-1.232 0 0 .842-.505 1.627-1.289 1.852-.84.28-1.736.056-2.296-.617-.505-.618-.56-1.572-.112-2.245.392-.674 1.288-1.123 2.072-.954 1.008.168 1.625 1.01 1.68 1.964-.111.786 1.177.842 1.177 0z" fill="#333"/>
    <path d="M34.15 55.221H53.25a2.692 2.692 0 0 0 2.689-2.693 2.692 2.692 0 0 0-2.689-2.694H34.15a2.692 2.692 0 0 0-2.69 2.694c0 1.459 1.233 2.694 2.69 2.694z" fill="#fff"/>
    <path d="M34.15 55.839h16.189c1.008 0 2.072.056 3.08 0 1.569-.112 2.913-1.347 3.081-2.919.168-1.515-.728-2.918-2.128-3.479-1.065-.393-2.409-.224-3.53-.224H37.736c-1.176 0-2.353-.057-3.585 0-2.969.056-4.537 3.816-2.185 5.836.672.505 1.4.73 2.185.786.784.056.784-1.235 0-1.235-1.569-.056-2.577-1.74-1.737-3.143.449-.673 1.12-.954 1.905-.954H50.17c1.009 0 2.017-.056 3.025 0 1.12.056 2.073.842 2.073 2.077 0 1.178-.952 2.02-2.073 2.076-3.025.112-6.105 0-9.13 0H34.15c-.784-.112-.784 1.179 0 1.179z" fill="#333"/>
    <path d="M39.864 27.666H8.159a2.37 2.37 0 0 0-2.353 2.358 2.37 2.37 0 0 0 2.353 2.357h2.24c1.345.168 2.41 1.122 2.41 2.357 0 1.29-1.29 2.357-2.802 2.357H3.285a2.37 2.37 0 0 0-2.352 2.357 2.37 2.37 0 0 0 2.352 2.357h28.008a2.37 2.37 0 0 0 2.353-2.357 2.37 2.37 0 0 0-2.353-2.357h-.504c-1.568 0-2.8-1.067-2.8-2.357 0-1.179 1.064-2.189 2.408-2.357h9.41a2.37 2.37 0 0 0 2.354-2.357c.056-1.291-1.009-2.358-2.297-2.358z" fill="#fff"/>
    <path d="M39.864 27.05H17.513c-3.08 0-6.161-.057-9.242 0-.84 0-1.68.28-2.24.897-1.233 1.235-1.121 3.311.223 4.434 1.008.842 2.297.673 3.473.673.56 0 1.064 0 1.625.337.728.449 1.064 1.347.616 2.076-.616 1.01-1.793.954-2.801.954H3.341C1.773 36.478.43 37.6.372 39.227c-.112 1.74 1.289 3.143 2.97 3.2H22.778c2.857 0 5.714.111 8.57 0 1.625-.057 2.913-1.291 2.97-2.919.055-1.74-1.345-3.03-3.026-3.087-.728 0-1.4-.056-2.016-.505-.672-.505-.84-1.403-.336-2.132.616-.786 1.456-.786 2.296-.786h8.571c1.624-.056 2.913-1.234 2.969-2.918.112-1.628-1.289-2.974-2.913-3.03-.784-.057-.784 1.234 0 1.234 1.96.056 2.353 2.918.392 3.423-.56.113-1.176.056-1.736.056h-6.61c-.505 0-1.009-.056-1.513 0-1.512.113-3.025 1.347-3.025 2.975 0 1.627 1.513 2.806 3.025 2.974.616.056 1.233-.056 1.849.28.728.45 1.008 1.46.616 2.246-.56 1.178-1.96.954-3.025.954H5.47c-.784 0-1.568.056-2.353 0-1.96-.225-1.96-3.2 0-3.424.672-.056 1.4 0 2.073 0h3.473c.728 0 1.512.056 2.24-.112 1.513-.337 2.801-1.684 2.521-3.311-.224-1.46-1.68-2.47-3.08-2.525-.953-.113-2.185.224-3.025-.281-1.569-.842-.84-3.143.84-3.199 2.464-.112 4.93 0 7.394 0H39.92c.784 0 .784-1.29-.056-1.29z" fill="#333"/>
    <path d="M47.371 32.38c1.3 0 2.353-1.055 2.353-2.357a2.355 2.355 0 0 0-2.353-2.357 2.355 2.355 0 0 0-2.352 2.357 2.355 2.355 0 0 0 2.352 2.357z" fill="#fff"/>
    <path d="M45.69 30.023c0-.392.112-.673.336-1.066.112-.168-.056.056.056-.056l.112-.112.112-.113s.169-.112.056-.056c.056-.056.169-.112.28-.168.057 0 .057-.056.113-.056.056-.056.056-.056 0 0 .056 0 .056 0 .112-.056.112-.056.224-.056.28-.113h.56c.112 0-.112-.056.056 0 .056 0 .112 0 .168.057.056 0 .112.056.168.056 0 0 .112.056 0 0 .112.056.168.112.28.168a.12.12 0 0 1 .112.112c.056.113-.112 0 0 .113l.28.28c-.056-.056 0 0 0 0 .056.056.056.112.112.168 0 .057.056.057.056.113 0 0 .112.168.056.056 0 .112.056.168.056.28v.113c0 .056 0 .056 0 0v.617a.429.429 0 0 1-.112.28c-.056.169.056-.112-.056.057-.056.056-.056.112-.112.168 0 .056-.056.112-.056.112l-.056.056c-.056.057-.112.169-.224.225 0 0-.168.112-.056.056.056-.056-.112.056-.112.056l-.336.169s.112-.057 0 0c-.056 0-.112.056-.168.056-.056 0-.056 0-.112.056 0 0-.168.056-.112 0h-.56c-.112-.056-.224-.056-.337-.112-.168-.057.057.056-.056 0-.055-.057-.111-.057-.167-.113-.056 0-.056-.056-.113-.056-.056 0-.056-.056-.112-.056.056.056.056.056 0 0l-.224-.224c-.112-.113.056.112-.056-.056-.056-.057-.056-.113-.112-.169-.056-.056-.056-.112-.112-.168-.056-.113 0 .056-.056-.056-.056-.113-.056-.225-.112-.337 0 0 0-.112 0 0 .168-.056.168-.168.168-.28 0-.786-1.288-.843-1.232 0 0 1.29.784 2.356 1.96 2.805 1.12.45 2.521.056 3.305-.898.785-.954.953-2.357.28-3.479-.672-1.066-1.904-1.628-3.136-1.403-1.4.224-2.353 1.515-2.41 2.918-.055.898 1.177.898 1.233.056z" fill="#333"/>
    <path d="M103.443 35.748H39.36v5.668h64.083v-5.668z" fill="#DF357F"/>
    <path d="M103.442 40.799H41.936c-.784 0-1.736-.169-2.52 0h-.112l.616.617v-5.668l-.616.617H100.81c.784 0 1.736.168 2.52 0h.112l-.616-.617v5.668c0 .786 1.232.842 1.232 0v-5.668a.622.622 0 0 0-.616-.618H41.936c-.84 0-1.68-.056-2.52 0h-.112a.622.622 0 0 0-.617.618v5.668c0 .337.28.617.617.617H100.81c.84 0 1.68.056 2.52 0h.112c.841.056.841-1.234 0-1.234z" fill="#333"/>
    <path d="M103.443 41.472H39.36v43.942h64.083V41.472z" fill="#fff"/>
    <path d="M103.442 40.798H41.936c-.84 0-1.68-.056-2.52 0h-.112a.622.622 0 0 0-.617.618v43.942c0 .337.28.617.617.617H100.81c.84 0 1.68.056 2.52 0h.112c.336 0 .616-.28.616-.617V41.416c0-.786-1.232-.842-1.232 0v43.942l.616-.618H41.936c-.784 0-1.736-.168-2.52 0h-.112l.616.618V41.416l-.616.617H100.81c.84 0 1.68.056 2.52 0h.112c.841.056.841-1.235 0-1.235z" fill="#333"/>
    <path d="M68.767 74.358H47.201V54.1l10.811-4.49 10.755 4.49v20.26z" fill="#fff"/>
    <path d="M68.768 73.685H47.2l.617.617V54.099c-.168.224-.337.393-.448.617 3.136-1.29 6.273-2.638 9.466-3.928l.84-.337c.056-.056.449-.112.505-.225-.056.113-.448-.112-.168.056.224.113.448.169.672.281 1.848.786 3.697 1.515 5.545 2.301 1.457.617 2.97 1.235 4.426 1.852-.168-.224-.337-.393-.449-.617v20.203c0 .786 1.233.842 1.233 0V54.099c0-.281-.224-.505-.448-.618-3.193-1.347-6.386-2.637-9.58-3.984-.391-.169-.783-.393-1.175-.505-.393-.056-.785.168-1.12.336-1.85.786-3.642 1.516-5.49 2.301-1.513.618-3.025 1.235-4.482 1.852-.28.113-.448.28-.448.618v20.203c0 .337.28.617.616.617H68.88c.672.056.672-1.234-.112-1.234z" fill="#333"/>
    <path d="m58.013 48.094-12.995 5.78v2.863l12.995-5.78 12.884 5.78v-2.862l-12.884-5.78z" fill="#DF357F"/>
    <path d="M57.677 47.589c-3.81 1.683-7.563 3.367-11.372 5.05-.56.225-1.064.506-1.624.73a.618.618 0 0 0-.336.561v2.863c0 .505.504.73.952.56 3.81-1.683 7.562-3.367 11.371-5.05.56-.224 1.065-.505 1.625-.73h-.616c3.753 1.684 7.562 3.368 11.315 5.051.56.225 1.064.505 1.624.73.448.168.953 0 .953-.561V53.93a.617.617 0 0 0-.337-.56c-3.753-1.684-7.562-3.368-11.315-5.052-.56-.224-1.064-.505-1.624-.73-.728-.336-1.4.786-.616 1.067 3.753 1.684 7.562 3.367 11.315 5.05.56.225 1.064.506 1.624.73-.112-.168-.224-.336-.336-.56v2.861c.336-.168.616-.336.953-.56-3.81-1.684-7.619-3.424-11.428-5.108-.504-.224-.952-.449-1.456-.673-.504-.169-1.064.168-1.513.393-2.184 1.01-4.425 1.964-6.61 2.974-1.848.786-3.64 1.628-5.49 2.413.337.169.617.337.953.561v-2.862c-.112.169-.224.337-.336.561 3.81-1.683 7.562-3.367 11.371-5.05.56-.225 1.065-.505 1.625-.73.728-.337.056-1.403-.672-1.066z" fill="#333"/>
    <path d="M52.411 61.732a1.906 1.906 0 0 0 1.905-1.908 1.906 1.906 0 0 0-1.905-1.908 1.906 1.906 0 0 0-1.904 1.908c0 1.053.852 1.908 1.904 1.908z" fill="#F0D227"/>
    <path d="M53.644 59.823v.169c0 .112 0 0 0 0 0 .112-.056.168-.056.224 0 .056-.056.112-.056.169 0 0 .056-.113 0 0-.056.112-.112.168-.168.28-.056.112.056-.056 0 0-.056 0-.056.056-.056.112-.056.056-.225.169-.113.113-.056.056-.112.112-.224.112-.056 0-.056.056-.112.056-.112.056.112 0-.056 0-.056 0-.168.056-.224.056-.056 0-.168 0 0 0h-.392c-.112 0 .168.056 0 0-.056 0-.112 0-.168-.056-.056 0-.112-.056-.168-.056-.056 0-.112-.056 0 0-.056-.056-.168-.056-.224-.112-.056 0-.056-.056-.112-.056-.056-.057.112.112 0 0-.056-.057-.112-.169-.224-.225.056.112 0 .056 0 0s-.056-.056-.056-.112-.112-.28-.056-.112c-.056-.057-.056-.169-.056-.225v-.112c-.056-.113 0 .112 0-.056v-.225c0-.056.056-.168 0-.056V59.6c0-.056.056-.168.056-.225.056-.168-.056.113 0-.056 0-.056.056-.112.056-.112 0-.056.056-.056.056-.112s.112-.113 0 0l.168-.169.056-.056.056-.056c.056-.056.168-.112.28-.168 0 0-.112.056 0 0 .056 0 .112-.056.168-.056h.112s.168-.056.056 0h.336c.112 0 .224.056.28.056.168.056-.056-.056 0 0s.112.056.168.056c.056 0 .056.056.112.056l.056.056c-.056-.056-.056-.056 0 0l.168.168c.112.113-.056-.112 0 .057 0 .056.056.056.056.112s.056.112.056.112c.056.112 0-.112 0 .056a.507.507 0 0 1 .056.28c0 .057 0 .113 0 0 .169.113.169.17.169.225 0 .337.28.674.616.618.336 0 .616-.281.616-.618 0-1.066-.672-2.02-1.68-2.413-.953-.337-2.13-.056-2.801.73-.673.841-.84 2.02-.28 2.918a2.481 2.481 0 0 0 2.688 1.178c1.177-.224 2.017-1.29 2.017-2.469 0-.337-.28-.673-.616-.617-.224.056-.504.337-.56.673z" fill="#333"/>
    <path d="M58.406 61.732a1.906 1.906 0 0 0 1.904-1.908 1.906 1.906 0 0 0-1.904-1.908 1.906 1.906 0 0 0-1.905 1.908c0 1.053.853 1.908 1.905 1.908z" fill="#F0D227"/>
    <path d="M59.693 59.823v.169c0 .112 0 0 0 0 0 .112-.056.168-.056.224 0 .056-.056.112-.056.169 0 0 .056-.113 0 0-.056.112-.112.168-.168.28-.056.112.056-.056 0 0-.056 0-.056.056-.056.112-.056.056-.224.169-.112.113-.056.056-.112.112-.224.112-.056 0-.056.056-.112.056-.112.056.112 0-.056 0-.056 0-.168.056-.224.056-.056 0-.168 0 0 0h-.392c-.112 0 .168.056 0 0-.056 0-.112 0-.168-.056-.056 0-.112-.056-.168-.056-.056 0-.112-.056 0 0-.056-.056-.168-.056-.224-.112-.056 0-.056-.056-.112-.056-.056-.057.112.112 0 0-.056-.057-.112-.169-.224-.225.056.112 0 .056 0 0s-.056-.056-.056-.112-.112-.28-.056-.112c-.056-.057-.056-.169-.056-.225v-.112c-.056-.113 0 .112 0-.056v-.225c0-.056.056-.168 0-.056V59.6c0-.056.056-.168.056-.225.056-.168-.056.113 0-.056 0-.056.056-.112.056-.112 0-.056.056-.056.056-.112s.112-.113 0 0l.168-.169.056-.056.056-.056c.056-.056.168-.112.28-.168 0 0-.112.056 0 0 .056 0 .112-.056.168-.056h.112s.168-.056.056 0h.336c.112 0 .224.056.28.056.168.056-.056-.056 0 0s.112.056.168.056c.056 0 .056.056.112.056l.056.056c-.056-.056-.056-.056 0 0l.168.168c.112.113-.056-.112 0 .057 0 .056.056.056.056.112s.056.112.056.112c.056.112 0-.112 0 .056.056.113.056.169.056.28 0 .057 0 .113 0 0 .112.113.168.17.168.225 0 .337.28.674.617.618.336 0 .616-.281.616-.618 0-1.066-.672-2.02-1.68-2.413-.953-.337-2.13-.056-2.802.73-.672.841-.84 2.02-.28 2.918a2.481 2.481 0 0 0 2.69 1.178c1.175-.224 2.016-1.29 2.016-2.469 0-.337-.28-.673-.616-.617-.28.056-.56.337-.56.673z" fill="#333"/>
    <path d="M64.4 61.732a1.906 1.906 0 0 0 1.904-1.908 1.906 1.906 0 0 0-1.904-1.908 1.906 1.906 0 0 0-1.905 1.908c0 1.053.853 1.908 1.905 1.908z" fill="#F0D227"/>
    <path d="M65.688 59.823v.169c0 .112 0 0 0 0 0 .112-.056.168-.056.224 0 .056-.056.112-.056.169 0 0 .056-.113 0 0-.056.112-.112.168-.169.28-.056.112.056-.056 0 0-.056 0-.056.056-.056.112-.056.056-.224.169-.112.113-.056.056-.112.112-.224.112-.056 0-.056.056-.112.056-.112.056.112 0-.056 0-.056 0-.168.056-.224.056-.056 0-.168 0 0 0h-.392c-.112 0 .168.056 0 0-.056 0-.112 0-.168-.056-.056 0-.112-.056-.168-.056-.056 0-.112-.056 0 0-.056-.056-.168-.056-.224-.112-.056 0-.056-.056-.112-.056-.056-.057.112.112 0 0-.056-.057-.112-.169-.224-.225.056.112 0 .056 0 0s-.056-.056-.056-.112-.112-.28-.056-.112c-.056-.057-.056-.169-.056-.225v-.112c-.056-.113 0 .112 0-.056v-.225c0-.056.056-.168 0-.056V59.6c0-.056.056-.168.056-.225.056-.168-.056.113 0-.056 0-.056.056-.112.056-.112 0-.056.056-.056.056-.112s.112-.113 0 0l.168-.169.056-.056.056-.056c.056-.056.168-.112.28-.168 0 0-.112.056 0 0 .056 0 .112-.056.168-.056h.112s.168-.056.056 0h.336c.112 0 .224.056.28.056.168.056-.056-.056 0 0s.112.056.168.056c.056 0 .056.056.112.056l.056.056c-.056-.056-.056-.056 0 0l.168.168c.112.113-.056-.112 0 .057 0 .056.056.056.056.112s.056.112.056.112c.056.112 0-.112 0 .056a.507.507 0 0 1 .056.28c0 .057 0 .113 0 0 .168.113.168.17.168.225 0 .337.28.674.617.618.336 0 .616-.281.616-.618 0-1.066-.672-2.02-1.68-2.413-.953-.337-2.13-.056-2.801.73-.673.841-.84 2.02-.28 2.918a2.482 2.482 0 0 0 2.688 1.178c1.177-.224 2.017-1.29 2.017-2.469 0-.337-.28-.673-.616-.617-.28.056-.56.337-.56.673z" fill="#333"/>
    <path d="M62.326 65.098h-8.682v9.091h8.682v-9.091z" fill="#fff"/>
    <path d="M62.326 73.572h-8.682l.616.618v-9.092l-.616.618h8.682l-.616-.618v9.092c0 .785 1.232.841 1.232 0v-9.092a.622.622 0 0 0-.616-.617h-8.682a.622.622 0 0 0-.617.617v9.092c0 .337.28.617.617.617h8.682c.784.056.784-1.235 0-1.235z" fill="#333"/>
    <path d="M60.59 70.486a.841.841 0 1 0-.002-1.682.841.841 0 0 0 .001 1.682z" fill="#333"/>
    <path d="M96.384 54.38H73.306v3.086h23.078v-3.087zM82.996 60.047h-9.69v3.087h9.69v-3.087zM96.384 60.047H84.341v3.087h12.043v-3.087zM96.384 65.66H73.306v3.086h23.078V65.66zM83.725 71.272h-10.42v3.086h10.42v-3.087z" fill="#F0D227"/>
    <path d="M50.9 39.508a.897.897 0 1 0-.003-1.794.897.897 0 0 0 .002 1.794zM44.065 39.508a.897.897 0 1 0-.002-1.795.897.897 0 0 0 .002 1.795zM47.426 39.508a.897.897 0 1 0-.002-1.794.897.897 0 0 0 .002 1.794zM21.827 72.282a3.3 3.3 0 0 1 .448-2.974c.225-.337.56-.673.56-1.122 0-.45-.28-.842-.447-1.235-.617-1.403.504-2.974 1.792-3.816.224-.168.504-.337.616-.617.056-.169 0-.337 0-.506-.112-.841.336-1.74.953-2.357.616-.617 3.248-.617 3.809 0 .616.618 1.008 1.516.952 2.357 0 .169-.056.337 0 .505.056.281.336.45.616.618 1.288.785 2.353 2.413 1.793 3.816-.168.393-.505.786-.448 1.235 0 .449.336.785.56 1.122.616.842.728 2.02.448 2.974-.224.618-.56 1.179-.504 1.852.056.786.84 1.516.616 2.301-.224.842-11.483.842-11.708 0-.224-.785.56-1.515.617-2.3-.112-.618-.505-1.235-.673-1.853z" fill="#fff"/>
    <path d="M22.443 72.114c-.168-.562-.168-1.067-.056-1.628.168-.617.616-1.01.896-1.571.224-.393.224-.898.112-1.291-.168-.505-.56-.954-.56-1.515 0-1.123.953-1.908 1.793-2.47.336-.224.672-.505.728-.954.112-.617-.056-1.122.224-1.74.392-.841.952-1.01 1.849-1.066.84 0 1.512 0 2.016.786.336.505.392.954.392 1.572 0 .505.112.897.504 1.234.785.73 1.793 1.179 2.017 2.357.224 1.066-.84 1.796-.504 2.918.168.45.504.842.728 1.235.28.561.392 1.179.28 1.796-.168 1.122-.896 1.964-.448 3.143.168.392.336.841.504 1.234.112.169-.224.337.112-.056l.056-.056h-.056c-2.24.449-4.537.449-6.778.393-1.176-.056-2.464-.056-3.64-.28-.113 0-.169-.057-.281-.057-.056 0-.056 0-.112-.056-.112 0 0 0 0 0h-.056c0-.056.224.28.168.28 0 0 .168-.673.168-.729.224-.449.448-.898.448-1.403.056-.786-.28-1.403-.504-2.076-.28-.786-1.512-.45-1.232.336.224.618.672 1.291.392 1.965-.168.505-.504.954-.56 1.459-.056.617.112 1.122.728 1.347 1.008.392 2.297.336 3.36.392 1.57.056 3.138.056 4.706 0 1.12-.056 2.353-.056 3.417-.392.504-.169.785-.505.785-1.067 0-.505-.225-1.01-.449-1.459-.336-.785-.112-1.29.168-2.02.448-1.123.336-2.47-.28-3.536-.168-.224-.392-.449-.504-.73-.168-.392 0-.617.168-1.01.28-.56.392-1.066.336-1.683-.112-1.122-.896-2.133-1.736-2.806-.168-.168-.448-.28-.616-.45-.225-.224-.112-.448-.112-.785 0-.56-.224-1.178-.505-1.627-.504-.898-1.176-1.291-2.184-1.403-.84-.113-1.849-.113-2.633.224-1.064.45-1.68 1.852-1.68 2.919 0 .449.112.505-.28.785-.225.169-.505.337-.729.561a4.635 4.635 0 0 0-1.176 1.572c-.28.56-.392 1.234-.28 1.852.112.617.728 1.347.504 1.908-.168.337-.448.617-.616.898a3.57 3.57 0 0 0-.336 1.01 3.726 3.726 0 0 0 .112 2.076c.224.786 1.456.45 1.232-.336z" fill="#333"/>
    <path d="M31.461 75.088c-.392-1.235-.224-2.638.56-3.704.28-.45.673-.842.729-1.403.056-.561-.392-1.067-.56-1.572-.729-1.74.616-3.704 2.184-4.714.28-.168.616-.393.728-.73.056-.224 0-.392 0-.617-.112-1.066.393-2.132 1.177-2.918.728-.786 1.456-1.347 2.408-1.908.953.561 1.625 1.122 2.41 1.908.727.786 1.288 1.852 1.175 2.918 0 .225-.056.393 0 .618.113.336.449.56.729.73 1.624 1.01 2.968 2.974 2.184 4.713-.224.505-.616 1.01-.56 1.572.056.505.448.954.728 1.403.728 1.066.953 2.469.56 3.704-.224.73-.728 1.459-.616 2.3.112 1.01 1.065 1.909.785 2.863-.28 1.01-14.285 1.01-14.565 0-.28-.954.673-1.852.785-2.863-.169-.785-.617-1.515-.84-2.3z" fill="#DF357F" stroke="#333" stroke-width="1.2" stroke-miterlimit="10"/>
    <path d="M34.766 74.639c1.288.561 2.409 1.403 3.417 2.413-.056-.168-.112-.28-.168-.449v6.903c0 .785 1.232.842 1.232 0v-5.893c0-.393.056-.785 0-1.122-.056-.393-.448-.674-.728-.898a6.453 6.453 0 0 0-.952-.786c-.672-.505-1.4-.898-2.129-1.234-.784-.393-1.4.73-.672 1.066z" fill="#333"/>
    <path d="M39.192 76.828c.224-1.796.336-3.648.224-5.5a.622.622 0 0 0-.616-.618c-.336 0-.672.281-.616.618.112 1.74.056 3.423-.168 5.163-.056.337.056.673.448.785.224.057.672-.112.728-.448zM29.053 80.7c-.168-4.602-.168-9.147-.28-13.75 0-.785-1.288-.841-1.232 0 .168 4.603.168 9.148.28 13.75 0 .842 1.288.842 1.232 0z" fill="#333"/>
    <path d="M28.493 70.823c-.504-.28-1.009-.618-1.569-.954-.56-.337-1.176-.505-1.792-.674-.336-.112-.672.113-.785.45-.056.336.113.673.449.785.336.112.672.168 1.008.337.056 0 .056 0 .112.056.112.056-.112-.056 0 0 .056 0 .112.056.168.056l.336.168c.504.28 1.008.618 1.513.898.28.169.728.056.84-.224.112-.337 0-.73-.28-.898z" fill="#333"/>
</svg>
