<svg xmlns="http://www.w3.org/2000/svg" width="563" height="148" fill="none" viewBox="0 0 563 148">
    <path fill="#fff" d="M439.534 76.799c-.757-2.725-1.59-5.448-2.347-8.172-.076-.227-.151-.454-.303-.606-.227-.151-.53-.151-.757-.075-6.661.983-13.322 2.043-19.907 3.329.984 2.346 3.331 3.934 5.829 4.615 2.497.681 5.071.53 7.644.454.606 2.27 1.969 4.313 3.861 5.751"/>
    <path fill="#333" d="M440.29 76.572c-.757-2.572-1.514-5.22-2.27-7.793-.303-.908-.682-1.665-1.741-1.665-1.287 0-2.725.379-4.012.606-5.45.832-10.976 1.74-16.35 2.8-.605.15-.681.756-.53 1.285 2.423 5.448 9.084 5.675 14.155 5.448-.303-.227-.53-.454-.833-.605.682 2.421 2.12 4.54 4.088 6.129.832.68 2.043-.53 1.211-1.21-1.741-1.438-2.952-3.254-3.633-5.373-.076-.378-.455-.605-.833-.605-4.542.227-10.597.227-12.716-4.616-.152.454-.303.832-.53 1.287 4.768-.909 9.537-1.74 14.381-2.498 1.136-.15 2.347-.378 3.482-.53.454-.075 1.438-.377 1.893-.302.302.076.151-.151.302.378l.227.681c.682 2.346 1.363 4.692 2.044 7.113.379.984 1.968.53 1.665-.53z"/>
    <path fill="#DF357F" d="M485.101 62.65c-7.797-1.968-33.381 23.304-33.381 27.92 0 2.572 2.12 5.296 4.39 7.717 2.12 2.194 5.45 2.573 8.024.908l10.9-3.405 1.135 1.665s-1.363 25.423 3.785 49.485h74.557s3.406-63.559-24.449-78.01c-27.855-14.453-44.81-5.6-44.81-5.6"/>
    <path fill="#333" d="M485.327 61.893c-1.665-.378-3.406.151-4.92.757-2.271.908-4.315 2.194-6.358 3.632-4.92 3.405-9.462 7.415-13.625 11.652-1.892 1.892-3.709 3.859-5.45 5.902-1.211 1.513-2.498 3.026-3.406 4.691-.303.53-.53 1.06-.681 1.665-.303 1.589.53 3.329 1.362 4.691 2.195 3.556 5.526 7.188 10.067 6.129 1.06-.227 1.968-.833 2.952-1.135 1.211-.378 2.498-.757 3.709-1.135 2.12-.681 4.163-1.287 6.283-1.967-.303-.152-.606-.227-.984-.379.303.454.605.833.832 1.287 0 .075.076.15.152.226.378.303-.53-.15 0-.302v.076c-.152.302-.076.983-.076 1.286-.076 2.27-.076 4.54-.076 6.81 0 8.247.455 16.419 1.287 24.591.606 5.675 1.514 11.349 2.649 16.873.076.378.455.605.833.605h71.454c.984 0 1.968.076 2.952 0h.151c.454 0 .833-.378.833-.832.227-4.313.151-8.702 0-13.014-.303-9.534-1.211-19.068-3.179-28.375-2.044-9.76-5.147-19.9-11.127-27.996-2.725-3.707-6.055-6.885-10.067-9.08-7.04-3.783-14.76-6.658-22.708-7.944-5.223-.832-10.597-.984-15.895-.151-2.423.378-5.072.907-7.267 2.042-.076.076-.227.076-.303.152-.984.53-.151 1.967.833 1.438.076-.076.227-.076.303-.152.075 0 .075-.075.151-.075.227-.076-.151.075.076 0 .151-.076.378-.152.53-.227 1.135-.455 2.346-.757 3.557-1.06 4.466-1.06 9.083-1.21 13.625-.832 7.418.605 14.684 2.875 21.421 5.902 2.801 1.286 5.525 2.572 8.023 4.464 1.741 1.286 3.255 2.875 4.693 4.464 6.358 7.415 9.689 17.252 11.884 26.634 2.195 9.307 3.179 18.841 3.633 28.374.152 3.405.227 6.81.227 10.215 0 1.665-.227 3.329-.151 4.994v.227l.833-.832H482.905c-.909 0-2.044-.152-2.952 0h-.152c.303.227.53.454.833.605-3.33-15.511-4.39-31.704-3.86-47.593 0-.53.075-1.06.075-1.513-.075-.757-.832-1.514-1.211-2.195-.227-.302-.605-.53-.984-.378-3.557 1.135-7.115 2.119-10.672 3.33-.227.075-.455.15-.682.302-.908.53-1.892.832-2.952.757-2.195-.076-3.557-1.362-4.92-2.951-1.362-1.59-2.952-3.632-3.027-5.827v-.075c0-.076.075-.227.075-.303.076-.303.076-.303.303-.68.757-1.514 1.817-2.876 2.876-4.162 1.514-1.892 3.18-3.708 4.845-5.448 3.936-4.01 8.099-7.87 12.64-11.199 2.12-1.589 4.315-3.026 6.737-4.237 1.438-.68 3.406-1.438 4.844-1.135 1.211.303 1.666-1.362.606-1.589z"/>
    <path fill="#fff" d="M527.942 66.887c6.056 1.59 10.219 6.81 13.852 11.88 6.661 9.382 12.792 19.218 16.501 30.114-1.741 0-3.103 1.513-4.466 2.573-3.103 2.497-7.342 3.102-11.202 4.237-5.45 1.664-10.673 4.691-16.426 4.388-.378 0-.832-.075-1.059-.302-.379-.303-.454-.833-.454-1.287-.379-3.48-.455-7.036-.455-10.517 0-.378 0-.757.227-1.059.228-.303.606-.454.984-.606 6.283-1.891 9.311-2.724 15.366-5.145-.984-3.48-11.354-29.963-14.154-34.654M483.133 63.936c5.374 15.435 12.49 30.341 21.119 44.264 2.27-15.058 10.899-28.223 17.636-41.843.227-.53.53-1.135.303-1.665-.303-.68-1.287-.756-2.044-.908-1.665-.302-2.876-1.589-4.39-2.345-3.406-1.892-7.645-1.286-11.581-.605-6.661 1.134-13.246 2.27-19.907 3.404"/>
    <path fill="#333" d="M482.3 64.163c4.238 12.107 9.461 23.835 15.668 35.033 1.741 3.178 3.633 6.356 5.526 9.458.378.53 1.438.53 1.589-.227 1.741-11.652 7.267-22.094 12.717-32.384 1.362-2.573 2.724-5.07 4.011-7.643.53-1.059 1.514-2.42 1.287-3.707-.227-1.06-1.287-1.513-2.271-1.665-2.573-.454-4.39-2.572-6.888-3.253-2.649-.757-5.525-.454-8.25-.076-7.267 1.06-14.458 2.497-21.648 3.708-1.06.15-.606 1.816.454 1.664 6.131-1.06 12.262-2.118 18.469-3.178 2.725-.454 5.525-1.059 8.326-.832 1.211.076 2.422.303 3.482.832 1.211.53 2.195 1.438 3.33 2.043.454.303.984.53 1.514.681.454.152 1.06.076 1.438.303.682.378.076 1.135-.227 1.665-.378.68-.681 1.362-1.059 2.043-1.287 2.496-2.574 4.918-3.861 7.339-2.573 4.767-5.071 9.61-7.191 14.603-2.422 5.6-4.39 11.426-5.298 17.479l1.589-.227c-6.736-10.82-12.489-22.17-17.257-33.974-1.363-3.329-2.574-6.734-3.785-10.139-.379-1.059-2.044-.605-1.665.454z"/>
    <path fill="#333" d="M487.901 68.854c1.741 11.501 4.163 23.305 10.37 33.368 1.059 1.665 3.406 6.432 6.055 4.616.908-.605.076-2.119-.833-1.438-1.059.757-2.8-2.497-3.179-3.253-.908-1.438-1.741-2.876-2.497-4.389-1.514-3.026-2.801-6.129-3.785-9.382-2.119-6.507-3.331-13.242-4.315-19.976-.302-1.059-1.968-.605-1.816.454zM500.391 110.47c-.076 11.728.908 23.456 1.438 35.108.076 1.06 1.741 1.135 1.665 0-.53-11.652-1.514-23.38-1.438-35.108 0-1.135-1.665-1.135-1.665 0z"/>
    <path fill="#F0D227" d="M496.001 64.92c-.303 1.74-.455 3.48-.455 5.22 0 .228 0 .53.152.681.227.152.454.152.757.152 2.346-.303 4.768-.681 7.115-.984.227 0 .53-.076.681-.227.151-.227.151-.53.076-.757-.227-1.513-.53-3.102-.757-4.615 0-.151-.076-.303-.152-.454-.227-.227-.529-.151-.832-.076-1.741.379-3.406.833-5.147 1.211"/>
    <path fill="#333" d="M495.167 64.693c-.151.984-.302 2.043-.378 3.102-.076.53-.076.984-.076 1.513 0 .454-.075.984.076 1.438.151.454.454.832.908.984.53.151 1.06 0 1.59-.076 1.06-.151 2.119-.303 3.103-.454.984-.151 2.12-.303 3.104-.454.378-.076.757-.076 1.135-.303.454-.302.681-.832.606-1.362-.076-1.059-.303-2.043-.455-3.102-.075-.454-.151-.983-.227-1.437-.075-.53-.151-.984-.53-1.362-.454-.379-.984-.379-1.513-.303-.53.076-1.136.227-1.666.378-1.135.303-2.346.53-3.482.833-1.059.227-.605 1.891.455 1.664l4.768-1.135c.076 0 .454-.075.454-.075l-.227-.303.076.227c.076.378.151.832.227 1.21.152.833.227 1.59.379 2.422.075.302.075.756.151 1.06.076.075-.076.226.076 0 .151-.228.075-.077 0-.077-.227 0-.379.076-.606.076-.832.076-1.589.227-2.422.303-.833.075-1.59.227-2.422.302-.379.076-.833.076-1.211.152-.152 0-.379.075-.53.075h-.227c-.076.076.227.152.151.152.076 0 0-.379 0-.454v-.681c0-.454.076-.908.076-1.362.076-.908.227-1.74.378-2.648.076-.454-.151-.908-.605-1.06-.53 0-1.06.303-1.136.757z"/>
    <path fill="#F0D227" d="M496.303 72.109c-.984 3.404-.075 20.202-.454 23.683-.076.605-.151 1.21 0 1.816.152.68.606 1.361.984 1.967 1.665 2.345 2.574 11.047 4.39 13.317 1.59-3.783 3.634-13.998 4.542-18.008.076-.303.151-.681.076-.984-.076-.378-.228-.681-.455-1.06-1.513-2.648-3.633-18.991-4.238-22.018-1.363.227-2.725.454-4.163.681"/>
    <path fill="#333" d="M495.47 71.881c-.606 2.043-.454 4.389-.53 6.583-.076 3.178 0 6.356.076 9.534 0 2.42.151 4.918 0 7.34-.076.68-.152 1.361-.076 2.042.151 1.06.681 1.892 1.211 2.8.681 1.059.984 2.345 1.287 3.556l1.362 5.448c.379 1.437.757 3.026 1.666 4.161.454.606 1.286.53 1.589-.227 1.211-3.026 1.968-6.356 2.649-9.533l1.136-5.221c.151-.681.303-1.438.454-2.119.151-.757.454-1.589.378-2.346-.075-.605-.454-1.21-.681-1.74-.151-.303-.303-.832-.378-1.21-.303-1.135-.606-2.346-.833-3.557-.605-3.102-1.135-6.129-1.589-9.23-.379-2.498-.757-5.07-1.212-7.567-.075-.454-.605-.681-1.059-.606-1.363.227-2.725.454-4.163.681-1.06.152-.606 1.816.454 1.665 1.362-.227 2.725-.454 4.163-.68-.379-.228-.681-.38-1.06-.606.984 5.145 1.59 10.29 2.574 15.435.378 2.119.757 4.54 1.665 6.508.076.15.227.378.303.53.227.529.151.907.075 1.437-.151.68-.302 1.362-.454 2.118-.378 1.665-.757 3.33-1.135 5.07-.833 3.556-1.514 7.188-2.876 10.593l1.589-.227c-.757-.984-1.06-2.194-1.362-3.329-.454-1.589-.833-3.178-1.211-4.767-.379-1.362-.682-2.8-1.287-4.162-.227-.53-.53-1.059-.908-1.513-.606-.984-.606-1.816-.53-2.95.151-2.195.075-4.465.075-6.66 0-3.102-.075-6.204-.075-9.306 0-2.346-.152-5.07.454-7.34.227-1.21-1.438-1.664-1.741-.605z"/>
    <path fill="#fff" d="M432.798 83.987c-.455-.53-.984-1.06-1.439-1.589-.075-.075-.227-.227-.227-.378s.152-.303.227-.378c2.877-2.573 5.904-5.07 9.008-7.491.076-.076.151-.151.303-.151.151 0 .227.075.302.15.455.455.909.833 1.363 1.287.076.076.227.227.227.379 0 .227-.076.378-.227.53-2.574 3.026-5.677 5.674-9.083 7.641.151 0 .302.076.454.076"/>
    <path fill="#333" d="M433.402 83.382c-.302-.303-.529-.605-.832-.908-.152-.151-.606-.53-.606-.681v.454c0-.151.454-.378.53-.454l.454-.454c.379-.303.757-.681 1.136-.984.757-.605 1.513-1.286 2.195-1.891.681-.606 1.514-1.21 2.27-1.892.379-.303.757-.605 1.212-.908.302-.227.756-.757 1.059-.832h-.454c-.151 0 0 0 .076.076l.378.378c.227.151.454.53.681.605l.152.151v-.302l-.227.303c-.227.226-.379.453-.606.68-.757.833-1.589 1.665-2.498 2.497-1.741 1.59-3.557 2.951-5.525 4.086-.606.379-.53 1.438.227 1.59.151 0 .303.075.454.075 1.06.227 1.514-1.438.454-1.665-.151 0-.303-.075-.454-.075l.227 1.589c1.892-1.135 3.633-2.422 5.299-3.86.832-.68 1.589-1.437 2.346-2.194.379-.378.681-.756 1.06-1.135.378-.378.832-.832.984-1.362.303-1.059-1.06-1.891-1.741-2.496-.379-.303-.757-.606-1.211-.454-.53.15-1.06.68-1.514.983-1.892 1.438-3.709 2.951-5.526 4.54-.529.454-1.059.908-1.513 1.362-.455.378-1.06.832-1.363 1.362-.303.53-.076 1.135.303 1.513.454.53.984 1.06 1.438 1.59.681.756 1.892-.455 1.135-1.287z"/>
    <path fill="#fff" d="M518.104 111.681c-.909-.757-1.136-2.195-.455-3.178.379-.606 1.06-.984 1.741-1.211 1.439-.53 3.331-.605 4.239.681 0 0 1.363 9.912 2.574 14.83-2.65.454-5.223.908-7.872 1.362-.682.152-1.59.076-1.817-.529-.076-.303 0-.606-.227-.908-.151-.227-.378-.227-.606-.303-.454-.227-.832-.605-1.211-1.059-.378-.53-.757-1.211-.757-1.892 0-.681.379-1.438.984-1.74-.756-.681-1.589-1.513-1.589-2.497.076-1.362 1.589-2.043 2.876-2.497 1.06-.378 2.12-.757 3.179-1.059"/>
    <path fill="#333" d="M518.709 111.075c-2.347-2.043 2.119-4.161 3.86-2.951.227.152.303.454.227.076v.151c0 .152.076.303.076.454.075.681.151 1.287.302 1.968.606 4.086 1.211 8.247 2.271 12.257.227-.378.379-.681.606-1.059-1.438.227-2.801.53-4.239.757-.757.151-1.514.302-2.271.378-.53.076-1.287.378-1.816.227-.303-.076-.228-.076-.303-.378-.076-.227-.076-.454-.227-.606-.303-.454-.833-.529-1.287-.832-.833-.605-1.741-2.346-.606-3.027.455-.226.606-.983.152-1.361-.53-.454-1.287-1.06-1.287-1.816 0-.606.53-.984.984-1.287 1.362-.756 2.952-1.135 4.466-1.664 1.06-.379.605-1.968-.454-1.665-1.136.378-2.347.757-3.482 1.211-.833.302-1.741.681-2.347 1.362-1.665 1.664-.529 3.707.984 4.994.076-.454.152-.908.152-1.362-1.363.756-1.665 2.421-1.136 3.783.303.756.757 1.437 1.439 1.967.227.227.756.303.908.53.227.227.151.681.378.983.909 1.287 2.952.606 4.239.379 2.044-.379 4.163-.757 6.207-1.06.454-.075.681-.605.605-1.059-.984-3.859-1.589-7.793-2.195-11.728-.151-.984-.151-2.119-.454-3.027-.227-.832-1.211-1.362-1.968-1.513-.984-.302-2.119-.151-3.103.151-1.287.454-2.498 1.211-2.877 2.573-.302 1.211.076 2.497.984 3.329.833.757 2.044-.378 1.212-1.135z"/>
    <path fill="#fff" d="M500.466 64.768c.833 2.724 1.741 5.448 2.574 8.172.076.227.151.53.378.68.227.228.53.228.833.228 1.438-.076 2.801-.681 4.012-1.362 4.466-2.194 9.007-4.54 12.413-8.172.152-.151.303-.302.303-.53 0-.227-.151-.453-.303-.605-1.287-1.362-2.498-2.724-3.784-4.086-4.845 2.648-10.219 4.237-15.669 4.767"/>
    <path fill="#333" d="M499.633 64.995c.606 1.892 1.211 3.783 1.741 5.675.379 1.21.606 3.405 1.968 3.859 1.514.454 3.406-.454 4.693-1.06 1.438-.68 2.876-1.437 4.315-2.194 2.876-1.513 5.677-3.253 8.023-5.523.908-.832 1.968-1.816 1.06-3.102-1.136-1.514-2.649-2.8-3.936-4.238-.227-.302-.681-.302-1.06-.151-4.693 2.573-9.916 4.162-15.214 4.691-1.06.076-1.06 1.816 0 1.665 5.677-.53 11.127-2.194 16.122-4.918-.378-.076-.681-.076-1.059-.152.984 1.06 2.043 2.195 3.027 3.254.076.076.757.68.757.832 0-.151-.378.303-.454.378-.454.455-.908.909-1.362 1.287-1.968 1.74-4.239 3.102-6.586 4.313-1.135.605-2.27 1.21-3.406 1.74l-1.816.908c-.53.227-1.439.605-2.044.53-.757-.076-.833-1.211-1.06-1.816-.227-.681-.454-1.438-.681-2.119-.454-1.513-.908-2.95-1.362-4.464-.303-.908-1.968-.454-1.666.605z"/>
    <path fill="#DF357F" d="M525.143 40.405c.757.075 1.211-.833 1.362-1.59 3.331-15.51-26.946-24.666-30.882-27.692-.757 2.8.908 7.642 3.481 9.004-6.661-.379-13.321-1.06-19.982-2.195 0 0 3.633 9.156 7.645 11.426l34.97 12.333 3.406-1.286z"/>
    <path fill="#333" d="M525.142 41.237c2.195 0 2.422-2.875 2.422-4.54.076-1.513-.227-3.102-.757-4.54-1.211-3.102-3.406-5.675-5.904-7.869-5.374-4.691-11.96-7.793-18.393-10.744-2.12-.984-4.542-1.816-6.434-3.178-.454-.303-1.136 0-1.287.53-.757 3.404.757 8.171 3.86 9.987l.454-1.589c-6.585-.378-13.17-1.059-19.755-2.194-.53-.076-1.287.378-1.06 1.06.681 1.664 1.438 3.328 2.271 4.918 1.362 2.496 2.952 5.145 5.298 6.734.606.454 1.363.605 2.12.908 1.438.53 2.876 1.059 4.39 1.513 8.477 3.027 17.031 5.977 25.508 9.004 1.136.378 2.271.832 3.406 1.21.379.152.682.076 1.06-.075.984-.378 2.044-.757 3.028-1.135s.605-2.043-.454-1.665c-.909.303-1.741.681-2.65.984-.151.076-.378.151-.529.227-.606.303.151-.151.151.076l-.151-.076c-.757-.454-1.741-.605-2.574-.908-3.785-1.362-7.569-2.648-11.354-4.01-4.39-1.59-8.856-3.102-13.246-4.691-1.665-.606-3.331-1.135-4.996-1.74-.832-.303-1.741-.53-2.498-.909-1.816-.832-3.406-3.48-4.466-5.22-1.059-1.817-2.043-3.784-2.8-5.675l-1.06 1.059c6.661 1.135 13.398 1.816 20.21 2.194.833.076 1.135-1.21.454-1.589-2.422-1.362-3.709-5.372-3.103-8.02-.454.151-.833.303-1.287.53 1.438 1.059 3.255 1.74 4.844 2.496 2.801 1.287 5.526 2.497 8.251 3.935 5.677 2.95 12.035 6.431 15.593 11.955.832 1.362 1.513 2.8 1.816 4.388.152.757.227 1.59.152 2.346 0 .53-.076 2.573-.757 2.573-.833.075-.833 1.74.227 1.74z"/>
    <path fill="#fff" d="M522.531 47.6c1.482-10.257-7.113-19.978-19.196-21.713-12.082-1.734-23.078 5.175-24.56 15.433-1.481 10.257 7.113 19.978 19.196 21.712 12.083 1.734 23.079-5.175 24.56-15.432z"/>
    <path fill="#333" d="M521.659 47.366c-1.211 8.096-8.326 13.468-16.122 14.83-8.327 1.363-17.712-1.815-22.708-8.777-2.195-3.026-3.482-6.658-3.331-10.366.152-3.858 1.741-7.49 4.391-10.214 5.904-6.205 15.441-7.642 23.313-5.146 8.402 2.573 15.668 10.442 14.457 19.673-.151 1.06 1.514 1.514 1.665.454 1.211-8.777-4.39-16.722-12.11-20.43-8.251-4.01-18.772-3.555-26.19 2.12-3.255 2.496-5.753 5.977-6.737 10.063s-.454 8.323 1.438 12.03c4.088 8.248 13.549 12.788 22.557 12.637 8.553-.152 17.409-4.843 20.361-13.242.379-.983.606-2.043.757-3.102.076-1.135-1.589-1.59-1.741-.53z"/>
    <path fill="#333" d="M485.933 40.859c-.833-.152-1.363-.908-1.287-1.665l.454-2.95c.151-.833.908-1.363 1.665-1.287.833.151 1.363.908 1.287 1.664l-.454 2.951c-.076.833-.833 1.362-1.665 1.287zM504.174 41.464c-.832-.152-1.362-.908-1.286-1.665l.454-2.95c.151-.833.908-1.363 1.665-1.287.833.151 1.362.908 1.287 1.665l-.454 2.95c-.076.833-.833 1.362-1.666 1.287zM493.35 36.319c-1.892 1.438-3.406 3.33-4.163 5.6-.227.529-.378 1.058-.454 1.664-.151.605-.303 1.362 0 1.967s.984.832 1.589.908c.682.151 1.363.227 2.044.227 1.514 0 3.104-.227 4.542-.681 1.059-.378.605-1.967-.454-1.665-1.363.454-2.801.681-4.164.606-.378 0-.756 0-1.059-.076-.152 0-.379-.076-.53-.076-.151 0-.303-.075-.379-.075-.075-.076-.075-.076-.151 0 0 0 0 .075.076.075.075.152.075.076.075-.075v-.227c0-.303.076-.53.152-.833.53-2.27 1.892-4.464 3.784-5.826.379-.302.53-.756.303-1.135-.227-.454-.832-.68-1.211-.378z"/>
    <path fill="#fff" d="M520.146 44.566c.53-1.362 1.135-2.724 2.271-3.48 1.06-.681 2.498-.681 3.633-.076 1.135.605 1.968 1.665 2.271 2.95.151.606.227 1.287 0 1.892-.152.53-.53.984-.833 1.438-1.211 1.438-2.649 2.648-4.239 3.632-.454.227-.908.53-1.438.454-.605 0-1.059-.378-1.438-.832-.378-.454-.53-.984-.757-1.514"/>
    <path fill="#333" d="M520.978 44.793c.454-1.135.984-2.497 2.12-3.102 1.211-.606 2.649-.152 3.557.756.908.984 1.363 2.573.53 3.784-.833 1.21-2.044 2.27-3.255 3.102l-1.135.68c-.303.152-.681.38-.984.38-.757-.152-1.06-1.136-1.287-1.741-.378-1.06-2.044-.605-1.665.454.378.983.757 1.967 1.665 2.572.908.606 1.968.454 2.952-.075 1.741-.984 3.406-2.346 4.693-3.935.681-.832 1.211-1.74 1.211-2.875 0-.984-.378-2.043-.908-2.875-1.136-1.665-3.028-2.573-4.996-2.195-2.271.454-3.33 2.573-4.087 4.54-.152.454.151.908.605 1.06.454.227.833-.076.984-.53z"/>
    <path fill="#DF357F" d="M492.064 50.24c2.271.076 4.542-.378 6.585-1.286.227-.075.53-.227.757-.075.303.151.379.53.379.832.075 1.362.075 2.875-.757 4.01-.984 1.287-2.952 1.59-4.39.908-1.439-.756-2.271-2.345-2.347-3.934"/>
    <path fill="#333" d="M492.064 51.073c1.589.076 3.179-.151 4.693-.53.757-.226 1.514-.529 2.271-.832.075 0 .151-.075.151-.075.227-.152-.378.075-.303-.227l.076.227v1.059c0 1.135-.151 2.421-1.211 3.026-.833.53-1.968.53-2.876 0-1.06-.605-1.666-1.891-1.741-3.102 0-.454-.379-.832-.833-.832-.454 0-.908.378-.833.832.076 1.59.757 3.178 2.044 4.237 1.287.984 2.952 1.287 4.466.681 1.665-.68 2.498-2.194 2.649-3.934.076-.757.152-1.74-.076-2.497-.075-.454-.378-.832-.832-.984-.606-.227-1.136 0-1.665.227-1.893.833-3.936 1.135-6.056 1.135-1.06-.151-1.06 1.59.076 1.59z"/>
    <path fill="#fff" d="M483.133 63.028c-.833 1.589 2.422 28.147 3.936 30.947 1.741-.152 3.482-.076 5.222.151-.605 2.346-.832 10.442-.227 11.501.53.908 6.132 9.382 9.84 13.695 1.212.53-2.724-21.489-12.337-49.333l-6.434-6.961z"/>
    <path fill="#333" d="M482.375 62.575c-.454 1.059-.227 2.572-.151 3.707.151 2.346.379 4.691.606 6.961.605 5.372 1.286 10.82 2.27 16.193.303 1.588.53 3.48 1.287 4.993.152.227.454.454.757.454 1.665-.151 3.331-.075 4.996.152-.227-.379-.379-.681-.606-1.06-.757 2.876-.681 6.205-.605 9.156 0 .983 0 2.194.454 3.102.454.832 1.06 1.665 1.589 2.421 2.12 3.103 4.239 6.205 6.586 9.231.53.681 1.059 1.362 1.589 1.968.379.378.757.529 1.287.302.454-.302.53-.832.53-1.286.076-1.589-.303-3.254-.53-4.767-.454-2.875-1.06-5.826-1.741-8.626-2.044-8.928-4.541-17.78-7.266-26.482-.909-2.876-1.817-5.826-2.877-8.702-.303-.908-1.135-1.589-1.741-2.27-1.665-1.816-3.254-3.632-4.92-5.448-.757-.832-1.968.379-1.211 1.211 1.287 1.438 2.574 2.8 3.861 4.237.756.833 1.438 1.59 2.195 2.422l.227.227c.075.075 0 .151 0 .075.605 1.135.908 2.649 1.286 3.86 2.877 8.7 5.45 17.553 7.721 26.406 1.287 5.221 2.649 10.593 3.255 15.89.076.605.151 1.21.151 1.816v.227c0 .227 0 0 0 0s-.075.075 0-.076c.152-.227.303-.378.682-.378.302 0 .454.227.302-.076-.302-.681-1.135-1.362-1.514-1.892-.605-.756-1.211-1.589-1.816-2.421-1.06-1.437-2.12-2.875-3.104-4.388-.832-1.211-1.665-2.422-2.497-3.708-.076-.151-.227-.303-.303-.53 0-.075-.227-.378-.152-.151-.151-.378-.151-.908-.227-1.362-.151-1.74-.075-3.48 0-5.145.076-1.438.152-2.951.53-4.389.076-.378-.151-.983-.605-1.059-1.817-.227-3.634-.303-5.45-.227.227.151.454.303.757.454-.076-.151-.076-.076-.152-.454l-.227-.908c-.227-.832-.378-1.665-.53-2.573-.454-2.345-.832-4.69-1.135-7.036-.757-5.07-1.362-10.14-1.741-15.285-.076-.908-.151-1.891-.151-2.8v-.907-.151c0-.076.151-.303 0 0 .227-.984-1.211-1.892-1.666-.908z"/>
    <path fill="#fff" d="M497.287 64.693c-1.968 2.724-4.844 6.81-6.131 9.987-3.406-3.405-5.45-8.02-8.704-11.576 1.135-.984 2.346-1.968 3.633-2.8.303-.227.605-.378.984-.378.378 0 .605.227.908.378 2.952 1.967 6.661 2.27 9.765 3.935"/>
    <path fill="#333" d="M496.53 64.239c-2.271 3.253-4.693 6.507-6.207 10.214.454-.151.984-.227 1.438-.378-3.406-3.48-5.45-7.945-8.704-11.577v1.21c1.059-.907 2.195-1.966 3.406-2.647.454-.227.605-.227 1.06.075.227.152.454.303.605.379.606.302 1.135.605 1.741.832 2.422.984 4.996 1.513 7.342 2.724.984.53 1.817-.984.833-1.438-2.649-1.437-5.753-1.891-8.478-3.178-.605-.302-1.211-.756-1.816-1.059-.757-.378-1.439-.227-2.12.227-1.362.832-2.649 1.892-3.86 2.951-.379.303-.303.908 0 1.21 3.255 3.557 5.298 8.097 8.705 11.577.454.53 1.211.227 1.438-.378 1.438-3.556 3.86-6.659 6.055-9.76.681-.984-.757-1.892-1.438-.984z"/>
    <path fill="#fff" d="M529.154 105.93c-1.59.53-3.18.984-4.769 1.513-.227.076-.379.152-.53.227-.378.303-.454.833-.454 1.362 0 4.162.53 8.399 1.665 12.409.076.379.227.833.53 1.135.454.379 1.06.454 1.665.379 1.817-.076 3.558-.379 5.299-.908-.303-5.145-.909-10.291-1.817-15.36-.076-.379-.227-.757-.605-.833"/>
    <path fill="#333" d="M528.926 105.098c-1.362.454-2.725.832-4.163 1.286-1.059.303-1.968.681-2.195 1.892-.227 1.286-.076 2.648 0 3.935.076 1.362.227 2.724.454 4.086s.454 2.723.833 4.085c.227 1.06.454 2.422 1.438 3.027s2.422.378 3.482.227c1.362-.151 2.649-.378 3.936-.757.378-.075.681-.454.606-.832-.228-3.102-.53-6.28-.909-9.382-.227-1.514-.378-3.027-.681-4.54-.151-1.135-.151-2.649-1.438-3.027-1.06-.302-1.514 1.362-.454 1.665 0 0 .151 1.286.227 1.513.075.681.227 1.362.303 1.967.227 1.287.378 2.649.529 3.935.303 2.648.53 5.221.682 7.869.227-.303.454-.53.605-.832-.984.302-2.044.529-3.103.681-.53.075-1.136.151-1.666.151-.378 0-1.059.151-1.362-.151-.378-.227-.454-.984-.53-1.362-.151-.53-.227-1.06-.378-1.589-.227-1.06-.454-2.119-.606-3.178-.303-2.119-.454-4.237-.454-6.356 0-.378-.076-.984.227-1.211.379-.227 1.06-.302 1.514-.454 1.135-.378 2.195-.681 3.33-1.059 1.287-.227.833-1.891-.227-1.589z"/>
    <path fill="#DF357F" d="M526.051 65.904c27.098-.757 35.954 41.691 35.954 42.296.53 6.659-10.143 15.587-29.747 16.949-.833-4.237-2.877-14.755-3.709-18.992 5.449-1.816 3.33-1.891 8.553-3.329-2.574-7.264-1.665-2.951-5.223-10.972"/>
    <path fill="#333" d="M526.05 66.736c6.888-.151 13.17 2.724 18.09 7.415 4.769 4.54 8.327 10.366 11.051 16.268 2.12 4.615 3.861 9.534 5.223 14.452.303 1.135.53 2.194.833 3.329.076.378 0-.227 0 .151 0 .53 0 .984-.152 1.514-.302 1.21-.832 2.345-1.589 3.329-2.044 2.8-5.147 4.842-8.175 6.356-4.466 2.194-9.461 3.48-14.457 4.161-1.514.227-3.028.379-4.542.454.303.227.53.454.833.606-1.287-6.356-2.422-12.636-3.709-18.992-.227.378-.378.681-.606 1.059 1.514-.53 3.028-1.059 4.466-1.816 1.287-.681 2.65-1.059 4.088-1.437.454-.076.757-.606.605-1.06-.681-1.816-1.287-3.707-2.271-5.372-1.135-1.816-2.119-3.783-3.027-5.75-.454-.984-1.893-.152-1.438.832.908 1.967 1.816 3.859 2.952 5.675.984 1.513 1.589 3.329 2.195 5.069.227-.378.378-.681.605-1.059-1.438.378-2.952.832-4.314 1.513-1.363.681-2.801 1.287-4.239 1.816-.454.151-.681.605-.606 1.059 1.287 6.356 2.423 12.636 3.709 18.992.076.379.455.681.833.606 5.601-.379 11.278-1.362 16.501-3.481 3.785-1.438 7.418-3.405 10.294-6.28 1.968-1.967 3.633-4.464 3.785-7.264.075-.984-.227-1.967-.454-2.951-1.136-4.767-2.725-9.458-4.693-13.998-2.65-6.28-6.056-12.333-10.749-17.403-4.768-5.145-11.051-8.928-18.166-9.533-.908-.076-1.816-.076-2.8-.076-1.212.151-1.212 1.816-.076 1.816z"/>
    <path fill="#fff" d="M501.829 119.323c3.558-6.583 8.099-12.788 13.322-18.387.303-.378.681-.681.757-1.135.076-.378-.076-.832-.227-1.21-.833-2.043-2.195-3.86-4.012-5.221 1.665-.076 3.331-.076 4.996-.151 2.271-9.232 6.585-18.009 12.641-25.65-2.347-1.287-4.921-2.12-7.57-2.498-.075 0-19.301 20.278-19.907 54.252z"/>
    <path fill="#333" d="M502.51 119.776c2.801-5.145 6.131-9.988 9.916-14.452.908-1.059 1.892-2.118 2.8-3.178.833-.908 1.741-1.74 1.439-3.102-.53-2.421-2.498-4.691-4.391-6.204-.227.453-.378.983-.605 1.437 1.665-.076 3.33-.076 4.996-.151.378 0 .757-.227.832-.606 2.271-9.155 6.51-17.856 12.414-25.271.303-.379.378-1.06-.152-1.362-1.665-.908-3.406-1.59-5.147-2.043-.908-.227-2.725-.908-3.482-.303-.302.227-.529.605-.756.908-1.59 1.816-3.028 3.783-4.315 5.826-5.298 7.945-9.31 16.798-11.808 26.029-1.968 7.188-3.028 14.679-3.179 22.094 0 1.059 1.665 1.059 1.665 0 .227-11.274 2.574-22.473 6.964-32.914 2.725-6.356 6.131-12.485 10.37-18.008.681-.909 1.438-1.892 2.271-2.724-.303.075-.53.15-.833.227 2.573.378 5.071 1.135 7.418 2.42-.076-.453-.152-.907-.152-1.361-6.055 7.718-10.445 16.57-12.867 26.029.302-.227.53-.454.832-.606-1.665.076-3.33.076-4.995.151-.682 0-1.212.984-.606 1.438.984.757 1.892 1.665 2.574 2.724.529.681 1.665 2.27 1.286 3.178-.227.53-.908 1.059-1.362 1.513-.454.53-.908.984-1.363 1.514-.832.983-1.665 1.967-2.497 3.026-3.255 4.086-6.132 8.399-8.629 13.014-.606.833.832 1.665 1.362.757zM523.415 147.084v-13.251l-.931.916h18.864l-.931-.916V147.084l.931-.916h-18.864c-1.178 0-1.178 1.832 0 1.832h18.864c.496 0 .93-.428.93-.916v-11.602-1.649c0-.489-.434-.916-.93-.916h-18.864c-.496 0-.93.427-.93.916v13.251c0 1.221 1.861 1.221 1.861 0z"/>
    <path fill="#DF357F" d="M479.197 90.343c-1.211 2.875-11.656 18.311-14.835 18.462-2.347.151-4.466-1.211-6.434-2.497-9.235-6.28-17.712-13.62-25.282-21.791l8.251-6.583c1.135-.908 2.422-1.892 3.86-1.513.53.15 13.322 2.8 17.637 5.599"/>
    <path fill="#333" d="M478.439 89.965c-.984 2.27-2.497 4.312-3.86 6.28-1.968 2.875-4.012 5.75-6.358 8.398-.833.984-1.741 1.968-2.801 2.8-.302.227-.757.53-.908.53-.076 0-.151.075-.227.075h-.53c-.757-.075-1.438-.227-2.119-.529-2.574-1.06-4.92-3.027-7.115-4.616-2.347-1.74-4.693-3.556-6.964-5.448-5.071-4.161-9.764-8.701-14.23-13.544v1.21c2.725-2.118 5.374-4.312 8.099-6.43.908-.757 1.968-1.665 3.255-1.438.529.076 1.059.227 1.589.378 2.498.606 4.996 1.21 7.418 1.892 2.801.832 5.828 1.664 8.326 3.253.909.606 1.817-.908.833-1.437-2.271-1.438-5.072-2.27-7.645-3.102-2.649-.833-5.374-1.514-8.099-2.12-.681-.15-1.287-.302-1.968-.453-1.665-.303-3.028.378-4.315 1.362-1.362 1.06-2.725 2.118-4.011 3.178-1.59 1.286-3.18 2.497-4.693 3.783-.379.303-.303.908 0 1.21 4.087 4.465 8.477 8.702 13.17 12.637 2.347 1.967 4.693 3.858 7.115 5.674 2.347 1.741 4.769 3.632 7.342 4.994 1.59.833 3.936 1.816 5.753.908 1.06-.529 1.968-1.437 2.725-2.27 2.498-2.572 4.617-5.523 6.737-8.398 1.741-2.497 3.784-5.146 4.995-7.945.379-.984-1.059-1.892-1.514-.832z"/>
    <path fill="#fff" d="M432.798.832c14.305 0 25.962 11.577 25.962 25.953 0 6.432-2.346 12.333-6.282 16.873l2.119 7.87-8.78-2.346c-3.861 2.194-8.251 3.48-13.019 3.48-14.306 0-25.963-11.576-25.963-25.953 0-14.376 11.657-25.877 25.963-25.877z"/>
    <path fill="#333" d="M432.797 1.74c9.386.076 18.166 5.372 22.405 13.771 2.271 4.389 3.104 9.458 2.498 14.3-.303 2.876-1.211 5.676-2.498 8.173-.605 1.21-1.287 2.345-2.119 3.48-.53.681-1.59 1.514-1.438 2.497.227 1.362.757 2.8 1.135 4.162.303 1.21.681 2.421.984 3.707l1.06-1.059c-1.817-.454-3.633-.984-5.45-1.438-.984-.227-1.892-.53-2.876-.756-1.212-.303-2.271.68-3.331 1.135-7.266 3.253-15.971 2.8-22.935-1.211-5.979-3.48-10.445-9.458-11.959-16.268-1.514-6.961 0-14.452 4.239-20.278 4.693-6.431 12.337-10.215 20.285-10.215 1.06 0 1.136-1.74 0-1.664-12.64 0-23.994 9.155-26.341 21.64-1.135 6.204-.151 12.711 2.952 18.235 3.028 5.372 7.872 9.534 13.549 11.804 7.569 3.026 16.274 2.27 23.238-1.74-.227 0-.454.075-.681.075 2.952.757 5.828 1.589 8.78 2.346.605.15 1.211-.454 1.06-1.06-.682-2.648-1.439-5.296-2.12-7.869-.075.303-.151.53-.227.833 5.677-6.735 7.872-15.89 5.601-24.44-1.892-7.113-6.812-13.317-13.397-16.798C441.426 1.06 437.112 0 432.797 0c-1.135 0-1.135 1.665 0 1.74z"/>
    <path fill="#DF357F" d="M428.331 30.266c-.151 0-.302-.076-.454-.227-.151-.152-.227-.303-.227-.454v-.151-.152c.227-.68.53-1.286.984-1.891.454-.606.909-1.135 1.438-1.665.53-.53 1.06-.984 1.514-1.438.454-.454.909-.832 1.211-1.286.303-.378.454-.757.454-1.135 0-.227-.075-.454-.151-.605-.076-.152-.227-.303-.454-.378-.151-.076-.379-.152-.606-.152-.757 0-1.211.152-1.438.454-.227.303-.454.605-.605.908-.152.227-.227.454-.454.605-.152.152-.455.303-.833.303h-6.737c-.227 0-.454-.076-.605-.303-.152-.227-.303-.454-.303-.832 0-.908.303-1.816.757-2.8.454-.983 1.211-1.816 2.119-2.648.984-.832 2.12-1.437 3.634-1.967 1.438-.53 3.179-.757 5.147-.757 2.119 0 3.784.227 5.147.681 1.286.454 2.346 1.06 3.027 1.816.757.757 1.211 1.514 1.514 2.27.303.757.454 1.438.454 1.968 0 .756-.151 1.513-.378 2.118-.227.681-.53 1.21-.908 1.816-.379.53-.833 1.06-1.287 1.513-.454.53-.908.984-1.363 1.438-.454.454-.832.908-1.211 1.286l-.227.227c-.075.076-.151.152-.151.227-.227.379-.454.605-.606.757-.151.151-.378.227-.681.227h-7.721v.227zm.379 9.08c-.227 0-.53-.076-.681-.303-.227-.227-.303-.454-.303-.681v-5.75c0-.227.076-.53.303-.682.227-.227.454-.302.681-.302h6.585c.227 0 .53.075.681.302.227.227.303.455.303.681v5.751c0 .227-.076.53-.303.681-.227.227-.454.303-.681.303h-6.585z"/>
    <path fill="#F6F2EF" d="M277.316 120v-3.584h-3.592v-1.693h3.592v-3.584h1.696v3.584h3.592v1.693h-3.592V120h-1.696zM260.852 120v-3.584h-3.592v-1.693h3.592v-3.584h1.696v3.584h3.592v1.693h-3.592V120h-1.696zM244.288 120v-3.584h-3.592v-1.693h3.592v-3.584h1.696v3.584h3.592v1.693h-3.592V120h-1.696zM277.316 101.184V97.6h-3.592v-1.693h3.592v-3.584h1.696v3.584h3.592V97.6h-3.592v3.584h-1.696zM260.852 101.184V97.6h-3.592v-1.693h3.592v-3.584h1.696v3.584h3.592V97.6h-3.592v3.584h-1.696zM244.288 101.184V97.6h-3.592v-1.693h3.592v-3.584h1.696v3.584h3.592V97.6h-3.592v3.584h-1.696zM277.316 83.86v-3.584h-3.592v-1.692h3.592V75h1.696v3.584h3.592v1.692h-3.592v3.585h-1.696zM260.852 83.86v-3.584h-3.592v-1.692h3.592V75h1.696v3.584h3.592v1.692h-3.592v3.585h-1.696zM244.288 83.86v-3.584h-3.592v-1.692h3.592V75h1.696v3.584h3.592v1.692h-3.592v3.585h-1.696zM229.62 120v-3.584h-3.592v-1.693h3.592v-3.584h1.696v3.584h3.592v1.693h-3.592V120h-1.696zM213.156 120v-3.584h-3.592v-1.693h3.592v-3.584h1.696v3.584h3.593v1.693h-3.593V120h-1.696zM196.592 120v-3.584H193v-1.693h3.592v-3.584h1.696v3.584h3.593v1.693h-3.593V120h-1.696zM229.62 101.184V97.6h-3.592v-1.693h3.592v-3.584h1.696v3.584h3.592V97.6h-3.592v3.584h-1.696zM213.156 101.184V97.6h-3.592v-1.693h3.592v-3.584h1.696v3.584h3.593V97.6h-3.593v3.584h-1.696zM196.592 101.184V97.6H193v-1.693h3.592v-3.584h1.696v3.584h3.593V97.6h-3.593v3.584h-1.696zM229.62 83.86v-3.584h-3.592v-1.692h3.592V75h1.696v3.584h3.592v1.692h-3.592v3.585h-1.696zM213.156 83.86v-3.584h-3.592v-1.692h3.592V75h1.696v3.584h3.593v1.692h-3.593v3.585h-1.696zM196.592 83.86v-3.584H193v-1.692h3.592V75h1.696v3.584h3.593v1.692h-3.593v3.585h-1.696zM316.23 83.96c2.48 0 4.491-2.006 4.491-4.48 0-2.474-2.011-4.48-4.491-4.48-2.479 0-4.49 2.006-4.49 4.48 0 2.474 2.011 4.48 4.49 4.48zM316.23 101.98c2.48 0 4.491-2.006 4.491-4.48 0-2.474-2.011-4.48-4.491-4.48-2.479 0-4.49 2.006-4.49 4.48 0 2.474 2.011 4.48 4.49 4.48zM316.23 120c2.48 0 4.491-2.006 4.491-4.48 0-2.474-2.011-4.48-4.491-4.48-2.479 0-4.49 2.006-4.49 4.48 0 2.474 2.011 4.48 4.49 4.48zM334.69 83.96c2.48 0 4.491-2.006 4.491-4.48 0-2.474-2.011-4.48-4.491-4.48-2.479 0-4.49 2.006-4.49 4.48 0 2.474 2.011 4.48 4.49 4.48zM334.69 101.98c2.48 0 4.491-2.006 4.491-4.48 0-2.474-2.011-4.48-4.491-4.48-2.479 0-4.49 2.006-4.49 4.48 0 2.474 2.011 4.48 4.49 4.48zM334.69 120c2.48 0 4.491-2.006 4.491-4.48 0-2.474-2.011-4.48-4.491-4.48-2.479 0-4.49 2.006-4.49 4.48 0 2.474 2.011 4.48 4.49 4.48zM353.05 83.96c2.48 0 4.49-2.006 4.49-4.48 0-2.474-2.01-4.48-4.49-4.48-2.48 0-4.49 2.006-4.49 4.48 0 2.474 2.01 4.48 4.49 4.48zM353.05 101.98c2.48 0 4.49-2.006 4.49-4.48 0-2.474-2.01-4.48-4.49-4.48-2.48 0-4.49 2.006-4.49 4.48 0 2.474 2.01 4.48 4.49 4.48zM353.05 120c2.48 0 4.49-2.006 4.49-4.48 0-2.474-2.01-4.48-4.49-4.48-2.48 0-4.49 2.006-4.49 4.48 0 2.474 2.01 4.48 4.49 4.48zM371.51 83.96c2.48 0 4.49-2.006 4.49-4.48 0-2.474-2.01-4.48-4.49-4.48-2.48 0-4.49 2.006-4.49 4.48 0 2.474 2.01 4.48 4.49 4.48zM371.51 101.98c2.48 0 4.49-2.006 4.49-4.48 0-2.474-2.01-4.48-4.49-4.48-2.48 0-4.49 2.006-4.49 4.48 0 2.474 2.01 4.48 4.49 4.48zM371.51 120c2.48 0 4.49-2.006 4.49-4.48 0-2.474-2.01-4.48-4.49-4.48-2.48 0-4.49 2.006-4.49 4.48 0 2.474 2.01 4.48 4.49 4.48zM297.771 83.96c2.48 0 4.49-2.006 4.49-4.48 0-2.474-2.01-4.48-4.49-4.48-2.48 0-4.49 2.006-4.49 4.48 0 2.474 2.01 4.48 4.49 4.48zM297.771 101.98c2.48 0 4.49-2.006 4.49-4.48 0-2.474-2.01-4.48-4.49-4.48-2.48 0-4.49 2.006-4.49 4.48 0 2.474 2.01 4.48 4.49 4.48zM297.771 120c2.48 0 4.49-2.006 4.49-4.48 0-2.474-2.01-4.48-4.49-4.48-2.48 0-4.49 2.006-4.49 4.48 0 2.474 2.01 4.48 4.49 4.48zM84.316 120v-3.584h-3.592v-1.693h3.592v-3.584h1.696v3.584h3.592v1.693h-3.592V120h-1.696zM67.852 120v-3.584H64.26v-1.693h3.592v-3.584h1.696v3.584h3.592v1.693h-3.592V120h-1.696zM51.288 120v-3.584h-3.592v-1.693h3.592v-3.584h1.696v3.584h3.592v1.693h-3.592V120h-1.696zM84.316 101.184V97.6h-3.592v-1.693h3.592v-3.584h1.696v3.584h3.592V97.6h-3.592v3.584h-1.696zM67.852 101.184V97.6H64.26v-1.693h3.592v-3.584h1.696v3.584h3.592V97.6h-3.592v3.584h-1.696zM51.288 101.184V97.6h-3.592v-1.693h3.592v-3.584h1.696v3.584h3.592V97.6h-3.592v3.584h-1.696zM84.316 83.86v-3.584h-3.592v-1.692h3.592V75h1.696v3.584h3.592v1.692h-3.592v3.585h-1.696zM67.852 83.86v-3.584H64.26v-1.692h3.592V75h1.696v3.584h3.592v1.692h-3.592v3.585h-1.696zM51.288 83.86v-3.584h-3.592v-1.692h3.592V75h1.696v3.584h3.592v1.692h-3.592v3.585h-1.696zM36.62 120v-3.584h-3.592v-1.693h3.592v-3.584h1.696v3.584h3.592v1.693h-3.592V120H36.62zM20.156 120v-3.584h-3.592v-1.693h3.592v-3.584h1.696v3.584h3.593v1.693h-3.593V120h-1.696zM3.592 120v-3.584H0v-1.693h3.592v-3.584h1.696v3.584h3.593v1.693H5.288V120H3.592zM36.62 101.184V97.6h-3.592v-1.693h3.592v-3.584h1.696v3.584h3.592V97.6h-3.592v3.584H36.62zM20.156 101.184V97.6h-3.592v-1.693h3.592v-3.584h1.696v3.584h3.593V97.6h-3.593v3.584h-1.696zM3.592 101.184V97.6H0v-1.693h3.592v-3.584h1.696v3.584h3.593V97.6H5.288v3.584H3.592zM36.62 83.86v-3.584h-3.592v-1.692h3.592V75h1.696v3.584h3.592v1.692h-3.592v3.585H36.62zM20.156 83.86v-3.584h-3.592v-1.692h3.592V75h1.696v3.584h3.593v1.692h-3.593v3.585h-1.696zM3.592 83.86v-3.584H0v-1.692h3.592V75h1.696v3.584h3.593v1.692H5.288v3.585H3.592zM123.23 83.96c2.48 0 4.491-2.006 4.491-4.48 0-2.474-2.011-4.48-4.491-4.48-2.479 0-4.49 2.006-4.49 4.48 0 2.474 2.011 4.48 4.49 4.48zM123.23 101.98c2.48 0 4.491-2.006 4.491-4.48 0-2.474-2.011-4.48-4.491-4.48-2.479 0-4.49 2.006-4.49 4.48 0 2.474 2.011 4.48 4.49 4.48zM123.23 120c2.48 0 4.491-2.006 4.491-4.48 0-2.474-2.011-4.48-4.491-4.48-2.479 0-4.49 2.006-4.49 4.48 0 2.474 2.011 4.48 4.49 4.48zM141.69 83.96c2.48 0 4.491-2.006 4.491-4.48 0-2.474-2.011-4.48-4.491-4.48-2.479 0-4.49 2.006-4.49 4.48 0 2.474 2.011 4.48 4.49 4.48zM141.69 101.98c2.48 0 4.491-2.006 4.491-4.48 0-2.474-2.011-4.48-4.491-4.48-2.479 0-4.49 2.006-4.49 4.48 0 2.474 2.011 4.48 4.49 4.48zM141.69 120c2.48 0 4.491-2.006 4.491-4.48 0-2.474-2.011-4.48-4.491-4.48-2.479 0-4.49 2.006-4.49 4.48 0 2.474 2.011 4.48 4.49 4.48zM160.05 83.96c2.48 0 4.49-2.006 4.49-4.48 0-2.474-2.01-4.48-4.49-4.48-2.48 0-4.49 2.006-4.49 4.48 0 2.474 2.01 4.48 4.49 4.48zM160.05 101.98c2.48 0 4.49-2.006 4.49-4.48 0-2.474-2.01-4.48-4.49-4.48-2.48 0-4.49 2.006-4.49 4.48 0 2.474 2.01 4.48 4.49 4.48zM160.05 120c2.48 0 4.49-2.006 4.49-4.48 0-2.474-2.01-4.48-4.49-4.48-2.48 0-4.49 2.006-4.49 4.48 0 2.474 2.01 4.48 4.49 4.48zM178.51 83.96c2.48 0 4.49-2.006 4.49-4.48 0-2.474-2.01-4.48-4.49-4.48-2.48 0-4.49 2.006-4.49 4.48 0 2.474 2.01 4.48 4.49 4.48zM178.51 101.98c2.48 0 4.49-2.006 4.49-4.48 0-2.474-2.01-4.48-4.49-4.48-2.48 0-4.49 2.006-4.49 4.48 0 2.474 2.01 4.48 4.49 4.48zM178.51 120c2.48 0 4.49-2.006 4.49-4.48 0-2.474-2.01-4.48-4.49-4.48-2.48 0-4.49 2.006-4.49 4.48 0 2.474 2.01 4.48 4.49 4.48zM104.771 83.96c2.48 0 4.49-2.006 4.49-4.48 0-2.474-2.01-4.48-4.49-4.48-2.48 0-4.49 2.006-4.49 4.48 0 2.474 2.01 4.48 4.49 4.48zM104.771 101.98c2.48 0 4.49-2.006 4.49-4.48 0-2.474-2.01-4.48-4.49-4.48-2.48 0-4.49 2.006-4.49 4.48 0 2.474 2.01 4.48 4.49 4.48zM104.771 120c2.48 0 4.49-2.006 4.49-4.48 0-2.474-2.01-4.48-4.49-4.48-2.48 0-4.49 2.006-4.49 4.48 0 2.474 2.01 4.48 4.49 4.48z"/>
</svg>
