<svg xmlns="http://www.w3.org/2000/svg" width="306" height="169" fill="none" viewBox="0 0 306 169">
    <g opacity=".2">
        <path fill="#333" d="M303.917 117.564c1.398 0 1.498-2.199 0-2.199-1.498-.1-1.498 2.199 0 2.199z"/>
        <path fill="#333" d="M2.013 168.733c14.98-12.892 31.658-23.985 50.034-31.581 13.083-5.397 26.765-8.795 40.747-10.594 9.787-1.199 19.674-1.399 29.461-2.498 1.898-.2 3.096-.5 4.694-.5 1.798-.1 3.595-.1 5.293-.2 7.191-.2 14.381-.499 21.572-.699 10.486-.3 20.872-.7 31.359-1 11.984-.4 23.968-.799 36.052-1.199 11.685-.4 23.37-.8 35.154-1.199 9.588-.3 19.175-.7 28.663-1 5.692-.2 11.385-.4 17.077-.699.599 0 1.199-.1 1.798-.1 1.398-.1 1.398-2.299 0-2.199-4.494.3-8.988.4-13.482.6-8.889.299-17.777.599-26.665.999-11.385.4-22.87.8-34.256 1.199-12.184.4-24.268.8-36.452 1.2-10.985.399-22.071.699-33.056 1.099-8.09.3-16.079.5-24.169.8-3.295.099-6.691 0-9.987.299-3.695.3-7.29.9-10.985 1.1-5.093.399-10.087.599-15.18 1.099-13.183 1.199-26.166 3.598-38.75 7.795-17.277 5.797-33.356 14.692-47.937 25.585-4.294 3.198-8.588 6.596-12.683 10.194-.999.8.6 2.399 1.698 1.499z"/>
        <path fill="#DF357F" d="M190.266 128.558h-60.72V28.118l60.72-12.393v112.833z"/>
        <path fill="#333" d="M190.266 127.358h-60.72l1.098 1.099v-9.994-23.986-28.982-25.086-8.195c0-1.199.2-2.698 0-3.897v-.2c-.299.4-.599.7-.799 1.1 6.891-1.4 13.782-2.8 20.573-4.198 10.886-2.2 21.672-4.398 32.558-6.696l7.49-1.5c-.5-.4-.899-.7-1.398-1.099V123.96c0 1.499-.1 2.998 0 4.397v.2c0 1.399 2.197 1.499 2.197 0v-11.193V90.38 57.8 29.615 20.32c0-1.499.1-2.998 0-4.397v-.2c0-.8-.699-1.2-1.398-1.1-6.891 1.4-13.782 2.8-20.573 4.198-10.886 2.199-21.672 4.398-32.558 6.696l-7.49 1.5c-.499.1-.799.599-.799 1.099v96.243c0 1.299-.1 2.598 0 3.897v.2c0 .6.499 1.1 1.099 1.1h60.72c1.498.1 1.498-2.199 0-2.199z"/>
        <path fill="#fff" d="M277.452 1.333h-86.886v112.734h86.886V1.333z"/>
        <path fill="#333" d="M277.452 112.966h-83.191c-1.099 0-2.397-.199-3.396 0h-.2l1.099 1.1v-11.194-26.984-32.58-28.184V5.83c0-1.4.2-2.998 0-4.398v-.2l-1.099 1.1h83.191c1.099 0 2.397.2 3.396 0h.2l-1.099-1.1v108.236c0 1.5-.1 2.999 0 4.398v.2c0 1.399 2.197 1.499 2.197 0v-11.194-26.984-32.58-28.184V5.83c0-1.5.1-2.998 0-4.398v-.2c0-.599-.499-1.099-1.098-1.099h-76.001c-3.495 0-7.09-.3-10.586 0h-.2c-.599 0-1.098.5-1.098 1.1v108.235c0 1.5-.1 2.999 0 4.398v.2c0 .599.499 1.099 1.098 1.099h76.001c3.495 0 7.09.3 10.586 0h.2c1.398.1 1.398-2.199 0-2.199z"/>
        <path fill="#fff" d="M190.266 134.354h-60.72V34.014l60.72-12.393v112.733z"/>
        <path fill="#333" d="M190.266 133.254h-60.72l1.098 1.1v-9.994-23.986-28.983-25.085-8.195c0-1.2.2-2.699 0-3.898v-.2c-.299.4-.599.7-.799 1.1 6.891-1.4 13.782-2.799 20.573-4.198 10.886-2.199 21.672-4.398 32.558-6.696l7.49-1.5c-.5-.399-.899-.699-1.398-1.099v108.236c0 1.499-.1 2.999 0 4.398v.2c0 1.399 2.197 1.499 2.197 0V123.26 96.276v-32.58-28.184-9.294c0-1.5.1-2.998 0-4.398v-.2c0-.8-.699-1.199-1.398-1.099-6.891 1.4-13.782 2.798-20.573 4.198-10.886 2.198-21.672 4.397-32.558 6.696l-7.49 1.499c-.499.1-.799.6-.799 1.1V130.255c0 1.299-.1 2.599 0 3.898v.2c0 .599.499 1.099 1.099 1.099h60.72c1.498 0 1.498-2.199 0-2.199z"/>
        <path fill="#333" d="M134.839 32.714v97.442c0 1.299-.1 2.699 0 3.998v.2c0 1.399 2.197 1.499 2.197 0V124.16 99.974 70.591 45.307 36.91c0-1.299.1-2.698 0-3.997v-.2c.1-1.5-2.197-1.5-2.197 0zM141.43 32.414v97.842c0 1.299-.1 2.699 0 3.998v.2c0 1.399 2.197 1.499 2.197 0V124.36 99.974 70.492 45.007v-8.395c0-1.3.1-2.699 0-3.998v-.2c0-1.399-2.197-1.399-2.197 0zM148.021 30.016V130.156c0 1.399-.099 2.799 0 4.098v.2c0 1.399 2.198 1.499 2.198 0V124.06 99.075 68.993 42.908v-8.595c0-1.4.099-2.798 0-4.098v-.2c0-1.498-2.198-1.498-2.198 0zM154.613 29.416V129.956c0 1.4-.1 2.799 0 4.098v.2c0 1.399 2.197 1.499 2.197 0V123.86 98.775 68.493 42.308v-8.595c0-1.399.1-2.798 0-4.097v-.2c0-1.5-2.197-1.5-2.197 0zM161.104 27.317v102.639c0 1.4-.1 2.799 0 4.198v.2c0 1.399 2.197 1.499 2.197 0V123.76 98.175 67.293 40.51v-8.794c0-1.4.1-2.799 0-4.198v-.2c.1-1.499-2.197-1.499-2.197 0zM167.696 26.718V129.956c0 1.399-.1 2.799 0 4.198v.2c0 1.399 2.197 1.499 2.197 0V123.66 97.975 66.894 39.91v-8.795c0-1.4.1-2.798 0-4.198v-.2c.1-1.399-2.197-1.399-2.197 0zM174.287 25.618V129.956c0 1.399-.1 2.799 0 4.298v.2c0 1.399 2.197 1.499 2.197 0V123.66 97.675v-31.48V39.01v-8.895c0-1.399.1-2.798 0-4.297v-.2c0-1.499-2.197-1.499-2.197 0zM180.878 23.32v106.536c0 1.4-.099 2.899 0 4.298v.2c0 1.399 2.197 1.499 2.197 0V123.36 96.776 64.695 36.912v-9.095c0-1.4.1-2.898 0-4.298v-.2c0-1.499-2.197-1.499-2.197 0z"/>
        <path fill="#DF357F" d="M277.452 1.333h-86.886V7.73h86.886V1.333z"/>
        <path fill="#333" d="M277.452 6.63h-83.191c-1.099 0-2.397-.2-3.396 0h-.2l1.099 1.099V1.333l-1.099 1.099h83.191c1.099 0 2.397.2 3.396 0h.2l-1.099-1.1V7.73c0 1.399 2.197 1.499 2.197 0V1.333c0-.6-.499-1.1-1.098-1.1h-76.001c-3.495 0-7.09-.3-10.586 0h-.2c-.599 0-1.098.5-1.098 1.1v6.396c0 .6.499 1.1 1.098 1.1h76.001c3.495 0 7.091.299 10.586 0h.2c1.398.1 1.398-2.2 0-2.2z"/>
        <path fill="#fff" d="M301.82 106.471c.898-2.598.399-5.597-1.099-7.895-.599-.9-1.498-1.8-1.498-2.898-.1-1.2.799-2.2 1.198-3.299 1.598-3.697-1.298-7.895-4.693-9.994-.6-.4-1.399-.8-1.598-1.599-.1-.4 0-.9 0-1.299.199-2.299-.899-4.597-2.497-6.196-1.598-1.7-8.589-1.7-10.187 0-1.598 1.699-2.696 3.897-2.496 6.196 0 .4.1.9 0 1.3-.2.699-.899 1.199-1.598 1.598-3.396 2.1-6.292 6.297-4.694 9.994.499 1.1 1.298 2.1 1.198 3.298-.1 1.1-.898 2-1.498 2.899-1.598 2.298-1.997 5.297-1.098 7.895.499 1.599 1.498 3.098 1.398 4.797-.2 2.099-2.297 3.998-1.698 6.097.599 2.198 30.36 2.198 30.96 0 .599-2.099-1.399-3.998-1.698-6.097.1-1.699 1.098-3.198 1.598-4.797z"/>
        <path fill="#333" d="M302.918 106.77c.899-3.098.4-6.396-1.498-9.094-.399-.6-1.098-1.3-1.198-2.1-.1-.899.599-1.698.899-2.398.699-1.399.898-2.798.699-4.297-.5-2.799-2.397-5.297-4.694-6.996-.5-.4-1.398-.7-1.798-1.2-.499-.6-.1-1.798-.1-2.498-.1-1.699-.799-3.298-1.797-4.697-1.498-1.999-3.296-2.499-5.693-2.699-1.997-.1-4.494-.1-6.192 1-2.397 1.399-3.795 4.897-3.595 7.595.1 1.1-.1 1.3-.999 1.9-.599.399-1.198.799-1.698 1.298-1.098.9-2.097 2.1-2.796 3.398-.699 1.2-1.098 2.499-1.198 3.898-.1 1.7.599 2.998 1.298 4.398.899 1.798-.599 2.898-1.398 4.297-.799 1.4-1.199 3.098-1.298 4.697-.1 1.399.199 2.898.799 4.198.699 1.899 1.398 3.298.499 5.197-.699 1.599-2.297 4.497-.4 5.796.699.5 1.698.6 2.597.8 1.598.3 3.096.399 4.694.499 3.995.3 7.989.3 11.984.2 3.595-.1 7.39-.1 10.886-.899 1.198-.3 2.197-.7 2.397-2.099.199-1.699-.799-3.098-1.398-4.697-.799-1.899.399-3.598.998-5.497.5-1.399-1.698-1.999-2.197-.6-.499 1.4-1.298 2.799-1.398 4.298-.1 1.499.499 2.798 1.098 4.097.3.6.6 1.2.6 1.799v.3c-.1.4-.1.5 0 .2-.4 0 .299-.2.1-.1.399-.2-.1 0-.2.1l-.3.1c-2.496.7-5.293.7-7.889.8-3.696.199-7.391.199-11.086 0-2.896-.1-5.792-.1-8.589-.8-.299-.1-.699-.2-.998-.3.299.1-.2 0-.2-.1l.1.1c.1.1.2.2.2.4-.1-.2-.1-.5-.1-.7.1-1.199.998-2.398 1.398-3.597.499-1.4.399-2.899-.1-4.298-.499-1.499-1.198-2.798-1.298-4.397-.1-1.499.299-2.999.998-4.398.699-1.199 1.698-2.198 1.998-3.498.399-1.599-.5-2.798-1.099-4.197-1.198-2.698.3-5.497 2.297-7.396.999-.9 2.197-1.499 3.096-2.398 1.099-1.1.699-2.299.799-3.698.1-1.6.899-3.198 1.898-4.298.599-.7 1.298-.899 2.197-.999 1.897-.4 4.294-.4 5.992.3 1.098.5 1.797 1.799 2.297 2.898.299.8.499 1.7.499 2.599 0 .899-.2 1.699.2 2.598.699 1.2 2.097 1.699 3.096 2.599 1.298 1.099 2.397 2.398 2.896 3.997.499 1.5.4 2.898-.3 4.298-.699 1.499-1.398 2.798-.699 4.497.6 1.4 1.798 2.498 2.297 3.998.6 1.699.6 3.497.1 5.196-.299 1.4 1.898 1.999 2.297.6z"/>
        <path fill="#DF357F" d="M275.554 113.866c1.099-3.298.499-6.995-1.398-9.894-.799-1.199-1.798-2.298-1.898-3.697-.099-1.5.999-2.799 1.598-4.098 1.998-4.597-1.598-9.794-5.792-12.493-.799-.5-1.698-1-1.898-1.998-.099-.5 0-1.1 0-1.6.3-2.898-1.098-5.696-3.096-7.795-1.997-2.099-3.795-3.498-6.291-4.997-2.497 1.4-4.295 2.898-6.292 4.997-1.997 2.099-3.396 4.897-3.096 7.796.1.5.2 1.099 0 1.599-.2.899-1.099 1.499-1.898 1.998-4.294 2.699-7.789 7.896-5.792 12.493.599 1.4 1.598 2.598 1.598 4.098-.1 1.399-1.099 2.498-1.898 3.697-1.897 2.799-2.496 6.596-1.398 9.894.699 1.999 1.898 3.898 1.698 5.997-.3 2.698-2.796 4.997-2.097 7.595.799 2.699 37.75 2.699 38.549 0 .799-2.598-1.797-4.897-2.097-7.595-.399-2.099.799-3.998 1.498-5.997z"/>
        <path fill="#333" d="M276.653 114.166c1.098-3.498.599-7.496-1.399-10.594-.499-.8-1.098-1.399-1.498-2.199-.599-1.099-.199-1.999.3-3.098.799-1.5 1.498-2.998 1.498-4.797 0-3.498-2.097-6.696-4.594-8.995-.599-.6-1.298-1.1-1.997-1.499-.799-.5-1.798-.9-1.798-1.999.1-1.998.1-3.698-.799-5.596-1.698-3.898-5.493-6.896-9.088-8.995-.3-.2-.799-.2-1.099 0-4.793 2.798-10.486 7.495-9.986 13.692.099.8.199 1.299-.4 1.999-.499.5-1.198.8-1.698 1.199-1.198.8-2.197 1.799-3.096 2.898-1.697 1.999-2.896 4.398-2.996 6.996-.1 1.3.2 2.499.699 3.698.7 1.499 1.898 2.898 1.099 4.597-.599 1.199-1.598 2.199-2.197 3.398-.699 1.399-1.099 2.798-1.199 4.398-.099 1.299-.099 2.598.2 3.797.3 1.699 1.199 3.098 1.698 4.697.899 2.999-1.298 4.998-1.798 7.796-.199 1.199-.1 2.698.999 3.298.699.4 1.598.6 2.497.799 2.796.5 5.592.7 8.489.8 7.09.3 14.281.4 21.272-.3 2.097-.2 4.993-.2 6.791-1.399 1.698-1.099.899-3.698.2-5.097-.6-1.299-1.499-2.698-1.499-4.198-.399-1.898.799-3.597 1.399-5.296.499-1.4-1.698-1.999-2.197-.6-.899 2.698-2.297 5.097-1.399 7.995.4 1.1.999 2.199 1.498 3.298.2.5.4 1.1.4 1.699v.4c-.1.4-.1.4 0 .2 0 0 .1-.3.1-.2 0-.1.199 0-.1 0-.3.1-.1 0-.2.1-.399.1-.699.2-1.098.3-.999.2-1.898.3-2.897.5-6.491.699-12.983.699-19.474.499-2.996-.1-6.092-.2-9.088-.599-.999-.1-1.898-.3-2.896-.5-.2 0-.899-.3-.699-.2-.1 0-.3-.2-.3-.2.1 0 0 .1.1.1.2 0 0 .6 0-.2v-.899c.1-.6.299-1.2.599-1.699.499-1.1 1.099-2.199 1.398-3.398.699-2.899-1.098-5.297-1.797-8.095-.7-2.799-.1-5.797 1.498-8.196.699-.999 1.597-1.998 1.897-3.198.4-1.299.1-2.498-.499-3.698-.699-1.399-1.398-2.598-1.398-4.197 0-1.5.499-2.898 1.298-4.098.699-1.199 1.698-2.298 2.696-3.198 1.099-1 2.497-1.599 3.496-2.598 1.198-1.2.799-2.599.799-4.098 0-1.599.599-3.098 1.398-4.397 1.798-2.799 4.694-4.897 7.49-6.496h-1.099c3.096 1.799 6.292 4.197 7.99 7.395.399.8.699 1.7.899 2.599.1 1-.1 1.999-.1 2.998.1 1.699 1.398 2.598 2.696 3.398 2.697 1.699 5.293 4.697 5.593 7.995.4 3.398-3.196 5.997-1.598 9.395.899 1.799 2.297 3.198 2.896 5.197.6 2.098.6 4.197 0 6.196-.499 1.299 1.598 1.899 2.098.5z"/>
        <path fill="#333" d="M265.368 110.168c-3.496 1.499-6.692 3.698-9.288 6.496-.799.9-.6 1.999-.6 3.198v16.191c0 1.399 2.198 1.499 2.198 0v-18.289c-.1.299-.2.499-.3.799 2.597-2.798 5.593-4.997 9.088-6.496 1.298-.6.2-2.499-1.098-1.899z"/>
        <path fill="#333" d="M257.777 117.664c-.599-4.598-.699-9.195-.399-13.792.1-1.399-2.197-1.399-2.297 0-.3 4.797-.1 9.594.499 14.391.1.6.899.9 1.399.8.599-.2.798-.8.798-1.399zM285.441 128.657c.4-12.093.4-24.186.799-36.278 0-1.4-2.197-1.4-2.197 0-.4 12.092-.4 24.185-.799 36.278-.1 1.399 2.197 1.399 2.197 0z"/>
        <path fill="#333" d="M285.641 104.971c3.995-2.298 8.289-3.997 12.783-5.297 1.398-.4.799-2.598-.599-2.198-4.594 1.299-9.088 3.198-13.283 5.496-1.298.8-.199 2.699 1.099 1.999z"/>
        <path fill="#333" d="M294.13 98.875c-.6-2.499-1.199-4.897-1.898-7.396-.1-.6-.799-.9-1.398-.8-.599.2-.899.8-.799 1.4.599 2.498 1.198 4.897 1.898 7.395.099.6.799.9 1.398.8.599-.2.998-.8.799-1.4z"/>
        <path fill="#DF357F" d="M119.758 118.564c1.099-3.298.5-6.996-1.398-9.894-.799-1.2-1.797-2.299-1.897-3.698-.1-1.499.998-2.799 1.598-4.098 1.997-4.597-1.598-9.794-5.793-12.492-.799-.5-1.698-1-1.897-2-.1-.499 0-1.099 0-1.598.299-2.899-1.099-5.697-3.096-7.796-1.998-2.098-3.795-3.498-6.292-4.997-2.497 1.4-4.294 2.899-6.292 4.997-1.997 2.1-3.395 4.897-3.096 7.796.1.5.2 1.1 0 1.599-.2.9-1.098 1.499-1.897 1.999-4.294 2.698-7.79 7.895-5.793 12.492.6 1.399 1.598 2.599 1.598 4.098-.1 1.399-1.098 2.498-1.897 3.698-1.898 2.798-2.497 6.596-1.398 9.894.699 1.999 1.897 3.897 1.697 5.996-.3 2.699-2.796 4.997-2.097 7.596.8 2.698 37.751 2.698 38.55 0 .799-2.599-1.798-4.897-2.098-7.596-.399-1.999.899-3.997 1.498-5.996z"/>
        <path fill="#333" d="M120.857 118.863c1.099-3.498.599-7.496-1.398-10.594-.5-.799-1.099-1.399-1.498-2.199-.599-1.099-.2-1.998.299-3.098.799-1.499 1.498-2.998 1.498-4.797 0-3.498-2.097-6.696-4.594-8.995-.599-.6-1.298-1.099-1.997-1.499-.799-.5-1.798-.9-1.798-1.998.1-2 .1-3.698-.799-5.597-1.697-3.898-5.492-6.896-9.088-8.995-.299-.2-.799-.2-1.098 0-4.794 2.799-10.486 7.496-9.987 13.692.1.8.2 1.3-.4 1.999-.499.5-1.198.8-1.697 1.2-1.199.799-2.197 1.798-3.096 2.897-1.698 2-2.896 4.398-2.996 6.996-.1 1.3.2 2.499.699 3.698.699 1.499 1.897 2.898 1.098 4.597-.599 1.2-1.598 2.199-2.197 3.398-.699 1.4-1.098 2.799-1.198 4.398-.1 1.299-.1 2.598.2 3.798.3 1.699 1.198 3.098 1.697 4.697.9 2.998-1.298 4.997-1.797 7.795-.2 1.199-.1 2.699.998 3.298.7.4 1.598.6 2.497.8 2.796.499 5.593.699 8.489.799 7.09.3 14.281.4 21.272-.3 2.097-.199 4.993-.199 6.791-1.399 1.698-1.099.899-3.698.2-5.097-.599-1.299-1.498-2.698-1.498-4.197-.3-1.799.799-3.598 1.398-5.297.499-1.399-1.698-1.999-2.197-.6-.899 2.699-2.297 5.097-1.398 7.995.399 1.1.998 2.199 1.498 3.299.199.499.399 1.099.399 1.699v.399c-.1.4-.1.4 0 .2 0 0 .1-.3.1-.2 0-.1.2 0-.1 0-.299.1-.1 0-.2.1-.399.1-.699.2-1.098.3-.999.2-1.898.3-2.896.5-6.492.699-12.983.699-19.475.499-2.996-.099-6.092-.199-9.088-.599-.999-.1-1.897-.3-2.896-.5-.2 0-.899-.3-.7-.2-.099 0-.299-.2-.299-.2.1 0 0 .1.1.1.2 0 0 .6 0-.2v-.899c.1-.6.3-1.199.6-1.699.499-1.099 1.098-2.199 1.398-3.398.699-2.898-1.099-5.297-1.798-8.095-.7-2.799-.1-5.797 1.498-8.195.699-1 1.598-1.999 1.897-3.198.4-1.3.1-2.499-.499-3.698-.699-1.399-1.398-2.599-1.398-4.198 0-1.499.5-2.898 1.298-4.097.7-1.2 1.698-2.299 2.697-3.198 1.098-1 2.496-1.6 3.495-2.599 1.198-1.2.8-2.598.8-4.097 0-1.6.598-3.099 1.397-4.398 1.798-2.798 4.694-4.897 7.49-6.496h-1.098c3.096 1.799 6.292 4.198 7.989 7.396.4.8.699 1.699.899 2.598.1 1-.1 1.999-.1 2.998.1 1.7 1.398 2.599 2.697 3.398 2.696 1.7 5.293 4.698 5.592 7.996.4 3.397-3.195 5.996-1.597 9.394.898 1.799 2.297 3.198 2.896 5.197.599 2.099.599 4.197 0 6.196-.5 1.299 1.698 1.899 2.097.5z"/>
        <path fill="#333" d="M109.572 114.865c-3.496 1.499-6.691 3.698-9.288 6.496-.799.9-.6 1.999-.6 3.198v16.191c0 1.399 2.198 1.499 2.198 0v-18.289c-.1.3-.2.499-.3.799 2.597-2.798 5.593-4.997 9.088-6.496 1.399-.5.2-2.398-1.098-1.899z"/>
        <path fill="#333" d="M101.982 122.361c-.599-4.598-.699-9.195-.4-13.792.1-1.399-2.197-1.399-2.197 0-.3 4.797-.1 9.594.5 14.391.1.6.898.9 1.398.8.599-.2.799-.8.699-1.399z"/>
        <path fill="#fff" d="M231.113 80.087l-36.053-16.09-36.053 16.09v4.297l-.1.1v58.266h72.206V80.087z"/>
        <path fill="#333" d="M231.712 79.087c-10.686-4.698-21.272-9.495-31.958-14.192-1.299-.6-2.697-1.3-4.095-1.799-1.099-.4-2.696.7-3.795 1.1-6.192 2.798-12.384 5.496-18.676 8.295-4.993 2.198-9.887 4.397-14.88 6.596-.4.2-.599.6-.599 1v4.296c.199-.3.399-.6.599-.999h-.1c-.399.2-.599.6-.599 1v58.265c0 .6.499 1.099 1.098 1.099h72.306c.599 0 1.098-.499 1.098-1.099v-21.187-33.78-7.796c0-1.399-2.197-1.499-2.197 0V142.65l1.099-1.099h-72.306l1.099 1.099v-19.688-31.382-7.195c-.2.3-.399.6-.599.999h.1c.399-.2.599-.6.599-1v-4.297c-.2.3-.4.6-.599 1 10.586-4.698 21.172-9.395 31.658-14.092 1.498-.7 2.896-1.3 4.394-1.999h-1.098c10.586 4.697 21.072 9.394 31.658 14.092 1.498.7 2.896 1.299 4.395 1.998 1.597.6 2.696-1.399 1.398-1.998z"/>
        <path fill="#fff" d="M186.771 142.749h-72.206V84.484l36.153-16.09 36.053 16.09v58.265z"/>
        <path fill="#333" d="M186.771 141.649h-72.306l1.099 1.1V123.06 91.679v-7.196c-.2.3-.399.6-.599 1l31.758-14.092c1.498-.7 2.996-1.3 4.394-1.999h-1.098c10.586 4.697 21.072 9.395 31.658 14.092 1.498.7 2.896 1.299 4.395 1.999-.2-.3-.4-.6-.6-1v58.266c0 1.399 2.197 1.499 2.197 0V123.06 91.679v-7.196c0-.4-.199-.8-.599-1-10.686-4.796-21.272-9.494-31.958-14.29-1.298-.6-2.696-1.3-4.095-1.8-1.098-.4-2.696.7-3.795 1.1-6.191 2.798-12.483 5.496-18.675 8.295-4.993 2.198-9.987 4.397-14.881 6.596-.399.2-.599.6-.599 1v58.265c0 .599.5 1.099 1.099 1.099h72.305c1.698.1 1.698-2.099.3-2.099z"/>
        <path fill="#DF357F" d="M150.718 63.996l-36.153 16.09v9.395l36.153-15.99 35.953 15.99v-9.394l-35.953-16.09z"/>
        <path fill="#333" d="M150.119 63.096c-10.586 4.697-21.172 9.395-31.658 14.092-1.498.7-2.896 1.299-4.395 1.998-.399.2-.599.6-.599 1v9.394c0 .9.899 1.3 1.698 1 10.586-4.697 21.172-9.395 31.659-14.092 1.498-.7 2.896-1.3 4.394-1.999h-1.099c10.486 4.697 20.973 9.395 31.559 14.092 1.498.7 2.996 1.3 4.394 1.999.799.3 1.698 0 1.698-1v-9.394c0-.4-.2-.8-.599-1-10.487-4.697-20.973-9.394-31.559-14.091-1.498-.7-2.996-1.3-4.394-1.999-1.299-.6-2.497 1.4-1.099 1.899 10.486 4.697 20.973 9.394 31.559 14.092 1.498.7 2.996 1.299 4.394 1.998-.2-.3-.399-.6-.599-.999v9.394c.599-.3 1.098-.6 1.698-.999-10.586-4.697-21.272-9.494-31.859-14.192-1.398-.6-2.696-1.299-4.094-1.799-1.099-.4-2.797.7-3.895 1.2-6.192 2.698-12.384 5.496-18.476 8.195-4.993 2.199-9.887 4.397-14.88 6.596.599.3 1.098.6 1.697 1v-9.395c-.199.3-.399.6-.599 1 10.586-4.698 21.172-9.395 31.659-14.092 1.498-.7 2.896-1.3 4.394-1.999 1.498-.6.3-2.499-.999-1.899z"/>
        <path fill="#DF357F" d="M163.002 117.264h-24.668v25.485h24.668v-25.485z"/>
        <path fill="#333" d="M163.002 141.649h-24.668l1.099 1.1v-22.287-3.198l-1.099 1.099h24.668l-1.099-1.099v25.485c0 1.399 2.197 1.499 2.197 0v-22.287-3.198c0-.6-.499-1.1-1.098-1.1h-24.668c-.599 0-1.098.5-1.098 1.1v25.485c0 .599.499 1.099 1.098 1.099h24.668c1.398 0 1.398-2.199 0-2.199z"/>
        <path fill="#DF357F" d="M136.037 97.876h-7.69v7.695h7.69v-7.695z"/>
        <path fill="#333" d="M135.937 104.471H128.247l1.099 1.1v-6.696-1l-1.099 1.1h7.69l-1.098-1.1v7.696c0 .599.499 1.099 1.098 1.099.6 0 1.099-.5 1.099-1.099v-6.696-1c0-.6-.499-1.1-1.099-1.1H128.247c-.599 0-1.098.5-1.098 1.1v7.696c0 .599.499 1.099 1.098 1.099h7.69c.6 0 1.099-.5 1.099-1.099.1-.6-.499-1.1-1.099-1.1z"/>
        <path fill="#DF357F" d="M154.513 97.876h-7.69v7.695h7.69v-7.695z"/>
        <path fill="#333" d="M154.513 104.471H146.823l1.099 1.1v-6.696-1l-1.099 1.1H154.513l-1.099-1.1v7.696c0 .599.5 1.099 1.099 1.099s1.099-.5 1.099-1.099v-6.696-1c0-.6-.5-1.1-1.099-1.1H146.823c-.599 0-1.099.5-1.099 1.1v7.696c0 .599.5 1.099 1.099 1.099H154.513c.599 0 1.099-.5 1.099-1.099 0-.6-.5-1.1-1.099-1.1z"/>
        <path fill="#DF357F" d="M172.989 97.876h-7.69v7.695h7.69v-7.695z"/>
        <path fill="#333" d="M172.989 104.471h-7.69l1.098 1.1v-6.696-1l-1.098 1.1H172.989l-1.099-1.1v7.696c0 .599.499 1.099 1.099 1.099.599 0 1.098-.5 1.098-1.099v-6.696-1c0-.6-.499-1.1-1.098-1.1h-7.69c-.599 0-1.099.5-1.099 1.1v7.696c0 .599.5 1.099 1.099 1.099H172.989c.599 0 1.098-.5 1.098-1.099 0-.6-.499-1.1-1.098-1.1z"/>
        <path fill="#DF357F" d="M223.423 101.374H194.66v5.097h28.763v-5.097z"/>
        <path fill="#333" d="M223.423 105.371H194.66l1.099 1.099v-5.097l-1.099 1.1h28.763l-1.099-1.1v5.097c0 1.399 2.197 1.499 2.197 0v-5.097c0-.599-.499-1.099-1.098-1.099H194.66c-.599 0-1.098.5-1.098 1.099v5.097c0 .6.499 1.099 1.098 1.099h28.763c1.398 0 1.398-2.198 0-2.198z"/>
        <path fill="#DF357F" d="M223.423 112.067H194.66v5.097h28.763v-5.097z"/>
        <path fill="#333" d="M223.423 116.064H194.66l1.099 1.1v-5.097l-1.099 1.099h28.763l-1.099-1.099v5.097c0 1.399 2.197 1.499 2.197 0v-5.097c0-.6-.499-1.1-1.098-1.1H194.66c-.599 0-1.098.5-1.098 1.1v5.097c0 .599.499 1.099 1.098 1.099h28.763c1.398.1 1.398-2.199 0-2.199z"/>
        <path fill="#DF357F" d="M223.423 122.861H194.66v5.097h28.763v-5.097z"/>
        <path fill="#333" d="M223.423 126.858H194.66l1.099 1.099v-5.097l-1.099 1.1h28.763l-1.099-1.1v5.097c0 1.4 2.197 1.5 2.197 0v-5.097c0-.599-.499-1.099-1.098-1.099H194.66c-.599 0-1.098.5-1.098 1.099v5.097c0 .6.499 1.1 1.098 1.1h28.763c1.398 0 1.398-2.199 0-2.199z"/>
        <path fill="#DF357F" d="M150.718 63.996h44.342l36.052 16.09h-44.441l-35.953-16.09z"/>
        <path fill="#333" d="M150.718 65.195h43.643c.199 0 .499.1.599 0 .399-.1-.4-.2-.4-.1.3.3 1.099.5 1.399.6 6.092 2.698 12.284 5.496 18.376 8.195l16.178 7.195.599-2.098H186.771c-.4.1.199-.1.399.1-.2-.3-1.098-.5-1.398-.6-6.092-2.699-12.184-5.397-18.276-8.195-5.393-2.399-10.886-4.797-16.279-7.296-1.298-.6-2.496 1.4-1.098 1.899 11.085 4.997 22.271 9.894 33.356 14.891.999.5 2.197 1.2 3.296 1.3 1.697.2 3.495 0 5.193 0H231.112c.999 0 1.598-1.6.6-2.1-11.086-4.997-22.271-9.894-33.357-14.89-.998-.5-2.297-1.3-3.395-1.4-1.698-.2-3.396 0-5.093 0h-39.249c-1.298.2-1.298 2.499.1 2.499z"/>
        <path fill="#DF357F" d="M231.312 80.087h-44.641v9.394h44.641v-9.394z"/>
        <path fill="#333" d="M231.312 88.381h-44.641l1.098 1.1v-9.395l-1.098 1.1H231.312l-1.098-1.1v9.394c0 1.4 2.197 1.5 2.197 0v-9.394c0-.6-.5-1.1-1.099-1.1h-44.641c-.6 0-1.099.5-1.099 1.1v9.394c0 .6.499 1.1 1.099 1.1H231.312c1.498.1 1.498-2.199 0-2.199zM157.809 117.264v25.485c0 1.399 2.197 1.499 2.197 0v-22.287-3.198c0-1.499-2.197-1.499-2.197 0zM143.627 131.955c1.103 0 1.998-.895 1.998-1.999s-.895-1.998-1.998-1.998-1.997.894-1.997 1.998.894 1.999 1.997 1.999z"/>
        <path fill="#DF357F" d="M213.336 21.721h-7.69v7.695h7.69v-7.695z"/>
        <path fill="#333" d="M213.236 28.317H205.546l1.099 1.099V22.72v-1l-1.099 1.1H213.236l-1.099-1.1v7.696c0 .6.5 1.1 1.099 1.1s1.098-.5 1.098-1.1V22.72v-1c0-.6-.499-1.099-1.098-1.099H205.546c-.599 0-1.099.5-1.099 1.1v7.695c0 .6.5 1.1 1.099 1.1H213.236c.599 0 1.098-.5 1.098-1.1.1-.6-.499-1.1-1.098-1.1z"/>
        <path fill="#DF357F" d="M230.114 21.721h-7.69v7.695h7.69v-7.695z"/>
        <path fill="#333" d="M230.014 28.317H222.324l1.098 1.099V22.72v-1l-1.098 1.1H230.014l-1.099-1.1v7.696c0 .6.5 1.1 1.099 1.1s1.098-.5 1.098-1.1V22.72v-1c0-.6-.499-1.099-1.098-1.099H222.324c-.599 0-1.099.5-1.099 1.1v7.695c0 .6.5 1.1 1.099 1.1H230.014c.599 0 1.098-.5 1.098-1.1.1-.6-.399-1.1-1.098-1.1z"/>
        <path fill="#DF357F" d="M246.892 21.721h-7.69v7.695h7.69v-7.695z"/>
        <path fill="#333" d="M246.792 28.317H239.102l1.099 1.099V22.72v-1l-1.099 1.1H246.792l-1.099-1.1v7.696c0 .6.5 1.1 1.099 1.1s1.098-.5 1.098-1.1V22.72v-1c0-.6-.499-1.099-1.098-1.099H239.102c-.599 0-1.099.5-1.099 1.1v7.695c0 .6.5 1.1 1.099 1.1H246.792c.599 0 1.098-.5 1.098-1.1.1-.6-.399-1.1-1.098-1.1z"/>
        <path fill="#DF357F" d="M263.67 21.721h-7.69v7.695h7.69v-7.695z"/>
        <path fill="#333" d="M263.67 28.317h-7.69l1.098 1.099V22.72v-1l-1.098 1.1H263.67l-1.099-1.1v7.696c0 .6.499 1.1 1.099 1.1.599 0 1.098-.5 1.098-1.1V22.72v-1c0-.6-.499-1.099-1.098-1.099h-7.69c-.599 0-1.099.5-1.099 1.1v7.695c0 .6.5 1.1 1.099 1.1H263.67c.599 0 1.098-.5 1.098-1.1 0-.6-.499-1.1-1.098-1.1z"/>
        <path fill="#DF357F" d="M213.336 38.711h-7.69v7.696h7.69V38.71z"/>
        <path fill="#333" d="M213.236 45.206H205.546l1.099 1.1V39.61v-1l-1.099 1.1H213.236l-1.099-1.1v7.696c0 .6.5 1.1 1.099 1.1s1.098-.5 1.098-1.1V39.61v-1c0-.6-.499-1.099-1.098-1.099H205.546c-.599 0-1.099.5-1.099 1.1V46.306c0 .6.5 1.1 1.099 1.1H213.236c.599 0 1.098-.5 1.098-1.1.1-.6-.499-1.1-1.098-1.1z"/>
        <path fill="#DF357F" d="M230.114 38.711h-7.69v7.696h7.69V38.71z"/>
        <path fill="#333" d="M230.014 45.206H222.324l1.098 1.1V39.61v-1l-1.098 1.1H230.014l-1.099-1.1v7.696c0 .6.5 1.1 1.099 1.1s1.098-.5 1.098-1.1V39.61v-1c0-.6-.499-1.099-1.098-1.099H222.324c-.599 0-1.099.5-1.099 1.1V46.306c0 .6.5 1.1 1.099 1.1H230.014c.599 0 1.098-.5 1.098-1.1.1-.6-.399-1.1-1.098-1.1z"/>
        <path fill="#DF357F" d="M246.892 38.711h-7.69v7.696h7.69V38.71z"/>
        <path fill="#333" d="M246.792 45.206H239.102l1.099 1.1V39.61v-1l-1.099 1.1H246.792l-1.099-1.1v7.696c0 .6.5 1.1 1.099 1.1s1.098-.5 1.098-1.1V39.61v-1c0-.6-.499-1.099-1.098-1.099H239.102c-.599 0-1.099.5-1.099 1.1V46.306c0 .6.5 1.1 1.099 1.1H246.792c.599 0 1.098-.5 1.098-1.1.1-.6-.399-1.1-1.098-1.1z"/>
        <path fill="#DF357F" d="M263.67 38.711h-7.69v7.696h7.69V38.71z"/>
        <path fill="#333" d="M263.67 45.206h-7.69l1.098 1.1V39.61v-1l-1.098 1.1H263.67l-1.099-1.1v7.696c0 .6.499 1.1 1.099 1.1.599 0 1.098-.5 1.098-1.1V39.61v-1c0-.6-.499-1.099-1.098-1.099h-7.69c-.599 0-1.099.5-1.099 1.1V46.306c0 .6.5 1.1 1.099 1.1H263.67c.599 0 1.098-.5 1.098-1.1 0-.6-.499-1.1-1.098-1.1z"/>
        <path fill="#DF357F" d="M213.336 55.601h-7.69v7.695h7.69v-7.695z"/>
        <path fill="#333" d="M213.236 62.196H205.546l1.099 1.1V56.6v-1l-1.099 1.1H213.236l-1.099-1.1v7.696c0 .6.5 1.1 1.099 1.1s1.098-.5 1.098-1.1V56.6v-1c0-.6-.499-1.099-1.098-1.099H205.546c-.599 0-1.099.5-1.099 1.1v7.695c0 .6.5 1.1 1.099 1.1H213.236c.599 0 1.098-.5 1.098-1.1.1-.6-.499-1.1-1.098-1.1z"/>
        <path fill="#DF357F" d="M230.114 55.601h-7.69v7.695h7.69v-7.695z"/>
        <path fill="#333" d="M230.014 62.196H222.324l1.098 1.1V56.6v-1l-1.098 1.1H230.014l-1.099-1.1v7.696c0 .6.5 1.1 1.099 1.1s1.098-.5 1.098-1.1V56.6v-1c0-.6-.499-1.099-1.098-1.099H222.324c-.599 0-1.099.5-1.099 1.1v7.695c0 .6.5 1.1 1.099 1.1H230.014c.599 0 1.098-.5 1.098-1.1.1-.6-.399-1.1-1.098-1.1z"/>
        <path fill="#DF357F" d="M246.892 55.601h-7.69v7.695h7.69v-7.695z"/>
        <path fill="#333" d="M246.792 62.196H239.102l1.099 1.1V56.6v-1l-1.099 1.1H246.792l-1.099-1.1v7.696c0 .6.5 1.1 1.099 1.1s1.098-.5 1.098-1.1V56.6v-1c0-.6-.499-1.099-1.098-1.099H239.102c-.599 0-1.099.5-1.099 1.1v7.695c0 .6.5 1.1 1.099 1.1H246.792c.599 0 1.098-.5 1.098-1.1.1-.6-.399-1.1-1.098-1.1z"/>
        <path fill="#DF357F" d="M263.67 55.601h-7.69v7.695h7.69v-7.695z"/>
        <path fill="#333" d="M263.67 62.196h-7.69l1.098 1.1V56.6v-1l-1.098 1.1H263.67l-1.099-1.1v7.696c0 .6.499 1.1 1.099 1.1.599 0 1.098-.5 1.098-1.1V56.6v-1c0-.6-.499-1.099-1.098-1.099h-7.69c-.599 0-1.099.5-1.099 1.1v7.695c0 .6.5 1.1 1.099 1.1H263.67c.599 0 1.098-.5 1.098-1.1 0-.6-.499-1.1-1.098-1.1z"/>
        <path fill="#fff" d="M76.316 99.775h-2.597v53.868h2.597V99.775z"/>
        <path fill="#333" d="M76.315 152.543H73.72l1.098 1.099v-18.189-28.983-6.596l-1.098 1.1h2.596l-1.098-1.1v53.768c0 1.4 2.197 1.5 2.197 0v-18.189-28.983-6.596c0-.6-.5-1.1-1.099-1.1H73.72c-.6 0-1.099.5-1.099 1.1v53.768c0 .6.5 1.1 1.099 1.1h2.596c1.399 0 1.498-2.199 0-2.199z"/>
        <path fill="#DF357F" d="M81.508 152.244H68.525v2.798h12.983v-2.798z"/>
        <path fill="#333" d="M81.508 153.942H68.526l1.098 1.099v-2.798l-1.098 1.099h12.982l-1.098-1.099v2.798c0 1.4 2.197 1.499 2.197 0v-2.798c0-.6-.5-1.099-1.099-1.099H68.526c-.6 0-1.099.499-1.099 1.099v2.798c0 .6.5 1.1 1.099 1.1h12.982c1.399 0 1.399-2.199 0-2.199zM57.94 99.374c.1-4.397 3.595-7.995 7.989-7.995s7.89 3.598 7.99 7.995c0 1.4 2.297 1.5 2.197 0-.1-4.297-2.697-8.095-6.692-9.594-3.895-1.499-8.688-.3-11.385 2.998-1.598 1.9-2.397 4.198-2.397 6.596 0 1.5 2.297 1.5 2.297 0z"/>
        <path fill="#fff" d="M56.84 104.272c2.398 0 4.295-1.899 4.295-4.297h-8.588c0 2.298 1.897 4.297 4.294 4.297z"/>
        <path fill="#333" d="M56.84 105.371c2.997 0 5.394-2.499 5.394-5.397 0-.6-.5-1.1-1.099-1.1h-8.688c-.6 0-1.099.5-1.099 1.1.1 2.898 2.497 5.297 5.493 5.397 1.398 0 1.398-2.199 0-2.199-.5 0-.799 0-1.298-.3l-.2-.1c-.1-.1-.2-.099-.3-.199 0 0-.3-.2-.1-.1l-.3-.3c-.299-.3-.498-.6-.698-1-.2-.399-.2-.799-.3-1.299l-1.098 1.1h8.688l-1.098-1.1c0 .5 0 .8-.3 1.299l-.1.2c-.1.1-.1.2-.2.3 0 0-.2.3-.1.1l-.3.3c-.299.3-.598.5-.998.699-.4.2-.799.2-1.298.3-1.498.1-1.498 2.299 0 2.299zM94.292 99.374c-.1-4.297-2.697-8.095-6.691-9.594-3.895-1.499-8.689-.3-11.385 2.998-1.598 1.9-2.397 4.198-2.397 6.596 0 1.4 2.197 1.4 2.197 0 .1-4.397 3.595-7.995 7.99-7.995 4.394 0 7.889 3.598 7.989 7.995.1 1.5 2.397 1.5 2.297 0z"/>
        <path fill="#fff" d="M93.193 104.272c-2.396 0-4.294-1.899-4.294-4.297h8.589c0 2.298-1.898 4.297-4.295 4.297z"/>
        <path fill="#333" d="M93.193 103.072c-.499 0-.799 0-1.298-.299l-.2-.1c-.1-.1-.2-.1-.3-.2 0 0-.299-.2-.1-.1l-.299-.3c-.3-.3-.5-.6-.699-.999-.2-.4-.2-.8-.3-1.3l-1.098 1.1h8.689l-1.099-1.1c0 .5 0 .8-.3 1.3l-.1.199c-.1.1-.1.2-.2.3 0 0-.199.3-.099.1l-.3.3c-.3.3-.599.5-.998.7-.4.399-.8.399-1.299.399-1.398 0-1.498 2.299 0 2.199 2.996 0 5.393-2.498 5.393-5.397 0-.6-.5-1.1-1.098-1.1h-8.689c-.6 0-1.098.5-1.098 1.1 0 2.998 2.496 5.397 5.393 5.397 1.597.1 1.597-2.099.1-2.199z"/>
        <path fill="#DF357F" d="M209.541 149.445c-2.397-3.298-5.094-6.795-9.088-7.495-.7-.1-1.399-.1-1.998-.4-.799-.4-1.398-1.099-1.997-1.799-1.598-1.799-3.595-3.298-5.992-3.598-2.397-.299-4.994 1-5.693 3.298-.299 1-.399 2.299-1.298 2.699-.599.3-1.398 0-2.097-.2-4.095-1.099-8.889 3.598-10.487 7.495h38.65z"/>
        <path fill="#333" d="M210.539 148.845c-1.997-2.798-4.294-5.796-7.49-7.296-1.797-.799-3.795-.499-5.193-2.098-1.198-1.399-2.497-2.699-4.095-3.598-2.996-1.599-6.891-1.399-9.088 1.399-.499.6-.799 1.299-.998 1.999-.1.3-.1.599-.2.899-.2.7-.599.7-1.298.6-1.598-.3-2.897-.4-4.495.2-3.395 1.299-6.191 4.497-7.59 7.795-.299.8 0 1.699.999 1.699h38.55c1.398 0 1.498-2.199 0-2.199h-38.55c.3.6.599 1.1.999 1.699 1.198-2.698 3.295-5.296 5.892-6.596 1.498-.699 2.597-.499 4.095-.199 1.498.299 2.796-.3 3.395-1.699.599-1.4.599-2.699 1.998-3.598 1.398-.9 3.096-.9 4.693-.3 1.598.699 2.897 1.899 3.995 3.198 1.299 1.499 2.297 1.899 4.195 2.199 3.795.699 6.291 3.997 8.389 6.995.699 1.2 2.696.1 1.797-1.099z"/>
        <path fill="#fff" d="M99.185 21.721h-60.72c-2.497 0-4.494 1.999-4.494 4.497 0 2.499 1.997 4.498 4.494 4.498h4.294c2.597.3 4.594 2.198 4.594 4.497 0 2.499-2.397 4.497-5.393 4.497H29.177c-2.497 0-4.494 2-4.494 4.498s1.997 4.497 4.494 4.497h53.63c2.497 0 4.494-1.999 4.494-4.497 0-2.499-1.997-4.498-4.494-4.498h-.899c-2.996 0-5.393-1.998-5.393-4.497 0-2.299 1.998-4.098 4.594-4.497h18.076c2.497 0 4.495-2 4.495-4.498s-2.098-4.497-4.495-4.497z"/>
        <path fill="#333" d="M99.185 20.521H38.865c-1.698 0-3.196.5-4.395 1.799-2.197 2.299-1.997 6.096.5 8.195 1.897 1.6 4.394 1.3 6.69 1.3 1.1 0 2.098.1 3.097.699 1.398.9 1.997 2.598 1.098 3.998-1.098 1.898-3.295 1.898-5.293 1.898H29.277c-2.996.1-5.493 2.3-5.693 5.297-.2 3.298 2.397 5.897 5.593 5.997H66.33c5.492 0 10.985.2 16.478 0 2.896-.1 5.393-2.299 5.593-5.297.2-3.298-2.497-5.896-5.693-5.996-1.398 0-2.796-.1-3.895-1-1.298-1-1.698-2.698-.699-4.098 1.099-1.599 2.796-1.699 4.494-1.699H98.986c2.996-.1 5.492-2.398 5.592-5.496.3-2.998-2.297-5.497-5.393-5.597-1.398-.1-1.398 2.199 0 2.199 3.496.1 4.694 5.097 1.299 6.496-.999.4-2.497.3-3.596.3H84.205c-.999 0-2.097-.1-3.196 0-2.896.2-5.792 2.498-5.792 5.596 0 3.099 2.896 5.297 5.792 5.597 1.199.1 2.397-.1 3.496.6 1.298.9 1.897 2.698 1.198 4.097-.999 2.399-3.695 2-5.792 2H33.072c-1.498 0-3.096.2-4.594 0-3.495-.5-3.795-5.697-.3-6.597 1.299-.3 2.797-.1 4.095-.1h6.691c1.398 0 2.996.1 4.395-.2 2.896-.6 5.392-3.198 4.893-6.296-.4-2.798-3.196-4.697-5.892-4.797-1.798-.1-4.195.5-5.792-.5-2.897-1.799-1.498-6.096 1.797-6.296 4.594-.2 9.288 0 13.982 0H99.085c1.499.2 1.499-2.099.1-2.099z"/>
        <path fill="#fff" d="M113.566 30.716c2.483 0 4.495-2.014 4.495-4.498 0-2.483-2.012-4.497-4.495-4.497-2.482 0-4.494 2.014-4.494 4.497 0 2.484 2.012 4.498 4.494 4.498z"/>
        <path fill="#333" d="M110.171 26.218c0-1.4.899-2.699 2.197-3.198.2-.1.4-.1.599-.2h.4c.499 0 .699 0 1.098.1.4.1.5.2.899.4.3.2.5.4.799.7-.1-.1 0 0 0 .1.1.099.1.199.2.299 0 .1.1.1.1.2 0 0 .199.3.1.2.099.2.099.4.199.6.1.3.1.3.1.499 0 .4 0 .7-.1 1-.1.5-.199.699-.399 1.099-.699 1.199-2.197 1.899-3.496 1.599-1.597-.4-2.696-1.8-2.696-3.398 0-1.4-2.297-1.5-2.197 0 0 2.398 1.498 4.497 3.695 5.297 2.097.8 4.794.1 6.192-1.7 1.498-1.798 1.798-4.397.499-6.495-1.198-2.1-3.595-3.099-5.892-2.599-2.597.5-4.494 2.898-4.494 5.497-.1 1.399 2.197 1.399 2.197 0z"/>
    </g>
</svg>
