<svg xmlns="http://www.w3.org/2000/svg" width="375" height="45" fill="none" viewBox="0 0 375 45">
    <path fill="#F6F2EF" d="M276.258 45v-3.584h-3.594v-1.692h3.594V36.14h1.697v3.584h3.594v1.692h-3.594V45h-1.697zM259.685 45v-3.584h-3.595v-1.692h3.595V36.14h1.697v3.584h3.594v1.692h-3.594V45h-1.697zM243.211 45v-3.584h-3.594v-1.692h3.594V36.14h1.697v3.584h3.594v1.692h-3.594V45h-1.697zM276.258 26.183V22.6h-3.594v-1.692h3.594v-3.584h1.697v3.584h3.594v1.692h-3.594v3.584h-1.697zM259.685 26.183V22.6h-3.595v-1.692h3.595v-3.584h1.697v3.584h3.594v1.692h-3.594v3.584h-1.697zM243.211 26.183V22.6h-3.594v-1.692h3.594v-3.584h1.697v3.584h3.594v1.692h-3.594v3.584h-1.697zM276.258 8.86V5.278h-3.594V3.584h3.594V0h1.697v3.584h3.594v1.693h-3.594V8.86h-1.697zM259.685 8.86V5.278h-3.595V3.584h3.595V0h1.697v3.584h3.594v1.693h-3.594V8.86h-1.697zM243.211 8.86V5.278h-3.594V3.584h3.594V0h1.697v3.584h3.594v1.693h-3.594V8.86h-1.697zM228.535 45v-3.584h-3.595v-1.692h3.595V36.14h1.697v3.584h3.594v1.692h-3.594V45h-1.697zM212.061 45v-3.584h-3.594v-1.692h3.594V36.14h1.697v3.584h3.595v1.692h-3.695V45h-1.597zM195.487 45v-3.584h-3.594v-1.692h3.594V36.14h1.698v3.584h3.594v1.692h-3.594V45h-1.698zM228.535 26.183V22.6h-3.595v-1.692h3.595v-3.584h1.697v3.584h3.594v1.692h-3.594v3.584h-1.697zM212.061 26.183V22.6h-3.594v-1.692h3.594v-3.584h1.697v3.584h3.595v1.692h-3.695v3.584h-1.597zM195.487 26.183V22.6h-3.594v-1.692h3.594v-3.584h1.698v3.584h3.594v1.692h-3.594v3.584h-1.698zM228.535 8.86V5.278h-3.595V3.584h3.595V0h1.697v3.584h3.594v1.693h-3.594V8.86h-1.697zM212.061 8.86V5.278h-3.594V3.584h3.594V0h1.697v3.584h3.595v1.693h-3.695V8.86h-1.597zM195.487 8.86V5.278h-3.594V3.584h3.594V0h1.698v3.584h3.594v1.693h-3.594V8.86h-1.698zM315.196 8.96c2.481 0 4.493-2.006 4.493-4.48 0-2.474-2.012-4.48-4.493-4.48-2.481 0-4.493 2.006-4.493 4.48 0 2.474 2.012 4.48 4.493 4.48zM315.196 26.98c2.481 0 4.493-2.006 4.493-4.48 0-2.474-2.012-4.48-4.493-4.48-2.481 0-4.493 2.006-4.493 4.48 0 2.474 2.012 4.48 4.493 4.48zM315.196 45c2.481 0 4.493-2.006 4.493-4.48 0-2.474-2.012-4.48-4.493-4.48-2.481 0-4.493 2.006-4.493 4.48 0 2.474 2.012 4.48 4.493 4.48zM333.666 8.96c2.481 0 4.493-2.006 4.493-4.48 0-2.474-2.012-4.48-4.493-4.48-2.481 0-4.493 2.006-4.493 4.48 0 2.474 2.012 4.48 4.493 4.48zM333.666 26.98c2.481 0 4.493-2.006 4.493-4.48 0-2.474-2.012-4.48-4.493-4.48-2.481 0-4.493 2.006-4.493 4.48 0 2.474 2.012 4.48 4.493 4.48zM333.666 45c2.481 0 4.493-2.006 4.493-4.48 0-2.474-2.012-4.48-4.493-4.48-2.481 0-4.493 2.006-4.493 4.48 0 2.474 2.012 4.48 4.493 4.48zM352.037 8.96c2.481 0 4.493-2.006 4.493-4.48 0-2.474-2.012-4.48-4.493-4.48-2.482 0-4.493 2.006-4.493 4.48 0 2.474 2.011 4.48 4.493 4.48zM352.037 26.98c2.481 0 4.493-2.006 4.493-4.48 0-2.474-2.012-4.48-4.493-4.48-2.482 0-4.493 2.006-4.493 4.48 0 2.474 2.011 4.48 4.493 4.48zM352.037 45c2.481 0 4.493-2.006 4.493-4.48 0-2.474-2.012-4.48-4.493-4.48-2.482 0-4.493 2.006-4.493 4.48 0 2.474 2.011 4.48 4.493 4.48zM370.507 8.96c2.481 0 4.493-2.006 4.493-4.48 0-2.474-2.012-4.48-4.493-4.48-2.481 0-4.493 2.006-4.493 4.48 0 2.474 2.012 4.48 4.493 4.48zM370.507 26.98c2.481 0 4.493-2.006 4.493-4.48 0-2.474-2.012-4.48-4.493-4.48-2.481 0-4.493 2.006-4.493 4.48 0 2.474 2.012 4.48 4.493 4.48zM370.507 45c2.481 0 4.493-2.006 4.493-4.48 0-2.474-2.012-4.48-4.493-4.48-2.481 0-4.493 2.006-4.493 4.48 0 2.474 2.012 4.48 4.493 4.48zM296.725 8.96c2.482 0 4.493-2.006 4.493-4.48 0-2.474-2.011-4.48-4.493-4.48-2.481 0-4.493 2.006-4.493 4.48 0 2.474 2.012 4.48 4.493 4.48zM296.725 26.98c2.482 0 4.493-2.006 4.493-4.48 0-2.474-2.011-4.48-4.493-4.48-2.481 0-4.493 2.006-4.493 4.48 0 2.474 2.012 4.48 4.493 4.48zM296.725 45c2.482 0 4.493-2.006 4.493-4.48 0-2.475-2.011-4.48-4.493-4.48-2.481 0-4.493 2.005-4.493 4.48 0 2.474 2.012 4.48 4.493 4.48zM84.365 45v-3.584H80.77v-1.692h3.594V36.14h1.697v3.584h3.594v1.692h-3.594V45h-1.697zM67.891 45v-3.584h-3.594v-1.692h3.594V36.14h1.697v3.584h3.595v1.692h-3.595V45h-1.697zM51.318 45v-3.584h-3.594v-1.692h3.594V36.14h1.697v3.584h3.594v1.692h-3.594V45h-1.697zM84.365 26.183V22.6H80.77v-1.692h3.594v-3.584h1.697v3.584h3.594v1.692h-3.594v3.584h-1.697zM67.891 26.183V22.6h-3.594v-1.692h3.594v-3.584h1.697v3.584h3.595v1.692h-3.595v3.584h-1.697zM51.318 26.183V22.6h-3.594v-1.692h3.594v-3.584h1.697v3.584h3.594v1.692h-3.594v3.584h-1.697zM84.365 8.86V5.278H80.77V3.584h3.594V0h1.697v3.584h3.594v1.693h-3.594V8.86h-1.697zM67.891 8.86V5.278h-3.594V3.584h3.594V0h1.697v3.584h3.595v1.693h-3.595V8.86h-1.697zM51.318 8.86V5.278h-3.594V3.584h3.594V0h1.697v3.584h3.594v1.693h-3.594V8.86h-1.697zM36.642 45v-3.584h-3.595v-1.692h3.595V36.14h1.697v3.584h3.594v1.692H38.34V45h-1.697zM20.168 45v-3.584h-3.594v-1.692h3.594V36.14h1.697v3.584h3.595v1.692h-3.595V45h-1.697zM3.594 45v-3.584H0v-1.692h3.594V36.14h1.698v3.584h3.594v1.692H5.292V45H3.594zM36.642 26.183V22.6h-3.595v-1.692h3.595v-3.584h1.697v3.584h3.594v1.692H38.34v3.584h-1.697zM20.168 26.183V22.6h-3.594v-1.692h3.594v-3.584h1.697v3.584h3.595v1.692h-3.595v3.584h-1.697zM3.594 26.183V22.6H0v-1.692h3.594v-3.584h1.698v3.584h3.594v1.692H5.292v3.584H3.594zM36.642 8.86V5.278h-3.595V3.584h3.595V0h1.697v3.584h3.594v1.693H38.34V8.86h-1.697zM20.168 8.86V5.278h-3.594V3.584h3.594V0h1.697v3.584h3.595v1.693h-3.595V8.86h-1.697zM3.594 8.86V5.278H0V3.584h3.594V0h1.698v3.584h3.594v1.693H5.292V8.86H3.594zM123.303 8.96c2.481 0 4.493-2.006 4.493-4.48 0-2.474-2.012-4.48-4.493-4.48-2.481 0-4.493 2.006-4.493 4.48 0 2.474 2.012 4.48 4.493 4.48zM123.303 26.98c2.481 0 4.493-2.006 4.493-4.48 0-2.474-2.012-4.48-4.493-4.48-2.481 0-4.493 2.006-4.493 4.48 0 2.474 2.012 4.48 4.493 4.48zM123.303 45c2.481 0 4.493-2.006 4.493-4.48 0-2.474-2.012-4.48-4.493-4.48-2.481 0-4.493 2.006-4.493 4.48 0 2.474 2.012 4.48 4.493 4.48zM141.773 8.96c2.481 0 4.493-2.006 4.493-4.48 0-2.474-2.012-4.48-4.493-4.48-2.481 0-4.493 2.006-4.493 4.48 0 2.474 2.012 4.48 4.493 4.48zM141.773 26.98c2.481 0 4.493-2.006 4.493-4.48 0-2.474-2.012-4.48-4.493-4.48-2.481 0-4.493 2.006-4.493 4.48 0 2.474 2.012 4.48 4.493 4.48zM141.773 45c2.481 0 4.493-2.006 4.493-4.48 0-2.474-2.012-4.48-4.493-4.48-2.481 0-4.493 2.006-4.493 4.48 0 2.474 2.012 4.48 4.493 4.48zM160.144 8.96c2.481 0 4.492-2.006 4.492-4.48 0-2.474-2.011-4.48-4.492-4.48-2.482 0-4.493 2.006-4.493 4.48 0 2.474 2.011 4.48 4.493 4.48zM160.144 26.98c2.481 0 4.492-2.006 4.492-4.48 0-2.474-2.011-4.48-4.492-4.48-2.482 0-4.493 2.006-4.493 4.48 0 2.474 2.011 4.48 4.493 4.48zM160.144 45c2.481 0 4.492-2.006 4.492-4.48 0-2.474-2.011-4.48-4.492-4.48-2.482 0-4.493 2.006-4.493 4.48 0 2.474 2.011 4.48 4.493 4.48zM178.614 8.96c2.481 0 4.493-2.006 4.493-4.48 0-2.474-2.012-4.48-4.493-4.48-2.481 0-4.493 2.006-4.493 4.48 0 2.474 2.012 4.48 4.493 4.48zM178.614 26.98c2.481 0 4.493-2.006 4.493-4.48 0-2.474-2.012-4.48-4.493-4.48-2.481 0-4.493 2.006-4.493 4.48 0 2.474 2.012 4.48 4.493 4.48zM178.614 45c2.481 0 4.493-2.006 4.493-4.48 0-2.474-2.012-4.48-4.493-4.48-2.481 0-4.493 2.006-4.493 4.48 0 2.474 2.012 4.48 4.493 4.48zM104.832 8.96c2.481 0 4.493-2.006 4.493-4.48 0-2.474-2.012-4.48-4.493-4.48-2.481 0-4.493 2.006-4.493 4.48 0 2.474 2.012 4.48 4.493 4.48zM104.832 26.98c2.481 0 4.493-2.006 4.493-4.48 0-2.474-2.012-4.48-4.493-4.48-2.481 0-4.493 2.006-4.493 4.48 0 2.474 2.012 4.48 4.493 4.48zM104.832 45c2.481 0 4.493-2.006 4.493-4.48 0-2.475-2.012-4.48-4.493-4.48-2.481 0-4.493 2.005-4.493 4.48 0 2.474 2.012 4.48 4.493 4.48z"/>
</svg>
