<svg xmlns="http://www.w3.org/2000/svg" width="187" height="213" fill="none" viewBox="0 0 187 213">
    <path fill="#fff" d="M35.265 89.922h52.068c2.099 0 3.898 1.698 3.898 3.896 0 2.097-1.7 3.895-3.898 3.895h-3.698c-2.198.3-3.997 1.898-3.997 3.796 0 2.098 2.099 3.896 4.597 3.896h10.993c2.099 0 3.898 1.698 3.898 3.896 0 2.098-1.699 3.896-3.898 3.896H49.257c-2.1 0-3.898-1.698-3.898-3.896 0-2.098 1.699-3.896 3.898-3.896h.8c2.598 0 4.596-1.698 4.596-3.896 0-1.898-1.699-3.496-3.997-3.796h-15.39c-2.1 0-3.898-1.698-3.898-3.895 0-2.198 1.699-3.896 3.897-3.896z"/>
    <path fill="#333" d="M35.264 91.02H87.333c2.898.2 3.797 4.196.999 5.295-1.4.5-3.098.1-4.597.2-2.399.1-4.797 1.898-5.097 4.295-.4 2.597 1.599 4.795 3.997 5.394 1.2.3 2.599.2 3.898.2h5.696c1.1 0 2.299-.1 3.398 0 3.098.4 3.098 5.095 0 5.494-.4.1-.8 0-1.199 0h-6.596c-12.692 0-25.484.1-38.176 0-1.3 0-2.399-.499-2.899-1.798-.5-1.199 0-2.497 1-3.196 1-.7 2.198-.4 3.398-.6 2.398-.399 4.697-2.297 4.697-4.894 0-2.697-2.499-4.795-5.097-4.895-2.698-.2-5.397 0-8.095 0h-5.297c-.9 0-1.999.2-2.898-.1-2.998-.999-2.199-5.294.8-5.394 1.399-.1 1.499-2.298 0-2.198-2.699.1-4.997 2.198-4.997 4.995s2.298 4.895 4.996 4.994c2.899.1 5.797 0 8.695 0h5.397c1.499 0 2.898.1 3.797 1.499.8 1.198.2 2.597-.899 3.396-1.1.699-2.099.5-3.298.599-2.798.2-4.897 2.698-4.597 5.495.3 2.597 2.398 4.395 4.997 4.495H91.53c1.399 0 2.798.1 4.097 0 2.799-.2 4.897-2.697 4.597-5.494-.3-2.598-2.398-4.396-4.996-4.496-3.198-.099-6.496 0-9.694 0-1.6 0-3.498 0-4.498-1.598-.8-1.298 0-2.697 1.2-3.396.899-.5 1.599-.4 2.598-.4 1.999 0 4.097.2 5.696-1.298 2-1.798 2.2-4.995.4-6.993-1.599-1.798-3.598-1.698-5.796-1.698h-50.07c-1.299-.1-1.299 2.098.2 2.098z"/>
    <path fill="#fff" d="M22.872 97.713c2.153 0 3.898-1.744 3.898-3.895 0-2.152-1.745-3.896-3.898-3.896-2.152 0-3.897 1.744-3.897 3.896 0 2.151 1.745 3.895 3.897 3.895z"/>
    <path fill="#333" d="M27.869 93.818c0-2.098-1.3-3.896-3.298-4.695-1.9-.7-4.198-.1-5.497 1.498-1.3 1.599-1.6 3.896-.5 5.794 1.1 1.798 3.198 2.697 5.297 2.298 2.299-.5 3.998-2.597 3.998-4.895 0-.6-.5-1.099-1.1-1.099-.6 0-1.1.5-1.1 1.099v.3c0 .2 0 .1 0 0 0 .2-.1.3-.1.5 0 .099-.099.199-.099.299 0 0 .1-.2 0 0s-.2.4-.3.5c-.2.299.1-.1 0 .1l-.2.199-.1.1s-.3.2-.1.1c-.1.1-.3.2-.4.3-.1 0-.1.1-.2.1-.1.1-.1.1 0 0 0 0-.1 0-.1.1-.199.099-.299.099-.499.099h-.9c-.2 0 .3.1-.1 0-.1 0-.2 0-.299-.1-.1 0-.2-.1-.3-.1 0 0-.2-.1 0 0-.2-.1-.3-.2-.4-.2-.1 0-.1-.1-.2-.1-.2-.1.2.2 0 0l-.4-.399c.1.1 0 0 0 0-.1-.1-.1-.2-.2-.3 0-.1-.099-.1-.099-.2 0 0-.2-.3-.1-.1-.1-.2-.1-.299-.2-.499v-.2c0-.1 0-.1 0 0v-.2-.499s.1-.4 0-.1v-.2c0-.2.1-.3.1-.499.1-.3-.1.2 0-.1 0-.1.1-.2.1-.3 0-.1.1-.1.1-.2 0 0 .2-.2 0-.1.1-.1.2-.299.3-.399l.1-.1.1-.1c.2-.1.3-.2.5-.3 0 0-.2.1 0 0 .1 0 .2-.1.3-.1.1 0 .1 0 .199-.099 0 0 .3-.1.2 0h.9c.2 0 .4.1.599.2.3.1-.1-.1.1 0 .1.1.2.1.3.2.1 0 .1.1.2.1s.1.1.2.1c-.1-.1-.1-.1 0 0l.4.399c.2.2-.1-.2.1.1.1.1.1.2.2.3.099.1.099.2.099.3.1.199 0-.1 0 .099.1.2.1.4.2.6 0 0 0 .2 0 0v.399c0 .6.5 1.099 1.1 1.099.599 0 1.099-.5 1.099-1.1zM75.14 159.647c-5.297 2.397-10.394 5.794-14.291 10.189-1 1.199-.6 3.196-.6 4.695v24.573c0 1.399 2.198 1.499 2.198 0v-24.673-3.496c-.1.299-.2.499-.3.799 3.998-4.296 8.695-7.692 14.092-10.089 1.3-.6.2-2.498-1.1-1.998z"/>
    <path fill="#333" d="M62.547 170.835c-1-7.093-1.2-14.185-.7-21.277.1-1.399-2.198-1.399-2.198 0-.5 7.292-.2 14.684.8 21.876.1 1.399 2.298.799 2.098-.599z"/>
    <path fill="#DF357F" d="M46.657 182.222c1.3-3.895.6-8.391-1.699-11.687-.9-1.399-2.198-2.697-2.298-4.395-.1-1.798 1.199-3.297 1.799-4.895 2.298-5.494-1.9-11.687-6.896-14.884-1-.599-1.999-1.199-2.299-2.297-.2-.6 0-1.299 0-1.898.4-3.397-1.299-6.793-3.697-9.29-2.399-2.498-4.598-4.196-7.496-5.894-2.998 1.698-5.197 3.396-7.495 5.894-2.399 2.497-3.998 5.793-3.698 9.29.1.599.2 1.298 0 1.898-.3 1.098-1.399 1.698-2.299 2.297-5.096 3.197-9.294 9.39-6.895 14.884.7 1.598 1.899 3.097 1.799 4.895-.1 1.698-1.3 2.996-2.299 4.395-2.298 3.396-2.998 7.792-1.699 11.687.8 2.398 2.299 4.695 1.999 7.193-.3 3.196-3.398 5.993-2.499 9.09 1 3.196 44.973 3.196 45.972 0 .9-3.097-2.099-5.894-2.498-9.09 0-2.498 1.499-4.795 2.198-7.193z"/>
    <path fill="#333" d="M47.756 182.522c1.3-4.195.7-8.89-1.799-12.586-.6-.899-1.399-1.798-1.798-2.797-.5-1.199-.1-2.398.5-3.496.999-1.898 1.798-3.696 1.798-5.794-.1-4.096-2.598-7.792-5.496-10.489-.8-.699-1.6-1.299-2.499-1.898-1-.599-1.999-1.099-1.999-2.397 0-1.099.2-2.098.1-3.197-.1-1.199-.5-2.297-.9-3.396-1.998-4.595-6.495-8.091-10.793-10.589-.3-.2-.8-.2-1.099 0-5.596 3.197-12.292 8.791-11.793 15.883.1.899.3 1.798-.3 2.497-.5.6-1.399.999-1.998 1.399-1.3.899-2.499 1.998-3.598 3.097-2.099 2.297-3.698 5.194-3.898 8.391-.1 1.498.1 2.996.7 4.395.7 1.598 2.199 3.296 1.599 5.094-.5 1.698-1.999 2.997-2.798 4.495-.8 1.499-1.3 3.097-1.5 4.795-.2 1.599-.2 3.297.1 4.895.4 1.798 1.2 3.496 1.9 5.294.6 1.798.699 3.397-.1 5.095-.6 1.498-1.5 2.897-1.9 4.395-.3 1.399-.4 3.297 1 4.096.8.499 1.899.699 2.798.899 3.298.599 6.696.799 9.994.999 8.395.399 16.89.399 25.285-.3 2.498-.2 5.396-.3 7.695-1.399 1.299-.599 1.599-1.698 1.499-3.096-.2-3.297-3.198-5.894-2.499-9.29.3-1.598 1.2-3.297 1.8-4.995.499-1.398-1.7-1.998-2.2-.599-1.099 3.196-2.798 6.093-1.598 9.49.5 1.398 1.299 2.597 1.799 3.995.2.6.4 1.299.4 1.998v.4c-.1.399-.1.399 0 .1-.1 0 0 0 0-.1 0 0 .2-.1-.1.1-.3.099-.2.099-.2.099-.4.2-.9.3-1.3.4-1.199.3-2.398.4-3.697.599-7.696.899-15.59.899-23.386.6-3.598-.1-7.196-.3-10.793-.699-1.1-.1-2.299-.3-3.398-.6-.2-.1-.4-.1-.6-.2-.1 0-.2-.1-.3-.1-.3-.099.2.1 0 0-.1 0-.3-.199-.4-.199 0 0 .2.1.1.1 0 .099.1.099.1.199-.1-.199-.1-.499-.1-.699 0-.3 0-.699.1-.999.2-.699.5-1.398.8-1.998.7-1.398 1.4-2.797 1.699-4.295.6-3.296-1.6-6.093-2.299-9.29-.8-3.296 0-6.893 1.9-9.69.799-1.198 1.898-2.397 2.298-3.895.4-1.699-.1-3.197-.9-4.695-.9-1.599-1.499-3.097-1.399-4.995.1-1.698.8-3.296 1.6-4.795.899-1.498 2.098-2.897 3.497-3.995 1.3-.999 2.898-1.699 3.997-2.997 1.2-1.499.6-3.097.7-4.795.1-1.998.9-3.896 1.999-5.494 2.099-3.097 5.497-5.594 8.694-7.392h-1.099c3.698 2.098 7.496 4.994 9.494 8.89.5.999.9 2.098 1.1 3.197.2 1.099-.1 2.197-.1 3.296 0 2.098 1.499 3.097 3.098 4.196 3.198 2.097 6.296 5.494 6.796 9.49.3 2.197-.5 3.895-1.5 5.793-.899 1.898-1.299 3.696-.4 5.594.5 1.099 1.3 1.898 1.9 2.897.7.999 1.199 2.098 1.499 3.297.7 2.397.7 4.994-.1 7.392-.3 1.198 1.899 1.798 2.298.399z"/>
    <path fill="#333" d="M34.664 178.027c-4.097 1.798-7.995 4.395-10.993 7.792-.9.999-.6 2.497-.6 3.696v19.079c0 1.399 2.2 1.499 2.2 0v-19.079-2.697c-.1.299-.2.499-.3.799 3.097-3.297 6.695-5.894 10.893-7.692 1.299-.499.1-2.497-1.2-1.898z"/>
    <path fill="#333" d="M25.27 186.817c-.7-5.394-.9-10.988-.5-16.382.1-1.398-2.198-1.398-2.198 0-.4 5.694-.2 11.388.6 16.982.1.599.899.899 1.399.799.6-.2.8-.799.7-1.399z"/>
    <path fill="#fff" d="M111.118 208.194H36.864v-69.425l37.177-15.383 37.077 15.383v69.425z"/>
    <path fill="#333" d="M111.117 207.096H36.863l1.1 1.098V184.72v-37.36-8.591c-.3.4-.6.699-.8 1.099 10.793-4.495 21.587-8.99 32.48-13.485 1.1-.4 2.099-.9 3.198-1.299.3-.1 1.2-.3 1.5-.599.199-.2-.5-.2-.4 0 .1.099.4.199.499.199.8.3 1.5.6 2.299.899 6.296 2.598 12.692 5.295 18.988 7.892 5.097 2.098 10.094 4.195 15.191 6.293-.3-.399-.6-.699-.8-1.099v69.425c0 1.399 2.199 1.499 2.199 0V184.62v-37.36-8.591c0-.499-.4-.899-.8-1.099-10.893-4.595-21.786-9.09-32.78-13.685-1.299-.599-2.798-1.398-4.197-1.798-1-.2-2.599.799-3.498 1.199-6.396 2.697-12.792 5.294-19.188 7.991-5.097 2.098-10.094 4.196-15.19 6.293-.5.2-.8.5-.8 1.099v69.425c0 .6.5 1.099 1.1 1.099h74.253c1.3.1 1.3-2.097-.1-2.097z"/>
    <path fill="#F0D227" d="M74.14 119.89l-44.672 19.878v7.992l44.673-19.779 44.372 19.779v-7.992L74.141 119.89z"/>
    <path fill="#333" d="M73.54 118.991c-4.997 2.197-10.094 4.495-15.09 6.692-7.995 3.497-15.99 7.093-23.986 10.589-1.798.799-3.697 1.598-5.496 2.497-.4.2-.6.6-.6.999v8.091c0 .899.9 1.299 1.7.999 4.996-2.197 10.093-4.495 15.09-6.692 7.995-3.497 15.99-7.093 23.985-10.589 1.799-.799 3.698-1.598 5.497-2.497h-1.1c4.997 2.197 9.994 4.495 14.991 6.692 7.995 3.597 15.99 7.093 23.885 10.689 1.799.799 3.598 1.598 5.497 2.397.799.3 1.699 0 1.699-.999v-8.091c0-.399-.2-.799-.6-.999-4.997-2.197-9.994-4.495-14.99-6.693-7.996-3.596-15.99-7.092-23.886-10.688-1.799-.799-3.597-1.598-5.496-2.397-1.3-.6-2.499 1.398-1.1 1.898 4.997 2.197 9.994 4.495 14.991 6.692 7.995 3.596 15.99 7.093 23.885 10.689 1.799.799 3.598 1.598 5.497 2.397-.2-.299-.4-.599-.6-.999v8.092c.6-.3 1.1-.6 1.699-.999-5.097-2.298-10.193-4.496-15.29-6.793-7.995-3.596-15.99-7.092-23.985-10.689-1.7-.799-3.398-1.598-5.097-2.297-1.3-.5-3.398.999-4.498 1.498-7.695 3.397-15.29 6.793-22.985 10.189-3.898 1.699-7.696 3.397-11.593 5.095-2.099.899-4.398 1.698-6.396 2.897-.1.1-.2.1-.3.1.6.299 1.1.599 1.699.999v-8.092c-.2.3-.4.6-.6.999 4.997-2.197 10.094-4.495 15.09-6.693 7.996-3.496 15.991-7.092 23.986-10.588 1.799-.799 3.698-1.598 5.497-2.497 1.399-.6.3-2.498-1-1.898z"/>
    <path fill="#F0D227" d="M54.852 165.041c3.643 0 6.596-2.951 6.596-6.593 0-3.641-2.953-6.593-6.596-6.593-3.643 0-6.596 2.952-6.596 6.593 0 3.642 2.953 6.593 6.596 6.593z"/>
    <path fill="#333" d="M60.248 158.448c0 2.198-1.399 4.295-3.497 5.095-2.2.799-4.698.1-6.097-1.699-1.399-1.698-1.599-4.295-.4-6.193 1.1-1.898 3.398-2.997 5.597-2.597 2.499.499 4.297 2.797 4.397 5.394 0 1.399 2.299 1.499 2.199 0 0-3.196-1.999-6.093-4.997-7.192-2.998-1.099-6.496-.2-8.495 2.297-1.998 2.498-2.398 6.094-.7 8.891 1.7 2.797 4.898 4.195 8.096 3.596 3.598-.599 6.196-3.896 6.196-7.492 0-1.498-2.299-1.498-2.299-.1z"/>
    <path fill="#F0D227" d="M75.44 165.041c3.642 0 6.596-2.951 6.596-6.593 0-3.641-2.954-6.593-6.596-6.593-3.643 0-6.596 2.952-6.596 6.593 0 3.642 2.953 6.593 6.596 6.593z"/>
    <path fill="#333" d="M80.836 158.448c0 2.198-1.4 4.295-3.498 5.095-2.199.799-4.697.1-6.096-1.699-1.4-1.698-1.6-4.295-.4-6.193 1.1-1.898 3.398-2.997 5.597-2.597 2.498.499 4.397 2.797 4.397 5.394 0 1.399 2.298 1.499 2.198 0 0-3.196-1.998-6.093-4.997-7.192-2.998-1.099-6.496-.2-8.494 2.297-1.999 2.498-2.399 6.094-.7 8.891 1.7 2.797 4.897 4.195 8.095 3.596 3.598-.599 6.196-3.896 6.196-7.492 0-1.498-2.298-1.498-2.298-.1z"/>
    <path fill="#F0D227" d="M96.027 165.041c3.642 0 6.596-2.951 6.596-6.593 0-3.641-2.954-6.593-6.596-6.593-3.643 0-6.596 2.952-6.596 6.593 0 3.642 2.953 6.593 6.596 6.593z"/>
    <path fill="#333" d="M101.523 158.448c0 2.198-1.399 4.295-3.498 5.095-2.199.799-4.697.1-6.096-1.699-1.4-1.698-1.6-4.295-.4-6.193 1.1-1.898 3.398-2.997 5.597-2.597 2.498.499 4.297 2.797 4.397 5.394 0 1.399 2.298 1.499 2.198 0 0-3.196-1.998-6.093-4.996-7.192-2.999-1.099-6.496-.2-8.495 2.297-1.999 2.498-2.399 6.094-.7 8.891 1.7 2.797 4.897 4.195 8.095 3.596 3.598-.599 6.196-3.896 6.196-7.492-.1-1.498-2.298-1.498-2.298-.1z"/>
    <path fill="#fff" d="M88.932 176.529H59.05v31.266h29.882v-31.266z"/>
    <path fill="#333" d="M88.931 206.696H59.05l1.099 1.099v-27.371-3.896l-1.1 1.099H88.931l-1.1-1.099v31.267c0 1.398 2.2 1.498 2.2 0v-27.371-3.896c0-.599-.5-1.098-1.1-1.098H59.05c-.6 0-1.1.499-1.1 1.098v31.267c0 .599.5 1.099 1.1 1.099H88.93c1.5 0 1.5-2.198 0-2.198z"/>
    <path fill="#333" d="M82.935 195.009c1.6 0 2.898-1.297 2.898-2.897 0-1.6-1.297-2.897-2.898-2.897-1.6 0-2.898 1.297-2.898 2.897 0 1.6 1.297 2.897 2.898 2.897z"/>
    <path fill="#F0D227" d="M60.45 44.37c-1.1 1.7-3.399 2.898-5.298 3.497 1.9-.1 3.998-.1 5.397 1.199.7.6 1.1 1.498 1.4 2.297.699 1.699 1.398 3.297 1.998 5.095.2-1.598.4-3.197.7-4.795.1-.6.3-1.199.5-1.798.999-1.798 3.397-2.297 5.496-2.497l-3.298-1.499c-.7-.4-1.4-.699-1.999-1.198-2.199-1.798-2.798-4.695-3.298-7.492 0-.1-.3 4.994-1.599 7.192z"/>
    <path fill="#333" d="M59.45 43.772c-1 1.598-2.899 2.397-4.598 2.997-1.2.4-1 2.297.3 2.197 1.799-.1 3.997-.2 5.097 1.499 1.199 1.798 1.898 4.195 2.698 6.293.4 1.198 2.099.999 2.199-.3.1-1.099.3-2.297.5-3.396.2-.9.3-2.098.799-2.897.9-1.299 2.898-1.498 4.297-1.698 1-.1 1.7-1.599.6-2.098-2.099-.899-4.797-1.798-6.096-3.696-1.2-1.698-1.6-3.896-2-5.894-.199-1.298-2.198-.899-2.198.3-.2 2.198-.5 4.795-1.599 6.693-.7 1.298 1.2 2.397 1.899 1.099 1.3-2.298 1.599-5.295 1.799-7.792-.7.1-1.5.2-2.199.3.4 2.297.9 4.695 2.399 6.593 1.599 2.197 4.397 3.196 6.796 4.295l.6-2.098c-2.1.3-4.498.6-5.897 2.298-.8.999-1.1 2.098-1.3 3.296-.3 1.498-.499 2.997-.599 4.495.7-.1 1.5-.2 2.199-.3-.5-1.398-1-2.697-1.6-4.095-.499-1.199-.999-2.497-1.798-3.496-1.6-1.898-4.198-1.998-6.496-1.898.1.7.2 1.498.3 2.197 2.298-.699 4.597-1.897 5.996-3.995.6-.9-1.3-2.098-2.099-.9z"/>
    <path fill="#fff" d="M169.382 15.502c-3.098 14.484-6.896 35.861-10.594 50.146-4.897-.2-9.794-1.199-14.591-2.197-16.589-3.397-33.179-6.693-49.869-10.09 2.898-17.48 6.096-34.962 9.594-52.243l65.46 14.384z"/>
    <path fill="#333" d="M168.282 15.203c-2.798 13.185-5.197 26.57-8.195 39.757-.799 3.496-1.599 6.992-2.498 10.389.399-.3.699-.6 1.099-.8-8.395-.4-16.69-2.597-24.785-4.295l-24.885-5.094c-4.797-1-9.594-1.898-14.39-2.897.3.5.5.899.799 1.398 2.898-17.481 6.096-34.962 9.594-52.244-.5.3-.899.5-1.399.8 7.395 1.598 14.791 3.296 22.186 4.894 11.693 2.597 23.486 5.195 35.178 7.792l8.095 1.798c1.4.3 1.999-1.898.6-2.198-7.395-1.598-14.791-3.296-22.186-4.894-11.693-2.598-23.486-5.195-35.179-7.792L104.221.019c-.599-.1-1.299.2-1.399.8-3.498 17.38-6.696 34.762-9.594 52.243-.1.6.1 1.298.8 1.398 16.989 3.397 33.979 6.893 50.968 10.29 4.498.898 9.095 1.797 13.792 1.997.5 0 .999-.4 1.099-.8 3.398-13.085 5.797-26.47 8.495-39.656.699-3.497 1.399-6.993 2.199-10.49.199-1.398-1.999-1.997-2.299-.598z"/>
    <path fill="#DF357F" d="M146.995 31.885c.8-4.196-1.998-8.291-6.196-8.99-4.197-.8-8.195 1.997-8.994 6.293.799-4.196-1.999-8.291-6.196-8.99-4.198-.8-8.195 1.997-8.995 6.293 0 0-2.298 6.992 11.993 20.477 18.189-7.691 18.388-15.083 18.388-15.083z"/>
    <path fill="#333" d="M148.094 32.184c.7-4.695-2.099-9.49-6.996-10.389-4.797-.899-9.394 2.298-10.393 6.993.699.2 1.399.4 2.198.6.7-4.596-1.898-9.091-6.496-10.29-4.497-1.098-9.194 1.499-10.593 5.894-1.099 3.396.2 6.892 1.699 9.89 2.498 4.894 6.396 8.99 10.294 12.686.399.4.899.4 1.399.2 5.896-2.498 12.192-5.595 16.39-10.69 1.199-1.398 2.498-3.296 2.598-5.293.1-1.399-2.199-1.399-2.199 0 0 .2.1-.4 0 .1l-.299.899c-.1.2 0 .1-.2.499-.1.3-.3.5-.4.8-.4.599-.8 1.198-1.299 1.797-3.998 4.695-9.994 7.592-15.691 9.99.5.1.9.1 1.4.2-4.698-4.396-10.094-9.99-11.593-16.483-.2-.7-.2-1.099-.2-1.798v-.7-.2c.5-2.596 2.099-4.794 4.697-5.493 4.597-1.399 9.094 2.697 8.395 7.492-.2 1.398 1.899 1.998 2.198.6.7-3.497 3.898-6.094 7.596-5.495 3.598.6 5.996 4.096 5.396 7.592-.299 1.398 1.899 1.998 2.099.6z"/>
    <path fill="#DF357F" d="M101.824 122.886c-7.196 8.891-13.492 18.78-16.89 29.668-2.698 8.591-3.497 17.482-4.097 26.272-.6 9.19-.9 18.38-.9 27.57 0 .8 0 1.599.5 2.198.5.499 1.2.699 1.899.799 23.585 4.096 62.062 2.298 86.347-1.199.999-.099 2.099-.399 2.598-1.198.3-.4.4-.899.5-1.399 5.596-63.631-16.79-75.119-20.887-80.513-5.897-7.592-15.99-10.888-25.684-9.789-9.694 1.098-18.989 6.193-26.684 12.986"/>
    <path fill="#333" d="M101.024 122.088c-9.195 11.487-16.59 24.273-19.288 38.958-1.5 7.791-1.9 15.783-2.299 23.674-.2 4.196-.4 8.391-.4 12.587 0 2.097-.1 4.095-.1 6.193 0 1.598-.4 3.796.4 5.294.7 1.399 2.099 1.698 3.498 1.898l3.898.599c2.798.4 5.696.7 8.494.9 6.296.499 12.593.699 18.989.799 13.092.1 26.283-.5 39.375-1.798 2.998-.3 5.897-.6 8.895-.899 1.399-.2 2.798-.3 4.097-.5 1.3-.2 2.699-.2 3.998-.699 1.399-.5 2.199-1.598 2.398-2.997.3-1.798.3-3.696.4-5.594.2-3.596.4-7.092.5-10.688.2-10.889-.5-21.877-2.998-32.565-1.599-6.693-3.898-13.286-7.496-19.18-2.198-3.696-4.897-6.992-7.995-9.989-.899-.899-1.899-1.798-2.798-2.697-.7-.699-1.199-1.498-1.899-2.198-2.099-2.297-4.597-4.195-7.295-5.593-12.093-6.294-26.284-3.097-37.377 3.895-2.899 1.798-5.597 3.896-8.195 6.194-1.1.999.5 2.497 1.599 1.598 9.694-8.591 22.986-15.084 36.277-12.087 5.897 1.299 10.794 4.395 14.591 8.99.7.799 1.4 1.499 2.199 2.198 2.598 2.397 4.997 4.994 6.996 7.791 3.298 4.695 5.796 9.89 7.595 15.384 2.798 8.691 4.098 17.881 4.497 27.071.3 6.193.2 12.386-.1 18.58l-.3 5.394c-.099 1.498.2 4.095-1.499 4.595-1.199.399-2.598.399-3.897.599-1.299.2-2.699.3-3.998.5-12.092 1.398-24.185 2.197-36.377 2.497-12.093.3-24.285.1-36.378-1.299-1.2-.099-2.398-.299-3.598-.499-1.299-.2-3.697-.1-3.997-1.598-.2-.7 0-1.599 0-2.298v-2.997c0-2.097.1-4.095.1-6.193.2-7.692.5-15.483 1.199-23.175.7-7.592 1.899-15.084 4.397-22.276 2.399-6.593 5.797-12.786 9.694-18.58 1.9-2.797 3.898-5.494 6.097-8.191.599-1.099-1-2.697-1.899-1.598z"/>
    <path fill="#fff" d="M109.419 130.079c6.096 15.483 5.197 33.064 11.293 48.547 4.597-15.583 9.694-31.066 15.291-46.35-8.395 1.798-17.29.799-25.585-1.498"/>
    <path fill="#333" d="M108.319 130.378c6.096 15.583 5.197 32.965 11.293 48.548.4.999 1.799 1.099 2.199 0 4.597-15.583 9.694-31.067 15.29-46.35.3-.899-.599-1.499-1.399-1.399-8.295 1.699-16.889.7-24.985-1.498-1.399-.4-1.998 1.798-.599 2.198 8.495 2.297 17.389 3.296 26.184 1.498l-1.399-1.398c-5.597 15.283-10.794 30.666-15.291 46.35h2.199c-6.097-15.584-5.197-32.865-11.293-48.548-.5-1.399-2.699-.799-2.199.599z"/>
    <path fill="#F0D227" d="M117.514 137.87c-.2 9.29-.5 18.48-.7 27.77 0 1.399-.1 2.797.3 4.096.6 1.898 1.999 3.496 3.498 4.895.3-3.796 3.798-6.493 5.696-9.79.2-.399.4-.799.5-1.298.1-.5 0-1.099 0-1.599-1.099-8.69-2.099-17.381-3.198-26.071-1.999.599-3.997 1.098-5.996 1.698"/>
    <path fill="#333" d="M116.414 137.87c-.2 6.893-.4 13.686-.5 20.578-.1 3.297-.499 6.693-.1 9.889.3 2.897 2.099 4.995 4.098 6.993.699.699 1.799.1 1.899-.799.299-2.897 2.598-5.095 4.297-7.392.799-1.099 1.699-2.298 1.899-3.596.3-1.599-.2-3.497-.4-5.195-.899-7.492-1.899-15.084-2.798-22.575-.1-.7-.6-1.299-1.399-1.099-1.999.599-3.998 1.099-5.997 1.698-1.399.399-.799 2.597.6 2.198 1.999-.6 3.997-1.099 5.996-1.699-.499-.399-.899-.699-1.399-1.098.9 7.491 1.899 15.083 2.798 22.575l.3 2.697c.1.799.3 1.599.1 2.398-.4 1.398-1.699 2.697-2.598 3.796-1.699 2.197-3.298 4.395-3.598 7.192.6-.3 1.299-.5 1.899-.799-.9-.899-1.899-1.898-2.599-2.997-.799-1.299-.899-2.697-.899-4.196 0-3.196.2-6.393.2-9.589.2-6.393.3-12.687.5-19.08 0-1.398-2.199-1.398-2.299.1z"/>
    <path fill="#fff" d="M86.533 51.963c.8-2.797 2.698-5.195 4.797-7.292 2.099-2.098 4.697-3.896 7.596-3.696.2 0 .4 0 .6.2.399.2.399.799.399 1.198-.1 1.499-.7 2.897-1.699 4.096 1-.7 2.199-1.1 3.398-1.399.5-.1.999-.2 1.399.1.3.2.5.5.6.8.499 1.498-.2 3.196-1.2 4.494-.999 1.299-2.298 2.298-3.198 3.697-.4.499-.8 1.198-1.399 1.298-.3 0-.6-.1-.9-.2-2.897-1.198-5.796-2.397-8.794-3.496"/>
    <path fill="#333" d="M87.532 52.262c.999-3.296 3.498-6.193 6.096-8.29 1.3-1 2.798-1.799 4.397-1.899.1 0 .5.1.7 0 .2 0 .2 0 0-.1-.1-.1-.1-.1-.1.1-.1.3-.1.8-.2 1.2-.2.798-.6 1.597-1.2 2.297-.799.899.2 2.497 1.4 1.798.9-.5 1.799-.9 2.698-1.199.4-.1.7-.3 1 0 .199.3.199.899.099 1.199-.299 1.997-2.098 3.296-3.297 4.695-.3.4-.6.699-.9 1.098-.2.2-.4.8-.7.9-.3.1-.799-.2-1.099-.3-.5-.2-1-.4-1.599-.6-2.198-.899-4.497-1.798-6.696-2.697-.6-.2-1.199.2-1.399.8-.2.599.2 1.198.8 1.398l4.497 1.798c1.499.6 2.898 1.299 4.497 1.798 1.3.4 2.299-.1 2.998-1.099.8-.999 1.599-1.998 2.499-2.897 1.699-1.798 3.298-4.395 2.298-6.992-1.199-2.897-5.097-1.099-6.895 0 .5.6.899 1.199 1.399 1.798.8-.899 1.399-1.998 1.699-3.197.299-.998.599-2.297 0-3.196-1.2-1.998-4.698-.7-6.197 0-2.098.999-3.797 2.697-5.396 4.495-1.6 1.898-2.998 3.996-3.698 6.293-.3 1.599 1.899 2.198 2.299.8z"/>
    <path fill="#fff" d="M80.736 56.858c1-1.798 2-3.696 2.998-5.494.2-.3.3-.6.6-.7.3-.1.6 0 .9 0 4.097.7 8.294 1.399 12.192 3.097.5.2 1.2.5 1.4 1 .2.399.1.798 0 1.198-.6 2.097-1.2 4.095-1.9 6.093-.1.4-.3.9-.8 1.1-.399.099-.899-.001-1.298-.1-4.597-1.1-9.195-2.498-13.692-4.096.3-.1.5-.1.8-.2"/>
    <path fill="#333" d="M81.735 57.457c.9-1.598 1.799-3.296 2.698-4.895l.3-.599c0-.2.1-.3.3-.2.3-.1 1 .2 1.3.2.898.2 1.798.3 2.697.5 1.7.3 3.298.699 4.997 1.198.9.3 1.8.6 2.599.9.3.1.8.2 1.099.499.3.3.2.6.1.999-.5 1.798-1.1 3.596-1.699 5.394-.1.2-.2.6-.3.7-.2.1-.7-.1-.9-.2-.899-.2-1.798-.5-2.698-.7-3.597-.999-7.195-2.098-10.693-3.296v2.197c.3-.1.5-.1.8-.2 1.399-.399.799-2.497-.6-2.197-.4.2-.6.2-.9.3-1.099.3-.999 1.798 0 2.197 3.398 1.199 6.896 2.198 10.394 3.197.9.2 1.799.5 2.698.699.8.2 1.6.5 2.399.3 1.599-.3 1.899-2.198 2.299-3.497.5-1.698 1.299-3.496 1.499-5.194.199-1.698-1.1-2.497-2.399-3.097-3.298-1.298-6.796-2.097-10.194-2.697-.9-.2-1.998-.5-2.898-.4-.8.1-1.3.6-1.799 1.3-1.1 1.797-1.999 3.695-2.998 5.493-.8 1.2 1.2 2.398 1.899 1.1z"/>
    <path fill="#DF357F" d="M105.122 123.685c-8.395-9.19-11.693-22.176-12.393-34.662-.6-9.79.5-20.278 6.496-27.97-5.796-1.499-11.792-2.398-17.789-2.597-.5 0-1.099 0-1.499.2-.5.299-.8.799-1.099 1.298-6.596 11.587-8.495 25.373-8.395 38.758 0 10.489 1.2 21.077 4.597 30.967 3.498 9.889 9.394 19.079 17.69 25.372"/>
    <path fill="#333" d="M105.921 122.886c-5.797-6.393-8.995-14.484-10.694-22.875-1.699-8.191-2.299-17.181-.7-25.473.9-4.694 2.699-9.09 5.597-12.886.4-.599 0-1.498-.7-1.698-4.397-1.099-8.794-1.898-13.391-2.297-1.1-.1-2.199-.2-3.298-.2-.9 0-1.999-.2-2.898.1-1.7.5-2.499 2.597-3.298 3.995-3.698 7.393-5.697 15.484-6.596 23.675-1 8.59-1 17.381-.1 25.972.9 8.491 2.798 16.882 6.396 24.673 3.598 7.892 8.894 14.884 15.89 20.179 1.2.899 2.299-1.099 1.1-1.898-12.193-9.29-18.49-24.274-20.688-39.058-1.2-8.092-1.399-16.283-.9-24.374.5-7.792 1.8-15.583 4.698-22.875.8-2.098 1.699-4.096 2.798-5.994.5-.899.8-1.998 1.899-2.098 1.1-.1 2.398.1 3.498.2 4.897.3 9.694 1.199 14.39 2.398-.199-.6-.399-1.1-.699-1.699-5.496 7.193-6.895 16.483-6.696 25.273.2 8.79 1.5 17.881 4.997 26.072 1.9 4.595 4.498 8.89 7.895 12.686.9.899 2.499-.699 1.5-1.798z"/>
    <path fill="#fff" d="M173.779 58.855c-.599-2.896-2.198-5.494-3.997-7.691-1.899-2.298-4.298-4.395-7.196-4.395-.2 0-.4 0-.599.1-.4.2-.5.699-.5 1.198 0 1.498.5 2.997 1.299 4.196-.999-.8-2.099-1.299-3.298-1.698-.5-.1-.999-.3-1.399-.1-.3.2-.5.499-.7.799-.699 1.498-.1 3.196.7 4.595.799 1.398 1.999 2.497 2.798 3.995.3.6.6 1.299 1.299 1.399.3.1.6 0 1-.1 2.998-.899 6.096-1.798 9.094-2.597"/>
    <path fill="#333" d="M174.878 58.556c-.5-2.298-1.599-4.495-2.998-6.493-1.299-1.898-2.898-3.696-4.797-4.995-.9-.6-1.999-1.099-2.998-1.298-1-.2-2.299-.4-3.098.4-.8.798-.7 2.197-.5 3.196.2 1.198.699 2.297 1.299 3.396l1.499-1.498c-1.699-1.299-5.197-3.397-6.696-.8-1.399 2.398 0 5.295 1.499 7.193.8 1.099 1.499 2.097 2.199 3.296.7 1.099 1.699 1.598 3.098 1.199 3.098-.8 6.096-1.798 9.194-2.697 1.4-.4.8-2.597-.599-2.198-2.299.7-4.597 1.299-6.896 1.998-.5.2-.999.3-1.599.5-.3.1-.899.399-1.099.2-.3-.2-.5-.8-.6-1-.3-.5-.6-.899-.899-1.298-1.1-1.499-2.699-3.097-2.699-4.995 0-.3 0-.899.2-1.099.3-.3.6 0 .9.1.999.4 1.898.9 2.698 1.498.899.7 2.099-.599 1.499-1.498-.5-.799-.899-1.598-1.099-2.497-.1-.4 0-.9-.1-1.299 0-.2 0 .1-.2.1h.599c1.6.2 3.099 1.199 4.198 2.198 2.598 2.397 4.697 5.594 5.397 8.99.699 1.399 2.898.8 2.598-.6z"/>
    <path fill="#fff" d="M179.076 64.35c-.799-1.898-1.599-3.796-2.398-5.794-.1-.3-.3-.6-.6-.7-.3-.1-.6-.1-.9-.1-4.097.3-8.394.6-12.492 1.799-.599.2-1.199.4-1.499.899-.2.4-.2.8-.1 1.199.4 2.097.8 4.195 1.299 6.293.1.5.2.999.7 1.199.4.2.899.1 1.299.1 4.697-.7 9.394-1.599 13.991-2.698-.199-.1-.499-.2-.699-.3"/>
    <path fill="#333" d="M180.075 64.05c-.7-1.698-1.4-3.396-2.199-5.094-.3-.7-.5-1.499-1.199-1.898-.6-.4-1.3-.4-1.999-.4-3.598.2-7.196.5-10.793 1.399-1.4.3-3.298.699-3.898 2.097-.3.7-.2 1.299-.1 1.998.2.9.4 1.898.5 2.797.2.8.3 1.698.499 2.498.2.799.3 1.598.8 2.197 1.099 1.299 3.098.6 4.497.4 4.098-.6 8.295-1.499 12.293-2.398 1.199-.3.999-1.798 0-2.197-.2-.1-.5-.2-.7-.3-1.399-.5-1.899 1.698-.6 2.198.2.1.5.2.7.3v-2.198c-3.598.899-7.296 1.598-10.993 2.197-.9.1-1.799.3-2.699.4-.199 0-.699.2-.899.1-.2-.1-.2-.9-.3-1.099-.4-1.798-.799-3.496-1.099-5.294-.1-.3-.2-.5.1-.8.2-.2.799-.3.999-.399.9-.3 1.799-.5 2.698-.7 1.799-.399 3.598-.599 5.397-.798.9-.1 1.799-.1 2.698-.2.3 0 .9-.2 1.3-.1.2-.1.3 0 .2.1l.299.6c.7 1.697 1.4 3.395 2.199 5.094.2.599.7.999 1.399.799.7 0 1.199-.7.9-1.299z"/>
    <path fill="#DF357F" d="M148.096 128.381c9.294-8.391 13.791-20.878 15.79-33.265 1.499-9.69 1.499-20.178-3.698-28.469 5.897-.899 11.993-1.199 17.989-.799.5 0 1.099.1 1.499.4.5.3.7.899 1 1.398 5.396 12.187 5.896 26.072 4.597 39.358-1.1 10.388-3.198 20.877-7.695 30.367-4.498 9.49-11.194 18.08-20.088 23.475"/>
    <path fill="#333" d="M148.894 129.18c6.496-5.894 10.694-13.785 13.392-21.976 2.699-8.491 4.298-17.881 3.498-26.771-.5-4.995-1.799-9.99-4.497-14.285-.2.6-.4 1.099-.7 1.698 4.298-.7 8.695-.999 12.992-.899 1.1 0 2.099 0 3.198.1 1.1.1 2.299-.1 2.799.999.899 1.698 1.499 3.596 2.098 5.394 2.499 7.592 3.198 15.683 3.098 23.675-.3 15.683-3.098 32.265-11.293 45.75-4.097 6.893-9.694 12.886-16.589 17.082-1.2.799-.1 2.697 1.099 1.898 13.691-8.391 21.786-23.075 25.584-38.259 2.099-8.391 3.198-17.082 3.398-25.672.2-8.491-.6-17.082-3.198-25.173-.7-2.098-1.399-4.395-2.499-6.293-1.199-1.998-3.797-1.798-5.796-1.798-5.197-.2-10.394.2-15.59.998-.7.1-1 1.1-.7 1.699 4.597 7.492 4.997 16.682 3.898 25.172-1 8.292-3.198 16.683-7.196 23.975-2.298 4.195-5.097 7.991-8.595 11.188-.999.899.6 2.497 1.599 1.498zM113.916 156.95c1.898 6.992 3.997 13.985 5.296 21.077 1.1 5.794 1.499 11.687 1.599 17.581.1 4.595 0 9.19-.1 13.785 0 1.399 2.199 1.399 2.199 0 .2-7.392.4-14.784-.2-22.176-.5-5.894-1.599-11.687-3.098-17.481-1.099-4.495-2.398-8.99-3.598-13.486-.3-1.298-2.498-.699-2.098.7z"/>
    <path fill="#fff" d="M103.523 125.284c-1.999 10.489-2.499 21.177-1.599 31.766 0 .3 0 .499.199.699.3.5 1 .3 1.599.2 1.899-.599 3.698-1.099 5.597-1.698-.8 1.498-1.499 2.997-1.699 4.695-.2 2.997 1.699 5.793 3.798 7.991 2.098 2.198 8.295 9.09 9.294 11.887.799-16.682-6.896-38.059-10.693-54.341-.1-.599-.3-1.299-.7-1.798-1.299-1.698-3.998-.799-5.796.299"/>
    <path fill="#333" d="M102.422 124.984c-1.399 7.392-2.098 14.884-2.098 22.376 0 1.898 0 3.696.1 5.594.1 1.598-.1 3.596.499 5.095.5 1.298 1.799 1.298 2.999.999 1.898-.5 3.697-1.099 5.596-1.699-.4-.599-.799-1.098-1.299-1.698-1.399 2.797-2.499 5.694-1.199 8.791.999 2.497 2.798 4.395 4.497 6.293 1.599 1.698 3.098 3.396 4.497 5.194 1.299 1.599 2.798 3.297 3.598 5.195.5 1.099 2.198.999 2.198-.3.4-8.79-1.299-17.681-3.297-26.172-2.099-8.79-4.698-17.481-6.896-26.271-.5-1.898-.7-4.396-2.699-5.395-1.898-.899-4.197.1-5.996.999-1.299.7-.1 2.598 1.099 1.898 1.4-.799 3.898-1.998 4.698 0 .699 1.699.899 3.696 1.399 5.494.999 3.896 2.098 7.692 3.098 11.588 2.198 8.091 4.297 16.182 5.596 24.474.6 4.395 1 8.79.8 13.285.699-.1 1.499-.2 2.198-.299-.699-1.699-1.898-3.197-2.998-4.695-1.399-1.798-2.898-3.597-4.397-5.295-1.399-1.598-3.098-3.196-4.297-4.994-.8-1.199-1.399-2.598-1.399-3.996 0-1.698.799-3.296 1.499-4.695.399-.799-.3-1.998-1.3-1.698-1.499.499-3.098.899-4.597 1.398-.399.1-.699.2-1.099.3-.4.1-.3-.1-.2.2-.3-.5-.1-1.798-.2-2.398-.2-3.196-.3-6.493-.2-9.689.1-6.493.8-12.986 1.999-19.379.3-1.299-1.899-1.898-2.199-.5z"/>
    <path fill="#fff" d="M120.712 180.924c2.199-10.089 9.894-13.186 17.889-19.579-1.399-1.299-5.597-5.694-6.996-6.993 7.496-4.794 12.792-25.972 12.792-26.671.1-3.696-4.997-2.697-6.895.3.1 0-15.491 36.361-16.79 52.943z"/>
    <path fill="#333" d="M121.81 181.224c1-4.396 3.298-7.992 6.696-10.889 3.398-2.996 7.296-5.394 10.894-8.191.499-.399.399-1.199 0-1.598-2.399-2.198-4.598-4.695-6.996-6.993-.1.6-.2 1.199-.2 1.798 2.898-1.897 4.797-4.994 6.396-7.991 1.799-3.496 3.298-7.192 4.497-10.888.9-2.497 1.699-5.095 2.299-7.692.699-2.897-1.399-4.994-4.397-4.395-4.598.999-5.597 5.993-7.196 9.689-2.798 7.093-5.497 14.185-7.995 21.377-2.798 8.192-5.597 16.782-6.296 25.473-.1 1.398 2.099 1.398 2.198 0 .6-6.893 2.699-13.785 4.798-20.378 2.298-7.192 4.897-14.285 7.595-21.377l2.998-7.492c.3-.699.6-1.498.899-2.198.2-.499.1-.299.3-.799.6-1.099 1.999-1.898 3.198-2.097.5-.1 1.2-.1 1.499.399.2.2.1.599.2.799 0-.2 0-.299 0 0-.4 1.998-.999 3.896-1.599 5.894-1.199 3.796-2.498 7.492-4.297 11.088-1.499 3.097-3.398 6.793-6.396 8.691-.6.399-.8 1.198-.2 1.798 2.398 2.197 4.597 4.695 6.996 6.992v-1.598c-3.698 2.997-7.895 5.494-11.393 8.69-3.398 3.097-5.797 6.893-6.796 11.488-.2 1.199 1.999 1.798 2.298.4z"/>
    <path fill="#F0D227" d="M117.414 131.577c-1.299 1.398-2.398 2.996-3.098 4.794-.1.2-.2.5-.1.8.1.399.6.599 1.1.699 3.098.499 6.196.399 9.294-.2.1 0 .3-.1.4-.2.199-.2 0-.499-.1-.799-.6-1.299-.9-2.797-.7-4.195-2.498-.3-4.997-.999-7.295-1.898"/>
    <path fill="#333" d="M116.714 130.777c-1.199 1.199-2.199 2.598-2.898 4.096-.4.799-.9 1.698-.6 2.597.2.799 1.099 1.299 1.899 1.399 1.799.299 3.698.399 5.596.399.9 0 1.899-.1 2.799-.299.799-.1 2.098-.2 2.598-.999.6-.899-.1-1.898-.4-2.797-.3-.899-.3-1.798-.2-2.797.1-.7-.599-1.099-1.099-1.099-2.299-.3-4.597-.899-6.796-1.798-.599-.2-1.199-.2-1.499.399-.3.5-.2 1.299.4 1.499 2.498 1.099 5.197 1.798 7.895 2.098l-1.099-1.099c-.1.899 0 1.798.1 2.597l.3 1.199c.099.299.399.799.399.999.1-.2.1-.4.2-.6.2-.1.3-.2.5-.299-.6.199-1.299.299-1.899.399-.7.1-1.399.1-2.099.2-1.399.1-2.798 0-4.297-.2-.3 0-.6-.1-.9-.1-.099 0-.199-.1-.299-.1l-.1-.1c.1.1.1.3.2.4 0 0 .599-1.399.699-1.498.6-1.099 1.399-2.098 2.299-2.997.899-.899-.7-2.497-1.699-1.499z"/>
    <path fill="#fff" d="M123.91 130.379c5.297-.899 17.089-2.797 17.689-2.498.6.3 4.497 7.792 4.497 7.792-.1.2-14.291 6.493-21.087 9.59-.4-3.996-.899-8.092-1.299-12.087"/>
    <path fill="#333" d="M124.209 131.477c4.498-.799 8.995-1.499 13.592-2.098l2.398-.3c.3 0 .6-.1.9-.1h.3c.2 0 .1.1.1 0l-.5-.199.1.1c0-.1 0 0 .1.099.2.3.4.6.5.899.499.8.899 1.599 1.399 2.398.699 1.298 1.399 2.697 2.098 3.996v-1.099c.4-.6.4-.4.1-.2-.2.1-.399.2-.499.3-.6.299-1.2.599-1.799.799-1.899.899-3.798 1.698-5.597 2.597-4.297 1.898-8.594 3.796-12.792 5.694.6.3 1.099.599 1.699.999-.4-3.996-.899-8.092-1.299-12.087-.2-1.399-2.399-1.399-2.199 0 .4 3.995.9 8.091 1.299 12.087.1.899.9 1.298 1.699.999 4.498-1.998 8.895-3.996 13.392-5.994 1.899-.799 3.698-1.698 5.597-2.497.799-.4 2.098-.699 2.598-1.499.2-.299.2-.799 0-1.098-.6-1.199-1.299-2.498-1.999-3.696-.699-1.299-1.499-3.197-2.598-4.196-.9-.799-2.599-.3-3.598-.2-2.398.3-4.797.7-7.195.999-2.699.4-5.397.899-8.095 1.299-1.699.1-1.1 2.198.299 1.998z"/>
    <path fill="#fff" d="M122.311 130.977l-12.592 8.991c-.1.1-.3.199-.4.199-.2 0-.3-.099-.4-.299-1.399-1.399-3.198-2.398-4.697-3.596-2.598-1.998-4.697-4.495-6.296-7.392-.1-.2-.2-.4-.1-.6.1-.2.3-.299.4-.399 2.698-1.599 5.396-3.297 8.095-4.895.3-.2.599-.4.899-.4.3 0 .6.1.8.3 4.797 2.298 9.394 4.795 13.891 7.492"/>
    <path fill="#333" d="M121.811 130.078c-1.1.7-12.693 8.891-12.593 8.991.6.199.7.1.2-.2l-.599-.599c-.4-.3-.8-.6-1.2-.999-.899-.7-1.899-1.299-2.898-2.098-1.699-1.299-3.198-2.897-4.397-4.695-.3-.4-.5-.799-.8-1.199-.1-.2-.3-.499-.4-.699-.2-.499-.3-.499-.3.1 0 0 2.999-1.798 3.199-1.998 1.099-.699 2.198-1.299 3.198-1.998.499-.299 1.099-.799 1.599-.999.599-.199.899 0 1.499.3 4.497 2.198 8.794 4.495 13.092 7.092 1.199.7 2.398-1.198 1.099-1.898-3.997-2.397-8.095-4.595-12.292-6.692-.9-.4-1.799-1.099-2.799-1.199-.999-.1-1.799.499-2.598.999-1.999 1.198-3.898 2.397-5.896 3.596-.7.399-1.9.899-2.299 1.698-.4.799 0 1.598.4 2.298 1 1.698 2.198 3.296 3.598 4.794 1.399 1.399 2.898 2.598 4.497 3.696.899.6 1.799 1.299 2.598 2.098.5.5 1.1.899 1.899.6 1.099-.4 2.099-1.399 2.998-2.098 1.1-.799 2.199-1.598 3.398-2.398 2.199-1.598 4.497-3.196 6.696-4.794 1.399-.6.3-2.598-.899-1.699z"/>
    <path fill="#DF357F" d="M155.89 112.199c.9.399 1.699-.5 2.299-1.399 10.294-17.381-22.486-40.856-26.084-46.15-1.999 3.097-1.899 9.69.6 12.287-7.895-3.097-15.691-6.693-23.186-10.689 0 0 .6 12.587 4.597 16.982l37.177 29.069 4.597-.1z"/>
    <path fill="#333" d="M155.59 113.296c2.698.8 4.097-2.697 4.797-4.694.599-1.799.899-3.796.799-5.694-.2-4.296-1.899-8.291-3.997-11.987-4.597-7.792-11.193-14.285-17.789-20.379-1.399-1.298-2.799-2.597-4.098-3.895l-1.499-1.499c-.2-.2-.4-.4-.5-.599-.299-.3-.099-.1-.299-.4-.5-.699-1.499-.799-1.899 0-2.299 3.796-2.299 10.29.799 13.686.4-.6.7-1.299 1.1-1.898-7.796-3.097-15.491-6.693-22.986-10.589-.7-.4-1.699.1-1.699 1 .1 2.197.4 4.394.799 6.592.6 3.496 1.399 7.292 3.398 10.189.6.899 1.399 1.398 2.199 2.098 1.499 1.198 2.998 2.397 4.597 3.596 9.094 7.092 18.189 14.284 27.383 21.377 1.199.899 2.399 1.898 3.598 2.797.5.399.899.499 1.599.499 1.399-.1 2.698-.1 4.097-.2 1.4-.099 1.5-2.297 0-2.197-1.499.1-3.098.1-4.597.2.3.099.5.199.8.299-6.096-4.795-12.293-9.589-18.389-14.384-4.197-3.297-8.495-6.593-12.692-9.89-1.999-1.598-4.297-2.996-6.096-4.794-1-1-1.599-2.598-2.099-3.896-.6-1.798-1.099-3.596-1.399-5.494-.4-2.298-.7-4.495-.8-6.793-.599.3-1.099.6-1.699.999 7.596 4.096 15.491 7.692 23.486 10.888 1.099.4 1.799-1.099 1.099-1.898-2.398-2.697-2.198-8.091-.399-10.988h-1.899c1.299 1.898 3.198 3.496 4.897 5.095 2.798 2.597 5.596 5.294 8.295 7.991 5.696 5.794 11.892 12.686 14.091 20.778.5 1.898.799 3.895.5 5.893-.1.999-.3 1.898-.7 2.897-.2.6-1.199 3.396-2.099 3.197-1.499-.5-2.098 1.598-.699 2.097z"/>
    <path fill="#fff" d="M149.589 120.107c6.106-11.75-.106-27.063-13.874-34.202-13.768-7.138-29.879-3.4-35.985 8.352-6.106 11.75.106 27.063 13.874 34.202 13.768 7.138 29.879 3.399 35.985-8.352z"/>
    <path fill="#333" d="M148.694 119.29c-4.797 9.49-15.99 13.186-26.084 11.188-10.393-1.998-19.987-9.49-23.185-19.778-1.4-4.596-1.4-9.49.3-13.985 1.798-4.595 5.296-8.391 9.693-10.589 9.694-4.995 21.787-2.697 30.282 3.696 8.894 6.593 14.191 18.88 8.994 29.468-.599 1.299 1.299 2.398 1.899 1.099 4.897-9.989 1.499-21.676-6.096-29.368-8.295-8.391-21.387-12.287-32.68-8.391-5.097 1.698-9.594 4.994-12.392 9.59-2.799 4.495-3.798 9.889-3.099 15.083 1.6 11.588 10.894 20.778 21.687 24.374 11.893 3.896 26.584.499 32.58-11.188.7-1.399-1.199-2.497-1.899-1.199z"/>
    <path fill="#333" d="M108.319 96.814c-.899-.5-1.299-1.598-.899-2.597l1.699-3.496c.499-.9 1.599-1.299 2.598-.9.899.5 1.299 1.6.899 2.598l-1.699 3.496c-.499 1-1.599 1.399-2.598.9zM130.106 104.905c-.9-.499-1.3-1.598-.9-2.597l1.699-3.496c.5-.9 1.599-1.299 2.599-.9.899.5 1.299 1.599.899 2.598l-1.699 3.496c-.5.999-1.699 1.399-2.598.899zM119.013 94.317c-2.899.9-5.397 2.698-7.296 5.095-.5.599-.899 1.199-1.299 1.898-.4.699-.9 1.498-.7 2.397.1.899.9 1.399 1.599 1.798.8.4 1.599.799 2.499 1.099 1.899.699 3.797.999 5.796.999 1.399 0 1.499-2.297 0-2.198-1.799 0-3.598-.299-5.396-.999-.4-.099-.8-.299-1.2-.499-.399-.2-.799-.499-1.099-.599-.1 0-.2-.1-.1-.1 0 .1.1.2.1.299 0 0 .1-.299.2-.399.2-.3.4-.699.6-.999 1.599-2.597 4.097-4.595 6.895-5.494 1.399-.6.8-2.797-.599-2.298z"/>
    <path fill="#fff" d="M148.195 115.195c1.199-1.399 2.398-2.897 4.197-3.297 1.599-.399 3.298.2 4.397 1.399 1.1 1.198 1.699 2.897 1.5 4.495-.1.799-.3 1.598-.8 2.297-.4.6-.999.999-1.599 1.399-1.999 1.298-4.197 2.197-6.596 2.697-.6.1-1.299.2-1.899 0-.699-.3-1.199-.899-1.399-1.598-.2-.7-.3-1.399-.3-2.198"/>
    <path fill="#333" d="M148.994 115.994c.999-1.199 2.198-2.797 3.997-3.097 1.599-.2 3.198.799 3.798 2.198.699 1.498.699 3.596-.6 4.694-1.499 1.199-3.498 2.098-5.397 2.598-.499.199-1.099.299-1.599.399-.399.1-.999.2-1.399 0-.799-.499-.799-1.798-.799-2.697 0-1.398-2.299-1.498-2.199 0 0 1.299.1 2.697 1 3.796.899 1.099 2.198 1.399 3.497 1.099 2.599-.4 5.197-1.499 7.396-2.997 1.099-.699 1.999-1.698 2.498-2.997.4-1.198.4-2.497.1-3.696-.599-2.397-2.498-4.395-4.897-4.695-2.998-.499-5.197 1.499-6.995 3.696-.4.5-.5 1.099 0 1.599.399.499 1.199.599 1.599.1z"/>
    <path fill="#DF357F" d="M111.917 110.699c2.699.999 5.597 1.399 8.495 1.099.3 0 .7-.1 1 .2.299.299.199.799.099 1.199-.499 1.698-1.099 3.596-2.498 4.595-1.699 1.198-4.197.799-5.597-.7-1.399-1.498-1.798-3.796-1.299-5.793"/>
    <path fill="#333" d="M111.617 111.798c1.899.699 3.897 1.099 5.996 1.199.999.1 1.999 0 2.998-.1h.3c-.1.1-.3-.3-.4-.3-.1-.1.1 0 0 .1v.1c-.1.4-.2.799-.399 1.199-.4 1.298-1.1 2.797-2.499 3.196-1.199.4-2.598 0-3.498-.999-1.199-1.198-1.399-3.096-.899-4.595.4-1.398-1.799-1.997-2.199-.599-.6 1.998-.3 4.395.9 6.093 1.199 1.699 3.298 2.698 5.296 2.498 2.299-.3 3.798-1.898 4.597-3.996.4-.899.8-1.898.8-2.897 0-.599-.2-1.298-.8-1.598-.599-.4-1.199-.3-1.898-.3-2.699.2-5.297-.2-7.796-1.099-.599-.199-1.199.2-1.399.8 0 .499.4 1.098.9 1.298zM142.298 196.707c5.696-2.997 11.293-6.093 16.89-9.29-.5-.1-.9-.1-1.4-.2.7.699 1.2 1.499 1.4 2.398.199-.4.299-.8.499-1.299-2.998 1.798-6.096 3.596-9.194 5.194-1.499.8-3.098 1.599-4.697 2.398-.4.2-.9.399-1.299.599-.2.1-.8.5-1 .5.3.1.3 0 0-.3-.1-.2-.3-.4-.399-.599l-.9-1.199c-.799-1.199-2.798-.1-1.899 1.099.9 1.298 1.999 3.895 3.998 3.096 1.899-.699 3.697-1.798 5.496-2.697 3.698-1.898 7.396-3.995 10.994-6.193.399-.3.699-.799.499-1.299-.399-1.298-.999-2.497-1.998-3.396-.4-.4-.9-.4-1.4-.2-5.596 3.197-11.193 6.194-16.889 9.29-1.1.799 0 2.797 1.299 2.098zM104.821 195.908c-5.697-2.997-11.293-6.094-16.89-9.29-.4-.2-1-.2-1.399.199-1 .999-1.699 2.098-1.999 3.397-.1.499.1.999.5 1.298 3.598 2.198 7.296 4.196 10.993 6.194 1.8.899 3.498 1.898 5.397 2.697 2.099.899 3.198-1.599 4.097-3.097.8-1.199-1.099-2.297-1.898-1.099l-.9 1.199c-.1.2-.3.399-.4.599-.299.3-.299.4 0 .3-.2 0-.799-.4-.999-.5-.4-.199-.9-.399-1.299-.599-1.6-.799-3.098-1.598-4.697-2.397-3.099-1.698-6.197-3.397-9.195-5.195.2.4.3.799.5 1.299.3-.999.7-1.698 1.4-2.397-.5.099-.9.099-1.4.199 5.596 3.197 11.193 6.194 16.89 9.29 1.399.6 2.598-1.398 1.299-2.097z"/>
</svg>
