<svg xmlns="http://www.w3.org/2000/svg" width="296" height="214" fill="none" viewBox="0 0 296 214">
    <g opacity=".2">
        <path fill="#fff" d="M83.194 9.7h38.497c1.6 0 2.9 1.298 2.9 2.895 0 1.596-1.3 2.894-2.9 2.894h-2.699c-1.7.2-2.9 1.397-2.9 2.794 0 1.597 1.5 2.895 3.399 2.895h8.1c1.6 0 2.9 1.297 2.9 2.894 0 1.597-1.3 2.895-2.9 2.895H93.593c-1.6 0-2.9-1.298-2.9-2.895s1.3-2.894 2.9-2.894h.6c1.9 0 3.4-1.298 3.4-2.895 0-1.397-1.3-2.594-2.9-2.794H83.194c-1.6 0-2.9-1.298-2.9-2.894.1-1.597 1.3-2.895 2.9-2.895z"/>
        <path fill="#333" d="M83.194 10.898h38.497c2 .1 2.4 2.995.4 3.394-1 .2-2.1 0-3 0-1.799.1-3.499 1.297-3.999 3.094-.5 1.796.6 3.593 2.3 4.391.999.499 2.099.499 3.199.499 2.3 0 4.7-.2 7 0 2 .1 2.5 2.994.4 3.393-.3.1-.7 0-1 0h-4.8c-9.399 0-18.798.2-28.198 0-.7 0-1.4-.1-1.8-.798-.6-.898-.2-2.096.8-2.595.7-.3 1.6-.1 2.3-.2 1.8-.399 3.4-1.796 3.5-3.692.1-1.897-1.3-3.394-3.1-3.893-.8-.2-1.6-.2-2.4-.2h-3.8c-2 0-4.2.2-6.199 0-2.3-.1-2.4-3.293-.1-3.393 1.4-.1 1.4-2.295 0-2.195-2 .1-3.8 1.497-4 3.692-.2 2.096 1.3 3.893 3.3 4.292 2.1.3 4.4.1 6.5.1h4.2c1 0 1.9-.1 2.7.599.799.798.599 1.896-.3 2.395-.8.499-1.8.3-2.7.499-2 .3-3.4 2.096-3.3 4.092.1 2.595 2.4 3.793 4.7 3.793h30.397c1.1 0 2.2.1 3.3 0 4.599-.4 4.799-7.286.1-7.885-2.3-.3-4.8 0-7.2 0-1.1 0-2.6.2-3.399-.799-.7-.898-.2-1.896.699-2.295.6-.3 1.2-.2 1.9-.2 1.5 0 3 .1 4.2-.998 1.6-1.297 1.8-3.692.6-5.39-1.1-1.596-2.8-1.596-4.5-1.596H83.194c-1.4-.4-1.4 1.896 0 1.896z"/>
        <path fill="#fff" d="M74.095 15.49c1.601 0 2.9-1.297 2.9-2.895 0-1.599-1.299-2.895-2.9-2.895-1.602 0-2.9 1.296-2.9 2.895 0 1.598 1.298 2.894 2.9 2.894z"/>
        <path fill="#333" d="M78.094 12.595c0-1.697-1.1-3.194-2.7-3.793-1.5-.599-3.3-.1-4.3 1.198-1.099 1.297-1.299 3.194-.4 4.59.9 1.498 2.6 2.197 4.2 1.897 1.8-.3 3.1-2.096 3.2-3.892 0-.6-.5-1.198-1.1-1.098-.6 0-1.1.499-1.1 1.098v.1s-.1.299-.1.399c0 0 0 .2-.1.2 0 0 .1-.3 0-.1-.1.1-.1.299-.2.399-.1.2.1-.1 0 0l-.1.1-.1.1h-.1c-.1.1-.1.1.1 0 0 .1-.2.199-.3.199 0 0-.1 0-.1.1-.2.1.2-.1 0 0-.1 0-.2.1-.4.1s0 .1 0 0H73.895c-.2 0 .3.1 0 0-.1 0-.2 0-.2-.1-.1 0-.1 0-.2-.1-.2-.1.1 0 .1 0s-.3-.1-.3-.2c-.2.2-.3.2-.3.1-.1-.1.2.2 0 0l-.3-.3s.1.2 0 .1c0-.1-.1-.1-.1-.199l-.1-.1v-.1c-.1-.1 0-.1 0 .1-.1 0-.1-.3-.1-.399v-.2c-.1-.2 0 .2 0 0v-.499-.1c0-.1.1-.2.1-.399.1-.2-.1.2 0 0 0-.1.1-.1.1-.2s.1-.1.1-.199c.1-.2 0 0 0 0l.3-.3s.1-.199.1-.1c-.1.1 0 0 .1 0s.3-.199.4-.199c0 0-.3.1-.1 0 .1 0 .1 0 .2-.1h.1s.3-.1.1 0h.5c.2 0-.2-.1 0 0 .1 0 .3.1.4.1.2.1-.1-.1 0 0 .1 0 .2.1.2.1l.1.1.1.1c-.1-.1-.1-.1-.1 0l.3.3c.2.199-.1-.2 0 0 0 .099.1.099.1.199s.1.1.1.2c.1.199-.1-.2 0 0 0 .1.1.299.1.398v-.1.3c0 .599.5 1.198 1.1 1.098.7.2 1.3-.3 1.3-.898z"/>
        <path fill="#DF357F" d="M195.686 152.021c-1.1-3.293-.5-7.086 1.4-9.88.8-1.198 1.9-2.296 1.9-3.693.1-1.497-1-2.794-1.6-4.192-2-4.591 1.6-9.88 5.899-12.575.8-.499 1.7-.998 2-1.996.1-.499 0-1.098 0-1.597-.3-2.894 1.1-5.689 3.1-7.785s3.9-3.593 6.4-4.99c2.499 1.397 4.399 2.894 6.399 4.99s3.4 4.99 3.1 7.785c-.1.499-.2 1.098 0 1.597.2.898 1.2 1.497 2 1.996 4.299 2.695 7.899 7.884 5.899 12.575-.6 1.398-1.6 2.695-1.6 4.192.1 1.397 1.1 2.495 1.9 3.693 2 2.894 2.5 6.587 1.4 9.88-.7 1.997-1.9 3.993-1.7 6.088.3 2.695 2.9 5.091 2.1 7.685-.8 2.695-38.097 2.695-38.897 0-.8-2.594 1.8-4.99 2.1-7.685.1-2.195-1.1-4.091-1.8-6.088z"/>
        <path fill="#333" d="M196.786 151.722c-.6-1.796-.7-3.693-.2-5.489.4-1.896 1.4-3.294 2.5-4.791 1-1.397 1.5-2.994.9-4.691-.6-1.696-1.8-3.093-1.9-4.89-.2-3.393 2.2-6.487 4.799-8.384 1.2-.898 2.9-1.596 3.5-3.093.3-.799.2-1.597.1-2.496-.1-.998 0-1.896.3-2.794 1.2-3.992 5.2-6.887 8.599-8.883h-1.099c2.499 1.398 4.799 3.194 6.699 5.39.9 1.098 1.6 2.295 2 3.593.4 1.497 0 2.894.2 4.291.2 1.198 1 1.996 1.9 2.695 1.2.798 2.3 1.597 3.3 2.595 1.799 1.796 3.299 4.292 3.199 6.986-.2 2.695-2.799 4.791-1.9 7.585.4 1.198 1.2 2.196 1.9 3.194.8 1.298 1.4 2.595 1.7 4.092.2 1.397.2 2.795-.1 4.192-.4 1.497-1.1 2.894-1.6 4.391-.9 2.795.2 4.891 1.3 7.386.2.499.5 1.098.6 1.697v.698c0 .699-.1.2 0 .2.2 0 0-.2.1-.2 0 0-.4.2-.3.1-.5.2-1.5.399-2.2.499-2.699.499-5.399.599-8.099.699-6.7.299-13.499.299-20.299-.3-1.299-.1-2.599-.199-3.899-.499l-1.5-.299c-.2-.1-.4-.1-.6-.2-.3-.1.1 0-.2-.1-.3-.099 0 0-.1 0-.1-.099.2.1.1.1.1.3.1.3 0-.1v-.399c0-1.397.9-2.794 1.5-3.992.6-1.298.9-2.695.7-4.192-.5-1.497-1.3-2.994-1.9-4.591-.5-1.397-2.6-.798-2.2.599.5 1.497 1.3 2.894 1.6 4.391.3 1.697-.5 2.994-1.1 4.492-.7 1.497-1.8 4.092-.4 5.489 1.2 1.197 3.8 1.297 5.3 1.497 6.799.798 13.899.798 20.698.599 3.2-.1 6.3-.3 9.499-.699 1.5-.2 4.2-.299 5-1.697 1.2-1.896-.4-4.491-1.1-6.187-.7-1.498-.9-2.695-.4-4.292s1.3-3.094 1.7-4.791c.6-2.794.2-5.689-1-8.283-.6-1.298-1.7-2.296-2.3-3.593-.7-1.597.5-2.995 1.2-4.492 1.2-2.694.7-5.788-.7-8.283-.8-1.398-1.8-2.695-3-3.793-.499-.499-1.099-.998-1.699-1.397-.6-.399-1.4-.799-1.9-1.298-.8-.798-.4-1.796-.4-2.794 0-.699-.1-1.497-.3-2.196-.4-1.597-1.2-2.994-2.1-4.291-2-2.695-4.8-4.791-7.7-6.488-.299-.199-.799-.199-1.099 0-3.2 1.897-6.5 4.392-8.5 7.585-.9 1.497-1.5 3.194-1.6 4.991 0 .898.4 2.195-.1 2.894-.5.699-1.6 1.098-2.3 1.597-2.799 2.096-5.199 5.09-5.799 8.483-.3 1.697-.1 3.294.6 4.891.4.898 1 1.696 1.3 2.694.3 1.098-.2 1.897-.8 2.695-1.3 1.797-2.3 3.493-2.8 5.689-.4 2.096-.3 4.291.3 6.288.4 1.596 2.5.998 2.1-.3z"/>
        <path fill="#333" d="M204.785 150.225c3.5 1.497 6.6 3.693 9.2 6.487-.1-.299-.2-.499-.3-.798v27.147c0 1.397 2.199 1.497 2.199 0 0-8.883.2-17.865 0-26.748 0-1.397-1.399-2.295-2.399-3.194-2.3-1.996-4.8-3.593-7.6-4.79-1.2-.699-2.4 1.297-1.1 1.896z"/>
        <path fill="#333" d="M215.784 156.413c.699-4.791.799-9.581.5-14.472-.1-1.397-2.3-1.397-2.2 0 .3 4.591.2 9.282-.399 13.873-.1.599.1 1.198.799 1.397.5.1 1.3-.199 1.3-.798z"/>
        <path fill="#fff" d="M224.784 173.979c-.9-2.595-.4-5.689 1.1-7.984.6-.898 1.5-1.797 1.6-2.994.1-1.198-.8-2.196-1.3-3.294-1.6-3.693 1.3-7.984 4.699-10.08.6-.399 1.4-.798 1.6-1.597.1-.399 0-.898 0-1.297-.2-2.296.9-4.591 2.5-6.288s8.6-1.697 10.199 0c1.6 1.697 2.7 3.992 2.5 6.288 0 .399-.1.898 0 1.297.2.699.9 1.198 1.6 1.597 3.4 2.096 6.3 6.387 4.7 10.08-.5 1.098-1.3 2.096-1.3 3.294.1 1.098.9 1.996 1.6 2.994 1.6 2.295 2 5.29 1.1 7.984-.5 1.597-1.5 3.194-1.4 4.891.2 2.195 2.3 4.092 1.7 6.188-.7 2.195-30.598 2.195-31.198 0-.6-2.096 1.5-3.993 1.7-6.188.2-1.797-.8-3.294-1.4-4.891z"/>
        <path fill="#333" d="M225.884 173.679c-.4-1.497-.5-2.994-.2-4.491.4-1.697 1.5-2.695 2.3-4.192.6-1.098.8-2.395.3-3.593-.5-1.397-1.5-2.495-1.4-4.092.1-2.894 2.399-5.289 4.699-6.787 1-.598 1.8-1.297 2-2.495.1-.798-.1-1.696 0-2.495.1-.898.4-1.696.9-2.495.5-.898 1.1-1.796 2.2-2.196.9-.299 1.9-.399 2.9-.499 1.9-.099 4.199 0 5.499 1.498.9 1.197 1.6 2.594 1.7 4.091.1 1.597-.3 2.795 1 3.993 1 .898 2.2 1.497 3.2 2.395 1 .998 1.8 2.196 2.2 3.593.4 1.397.3 2.695-.4 3.992-.7 1.397-1.4 2.595-.9 4.192.4 1.297 1.4 2.196 2 3.393.7 1.398 1 2.994.9 4.591-.2 1.597-1 2.895-1.4 4.392-.4 1.397-.4 2.794.2 4.191.5 1.198 1.2 2.296 1.3 3.593.1.998 0-.299.2 0l-.2.1c-2.2.898-5 .799-7.4.898-3.6.2-7.199.2-10.899.1-3.3-.1-6.7-.1-9.899-.798-.3-.1-.5-.1-.8-.2-.1 0-.1 0-.2-.1-.3-.099 0 0-.1 0-.2 0-.3-.199-.1-.099.3.199.1.698.1 0 0-.4.1-.799.2-1.198.5-1.397 1.4-2.695 1.5-4.192.2-1.796-.8-3.493-1.4-5.09-.5-1.397-2.7-.798-2.2.599.6 1.597 1.6 3.294 1.2 4.99-.4 1.497-1.4 2.795-1.6 4.392-.2 1.497.3 2.495 1.7 2.994 2.7.898 5.799.898 8.599.998 4.1.199 8.2.199 12.399 0 2.9-.1 6.1-.1 9-.998 1.1-.3 1.899-.799 1.999-1.996.2-1.398-.499-2.695-1.099-3.893-.3-.698-.7-1.497-.7-2.295 0-.998.5-1.996.9-2.895 1.199-2.994 1.299-6.088-.2-8.982-.7-1.297-2.4-2.695-1.9-4.292.6-1.596 1.5-2.794 1.6-4.491.1-2.994-1.8-5.788-4-7.685-.5-.499-1.1-.898-1.7-1.297-.9-.599-1.1-.898-1-1.896.1-1.597-.3-3.094-1-4.492-1.2-2.395-2.8-3.593-5.499-3.992-2.2-.299-4.7-.299-6.8.499-2.7 1.098-4.4 4.791-4.3 7.585 0 .4.2.899.1 1.298-.2.599-.6.798-1.1.998-.7.499-1.4.998-1.999 1.497-1.3 1.198-2.3 2.595-3 4.192-.6 1.497-.9 3.094-.5 4.69.2.899.6 1.597 1 2.396.5 1.098.7 1.796 0 2.794-1 1.597-2 2.895-2.4 4.791-.4 1.796-.3 3.593.2 5.29.6 1.097 2.7.499 2.3-.799z"/>
        <path fill="#333" d="M243.681 196.235c-.399-12.176-.399-24.352-.799-36.529 0-1.397-2.299-1.497-2.199 0 .4 12.177.4 24.353.799 36.529-.1 1.497 2.199 1.497 2.199 0z"/>
        <path fill="#333" d="M242.283 170.485c-1.5-.798-3-1.696-4.6-2.395-1.5-.599-3.2-1.098-4.8-1.497-1.4-.399-2 1.796-.6 2.196 1.6.399 3.2.898 4.7 1.497.2.1-.1 0 0 0s.1.1.2.1c.1.099.3.099.4.199.3.2.6.3 1 .499.9.499 1.7.898 2.5 1.397 1.399.699 2.499-1.297 1.2-1.996z"/>
        <path fill="#DF357F" d="M138.39 132.26L49.697 4.51c-3.1-4.49-9.8-4.49-12.9 0L1.2 55.81v61.779l44.297 26.947h86.494c6.299 0 9.999-7.086 6.399-12.276z"/>
        <path fill="#333" d="M139.39 131.661c-1.5-2.195-3.1-4.391-4.6-6.587-3.999-5.788-7.999-11.477-11.999-17.266-5.499-7.884-10.999-15.869-16.499-23.753-6.099-8.783-12.099-17.466-18.198-26.249-5.8-8.284-11.5-16.567-17.2-24.851-4.399-6.388-8.899-12.775-13.298-19.163-2.2-3.193-4.4-6.387-6.6-9.481-2.1-3.094-5.4-4.79-9.199-4.192-3.4.5-5.3 2.895-7.1 5.49-4.7 6.786-9.399 13.473-14.099 20.26C15.099 33.853 9.6 41.738 4.1 49.722c-1.2 1.797-2.7 3.493-3.7 5.39-.6.997-.3 2.694-.3 3.792v57.487c0 .499-.1 1.098 0 1.497.2.699 1.1.998 1.6 1.398 1.1.698 2.3 1.397 3.4 2.096 8.299 5.09 16.598 10.08 24.898 15.17 3.7 2.196 7.3 4.491 10.999 6.687 1 .599 2.1 1.297 3.1 1.896.4.299.8.499 1.3.599 1.4.199 2.9 0 4.3 0h78.894c1.5 0 3 .1 4.399-.1 6.6-.798 10-8.483 6.4-13.973-.8-1.197-2.7-.099-1.9 1.098 2.4 3.593 1 8.883-3.3 10.28-1.1.399-2.199.3-3.399.3H48.096c-.7 0-1.8-.2-2.5 0-.3.099.7.399.3 0-.3-.3-.8-.5-1.2-.699-4.299-2.595-8.699-5.29-12.998-7.885-9.8-5.988-19.499-11.876-29.298-17.865-.2-.099-.4-.199-.6-.399.2.3.4.599.6.998V90.941 57.207c0-.399.1-.898 0-1.297v-.2c.1.2-.4.699-.2.6.2-.1.4-.6.6-.8.4-.598.7-1.097 1.1-1.596 2.9-4.092 5.7-8.284 8.6-12.376 7.199-10.48 14.498-20.86 21.697-31.338 1-1.398 1.9-2.795 2.9-4.092.9-1.298 1.7-2.396 3.2-3.094 3-1.497 6.6-.5 8.6 2.095.3.4.5.799.8 1.098 3.9 5.59 7.799 11.278 11.699 16.867 7 10.08 13.899 20.06 20.898 30.141 7.7 11.378 15.599 22.656 23.498 34.034 6.8 9.78 13.499 19.461 20.299 29.242l10.799 15.57c.2.199.3.499.5.698.8 1.198 2.8.1 2-1.098z"/>
        <path fill="#fff" d="M276.18 87.947h-59.895c-2.5 0-4.4 1.996-4.4 4.391 0 2.496 2 4.392 4.4 4.392h4.199c2.6.3 4.6 2.196 4.6 4.391 0 2.495-2.4 4.392-5.3 4.392h-12.599c-2.5 0-4.399 1.996-4.399 4.391s1.999 4.391 4.399 4.391h52.996c2.5 0 4.4-1.996 4.4-4.391s-2-4.391-4.4-4.391h-.9c-2.899 0-5.299-1.996-5.299-4.392 0-2.195 2-4.092 4.599-4.391h17.799c2.5 0 4.4-1.996 4.4-4.392-.2-2.395-2.2-4.39-4.6-4.39z"/>
        <path fill="#333" d="M276.18 86.85H216.584c-1.499 0-2.999.398-4.199 1.496-2.4 2.196-2.3 6.088.1 8.184 1.9 1.697 4.199 1.397 6.499 1.397 1.1 0 2 0 3 .5 1.4.798 2.3 2.295 1.6 3.892-.9 1.996-3.2 2.196-5.1 2.196h-11.299c-2.8.099-5.2 1.896-5.599 4.69-.5 3.194 1.899 6.188 5.199 6.388h36.897c5.5 0 11 .2 16.399 0 2.8-.1 5.2-2.096 5.5-4.891.4-3.393-2.2-6.088-5.5-6.287-1.3 0-2.5 0-3.599-.799-1.3-.898-2-2.495-1.1-3.892 1-1.697 2.699-1.896 4.399-1.896h16.499c2.9-.1 5.4-2.196 5.6-5.19 0-3.094-2.6-5.689-5.7-5.789-1.4-.1-1.4 2.196 0 2.196 3.7.1 4.6 5.49.9 6.487-1 .3-2.3.1-3.3.1h-12.499c-1 0-2-.1-3 0-2.899.3-5.699 2.695-5.499 5.789.2 3.094 3.1 4.99 5.899 5.19 1.3.099 2.5-.1 3.5.798 1.3.998 1.6 2.894.8 4.292-1.2 1.996-3.7 1.596-5.7 1.596h-46.196c-1.5 0-3.2.2-4.6-.099-3.7-.799-3.2-6.288.5-6.587 1.3-.1 2.6 0 3.8 0h6.499c1.5 0 3.1.099 4.5-.3 2.7-.798 4.9-3.393 4.3-6.387-.6-2.595-3.2-4.292-5.8-4.392-1.8-.1-4.2.5-5.799-.499-2.8-1.796-1.3-5.988 1.799-6.088 4.6-.2 9.3 0 13.999 0h45.997c1.3.1 1.3-2.096-.1-2.096z"/>
        <path fill="#fff" d="M290.379 96.83c2.43 0 4.4-1.966 4.4-4.392 0-2.425-1.97-4.391-4.4-4.391-2.43 0-4.4 1.966-4.4 4.391 0 2.426 1.97 4.392 4.4 4.392z"/>
        <path fill="#333" d="M287.079 92.439c0-1.398.9-2.695 2.1-3.094.4-.1.7-.2 1-.2.5 0 .7 0 1.1.1.7.2 1.2.499 1.7 1.098-.1-.1 0 0 0 0 .1.1.1.2.2.299 0 .1.1.1.1.2 0 0 .2.299.1.2.1.199.1.398.2.598.1.3.1.3.1.5 0 .398 0 .698-.1.997-.1.5-.2.699-.4.998 0 .1-.1.2-.2.2l-.1.1-.4.399c-.2.2-.5.399-.9.599 0 0 .2-.1-.1 0-.1 0-.2.1-.3.1-.1 0-.2 0-.2.1 0 0-.3.099-.2 0h-1c-.9-.2-1.4-.5-2-1.099-.2-.3.1.2-.1-.1-.1-.1-.1-.2-.2-.299-.1-.1-.1-.2-.2-.3-.1-.199 0 .1-.1-.199-.1-.2-.1-.499-.2-.698v-.1c.1-.1.1-.3.1-.4 0-1.397-2.3-1.497-2.2 0 0 2.396 1.5 4.392 3.7 5.19 2.1.799 4.7.1 6.1-1.597 1.5-1.796 1.8-4.391.5-6.387-1.2-1.996-3.6-2.994-5.9-2.595-2.6.499-4.4 2.894-4.5 5.49 0 1.297 2.2 1.297 2.3-.1z"/>
        <path fill="#fff" d="M205.885 79.763H142.19v95.513h63.695V79.763z"/>
        <path fill="#333" d="M205.785 174.178H142.09l1.1 1.098v-9.481-22.856-27.546V91.44v-7.884c0-1.198.2-2.595 0-3.693v-.2l-1.1 1.098H205.785l-1.1-1.098v91.721c0 1.197-.1 2.495 0 3.692v.2c0 1.397 2.2 1.497 2.2 0v-9.481-22.856-27.546V91.44v-7.884c0-1.198.1-2.495 0-3.693v-.2c0-.598-.5-1.097-1.1-1.097H142.09c-.6 0-1.1.499-1.1 1.097v91.721c0 1.197-.1 2.495 0 3.692v.2c0 .599.5 1.098 1.1 1.098H205.785c1.5.1 1.5-2.196 0-2.196z"/>
        <path fill="#333" d="M192.386 65.99h-32.698c-2.499 0-5.599-.499-7.599 1.397-1.9 1.797-1.6 4.192-1.6 6.488v5.988c0 .599.5 1.098 1.1 1.098h44.597c.6 0 1.1-.5 1.1-1.098v-7.186c0-.998.1-2.096-.3-3.094-.5-2.196-2.5-3.493-4.6-3.593-1.4-.1-1.4 2.196 0 2.196 3.2.1 2.8 3.393 2.8 5.589v5.988l1.1-1.098h-44.597l1.1 1.098v-4.79-2.995c0-.698-.1-1.397.2-1.996 1-2.495 4.7-1.796 6.799-1.796h32.698c1.3.1 1.3-2.196-.1-2.196z"/>
        <path fill="#DF357F" d="M205.885 79.764H142.19v6.288h63.695v-6.288z"/>
        <path fill="#333" d="M205.785 85.053H142.09l1.1 1.098v-6.288l-1.1 1.098H205.785l-1.1-1.098v6.288c0 1.397 2.2 1.497 2.2 0v-6.288c0-.599-.5-1.098-1.1-1.098H142.09c-.6 0-1.1.5-1.1 1.098v6.288c0 .599.5 1.098 1.1 1.098H205.785c1.5 0 1.5-2.196 0-2.196z"/>
        <path fill="#333" d="M155.889 67.088v12.675c0 1.398 2.2 1.497 2.2 0V68.685v-1.597c.1-1.397-2.2-1.397-2.2 0zM160.688 67.088v12.675c0 1.398 2.2 1.497 2.2 0V68.685v-1.597c.1-1.397-2.2-1.397-2.2 0zM165.488 67.088v12.675c0 1.398 2.2 1.497 2.2 0V68.685v-1.597c.1-1.397-2.2-1.397-2.2 0zM170.288 67.088v12.675c0 1.398 2.2 1.497 2.2 0V68.685v-1.597c0-1.397-2.2-1.397-2.2 0zM175.087 67.088v12.675c0 1.398 2.2 1.497 2.2 0V68.685v-1.597c0-1.397-2.2-1.397-2.2 0zM179.887 67.088v12.675c0 1.398 2.2 1.497 2.2 0V68.685v-1.597c0-1.397-2.2-1.397-2.2 0zM184.587 67.088v12.675c0 1.398 2.2 1.497 2.2 0V68.685v-1.597c.1-1.397-2.2-1.397-2.2 0zM189.386 67.088v12.675c0 1.398 2.2 1.497 2.2 0V68.685v-1.597c.1-1.397-2.2-1.397-2.2 0z"/>
        <path fill="#DF357F" d="M195.186 105.813h-7.399v-5.389c0-2.096 1.699-3.693 3.699-3.693 2.1 0 3.7 1.697 3.7 3.693v5.389z"/>
        <path fill="#333" d="M195.186 104.714h-7.399l1.099 1.098v-3.293-1.797c0-.599.1-1.098.3-1.497.9-1.497 3-1.796 4.2-.499.4.5.7 1.098.7 1.797v5.389c0 1.397 2.2 1.497 2.2 0v-3.693-1.597c0-1.197-.4-2.195-1.1-3.094-1.7-2.096-4.9-2.295-6.9-.598-.999.798-1.599 2.095-1.699 3.393v5.689c0 .599.5 1.098 1.1 1.098h7.399c1.5-.2 1.5-2.396.1-2.396z"/>
        <path fill="#DF357F" d="M178.087 105.813h-7.399v-5.389c0-2.096 1.7-3.693 3.7-3.693 2.099 0 3.699 1.697 3.699 3.693v5.389z"/>
        <path fill="#333" d="M178.087 104.714h-7.399l1.1 1.098v-3.293-1.797c0-.599.1-1.098.3-1.497.9-1.497 2.999-1.796 4.199-.499.4.5.7 1.098.7 1.797v5.389c0 1.397 2.2 1.497 2.2 0v-3.693-1.597c0-1.197-.4-2.195-1.1-3.094-1.7-2.096-4.899-2.295-6.899-.598-1 .798-1.6 2.095-1.7 3.393v5.689c0 .599.5 1.098 1.1 1.098h7.399c1.6-.2 1.6-2.396.1-2.396z"/>
        <path fill="#DF357F" d="M161.089 105.813h-7.4v-5.389c0-2.096 1.7-3.693 3.7-3.693 2.1 0 3.7 1.697 3.7 3.693v5.389z"/>
        <path fill="#333" d="M161.088 104.714h-7.399l1.1 1.098v-3.293-1.797c0-.599.1-1.098.3-1.497.9-1.497 3-1.796 4.2-.499.4.5.699 1.098.699 1.797v5.389c0 1.397 2.2 1.497 2.2 0v-3.693-1.597c0-1.197-.4-2.195-1.1-3.094-1.699-2.096-4.899-2.295-6.899-.598-1 .798-1.6 2.095-1.7 3.393v5.689c0 .599.5 1.098 1.1 1.098h7.399c1.5-.2 1.5-2.396.1-2.396z"/>
        <path fill="#DF357F" d="M195.186 124.077h-7.399v-5.389c0-2.096 1.699-3.693 3.699-3.693 2.1 0 3.7 1.697 3.7 3.693v5.389z"/>
        <path fill="#333" d="M195.186 122.879h-7.399l1.099 1.097v-3.293-1.797c0-.598.1-1.097.3-1.497.9-1.497 3-1.796 4.2-.499.4.499.7 1.098.7 1.797v5.389c0 1.398 2.2 1.497 2.2 0v-3.692-1.597c0-1.198-.4-2.196-1.1-3.094-1.7-2.096-4.9-2.296-6.9-.599-.999.798-1.599 2.096-1.699 3.393v5.689c0 .599.5 1.098 1.1 1.098h7.399c1.5-.1 1.5-2.395.1-2.395z"/>
        <path fill="#DF357F" d="M178.087 124.077h-7.399v-5.389c0-2.096 1.7-3.693 3.7-3.693 2.099 0 3.699 1.697 3.699 3.693v5.389z"/>
        <path fill="#333" d="M178.087 122.879h-7.399l1.1 1.097v-3.293-1.797c0-.598.1-1.097.3-1.497.9-1.497 2.999-1.796 4.199-.499.4.499.7 1.098.7 1.797v5.389c0 1.398 2.2 1.497 2.2 0v-3.692-1.597c0-1.198-.4-2.196-1.1-3.094-1.7-2.096-4.899-2.296-6.899-.599-1 .798-1.6 2.096-1.7 3.393v5.689c0 .599.5 1.098 1.1 1.098h7.399c1.6-.1 1.6-2.395.1-2.395z"/>
        <path fill="#DF357F" d="M161.089 124.077h-7.4v-5.389c0-2.096 1.7-3.693 3.7-3.693 2.1 0 3.7 1.697 3.7 3.693v5.389z"/>
        <path fill="#333" d="M161.088 122.879h-7.399l1.1 1.097v-3.293-1.797c0-.598.1-1.097.3-1.497.9-1.497 3-1.796 4.2-.499.4.499.699 1.098.699 1.797v5.389c0 1.398 2.2 1.497 2.2 0v-3.692-1.597c0-1.198-.4-2.196-1.1-3.094-1.699-2.096-4.899-2.296-6.899-.599-1 .798-1.6 2.096-1.7 3.393v5.689c0 .599.5 1.098 1.1 1.098h7.399c1.5-.1 1.5-2.395.1-2.395z"/>
        <path fill="#DF357F" d="M195.186 143.339h-7.399v-5.389c0-2.096 1.699-3.693 3.699-3.693 2.1 0 3.7 1.697 3.7 3.693v5.389z"/>
        <path fill="#333" d="M195.186 142.141h-7.399l1.099 1.098v-3.294-1.796c0-.599.1-1.098.3-1.497.9-1.497 3-1.797 4.2-.499.4.499.7 1.097.7 1.796v5.389c0 1.398 2.2 1.498 2.2 0v-3.692-1.597c0-1.198-.4-2.196-1.1-3.094-1.7-2.096-4.9-2.296-6.9-.599-.999.799-1.599 2.096-1.699 3.393v5.689c0 .599.5 1.098 1.1 1.098h7.399c1.5-.1 1.5-2.395.1-2.395z"/>
        <path fill="#DF357F" d="M178.087 143.339h-7.399v-5.389c0-2.096 1.7-3.693 3.7-3.693 2.099 0 3.699 1.697 3.699 3.693v5.389z"/>
        <path fill="#333" d="M178.087 142.141h-7.399l1.1 1.098v-3.294-1.796c0-.599.1-1.098.3-1.497.9-1.497 2.999-1.797 4.199-.499.4.499.7 1.097.7 1.796v5.389c0 1.398 2.2 1.498 2.2 0v-3.692-1.597c0-1.198-.4-2.196-1.1-3.094-1.7-2.096-4.899-2.296-6.899-.599-1 .799-1.6 2.096-1.7 3.393v5.689c0 .599.5 1.098 1.1 1.098h7.399c1.6-.1 1.6-2.395.1-2.395z"/>
        <path fill="#DF357F" d="M161.089 143.339h-7.4v-5.389c0-2.096 1.7-3.693 3.7-3.693 2.1 0 3.7 1.697 3.7 3.693v5.389z"/>
        <path fill="#333" d="M161.088 142.141h-7.399l1.1 1.098v-3.294-1.796c0-.599.1-1.098.3-1.497.9-1.497 3-1.797 4.2-.499.4.499.699 1.097.699 1.796v5.389c0 1.398 2.2 1.498 2.2 0v-3.692-1.597c0-1.198-.4-2.196-1.1-3.094-1.699-2.096-4.899-2.296-6.899-.599-1 .799-1.6 2.096-1.7 3.393v5.689c0 .599.5 1.098 1.1 1.098h7.399c1.5-.1 1.5-2.395.1-2.395z"/>
        <path fill="#fff" d="M143.79 148.129H76.595v-96.91l67.195-18.164v115.074z"/>
        <path fill="#333" d="M143.79 147.031H76.594l1.1 1.098v-9.681-23.055-28.045-24.152-7.985c0-1.197.2-2.595 0-3.792v-.2c-.3.4-.6.699-.8 1.098 7.6-1.996 15.1-4.092 22.699-6.088 12.099-3.294 24.098-6.487 36.197-9.78 2.8-.8 5.6-1.498 8.3-2.296-.5-.4-.9-.7-1.4-1.098v100.902c0 4.691-.2 9.382 0 13.973v.199c0 1.397 2.2 1.497 2.2 0v-11.477-27.447-33.234-28.744c0-4.69.2-9.382 0-13.973v-.2c0-.698-.7-1.297-1.4-1.097-7.6 1.996-15.099 4.092-22.699 6.088-12.099 3.294-24.098 6.487-36.197 9.78-2.8.8-5.6 1.498-8.3 2.296-.5.1-.8.6-.8 1.098V144.137c0 1.297-.1 2.595 0 3.793v.199c0 .599.5 1.098 1.1 1.098h67.196c1.5 0 1.5-2.196 0-2.196z"/>
        <path fill="#DF357F" d="M143.79 39.742L76.595 57.906v-6.687l67.195-18.164v6.687z"/>
        <path fill="#333" d="M143.49 38.644c-7.6 1.996-15.099 4.092-22.699 6.088-12.099 3.293-24.098 6.487-36.197 9.78-2.8.8-5.6 1.498-8.3 2.296.5.4.9.699 1.4 1.098v-6.687c-.3.4-.6.699-.8 1.098 7.6-1.996 15.1-4.092 22.699-6.088 12.099-3.294 24.098-6.487 36.197-9.78 2.8-.8 5.6-1.498 8.3-2.296-.5-.4-.9-.7-1.4-1.098v6.687c0 1.397 2.2 1.497 2.2 0v-6.687c0-.699-.7-1.298-1.4-1.098-7.6 1.996-15.099 4.092-22.699 6.088-12.099 3.294-24.098 6.487-36.197 9.78-2.8.8-5.6 1.498-8.3 2.296-.5.1-.8.6-.8 1.098v6.687c0 .699.7 1.297 1.4 1.098 7.6-1.996 15.1-4.092 22.699-6.088 12.099-3.294 24.098-6.487 36.197-9.781 2.8-.798 5.6-1.497 8.3-2.295 1.4-.4.9-2.595-.6-2.196z"/>
        <path fill="#DF357F" d="M132.99 66.888H87.794v5.889h45.196v-5.889z"/>
        <path fill="#333" d="M133.09 71.679H87.793l1.1 1.098v-5.889l-1.1 1.098h45.297l-1.1-1.098v5.889c0 1.397 2.2 1.497 2.2 0v-5.889c0-.599-.5-1.098-1.1-1.098H87.793c-.6 0-1.1.5-1.1 1.098v5.889c0 .599.5 1.098 1.1 1.098h45.297c1.4.1 1.4-2.196 0-2.196z"/>
        <path fill="#DF357F" d="M93.793 79.963h-5.9v5.888h5.9v-5.888z"/>
        <path fill="#333" d="M93.793 84.753h-5.9l1.1 1.098v-5.19-.698l-1.1 1.098h5.9l-1.1-1.098v5.888c0 .599.5 1.198 1.1 1.098.6 0 1.1-.499 1.1-1.098v-5.19-.698c0-.6-.5-1.098-1.1-1.098h-5.9c-.6 0-1.1.499-1.1 1.098v5.888c0 .599.5 1.098 1.1 1.098h5.9c.6 0 1.2-.499 1.1-1.098 0-.599-.5-1.098-1.1-1.098z"/>
        <path fill="#DF357F" d="M106.692 79.963h-5.899v5.888h5.899v-5.888z"/>
        <path fill="#333" d="M106.792 84.753h-5.899l1.1 1.098v-5.19-.698l-1.1 1.098h5.899l-1.1-1.098v5.888c0 .599.5 1.198 1.1 1.098.6 0 1.1-.499 1.1-1.098v-5.19-.698c0-.6-.5-1.098-1.1-1.098h-5.899c-.6 0-1.1.499-1.1 1.098v5.888c0 .599.5 1.098 1.1 1.098h5.899c.6 0 1.2-.499 1.1-1.098 0-.599-.5-1.098-1.1-1.098z"/>
        <path fill="#DF357F" d="M119.691 79.963h-5.899v5.888h5.899v-5.888z"/>
        <path fill="#333" d="M119.791 84.753h-5.899l1.1 1.098v-5.19-.698l-1.1 1.098h5.899l-1.1-1.098v5.888c0 .599.5 1.198 1.1 1.098.6 0 1.1-.499 1.1-1.098v-5.19-.698c0-.6-.5-1.098-1.1-1.098h-5.899c-.6 0-1.1.499-1.1 1.098v5.888c0 .599.5 1.098 1.1 1.098h5.899c.6 0 1.2-.499 1.1-1.098 0-.599-.5-1.098-1.1-1.098z"/>
        <path fill="#DF357F" d="M132.691 79.963h-5.9v5.888h5.9v-5.888z"/>
        <path fill="#333" d="M132.79 84.753h-5.899l1.1 1.098v-5.19-.698l-1.1 1.098h5.899l-1.099-1.098v5.888c0 .599.499 1.198 1.099 1.098.6 0 1.1-.499 1.1-1.098v-5.19-.698c0-.6-.5-1.098-1.1-1.098h-5.899c-.6 0-1.1.499-1.1 1.098v5.888c0 .599.5 1.098 1.1 1.098h5.899c.6 0 1.2-.499 1.1-1.098 0-.599-.5-1.098-1.1-1.098z"/>
        <path fill="#DF357F" d="M93.793 93.037h-5.9v5.889h5.9v-5.889z"/>
        <path fill="#333" d="M93.793 97.828h-5.9l1.1 1.098v-5.19-.699l-1.1 1.098h5.9l-1.1-1.098v5.889c0 .599.5 1.197 1.1 1.097.6 0 1.1-.498 1.1-1.097v-5.19-.699c0-.599-.5-1.098-1.1-1.098h-5.9c-.6 0-1.1.5-1.1 1.098v5.889c0 .599.5 1.097 1.1 1.097h5.9c.6 0 1.2-.498 1.1-1.097 0-.6-.5-1.098-1.1-1.098z"/>
        <path fill="#DF357F" d="M106.692 93.037h-5.899v5.889h5.899v-5.889z"/>
        <path fill="#333" d="M106.792 97.828h-5.899l1.1 1.098v-5.19-.699l-1.1 1.098h5.899l-1.1-1.098v5.889c0 .599.5 1.197 1.1 1.097.6 0 1.1-.498 1.1-1.097v-5.19-.699c0-.599-.5-1.098-1.1-1.098h-5.899c-.6 0-1.1.5-1.1 1.098v5.889c0 .599.5 1.097 1.1 1.097h5.899c.6 0 1.2-.498 1.1-1.097 0-.6-.5-1.098-1.1-1.098z"/>
        <path fill="#DF357F" d="M119.691 93.037h-5.899v5.889h5.899v-5.889z"/>
        <path fill="#333" d="M119.791 97.828h-5.899l1.1 1.098v-5.19-.699l-1.1 1.098h5.899l-1.1-1.098v5.889c0 .599.5 1.197 1.1 1.097.6 0 1.1-.498 1.1-1.097v-5.19-.699c0-.599-.5-1.098-1.1-1.098h-5.899c-.6 0-1.1.5-1.1 1.098v5.889c0 .599.5 1.097 1.1 1.097h5.899c.6 0 1.2-.498 1.1-1.097 0-.6-.5-1.098-1.1-1.098z"/>
        <path fill="#DF357F" d="M132.691 93.037h-5.9v5.889h5.9v-5.889z"/>
        <path fill="#333" d="M132.79 97.828h-5.899l1.1 1.098v-5.19-.699l-1.1 1.098h5.899l-1.099-1.098v5.889c0 .599.499 1.197 1.099 1.097.6 0 1.1-.498 1.1-1.097v-5.19-.699c0-.599-.5-1.098-1.1-1.098h-5.899c-.6 0-1.1.5-1.1 1.098v5.889c0 .599.5 1.097 1.1 1.097h5.899c.6 0 1.2-.498 1.1-1.097 0-.6-.5-1.098-1.1-1.098z"/>
        <path fill="#DF357F" d="M93.793 120.583h-5.9v5.889h5.9v-5.889z"/>
        <path fill="#333" d="M93.793 125.374h-5.9l1.1 1.098v-5.19-.699l-1.1 1.098h5.9l-1.1-1.098v5.889c0 .598.5 1.197 1.1 1.098.6 0 1.1-.5 1.1-1.098v-5.19-.699c0-.599-.5-1.098-1.1-1.098h-5.9c-.6 0-1.1.499-1.1 1.098v5.889c0 .598.5 1.098 1.1 1.098h5.9c.6 0 1.2-.5 1.1-1.098 0-.599-.5-1.098-1.1-1.098z"/>
        <path fill="#DF357F" d="M106.692 120.583h-5.899v5.889h5.899v-5.889z"/>
        <path fill="#333" d="M106.792 125.374h-5.899l1.1 1.098v-5.19-.699l-1.1 1.098h5.899l-1.1-1.098v5.889c0 .598.5 1.197 1.1 1.098.6 0 1.1-.5 1.1-1.098v-5.19-.699c0-.599-.5-1.098-1.1-1.098h-5.899c-.6 0-1.1.499-1.1 1.098v5.889c0 .598.5 1.098 1.1 1.098h5.899c.6 0 1.2-.5 1.1-1.098 0-.599-.5-1.098-1.1-1.098z"/>
        <path fill="#DF357F" d="M119.691 120.583h-5.899v5.889h5.899v-5.889z"/>
        <path fill="#333" d="M119.791 125.374h-5.899l1.1 1.098v-5.19-.699l-1.1 1.098h5.899l-1.1-1.098v5.889c0 .598.5 1.197 1.1 1.098.6 0 1.1-.5 1.1-1.098v-5.19-.699c0-.599-.5-1.098-1.1-1.098h-5.899c-.6 0-1.1.499-1.1 1.098v5.889c0 .598.5 1.098 1.1 1.098h5.899c.6 0 1.2-.5 1.1-1.098 0-.599-.5-1.098-1.1-1.098z"/>
        <path fill="#DF357F" d="M132.691 120.583h-5.9v5.889h5.9v-5.889z"/>
        <path fill="#333" d="M132.79 125.374h-5.899l1.1 1.098v-5.19-.699l-1.1 1.098h5.899l-1.099-1.098v5.889c0 .598.499 1.197 1.099 1.098.6 0 1.1-.5 1.1-1.098v-5.19-.699c0-.599-.5-1.098-1.1-1.098h-5.899c-.6 0-1.1.499-1.1 1.098v5.889c0 .598.5 1.098 1.1 1.098h5.899c.6 0 1.2-.5 1.1-1.098 0-.599-.5-1.098-1.1-1.098z"/>
        <path fill="#DF357F" d="M93.793 133.159h-5.9v5.888h5.9v-5.888z"/>
        <path fill="#333" d="M93.793 137.949h-5.9l1.1 1.098v-5.19-.698l-1.1 1.097h5.9l-1.1-1.097v5.888c0 .599.5 1.198 1.1 1.098.6 0 1.1-.499 1.1-1.098v-5.19-.698c0-.599-.5-1.098-1.1-1.098h-5.9c-.6 0-1.1.499-1.1 1.098v5.888c0 .599.5 1.098 1.1 1.098h5.9c.6 0 1.2-.499 1.1-1.098 0-.599-.5-1.098-1.1-1.098z"/>
        <path fill="#DF357F" d="M106.692 133.159h-5.899v5.888h5.899v-5.888z"/>
        <path fill="#333" d="M106.792 137.949h-5.899l1.1 1.098v-5.19-.698l-1.1 1.097h5.899l-1.1-1.097v5.888c0 .599.5 1.198 1.1 1.098.6 0 1.1-.499 1.1-1.098v-5.19-.698c0-.599-.5-1.098-1.1-1.098h-5.899c-.6 0-1.1.499-1.1 1.098v5.888c0 .599.5 1.098 1.1 1.098h5.899c.6 0 1.2-.499 1.1-1.098 0-.599-.5-1.098-1.1-1.098z"/>
        <path fill="#DF357F" d="M119.691 133.159h-5.899v5.888h5.899v-5.888z"/>
        <path fill="#333" d="M119.791 137.949h-5.899l1.1 1.098v-5.19-.698l-1.1 1.097h5.899l-1.1-1.097v5.888c0 .599.5 1.198 1.1 1.098.6 0 1.1-.499 1.1-1.098v-5.19-.698c0-.599-.5-1.098-1.1-1.098h-5.899c-.6 0-1.1.499-1.1 1.098v5.888c0 .599.5 1.098 1.1 1.098h5.899c.6 0 1.2-.499 1.1-1.098 0-.599-.5-1.098-1.1-1.098z"/>
        <path fill="#DF357F" d="M132.691 133.159h-5.9v5.888h5.9v-5.888z"/>
        <path fill="#333" d="M132.79 137.949h-5.899l1.1 1.098v-5.19-.698l-1.1 1.097h5.899l-1.099-1.097v5.888c0 .599.499 1.198 1.099 1.098.6 0 1.1-.499 1.1-1.098v-5.19-.698c0-.599-.5-1.098-1.1-1.098h-5.899c-.6 0-1.1.499-1.1 1.098v5.888c0 .599.5 1.098 1.1 1.098h5.899c.6 0 1.2-.499 1.1-1.098 0-.599-.5-1.098-1.1-1.098z"/>
        <path fill="#DF357F" d="M148.389 107.908H71.995v5.19h76.394v-5.19z"/>
        <path fill="#333" d="M148.389 112H71.994l1.1 1.098v-5.19l-1.1 1.098h76.395l-1.1-1.098v5.19c0 1.397 2.2 1.497 2.2 0v-5.19c0-.599-.5-1.098-1.1-1.098H71.994c-.6 0-1.1.499-1.1 1.098v5.19c0 .599.5 1.098 1.1 1.098h76.395c1.5 0 1.5-2.196 0-2.196z"/>
        <path fill="#DF357F" d="M1.2 125.275c46.397 30.739 95.093 54.992 140.59 87.229h14.499L1.2 113.997v11.278z"/>
        <path fill="#333" d="M.6 126.272c22.498 14.871 45.897 28.544 69.195 42.217 23.298 13.673 46.497 27.546 68.595 43.016.9.599 2.2 1.896 3.3 2.096h14.499c1.1 0 1.5-1.497.6-2.096-1.4-.898-2.8-1.797-4.1-2.595-3.8-2.395-7.499-4.791-11.299-7.186-5.6-3.493-11.099-7.086-16.699-10.579-6.799-4.292-13.499-8.583-20.299-12.875-7.499-4.691-14.898-9.481-22.398-14.172-7.5-4.791-14.999-9.482-22.498-14.272-7-4.392-14-8.883-20.999-13.274-5.9-3.793-11.899-7.486-17.799-11.278-4.2-2.695-8.499-5.39-12.699-8.084-2-1.298-4-2.595-6-3.793-.1-.1-.2-.1-.3-.2-.7-.499-1.699.1-1.699.999v11.277c0 1.398 2.2 1.497 2.2 0v-11.277c-.6.299-1.1.598-1.7.998 1.4.898 2.8 1.796 4.1 2.594 3.8 2.396 7.5 4.791 11.299 7.186 5.6 3.494 11.1 7.087 16.699 10.58 6.8 4.291 13.499 8.583 20.298 12.874 7.5 4.691 14.9 9.482 22.399 14.173 7.5 4.79 14.998 9.481 22.498 14.272 6.999 4.391 13.999 8.882 20.998 13.274 5.9 3.792 11.9 7.485 17.799 11.278 4.2 2.694 8.5 5.389 12.699 8.084 2 1.297 3.9 2.794 6 3.792.1 0 .2.1.3.2l.6-2.096H144.29c-.7 0-2 .299-2.6 0-.1 0 .2-.1.2-.1-.4-.199-.8-.599-1.2-.798-.6-.499-1.3-.898-1.9-1.398-1.4-.998-2.9-1.996-4.3-2.994-2.699-1.896-5.499-3.692-8.199-5.589-5.6-3.692-11.299-7.385-17.099-10.978-22.698-14.172-45.996-27.446-68.995-41.219-12.999-7.785-25.898-15.67-38.497-24.053-1.1-.699-2.3 1.197-1.1 1.996z"/>
        <path fill="#F6F2EF" d="M1.2 56.608v57.388l155.089 98.507h114.892C193.086 171.982 82.794 99.125 1.2 56.609z"/>
        <path fill="#333" d="M.1 56.608V112.7c0 .898-.2 1.696.7 2.395.5.399 1.1.698 1.6.998 7.6 4.89 15.299 9.681 22.898 14.571 13.2 8.384 26.298 16.767 39.497 25.051 14.5 9.182 28.898 18.364 43.397 27.546 11.499 7.286 22.999 14.572 34.498 21.957 3.299 2.096 6.599 4.192 9.999 6.288 1 .698 2.4 1.996 3.7 2.096.9.1 1.8 0 2.7 0h112.092c1.099 0 1.599-1.597.599-2.096-16.498-8.583-32.797-17.666-48.996-26.947-17.999-10.38-35.797-20.959-53.596-31.539-18.499-11.078-36.998-22.256-55.496-33.334-18.199-10.879-36.398-21.758-54.696-32.337-16.999-9.78-33.998-19.362-51.197-28.544-2-1.098-4-2.096-6-3.194C.5 54.912-.6 56.908.7 57.507c17.1 8.882 33.898 18.264 50.597 27.945 18.299 10.48 36.398 21.258 54.496 32.037 18.499 11.078 36.998 22.256 55.596 33.335 17.899 10.779 35.898 21.458 53.996 31.937 16.399 9.482 32.798 18.763 49.497 27.546 1.9.998 3.9 1.996 5.8 2.994l.599-2.096H157.289c-.2 0-.5-.099-.7 0-.3.1.5.3.4.1-.1-.199-.9-.599-1.1-.698l-2.4-1.497c-2.8-1.797-5.5-3.494-8.299-5.29-9.1-5.789-18.099-11.478-27.198-17.266-11.8-7.486-23.499-14.971-35.298-22.356-12-7.586-23.998-15.171-35.897-22.856-9.7-6.188-19.499-12.375-29.198-18.563l-15-9.581c-.2-.1-.4-.3-.7-.4.2.3.4.599.6.998V94.334v-30.84-7.085C2.3 55.21.1 55.21.1 56.609z"/>
        <path stroke="#fff" stroke-linecap="round" stroke-linejoin="round" stroke-width="3" d="M9.7 88.047l3.899 2.395"/>
        <path stroke="#fff" stroke-dasharray="8.81 8.81" stroke-linecap="round" stroke-linejoin="round" stroke-width="3" d="M21.099 94.933l177.087 107.09"/>
        <path stroke="#fff" stroke-linecap="round" stroke-linejoin="round" stroke-width="3" d="M201.985 204.319l3.8 2.295"/>
        <path fill="#DF357F" d="M152.889 168.09c-.4 2.296-1.6 6.088-2.8 8.084-.7 1.298-3.099.499-3.399 3.394-.1 1.497-.1 3.293.6 4.591 9.699 3.992 20.598 8.782 30.597 12.176.3-2.296-.3-4.591 0-6.887-2.4-.798-4.299-3.792-5.599-5.988-1.3-2.196-2-4.591-2.6-7.086-.1-.399-.2-.898-.5-1.198-.3-.299-.8-.499-1.2-.599-5-1.996-15.099-6.487-15.099-6.487z"/>
        <path fill="#333" d="M151.789 167.791c-.3 1.497-.7 2.994-1.2 4.491-.4.998-.8 2.894-1.7 3.493-.8.599-1.8.599-2.4 1.497-.899 1.198-.899 2.894-.899 4.292 0 .798.1 1.497.4 2.295.299.898.599 1.298 1.499 1.697 1.9.798 3.7 1.497 5.6 2.295 3.9 1.597 7.699 3.194 11.599 4.791 4.3 1.697 8.6 3.393 12.999 4.89.8.3 1.3-.399 1.4-1.098.3-2.295-.3-4.591 0-6.886.1-.499-.4-.898-.8-1.098-1.7-.599-2.9-2.295-3.8-3.693-1.099-1.596-1.999-3.293-2.599-5.09l-.9-2.994c-.2-.798-.4-1.597-.9-2.096-.9-.898-2.6-1.297-3.8-1.796-4.2-1.797-8.499-3.693-12.699-5.589-1.3-.599-2.5 1.397-1.1 1.896l12.899 5.689c.6.299 1.2.499 1.9.798.2.1.6.2.8.3.6.399.6.698.8 1.397.6 1.996 1.2 4.092 2.1 5.988 1.5 2.895 3.599 6.288 6.799 7.486-.3-.4-.6-.699-.8-1.098-.3 2.295.3 4.591 0 6.886.5-.399.9-.698 1.4-1.098-10.399-3.593-20.398-7.984-30.598-12.176.2.2.4.3.7.499-.5-1.098-1-4.092 0-5.09.7-.698 1.8-.698 2.5-1.397.9-.998 1.4-2.695 1.9-3.992.6-1.597 1.1-3.194 1.4-4.891-.1-1.397-2.2-1.996-2.5-.598z"/>
        <path fill="#DF357F" d="M177.887 189.548c.2.1 12.099-4.292 15.699-5.689-1.2-.599-7.899-5.988-10.499-12.575-4.6 1.197-9.099 2.495-13.699 3.692.1 0 2.7 12.177 8.499 14.572z"/>
        <path fill="#333" d="M177.887 190.646c.7 0 1.6-.399 2.2-.699 1.5-.499 3-1.098 4.5-1.597 3.1-1.097 6.199-2.295 9.299-3.493.8-.299 1.2-1.597.3-2.096-1.6-.898-3.1-2.395-4.4-3.792-2.299-2.396-4.399-5.09-5.599-8.184-.2-.599-.7-.998-1.4-.799-4.6 1.198-9.099 2.495-13.699 3.693-.6.2-.9.799-.8 1.397.5 2.296 1.3 4.591 2.2 6.787 1.4 3.194 3.3 6.986 6.799 8.483 1.3.599 2.5-1.397 1.1-1.896-3.1-1.297-4.799-4.89-5.999-7.884-.8-1.996-1.5-3.993-1.9-6.088-.3.499-.5.898-.8 1.397 4.599-1.198 9.099-2.495 13.699-3.693-.5-.299-.9-.499-1.4-.798 1.4 3.393 3.5 6.287 6 8.882 1.499 1.597 3.199 3.294 4.999 4.392l.3-2.096c-3 1.197-5.999 2.295-8.999 3.393-1.5.499-3 1.098-4.4 1.597-.5.2-1 .399-1.5.499-.1 0-.3.1-.4.1-.2.1-.4 0 0 0-1.6.199-1.6 2.495-.1 2.495z"/>
        <path fill="#DF357F" d="M152.889 168.09c3.3-1.397 6.2-2.196 9.599-3.194 1.5-.399 3-.798 4.5-.698 1.4.099 2.7.698 4 1.197 4 1.797 8.299 3.593 12.099 5.789-3.9 1.497-8.199 2.894-12.199 3.793-.5.099-1 .199-1.5.199s-.9-.199-1.3-.399c-5.1-2.096-10.099-4.591-15.199-6.687z"/>
        <path fill="#333" d="M153.489 169.088c2.3-.998 4.7-1.796 7.099-2.495 2.5-.699 5.1-1.697 7.7-.998 2.4.699 4.7 1.896 6.999 2.994 2.5 1.098 4.9 2.296 7.3 3.693l.3-2.096c-2.4.898-4.7 1.697-7.1 2.395-1.2.4-2.299.699-3.499.998-1.5.4-2.5.699-4 .1-5-2.096-9.799-4.391-14.699-6.587-1.3-.599-2.5 1.397-1.1 1.896 2.7 1.098 5.4 2.396 7.999 3.593 2.6 1.198 5.2 2.495 7.9 3.493 2.2.799 5-.399 7.199-.998 2.7-.798 5.4-1.696 8-2.694.9-.3 1.2-1.497.3-2.096-2.6-1.497-5.2-2.695-7.9-3.992-2.499-1.098-4.999-2.595-7.699-3.094-2.7-.499-5.3.399-7.9 1.098-2.699.798-5.299 1.696-7.899 2.794-1.5.599-.4 2.495 1 1.996z"/>
        <path fill="#DF357F" d="M156.004 189.659c1.145-.954.955-3.065-.425-4.715-1.38-1.651-3.427-2.216-4.572-1.262-1.145.953-.954 3.064.426 4.715 1.38 1.65 3.426 2.215 4.571 1.262z"/>
        <path fill="#333" d="M149.089 185.456c0 1.896 1.2 3.693 2.7 4.791 1.5 1.098 3.5 1.397 5 .199 1.5-1.197 1.3-3.393.5-4.99-.8-1.597-2.4-3.094-4.2-3.393-1.1-.2-2.1 0-2.9.698-.7.699-1.1 1.697-1.1 2.695 0 .599.5 1.198 1.1 1.098.6 0 1.1-.499 1.1-1.098v-.299c0-.3-.1.099 0 0 0-.1.1-.3.1-.4 0-.099-.1.2 0 0 0-.099.1-.099.1-.199.1-.2 0 .1 0 .1l.2-.2c.2-.2 0 .1 0 0l.2-.1.1-.1s-.3.1 0 0h.1c0-.099.4 0 .5 0 .2 0 0 0 0 0 .1 0 .2 0 .3.1.2 0 .3.1.4.1-.2-.1 0 0 0 0 .1 0 .1.1.2.1.2.1.3.199.5.299.3.2-.1-.1 0 0l.2.2.3.299c.1.1.2.2.3.4-.2-.2 0 .099.1.099.1.1.1.2.2.2.1.1.2.299.2.399 0 0 .1.3 0 .1 0 .1 0 .1.1.2.1.199.1.299.1.499v.199c.1.3 0-.199 0 .1v.499c0 .1 0 .1 0 0v.2c0 .099 0 .099-.1.199-.1.2.1-.199 0 0 0 0 0 .1-.1.1l-.1.1c.1-.1.1-.1 0-.1l-.1.1c-.2.199 0 0 0 0l-.3.199s.2-.099.1 0c-.1 0-.1 0-.2.1h-.1.1-.2c-.1 0-.5-.1-.2 0-.2 0-.3-.1-.4-.1-.1 0-.2-.099-.2-.099-.2-.1.2.099 0 0-.2-.1-.3-.2-.5-.3-.1 0-.1-.1-.2-.1l-.1-.099c.1.099.1.099 0 0l-.4-.4-.4-.399c.1.2 0 0 0 0-.1-.1-.1-.199-.2-.299-.1-.2-.2-.3-.3-.499 0 0-.1-.2 0 0 0-.1-.1-.2-.1-.399 0-.2-.1-.3-.1-.499 0-.1 0-.3 0 0v-.4c0-.599-.5-1.197-1.1-1.098-.6.1-1.2.599-1.2 1.198z"/>
        <path fill="#DF357F" d="M171.962 195.919c1.145-.953.954-3.064-.425-4.715-1.38-1.65-3.427-2.215-4.572-1.262-1.145.954-.954 3.065.426 4.715 1.38 1.651 3.426 2.216 4.571 1.262z"/>
        <path fill="#333" d="M165.088 191.744c0 1.896 1.2 3.692 2.7 4.79 1.5 1.098 3.5 1.398 5 .2s1.3-3.393.5-4.99c-.8-1.597-2.4-3.094-4.2-3.394-1.1-.199-2.1 0-2.9.699-.8.699-1.1 1.796-1.1 2.695 0 .599.5 1.197 1.1 1.098.6 0 1.1-.499 1.1-1.098v-.3c0-.299-.1.1 0 0 0-.1.1-.299.1-.399 0-.1-.1.2 0 0 0-.1.1-.1.1-.2.1-.199 0 .1 0 .1l.2-.199c.2-.2 0 .099 0 0l.2-.1.1-.1s-.3.1 0 0h.1c0-.1.4 0 .5 0 .2 0 0 0 0 0 .1 0 .2 0 .3.1.2 0 .3.1.4.1-.2-.1 0 0 0 0 .1 0 .1.099.2.099.2.1.3.2.5.3.3.199-.1-.1 0 0l.2.199.3.3c.1.1.2.199.3.399-.2-.2 0 .1.1.1.1.1.1.2.2.2.1.099.2.299.2.399 0 0 .1.299 0 .1 0 .099 0 .099.1.199.1.2.1.3.1.499v.2c.1.299 0-.2 0 .1v.499c0 .099 0 .099 0 0v.199c0 .1 0 .1-.1.2-.1.199.1-.2 0 0 0 0 0 .1-.1.1l-.1.099c.1-.099.1-.099 0-.099l-.1.099c-.2.2 0 0 0 0l-.3.2s.2-.1.1 0c-.1 0-.1 0-.2.1h-.1.1-.2c-.1 0-.5-.1-.2 0-.2 0-.3-.1-.4-.1-.1 0-.2-.1-.2-.1-.2-.1.2.1 0 0s-.3-.199-.5-.299c-.1 0-.1-.1-.2-.1l-.1-.1c.1.1.1.1 0 0l-.4-.399-.4-.399c.1.199 0 0 0 0-.1-.1-.1-.2-.2-.3-.1-.199-.2-.299-.3-.499 0 0-.1-.199 0 0 0-.099-.1-.199-.1-.399 0-.199-.1-.299-.1-.499 0-.1 0-.299 0 0v-.399c0-.599-.5-1.198-1.1-1.098-.7.1-1.2.599-1.2 1.198z"/>
        <path fill="#fff" d="M155.489 173.38c-.8 1.397-2.1 4.89-1.9 4.99.1.1 8.2 3.892 12.399 4.89.1-1.497.6-5.788.5-5.888-.1-.1-10.999-3.992-10.999-3.992z"/>
        <path fill="#333" d="M154.489 172.781c-.8 1.297-1.3 2.794-1.8 4.291-.2.499-.4 1.098-.3 1.597.1.4.5.699.8.799 2.4 1.197 4.9 2.295 7.4 3.193 1.599.599 3.199 1.198 4.899 1.597.8.2 1.4-.299 1.4-1.098.1-1.696.3-3.393.5-5.09.1-.698.2-1.397-.5-1.796-.3-.2-.6-.299-.9-.399-2.6-.998-5.2-1.897-7.799-2.895-.8-.299-1.7-.598-2.5-.898-.6-.199-1.2.2-1.4.799-.2.598.2 1.197.8 1.397 3.1 1.098 6.299 2.295 9.399 3.393.3.1.7.3 1 .399.1 0 .2.1.3.1-.4-.199-.2-.1-.1-.1.1.1-.1 0-.2-.099-.1-.2-.2-.3-.3-.499-.1-.4 0-.2 0 0v.499c-.1.598-.1 1.098-.2 1.696-.1 1.098-.2 2.296-.3 3.394.5-.4.9-.699 1.4-1.098-2.6-.599-5-1.597-7.399-2.695-1.1-.499-2.1-.898-3.2-1.397-.3-.2-.7-.3-1-.499-.1 0-.2-.1-.3-.1-.2-.1-.2-.2.1.1.1.199.2.299.3.499.1.199-.1.698 0 .299 0-.199.1-.299.1-.499.1-.499.3-.898.5-1.297.3-.898.7-1.797 1.2-2.595.8-1.098-1.2-2.196-1.9-.998z"/>
        <path fill="#fff" d="M181.787 174.878c.7.998 1.5 2.096 2.5 3.692-2.2 1.198-9.099 2.795-9.299 2.695-.2-.1-1.1-3.094-1.5-3.992l8.299-2.395z"/>
        <path fill="#333" d="M180.787 175.476c.8 1.197 1.7 2.395 2.5 3.692.1-.499.3-.998.4-1.497-.2.1-.3.2-.5.2 0 0-.1 0-.1.1 0 0 .2-.1 0 0-.1.1-.3.1-.4.199-.5.2-1 .4-1.5.499-1.1.3-2.2.699-3.3.899-.8.199-1.7.399-2.6.598-.1 0-.2 0-.4.1-.3.1-.1 0 0 0-.1 0 1 .599.9.499-.1-.1 0 .1 0 0-.1-.199-.2-.399-.2-.599-.4-1.097-.7-2.295-1.299-3.393-.2.599-.4 1.098-.7 1.697 2.799-.799 5.599-1.597 8.299-2.396 1.4-.399.8-2.594-.6-2.195-2.8.798-5.6 1.597-8.299 2.395-.7.2-1 .998-.7 1.697 0 0 .1.299.1.199-.1-.099.1.2.1.2.1.299.2.599.3.798.2.599.4 1.098.6 1.697.2.399.3.998.6 1.298.399.399.799.399 1.299.299 2-.299 3.9-.898 5.9-1.497 1.2-.399 2.4-.699 3.5-1.298.5-.299.7-.998.4-1.497-.8-1.297-1.6-2.495-2.5-3.692-.3-.499-1-.699-1.5-.4-.4.1-.6.899-.3 1.398z"/>
        <path fill="#DF357F" d="M193.586 186.454c0-.898.1-1.796.1-2.595-5.099 1.896-15.599 5.489-15.699 5.689 0 .1-.1.798-.1 1.796 1.8.4 3.5 1.498 4.6 2.995.1.099.2.299.3.399 2.4-.799 4.7-1.697 6.999-2.595.1-1.198.4-2.395 1.1-3.493.5-.998 1.5-1.797 2.7-2.196z"/>
        <path fill="#333" d="M194.686 186.454c0-.898.1-1.697.1-2.595 0-.698-.7-1.297-1.4-1.098-3.7 1.398-7.399 2.595-11.099 3.993-1.3.499-2.7.898-4 1.497-.4.099-.7.299-1 .499-.7.598-.5 1.896-.5 2.694 0 .499.3.998.8 1.098 1.7.399 3.2 1.397 4.2 2.894.2.4.8.699 1.3.5 2.3-.799 4.7-1.697 6.999-2.595.5-.2.8-.499.8-1.098.2-1.897 1.1-3.893 3-4.491 1.4-.499.8-2.595-.6-2.196-3 .998-4.4 3.693-4.7 6.687.3-.399.6-.699.8-1.098-2.299.898-4.699 1.796-6.999 2.595.4.199.8.299 1.3.499-1.2-1.996-3.3-3.394-5.5-3.893.3.4.6.699.8 1.098 0-.499.1-1.098 0-1.597 0-.399-.1-.199-.3.599-.2.1-.3.2-.2.1h.1c.1-.2-.2.1 0 0 .1 0 .1-.1.2-.1.2-.1.4-.199.6-.199l4.2-1.497c3.4-1.198 6.899-2.396 10.299-3.693-.5-.399-.9-.699-1.4-1.098 0 .898 0 1.697-.1 2.595 0 1.397 2.2 1.397 2.3-.1z"/>
        <path fill="#fff" d="M177.787 191.344c0 1.997.1 5.091.1 5.091 1.6-.599 3.2-1.098 4.8-1.697-.1-.1-.2-.3-.3-.399-1-1.597-2.7-2.595-4.6-2.995z"/>
        <path fill="#333" d="M176.687 191.345c0 1.696 0 3.393.1 5.09 0 .698.7 1.297 1.4 1.097 1.6-.598 3.2-1.097 4.8-1.696.7-.2 1.1-.998.7-1.697-1.2-1.996-3.3-3.393-5.5-3.892-.6-.1-1.2.199-1.4.798-.1.599.2 1.198.8 1.397.2.1.5.1.7.2.1 0 .2.1.3.1.1 0 .1 0 .2.1.1.099 0 0 0 0l.6.299c.2.1.4.2.6.399.1.1.2.1.3.2.1.1 0 0 0 0 .1 0 .1.1.2.1.2.199.4.299.5.499l.5.499s.1.199 0 0l.1.099c.1.1.2.3.3.4.2-.599.4-1.098.7-1.697-1.6.599-3.2 1.098-4.8 1.697.5.399.9.698 1.4 1.098 0-1.697-.1-3.394-.1-5.09 0-.599-.5-1.198-1.1-1.098-.8 0-1.3.499-1.3 1.098z"/>
        <path fill="#fff" d="M193.586 186.454c-1.1.399-2.1 1.198-2.8 2.196-.7.998-1 2.195-1.1 3.493 1.3-.499 2.5-.998 3.7-1.597 0-1.397.1-2.695.2-4.092z"/>
        <path fill="#333" d="M193.286 185.356c-1.4.399-2.5 1.298-3.3 2.495-.9 1.198-1.2 2.695-1.3 4.192-.1.699.8 1.298 1.4 1.098 1.3-.499 2.7-1.098 4-1.697.3-.199.6-.599.6-.998 0-1.297.1-2.694.1-3.992 0-.599-.5-1.198-1.1-1.098-.6 0-1.1.499-1.1 1.098-.1 1.298-.1 2.695-.1 3.992.2-.299.4-.599.6-.998-.6.3-1.2.499-1.8.799-.1.099-.3.099-.4.199.2-.1-.1 0-.1 0-.1 0-.1.1-.2.1-.3.1-.6.299-1 .399.5.399.9.699 1.4 1.098v-.2-.099-.1-.2c.1-.299.1-.599.2-.898 0-.1.1-.299.1-.399 0 0 .1-.3.1-.1-.1.1 0-.1 0-.1.1-.299.3-.499.4-.798l.1-.1c.1-.2-.1.1 0 0l.3-.299c.2-.2.4-.4.6-.499-.2.199 0 0 0 0 .1 0 .1-.1.2-.1.1-.1.2-.1.3-.2.1-.1.2-.1.4-.199-.1 0-.2.099 0 0 .1 0 .2-.1.2-.1.6-.2 1-.799.8-1.398-.2-.698-.8-1.097-1.4-.898z"/>
        <path fill="#DF357F" d="M71.095 116.99c-.4 2.296-1.6 6.088-2.8 8.084-.7 1.298-3.1.499-3.4 3.394-.1 1.497-.1 3.293.6 4.591 9.7 3.992 20.599 8.783 30.598 12.176.3-2.296-.3-4.591 0-6.887-2.4-.798-4.3-3.792-5.6-5.988-1.3-2.196-2-4.591-2.6-7.086-.1-.399-.2-.898-.5-1.198-.3-.299-.8-.499-1.2-.598-4.899-1.997-15.098-6.488-15.098-6.488z"/>
        <path fill="#333" d="M69.995 116.691c-.3 1.497-.7 2.994-1.2 4.491-.4.998-.8 2.894-1.7 3.493-.8.599-1.8.599-2.4 1.497-.9 1.198-.9 2.895-.9 4.292 0 .798.1 1.497.4 2.295.3.899.6 1.298 1.5 1.697 1.9.798 3.7 1.497 5.6 2.295 3.9 1.597 7.7 3.194 11.599 4.791 4.3 1.697 8.6 3.393 13 4.89.799.3 1.299-.399 1.399-1.097.3-2.296-.3-4.591 0-6.887.1-.499-.4-.898-.8-1.098-1.7-.599-2.9-2.295-3.8-3.692-1.1-1.597-2-3.294-2.6-5.09l-.9-2.995c-.2-.798-.4-1.597-.9-2.096-.9-.898-2.6-1.297-3.8-1.796-4.199-1.796-8.498-3.693-12.698-5.589-1.3-.599-2.5 1.397-1.1 1.896l12.899 5.689c.6.299 1.2.499 1.9.799.2.099.6.199.8.299.6.399.6.699.8 1.397.6 1.996 1.2 4.092 2.1 5.988 1.5 2.895 3.6 6.288 6.8 7.486-.3-.399-.6-.699-.8-1.098-.3 2.295.3 4.591 0 6.886.5-.399.9-.698 1.399-1.097-10.4-3.593-20.398-7.985-30.598-12.177.2.2.4.3.7.499-.5-1.097-1-4.091 0-5.09.7-.698 1.8-.698 2.5-1.397.9-.998 1.4-2.695 1.9-3.992.6-1.597 1.1-3.194 1.4-4.89-.1-1.398-2.2-1.996-2.5-.599z"/>
        <path fill="#DF357F" d="M96.093 138.448c.2.1 12.099-4.291 15.699-5.689-1.2-.599-7.899-5.988-10.499-12.575-4.6 1.198-9.1 2.495-13.7 3.693.1 0 2.7 12.276 8.5 14.571z"/>
        <path fill="#333" d="M96.093 139.646c.7 0 1.6-.399 2.2-.699 1.5-.499 3-1.098 4.5-1.597 3.099-1.098 6.199-2.295 9.299-3.493.8-.299 1.2-1.597.3-2.096-1.6-.898-3.1-2.395-4.4-3.792-2.3-2.396-4.399-5.09-5.599-8.184-.2-.599-.7-.998-1.4-.799-4.6 1.198-9.1 2.495-13.7 3.693-.6.2-.9.798-.8 1.397.5 2.296 1.3 4.591 2.2 6.787 1.4 3.194 3.3 6.986 6.8 8.483 1.3.599 2.5-1.397 1.1-1.896-3.1-1.297-4.8-4.89-6-7.884-.8-1.997-1.5-3.993-1.9-6.089-.3.499-.5.899-.8 1.398 4.6-1.198 9.1-2.495 13.7-3.693-.5-.299-.9-.499-1.4-.798 1.4 3.393 3.5 6.287 5.999 8.882 1.5 1.597 3.2 3.294 5 4.391l.3-2.095c-3 1.197-6 2.295-8.999 3.393-1.5.499-3 1.098-4.4 1.597-.5.199-1 .399-1.5.499-.1 0-.3.1-.4.1-.2.099-.4 0 0 0-1.5.099-1.5 2.395-.1 2.495z"/>
        <path fill="#DF357F" d="M71.095 116.99c3.3-1.397 6.2-2.196 9.6-3.194 1.5-.399 3-.798 4.499-.698 1.4.1 2.7.698 4 1.197 4 1.797 8.3 3.593 12.099 5.789-3.9 1.497-8.2 2.894-12.2 3.793-.5.099-1 .199-1.5.199s-.9-.199-1.3-.399c-5.099-2.096-10.098-4.491-15.198-6.687z"/>
        <path fill="#333" d="M71.695 117.988c2.3-.998 4.7-1.796 7.1-2.495 2.5-.699 5.099-1.697 7.699-.998 2.4.699 4.7 1.896 7 2.994 2.5 1.098 4.899 2.296 7.299 3.693l.3-2.096c-2.4.898-4.7 1.697-7.1 2.395-1.2.4-2.3.699-3.5.998-1.5.4-2.5.699-4 .1-4.999-2.096-9.798-4.391-14.698-6.587-1.3-.599-2.5 1.397-1.1 1.896 2.7 1.098 5.4 2.396 8 3.593 2.6 1.198 5.199 2.495 7.899 3.493 2.2.799 5-.399 7.2-.998 2.7-.798 5.399-1.696 7.999-2.694.9-.3 1.2-1.497.3-2.096-2.6-1.497-5.2-2.695-7.9-3.992-2.5-1.098-5-2.595-7.7-3.094-2.699-.499-5.299.399-7.899 1.098-2.7.798-5.3 1.696-7.9 2.794-1.499.599-.3 2.595 1 1.996z"/>
        <path fill="#DF357F" d="M74.27 138.518c1.145-.953.955-3.064-.425-4.715-1.38-1.65-3.427-2.215-4.572-1.262-1.145.954-.954 3.065.426 4.715 1.38 1.651 3.427 2.216 4.571 1.262z"/>
        <path fill="#333" d="M67.395 134.356c0 1.897 1.2 3.693 2.7 4.791 1.5 1.098 3.5 1.397 5 .199 1.5-1.197 1.3-3.393.5-4.99-.8-1.597-2.4-3.094-4.2-3.393-1.1-.2-2.1 0-2.9.699-.8.698-1.1 1.796-1.1 2.694 0 .599.5 1.198 1.1 1.098.6 0 1.1-.499 1.1-1.098v-.299c0-.3-.1.1 0 0 0-.1.1-.3.1-.399 0-.1-.1.199 0 0 0-.1.1-.1.1-.2.1-.2 0 .1 0 .1l.2-.2c.2-.199 0 .1 0 0l.2-.1.1-.099s-.3.099 0 0h.1c0-.1.4 0 .5 0 .2 0 0 0 0 0 .1 0 .2 0 .3.099.2 0 .3.1.4.1-.2-.1 0 0 0 0 .1 0 .1.1.2.1.2.1.3.2.5.299.3.2-.1-.099 0 0l.2.2.3.299c.1.1.2.2.3.4-.2-.2 0 .099.1.099.1.1.1.2.2.2.1.1.2.299.2.399 0 0 .1.3 0 .1 0 .1 0 .1.1.2.1.199.1.299.1.499v.199c.1.3 0-.199 0 .1v.499c0 .1 0 .1 0 0v.2c0 .1 0 .1-.1.199-.1.2.1-.199 0 0 0 0 0 .1-.1.1l-.1.1c.1-.1.1-.1 0-.1l-.1.1c-.2.2 0 0 0 0l-.3.2s.2-.1.1 0c-.1 0-.1 0-.2.099h-.1.1-.2c-.1 0-.5-.099-.2 0-.2 0-.3-.099-.4-.099-.1 0-.2-.1-.2-.1-.2-.1.2.1 0 0s-.3-.2-.5-.3c-.1 0-.1-.099-.2-.099l-.1-.1c.1.1.1.1 0 0l-.4-.399-.4-.4c.1.2 0 0 0 0-.1-.099-.1-.199-.2-.299-.1-.2-.2-.299-.3-.499 0 0-.1-.2 0 0 0-.1-.1-.2-.1-.399 0-.2-.1-.3-.1-.499 0-.1 0-.3 0 0v-.4c0-.598-.5-1.197-1.1-1.097-.7.099-1.2.598-1.2 1.197z"/>
        <path fill="#DF357F" d="M90.216 144.919c1.145-.953.954-3.064-.426-4.714-1.38-1.651-3.427-2.216-4.572-1.262-1.145.953-.954 3.064.426 4.714 1.38 1.651 3.427 2.216 4.572 1.262z"/>
        <path fill="#333" d="M83.294 140.744c0 1.896 1.2 3.693 2.7 4.79 1.5 1.098 3.5 1.398 5 .2s1.3-3.393.5-4.99c-.8-1.597-2.4-3.094-4.2-3.394-1.1-.199-2.1 0-2.9.699-.8.699-1.1 1.697-1.1 2.695 0 .599.5 1.197 1.1 1.098.6 0 1.1-.499 1.1-1.098v-.3c0-.299-.1.1 0 0 0-.099.1-.299.1-.399 0-.1-.1.2 0 0 0-.1.1-.1.1-.199.1-.2 0 .099 0 .099l.2-.199c.2-.2 0 .1 0 0l.2-.1.1-.1s-.3.1 0 0h.1c0-.1.4 0 .5 0 .2 0 0 0 0 0 .1 0 .2 0 .3.1.2 0 .3.1.4.1-.2-.1 0 0 0 0 .1 0 .1.1.2.1.2.099.3.199.5.299.3.2-.1-.1 0 0l.2.2.3.299c.1.1.2.2.3.399-.2-.199 0 .1.1.1.1.1.1.2.2.2.1.099.2.299.2.399 0 0 .1.299 0 .1 0 .099 0 .099.1.199.1.2.1.3.1.499v.2c.1.299 0-.2 0 .1v.499c0 .1 0 .1 0 0v.199c0 .1 0 .1-.1.2-.1.2.1-.2 0 0 0 0 0 .1-.1.1l-.1.1c.1-.1.1-.1 0-.1l-.1.1c-.2.199 0 0 0 0l-.3.199s.2-.1.1 0c-.1 0-.1 0-.2.1h-.1.1-.2c-.1 0-.5-.1-.2 0-.2 0-.3-.1-.4-.1-.1 0-.2-.1-.2-.1-.2-.099.2.1 0 0-.2-.099-.3-.199-.5-.299-.1 0-.1-.1-.2-.1l-.1-.1c.1.1.1.1 0 0l-.4-.399-.4-.399c.1.2 0 0 0 0-.1-.1-.1-.2-.2-.3-.1-.199-.2-.299-.3-.499 0 0-.1-.199 0 0 0-.099-.1-.199-.1-.399 0-.199-.1-.299-.1-.499 0-.1 0-.299 0 0v-.399c0-.599-.5-1.198-1.1-1.098-.7.1-1.2.499-1.2 1.198z"/>
        <path fill="#fff" d="M73.695 122.28c-.8 1.397-2.1 4.89-1.9 4.99.1.1 8.2 3.892 12.399 4.89.1-1.497.6-5.788.5-5.888-.1-.1-11-3.992-11-3.992z"/>
        <path fill="#333" d="M72.695 121.781c-.8 1.297-1.3 2.794-1.8 4.291-.2.499-.4 1.098-.3 1.597.1.4.5.699.8.799 2.4 1.197 4.9 2.295 7.4 3.193 1.6.599 3.2 1.198 4.899 1.597.8.2 1.4-.299 1.4-1.098.1-1.696.3-3.393.5-5.09.1-.698.2-1.397-.5-1.796-.3-.2-.6-.299-.9-.399-2.6-.998-5.2-1.897-7.8-2.895-.8-.299-1.7-.598-2.5-.898-.6-.199-1.2.2-1.4.799-.2.598.2 1.197.8 1.397 3.1 1.098 6.3 2.295 9.4 3.393.3.1.7.3 1 .399.1 0 .2.1.3.1-.4-.199-.2-.1-.1-.1.1.1-.1 0-.2-.099-.1-.2-.2-.3-.3-.499-.1-.4 0-.2 0 0v.499c-.1.598-.1 1.098-.2 1.696-.1 1.098-.2 2.296-.3 3.394.5-.4.9-.699 1.4-1.098-2.6-.599-5-1.597-7.4-2.695-1.1-.499-2.1-.898-3.2-1.397-.3-.2-.7-.3-1-.499-.1 0-.2-.1-.3-.1-.2-.1-.2-.2.1.1.1.199.2.299.3.499.1.199-.1.698 0 .299 0-.199.1-.299.1-.499.1-.499.3-.898.5-1.297.3-.898.7-1.797 1.2-2.595.8-1.198-1.1-2.296-1.9-.998z"/>
        <path fill="#fff" d="M99.993 123.778c.7.998 1.5 2.096 2.5 3.693-2.2 1.197-9.1 2.794-9.3 2.694-.2-.099-1.1-3.094-1.5-3.992l8.3-2.395z"/>
        <path fill="#333" d="M99.093 124.376c.8 1.197 1.7 2.395 2.5 3.692.1-.499.3-.998.4-1.497-.2.1-.3.2-.5.2 0 0-.1 0-.1.1 0 0 .2-.1 0 0-.1.1-.3.1-.4.199-.5.2-1 .4-1.5.499-1.1.3-2.2.699-3.3.899-.8.199-1.7.399-2.6.598-.1 0-.2 0-.4.1-.3.1-.1 0 0 0-.1 0 1 .599.9.499-.1-.1 0 .1 0 0-.1-.199-.2-.399-.2-.599-.4-1.097-.7-2.295-1.3-3.393-.2.599-.4 1.098-.7 1.697 2.8-.799 5.6-1.597 8.3-2.396 1.4-.399.8-2.594-.6-2.195-2.8.798-5.6 1.597-8.3 2.395-.7.2-1 .998-.7 1.697 0 0 .1.299.1.199-.1-.099.1.2.1.2.1.299.2.599.3.798.2.599.4 1.098.6 1.697.2.399.3.998.6 1.298.4.399.8.399 1.3.299 2-.299 3.9-.898 5.9-1.497 1.2-.399 2.4-.699 3.5-1.298.5-.299.7-.998.4-1.497-.8-1.297-1.6-2.495-2.5-3.692-.3-.499-1-.699-1.5-.4-.4.2-.7.899-.3 1.398z"/>
        <path fill="#DF357F" d="M111.792 135.354c0-.898.1-1.796.1-2.595-5.1 1.897-15.599 5.49-15.699 5.689 0 .1-.1.799-.1 1.797 1.8.399 3.5 1.497 4.6 2.994.1.1.2.299.3.399 2.4-.798 4.7-1.697 6.999-2.595.1-1.198.4-2.395 1.1-3.493.6-.998 1.6-1.797 2.7-2.196z"/>
        <path fill="#333" d="M112.892 135.354c0-.898.1-1.696.1-2.595 0-.698-.7-1.297-1.4-1.098-3.7 1.398-7.399 2.595-11.099 3.993-1.3.499-2.7.898-4 1.497-.4.1-.7.299-1 .499-.7.599-.5 1.896-.5 2.694 0 .499.3.999.8 1.098 1.7.4 3.2 1.398 4.2 2.895.2.399.8.698 1.3.499 2.3-.799 4.699-1.697 6.999-2.595.5-.2.8-.499.8-1.098.2-1.896 1.1-3.892 3-4.491 1.4-.499.8-2.595-.6-2.196-3 .998-4.4 3.693-4.7 6.687.3-.399.6-.699.8-1.098-2.3.898-4.699 1.797-6.999 2.595.4.2.8.299 1.3.499-1.2-1.996-3.3-3.393-5.5-3.892.3.399.6.698.8 1.097 0-.499.1-1.097 0-1.596 0-.4-.1-.2-.3.598-.2.1-.3.2-.2.1h.1c.1-.199-.2.1 0 0 .1 0 .1-.1.2-.1.2-.099.4-.199.6-.199l4.2-1.497c3.399-1.198 6.899-2.396 10.299-3.693-.5-.399-.9-.699-1.4-1.098 0 .898 0 1.697-.1 2.595 0 1.397 2.3 1.397 2.3-.1z"/>
        <path fill="#fff" d="M96.093 140.245c0 1.996.1 5.09.1 5.09 1.6-.599 3.2-1.098 4.8-1.697-.1-.1-.2-.299-.3-.399-1.1-1.497-2.8-2.595-4.6-2.994z"/>
        <path fill="#333" d="M94.893 140.245c0 1.696 0 3.393.1 5.09 0 .698.7 1.297 1.4 1.097 1.6-.598 3.2-1.097 4.8-1.696.7-.2 1.1-.998.7-1.697-1.2-1.996-3.3-3.393-5.5-3.892-.6-.1-1.2.199-1.4.798-.1.599.2 1.198.8 1.397.2.1.5.1.7.2.1 0 .2.1.3.1.1 0 .1 0 .2.1.1.099 0 0 0 0l.6.299c.2.1.4.2.6.399.1.1.2.1.3.2.1.1 0 0 0 0 .1 0 .1.1.2.1.2.199.4.299.5.499l.5.499s.1.199 0 0l.1.1c.1.099.2.299.3.399.2-.599.4-1.098.7-1.697-1.6.599-3.2 1.098-4.8 1.697.5.399.9.698 1.4 1.098 0-1.697-.1-3.394-.1-5.09 0-.599-.5-1.198-1.1-1.098-.7 0-1.3.499-1.3 1.098z"/>
        <path fill="#fff" d="M111.792 135.355c-1.1.399-2.1 1.198-2.8 2.196-.7.998-1 2.196-1.1 3.493 1.3-.499 2.5-.998 3.7-1.597.1-1.297.1-2.695.2-4.092z"/>
        <path fill="#333" d="M111.492 134.356c-1.4.399-2.5 1.298-3.3 2.495-.9 1.198-1.2 2.695-1.3 4.192-.1.699.8 1.298 1.4 1.098 1.3-.499 2.7-1.098 4-1.697.3-.199.6-.599.6-.998 0-1.297.1-2.695.1-3.992 0-.599-.5-1.198-1.1-1.098-.6 0-1.1.499-1.1 1.098-.1 1.297-.1 2.695-.1 3.992.2-.299.4-.599.6-.998-.6.3-1.2.499-1.8.799-.1.099-.3.099-.4.199.2-.1-.1 0-.1 0-.1 0-.1.1-.2.1-.3.1-.6.299-1 .399.5.399.9.699 1.4 1.098v-.2-.099-.1-.2c.1-.299.1-.599.2-.898 0-.1.1-.299.1-.399 0 0 .1-.3.1-.1-.1.1 0-.1 0-.1.1-.299.3-.499.4-.798l.1-.1c.1-.2-.1.1 0 0l.3-.299c.2-.2.4-.4.6-.499-.2.199 0 0 0 0 .1 0 .1-.1.2-.1.1-.1.2-.1.3-.2.1-.1.2-.1.4-.2-.1 0-.2.1 0 0 .1 0 .2-.099.2-.099.6-.2 1-.799.8-1.398-.2-.698-.8-1.097-1.4-.898z"/>
        <path fill="#fff" d="M74.095 176.675c1.3-3.792.6-8.184-1.6-11.477-.9-1.298-2.2-2.595-2.2-4.292-.1-1.697 1.1-3.194 1.8-4.79 2.3-5.39-1.8-11.478-6.8-14.572-.9-.599-2-1.198-2.3-2.295-.2-.599 0-1.298 0-1.897.3-3.293-1.3-6.587-3.6-9.082-2.299-2.395-4.499-4.092-7.399-5.789-2.9 1.697-5.1 3.394-7.4 5.789-2.299 2.395-3.899 5.689-3.599 9.082.1.599.2 1.298 0 1.897-.3 1.097-1.3 1.696-2.3 2.295-5 3.094-9.099 9.182-6.8 14.572.7 1.596 1.9 3.093 1.8 4.79-.1 1.597-1.3 2.894-2.2 4.292-2.299 3.293-2.899 7.685-1.6 11.477.8 2.296 2.2 4.591 2 6.987-.3 3.093-3.299 5.888-2.399 8.882.9 3.194 44.097 3.194 45.097 0 .9-2.994-2.1-5.789-2.4-8.882-.3-2.396 1.1-4.691 1.9-6.987z"/>
        <path fill="#333" d="M75.195 176.973c1.3-4.192.7-8.883-1.9-12.476-.6-.798-1.3-1.597-1.7-2.595-.5-1.198-.1-2.295.5-3.393 1-1.897 1.8-3.593 1.7-5.789-.1-3.992-2.5-7.585-5.4-10.18-.7-.599-1.5-1.198-2.3-1.796-1-.599-2.1-1.098-2.1-2.396.1-2.195.1-4.092-.8-6.188-2-4.69-6.4-8.084-10.699-10.579-.3-.2-.8-.2-1.1 0-5.5 3.194-12.099 8.583-11.599 15.669.1.899.3 1.797-.4 2.495-.6.599-1.4.899-2.1 1.398-1.3.898-2.5 1.996-3.6 3.194-2 2.295-3.5 4.99-3.7 8.084-.1 1.497.2 2.994.8 4.291.7 1.597 2.1 3.194 1.5 4.99-.6 1.597-2 2.795-2.7 4.292-.8 1.497-1.299 3.094-1.499 4.791-.2 1.696-.2 3.393.2 5.09.4 1.696 1.2 3.193 1.7 4.79.6 1.797.6 3.294-.1 5.09-.6 1.398-1.5 2.795-1.8 4.392-.3 1.397-.3 3.193 1.1 3.992.8.499 1.8.699 2.7.798 3.2.599 6.6.799 9.899.998 8.2.4 16.599.4 24.798-.299 2.4-.2 5.3-.299 7.5-1.397 1.3-.599 1.5-1.697 1.4-3.094-.2-3.194-3.1-5.689-2.5-8.983.7-1.896 1.6-3.493 2.2-5.189.5-1.398-1.7-1.997-2.2-.599-1.1 3.193-2.8 5.988-1.5 9.381.5 1.298 1.2 2.495 1.7 3.693.3.699.5 1.397.4 2.096v.399c-.1.399-.1.499 0 .1.1 0 0-.2 0-.1 0 0 .2-.1-.1.1-.3.2.1 0-.2.1-.4.1-.8.299-1.2.299-1.2.3-2.4.399-3.7.599-7.6.798-15.299.798-22.898.599-3.5-.1-7-.3-10.5-.699-1.1-.1-2.2-.299-3.3-.599-.2-.099-.4-.099-.6-.199-.1 0-.6-.2-.3-.1-.1 0-.2-.1-.3-.2-.2-.099 0 .1.1.1s0 .499 0-.199c0-.4-.1-.699 0-1.098.1-.699.4-1.398.7-2.096.7-1.397 1.4-2.795 1.7-4.392.6-3.293-1.5-6.088-2.2-9.082-.7-3.293 0-6.687 1.9-9.481.8-1.198 1.9-2.395 2.2-3.793.4-1.597-.1-3.193-.9-4.591-.8-1.497-1.5-2.894-1.4-4.691 0-1.696.7-3.293 1.5-4.79.9-1.397 2-2.695 3.2-3.793 1.3-1.098 3-1.796 4.1-3.094 1.3-1.497.7-3.094.8-4.79.1-1.797.8-3.593 1.7-5.09 2.1-3.194 5.5-5.689 8.7-7.585h-1.1c3.599 2.095 7.499 4.99 9.399 8.882.5.898.8 1.896 1 2.994.2 1.098-.1 2.096-.1 3.194 0 2.096 1.6 3.094 3.2 4.192 3.1 1.996 6.099 5.389 6.499 9.282.2 2.195-.6 3.792-1.6 5.688-.9 1.797-1.2 3.494-.3 5.39 1 2.096 2.7 3.693 3.4 5.988.7 2.395.7 4.891-.1 7.286-.3 1.497 1.8 2.096 2.3.699z"/>
        <path fill="#333" d="M62.295 172.481c-2.8 1.198-5.4 2.795-7.699 4.791-1.1.898-2.5 1.996-3.4 3.194-.2.299-.3.599-.3.998-.1 1.896 0 3.792 0 5.689v25.55c0 1.397 2.2 1.497 2.2 0v-27.447-3.992c-.1.3-.2.499-.3.799 3-3.294 6.6-5.789 10.6-7.586 1.3-.598.2-2.594-1.1-1.996z"/>
        <path fill="#333" d="M53.095 181.065c-.7-5.29-.9-10.679-.5-16.069.1-1.397-2.199-1.397-2.199 0-.4 5.589-.2 11.178.6 16.667.1.599.9.899 1.4.799.6-.1.8-.799.7-1.397z"/>
        <path fill="#DF357F" d="M42.197 187.751c1-3.094.5-6.587-1.3-9.182-.7-1.098-1.7-2.096-1.8-3.393-.1-1.397.9-2.595 1.5-3.892 1.8-4.292-1.5-9.182-5.5-11.678-.7-.499-1.6-.998-1.8-1.796-.1-.499 0-.998 0-1.497.3-2.695-1-5.29-2.9-7.286-1.899-1.996-9.998-1.996-11.898 0-1.9 1.996-3.2 4.591-2.9 7.286.1.499.2.998 0 1.497-.2.898-1.1 1.397-1.8 1.796-4 2.496-7.3 7.386-5.5 11.678.5 1.297 1.5 2.495 1.5 3.892-.1 1.297-1.1 2.395-1.8 3.393-1.8 2.695-2.3 6.188-1.3 9.182.6 1.897 1.8 3.693 1.6 5.589-.2 2.495-2.6 4.691-1.9 7.086.8 2.496 35.398 2.496 36.198 0 .7-2.395-1.7-4.591-1.9-7.086-.3-1.896.8-3.692 1.5-5.589z"/>
        <path fill="#333" d="M43.197 188.051c1.1-3.593.4-7.486-1.8-10.579-.5-.799-1.3-1.597-1.3-2.595 0-.998.7-1.897 1.1-2.695.7-1.497 1-3.094.7-4.691-.5-3.393-2.9-6.387-5.7-8.383-.6-.4-1.6-.799-2-1.498-.4-.798.1-2.095 0-2.994-.2-1.796-.9-3.493-2-4.99-.8-1.098-1.6-1.996-2.8-2.495-1.199-.499-2.399-.699-3.699-.798-2.4-.2-5.3-.1-7.4 1.097-1.2.699-2.2 2.196-2.9 3.494-.899 1.696-1.299 3.493-1.099 5.389.1 1.198-.2 1.497-1.1 2.096-.8.499-1.5.998-2.2 1.597-1.3 1.098-2.5 2.495-3.3 3.992-.8 1.397-1.3 2.994-1.2 4.691 0 1.896.9 3.193 1.6 4.89.9 2.096-.9 3.393-1.8 5.09-.9 1.597-1.4 3.493-1.5 5.39-.1 1.896.4 3.692 1.2 5.489.4.898.8 1.896.9 2.894.1.998-.3 1.996-.7 2.894-.8 1.697-2.5 4.991-.4 6.388.9.599 2.1.699 3.1.898 1.8.3 3.6.399 5.4.599 4.6.299 9.3.299 13.999.2 3.9-.1 7.9-.2 11.7-.899.9-.199 2.199-.399 2.899-1.097.7-.699.7-1.897.5-2.795-.3-1.697-1.5-3.194-1.9-4.89-.2-1.897 1.1-3.793 1.7-5.689.5-1.397-1.7-1.996-2.2-.599-.6 1.697-1.5 3.293-1.6 5.09-.1 1.597.6 3.094 1.2 4.491.3.699.7 1.497.8 2.296v.698c-.1.2-.1.3 0 .1 0 0 .1-.299.1-.199 0-.2.1-.001-.2.099.2-.1-.2.1-.4.1-2.9.898-6.1.898-9.1.998-4.299.2-8.699.2-13.098.1-3.3-.1-6.8-.2-10.1-.898-.4-.1-1.1-.3-1.3-.3.2.1-.3-.1-.3-.199l.1.1c.2.199 0 0 0 0 .1.299.1.299 0 0 0-.1-.1-.2 0-.4-.1-1.497 1.1-2.994 1.6-4.391.6-1.597.5-3.194 0-4.791-.6-1.796-1.5-3.393-1.6-5.19-.1-1.796.3-3.593 1.1-5.189.8-1.398 2.1-2.595 2.4-4.292.3-1.796-.7-3.094-1.4-4.591-1.5-3.194.4-6.587 2.7-8.783 1.1-1.098 2.7-1.696 3.7-2.894 1.2-1.298.6-2.795.8-4.391.1-1.797 1.1-3.593 2.3-4.991.7-.698 1.5-.998 2.5-1.197 2.2-.499 5-.499 7.199.399 1.2.499 1.9 1.697 2.5 2.695.4.698.7 1.497.9 2.395.2.998 0 1.896 0 2.894 0 1.597 1.1 2.495 2.3 3.294 1.4.898 2.7 1.996 3.8 3.393.9 1.298 1.7 2.795 1.8 4.392.1 1.796-.8 3.093-1.5 4.69-.7 1.497-.5 2.994.3 4.492.9 1.596 2 2.794 2.5 4.591.499 1.796.399 3.592-.2 5.289-.1 1.497 1.999 2.096 2.399.699z"/>
        <path fill="#333" d="M22.798 212.952c.4-11.378.5-22.855.7-34.233.1-2.695.1-5.389.2-7.984 0-1.397-2.2-1.397-2.2 0-.4 11.378-.5 22.855-.7 34.233-.1 2.694-.1 5.389-.2 7.984-.1 1.397 2.2 1.397 2.2 0z"/>
        <path fill="#333" d="M23.098 185.955c4.7-2.595 9.7-4.691 14.9-6.188 1.4-.399.8-2.595-.6-2.196-5.4 1.497-10.6 3.693-15.5 6.388-1.2.798 0 2.695 1.2 1.996z"/>
        <path fill="#333" d="M32.998 178.969c-.7-2.895-1.5-5.789-2.2-8.584-.4-1.397-2.5-.798-2.2.599.7 2.895 1.5 5.789 2.2 8.583.3 1.398 2.5.899 2.2-.598z"/>
    </g>
</svg>
