<svg width="400" height="290" fill="none" xmlns="http://www.w3.org/2000/svg" viewBox="0 0 400 290">
    <path d="M324.794 290H29.963C13.383 290 0 276.632 0 260.072v-1.097c0-16.56 13.383-29.928 29.963-29.928h294.831c16.579 0 29.963 13.368 29.963 29.928v1.097c0 16.46-13.384 29.928-29.963 29.928z" fill="#333"/>
    <path d="M83.895 260.272c.3.299.5.698.5 1.197 0 .499-.2.898-.5 1.197-.3.299-.7.499-1.199.499H70.212c-.2 0-.3.1-.3.199 0 .499-.1.998-.2 1.497 0 .199 0 .199.2.199H79.4c.6 0 1 .2 1.399.599.3.399.5.798.5 1.197v.199c-.2 2.195-.4 3.891-.7 4.988-.3 1.098-.6 1.896-.999 2.295-.6.698-1.598 1.097-2.796 1.197-.7 0-1.598.1-2.597.1h-.3c-.5 0-.998-.2-1.398-.499-.4-.299-.7-.798-.899-1.297 0-.1-.1-.299-.1-.399 0-.2.1-.499.2-.698.2-.3.6-.499.899-.499.699 0 1.398.1 1.997.1.6 0 1-.1 1.299-.399.4-.399.699-1.497.899-3.292 0-.2-.1-.3-.2-.3h-7.69c-.2 0-.3.1-.4.2-1.298 2.793-3.695 4.988-7.29 6.384-.3.1-.5.1-.8.1-.3 0-.6-.1-.799-.199-.5-.2-.999-.599-1.298-1.098-.2-.299-.3-.499-.3-.798 0-.1 0-.299.1-.399.1-.499.4-.798.799-.898 2.297-.798 3.895-1.895 4.794-3.192.899-1.297 1.598-2.993 1.898-5.088 0-.199 0-.199-.2-.199h-5.593c-.2 0-.3.1-.3.199-.5 4.19-1.598 7.582-3.296 10.276-.3.498-.699.698-1.298.798h-.3c-.4 0-.898-.1-1.298-.399-.1 0-.1-.1-.2-.1-.4-.299-.699-.699-.799-1.197 0-.1-.1-.3-.1-.399 0-.399.1-.699.4-1.098.699-.997 1.198-2.194 1.698-3.392.5-1.197.799-2.493.998-3.79.2-1.297.3-2.494.4-3.492.1-.998.1-2.195.1-3.392v-5.886c0-.598.2-.997.6-1.496.399-.399.898-.598 1.497-.598H79.5c.6 0 1 .199 1.498.598.4.399.6.898.6 1.496v4.29c0 .599-.2.998-.6 1.497-.4.399-.898.598-1.498.598H72.51c-.2 0-.3.1-.3.2v1.695c0 .2.1.2.3.2h10.387c.3 0 .7.2.999.499zm-2.197-16.46c.499 0 .998.199 1.298.598.4.399.6.798.6 1.397 0 .598-.2.997-.6 1.297-.4.399-.8.498-1.298.498H55.13c-.5 0-.999-.199-1.299-.498-.4-.399-.599-.798-.599-1.297 0-.499.2-.998.6-1.397.399-.399.798-.598 1.298-.598h26.567zm-13.883 13.966c0-.2-.1-.2-.3-.2h-7.49c-.2 0-.3.1-.3.2v1.696c0 .199.1.199.2.199h7.49c.2 0 .3-.1.3-.199v-1.696h.1zm9.388-5.287c0-.2-.1-.3-.3-.3H60.124c-.2 0-.3.1-.3.3v1.695c0 .2.1.3.3.3h16.78c.2 0 .3-.1.3-.3v-1.695zM116.355 271.146c0 .199.1.199.299.199h9.189c.499 0 .899.2 1.198.499.3.299.5.698.5 1.197 0 .499-.2.898-.5 1.197a1.655 1.655 0 0 1-1.198.499h-22.872c-.499 0-.899-.2-1.198-.499-.3-.299-.5-.698-.5-1.197 0-.499.2-.898.5-1.197a1.655 1.655 0 0 1 1.198-.499h8.989c.2 0 .3-.1.3-.199v-1.996c0-.199-.1-.199-.3-.199h-6.492c-.499 0-.899-.2-1.198-.499-.3-.299-.5-.698-.5-1.197 0-.499.2-.898.5-1.197a1.655 1.655 0 0 1 1.198-.499h6.492c.2 0 .3-.1.3-.199v-1.497c0-.199-.1-.199-.3-.199l-7.091.299h-.1c-.399 0-.799-.1-1.098-.399-.4-.399-.6-.798-.6-1.297 0-.399.1-.798.4-1.097.299-.399.699-.499 1.198-.499h1.798c.2 0 .3-.1.4-.2.399-.698.799-1.396 1.298-2.194v-.2c0-.1-.1-.1-.1-.1h-5.094c-.199 0-.299.1-.299.3-.3 6.684-1.399 11.971-3.196 15.762-.2.498-.6.798-1.199.897h-.5c-.399 0-.698-.099-1.098-.299-.1 0-.1-.1-.2-.1-.499-.299-.799-.598-.998-1.197-.1-.199-.1-.399-.1-.598 0-.3.1-.599.2-.898.599-1.297 1.198-2.694 1.598-4.19.4-1.496.699-3.092.898-4.788.2-1.597.3-3.093.3-4.39 0-1.297.1-2.693.1-4.19v-8.28c0-.598.2-1.097.6-1.496.399-.399.898-.599 1.497-.599h23.171c.6 0 .999.2 1.499.599.399.399.599.898.599 1.496v4.988c0 .599-.2.998-.599 1.497-.4.399-.899.598-1.499.598h-20.674c-.2 0-.299.1-.299.2v.997c0 .2.099.3.299.3h22.073c.399 0 .799.199 1.198.498.3.3.5.699.5 1.198 0 .498-.2.798-.5 1.197a1.654 1.654 0 0 1-1.198.498h-3.496s-.1 0-.1.1c0 0 0 .1.1.1 1.498 1.097 2.896 2.195 3.995 3.292.3.299.499.698.499 1.097v.2c-.099.499-.299.898-.799 1.197-.399.199-.799.399-1.298.399h-.399c-.6-.1-1.099-.299-1.499-.698l-.099-.1c-.1-.1-.3-.2-.5-.2l-4.994.2c-.199 0-.299.1-.299.199v1.696c0 .2.1.2.299.2h6.692c.499 0 .899.199 1.199.499.299.299.499.698.499 1.197 0 .499-.2.898-.499 1.197-.3.299-.7.499-1.199.499h-6.692c-.199 0-.299.099-.299.199v1.896h.1zm5.193-23.643c0-.2-.1-.3-.299-.3h-18.178c-.2 0-.299.1-.299.3v1.696c0 .199.099.299.299.299h18.178c.199 0 .299-.1.299-.299v-1.696zm-3.495 10.375v-.1h-4.595c-.199 0-.299.1-.399.199-.4.699-.899 1.397-1.498 2.095v.1l.1.1c1.498 0 3.695-.1 6.591-.2 0 0 .1 0 .1-.099v-.1c-.1-.1-.2-.2-.299-.2-.3-.199-.4-.498-.4-.898-.1-.399.1-.598.4-.897zM147.815 253.588c-.399.399-.899.599-1.498.599s-1.099-.2-1.498-.599c-.4-.399-.599-.898-.599-1.496v-2.095s0-.1-.1-.1h-.1c-.599.399-1.199.798-1.898 1.197-.399.2-.799.399-1.198.399h-.5c-.599-.1-1.098-.399-1.498-.798l-.1-.1c-.299-.299-.399-.598-.399-.997v-.2c.1-.499.299-.798.699-1.097 2.796-1.397 5.094-2.993 6.891-4.888.4-.399.999-.699 1.498-.898.3-.1.5-.1.7-.1.399 0 .699.1.998.199.5.2.799.499.899.998v.399c0 .399-.1.698-.399.898l-1.498 1.496c-.1.1-.2.3-.2.399v5.288c.399.598.2 1.097-.2 1.496zm19.076 13.966c0 .599-.2.998-.599 1.497-.4.399-.899.598-1.498.598h-3.995v.1c2.796.998 5.493 2.095 8.09 3.192.399.2.499.399.499.798s-.2.699-.499.798l-1.099.399c-.499.2-1.099.3-1.598.3-.699 0-1.398-.2-2.097-.599-1.698-.798-3.596-1.696-5.593-2.494-.4-.199-.6-.499-.6-.898s.1-.698.5-.897l1.198-.699v-.1s0-.099-.1-.099h-9.987l-.1.099c-.1.1 0 .1 0 .1l1.199.499c.399.2.599.499.599.998 0 .399-.2.698-.5.897-2.097 1.098-4.594 2.095-7.49 3.093-.3.1-.699.1-.999.1-.3 0-.599 0-.799-.1-.599-.2-1.099-.499-1.598-.898-.1-.1-.1-.199-.2-.199a1.081 1.081 0 0 1-.299-.699v-.299c.1-.399.399-.698.799-.798 3.096-.698 5.593-1.496 7.59-2.494v-.1c0-.1 0-.1-.1-.1h-2.996c-.599 0-.999-.199-1.498-.598-.4-.399-.599-.898-.599-1.496V256.98c0-.599.199-.998.599-1.497.399-.399.899-.598 1.498-.598h20.175a11.226 11.226 0 0 1-4.894-1.796c-1.498-.997-2.797-2.195-3.895-3.791-.1-.199-.2-.199-.4-.199l-4.194.199h-.1c-.4 0-.799-.099-1.099-.399-.399-.299-.599-.798-.599-1.297 0-.399.1-.698.399-.997.3-.299.6-.499 1.099-.499l2.996-.199c.2 0 .2-.1.2-.3-.2-.598-.4-1.197-.499-1.795v-.399c0-.399.099-.699.399-.998.3-.399.799-.599 1.298-.599.6 0 1.099.2 1.499.499.399.399.799.798.898 1.397.2.499.4 1.097.6 1.596.1.199.199.2.399.2l5.094-.3h.1l-.1-.1c-.899-.399-1.898-.698-2.797-.997a.9.9 0 0 1-.599-.599c-.1-.299 0-.598.2-.798.499-.499 1.098-.798 1.698-.798.199 0 .399 0 .599.1 1.198.299 2.297.598 3.296.998.399.199.599.399.699.798v.299c0 .299-.1.598-.3.798v.1s0 .099.1.099l1.898-.099h.1c.399 0 .799.099 1.098.399.4.299.6.798.6 1.297 0 .399-.1.698-.4.897-.3.3-.599.499-1.099.499l-7.89.499c-.1 0-.1 0-.1.1 0 0 0 .1.1.1 1.698 1.596 3.596 2.394 5.493 2.394.5 0 .899-.299 1.099-.699.1-.399.4-.598.699-.798.4-.199.699-.199 1.099 0 .499.2.899.599 1.098.998.2.299.2.599.2.898v.499c-.299.997-.699 1.696-1.198 2.194-.5.399-1.299.699-2.198.798-.199 0-.299.1-.299.3v12.17h-.3zm-19.575-9.976c-.2 0-.2.1-.2.3v.997c0 .2.1.2.2.2h15.081c.2 0 .2-.1.2-.2v-.997c0-.2-.1-.3-.2-.3h-15.081zm0 3.991c-.2 0-.2.099-.2.199v.998c0 .199.1.299.2.299h15.081c.2 0 .2-.1.2-.299v-.998c0-.199-.1-.199-.2-.199h-15.081zm0 3.89c-.2 0-.2.1-.2.3v1.097c0 .199.1.199.2.199h15.081c.2 0 .2-.099.2-.199v-1.097c0-.2-.1-.3-.2-.3h-15.081zM198.152 261.07c.4.299.5.798.5 1.197s-.2.898-.5 1.197c-.399.299-.799.499-1.298.499h-4.694c-.2 0-.3.1-.3.299v7.283c0 .997-.1 1.695-.299 2.194-.2.499-.6.898-1.099 1.197-.699.3-1.498.499-2.597.599h-.1c-.499 0-.899-.2-1.298-.499-.4-.399-.799-.798-.899-1.397 0-.099-.1-.299-.1-.399 0-.299.1-.498.2-.798.3-.399.599-.598 1.099-.598h.699c.199 0 .299 0 .399-.1.1-.1.1-.199.1-.399v-6.983c0-.2-.1-.299-.2-.299h-4.993c-.5 0-.899-.2-1.199-.499a1.836 1.836 0 0 1-.499-1.197c0-.399.199-.898.499-1.197.3-.3.799-.499 1.199-.499h14.082c.499-.1.899.1 1.298.399zm-15.38 5.487c.099-.499.399-.898.799-1.198a1.93 1.93 0 0 1 .998-.299h.3c.499.1.899.299 1.198.699.2.299.3.598.3.897v.399a25.516 25.516 0 0 1-1.798 4.689c-.199.399-.599.698-1.098.798-.2 0-.3.1-.5.1-.299 0-.599-.1-.899-.2-.399-.199-.699-.498-.799-.997 0-.2-.099-.299-.099-.499 0-.299.099-.599.199-.798.6-.998.999-2.195 1.399-3.591zm4.893-16.261c.2 0 .2-.1.2-.2v-1.297c0-.199-.1-.199-.2-.199h-4.394c-.499 0-.899-.2-1.199-.499a1.841 1.841 0 0 1-.499-1.197c0-.499.2-.898.499-1.197.3-.299.799-.499 1.199-.499h4.394c.2 0 .2-.1.2-.299v-.399c0-.599.2-.998.599-1.397.4-.399.899-.598 1.399-.598.499 0 .998.199 1.398.598.399.399.599.898.599 1.397v.399c0 .199.1.299.3.299h4.295c.499 0 .898.2 1.198.499.3.299.499.798.499 1.197 0 .499-.199.898-.499 1.197-.3.299-.699.499-1.198.499h-4.295c-.2 0-.3.1-.3.199v1.297c0 .2.1.2.3.2h3.595c.5 0 .899.199 1.199.499.3.299.499.798.499 1.197 0 .499-.199.898-.499 1.197-.3.299-.699.499-1.199.499H184.07c-.499 0-.899-.2-1.199-.499a1.652 1.652 0 0 1-.499-1.197c0-.499.2-.898.499-1.197.3-.3.7-.499 1.199-.499h3.595zm20.375 2.195c-.2 0-.2.099-.2.199v3.492c0 .897.1 1.895.2 2.992.2 1.098.4 2.295.799 3.692.4 1.396.999 2.693 1.798 4.09.799 1.396 1.698 2.593 2.696 3.591.4.399.6.898.7 1.496v.3c0 .399-.1.897-.4 1.296-.1.1-.1.2-.2.4-.299.498-.799.698-1.298.798h-.3c-.399 0-.799-.2-1.098-.499-1.399-1.397-2.497-3.093-3.296-5.088-.799-1.995-1.398-3.791-1.698-5.487-.3 1.696-.899 3.492-1.898 5.487-.998 1.995-2.297 3.691-3.895 5.188-.299.299-.699.399-1.098.399h-.4c-.499-.1-.899-.399-1.298-.898 0 0 0-.1-.1-.1-.2-.399-.4-.798-.4-1.197v-.399c.1-.499.3-.998.699-1.397a18.388 18.388 0 0 0 3.097-3.691 16.521 16.521 0 0 0 1.897-4.09c.4-1.397.699-2.594.899-3.691.2-1.097.3-2.095.3-3.093v-3.491c0-.2-.1-.2-.3-.2h-.1c-.2 0-.299.1-.399.2-.5 1.895-1.199 3.491-1.898 4.988-.2.499-.599.798-1.099.798h-.399c-.4 0-.799-.1-1.099-.399a19.928 19.928 0 0 0-.998-.698c-.1-.1-.1 0-.1.099 0 .399-.1.699-.4.998-.299.299-.599.399-.999.399H184.17c-.5 0-.899-.2-1.199-.499a1.841 1.841 0 0 1-.499-1.197c0-.499.2-.898.499-1.197.3-.299.699-.499 1.199-.499h12.684c.2 0 .3-.1.4-.199 1.398-2.694 2.397-6.385 3.096-11.074.1-.598.399-.997.799-1.396.399-.3.799-.399 1.198-.399h.5c.599.099 1.098.299 1.398.798.299.399.399.798.399 1.197v.399c-.199 1.297-.399 2.494-.699 3.591 0 .2 0 .2.2.2h6.791c.2 0 .3-.1.5-.1s.399 0 .599.1l.899.199c.399.1.699.3.899.699.2.299.299.598.299.897v.2a157.79 157.79 0 0 1-1.198 6.883c-.1.499-.4.798-.799 1.098-.3.099-.499.199-.799.199-.2 0-.3 0-.499-.1-.5-.099-.799-.399-1.099-.798-.2-.299-.3-.698-.3-1.097v-.399c.2-1.097.3-2.394.5-3.791 0-.199 0-.199-.2-.199h-1.698zm-14.482 14.963c-.1-.199-.1-.498-.1-.698 0-.199 0-.399.1-.598.2-.399.499-.699.899-.898.2-.1.499-.1.699-.1.2 0 .4 0 .699.1.4.199.799.499.999.898.3.598.599 1.197.799 1.795.1.2.1.499.1.699 0 .299-.1.498-.2.698-.2.499-.599.798-1.098.997-.2.1-.4.1-.6.1-.199 0-.499-.1-.699-.199-.399-.2-.699-.499-.899-.998-.1-.499-.399-1.097-.699-1.796zM234.906 257.778c.2 0 .3-.099.5-.099.299 0 .599.099.899.299.399.299.699.698.699 1.197v.299c0 .399-.1.898-.4 1.197-.299.499-.699.798-1.298.898-.799.2-1.498.399-2.098.599-.199 0-.199.199-.199.399v8.479c0 1.098-.1 1.896-.4 2.494-.299.599-.599.998-1.198 1.397-.799.399-1.898.598-3.396.698h-.1c-.499 0-.999-.199-1.398-.499-.4-.399-.799-.897-.899-1.396 0-.2-.1-.3-.1-.499 0-.299.1-.599.3-.798.299-.399.599-.599 1.098-.599h1.199c.299 0 .399 0 .499-.099.1-.1.2-.3.2-.499v-7.382s0-.1-.1-.1-.1-.1-.2 0l-1.797.399c-.2 0-.3.1-.5.1-.399 0-.699-.1-.999-.3-.499-.299-.799-.698-.898-1.297 0-.199-.1-.299-.1-.498 0-.399.1-.699.299-1.098.3-.498.699-.798 1.299-.897l2.696-.599c.2 0 .2-.2.2-.299v-5.886c0-.2-.1-.2-.3-.2h-2.197c-.499 0-.999-.199-1.398-.598a1.967 1.967 0 0 1-.599-1.397c0-.598.199-.997.599-1.396.399-.399.799-.599 1.398-.599h2.197c.2 0 .3-.1.3-.2v-4.389c0-.598.2-1.097.599-1.496.4-.399.899-.599 1.498-.599h.1c.6 0 .999.2 1.498.599.4.399.6.898.6 1.496v4.389c0 .2.1.2.199.2h1.399c.499 0 .998.2 1.398.599.4.399.599.897.599 1.396 0 .599-.199.998-.599 1.397-.4.399-.799.598-1.398.598h-1.399c-.199 0-.199.1-.199.2v4.888c0 .1 0 .1.1.2.099.099.099.099.199.099.699-.598 1.199-.698 1.598-.798zm5.593 17.857c-.599 0-.998-.199-1.398-.598a1.97 1.97 0 0 1-.599-1.397v-12.27c0-.599.2-.998.599-1.497.4-.399.899-.598 1.498-.598h13.384c.599 0 .998.199 1.498.598.399.399.599.898.599 1.497v12.07c0 .599-.2.998-.599 1.497-.4.399-.899.598-1.498.598h-.899c-.4 0-.699-.099-.899-.399-.2-.299-.4-.498-.4-.897 0-.1 0-.2-.1-.2h-8.988c-.1 0-.2.1-.2.2 0 .399-.1.698-.4.997-.299.299-.599.399-.998.399h-.6zm4.794-22.246h6.293c.699 0 1.198-.1 1.498-.399.299-.299.499-.798.699-1.696.1-.499.299-.798.699-1.097.2-.1.499-.2.699-.2.2 0 .4 0 .599.1h.1c.599.199.999.598 1.299 1.097.299.399.399.798.399 1.197v.399c-.399 1.696-.899 2.794-1.698 3.492-.799.598-2.097.898-3.895.898h-6.991c-2.497 0-4.195-.399-4.994-1.098-.899-.798-1.298-2.194-1.298-4.289v-7.682c0-.598.199-1.097.599-1.496.399-.399.899-.599 1.498-.599h.1c.599 0 1.099.2 1.498.599.4.399.599.898.599 1.496v2.395c0 .099 0 .099.1.199.1 0 .1.1.2 0a65.818 65.818 0 0 0 7.391-2.294c.399-.2.799-.2 1.198-.2.2 0 .4 0 .599.1.6.1 1.099.399 1.598.798l.2.199c.3.3.4.599.4.898v.3c-.1.498-.4.798-.799.897a86.949 86.949 0 0 1-10.487 2.794c-.2 0-.3.099-.3.299v1.197c0 .698.1 1.097.4 1.297.299.199.699.399 1.797.399zm6.392 9.677c0-.2-.099-.3-.199-.3h-8.59c-.199 0-.299.1-.299.3v1.695c0 .2.1.3.299.3h8.59c.199 0 .199-.1.199-.3v-1.695zm-9.188 7.382c0 .199.1.299.3.299h8.589c.2 0 .2-.1.2-.299v-1.796c0-.199-.1-.299-.2-.299h-8.589c-.2 0-.3.1-.3.299v1.796zM299.425 245.707c.4.399.599.898.599 1.397 0 .598-.199.997-.599 1.396a1.973 1.973 0 0 1-1.398.599h-11.785c-.2 0-.3.099-.3.299-.1.599-.2 1.297-.399 2.195 0 .199 0 .199.199.199h10.887c.599 0 .998.2 1.498.599.399.399.599.898.599 1.496v17.458c0 1.097-.1 1.895-.399 2.394-.3.599-.799.998-1.598 1.297-.899.399-2.397.599-4.495.599-.499 0-.999-.2-1.398-.499-.499-.399-.799-.798-.999-1.297 0-.2-.1-.299-.1-.499 0-.199.1-.499.2-.698.2-.399.599-.499.999-.499h2.597c.299 0 .599-.1.699-.199.1-.1.199-.3.199-.599v-15.263c0-.2-.099-.2-.299-.2h-6.492l1.298.3c.5.099.899.399 1.199.798.1.299.2.598.2.798 0 .199 0 .399-.1.598-.2.599-.4 1.098-.6 1.596v.2c0 .1.1.1.1.1h.699c.5 0 .899.199 1.199.499.3.299.499.698.499 1.197 0 .498-.199.798-.499 1.197-.3.299-.699.499-1.199.499h-4.094c-.2 0-.3.099-.3.199v1.796c0 .199.1.299.3.299h4.893c.5 0 .899.2 1.199.499.3.299.499.698.499 1.197 0 .499-.199.898-.499 1.197-.3.299-.699.499-1.199.499h-4.893c-.2 0-.3.1-.3.199v3.093c0 .598-.2.997-.599 1.397-.4.399-.899.598-1.399.598-.499 0-.998-.199-1.398-.598a1.972 1.972 0 0 1-.599-1.397v-3.093c0-.199-.1-.199-.3-.199h-4.694c-.499 0-.899-.2-1.198-.499-.3-.299-.5-.798-.5-1.197 0-.499.2-.898.5-1.197a1.655 1.655 0 0 1 1.198-.499h4.694c.2 0 .3-.1.3-.299v-1.796c0-.199-.1-.199-.3-.199h-3.995c-.499 0-.899-.2-1.198-.499-.3-.3-.5-.699-.5-1.197 0-.499.2-.798.5-1.197.299-.4.699-.499 1.198-.499h.799c.1 0 .1 0 .2-.1v-.2l-.599-1.795c-.1-.2-.1-.399-.1-.599 0-.199.1-.399.2-.698.199-.399.499-.599.899-.698.199 0 .299-.1.499-.1.3 0 .599.1.899.199.499.2.799.599.999.998.099.199.199.499.299.698.1.2.1.399.1.599 0 .199-.1.499-.2.698a1.585 1.585 0 0 1-.998.798v.1h4.794c.199 0 .299-.1.399-.2.499-1.396.899-2.693 1.199-3.99 0-.199 0-.199-.2-.199h-12.784c-.2 0-.3.099-.3.199v17.558c0 .598-.2.997-.599 1.496-.4.399-.899.599-1.498.599h-.1c-.599 0-.999-.2-1.498-.599-.4-.399-.599-.898-.599-1.496v-19.653c0-.598.199-.997.599-1.496.399-.399.899-.599 1.498-.599h9.388c.2 0 .3-.1.3-.199.2-.898.299-1.596.299-2.195 0-.2 0-.299-.199-.299h-11.186c-.5 0-.999-.2-1.399-.599a1.97 1.97 0 0 1-.599-1.396c0-.599.2-.998.599-1.397.4-.399.899-.599 1.399-.599h11.585c.2 0 .3-.099.3-.299v-.698c0-.599.299-1.098.699-1.397.399-.299.799-.499 1.298-.499h.2l.599.1c.6 0 .999.299 1.399.698.299.399.399.798.399 1.198v.598c0 .2 0 .299.2.299h11.086c.499 0 .999.2 1.398.599z" fill="#fff"/>
    <path d="M17.778 161.909c-1.099 0-1.998-.399-2.797-1.197-.799-.798-1.098-1.696-1.098-2.793v-2.594c0-.1 0-.2-.1-.299h-.3c-.799.498-1.498.997-2.297 1.496-.799.399-1.498.698-2.297.698-.3 0-.5 0-.799-.099-1.199-.2-2.097-.798-2.896-1.597l-1.499-1.496a2.724 2.724 0 0 1-.799-1.895v-.499c.1-.898.6-1.596 1.499-1.995 5.093-2.594 9.388-5.587 12.884-9.078a6.561 6.561 0 0 1 2.896-1.696c.4-.1.899-.2 1.398-.2.7 0 1.299.1 1.898.299l1.598.599c.899.399 1.498.998 1.698 1.895.1.3.1.499.1.799 0 .598-.2 1.197-.7 1.695l-2.497 2.494c-.3.3-.399.599-.399.898v10.275c0 1.098-.4 1.996-1.099 2.794-.799.798-1.698 1.197-2.796 1.197h-1.598v.299zm40.05 25.538c0 1.098-.4 1.996-1.099 2.794-.799.798-1.698 1.097-2.796 1.097H48.24s-.1 0-.1.1c0 0 0 .1.1.1 5.793 2.394 10.387 4.289 13.783 5.885.699.3.998.798.898 1.596 0 .699-.399 1.198-1.098 1.497l-4.395 1.596c-.898.399-1.897.499-2.796.499-1.398 0-2.797-.399-4.295-1.197-2.996-1.696-6.392-3.292-9.987-4.888-.8-.3-1.099-.898-1.099-1.796 0-.698.3-1.197.999-1.596l2.597-1.497s.1-.099 0-.199c0-.1-.1-.1-.1-.1H25.668s-.1 0-.1.1 0 .1.1.1l2.097.997c.8.399 1.299.998 1.299 1.896 0 .798-.3 1.296-.999 1.695-4.195 2.295-8.989 4.29-14.482 6.086-.6.199-1.198.299-1.898.299-.499 0-1.098-.1-1.598-.199-1.198-.3-2.197-.898-2.996-1.796l-1.698-1.696c-.3-.299-.4-.599-.499-.898 0-.199-.1-.399-.1-.499 0-.199 0-.299.1-.498.1-.399.3-.699.5-.898.2-.2.599-.399.998-.499 4.994-1.097 9.388-2.394 12.984-3.99 0 0 .1 0 .1-.1s0-.1-.1-.1H15.48c-1.099 0-1.998-.399-2.797-1.097-.799-.798-1.198-1.696-1.198-2.794v-20.051c0-1.098.4-1.995 1.198-2.793.8-.798 1.698-1.198 2.797-1.198h34.457s0-.099-.1-.099c-5.593-1.497-10.088-4.888-13.483-10.076-.2-.299-.4-.399-.8-.399l-6.192.299s-.1.1-.2.1c-.898 0-1.797-.299-2.496-.898-.8-.698-1.199-1.496-1.299-2.494v-.399c0-.798.3-1.496.8-2.195.698-.798 1.498-1.197 2.496-1.197l3.795-.299c.3 0 .4-.199.3-.499-.3-.898-.5-1.795-.699-2.793 0-.299-.1-.499-.1-.698 0-.699.3-1.397.8-1.995.698-.799 1.497-1.198 2.596-1.198h1.298c1.099 0 2.098.399 2.997 1.098.898.698 1.498 1.696 1.797 2.793.3.798.6 1.596.9 2.295.1.299.399.399.698.399l6.492-.3s.1 0 .1-.099c0 0 0-.1-.1-.1-.899-.3-1.698-.599-2.397-.798-.699-.2-1.198-.699-1.398-1.397-.2-.698-.1-1.297.4-1.796.699-.798 1.498-1.296 2.496-1.596a4.54 4.54 0 0 1 1.598-.299c.4 0 .8.1 1.299.199 2.097.499 4.194 1.198 6.092 1.896.6.199.999.698 1.099 1.397.1.698 0 1.296-.5 1.795v.1c0 .1.1.1.1.1l2.597-.1h.2c.899 0 1.698.299 2.397.898.799.698 1.198 1.496 1.298 2.494 0 .1.1.299.1.399 0 .798-.3 1.496-.799 2.095-.6.798-1.398 1.197-2.397 1.197l-2.197.1c-.1 0-.1.099-.2.199 0 .1 0 .1.1.2.799.598 1.798 1.097 2.996 1.696 1.099.498 1.898 1.197 2.497 2.194.4.599.5 1.197.5 1.896 0 .399-.1.698-.2 1.097-.6 1.796-1.399 3.093-2.397 3.99-1 .798-2.397 1.397-4.095 1.597-.4 0-.5.199-.5.498v22.745h-.4zm-36.455-18.255c-.4 0-.499.199-.499.498v.898c0 .399.2.499.5.499H47.34c.4 0 .5-.2.5-.499v-.898c0-.399-.2-.498-.5-.498H21.373zm0 7.282c-.4 0-.499.199-.499.499v.898c0 .399.2.498.5.498H47.34c.4 0 .5-.199.5-.498v-.898c0-.3-.2-.499-.5-.499H21.373zm0 7.282c-.4 0-.499.2-.499.499v.998c0 .299.2.499.5.499H47.34c.4 0 .5-.2.5-.499v-.998c0-.399-.2-.499-.5-.499H21.373zm37.154-31.923c0-.099 0-.199-.1-.299-.1-.1-.2-.199-.3-.199l-10.287.698c-.1 0-.1 0-.2.1v.199c2.597 2.095 5.394 3.192 8.39 3.192.8 0 1.398-.299 1.698-.798.3-.399.6-1.396.799-2.893zM85.293 142.556c.4-.998 1.199-1.796 2.097-2.295.6-.299 1.199-.499 1.798-.499.4 0 .8.1 1.299.2l1.797.599c1 .299 1.798.997 2.297 1.895a4 4 0 0 1 .3 1.496c0 .399-.1.898-.3 1.297a169.959 169.959 0 0 1-4.494 9.677c-.2.299-.3.598-.3.898v43.295c0 1.098-.399 1.995-1.098 2.793-.8.798-1.698 1.098-2.797 1.098h-1.498c-1.098 0-1.997-.399-2.796-1.098-.8-.798-1.199-1.695-1.199-2.793v-28.531c0-.1 0-.1-.1-.199h-.2c-.1.199-.299.399-.399.598-.5.499-1.099.798-1.798.798h-.4c-.898-.199-1.497-.698-1.897-1.496-.599-1.197-1.198-2.394-1.698-3.492-.4-.798-.599-1.696-.599-2.594v-.698c.1-1.197.6-2.195 1.298-3.092 4.295-4.889 7.89-10.974 10.687-17.857zm42.347 17.358c0-.299-.1-.499-.499-.499h-6.093c-.399 0-.499.2-.499.499v32.621c0 2.394-.2 4.29-.699 5.686-.499 1.397-1.398 2.494-2.697 3.292-1.698.998-3.995 1.597-6.791 1.796h-.3a4.38 4.38 0 0 1-2.696-.898 4.986 4.986 0 0 1-1.798-2.693c-.3-.798-.599-1.696-.899-2.494-.1-.399-.2-.699-.2-.998 0-.499.2-.997.5-1.396.499-.799 1.198-1.098 2.097-1.098h2.497c.499 0 .799-.1.999-.199.199-.2.299-.499.299-.898v-32.422c0-.299-.2-.499-.499-.499h-5.493c-.3 0-.6.1-.699.399-1.199 2.195-2.397 4.29-3.696 6.185a3.543 3.543 0 0 1-2.497 1.397c-.1 0-.2.1-.3.1-.898 0-1.697-.3-2.396-.898-.7-.499-1.299-1.097-1.898-1.596a3.538 3.538 0 0 1-1.398-2.494c0-.2-.1-.299-.1-.499 0-.798.3-1.596.799-2.294 3.396-4.589 6.192-10.276 8.29-17.059.299-.998.898-1.796 1.897-2.394.699-.4 1.398-.599 2.098-.599.299 0 .599 0 .898.1l2.098.499c.999.299 1.798.798 2.297 1.695.399.599.499 1.198.499 1.796 0 .399-.1.698-.199 1.097-.6 1.796-1.199 3.492-1.798 5.088v.299c.1.1.1.2.2.2h20.674c.1 0 .199 0 .299-.1.4-.1.899-.1 1.299-.1.399 0 .899 0 1.298.1l2.197.399c.999.2 1.798.699 2.297 1.497.5.598.7 1.296.7 2.095 0 .199 0 .399-.1.598-.4 3.093-.999 6.185-1.698 9.377-.2 1.098-.699 1.896-1.698 2.494a3.596 3.596 0 0 1-2.197.699c-.3 0-.5 0-.799-.1l-.699-.1a3.896 3.896 0 0 1-2.597-1.696c-.5-.698-.799-1.496-.799-2.394v-.499c.299-1.297.399-2.194.499-3.092zm-29.064 13.767c.3-1.098.9-1.896 1.798-2.494.6-.399 1.299-.699 2.098-.699.299 0 .599 0 .899.1l1.897.399c1.099.2 1.898.798 2.497 1.696.4.599.599 1.297.599 1.895 0 .3 0 .599-.1.998-1.598 5.886-3.595 10.973-5.992 15.463-.499.897-1.199 1.396-2.297 1.696-.3 0-.5.099-.8.099-.798 0-1.497-.199-2.097-.698-.599-.399-1.198-.698-1.797-1.097-.8-.499-1.399-1.297-1.698-2.295 0-.299-.1-.598-.1-.898 0-.698.2-1.297.5-1.895 1.897-3.392 3.395-7.482 4.593-12.27zm24.57 1.995c-.2-.499-.3-.998-.3-1.397 0-.499.1-.997.3-1.496.399-.998 1.198-1.596 2.197-1.995l1.398-.499c.5-.2.999-.3 1.399-.3.599 0 1.198.1 1.697.4a3.957 3.957 0 0 1 2.198 2.194c1.997 4.789 3.495 9.577 4.494 14.465.1.3.1.599.1.898 0 .798-.2 1.497-.599 2.195-.6.997-1.399 1.596-2.497 1.995l-2.098.798c-.399.1-.699.1-1.098.1-.5 0-1.099-.2-1.598-.499-.799-.499-1.398-1.297-1.498-2.294-.799-4.589-2.198-9.577-4.095-14.565zM165.493 167.895c.3 0 .599-.1.899-.1.699 0 1.298.2 1.898.599.899.598 1.398 1.396 1.498 2.494l.1 1.297c0 .199.1.399.1.598 0 .898-.3 1.696-.799 2.494-.6.898-1.499 1.497-2.597 1.796-1.299.399-2.397.598-3.196.898-.3 0-.5.199-.5.598v14.166c0 2.294-.199 4.09-.699 5.387-.499 1.297-1.398 2.195-2.596 2.893-1.598.998-3.996 1.596-7.092 1.696h-.299c-.999 0-1.898-.299-2.697-.998-.899-.698-1.498-1.596-1.798-2.793-.1-.399-.299-.898-.499-1.397-.1-.299-.1-.598-.1-.897 0-.499.2-.998.499-1.497.5-.798 1.199-1.097 2.098-1.097h2.097c.5 0 .799-.1.999-.299.2-.2.3-.499.3-.998v-11.772c0-.399-.2-.498-.5-.399l-1.897.499c-.4.1-.7.1-.999.1-.699 0-1.398-.2-1.998-.599-.899-.598-1.498-1.396-1.797-2.394l-.5-1.895c-.1-.3-.1-.599-.1-.898 0-.698.2-1.297.6-1.896.599-.897 1.398-1.396 2.397-1.695 1.598-.3 2.996-.599 4.294-.898.4 0 .5-.2.5-.599v-9.377c0-.399-.2-.499-.5-.499h-3.296c-1.098 0-1.997-.399-2.796-1.097-.799-.798-1.099-1.696-1.099-2.794v-1.296c0-1.098.4-1.996 1.099-2.794.799-.798 1.698-1.097 2.796-1.097h3.296c.4 0 .5-.2.5-.499v-8.08c0-1.098.399-1.996 1.098-2.794.799-.798 1.698-1.197 2.797-1.197h1.798c1.098 0 1.997.399 2.796 1.197.799.798 1.199 1.696 1.199 2.794v8.08c0 .399.199.499.499.499h2.397c1.099 0 1.997.399 2.796 1.097.799.798 1.099 1.696 1.099 2.794v1.296c0 1.098-.399 1.996-1.099 2.794-.799.798-1.697 1.097-2.796 1.097h-2.397c-.3 0-.499.2-.499.499v7.282c0 .3.199.399.499.3.699-.2 1.398-.4 2.197-.599zm31.161-1.397c.5-.898 1.199-1.596 2.197-1.895.4-.1.7-.1 1.099-.1.599 0 1.199.2 1.798.499l1.398.898c.999.598 1.598 1.396 1.898 2.494.1.399.1.798.1 1.197 0 .698-.2 1.297-.5 1.895-2.696 5.088-6.192 9.976-10.287 14.565-.2.2-.2.499-.1.798 1.398 2.295 2.996 3.592 4.794 3.891h.1c.499 0 .899-.499 1.298-1.397.4-.997.6-2.594.899-4.888 0-.798.4-1.297 1.199-1.596.299-.1.499-.1.799-.1.399 0 .799.1 1.198.399.6.399 1.199.898 1.898 1.297.999.599 1.698 1.496 2.297 2.494.4.798.499 1.496.499 2.294 0 .3 0 .599-.099.998-.999 4.788-2.298 8.081-3.995 9.876-1.499 1.696-3.097 2.494-4.894 2.494-.2 0-.4 0-.6-.1-5.593-.698-9.987-3.491-13.083-8.379-.2-.3-.4-.3-.699-.1-2.497 1.995-4.994 3.691-7.491 5.088-.699.399-1.398.498-2.197.498-.3 0-.599 0-.899-.099-1.099-.2-2.097-.798-2.896-1.597l-2.298-2.294c-.599-.499-.898-1.097-.898-1.696 0-.1 0-.299.099-.399.1-.798.5-1.496 1.299-1.895 3.995-1.896 7.69-4.29 11.286-7.283.299-.199.399-.399.299-.798-1.498-4.888-2.596-11.073-3.296-18.455 0-.3-.199-.499-.499-.499l-2.896.299h-.5c-.899 0-1.698-.299-2.497-.898-.799-.698-1.298-1.596-1.398-2.693l-.1-1.696c0-.1-.1-.299-.1-.399 0-.898.3-1.696.899-2.494.699-.798 1.498-1.297 2.597-1.397l3.196-.299c.3 0 .499-.199.499-.499-.399-5.586-.499-9.676-.499-12.071 0-.997.4-1.895 1.099-2.693.799-.798 1.698-1.097 2.696-1.097h2.297c1.099 0 1.998.399 2.797 1.097.799.798 1.198 1.696 1.198 2.793 0 3.791.2 7.482.3 11.073 0 .3.2.399.499.399l8.29-.698c.1 0 .2 0 .2-.1v-.299c-1.199-1.596-2.996-3.791-5.493-6.684-.6-.698-.899-1.396-.899-2.194 0-.2 0-.4.1-.499.1-.998.599-1.796 1.498-2.394l.899-.599c.799-.499 1.598-.698 2.497-.698.199 0 .399 0 .599.099 1.198.1 2.097.599 2.896 1.397 1.698 1.796 2.996 3.192 3.895 4.09.6.698.899 1.397.899 2.295 0 .099 0 .299-.1.498-.1 1.098-.599 1.896-1.498 2.494l-3.495 2.395c-.1 0-.1 0-.1.099 0 .1.1.1.199.1l5.294-.499c.1 0 .299-.099.399-.099.899 0 1.798.299 2.497.897.799.699 1.299 1.597 1.398 2.694l.1 1.397v.498c0 .898-.299 1.696-.899 2.395-.699.798-1.498 1.296-2.596 1.496l-16.08 1.596c-.3 0-.4.2-.4.499.4 3.99.899 7.582 1.598 10.973 0 .1.1.2.2.2s.2 0 .2-.1c2.397-2.594 4.394-5.586 6.092-8.779zM279.95 161.909c0 1.098-.399 1.995-1.198 2.793-.799.798-1.698 1.098-2.797 1.098h-5.892c-.4 0-.6.1-.799.399-1.299 1.995-2.597 3.791-3.796 5.487v.299c0 .1.1.1.2.1h8.689c1.099 0 1.998.399 2.797 1.197.799.798 1.098 1.696 1.098 2.793v.698c0 1.098-.399 1.995-1.098 2.794-.799.798-1.698 1.097-2.797 1.097h-20.075c-.299 0-.499.199-.499.499v3.391c0 .4.2.499.499.499h16.879c1.099 0 1.998.399 2.797 1.098.799.798 1.098 1.696 1.098 2.793v.698c0 1.098-.399 1.995-1.098 2.793-.799.799-1.698 1.198-2.797 1.198h-16.879c-.299 0-.499.199-.499.498v5.188c0 1.097-.4 1.995-1.199 2.793s-1.697 1.097-2.796 1.097h-2.497c-1.099 0-1.997-.399-2.796-1.097-.799-.798-1.199-1.696-1.199-2.793v-5.188c0-.299-.2-.498-.499-.498h-15.581c-1.098 0-1.997-.399-2.796-1.198-.799-.798-1.199-1.695-1.199-2.793v-.698c0-1.097.4-1.995 1.199-2.793s1.698-1.098 2.796-1.098h15.581c.299 0 .499-.199.499-.499v-3.391c0-.399-.2-.499-.499-.499h-19.676c-1.098 0-1.997-.399-2.796-1.097-.799-.799-1.099-1.696-1.099-2.794v-.698c0-1.097.4-1.995 1.099-2.793.799-.798 1.698-1.197 2.796-1.197h8.889c.1 0 .2 0 .3-.1.1-.1.1-.2.1-.299a86.461 86.461 0 0 0-2.597-5.288c-.2-.299-.1-.399.2-.498h-8.29c-1.099 0-1.997-.4-2.796-1.098-.799-.798-1.199-1.696-1.199-2.793v-.698c0-1.098.4-1.996 1.199-2.794s1.697-1.197 2.796-1.197h21.174c.299 0 .499-.199.499-.499v-3.192c0-.299-.2-.499-.499-.499h-14.183c-1.098 0-1.997-.399-2.796-1.197-.799-.798-1.099-1.696-1.099-2.793v-.698c0-1.098.4-1.996 1.099-2.794.799-.798 1.698-1.097 2.796-1.097h14.282c.3 0 .5-.199.5-.499v-.997c0-1.098.399-1.996 1.198-2.794.799-.798 1.698-1.097 2.797-1.097h2.497c1.098 0 1.997.399 2.796 1.097.799.798 1.199 1.696 1.199 2.794v.997c0 .399.199.499.499.499h15.081c1.099 0 1.998.399 2.797 1.097.799.798 1.198 1.696 1.198 2.794v.698c0 1.097-.399 1.995-1.198 2.793-.799.798-1.698 1.197-2.797 1.197h-15.081c-.3 0-.499.2-.499.499v3.093c0 .299.199.498.499.498h21.673c1.099 0 1.997.4 2.796 1.198.799.798 1.199 1.695 1.199 2.793v.698h-.2zm-37.153 9.777c.1.299.299.498.599.498h11.086c.3 0 .599-.099.699-.399.799-1.596 1.698-3.392 2.497-5.486 0-.1 0-.2-.1-.3-.1-.099-.2-.099-.299-.099H240.4c-.1 0-.2 0-.2.099-.1.1-.1.2 0 .3 1.198 1.895 2.097 3.691 2.597 5.387zM314.107 172.384c0 .1 0 .1 0 0 .1-.299.2-.499.3-.698.2-.2.4-.299.599-.299h32.16c1.099 0 1.998.399 2.797 1.197.799.798 1.198 1.696 1.198 2.793v23.842c0 1.098-.399 1.996-1.198 2.794-.799.798-1.698 1.097-2.797 1.097h-3.496c-.599 0-1.098-.199-1.498-.599-.399-.399-.699-.897-.699-1.496 0-.199-.1-.299-.299-.299h-17.778c-.2 0-.3.1-.3.299 0 .599-.2 1.097-.599 1.496-.4.4-.899.599-1.598.599h-2.896c-1.099 0-1.998-.399-2.797-1.097-.799-.798-1.099-1.696-1.099-2.794v-20.65c0-.099 0-.099-.099-.199h-.2l-.699.997c-.5.798-1.299 1.197-2.297 1.197-.999 0-1.798-.399-2.398-1.097a11.454 11.454 0 0 0-1.398-1.696c0-.1-.1-.1-.199-.1-.1 0-.1.1-.1.2v21.548c0 1.097-.4 1.995-1.099 2.793-.799.798-1.698 1.098-2.796 1.098h-1.798c-1.099 0-1.998-.399-2.797-1.098-.799-.798-1.098-1.696-1.098-2.793v-16.66c0-.1 0-.1-.1-.199h-.3l-2.097 1.795c-.5.399-1.099.699-1.698.699-.3 0-.599-.1-.899-.2-.899-.299-1.598-.898-1.998-1.796-.399-.798-.699-1.695-1.098-2.494-.3-.598-.5-1.296-.5-1.995 0-.299 0-.598.1-.997.2-1.098.799-1.896 1.598-2.494 5.194-3.791 9.389-8.679 12.685-14.665.099-.1.099-.199 0-.299-.1-.1-.2-.1-.3-.1h-9.089c-1.098 0-1.997-.399-2.796-1.197-.799-.798-1.199-1.696-1.199-2.793v-.998c0-1.097.4-1.995 1.199-2.793s1.698-1.097 2.796-1.097h3.096c.4 0 .5-.2.5-.499v-7.981c0-1.097.399-1.995 1.098-2.793.799-.798 1.698-1.098 2.797-1.098h1.798c1.098 0 1.997.399 2.796 1.098.799.798 1.099 1.696 1.099 2.793v7.981c0 .399.199.499.499.499h.599c.1 0 .2 0 .3-.1.3 0 .499-.1.799-.1.699 0 1.298.2 1.898.599l1.498.897c.799.499 1.398 1.197 1.698 2.095.099.399.199.798.199 1.197 0 .499-.099.998-.299 1.497a65.524 65.524 0 0 1-5.094 10.275c-.2.299-.1.599.1.698 1.498 1.098 3.196 2.494 5.293 4.19zm-.399-27.334c0-1.097.399-1.995 1.099-2.793.799-.798 1.697-1.197 2.796-1.197h29.663c1.099 0 1.997.399 2.796 1.197.799.798 1.199 1.696 1.199 2.793v.399c0 1.098-.4 1.995-1.199 2.794-.799.798-1.697 1.097-2.796 1.097h-29.663c-1.099 0-1.997-.399-2.796-1.097-.799-.799-1.099-1.696-1.099-2.794v-.399zm3.795 10.076c0-1.097.4-1.995 1.199-2.793s1.698-1.197 2.796-1.197h22.872c1.098 0 1.997.399 2.796 1.197.799.798 1.199 1.696 1.199 2.793v10.175c0 1.098-.4 1.995-1.199 2.794-.799.798-1.698 1.097-2.796 1.097h-22.872c-1.098 0-1.997-.399-2.796-1.097-.799-.799-1.199-1.696-1.199-2.794v-10.175zm10.487 24.64c0-.299-.2-.498-.499-.498h-3.796c-.299 0-.499.199-.499.498v2.095c0 .399.2.499.499.499h3.796c.399 0 .499-.199.499-.499v-2.095zm-4.295 9.877c-.299 0-.499.199-.499.498v2.195c0 .399.2.499.499.499h3.796c.399 0 .499-.2.499-.499v-2.195c0-.399-.2-.498-.499-.498h-3.796zm14.882-27.733c.399 0 .499-.2.499-.499v-2.295c0-.299-.2-.499-.499-.499h-11.885c-.4 0-.5.2-.5.499v2.295c0 .399.2.499.5.499h11.885zm2.497 20.55c.299 0 .499-.2.499-.499v-2.095c0-.299-.2-.499-.499-.499h-3.796c-.299 0-.499.2-.499.499v2.095c0 .399.2.499.499.499h3.796zm-4.295 9.876c0 .399.2.499.499.499h3.796c.299 0 .499-.2.499-.499v-2.195c0-.399-.2-.498-.499-.498h-3.796c-.299 0-.499.199-.499.498v2.195zM397.703 195.528c-1.498 1.396-3.496 2.095-5.793 2.095s-4.195-.699-5.793-2.095c-1.598-1.397-2.297-3.192-2.297-5.387 0-2.095.799-3.891 2.297-5.387 1.499-1.397 3.496-2.195 5.793-2.195s4.195.698 5.793 2.195c1.498 1.397 2.297 3.192 2.297 5.387 0 2.195-.699 3.99-2.297 5.387zm-5.993-16.859c-1.198 0-2.197-.399-2.996-1.098-.799-.798-1.298-1.696-1.498-2.793l-2.297-17.657-.3-7.383c0-1.097.3-1.995.999-2.793.699-.798 1.598-1.197 2.697-1.197h7.091c1.098 0 1.997.399 2.696 1.197.7.798 1.099 1.696 1.099 2.793l-.3 7.383-2.297 17.657c-.1 1.097-.599 1.995-1.498 2.793-.799.798-1.798 1.098-2.896 1.098h-.5z" fill="#333"/>
    <path d="M73.708 25.439c-1.298-1.198-1.898-2.594-1.898-4.19 0-1.995.8-3.492 2.297-4.59l2.597-1.994c1.598-1.197 3.296-1.796 5.294-1.796h.2c1.997.1 3.795.798 5.393 2.095 10.087 8.779 17.777 16.66 23.171 23.743.899 1.296 1.398 2.593 1.398 3.99 0 .399 0 .798-.1 1.197-.3 1.995-1.298 3.492-2.796 4.689l-4.295 3.292c-1.099.898-2.297 1.297-3.596 1.297-.399 0-.799 0-1.198-.1-1.798-.4-3.196-1.297-4.295-2.793-.899-1.198-1.797-2.494-2.896-3.891-.3-.499-.8-.698-1.398-.698-10.387.498-36.754 1.696-79.002 3.392h-.2c-1.797 0-3.395-.599-4.693-1.796-1.399-1.297-2.198-2.893-2.298-4.789l-.1-3.89c-.2-1.896.4-3.492 1.698-4.888 1.299-1.397 2.897-2.095 4.694-2.195 4.994-.1 8.69-.2 10.987-.2.5 0 .998-.2 1.298-.698 5.194-8.679 9.688-17.258 13.483-25.937.7-1.796 1.998-3.093 3.796-3.99A6.58 6.58 0 0 1 44.245 0c.799 0 1.598.1 2.297.399l6.891 2.195c1.598.598 2.797 1.696 3.496 3.392.3.698.5 1.396.5 2.094 0 .898-.3 1.796-.8 2.694-3.495 6.385-7.39 12.77-11.585 19.054-.1.1-.1.3 0 .499.1.2.3.2.4.2 3.595-.2 8.888-.4 15.88-.6 6.99-.199 12.184-.398 15.48-.598.2 0 .3-.1.3-.2 0-.199 0-.299-.1-.498-1.299-1.297-2.497-2.394-3.296-3.192zm-50.137 87.588c-1.998 0-3.596-.698-4.894-1.995-1.299-1.297-1.998-2.993-1.998-4.888V65.741c0-1.895.7-3.491 1.998-4.888 1.298-1.397 2.996-2.095 4.894-2.095h68.514c1.998 0 3.596.698 4.894 2.095 1.298 1.397 1.997 2.993 1.997 4.888v40.403c0 1.995-.699 3.591-1.997 4.888-1.299 1.297-2.996 1.995-4.894 1.995h-7.89a4.003 4.003 0 0 1-2.896-1.197c-.8-.798-1.199-1.696-1.199-2.793 0-.399-.2-.599-.5-.599H35.057c-.4 0-.599.2-.599.599 0 1.097-.4 1.995-1.198 2.793-.8.798-1.698 1.197-2.797 1.197h-6.891zM80.1 76.316c0-.499-.3-.798-.799-.798H35.456c-.6 0-.9.299-.9.798V90.78c0 .598.3.898.9.898H79.3c.5 0 .799-.3.799-.898V76.316zM175.68 80.805c1.598 1.197 2.497 2.693 2.697 4.589v.798c0 1.596-.5 2.993-1.498 4.19l-1.199 1.496c-1.198 1.397-2.696 2.095-4.494 2.095h-.1c-1.698 0-3.196-.598-4.295-1.895-.299-.3-.599-.699-.899-1.098-.099-.1-.199-.1-.399-.1s-.2.1-.2.3v14.864c0 1.995-.699 3.591-1.997 4.888-1.299 1.297-2.997 1.995-4.894 1.995h-2.996c-1.898 0-3.496-.698-4.894-1.995-1.399-1.297-2.098-2.993-2.098-4.888V94.073c0-.2-.1-.3-.199-.3-.1 0-.3 0-.4.1a74.437 74.437 0 0 1-6.692 7.981c-1.198 1.197-2.596 1.796-4.194 1.796-.2 0-.4 0-.6-.1-1.797-.199-3.295-.898-4.594-2.294-.699-.798-1.398-1.497-1.997-2.195-1.099-1.197-1.598-2.494-1.598-4.09 0-1.995.699-3.592 2.097-4.789 5.493-4.589 10.387-9.976 14.382-16.06.2-.2.2-.3.1-.5s-.3-.299-.4-.299h-8.888c-1.898 0-3.496-.698-4.894-1.995-1.399-1.297-2.098-2.993-2.098-4.888v-.699c0-1.895.699-3.491 2.098-4.888 1.398-1.397 2.996-2.095 4.894-2.095h12.084c.6 0 .899-.3.899-.798v-5.586c0-.5-.299-.799-.899-.799h-12.384c-1.998 0-3.596-.698-4.894-2.094-1.298-1.397-1.997-2.993-1.997-4.889v-.399c0-1.895.699-3.491 1.997-4.888 1.298-1.397 2.996-2.095 4.894-2.095h1.898c.599 0 .898-.3.799-.798-.2-1.396-.6-2.893-1.099-4.489-.2-.499-.2-1.097-.2-1.596 0-.898.2-1.796.699-2.694.699-1.297 1.798-2.194 3.296-2.593.1 0 .1 0 .1-.1 0 0 0-.1-.1-.1h-3.995c-1.897 0-3.495-.698-4.894-2.095-1.398-1.396-2.097-2.993-2.097-4.888v-.2c0-1.995.699-3.59 2.097-4.888 1.399-1.297 2.997-1.995 4.894-1.995h10.986c.6 0 .899-.3.899-.898V7.681c0-1.995.699-3.59 2.098-4.888 1.398-1.297 2.996-1.995 4.894-1.995h2.996c1.997 0 3.595.698 4.894 1.995 1.298 1.297 1.997 2.993 1.997 4.888v2.295c0 .598.3.898.899.898h10.986c1.998 0 3.596.698 4.894 1.995 1.299 1.297 1.998 2.993 1.998 4.888v.2c0 1.895-.699 3.491-1.998 4.888-1.298 1.396-2.996 2.095-4.894 2.095h-2.197v.1c1.199.2 1.998.798 2.597 1.795.499 1.098.599 2.095.1 3.192-1.598 3.692-2.497 5.787-2.797 6.285-.1.2-.1.4.1.599.1.2.3.2.499.2h2.497c1.998 0 3.596.698 4.894 2.094 1.299 1.397 1.998 2.993 1.998 4.889v.399c0 1.895-.699 3.491-1.998 4.888-1.298 1.396-2.996 2.095-4.894 2.095h-11.685c-.599 0-.899.299-.899.798v5.586c0 .5.3.798.899.798h10.487c1.897 0 3.495.699 4.894 2.095 1.398 1.397 2.097 2.993 2.097 4.889v.698c0 1.995-.699 3.591-2.097 4.888-1.399 1.297-2.997 1.995-4.894 1.995h-11.386c-.1 0-.1 0-.1.1 0 0 0 .1.1.2 2.097 1.197 5.493 3.69 10.287 7.282zm-12.185-54.967c.1-.2 0-.4-.099-.599-.2-.2-.3-.2-.5-.2h-13.083c-.2 0-.4.1-.5.2-.1.2-.1.4-.1.599.699 1.696 1.299 3.491 1.898 5.287.2.499.2.898.2 1.397 0 .798-.3 1.596-.799 2.294-.699 1.197-1.698 1.995-2.997 2.294-.099 0-.099 0 0 .1h19.077v-.1c-1.698-.399-2.997-1.296-3.796-2.793-.499-.898-.799-1.795-.799-2.793 0-.599.1-1.197.4-1.896.399-1.296.799-2.593 1.098-3.79zm41.748-1.597c-.499.1-.799.4-.799 1.098v12.47c0 .498.3.798.899.798h28.065c1.998 0 3.596.698 4.894 2.095 1.298 1.396 1.997 2.992 1.997 4.888v2.294c0 1.896-.699 3.492-1.997 4.889-1.298 1.396-2.996 2.095-4.894 2.095h-2.297c-.599 0-.899.299-.899.798v50.178c0 1.996-.699 3.592-1.997 4.889-1.299 1.297-2.997 1.995-4.894 1.995h-2.997c-1.897 0-3.495-.698-4.893-1.995-1.399-1.297-2.098-2.993-2.098-4.889V55.566c0-.499-.299-.798-.899-.798h-6.991c-.599 0-.899.3-.899.798-.499 22.546-5.193 40.003-13.883 52.373-.998 1.397-2.297 2.095-3.995 2.095h-.199c-1.698-.099-3.196-.798-4.495-2.095-.899-.798-1.698-1.596-2.596-2.494-1.399-1.197-2.198-2.693-2.497-4.489-.1-.399-.1-.798-.1-1.197 0-1.297.399-2.594 1.198-3.89 4.095-6.186 6.792-12.97 8.09-20.55 1.299-7.483 1.998-15.863 1.998-24.94V15.462c0-1.696.699-3.093 2.097-4.09.899-.798 1.998-1.197 2.996-1.197.5 0 .999.1 1.499.199l1.997.598c.499.2 1.099.2 1.598 0 8.39-2.294 15.78-4.788 21.973-7.481 1.498-.599 2.996-.898 4.494-.898.499 0 1.099 0 1.498.1 2.097.299 3.895 1.097 5.393 2.494l3.796 3.391c.898.898 1.398 1.896 1.398 3.193v.798c-.3 1.596-1.199 2.693-2.697 3.292-7.89 3.092-17.578 5.885-28.864 8.38z" fill="#DF357F"/>
</svg>
