<svg xmlns="http://www.w3.org/2000/svg" width="93" height="104" fill="none" viewBox="0 0 93 104">
    <path fill="#333" d="M5.984 83.412c.324.187.518.474.58.862.015.078.023.155.023.233 0 .28-.093.543-.279.792l-.07.093c-.216.295-.502.466-.857.512-.078.016-.155.024-.232.024-.279 0-.542-.086-.789-.257-.65-.434-1.368-.846-2.157-1.234-.294-.155-.487-.396-.58-.722-.015-.109-.023-.21-.023-.303 0-.201.07-.403.209-.605.216-.31.51-.52.881-.629.155-.046.302-.07.44-.07.217 0 .434.047.65.14.82.373 1.554.76 2.204 1.164zm-1.6 6.288c.324.187.525.466.602.839.031.093.047.186.047.28 0 .279-.085.535-.255.768l-.047.093c-.2.295-.487.474-.858.536-.093.015-.178.023-.255.023-.263 0-.518-.07-.765-.21-.65-.419-1.384-.822-2.204-1.21-.309-.14-.51-.365-.603-.676-.03-.109-.046-.217-.046-.326 0-.202.062-.396.186-.582.216-.31.502-.528.858-.652.17-.047.332-.07.487-.07.2 0 .394.039.58.116.834.342 1.592.699 2.272 1.072zm-.07 5.753c.17-.31.417-.497.742-.559.077-.016.147-.023.209-.023.262 0 .494.093.695.28l.07.069c.294.264.48.598.557 1.002.015.108.023.217.023.326 0 .279-.07.55-.209.815-.943 1.816-1.886 3.516-2.83 5.1-.185.326-.456.52-.811.582-.093.016-.17.023-.232.023-.278 0-.526-.093-.742-.279l-.255-.186c-.294-.249-.472-.559-.534-.932-.015-.093-.023-.171-.023-.233 0-.295.085-.574.255-.838 1.067-1.6 2.095-3.315 3.085-5.147zm11.271 4.844c0 .124.062.186.186.186h4.638c.371 0 .68.132.928.396.262.249.394.559.394.932 0 .372-.132.683-.394.931-.248.264-.557.396-.928.396H7.746c-.37 0-.688-.132-.95-.396-.248-.248-.372-.559-.372-.931 0-.373.124-.683.371-.932.263-.264.58-.396.951-.396h4.731c.108 0 .163-.062.163-.186v-4.006c0-.124-.055-.186-.163-.186H9.44c-.37 0-.688-.124-.95-.373-.264-.263-.395-.582-.395-.954 0-.373.131-.684.394-.932.263-.264.58-.396.951-.396h3.038c.108 0 .163-.062.163-.186V89.7c0-.11-.055-.163-.163-.163H8.604c-.37 0-.688-.132-.95-.396-.263-.28-.395-.606-.395-.979 0-.372.132-.69.394-.954.263-.264.58-.396.951-.396h5.497c.03 0 .046-.016.046-.047.016-.031.016-.054 0-.07-.912-.76-2.01-1.506-3.293-2.236-.31-.186-.495-.45-.557-.791-.015-.078-.023-.148-.023-.21 0-.264.085-.497.255-.699l.093-.116c.278-.31.61-.505.997-.582.124-.031.248-.047.371-.047.263 0 .518.07.766.21 1.267.667 2.38 1.358 3.34 2.072.308.218.479.52.51.909v.116c0 .342-.109.637-.325.885l-.394.466c-.016.031-.024.062-.024.093.016.031.047.047.093.047h3.92c.386 0 .71.132.974.396.262.263.394.582.394.954 0 .373-.131.7-.394.979-.263.264-.588.395-.974.395H15.77c-.124 0-.186.055-.186.163v3.564c0 .124.062.186.186.186h3.293c.355 0 .665.132.927.396.263.248.395.559.395.931 0 .373-.132.692-.395.955-.262.249-.572.373-.927.373H15.77c-.124 0-.186.062-.186.186v4.006zM37.27 85.276c.015-.031.007-.063-.024-.094-.015-.046-.046-.07-.092-.07h-5.52c-.047 0-.085.024-.116.07-.015.031-.015.063 0 .094.155.388.294.76.417 1.118.031.077.024.147-.023.21-.03.061-.085.1-.162.115v.024h5.195v-.023c-.077-.016-.132-.055-.163-.117-.03-.078-.03-.147 0-.21.217-.465.38-.838.488-1.117zm6.308 1.467c.309 0 .564.109.765.326.217.202.325.458.325.768 0 .295-.108.552-.325.769-.2.217-.456.326-.765.326H25.233c-.31 0-.572-.109-.789-.326-.2-.217-.301-.474-.301-.769 0-.31.1-.566.301-.768.217-.218.48-.326.789-.326h3.803c.047 0 .078-.016.093-.047.031-.046.047-.085.047-.116-.124-.373-.294-.823-.51-1.351-.032-.062-.008-.1.069-.116h-2.343c-.309 0-.572-.101-.788-.303-.201-.218-.302-.474-.302-.769 0-.31.101-.574.302-.792.216-.217.48-.326.788-.326h6.402c.108 0 .162-.046.162-.14 0-.31.108-.574.325-.791.216-.218.479-.326.788-.326h.557c.309 0 .572.109.788.326.217.217.325.481.325.792 0 .093.054.14.162.14h6.424c.31 0 .565.108.766.325.216.218.325.482.325.792 0 .295-.109.551-.325.769-.201.202-.456.303-.766.303H40.1c.093.03.155.085.186.163.03.062.023.124-.024.186-.139.233-.386.613-.742 1.141-.015.031-.015.062 0 .093.016.031.047.047.093.047h3.966zm-17.14 15.86c-.277.279-.618.427-1.02.442h-.07c-.386 0-.733-.116-1.043-.349-.263-.171-.394-.427-.394-.769 0-.31.116-.574.348-.792.618-.59 1.136-1.273 1.554-2.049.17-.326.417-.559.742-.699.17-.077.348-.116.533-.116.14 0 .279.023.418.07.324.109.564.326.719.652.077.155.116.31.116.466 0 .155-.039.31-.116.465-.495 1.087-1.09 1.98-1.786 2.679zm3.04-8.291c-.11 0-.163.062-.163.186v.722c0 .109.054.163.162.163h9.926c.108 0 .163-.054.163-.163v-.722c0-.124-.055-.186-.163-.186h-9.926zm0-2.655c-.11 0-.163.054-.163.163v.675c0 .124.054.186.162.186h9.926c.108 0 .163-.062.163-.186v-.675c0-.109-.055-.163-.163-.163h-9.926zm3.849 9.758h3.27c.31 0 .533-.047.673-.14.139-.093.247-.271.324-.535.062-.295.224-.521.487-.676.155-.077.317-.116.487-.116.109 0 .217.015.325.046.371.14.657.357.858.652.14.218.209.443.209.676 0 .093-.016.194-.047.303-.2.776-.533 1.312-.997 1.606-.448.295-1.128.443-2.04.443h-3.827c-1.485 0-2.482-.21-2.992-.629-.495-.403-.742-1.18-.742-2.329v-1.14c0-.373.131-.692.394-.956.263-.28.588-.419.974-.419h1.16c-.062-.031-.1-.078-.116-.14 0-.062.023-.116.07-.163l.649-.652c.03-.015.038-.039.023-.07-.016-.03-.031-.046-.047-.046h-4.43c-.37 0-.695-.132-.973-.396-.263-.264-.395-.59-.395-.978v-4.472c0-.372.132-.69.395-.955.278-.28.603-.419.974-.419h13.01c.387 0 .712.14.975.42.262.263.394.582.394.954v4.472c0 .388-.132.714-.394.978-.263.264-.588.396-.974.396h-6.17c-.03 0-.046.015-.046.046 0 .016.008.024.023.024.449.233.882.465 1.299.698.263.171.417.42.464.746v.116c0 .28-.1.52-.302.722-.232.233-.525.365-.881.396h-.116c-.31 0-.587-.085-.835-.256-.68-.466-1.422-.877-2.226-1.235-.031-.03-.062-.03-.093 0-.031.016-.046.047-.046.094v2.212c0 .311.07.512.208.606.155.077.503.116 1.044.116zm7.027-1.7c-.185-.187-.278-.404-.278-.652v-.14c.046-.31.2-.536.464-.675.278-.156.564-.233.858-.233h.208c.372.046.696.194.975.442.88.839 1.607 1.63 2.18 2.376.17.202.255.427.255.675 0 .093-.016.194-.047.303-.092.357-.301.629-.626.815-.216.124-.44.186-.672.186-.109 0-.225-.015-.348-.046-.356-.093-.642-.288-.858-.583-.588-.807-1.291-1.63-2.11-2.468zM63.57 98.434c.123 0 .185-.062.185-.186v-.769c0-.124-.062-.186-.186-.186h-3.92c-.123 0-.185.062-.185.186v.769c0 .124.062.186.186.186h3.92zm-3.92-4.332c-.124 0-.186.062-.186.186v.676c0 .109.062.163.186.163h3.92c.123 0 .185-.054.185-.163v-.675c0-.125-.062-.187-.186-.187h-3.92zm-6.772-4.914c0 .109.054.163.162.163h3.386c.108 0 .163-.054.163-.163v-.792c0-.124-.055-.186-.163-.186H53.04c-.108 0-.162.062-.162.186v.792zm10.436-.792c0-.124-.054-.186-.162-.186H59.65c-.124 0-.186.062-.186.186v.792c0 .109.062.163.186.163h3.502c.108 0 .162-.054.162-.163v-.792zM68 95.126c.31 0 .564.11.765.327.217.217.325.474.325.769 0 .294-.108.55-.325.768-.2.202-.456.303-.765.303h-1.206c-.108 0-.162.062-.162.186v2.608c0 .373-.14.699-.418.979-.263.264-.58.396-.95.396h-.65c-.232 0-.433-.086-.603-.257-.17-.17-.255-.38-.255-.628 0-.063-.039-.094-.116-.094h-3.99c-.123 0-.185.055-.185.163v.559c0 .699-.092 1.219-.278 1.561-.185.357-.51.636-.974.838-.603.233-1.6.365-2.992.396h-.023c-.34 0-.65-.109-.928-.326-.278-.202-.494-.474-.649-.815-.046-.109-.07-.217-.07-.326 0-.14.047-.272.14-.396.139-.233.34-.349.602-.349.51.015 1.083.023 1.717.023.216-.016.363-.062.44-.14.093-.093.14-.248.14-.466v-.559c0-.108-.055-.163-.163-.163h-6.03c-.278 0-.518-.101-.719-.302-.2-.202-.301-.443-.301-.722 0-.295.1-.536.301-.722.201-.202.441-.303.72-.303h6.03c.107 0 .162-.062.162-.186v-.769c0-.124-.055-.186-.163-.186h-8.14c-.31 0-.572-.101-.789-.303-.2-.217-.301-.474-.301-.768 0-.295.1-.552.301-.77.217-.216.48-.325.789-.325h8.14c.108 0 .163-.054.163-.163v-.675c0-.125-.055-.187-.163-.187h-5.914c-.263 0-.487-.093-.672-.28-.186-.186-.279-.41-.279-.675 0-.264.093-.489.279-.675.185-.186.41-.28.672-.28h5.914c.108 0 .163-.054.163-.163v-.698c0-.124-.055-.187-.163-.187h-4.893c-.371 0-.696-.132-.974-.395-.263-.264-.395-.59-.395-.979v-1.98c0-.372.132-.69.395-.954.278-.28.603-.42.974-.42h4.893c.108 0 .163-.054.163-.162v-.63c0-.123-.055-.185-.163-.185h-7.56c-.31 0-.572-.11-.789-.326-.216-.218-.325-.482-.325-.792 0-.31.109-.575.325-.792.217-.218.48-.326.789-.326h7.56c.108 0 .163-.055.163-.163 0-.388.131-.714.394-.978.278-.264.603-.396.974-.396h.139c.387 0 .711.132.974.396s.394.59.394.978c0 .108.062.163.186.163h7.77c.308 0 .571.108.788.326.232.217.348.481.348.792 0 .31-.116.574-.348.792-.217.217-.48.326-.789.326h-7.77c-.123 0-.185.062-.185.186v.629c0 .108.062.163.186.163h5.195c.386 0 .711.14.974.419.263.264.394.582.394.955v1.98c0 .388-.131.714-.394.978s-.588.395-.974.395H59.65c-.124 0-.186.063-.186.187v.698c0 .11.062.163.186.163h5.612c.371 0 .688.14.951.42.279.264.418.582.418.955v1.397c0 .109.054.163.162.163h1.206zM78.366 94.545c.108-.047.224-.07.348-.07.185 0 .363.054.533.163.294.17.464.419.51.745.031.093.047.186.047.28 0 .248-.07.489-.209.722-.17.31-.425.535-.765.675-1.624.605-3.587 1.327-5.891 2.166-.17.062-.332.093-.487.093-.201 0-.394-.047-.58-.14-.356-.155-.61-.404-.765-.745l-.07-.21c-.077-.155-.116-.31-.116-.465 0-.187.047-.365.14-.536.154-.326.401-.536.741-.629.634-.202 1.237-.388 1.81-.559.108-.03.162-.1.162-.21V87c0-.109-.062-.163-.186-.163h-1.16c-.355 0-.664-.124-.927-.373-.247-.264-.371-.574-.371-.931 0-.373.124-.683.371-.932.263-.264.572-.396.928-.396h5.52c.355 0 .657.132.904.396.263.249.394.56.394.932 0 .357-.131.667-.394.931-.247.249-.549.373-.905.373h-1.16c-.108 0-.162.054-.162.163v7.942c0 .03.016.062.047.093.03.03.07.038.116.023l1.577-.512zm4.963 1.094c-.124 0-.186.055-.186.163v1.188c0 .109.062.163.186.163h5.868c.123 0 .185-.054.185-.163v-1.188c0-.108-.062-.163-.186-.163H83.33zm0-3.493c-.124 0-.186.062-.186.186v1.165c0 .124.062.186.186.186h5.868c.123 0 .185-.062.185-.186v-1.165c0-.124-.062-.186-.186-.186H83.33zm0-3.4c-.124 0-.186.054-.186.163v1.164c0 .109.062.163.186.163h5.868c.123 0 .185-.054.185-.163V88.91c0-.109-.062-.163-.186-.163H83.33zm8.79 9.106c0 .388-.132.714-.395.978-.262.264-.587.396-.974.396h-7.444c-.031 0-.054.015-.07.046 0 .031.008.055.023.07l.928.652c.278.202.418.474.418.815 0 .326-.14.575-.418.746-1.16.729-2.427 1.366-3.803 1.909-.201.078-.402.117-.603.117-.17 0-.333-.023-.488-.07-.37-.109-.688-.311-.95-.606-.14-.17-.21-.357-.21-.558 0-.063.009-.132.024-.21.062-.28.232-.474.51-.582 1.716-.683 3.093-1.421 4.129-2.213.03-.015.038-.039.023-.07-.016-.03-.031-.046-.047-.046h-.858c-.386 0-.711-.132-.974-.396s-.394-.59-.394-.978v-9.828c0-.389.131-.715.394-.978.263-.264.588-.396.974-.396h2.18c.109 0 .178-.063.209-.187.046-.217.124-.652.232-1.304.03-.109-.016-.163-.14-.163h-3.64c-.325 0-.603-.116-.835-.35-.232-.232-.348-.512-.348-.838 0-.326.116-.605.348-.838.232-.233.51-.35.835-.35h11.062c.325 0 .603.117.835.35.232.233.348.512.348.838 0 .326-.116.606-.348.839-.232.233-.51.35-.835.35h-3.896c-.108 0-.178.053-.209.162-.046.14-.209.582-.487 1.328-.015.03-.015.07 0 .116.031.031.07.047.116.047h3.41c.386 0 .71.132.973.396.263.263.395.59.395.978v9.828zm-4.43 3.633c-.263-.171-.394-.419-.394-.745 0-.28.116-.505.348-.676.324-.233.68-.365 1.067-.396h.115c.356 0 .68.086.974.256.975.559 1.81 1.08 2.505 1.561.278.186.418.45.418.792 0 .341-.14.621-.418.838l-.023.023c-.31.233-.657.35-1.044.35-.015 0-.03-.008-.046-.024-.402 0-.765-.124-1.09-.372-.68-.497-1.484-1.033-2.412-1.607z"/>
    <path fill="#DF357F" d="M48.897 62.07c16.624 0 30.101-13.532 30.101-30.227 0-16.694-13.477-30.227-30.101-30.227-16.625 0-30.102 13.533-30.102 30.227 0 16.695 13.477 30.228 30.102 30.228z"/>
    <path fill="#333" d="M77.514 31.843c-.032 7.384-2.907 14.468-8.024 19.77-5.116 5.303-12.077 8.412-19.425 8.676-7.348.265-14.513-2.336-19.994-7.257-5.482-4.921-8.854-11.781-9.412-19.143-.558-7.362 1.742-14.656 6.42-20.353C31.754 7.84 38.444 4.18 45.748 3.324 53.051 2.47 60.4 4.484 66.257 8.95c5.856 4.464 9.766 11.03 10.91 18.324.234 1.512.35 3.04.346 4.57 0 .396.156.775.435 1.054.278.28.656.437 1.05.437.393 0 .77-.157 1.049-.437.278-.28.434-.658.434-1.054.012-8.214-3.142-16.115-8.802-22.046C66.02 3.867 58.294.365 50.12.027 41.947-.311 33.96 2.54 27.834 7.984c-6.126 5.444-9.917 13.057-10.578 21.245-.66 8.188 1.86 16.315 7.034 22.678 5.173 6.364 12.599 10.47 20.72 11.457 8.12.988 16.307-1.218 22.844-6.157 6.537-4.939 10.917-12.226 12.223-20.336.259-1.663.395-3.344.406-5.028 0-.395-.157-.774-.435-1.053-.279-.28-.656-.437-1.05-.437s-.771.157-1.05.436c-.278.28-.434.66-.434 1.054z"/>
    <path fill="#fff" d="M46.423 46.351c-.151.007-.302-.018-.444-.073-.14-.054-.27-.138-.376-.246-.107-.107-.191-.236-.246-.378-.054-.142-.079-.294-.072-.446v-5.554c-.008-.313.106-.615.317-.845.105-.112.233-.2.374-.258.142-.058.294-.085.447-.08h5.571c.148 0 .294.03.43.087.137.058.26.144.362.251.108.111.194.244.252.389.058.145.086.3.084.456v5.584c.004.153-.024.306-.082.448-.058.142-.145.27-.254.377-.214.204-.497.318-.792.318l-5.571-.03zm.139-10.046c-.153.004-.304-.025-.444-.085-.14-.06-.266-.15-.368-.263-.103-.104-.184-.228-.239-.365-.054-.136-.08-.283-.078-.43V15.657c-.007-.151.018-.301.072-.442.055-.14.138-.267.245-.373.107-.106.234-.188.373-.243.14-.054.289-.08.439-.075h5.205c.295-.002.579.112.791.318.113.103.202.229.262.37.06.14.088.292.084.444v19.506c-.012.3-.136.583-.346.795-.211.211-.494.336-.791.348H46.56z"/>
</svg>
