<svg xmlns="http://www.w3.org/2000/svg" width="389" height="98" fill="none" viewBox="0 0 389 98">
    <path fill="#DF357F" stroke="#333" stroke-miterlimit="10" stroke-width="2" d="M338.03 85.001c-3.065 0-5.48-2.424-5.48-5.5v-.093c0-3.076 2.415-5.5 5.48-5.5h39.103c.743 0 1.394-.652 1.394-1.398 0-.746-.651-1.398-1.394-1.398h-39.846c-4.644 0-8.359 3.729-8.359 8.39 0 4.66 3.715 8.389 8.359 8.389h39.846c.743 0 1.394-.653 1.394-1.398 0-.746-.651-1.399-1.394-1.399H338.03v-.093z"/>
    <path fill="#fff" stroke="#333" stroke-miterlimit="10" stroke-width="2" d="M376.854 85.001h-39.01c-2.879 0-5.294-2.33-5.294-5.313v-.466c0-2.89 2.322-5.313 5.294-5.313h39.01V85z"/>
    <path stroke="#333" stroke-miterlimit="10" stroke-width="2" d="M338.401 77.45h14.583M351.498 81.086h19.505"/>
    <path fill="#F0D227" stroke="#333" stroke-miterlimit="10" stroke-width="2" d="M378.898 56.757c3.065 0 5.48 2.424 5.48 5.5v.093c0 3.076-2.415 5.5-5.48 5.5h-39.103c-.743 0-1.394.652-1.394 1.398 0 .746.651 1.398 1.394 1.398h39.846c4.644 0 8.359-3.728 8.359-8.39 0-4.66-3.715-8.389-8.359-8.389h-39.846c-.743 0-1.394.653-1.394 1.398 0 .746.651 1.399 1.394 1.399h39.103v.093z"/>
    <path fill="#fff" stroke="#333" stroke-miterlimit="10" stroke-width="2" d="M340.074 56.757h39.01c2.879 0 5.294 2.33 5.294 5.313v.466c0 2.89-2.322 5.314-5.294 5.314h-39.01V56.757z"/>
    <path stroke="#333" stroke-miterlimit="10" stroke-width="2" d="M378.619 64.308h-14.582M365.523 60.765h-19.598"/>
    <path fill="#fff" d="M225.458 46.689c2.411 0 4.365-1.962 4.365-4.382s-1.954-4.38-4.365-4.38c-2.411 0-4.366 1.96-4.366 4.38s1.955 4.382 4.366 4.382z"/>
    <path fill="#333" d="M230.938 42.309c0-2.33-1.394-4.288-3.53-5.127-2.043-.746-4.551-.093-5.944 1.584-1.393 1.772-1.672 4.288-.558 6.246 1.208 1.957 3.437 2.983 5.666 2.517 2.508-.373 4.273-2.704 4.366-5.22 0-1.305-2.044-1.305-2.044 0 0 1.398-.836 2.703-2.136 3.076-1.393.466-2.879.093-3.808-1.026-.836-1.025-.929-2.61-.186-3.728.65-1.119 2.136-1.865 3.437-1.585 1.672.28 2.693 1.678 2.786 3.263-.186 1.305 1.951 1.398 1.951 0z"/>
    <path fill="#fff" d="M239.018 46.876h31.673c2.415 0 4.458-1.958 4.458-4.475 0-2.424-1.95-4.474-4.458-4.474h-31.673c-2.415 0-4.458 1.957-4.458 4.474 0 2.424 2.043 4.474 4.458 4.474z"/>
    <path fill="#333" d="M239.018 47.901H265.861c1.672 0 3.436.094 5.108 0 2.601-.186 4.83-2.237 5.109-4.847.278-2.517-1.208-4.847-3.53-5.78-1.765-.652-3.994-.372-5.851-.372h-21.735c-1.95 0-3.901-.093-5.944 0-4.923.093-7.523 6.339-3.622 9.694 1.114.84 2.322 1.212 3.622 1.305 1.3.094 1.3-2.05 0-2.05-2.601-.094-4.273-2.89-2.879-5.22.743-1.12 1.857-1.585 3.158-1.585h26.285c1.672 0 3.344-.093 5.016 0 1.857.093 3.436 1.398 3.436 3.449 0 1.957-1.579 3.356-3.436 3.449-5.016.186-10.124 0-15.14 0h-16.44c-1.3-.187-1.3 1.957 0 1.957z"/>
    <path fill="#fff" d="M248.492 1.107h-52.571c-2.136 0-3.901 1.771-3.901 3.915s1.765 3.915 3.901 3.915h3.715c2.23.28 3.994 1.864 3.994 3.915 0 2.144-2.136 3.915-4.644 3.915H187.84c-2.136 0-3.901 1.771-3.901 3.915s1.765 3.915 3.901 3.915h46.441c2.137 0 3.901-1.77 3.901-3.915 0-2.144-1.764-3.915-3.901-3.915h-.836c-2.6 0-4.644-1.77-4.644-3.915 0-1.957 1.765-3.635 3.994-3.915h15.604c2.137 0 3.901-1.771 3.901-3.915.093-2.144-1.672-3.915-3.808-3.915z"/>
    <path fill="#333" d="M248.492.082h-37.06c-5.108 0-10.217-.093-15.325 0-1.393 0-2.787.466-3.716 1.491-2.043 2.051-1.857 5.5.372 7.365 1.672 1.398 3.808 1.118 5.759 1.118.928 0 1.764 0 2.693.56 1.208.745 1.765 2.237 1.022 3.448-1.022 1.678-2.972 1.585-4.644 1.585h-9.66c-2.601.093-4.83 1.958-4.923 4.66-.185 2.89 2.137 5.221 4.923 5.314h32.23c4.737 0 9.474.187 14.211 0 2.694-.093 4.83-2.144 4.923-4.847.093-2.89-2.229-5.034-5.016-5.127-1.207 0-2.322-.093-3.344-.839-1.114-.839-1.393-2.33-.557-3.542 1.022-1.305 2.415-1.305 3.808-1.305h14.211c2.694-.093 4.83-2.05 4.923-4.847.186-2.704-2.136-4.94-4.83-5.034-1.3-.093-1.3 2.05 0 2.05 3.251.094 3.901 4.848.65 5.687-.929.186-1.95.093-2.879.093h-10.96c-.836 0-1.672-.093-2.508 0-2.508.187-5.016 2.237-5.016 4.94 0 2.704 2.508 4.661 5.016 4.941 1.022.093 2.043-.093 3.065.466 1.208.746 1.672 2.424 1.022 3.729-.929 1.957-3.251 1.585-5.016 1.585h-40.403c-1.301 0-2.601.093-3.901 0-3.251-.373-3.251-5.314 0-5.687 1.114-.093 2.322 0 3.436 0h5.759c1.207 0 2.508.094 3.715-.186 2.508-.56 4.644-2.797 4.18-5.5-.372-2.424-2.787-4.101-5.109-4.195-1.579-.186-3.622.373-5.015-.466-2.601-1.398-1.393-5.22 1.393-5.313 4.087-.187 8.174 0 12.26 0H248.585c1.3 0 1.3-2.144-.093-2.144z"/>
    <path fill="#fff" d="M260.939 8.937c2.154 0 3.901-1.753 3.901-3.915 0-2.163-1.747-3.916-3.901-3.916-2.155 0-3.901 1.753-3.901 3.916 0 2.162 1.746 3.915 3.901 3.915z"/>
    <path fill="#333" d="M258.152 5.022c0-.653.186-1.119.557-1.771.186-.28-.093.093.093-.094l.186-.186.186-.186s.278-.187.093-.094c.092-.093.278-.186.464-.28.093 0 .093-.093.186-.093.093-.093.093-.093 0 0 .093 0 .093 0 .185-.093.186-.093.372-.093.465-.186h.929c.185 0-.186-.093.093 0 .092 0 .185 0 .278.093.093 0 .186.093.279.093 0 0 .186.093 0 0 .186.093.278.187.464.28.093 0 .186.093.186.186.093.187-.186 0 0 .187l.464.466c-.092-.093 0 0 0 0 .093.093.093.186.186.28 0 .093.093.093.093.186 0 0 .186.28.093.093 0 .187.093.28.093.466v.187c0 .093 0 .093 0 0V5.58c0 .187-.093.373-.186.466-.093.28.093-.186-.093.093-.093.094-.093.187-.186.28 0 .093-.092.186-.092.186l-.093.094c-.093.093-.186.28-.372.373 0 0-.279.186-.093.093.093-.093-.186.093-.186.093l-.557.28s.186-.094 0 0c-.093 0-.186.093-.278.093-.093 0-.093 0-.186.093 0 0-.279.093-.186 0h-.929c-.186-.093-.371-.093-.557-.186-.279-.094.093.093-.093 0-.093-.094-.186-.094-.279-.187-.092 0-.092-.093-.185-.093s-.093-.093-.186-.093c.093.093.093.093 0 0l-.372-.373c-.185-.187.093.186-.093-.093-.092-.094-.092-.187-.185-.28-.093-.093-.093-.186-.186-.28-.093-.186 0 .094-.093-.093-.093-.186-.093-.373-.186-.56 0 0 0-.186 0 0 .279-.092.279-.279.279-.465 0-1.305-2.136-1.398-2.043 0 0 2.144 1.3 3.915 3.25 4.66 1.858.746 4.18.094 5.48-1.49 1.301-1.586 1.579-3.916.465-5.78-1.115-1.771-3.158-2.704-5.202-2.33-2.322.372-3.901 2.516-3.993 4.847-.093 1.491 1.95 1.491 2.043.093z"/>
    <path fill="#DF357F" d="M353.913 14.53H247.657v9.415h106.256V14.53z"/>
    <path fill="#333" d="M353.913 22.92H251.929c-1.301 0-2.88-.28-4.18 0h-.186l1.022 1.025V14.53l-1.022 1.026h101.984c1.301 0 2.88.28 4.18 0h.186l-1.022-1.026v9.415c0 1.305 2.043 1.398 2.043 0V14.53c0-.56-.464-1.025-1.021-1.025H251.929c-1.394 0-2.787-.093-4.18 0h-.186c-.557 0-1.021.466-1.021 1.025v9.415c0 .56.464 1.025 1.021 1.025h101.984c1.393 0 2.787.094 4.18 0h.186c1.393.094 1.393-2.05 0-2.05z"/>
    <path fill="#fff" d="M353.913 24.039H247.657v72.988h106.256V24.039z"/>
    <path fill="#333" d="M353.913 22.92H251.929c-1.394 0-2.787-.094-4.18 0h-.186c-.557 0-1.021.465-1.021 1.025v72.989c0 .558.464 1.025 1.021 1.025h101.984c1.393 0 2.787.093 4.18 0h.186c.557 0 1.021-.467 1.021-1.026V72.138 32.893v-8.948c0-1.305-2.043-1.398-2.043 0v72.989l1.022-1.026H251.929c-1.301 0-2.88-.28-4.18 0h-.186l1.022 1.025V72.138 32.893v-8.948l-1.022 1.025h101.984c1.393 0 2.787.093 4.18 0h.186c1.393.093 1.393-2.05 0-2.05z"/>
    <path fill="#fff" d="M296.419 78.663H260.66V45.012l17.926-7.457 17.833 7.457v33.651z"/>
    <path fill="#333" d="M296.419 77.544H260.66l1.021 1.026V49.207v-4.195c-.278.373-.557.652-.743 1.025 5.202-2.144 10.403-4.38 15.697-6.525l1.394-.56c.092-.092.743-.186.835-.372-.092.186-.743-.186-.278.093.371.187.743.28 1.114.466 3.065 1.305 6.131 2.517 9.196 3.822 2.415 1.026 4.922 2.05 7.337 3.076-.278-.373-.557-.652-.743-1.025V78.57c0 1.305 2.044 1.398 2.044 0V49.207v-4.195c0-.466-.372-.839-.743-1.025-5.295-2.238-10.589-4.382-15.883-6.619-.65-.28-1.3-.652-1.951-.839-.65-.093-1.3.28-1.857.56-3.065 1.305-6.038 2.516-9.103 3.821-2.507 1.026-5.015 2.051-7.43 3.077-.465.186-.743.466-.743 1.025V78.57c0 .56.464 1.025 1.021 1.025h35.76c1.114.093 1.114-2.05-.186-2.05z"/>
    <path fill="#DF357F" d="M278.586 35.038l-21.548 9.6v4.755l21.548-9.601 21.363 9.6V44.64l-21.363-9.601z"/>
    <path fill="#333" d="M278.028 34.199c-6.316 2.796-12.539 5.593-18.855 8.39-.929.372-1.765.838-2.693 1.21-.372.187-.558.56-.558.933v4.754c0 .84.836 1.212 1.579.932 6.316-2.796 12.539-5.593 18.855-8.39.929-.372 1.765-.838 2.694-1.211h-1.022c6.223 2.797 12.539 5.593 18.762 8.39.929.372 1.765.838 2.694 1.211.743.28 1.579 0 1.579-.932v-4.754c0-.373-.186-.746-.557-.932-6.224-2.797-12.539-5.593-18.763-8.39-.928-.372-1.764-.838-2.693-1.211-1.208-.56-2.322 1.305-1.022 1.77 6.223 2.797 12.539 5.594 18.762 8.39.929.373 1.765.84 2.694 1.212-.186-.28-.372-.56-.557-.932v4.754c.557-.28 1.021-.56 1.579-.932-6.316-2.797-12.632-5.686-18.948-8.483-.836-.373-1.579-.746-2.415-1.119-.836-.28-1.765.28-2.508.653-3.622 1.678-7.338 3.263-10.96 4.94-3.065 1.306-6.037 2.704-9.102 4.009.557.28 1.021.559 1.579.932v-4.754c-.186.28-.372.56-.558.932 6.316-2.796 12.539-5.593 18.855-8.39.929-.372 1.765-.838 2.694-1.211 1.207-.56.093-2.33-1.115-1.771z"/>
    <path fill="#F0D227" d="M269.298 57.69c1.744 0 3.158-1.42 3.158-3.17s-1.414-3.169-3.158-3.169-3.158 1.419-3.158 3.17c0 1.75 1.414 3.169 3.158 3.169z"/>
    <path fill="#333" d="M271.341 54.52v.28c0 .186 0 0 0 0 0 .186-.093.28-.093.372 0 .094-.093.187-.093.28 0 0 .093-.186 0 0s-.186.28-.279.466c-.092.187.093-.093 0 0-.092 0-.092.093-.092.187-.093.093-.372.28-.186.186-.093.093-.186.186-.372.186-.093 0-.093.094-.185.094-.186.093.185 0-.093 0-.093 0-.279.093-.372.093-.093 0-.279 0 0 0h-.65c-.186 0 .279.093 0 0-.093 0-.186 0-.279-.093-.093 0-.185-.094-.278-.094-.093 0-.186-.093 0 0-.093-.093-.279-.093-.372-.186-.093 0-.093-.093-.186-.093-.093-.093.186.186 0 0-.093-.093-.185-.28-.371-.373.093.186 0 .093 0 0s-.093-.093-.093-.187c0-.093-.186-.466-.093-.186-.093-.093-.093-.28-.093-.373v-.186c-.093-.187 0 .186 0-.093v-.373c0-.094.093-.28 0-.094v-.186c0-.093.093-.28.093-.373.093-.28-.093.187 0-.093 0-.093.093-.186.093-.186 0-.094.093-.094.093-.187s.186-.186 0 0l.278-.28.093-.093.093-.093c.093-.093.279-.186.465-.28 0 0-.186.094 0 0 .093 0 .185-.093.278-.093h.186s.279-.093.093 0h.557c.186 0 .372.093.465.093.278.094-.093-.093 0 0 .093.094.185.094.278.094.093 0 .093.093.186.093l.093.093c-.093-.093-.093-.093 0 0l.279.28c.185.186-.093-.187 0 .093 0 .093.092.093.092.186s.093.187.093.187c.093.186 0-.187 0 .093.093.186.093.28.093.466 0 .093 0 .186 0 0 .279.186.279.28.279.373 0 .56.464 1.118 1.022 1.025.557 0 1.021-.466 1.021-1.025 0-1.771-1.114-3.356-2.786-4.009-1.579-.559-3.53-.093-4.644 1.212-1.115 1.399-1.394 3.356-.465 4.848.929 1.584 2.694 2.33 4.459 1.957 1.95-.373 3.343-2.144 3.343-4.101 0-.56-.464-1.119-1.021-1.026-.372.093-.836.56-.929 1.119z"/>
    <path fill="#F0D227" d="M279.237 57.69c1.744 0 3.158-1.42 3.158-3.17s-1.414-3.169-3.158-3.169c-1.745 0-3.158 1.419-3.158 3.17 0 1.75 1.413 3.169 3.158 3.169z"/>
    <path fill="#333" d="M281.372 54.52v.28c0 .186 0 0 0 0 0 .186-.093.28-.093.372 0 .094-.093.187-.093.28 0 0 .093-.186 0 0s-.185.28-.278.466c-.093.187.093-.093 0 0-.093 0-.093.093-.093.187-.093.093-.372.28-.186.186-.093.093-.186.186-.371.186-.093 0-.093.094-.186.094-.186.093.186 0-.093 0-.093 0-.279.093-.372.093-.093 0-.278 0 0 0h-.65c-.186 0 .279.093 0 0-.093 0-.186 0-.278-.093-.093 0-.186-.094-.279-.094-.093 0-.186-.093 0 0-.093-.093-.279-.093-.372-.186-.093 0-.093-.093-.185-.093-.093-.093.185.186 0 0-.093-.093-.186-.28-.372-.373.093.186 0 .093 0 0s-.093-.093-.093-.187c0-.093-.186-.466-.093-.186-.093-.093-.093-.28-.093-.373v-.186c-.092-.187 0 .186 0-.093v-.373c0-.094.093-.28 0-.094v-.186c0-.093.093-.28.093-.373.093-.28-.093.187 0-.093 0-.093.093-.186.093-.186 0-.094.093-.094.093-.187s.186-.186 0 0l.279-.28.093-.093.092-.093c.093-.093.279-.186.465-.28 0 0-.186.094 0 0 .093 0 .186-.093.279-.093h.185s.279-.093.093 0h.557c.186 0 .372.093.465.093.279.094-.093-.093 0 0 .093.094.186.094.279.094.092 0 .092.093.185.093l.093.093c-.093-.093-.093-.093 0 0l.279.28c.186.186-.093-.187 0 .093 0 .093.093.093.093.186s.093.187.093.187c.092.186 0-.187 0 .093.092.186.092.28.092.466 0 .093 0 .186 0 0 .186.186.279.28.279.373 0 .56.465 1.118 1.022 1.025.557 0 1.021-.466 1.021-1.025 0-1.771-1.114-3.356-2.786-4.009-1.579-.559-3.529-.093-4.644 1.212-1.115 1.399-1.393 3.356-.464 4.848.928 1.584 2.693 2.33 4.458 1.957 1.95-.373 3.344-2.144 3.344-4.101 0-.56-.465-1.119-1.022-1.026-.464.093-.929.56-.929 1.119z"/>
    <path fill="#F0D227" d="M289.175 57.69c1.744 0 3.158-1.42 3.158-3.17s-1.414-3.169-3.158-3.169-3.158 1.419-3.158 3.17c0 1.75 1.414 3.169 3.158 3.169z"/>
    <path fill="#333" d="M291.311 54.52v.28c0 .186 0 0 0 0 0 .186-.093.28-.093.372 0 .094-.093.187-.093.28 0 0 .093-.186 0 0s-.186.28-.279.466c-.093.187.093-.093 0 0-.093 0-.093.093-.093.187-.093.093-.371.28-.185.186-.093.093-.186.186-.372.186-.093 0-.093.094-.186.094-.186.093.186 0-.093 0-.093 0-.278.093-.371.093-.093 0-.279 0 0 0h-.65c-.186 0 .278.093 0 0-.093 0-.186 0-.279-.093-.093 0-.186-.094-.279-.094-.093 0-.185-.093 0 0-.093-.093-.278-.093-.371-.186-.093 0-.093-.093-.186-.093-.093-.093.186.186 0 0-.093-.093-.186-.28-.371-.373.092.186 0 .093 0 0s-.093-.093-.093-.187c0-.093-.186-.466-.093-.186-.093-.093-.093-.28-.093-.373v-.186c-.093-.187 0 .186 0-.093v-.373c0-.094.093-.28 0-.094v-.186c0-.093.093-.28.093-.373.093-.28-.093.187 0-.093 0-.093.093-.186.093-.186 0-.094.093-.094.093-.187s.185-.186 0 0l.278-.28.093-.093.093-.093c.093-.093.279-.186.464-.28 0 0-.185.094 0 0 .093 0 .186-.093.279-.093h.186s.278-.093.093 0h.557c.186 0 .371.093.464.093.279.094-.093-.093 0 0 .093.094.186.094.279.094.093 0 .093.093.186.093l.093.093c-.093-.093-.093-.093 0 0l.278.28c.186.186-.093-.187 0 .093 0 .093.093.093.093.186s.093.187.093.187c.093.186 0-.187 0 .093.093.186.093.28.093.466 0 .093 0 .186 0 0 .279.186.279.28.279.373 0 .56.464 1.118 1.021 1.025.558 0 1.022-.466 1.022-1.025 0-1.771-1.115-3.356-2.786-4.009-1.579-.559-3.53-.093-4.645 1.212-1.114 1.399-1.393 3.356-.464 4.848.929 1.584 2.694 2.33 4.458 1.957 1.951-.373 3.344-2.144 3.344-4.101 0-.56-.464-1.119-1.022-1.026-.464.093-.928.56-.928 1.119z"/>
    <path fill="#fff" d="M285.738 63.281h-14.397v15.101h14.397v-15.1z"/>
    <path fill="#333" d="M285.738 77.358h-14.397l1.022 1.026V65.147v-1.864l-1.022 1.025h14.397l-1.022-1.025v15.101c0 1.305 2.043 1.398 2.043 0V65.147v-1.864c0-.56-.464-1.026-1.021-1.026h-14.397c-.557 0-1.022.466-1.022 1.026v15.101c0 .559.465 1.025 1.022 1.025h14.397c1.3.093 1.3-2.05 0-2.05z"/>
    <path fill="#333" d="M282.859 72.23c.769 0 1.393-.625 1.393-1.398 0-.772-.624-1.398-1.393-1.398-.77 0-1.394.626-1.394 1.398 0 .773.624 1.399 1.394 1.399z"/>
    <path fill="#F0D227" d="M342.209 45.477h-38.267v5.127h38.267v-5.127zM320.01 54.893h-16.068v5.127h16.068v-5.127zM342.209 54.893H322.24v5.127h19.969v-5.127zM342.209 64.214h-38.267v5.127h38.267v-5.127zM321.218 73.536h-17.276v5.126h17.276v-5.126z"/>
    <path fill="#fff" d="M266.789 20.775c.821 0 1.486-.667 1.486-1.491 0-.824-.665-1.491-1.486-1.491-.82 0-1.486.667-1.486 1.49 0 .825.666 1.492 1.486 1.492zM255.458 20.775c.821 0 1.486-.667 1.486-1.491 0-.824-.665-1.491-1.486-1.491s-1.486.667-1.486 1.49c0 .825.665 1.492 1.486 1.492zM261.031 20.775c.82 0 1.486-.667 1.486-1.491 0-.824-.666-1.491-1.486-1.491-.821 0-1.487.667-1.487 1.49 0 .825.666 1.492 1.487 1.492zM218.584 75.214c-.557-1.678-.278-3.542.743-4.94.372-.56.929-1.12.929-1.865 0-.746-.464-1.398-.743-2.05-1.021-2.331.836-4.941 2.972-6.34.372-.279.836-.559 1.022-1.025.093-.28 0-.559 0-.839-.186-1.398.557-2.89 1.579-3.915 1.022-1.025 5.387-1.025 6.316 0 1.022 1.026 1.672 2.517 1.579 3.915 0 .28-.093.56 0 .84.093.465.557.745 1.022 1.025 2.136 1.305 3.901 4.008 2.972 6.338-.279.653-.836 1.305-.743 2.051 0 .746.557 1.305.929 1.864 1.021 1.399 1.207 3.356.743 4.94-.372 1.026-.929 1.958-.836 3.077.093 1.305 1.393 2.517 1.022 3.822-.372 1.398-19.041 1.398-19.413 0-.371-1.305.929-2.517 1.022-3.822-.186-1.025-.836-2.05-1.115-3.076z"/>
    <path fill="#333" d="M219.606 74.934c-.279-.932-.279-1.771-.093-2.703.279-1.025 1.022-1.678 1.486-2.61.372-.653.372-1.492.186-2.144-.279-.84-.929-1.585-.929-2.517 0-1.864 1.579-3.17 2.972-4.102.558-.372 1.115-.838 1.208-1.584.186-1.026-.093-1.865.371-2.89.651-1.398 1.579-1.678 3.065-1.771 1.394 0 2.508 0 3.344 1.305.558.839.65 1.585.65 2.61 0 .839.186 1.492.836 2.05 1.301 1.213 2.973 1.958 3.344 3.916.372 1.771-1.393 2.983-.836 4.847.279.746.836 1.398 1.208 2.05.464.933.65 1.958.464 2.984-.279 1.864-1.486 3.262-.743 5.22.279.652.557 1.398.836 2.05.186.28-.372.56.186-.093l.093-.093h-.093c-3.716.746-7.524.746-11.239.653-1.951-.093-4.087-.093-6.037-.466-.186 0-.279-.094-.465-.094-.093 0-.093 0-.186-.093-.185 0 0 0 0 0h-.092c0-.093.371.466.278.466 0 0 .279-1.118.279-1.212.371-.745.743-1.49.743-2.33.093-1.305-.464-2.33-.836-3.449-.464-1.305-2.508-.746-2.043.56.371 1.025 1.114 2.143.65 3.262-.279.839-.836 1.585-.929 2.424-.093 1.025.186 1.864 1.207 2.237 1.672.652 3.809.56 5.573.652 2.601.093 5.202.093 7.802 0 1.858-.093 3.901-.093 5.666-.652.836-.28 1.301-.84 1.301-1.771 0-.84-.372-1.678-.744-2.424-.557-1.305-.185-2.144.279-3.356.743-1.864.557-4.101-.464-5.872-.279-.373-.65-.746-.836-1.212-.279-.653 0-1.026.278-1.678.465-.932.651-1.771.558-2.797-.186-1.864-1.486-3.542-2.88-4.66-.278-.28-.743-.466-1.021-.746-.372-.373-.186-.746-.186-1.305 0-.932-.372-1.958-.836-2.703-.836-1.492-1.951-2.144-3.622-2.33-1.394-.187-3.066-.187-4.366.372-1.765.746-2.786 3.076-2.786 4.847 0 .746.185.84-.465 1.305-.371.28-.836.56-1.207.932-.836.746-1.486 1.585-1.951 2.61-.464.933-.65 2.051-.464 3.077.186 1.025 1.207 2.237.836 3.169-.279.56-.743 1.025-1.022 1.492-.278.559-.464 1.118-.557 1.677-.279 1.212-.186 2.33.186 3.45.371 1.304 2.415.745 2.043-.56z"/>
    <path fill="#DF357F" stroke="#333" stroke-miterlimit="10" stroke-width="2" d="M234.56 79.874c-.65-2.05-.371-4.381.929-6.152.464-.746 1.115-1.399 1.207-2.33.093-.933-.65-1.772-.928-2.61-1.208-2.89 1.021-6.153 3.622-7.83.464-.28 1.022-.654 1.207-1.213.093-.373 0-.652 0-1.025-.185-1.771.651-3.542 1.951-4.847 1.207-1.305 2.415-2.238 3.994-3.17 1.579.932 2.693 1.865 3.994 3.17 1.207 1.305 2.136 3.076 1.95 4.847 0 .373-.093.652 0 1.025.186.56.743.932 1.208 1.212 2.693 1.678 4.922 4.94 3.622 7.83-.371.84-1.022 1.678-.929 2.61.093.84.743 1.585 1.208 2.33 1.207 1.772 1.579 4.102.929 6.153-.372 1.212-1.208 2.424-1.022 3.822.186 1.678 1.765 3.17 1.3 4.754-.464 1.678-23.685 1.678-24.149 0-.464-1.585 1.115-3.076 1.3-4.754-.278-1.305-1.021-2.517-1.393-3.822z"/>
    <path fill="#333" d="M240.04 79.129c2.136.932 3.994 2.33 5.666 4.008-.093-.28-.186-.466-.279-.746v11.466c0 1.305 2.043 1.398 2.043 0v-5.78-4.008c0-.653.093-1.305 0-1.864-.092-.653-.743-1.119-1.207-1.492-.464-.466-1.022-.932-1.579-1.305-1.115-.839-2.322-1.491-3.529-2.05-1.301-.653-2.323 1.211-1.115 1.77z"/>
    <path fill="#333" d="M247.378 82.764c.371-2.983.557-6.059.371-9.135 0-.56-.464-1.026-1.021-1.026-.558 0-1.115.467-1.022 1.026.186 2.89.093 5.686-.279 8.576-.093.56.093 1.118.743 1.305.372.093 1.115-.187 1.208-.746zM230.566 89.196c-.279-7.644-.279-15.194-.464-22.838 0-1.305-2.137-1.398-2.044 0 .279 7.644.279 15.194.465 22.838 0 1.398 2.136 1.398 2.043 0z"/>
    <path fill="#333" d="M229.637 72.79c-.836-.466-1.671-1.025-2.6-1.584-.929-.56-1.951-.84-2.972-1.119-.558-.186-1.115.186-1.301.746-.093.56.186 1.118.743 1.305.558.186 1.115.28 1.672.56.093 0 .093 0 .186.092.186.094-.186-.093 0 0 .093 0 .186.094.279.094l.557.28c.836.465 1.672 1.025 2.508 1.49.464.28 1.207.094 1.393-.372.186-.56 0-1.212-.465-1.492z"/>
    <path fill="#F6F2EF" d="M84.316 77v-3.584h-3.592v-1.693h3.592V68.14h1.696v3.584h3.592v1.693h-3.592V77h-1.696zM67.852 77v-3.584H64.26v-1.693h3.592V68.14h1.696v3.584h3.592v1.693h-3.592V77h-1.696zM51.288 77v-3.584h-3.592v-1.693h3.592V68.14h1.696v3.584h3.592v1.693h-3.592V77h-1.696zM84.316 58.184V54.6h-3.592v-1.693h3.592v-3.584h1.696v3.584h3.592V54.6h-3.592v3.584h-1.696zM67.852 58.184V54.6H64.26v-1.693h3.592v-3.584h1.696v3.584h3.592V54.6h-3.592v3.584h-1.696zM51.288 58.184V54.6h-3.592v-1.693h3.592v-3.584h1.696v3.584h3.592V54.6h-3.592v3.584h-1.696zM84.316 40.86v-3.584h-3.592v-1.692h3.592V32h1.696v3.584h3.592v1.692h-3.592v3.585h-1.696zM67.852 40.86v-3.584H64.26v-1.692h3.592V32h1.696v3.584h3.592v1.692h-3.592v3.585h-1.696zM51.288 40.86v-3.584h-3.592v-1.692h3.592V32h1.696v3.584h3.592v1.692h-3.592v3.585h-1.696zM36.62 77v-3.584h-3.592v-1.693h3.592V68.14h1.696v3.584h3.592v1.693h-3.592V77H36.62zM20.156 77v-3.584h-3.592v-1.693h3.592V68.14h1.696v3.584h3.593v1.693h-3.593V77h-1.696zM3.592 77v-3.584H0v-1.693h3.592V68.14h1.696v3.584h3.593v1.693H5.288V77H3.592zM36.62 58.184V54.6h-3.592v-1.693h3.592v-3.584h1.696v3.584h3.592V54.6h-3.592v3.584H36.62zM20.156 58.184V54.6h-3.592v-1.693h3.592v-3.584h1.696v3.584h3.593V54.6h-3.593v3.584h-1.696zM3.592 58.184V54.6H0v-1.693h3.592v-3.584h1.696v3.584h3.593V54.6H5.288v3.584H3.592zM36.62 40.86v-3.584h-3.592v-1.692h3.592V32h1.696v3.584h3.592v1.692h-3.592v3.585H36.62zM20.156 40.86v-3.584h-3.592v-1.692h3.592V32h1.696v3.584h3.593v1.692h-3.593v3.585h-1.696zM3.592 40.86v-3.584H0v-1.692h3.592V32h1.696v3.584h3.593v1.692H5.288v3.585H3.592zM123.23 40.96c2.48 0 4.491-2.006 4.491-4.48 0-2.474-2.011-4.48-4.491-4.48-2.479 0-4.49 2.006-4.49 4.48 0 2.474 2.011 4.48 4.49 4.48zM123.23 58.98c2.48 0 4.491-2.006 4.491-4.48 0-2.474-2.011-4.48-4.491-4.48-2.479 0-4.49 2.006-4.49 4.48 0 2.474 2.011 4.48 4.49 4.48zM123.23 77c2.48 0 4.491-2.006 4.491-4.48 0-2.474-2.011-4.48-4.491-4.48-2.479 0-4.49 2.006-4.49 4.48 0 2.474 2.011 4.48 4.49 4.48zM141.69 40.96c2.48 0 4.491-2.006 4.491-4.48 0-2.474-2.011-4.48-4.491-4.48-2.479 0-4.49 2.006-4.49 4.48 0 2.474 2.011 4.48 4.49 4.48zM141.69 58.98c2.48 0 4.491-2.006 4.491-4.48 0-2.474-2.011-4.48-4.491-4.48-2.479 0-4.49 2.006-4.49 4.48 0 2.474 2.011 4.48 4.49 4.48zM141.69 77c2.48 0 4.491-2.006 4.491-4.48 0-2.474-2.011-4.48-4.491-4.48-2.479 0-4.49 2.006-4.49 4.48 0 2.474 2.011 4.48 4.49 4.48zM160.05 40.96c2.48 0 4.49-2.006 4.49-4.48 0-2.474-2.01-4.48-4.49-4.48-2.48 0-4.49 2.006-4.49 4.48 0 2.474 2.01 4.48 4.49 4.48zM160.05 58.98c2.48 0 4.49-2.006 4.49-4.48 0-2.474-2.01-4.48-4.49-4.48-2.48 0-4.49 2.006-4.49 4.48 0 2.474 2.01 4.48 4.49 4.48zM160.05 77c2.48 0 4.49-2.006 4.49-4.48 0-2.474-2.01-4.48-4.49-4.48-2.48 0-4.49 2.006-4.49 4.48 0 2.474 2.01 4.48 4.49 4.48zM178.51 40.96c2.48 0 4.49-2.006 4.49-4.48 0-2.474-2.01-4.48-4.49-4.48-2.48 0-4.49 2.006-4.49 4.48 0 2.474 2.01 4.48 4.49 4.48zM178.51 58.98c2.48 0 4.49-2.006 4.49-4.48 0-2.474-2.01-4.48-4.49-4.48-2.48 0-4.49 2.006-4.49 4.48 0 2.474 2.01 4.48 4.49 4.48zM178.51 77c2.48 0 4.49-2.006 4.49-4.48 0-2.474-2.01-4.48-4.49-4.48-2.48 0-4.49 2.006-4.49 4.48 0 2.474 2.01 4.48 4.49 4.48zM104.771 40.96c2.48 0 4.49-2.006 4.49-4.48 0-2.474-2.01-4.48-4.49-4.48-2.48 0-4.49 2.006-4.49 4.48 0 2.474 2.01 4.48 4.49 4.48zM104.771 58.98c2.48 0 4.49-2.006 4.49-4.48 0-2.474-2.01-4.48-4.49-4.48-2.48 0-4.49 2.006-4.49 4.48 0 2.474 2.01 4.48 4.49 4.48zM104.771 77c2.48 0 4.49-2.006 4.49-4.48 0-2.474-2.01-4.48-4.49-4.48-2.48 0-4.49 2.006-4.49 4.48 0 2.474 2.01 4.48 4.49 4.48z"/>
</svg>
