<svg width="201" height="77" fill="none" xmlns="http://www.w3.org/2000/svg">
    <path d="M147.922 66v-1.912h-1.916v-.903h1.916v-1.912h.906v1.912h1.916v.903h-1.916v1.911h-.906zM139.137 66v-1.912h-1.916v-.903h1.916v-1.912h.905v1.912h1.917v.903h-1.917v1.911h-.905zM130.3 66v-1.912h-1.916v-.903h1.916v-1.911h.906v1.911h1.916v.903h-1.916V66h-.906zM147.922 55.964v-1.911h-1.916v-.903h1.916V51.24h.906v1.911h1.916v.903h-1.916v1.911h-.906zM139.137 55.964v-1.911h-1.916v-.903h1.916V51.24h.905v1.911h1.917v.903h-1.917v1.911h-.905zM130.3 55.965v-1.912h-1.916v-.902h1.916v-1.912h.906v1.912h1.916v.902h-1.916v1.912h-.906zM147.924 46.726v-1.912h-1.916v-.903h1.916V42h.906v1.911h1.916v.903h-1.916v1.912h-.906zM139.138 46.726v-1.912h-1.916v-.903h1.916V42h.905v1.911h1.917v.903h-1.917v1.912h-.905zM130.301 46.726v-1.912h-1.916v-.903h1.916V42h.905v1.911h1.917v.903h-1.917v1.912h-.905zM122.529 66v-1.912h-1.917v-.903h1.917v-1.912h.905v1.912h1.917v.903h-1.917v1.911h-.905zM113.69 66v-1.912h-1.917v-.903h1.917v-1.912h.905v1.912h1.917v.903h-1.917v1.911h-.905zM104.853 66v-1.912h-1.916v-.903h1.916v-1.911h.905v1.911h1.917v.903h-1.917V66h-.905zM122.529 55.964v-1.911h-1.917v-.903h1.917V51.24h.905v1.911h1.917v.903h-1.917v1.911h-.905zM113.69 55.964v-1.911h-1.917v-.903h1.917V51.24h.905v1.911h1.917v.903h-1.917v1.911h-.905zM104.853 55.965v-1.912h-1.916v-.902h1.916v-1.912h.905v1.912h1.917v.902h-1.917v1.912h-.905zM122.529 46.726v-1.912h-1.917v-.903h1.917V42h.905v1.911h1.917v.903h-1.917v1.912h-.905zM113.69 46.726v-1.912h-1.917v-.903h1.917V42h.905v1.911h1.917v.903h-1.917v1.912h-.905zM104.851 46.726v-1.912h-1.916v-.903h1.916V42h.905v1.911h1.917v.903h-1.917v1.912h-.905zM168.688 46.779a2.393 2.393 0 0 0 2.396-2.39c0-1.32-1.073-2.389-2.396-2.389a2.393 2.393 0 0 0-2.396 2.39c0 1.319 1.073 2.389 2.396 2.389zM168.688 56.39a2.393 2.393 0 0 0 2.396-2.39c0-1.32-1.073-2.39-2.396-2.39a2.393 2.393 0 0 0-2.396 2.39c0 1.32 1.073 2.39 2.396 2.39zM168.688 66a2.393 2.393 0 0 0 2.396-2.39c0-1.32-1.073-2.389-2.396-2.389a2.393 2.393 0 0 0-2.396 2.39c0 1.32 1.073 2.389 2.396 2.389zM178.536 46.779a2.392 2.392 0 0 0 2.396-2.39c0-1.32-1.072-2.389-2.396-2.389a2.392 2.392 0 0 0-2.395 2.39c0 1.319 1.072 2.389 2.395 2.389zM178.536 56.39a2.392 2.392 0 0 0 2.396-2.39c0-1.32-1.072-2.39-2.396-2.39a2.392 2.392 0 0 0-2.395 2.39c0 1.32 1.072 2.39 2.395 2.39zM178.536 66a2.392 2.392 0 0 0 2.396-2.39c0-1.32-1.072-2.389-2.396-2.389a2.392 2.392 0 0 0-2.395 2.39c0 1.32 1.072 2.389 2.395 2.389zM188.386 46.779a2.393 2.393 0 0 0 2.396-2.39c0-1.32-1.073-2.389-2.396-2.389a2.393 2.393 0 0 0-2.396 2.39c0 1.319 1.073 2.389 2.396 2.389zM188.386 56.39a2.393 2.393 0 0 0 2.396-2.39c0-1.32-1.073-2.39-2.396-2.39A2.393 2.393 0 0 0 185.99 54c0 1.32 1.073 2.39 2.396 2.39zM188.386 66a2.393 2.393 0 0 0 2.396-2.39c0-1.32-1.073-2.389-2.396-2.389a2.393 2.393 0 0 0-2.396 2.39c0 1.32 1.073 2.389 2.396 2.389zM198.182 46.779a2.393 2.393 0 0 0 2.396-2.39c0-1.32-1.073-2.389-2.396-2.389a2.393 2.393 0 0 0-2.396 2.39c0 1.319 1.073 2.389 2.396 2.389zM198.182 56.39a2.393 2.393 0 0 0 2.396-2.39c0-1.32-1.073-2.39-2.396-2.39a2.393 2.393 0 0 0-2.396 2.39c0 1.32 1.073 2.39 2.396 2.39zM198.182 66a2.393 2.393 0 0 0 2.396-2.39c0-1.32-1.073-2.389-2.396-2.389a2.393 2.393 0 0 0-2.396 2.39c0 1.32 1.073 2.389 2.396 2.389zM158.838 46.779a2.393 2.393 0 0 0 2.396-2.39c0-1.32-1.073-2.389-2.396-2.389a2.393 2.393 0 0 0-2.396 2.39c0 1.319 1.073 2.389 2.396 2.389zM158.838 56.39a2.393 2.393 0 0 0 2.396-2.39c0-1.32-1.073-2.39-2.396-2.39a2.393 2.393 0 0 0-2.396 2.39c0 1.32 1.073 2.39 2.396 2.39zM158.838 66a2.393 2.393 0 0 0 2.396-2.39c0-1.32-1.073-2.389-2.396-2.389a2.393 2.393 0 0 0-2.396 2.39c0 1.32 1.073 2.389 2.396 2.389zM45.596 66v-1.912H43.68v-.903h1.916v-1.912h.905v1.912h1.917v.903h-1.917v1.911h-.905zM36.812 66v-1.912h-1.916v-.903h1.916v-1.912h.905v1.912h1.917v.903h-1.917v1.911h-.905zM27.973 66v-1.912h-1.916v-.903h1.916v-1.911h.905v1.911h1.917v.903h-1.917V66h-.905zM45.596 55.964v-1.911H43.68v-.903h1.916V51.24h.905v1.911h1.917v.903h-1.917v1.911h-.905zM36.812 55.964v-1.911h-1.916v-.903h1.916V51.24h.905v1.911h1.917v.903h-1.917v1.911h-.905zM27.973 55.965v-1.912h-1.916v-.902h1.916v-1.912h.905v1.912h1.917v.902h-1.917v1.912h-.905zM45.596 46.726v-1.912H43.68v-.903h1.916V42h.905v1.911h1.917v.903h-1.917v1.912h-.905zM36.812 46.726v-1.912h-1.916v-.903h1.916V42h.905v1.911h1.917v.903h-1.917v1.912h-.905zM27.973 46.726v-1.912h-1.916v-.903h1.916V42h.905v1.911h1.917v.903h-1.917v1.912h-.905zM20.199 66v-1.912h-1.917v-.903H20.2v-1.912h.905v1.912h1.917v.903h-1.917v1.911h-.905zM11.361 66v-1.912H9.444v-.903h1.917v-1.912h.905v1.912h1.917v.903h-1.917v1.911h-.905zM2.524 66v-1.912H.607v-.903h1.917v-1.911h.905v1.911h1.917v.903H3.429V66h-.905zM20.199 55.964v-1.911h-1.917v-.903H20.2V51.24h.905v1.911h1.917v.903h-1.917v1.911h-.905zM11.361 55.964v-1.911H9.444v-.903h1.917V51.24h.905v1.911h1.917v.903h-1.917v1.911h-.905zM2.524 55.965v-1.912H.607v-.902h1.917v-1.912h.905v1.912h1.917v.902H3.429v1.912h-.905zM20.199 46.726v-1.912h-1.917v-.903H20.2V42h.905v1.911h1.917v.903h-1.917v1.912h-.905zM11.361 46.726v-1.912H9.444v-.903h1.917V42h.905v1.911h1.917v.903h-1.917v1.912h-.905zM2.524 46.726v-1.912H.607v-.903h1.917V42h.905v1.911h1.917v.903H3.429v1.912h-.905zM66.36 46.779a2.392 2.392 0 0 0 2.395-2.39c0-1.32-1.072-2.389-2.395-2.389a2.393 2.393 0 0 0-2.396 2.39c0 1.319 1.073 2.389 2.396 2.389zM66.36 56.39A2.393 2.393 0 0 0 68.755 54c0-1.32-1.072-2.39-2.395-2.39A2.393 2.393 0 0 0 63.964 54c0 1.32 1.073 2.39 2.396 2.39zM66.36 66a2.392 2.392 0 0 0 2.395-2.39c0-1.32-1.072-2.389-2.395-2.389a2.393 2.393 0 0 0-2.396 2.39c0 1.32 1.073 2.389 2.396 2.389zM76.21 46.779a2.393 2.393 0 0 0 2.396-2.39c0-1.32-1.073-2.389-2.396-2.389a2.393 2.393 0 0 0-2.395 2.39c0 1.319 1.072 2.389 2.395 2.389zM76.21 56.39A2.393 2.393 0 0 0 78.606 54c0-1.32-1.073-2.39-2.396-2.39A2.392 2.392 0 0 0 73.815 54c0 1.32 1.072 2.39 2.395 2.39zM76.21 66a2.393 2.393 0 0 0 2.396-2.39c0-1.32-1.073-2.389-2.396-2.389a2.393 2.393 0 0 0-2.395 2.39c0 1.32 1.072 2.389 2.395 2.389zM86.059 46.779a2.393 2.393 0 0 0 2.396-2.39c0-1.32-1.073-2.389-2.396-2.389a2.393 2.393 0 0 0-2.396 2.39c0 1.319 1.073 2.389 2.396 2.389zM86.059 56.39A2.393 2.393 0 0 0 88.455 54c0-1.32-1.073-2.39-2.396-2.39A2.393 2.393 0 0 0 83.663 54c0 1.32 1.073 2.39 2.396 2.39zM86.059 66a2.393 2.393 0 0 0 2.396-2.39c0-1.32-1.073-2.389-2.396-2.389a2.393 2.393 0 0 0-2.396 2.39c0 1.32 1.073 2.389 2.396 2.389zM95.855 46.779a2.393 2.393 0 0 0 2.396-2.39c0-1.32-1.073-2.389-2.396-2.389a2.393 2.393 0 0 0-2.396 2.39c0 1.319 1.073 2.389 2.396 2.389zM95.855 56.39A2.393 2.393 0 0 0 98.25 54c0-1.32-1.073-2.39-2.396-2.39A2.393 2.393 0 0 0 93.459 54c0 1.32 1.073 2.39 2.396 2.39zM95.855 66a2.393 2.393 0 0 0 2.396-2.39c0-1.32-1.073-2.389-2.396-2.389a2.393 2.393 0 0 0-2.396 2.39c0 1.32 1.073 2.389 2.396 2.389zM56.51 46.779a2.393 2.393 0 0 0 2.396-2.39c0-1.32-1.073-2.389-2.396-2.389a2.393 2.393 0 0 0-2.396 2.39c0 1.319 1.073 2.389 2.396 2.389zM56.51 56.39A2.393 2.393 0 0 0 58.906 54c0-1.32-1.073-2.39-2.396-2.39A2.392 2.392 0 0 0 54.114 54c0 1.32 1.073 2.39 2.396 2.39zM56.51 66a2.393 2.393 0 0 0 2.396-2.39c0-1.32-1.073-2.389-2.396-2.389a2.393 2.393 0 0 0-2.396 2.39c0 1.32 1.073 2.389 2.396 2.389zM147.922 33v-1.912h-1.916v-.903h1.916v-1.912h.906v1.912h1.916v.903h-1.916v1.911h-.906zM139.137 33v-1.912h-1.916v-.903h1.916v-1.912h.905v1.912h1.917v.903h-1.917v1.911h-.905zM130.3 33v-1.912h-1.916v-.903h1.916v-1.911h.906v1.911h1.916v.903h-1.916V33h-.906zM147.922 22.964v-1.911h-1.916v-.903h1.916V18.24h.906v1.911h1.916v.903h-1.916v1.911h-.906zM139.137 22.964v-1.911h-1.916v-.903h1.916V18.24h.905v1.911h1.917v.903h-1.917v1.911h-.905zM130.3 22.965v-1.912h-1.916v-.902h1.916v-1.912h.906v1.912h1.916v.902h-1.916v1.912h-.906zM147.924 13.726v-1.912h-1.916v-.902h1.916V9h.906v1.912h1.916v.902h-1.916v1.912h-.906zM139.138 13.726v-1.912h-1.916v-.902h1.916V9h.905v1.912h1.917v.902h-1.917v1.912h-.905zM130.301 13.726v-1.912h-1.916v-.902h1.916V9h.905v1.912h1.917v.902h-1.917v1.912h-.905zM122.529 33v-1.912h-1.917v-.903h1.917v-1.912h.905v1.912h1.917v.903h-1.917v1.911h-.905zM113.69 33v-1.912h-1.917v-.903h1.917v-1.912h.905v1.912h1.917v.903h-1.917v1.911h-.905zM104.853 33v-1.912h-1.916v-.903h1.916v-1.911h.905v1.911h1.917v.903h-1.917V33h-.905zM122.529 22.964v-1.911h-1.917v-.903h1.917V18.24h.905v1.911h1.917v.903h-1.917v1.911h-.905zM113.69 22.964v-1.911h-1.917v-.903h1.917V18.24h.905v1.911h1.917v.903h-1.917v1.911h-.905zM104.853 22.965v-1.912h-1.916v-.902h1.916v-1.912h.905v1.912h1.917v.902h-1.917v1.912h-.905zM122.529 13.726v-1.912h-1.917v-.902h1.917V9h.905v1.912h1.917v.902h-1.917v1.912h-.905zM113.69 13.726v-1.912h-1.917v-.902h1.917V9h.905v1.912h1.917v.902h-1.917v1.912h-.905zM104.851 13.726v-1.912h-1.916v-.902h1.916V9h.905v1.912h1.917v.902h-1.917v1.912h-.905zM168.688 13.779a2.393 2.393 0 0 0 2.396-2.39c0-1.32-1.073-2.389-2.396-2.389a2.393 2.393 0 0 0-2.396 2.39c0 1.319 1.073 2.389 2.396 2.389zM168.688 23.39a2.393 2.393 0 0 0 2.396-2.39c0-1.32-1.073-2.39-2.396-2.39a2.393 2.393 0 0 0-2.396 2.39c0 1.32 1.073 2.39 2.396 2.39zM168.688 33a2.393 2.393 0 0 0 2.396-2.39c0-1.32-1.073-2.389-2.396-2.389a2.393 2.393 0 0 0-2.396 2.39c0 1.32 1.073 2.389 2.396 2.389zM178.536 13.779a2.392 2.392 0 0 0 2.396-2.39c0-1.32-1.072-2.389-2.396-2.389a2.392 2.392 0 0 0-2.395 2.39c0 1.319 1.072 2.389 2.395 2.389zM178.536 23.39a2.392 2.392 0 0 0 2.396-2.39c0-1.32-1.072-2.39-2.396-2.39a2.392 2.392 0 0 0-2.395 2.39c0 1.32 1.072 2.39 2.395 2.39zM178.536 33a2.392 2.392 0 0 0 2.396-2.39c0-1.32-1.072-2.389-2.396-2.389a2.392 2.392 0 0 0-2.395 2.39c0 1.32 1.072 2.389 2.395 2.389zM188.386 13.779a2.393 2.393 0 0 0 2.396-2.39c0-1.32-1.073-2.389-2.396-2.389a2.393 2.393 0 0 0-2.396 2.39c0 1.319 1.073 2.389 2.396 2.389zM188.386 23.39a2.393 2.393 0 0 0 2.396-2.39c0-1.32-1.073-2.39-2.396-2.39A2.393 2.393 0 0 0 185.99 21c0 1.32 1.073 2.39 2.396 2.39zM188.386 33a2.393 2.393 0 0 0 2.396-2.39c0-1.32-1.073-2.389-2.396-2.389a2.393 2.393 0 0 0-2.396 2.39c0 1.32 1.073 2.389 2.396 2.389zM198.182 13.779a2.393 2.393 0 0 0 2.396-2.39c0-1.32-1.073-2.389-2.396-2.389a2.393 2.393 0 0 0-2.396 2.39c0 1.319 1.073 2.389 2.396 2.389zM198.182 23.39a2.393 2.393 0 0 0 2.396-2.39c0-1.32-1.073-2.39-2.396-2.39a2.393 2.393 0 0 0-2.396 2.39c0 1.32 1.073 2.39 2.396 2.39zM198.182 33a2.393 2.393 0 0 0 2.396-2.39c0-1.32-1.073-2.389-2.396-2.389a2.393 2.393 0 0 0-2.396 2.39c0 1.32 1.073 2.389 2.396 2.389zM158.838 13.779a2.393 2.393 0 0 0 2.396-2.39c0-1.32-1.073-2.389-2.396-2.389a2.393 2.393 0 0 0-2.396 2.39c0 1.319 1.073 2.389 2.396 2.389zM158.838 23.39a2.393 2.393 0 0 0 2.396-2.39c0-1.32-1.073-2.39-2.396-2.39a2.393 2.393 0 0 0-2.396 2.39c0 1.32 1.073 2.39 2.396 2.39zM158.838 33a2.393 2.393 0 0 0 2.396-2.39c0-1.32-1.073-2.389-2.396-2.389a2.393 2.393 0 0 0-2.396 2.39c0 1.32 1.073 2.389 2.396 2.389zM136.26 39.956c-.395-1.417-.829-2.835-1.223-4.252-.04-.118-.079-.236-.158-.315a.467.467 0 0 0-.394-.039c-3.472.512-6.944 1.063-10.376 1.732.513 1.22 1.736 2.047 3.038 2.401 1.302.355 2.643.276 3.984.237a5.582 5.582 0 0 0 2.012 2.992" fill="#fff"/>
    <path d="M136.654 39.838c-.394-1.338-.789-2.716-1.183-4.055-.158-.472-.355-.866-.907-.866-.671 0-1.421.197-2.091.315-2.841.433-5.72.906-8.521 1.457-.316.079-.355.394-.276.67 1.262 2.834 4.734 2.952 7.377 2.834-.158-.119-.277-.237-.434-.315a6.288 6.288 0 0 0 2.13 3.188c.434.355 1.065-.275.631-.63a5.915 5.915 0 0 1-1.893-2.795c-.04-.196-.237-.314-.434-.314-2.367.118-5.523.118-6.628-2.402a4.85 4.85 0 0 1-.276.67c2.485-.473 4.971-.906 7.495-1.3.592-.078 1.223-.197 1.815-.275.237-.04.75-.197.986-.158.158.04.079-.079.158.197l.118.354c.355 1.22.71 2.441 1.066 3.7.197.513 1.025.276.867-.275z" fill="#333"/>
    <path d="M160.009 32.594c-4.063-1.023-17.397 12.125-17.397 14.526 0 1.339 1.105 2.756 2.288 4.016a3.3 3.3 0 0 0 4.182.472l5.681-1.771.591.866s-.71 13.227 1.973 25.745h38.858s1.775-33.067-12.743-40.586c-14.517-7.52-23.354-2.913-23.354-2.913" fill="#DF357F"/>
    <path d="M160.126 32.201c-.868-.197-1.775.079-2.564.394-1.184.472-2.249 1.141-3.314 1.89-2.564 1.77-4.931 3.857-7.101 6.062a52.35 52.35 0 0 0-2.84 3.07c-.631.788-1.302 1.575-1.775 2.44a3.335 3.335 0 0 0-.355.867c-.158.827.276 1.732.71 2.44 1.144 1.85 2.88 3.74 5.247 3.19.552-.119 1.025-.434 1.538-.591.631-.197 1.302-.394 1.933-.59 1.105-.355 2.17-.67 3.274-1.024-.157-.079-.315-.118-.512-.197.157.236.315.433.433.67 0 .039.04.078.079.117.198.158-.276-.078 0-.157v.04c-.079.157-.039.511-.039.668-.04 1.181-.04 2.362-.04 3.543 0 4.291.237 8.543.671 12.794a92.451 92.451 0 0 0 1.381 8.779c.039.197.237.315.434.315h37.24c.513 0 1.026.04 1.539 0h.078a.437.437 0 0 0 .434-.433c.119-2.244.079-4.527 0-6.771-.157-4.96-.631-9.92-1.657-14.762-1.065-5.078-2.682-10.354-5.799-14.566-1.42-1.929-3.156-3.582-5.246-4.724-3.669-1.968-7.693-3.464-11.835-4.133-2.722-.433-5.523-.512-8.285-.079-1.262.197-2.643.473-3.787 1.063-.039.04-.118.04-.157.079-.513.275-.079 1.023.433.748.04-.04.119-.04.158-.079.04 0 .04-.04.079-.04.119-.039-.079.04.04 0 .079-.039.197-.078.276-.117.592-.237 1.223-.394 1.854-.552 2.327-.55 4.734-.63 7.101-.433 3.866.315 7.653 1.496 11.164 3.07 1.46.67 2.88 1.34 4.182 2.324.907.669 1.696 1.495 2.445 2.322 3.314 3.858 5.05 8.976 6.194 13.857 1.144 4.842 1.657 9.802 1.894 14.762.078 1.772.118 3.543.118 5.315 0 .866-.118 1.732-.079 2.598v.118l.434-.433h-37.24c-.474 0-1.065-.079-1.539 0h-.079c.158.118.276.236.434.315-1.735-8.07-2.288-16.495-2.012-24.761 0-.276.04-.552.04-.788-.04-.393-.434-.787-.631-1.141-.119-.158-.316-.276-.513-.197-1.854.59-3.708 1.102-5.563 1.732-.118.04-.236.079-.355.157-.473.276-.986.433-1.538.394-1.144-.04-1.854-.709-2.564-1.535-.71-.827-1.539-1.89-1.578-3.031v-.04c0-.04.039-.118.039-.157.04-.158.04-.158.158-.355.394-.787.947-1.495 1.499-2.165.789-.984 1.657-1.929 2.525-2.834 2.051-2.087 4.221-4.094 6.588-5.826 1.104-.827 2.248-1.575 3.511-2.205.749-.354 1.775-.748 2.525-.59.631.157.867-.709.315-.827z" fill="#333"/>
    <path d="M182.336 34.8c3.156.826 5.326 3.542 7.22 6.18 3.471 4.881 6.667 9.999 8.6 15.668-.908 0-1.618.787-2.328 1.338-1.617 1.3-3.827 1.614-5.838 2.205-2.841.866-5.563 2.44-8.561 2.283-.197 0-.434-.04-.552-.158-.198-.157-.237-.433-.237-.669-.197-1.81-.237-3.661-.237-5.472 0-.197 0-.393.119-.551.118-.157.315-.236.513-.315 3.274-.984 4.852-1.417 8.008-2.677-.513-1.81-5.918-15.589-7.377-18.03M158.983 33.264a116.5 116.5 0 0 0 11.007 23.03c1.183-7.835 5.68-14.684 9.191-21.77.119-.276.277-.59.158-.866-.158-.355-.67-.394-1.065-.473-.868-.157-1.499-.826-2.288-1.22-1.775-.984-3.984-.67-6.036-.315-3.471.59-6.903 1.181-10.375 1.772" fill="#fff"/>
    <path d="M158.548 33.383c2.21 6.298 4.932 12.4 8.167 18.226a123.084 123.084 0 0 0 2.879 4.92c.198.276.75.276.829-.117.907-6.063 3.787-11.495 6.627-16.85.71-1.337 1.42-2.637 2.091-3.975.276-.551.789-1.26.671-1.929-.119-.551-.671-.787-1.184-.866-1.341-.236-2.288-1.339-3.59-1.693-1.38-.393-2.879-.236-4.3-.04-3.787.552-7.534 1.3-11.282 1.93-.552.079-.316.945.237.866 3.195-.551 6.39-1.102 9.625-1.653 1.42-.237 2.88-.552 4.34-.433.631.039 1.262.157 1.814.433.631.275 1.144.747 1.736 1.062.237.158.513.276.789.355.237.078.552.039.75.157.355.197.039.59-.119.866-.197.354-.355.709-.552 1.063a338.949 338.949 0 0 1-2.012 3.819c-1.341 2.48-2.643 5-3.748 7.597-1.262 2.913-2.288 5.944-2.761 9.094l.828-.118a114.563 114.563 0 0 1-8.994-17.676c-.71-1.732-1.341-3.503-1.973-5.275-.197-.55-1.065-.315-.868.236z" fill="#333"/>
    <path d="M161.467 35.823c.907 5.983 2.17 12.125 5.405 17.36.552.866 1.775 3.346 3.155 2.402.474-.315.04-1.103-.433-.748-.553.393-1.46-1.3-1.657-1.693a25.887 25.887 0 0 1-1.302-2.283 30.846 30.846 0 0 1-1.973-4.882c-1.104-3.385-1.735-6.889-2.248-10.392-.158-.552-1.026-.315-.947.236zM167.977 57.474c-.04 6.102.473 12.204.749 18.266.04.551.908.59.868 0-.276-6.062-.789-12.164-.749-18.266 0-.59-.868-.59-.868 0z" fill="#333"/>
    <path d="M165.689 33.776c-.158.905-.237 1.81-.237 2.716 0 .118 0 .276.079.355.118.078.237.078.395.078 1.222-.157 2.485-.354 3.708-.511.118 0 .276-.04.355-.119a.463.463 0 0 0 .039-.393c-.118-.788-.276-1.614-.394-2.401 0-.08-.04-.158-.079-.237-.118-.118-.276-.079-.434-.04-.907.198-1.775.434-2.683.63" fill="#F0D227"/>
    <path d="M165.254 33.658a20.271 20.271 0 0 0-.197 1.614c-.039.275-.039.511-.039.787 0 .236-.04.512.039.748s.237.433.474.512c.276.078.552 0 .828-.04.552-.078 1.105-.157 1.617-.236.513-.078 1.105-.157 1.618-.236.197-.04.394-.04.592-.157a.724.724 0 0 0 .315-.709c-.039-.551-.158-1.063-.237-1.614-.039-.236-.078-.512-.118-.748-.039-.276-.079-.512-.276-.709-.237-.196-.513-.196-.789-.157-.276.04-.592.118-.868.197-.592.157-1.223.275-1.815.433-.552.118-.315.984.237.866l2.485-.59c.04 0 .237-.04.237-.04l-.118-.157.039.118c.04.197.079.433.119.63.078.432.118.826.197 1.26.039.157.039.393.079.55.039.04-.04.118.039 0s.04-.039 0-.039c-.118 0-.197.04-.315.04-.434.039-.829.117-1.263.157-.434.04-.828.118-1.262.157-.197.04-.434.04-.631.079-.079 0-.198.04-.277.04h-.118c-.039.039.118.078.079.078.039 0 0-.197 0-.236v-.354c0-.237.039-.473.039-.709.04-.472.119-.905.198-1.378a.483.483 0 0 0-.316-.55c-.276 0-.552.157-.592.393z" fill="#333"/>
    <path d="M165.848 37.516c-.513 1.771-.04 10.51-.237 12.322-.039.314-.079.63 0 .944.079.355.316.709.513 1.024.868 1.22 1.341 5.747 2.288 6.928.828-1.968 1.893-7.282 2.367-9.369.039-.157.079-.354.039-.512-.039-.197-.118-.354-.236-.55-.789-1.379-1.894-9.882-2.21-11.456-.71.118-1.42.236-2.169.354" fill="#F0D227"/>
    <path d="M165.413 37.398c-.316 1.063-.237 2.283-.277 3.425-.039 1.653 0 3.306.04 4.96 0 1.26.079 2.559 0 3.818-.04.355-.079.709-.04 1.063.079.551.356.984.632 1.457.355.55.512 1.22.67 1.85l.71 2.834c.198.748.395 1.575.868 2.166.237.314.671.275.829-.119.631-1.574 1.025-3.306 1.38-4.96l.592-2.716c.079-.354.158-.748.237-1.102.079-.394.237-.827.197-1.22-.039-.316-.237-.63-.355-.906a2.916 2.916 0 0 1-.197-.63c-.158-.59-.316-1.22-.434-1.85a101.698 101.698 0 0 1-.829-4.803c-.197-1.299-.394-2.637-.631-3.936-.039-.237-.315-.355-.552-.315-.71.118-1.42.236-2.17.354-.552.079-.315.945.237.866.71-.118 1.42-.236 2.17-.354-.198-.118-.355-.197-.553-.315.513 2.677.829 5.354 1.342 8.03.197 1.103.394 2.363.868 3.386.039.079.118.197.157.276.119.275.079.472.04.748-.079.354-.158.708-.237 1.102-.197.866-.394 1.732-.592 2.637-.434 1.85-.789 3.74-1.499 5.512.276-.04.553-.08.829-.118-.395-.512-.553-1.142-.71-1.733-.237-.826-.434-1.653-.632-2.48-.197-.708-.355-1.456-.67-2.165a3.217 3.217 0 0 0-.474-.787c-.315-.512-.315-.945-.276-1.535.079-1.142.04-2.323.04-3.465 0-1.614-.04-3.228-.04-4.842 0-1.22-.079-2.637.237-3.818.118-.63-.75-.866-.907-.315z" fill="#333"/>
    <path d="M132.749 43.696c-.237-.276-.513-.551-.75-.827-.039-.04-.118-.118-.118-.197 0-.078.079-.157.118-.197a90.902 90.902 0 0 1 4.695-3.897c.039-.04.079-.079.157-.079.079 0 .119.04.158.08.237.235.474.432.71.669.04.039.119.118.119.196 0 .118-.04.197-.119.276-1.341 1.575-2.958 2.952-4.734 3.976.079 0 .158.04.237.04" fill="#fff"/>
    <path d="M133.064 43.381c-.157-.157-.276-.315-.434-.472-.078-.079-.315-.276-.315-.355v.237c0-.08.237-.197.276-.237l.237-.236c.197-.157.394-.354.591-.511.395-.315.789-.67 1.144-.985.356-.315.789-.63 1.184-.984.197-.157.394-.315.631-.472.158-.118.395-.394.552-.433h-.236c-.079 0 0 0 .039.04l.197.196c.119.079.237.276.355.315l.079.079v-.158l-.118.158c-.118.118-.197.236-.316.354a20.16 20.16 0 0 1-1.301 1.299 16.505 16.505 0 0 1-2.88 2.126c-.316.197-.276.748.118.827.079 0 .158.039.237.039.552.118.789-.748.237-.866-.079 0-.158-.04-.237-.04l.118.827c.986-.59 1.894-1.26 2.762-2.008.434-.354.828-.748 1.223-1.141.197-.197.355-.394.552-.59.197-.197.434-.434.513-.71.158-.55-.553-.983-.908-1.298-.197-.158-.394-.315-.631-.236-.276.078-.552.354-.789.511a54.05 54.05 0 0 0-2.88 2.362c-.276.236-.552.473-.789.709-.236.197-.552.433-.71.708-.157.276-.039.59.158.788.237.275.513.55.75.826.355.394.986-.236.591-.669z" fill="#333"/>
    <path d="M177.208 58.104c-.473-.394-.592-1.142-.237-1.654.198-.315.553-.511.908-.63.749-.275 1.736-.314 2.209.355 0 0 .71 5.157 1.341 7.716-1.381.236-2.722.472-4.103.708-.355.079-.828.04-.946-.275-.04-.158 0-.315-.119-.473-.079-.118-.197-.118-.315-.157-.237-.118-.434-.315-.631-.551-.198-.276-.395-.63-.395-.985 0-.354.197-.747.513-.905-.395-.354-.829-.787-.829-1.299.04-.709.829-1.063 1.5-1.3.552-.196 1.104-.393 1.656-.55" fill="#fff"/>
    <path d="M177.524 57.79c-1.223-1.064 1.104-2.166 2.012-1.536.118.079.158.236.118.04v.078c0 .079.04.157.04.236.039.355.078.67.157 1.024.316 2.126.632 4.29 1.184 6.377.118-.197.197-.354.315-.551-.749.118-1.459.275-2.209.394-.394.078-.789.157-1.183.196-.276.04-.671.197-.947.118-.158-.039-.118-.039-.158-.196-.039-.118-.039-.237-.118-.315-.158-.236-.434-.276-.671-.433-.434-.315-.907-1.22-.315-1.575.236-.118.315-.512.079-.709-.277-.236-.671-.55-.671-.944 0-.315.276-.512.513-.67.71-.393 1.538-.59 2.327-.866.553-.196.316-1.023-.236-.866-.592.197-1.223.394-1.815.63-.434.158-.907.355-1.223.709-.868.866-.276 1.929.513 2.598.039-.236.079-.473.079-.709-.71.394-.868 1.26-.592 1.969.158.393.394.748.749 1.023.119.118.395.158.474.276.118.118.079.354.197.512.474.669 1.539.314 2.209.196a92.663 92.663 0 0 1 3.235-.55c.237-.04.355-.316.316-.552-.513-2.008-.829-4.055-1.144-6.102-.079-.511-.079-1.102-.237-1.574-.118-.433-.631-.709-1.026-.788-.513-.157-1.104-.078-1.617.08-.671.235-1.302.629-1.499 1.337-.158.63.039 1.3.513 1.733.434.393 1.065-.197.631-.59z" fill="#333"/>
    <path d="M168.018 33.697c.434 1.417.907 2.834 1.341 4.252.039.118.079.275.197.354.118.118.276.118.434.118.75-.04 1.46-.354 2.091-.709 2.327-1.141 4.694-2.362 6.47-4.251.078-.079.157-.158.157-.276 0-.118-.079-.236-.157-.315-.671-.708-1.302-1.417-1.973-2.125-2.525 1.377-5.326 2.204-8.166 2.48" fill="#fff"/>
    <path d="M167.583 33.815c.315.984.631 1.968.907 2.953.197.63.315 1.771 1.026 2.007.789.236 1.775-.236 2.445-.55.75-.355 1.5-.749 2.249-1.143 1.499-.787 2.959-1.692 4.182-2.873.473-.433 1.025-.945.552-1.614-.592-.788-1.381-1.457-2.051-2.205-.119-.157-.355-.157-.553-.079a20.905 20.905 0 0 1-7.929 2.441c-.552.04-.552.945 0 .866a21.736 21.736 0 0 0 8.403-2.559c-.198-.039-.355-.039-.553-.078.513.55 1.066 1.141 1.578 1.692.04.04.395.355.395.433 0-.078-.197.158-.237.197a10.81 10.81 0 0 1-.71.67c-1.026.905-2.209 1.614-3.432 2.243-.592.315-1.183.63-1.775.906l-.947.472c-.276.118-.75.315-1.065.276-.395-.04-.434-.63-.552-.945-.119-.354-.237-.748-.355-1.102-.237-.788-.474-1.535-.711-2.323-.157-.472-1.025-.236-.867.315z" fill="#333"/>
    <path d="M180.877 21.021c.394.04.631-.433.71-.826 1.736-8.07-14.044-12.834-16.095-14.408-.395 1.456.473 3.976 1.814 4.684-3.471-.197-6.943-.55-10.414-1.141 0 0 1.893 4.763 3.984 5.944l18.226 6.417 1.775-.67z" fill="#DF357F"/>
    <path d="M180.876 21.454c1.144 0 1.263-1.495 1.263-2.361.039-.788-.119-1.614-.395-2.362-.631-1.615-1.775-2.953-3.077-4.095-2.801-2.44-6.233-4.054-9.586-5.59-1.105-.511-2.367-.944-3.353-1.653-.237-.157-.592 0-.671.276-.394 1.771.395 4.251 2.012 5.196l.237-.827c-3.432-.197-6.864-.55-10.297-1.141-.276-.04-.67.197-.552.55.355.867.75 1.733 1.184 2.56.71 1.299 1.538 2.677 2.761 3.503.316.236.71.315 1.105.473.749.275 1.499.55 2.288.787 4.418 1.575 8.876 3.11 13.294 4.684.592.197 1.184.433 1.775.63.198.08.355.04.553-.039.513-.197 1.065-.394 1.578-.59.512-.197.315-1.063-.237-.867-.473.158-.907.355-1.381.512-.079.04-.197.079-.276.118-.316.158.079-.078.079.04l-.079-.04c-.394-.236-.907-.315-1.341-.472-1.973-.709-3.945-1.378-5.918-2.086-2.288-.827-4.615-1.614-6.903-2.441-.868-.315-1.736-.59-2.604-.906-.434-.157-.907-.275-1.302-.472-.947-.433-1.775-1.81-2.327-2.716a22.762 22.762 0 0 1-1.46-2.953l-.552.551c3.471.59 6.982.945 10.533 1.142.434.04.592-.63.237-.827-1.263-.708-1.934-2.795-1.618-4.172a4.823 4.823 0 0 0-.671.275c.75.551 1.697.905 2.525 1.3 1.46.668 2.88 1.298 4.3 2.046 2.959 1.536 6.273 3.346 8.127 6.22.434.709.789 1.457.947 2.283.078.394.118.827.078 1.22 0 .276-.039 1.34-.394 1.34-.434.038-.434.904.118.904z" fill="#333"/>
    <path d="M179.52 24.759c.773-5.336-3.705-10.392-10.003-11.293-6.297-.9-12.03 2.696-12.803 8.032-.773 5.336 3.705 10.392 10.002 11.293 6.298.9 12.03-2.696 12.804-8.032z" fill="#fff"/>
    <path d="M179.061 24.643c-.631 4.212-4.339 7.007-8.402 7.716-4.34.708-9.231-.945-11.835-4.567-1.144-1.574-1.815-3.464-1.736-5.393a8.075 8.075 0 0 1 2.288-5.314c3.077-3.228 8.048-3.976 12.151-2.677 4.378 1.338 8.166 5.432 7.534 10.235-.079.551.789.787.868.236.631-4.566-2.288-8.7-6.312-10.629-4.3-2.086-9.783-1.85-13.649 1.103-1.696 1.299-2.998 3.11-3.511 5.235a9.046 9.046 0 0 0 .749 6.26c2.131 4.29 7.062 6.652 11.756 6.574 4.458-.08 9.074-2.52 10.612-6.89a7.446 7.446 0 0 0 .395-1.613c.039-.591-.829-.827-.908-.276z" fill="#333"/>
    <path d="M160.441 21.258a.812.812 0 0 1-.671-.866l.237-1.535a.812.812 0 0 1 .868-.67c.434.08.71.473.671.866l-.237 1.536c-.04.433-.434.708-.868.669zM169.949 21.572a.812.812 0 0 1-.671-.866l.237-1.535a.812.812 0 0 1 .868-.67.81.81 0 0 1 .67.867l-.236 1.535c-.04.433-.434.709-.868.67zM164.308 18.896c-.986.748-1.775 1.732-2.17 2.913a3.118 3.118 0 0 0-.236.866c-.079.315-.158.709 0 1.024.157.314.512.433.828.472.355.079.71.118 1.065.118.789 0 1.618-.118 2.367-.354.553-.197.316-1.024-.236-.866-.711.236-1.46.354-2.17.315-.197 0-.395 0-.553-.04-.078 0-.197-.04-.276-.04-.079 0-.157-.038-.197-.038-.039-.04-.039-.04-.079 0 0 0 0 .039.04.039.039.079.039.04.039-.04v-.117c0-.158.04-.276.079-.434.276-1.18.986-2.322 1.972-3.03.198-.158.277-.394.158-.591-.118-.236-.434-.355-.631-.197z" fill="#333"/>
    <path d="M178.274 23.186c.276-.708.592-1.417 1.184-1.81.552-.355 1.301-.355 1.893-.04a2.342 2.342 0 0 1 1.184 1.535c.079.315.118.67 0 .984-.079.276-.276.512-.434.748a9.216 9.216 0 0 1-2.209 1.89c-.237.118-.474.276-.75.236-.316 0-.552-.197-.749-.433-.198-.236-.277-.512-.395-.787" fill="#fff"/>
    <path d="M178.707 23.304c.236-.59.513-1.299 1.104-1.614.632-.315 1.381-.078 1.854.394.474.512.711 1.338.277 1.968-.434.63-1.066 1.181-1.697 1.614l-.591.355c-.158.078-.355.197-.513.197-.395-.08-.553-.591-.671-.906-.197-.551-1.065-.315-.868.236.197.512.395 1.024.868 1.339.473.315 1.026.236 1.539-.04a8.685 8.685 0 0 0 2.445-2.047c.355-.433.632-.905.632-1.496 0-.511-.198-1.063-.474-1.495-.591-.867-1.578-1.339-2.603-1.142-1.184.236-1.736 1.338-2.131 2.362-.079.236.079.472.316.551.237.118.434-.04.513-.276z" fill="#333"/>
    <path d="M163.638 26.139a7.864 7.864 0 0 0 3.432-.67c.118-.039.276-.118.394-.039.158.079.198.276.198.433.039.709.039 1.496-.395 2.087-.513.669-1.538.826-2.288.472-.75-.394-1.184-1.22-1.223-2.047" fill="#DF357F"/>
    <path d="M163.636 26.572c.829.04 1.657-.079 2.446-.276.395-.118.789-.275 1.184-.433.039 0 .079-.039.079-.039.118-.079-.198.04-.158-.118l.039.118v.551c0 .59-.079 1.26-.631 1.575-.434.275-1.026.275-1.499 0-.552-.315-.868-.984-.907-1.614a.438.438 0 0 0-.434-.433c-.237 0-.474.197-.434.433.039.827.394 1.653 1.065 2.204.671.512 1.538.67 2.327.355.868-.355 1.302-1.142 1.381-2.047.04-.394.079-.906-.039-1.3a.644.644 0 0 0-.434-.511c-.316-.118-.592 0-.868.118-.986.433-2.052.59-3.156.59-.552-.078-.552.827.039.827z" fill="#333"/>
    <path d="M158.985 32.792c-.434.827 1.262 14.644 2.051 16.1a12.6 12.6 0 0 1 2.722.08c-.315 1.22-.434 5.432-.118 5.983.276.473 3.195 4.882 5.128 7.125.632.276-1.42-11.18-6.43-25.666l-3.353-3.622z" fill="#fff"/>
    <path d="M158.589 32.556c-.237.551-.119 1.338-.079 1.929.079 1.22.197 2.44.316 3.621.315 2.795.67 5.63 1.183 8.425.158.827.276 1.81.671 2.598.079.118.236.236.394.236.868-.079 1.736-.04 2.604.079-.119-.197-.197-.354-.316-.551-.394 1.496-.355 3.228-.315 4.763 0 .512 0 1.142.236 1.614.237.433.553.866.829 1.26 1.104 1.614 2.209 3.228 3.432 4.803.276.354.552.708.828 1.023.198.197.395.276.671.157.237-.157.276-.433.276-.669.039-.826-.158-1.693-.276-2.48a56.627 56.627 0 0 0-.907-4.488c-1.066-4.645-2.367-9.25-3.788-13.778-.473-1.496-.946-3.03-1.499-4.527-.157-.472-.591-.826-.907-1.18-.868-.946-1.696-1.89-2.564-2.835-.395-.433-1.026.197-.631.63.67.748 1.341 1.456 2.012 2.204.394.433.749.827 1.144 1.26l.118.118c.039.04 0 .079 0 .04.316.59.473 1.377.671 2.007a210.005 210.005 0 0 1 4.023 13.739c.671 2.716 1.381 5.511 1.697 8.267.039.315.079.63.079.945v.118c0 .118 0 0 0 0s-.04.039 0-.04c.079-.118.157-.197.355-.197.157 0 .236.119.157-.039-.157-.354-.591-.708-.789-.984a35.05 35.05 0 0 1-.946-1.26 47.116 47.116 0 0 1-1.618-2.283c-.434-.63-.868-1.26-1.302-1.929-.039-.079-.118-.157-.157-.276 0-.039-.119-.196-.079-.078-.079-.197-.079-.473-.119-.709-.079-.905-.039-1.81 0-2.677.04-.748.079-1.535.277-2.283.039-.197-.079-.512-.316-.551-.947-.118-1.894-.158-2.84-.118.118.078.236.157.394.236-.039-.079-.039-.04-.079-.236l-.118-.473a13.22 13.22 0 0 1-.276-1.338 58.8 58.8 0 0 1-.592-3.661c-.395-2.638-.71-5.275-.907-7.952-.04-.473-.079-.984-.079-1.457V33.028c0-.04.079-.157 0 0 .118-.511-.631-.984-.868-.472z" fill="#333"/>
    <path d="M166.361 33.658c-1.026 1.417-2.525 3.543-3.195 5.196-1.776-1.771-2.841-4.173-4.537-6.023.592-.512 1.223-1.023 1.893-1.456.158-.119.316-.197.513-.197.198 0 .316.118.474.197 1.538 1.023 3.471 1.18 5.089 2.047" fill="#fff"/>
    <path d="M165.965 33.422c-1.184 1.692-2.446 3.385-3.235 5.314.237-.079.513-.118.75-.197-1.776-1.81-2.841-4.133-4.537-6.023v.63c.552-.472 1.144-1.024 1.775-1.378.237-.118.316-.118.552.04.119.078.237.157.316.196.316.158.592.315.907.433 1.263.512 2.604.788 3.827 1.418.513.275.947-.512.434-.748-1.381-.748-2.998-.985-4.418-1.654-.316-.157-.632-.393-.947-.55-.395-.198-.75-.119-1.105.117-.71.433-1.381.984-2.012 1.536-.197.157-.158.472 0 .63 1.697 1.85 2.762 4.212 4.537 6.022.237.276.631.118.749-.197.75-1.85 2.012-3.464 3.156-5.078.355-.511-.394-.984-.749-.511z" fill="#333"/>
    <path d="M182.967 55.113c-.829.275-1.657.511-2.485.787-.119.04-.198.079-.277.118-.197.157-.236.433-.236.709 0 2.165.276 4.37.868 6.456.039.197.118.433.276.59.236.197.552.236.868.197a10.97 10.97 0 0 0 2.761-.472 67.846 67.846 0 0 0-.947-7.992c-.039-.197-.118-.393-.315-.433" fill="#fff"/>
    <path d="M182.849 54.68c-.71.236-1.42.433-2.17.669-.552.157-1.025.354-1.144.984-.118.67-.039 1.378 0 2.047.04.709.119 1.417.237 2.126.118.709.237 1.417.434 2.126.118.55.237 1.26.749 1.574.513.315 1.263.197 1.815.118.71-.078 1.381-.196 2.051-.393.198-.04.355-.236.316-.433a101.974 101.974 0 0 0-.473-4.882c-.119-.787-.198-1.574-.355-2.362-.079-.59-.079-1.377-.75-1.574-.552-.158-.789.708-.237.866 0 0 .079.669.119.787.039.354.118.709.157 1.024.119.669.198 1.377.277 2.047.157 1.377.276 2.716.355 4.094.118-.158.236-.276.315-.433a10.72 10.72 0 0 1-1.617.354 6.46 6.46 0 0 1-.868.079c-.197 0-.552.079-.71-.079-.197-.118-.237-.512-.276-.709-.079-.275-.119-.55-.198-.826-.118-.551-.236-1.102-.315-1.654a23.275 23.275 0 0 1-.237-3.306c0-.197-.039-.512.119-.63.197-.118.552-.158.788-.236.592-.197 1.145-.355 1.736-.552.671-.118.434-.984-.118-.826z" fill="#333"/>
    <path d="M181.352 34.287c14.122-.393 18.738 21.691 18.738 22.006.276 3.464-5.286 8.11-15.504 8.818-.434-2.204-1.499-7.676-1.933-9.88 2.841-.946 1.736-.985 4.458-1.733-1.341-3.78-.868-1.535-2.722-5.708" fill="#DF357F"/>
    <path d="M181.35 34.72c3.59-.078 6.864 1.418 9.429 3.858 2.485 2.362 4.339 5.394 5.759 8.464 1.105 2.402 2.012 4.96 2.722 7.52.158.59.276 1.14.434 1.731.04.197 0-.118 0 .079 0 .276 0 .512-.079.787a4.705 4.705 0 0 1-.828 1.732c-1.065 1.457-2.683 2.52-4.261 3.307-2.327 1.142-4.931 1.811-7.535 2.165a24.07 24.07 0 0 1-2.367.237c.158.118.277.236.434.315-.67-3.307-1.262-6.575-1.933-9.881-.118.196-.197.354-.315.55.789-.275 1.578-.55 2.327-.944.671-.354 1.381-.551 2.131-.748.236-.04.394-.315.315-.551-.355-.945-.671-1.93-1.183-2.795-.592-.945-1.105-1.968-1.578-2.992-.237-.512-.987-.079-.75.433.474 1.024.947 2.008 1.539 2.953.512.787.828 1.732 1.144 2.637.118-.197.197-.354.315-.551-.749.197-1.538.433-2.248.787-.71.354-1.46.67-2.209.945a.482.482 0 0 0-.316.551c.671 3.307 1.262 6.574 1.933 9.881.039.197.237.354.434.315 2.919-.197 5.878-.709 8.6-1.81 1.972-.749 3.866-1.772 5.365-3.268 1.026-1.024 1.894-2.323 1.972-3.78.04-.511-.118-1.023-.236-1.535a43.896 43.896 0 0 0-2.446-7.282c-1.381-3.268-3.156-6.417-5.602-9.055-2.485-2.676-5.76-4.645-9.468-4.96-.473-.04-.947-.04-1.459-.04-.632.08-.632.946-.04.946z" fill="#333"/>
    <path d="M168.729 62.08c1.854-3.424 4.221-6.652 6.943-9.566.157-.196.355-.354.394-.59.04-.197-.039-.433-.118-.63a6.407 6.407 0 0 0-2.091-2.716c.868-.04 1.736-.04 2.604-.079 1.183-4.803 3.432-9.369 6.588-13.345a11.642 11.642 0 0 0-3.945-1.299c-.04 0-10.06 10.55-10.375 28.226z" fill="#fff"/>
    <path d="M169.082 62.316a44.682 44.682 0 0 1 5.168-7.519c.473-.55.986-1.102 1.46-1.653.434-.472.907-.906.749-1.614-.276-1.26-1.302-2.44-2.288-3.228-.118.236-.197.512-.315.748.867-.04 1.735-.04 2.603-.079.197 0 .395-.118.434-.315a34.507 34.507 0 0 1 6.47-13.148c.158-.197.197-.551-.079-.709a11.889 11.889 0 0 0-2.683-1.063c-.473-.118-1.42-.472-1.814-.157-.158.118-.276.315-.395.472a24.103 24.103 0 0 0-2.248 3.032 46.225 46.225 0 0 0-6.155 13.541 47.346 47.346 0 0 0-1.656 11.495c0 .551.868.551.868 0a46.575 46.575 0 0 1 3.629-17.124c1.42-3.307 3.195-6.495 5.404-9.37.355-.471.75-.983 1.184-1.416-.158.04-.276.078-.434.118 1.341.197 2.643.59 3.866 1.26-.039-.237-.079-.473-.079-.709a36.656 36.656 0 0 0-6.706 13.542c.157-.118.276-.236.434-.315-.868.04-1.736.04-2.604.079-.355 0-.631.512-.316.748.513.393.987.866 1.342 1.417.276.354.868 1.18.67 1.653-.118.276-.473.551-.71.788-.236.275-.473.511-.71.787a55.42 55.42 0 0 0-1.302 1.575 45.912 45.912 0 0 0-4.497 6.77c-.316.434.434.867.71.394zM179.977 76.523V69.63l-.485.477h9.831l-.485-.477v6.894l.485-.476h-9.831c-.615 0-.615.953 0 .953h9.831a.493.493 0 0 0 .485-.477V69.63a.493.493 0 0 0-.485-.476h-9.831a.493.493 0 0 0-.485.476v6.894c0 .636.97.636.97 0z" fill="#333"/>
    <path d="M156.932 47.003c-.631 1.496-6.075 9.526-7.732 9.605-1.223.079-2.327-.63-3.353-1.299a77.004 77.004 0 0 1-13.176-11.337l4.3-3.425c.592-.472 1.262-.984 2.012-.787.276.078 6.943 1.456 9.192 2.913" fill="#DF357F"/>
    <path d="M156.536 46.806c-.512 1.181-1.301 2.244-2.012 3.268-1.025 1.495-2.09 2.991-3.313 4.37-.434.51-.908 1.023-1.46 1.456-.158.118-.394.275-.473.275-.04 0-.079.04-.119.04h-.276a3.503 3.503 0 0 1-1.104-.276c-1.342-.551-2.565-1.575-3.709-2.401a81.587 81.587 0 0 1-3.629-2.835c-2.643-2.165-5.089-4.527-7.416-7.046v.63c1.42-1.103 2.8-2.244 4.221-3.346.473-.394 1.025-.867 1.696-.748.276.039.552.118.828.196 1.302.315 2.604.63 3.866.984 1.46.434 3.038.867 4.34 1.693.473.315.947-.472.434-.748-1.184-.748-2.643-1.18-3.985-1.614a51.03 51.03 0 0 0-4.221-1.102c-.355-.079-.67-.157-1.025-.236-.868-.158-1.578.197-2.249.709-.71.55-1.42 1.102-2.091 1.653-.828.67-1.657 1.299-2.446 1.968-.197.158-.157.473 0 .63a72.312 72.312 0 0 0 6.865 6.574 85.913 85.913 0 0 0 3.708 2.953c1.223.905 2.485 1.89 3.826 2.598.829.433 2.052.945 2.999.472.552-.275 1.025-.748 1.42-1.18 1.302-1.34 2.406-2.875 3.511-4.37.907-1.3 1.972-2.677 2.603-4.134.198-.512-.552-.984-.789-.433z" fill="#333"/>
    <path d="M132.75.433c7.456 0 13.531 6.023 13.531 13.503 0 3.346-1.223 6.416-3.274 8.778l1.104 4.094-4.576-1.22c-2.012 1.142-4.3 1.81-6.785 1.81-7.456 0-13.531-6.022-13.531-13.502S125.294.433 132.75.433z" fill="#fff"/>
    <path d="M132.748.905c4.892.04 9.468 2.795 11.677 7.165 1.184 2.283 1.618 4.92 1.302 7.44-.158 1.496-.631 2.953-1.302 4.252-.315.63-.67 1.22-1.104 1.81-.276.355-.829.788-.75 1.3.119.708.395 1.456.592 2.165.158.63.355 1.26.513 1.929l.552-.551c-.947-.236-1.893-.512-2.84-.748-.513-.118-.986-.276-1.499-.394-.631-.157-1.184.354-1.736.59-3.787 1.693-8.324 1.457-11.953-.63-3.117-1.81-5.444-4.92-6.233-8.463-.789-3.622 0-7.519 2.209-10.55 2.446-3.346 6.43-5.315 10.572-5.315.553 0 .592-.905 0-.866-6.588 0-12.505 4.764-13.728 11.26-.592 3.227-.079 6.613 1.539 9.486 1.577 2.795 4.102 4.96 7.061 6.141 3.945 1.575 8.482 1.181 12.111-.905-.118 0-.237.04-.355.04 1.538.393 3.037.826 4.576 1.22.316.078.631-.236.552-.551-.355-1.378-.749-2.756-1.104-4.095-.04.158-.079.276-.119.433 2.959-3.503 4.103-8.266 2.92-12.715-.987-3.7-3.551-6.928-6.983-8.739A13.701 13.701 0 0 0 132.748 0c-.591 0-.591.866 0 .905z" fill="#333"/>
    <path d="M130.421 15.747c-.079 0-.158-.04-.237-.118-.079-.08-.118-.158-.118-.237v-.158a3.34 3.34 0 0 1 .513-.983 7.81 7.81 0 0 1 .749-.866c.276-.276.553-.512.789-.748.237-.237.474-.433.631-.67.158-.196.237-.393.237-.59a.732.732 0 0 0-.079-.315.402.402 0 0 0-.236-.197.748.748 0 0 0-.316-.079c-.395 0-.631.08-.75.237a3.32 3.32 0 0 0-.315.472c-.079.118-.119.236-.237.315a.633.633 0 0 1-.434.157h-3.511a.357.357 0 0 1-.315-.157c-.079-.118-.158-.236-.158-.433 0-.472.158-.945.394-1.457.237-.511.631-.944 1.105-1.377.513-.433 1.104-.748 1.893-1.024.75-.275 1.657-.394 2.683-.394 1.105 0 1.972.119 2.683.355.67.236 1.222.55 1.578.945.394.393.631.787.789 1.18.157.394.236.748.236 1.024 0 .394-.079.787-.197 1.102-.118.355-.276.63-.473.945a6.468 6.468 0 0 1-.671.787 13.07 13.07 0 0 1-.71.748c-.237.237-.434.473-.631.67l-.119.118c-.039.04-.079.078-.079.118a1.908 1.908 0 0 1-.315.393c-.079.08-.197.119-.355.119h-4.024v.118zm.197 4.724c-.118 0-.276-.04-.355-.158a.482.482 0 0 1-.158-.354v-2.992c0-.118.04-.275.158-.354a.482.482 0 0 1 .355-.158h3.432c.119 0 .276.04.355.158a.478.478 0 0 1 .158.354v2.992c0 .118-.039.275-.158.354a.48.48 0 0 1-.355.158h-3.432z" fill="#DF357F"/>
</svg>
