<svg xmlns="http://www.w3.org/2000/svg" width="284" height="27" fill="none" viewBox="0 0 284 27">
    <path fill="#333" d="M19.059 11.244c0-.118-.068-.178-.204-.178h-5.002c-.118 0-.177.06-.177.178v8.379c0 .017.008.034.025.05.034 0 .06-.008.076-.025.813-1.235 1.397-2.97 1.752-5.205 0-.084-.042-.127-.127-.127-.27 0-.507-.093-.71-.279-.204-.203-.305-.449-.305-.736v-.178c0-.338.118-.618.355-.838.237-.237.516-.355.838-.355h.838c.423 0 .779.144 1.066.431.288.288.44.644.457 1.067.068 2.319.407 4.147 1.016 5.484.017.017.034.026.05.026.035-.017.052-.034.052-.051v-7.643zM5.55 13.123c0-.338.118-.618.355-.838.237-.237.517-.355.838-.355h.838c.423 0 .779.144 1.066.431.288.288.44.644.457 1.067.068 2.065.356 3.724.864 4.976.017.017.034.026.05.026.018 0 .026-.017.026-.051v-7.135c0-.118-.06-.178-.178-.178H5.145c-.136 0-.204.06-.204.178v8.354c0 .017.017.034.051.05.034 0 .06-.008.076-.025.813-1.236 1.355-2.962 1.625-5.18.017-.084-.017-.127-.101-.127-.288 0-.533-.101-.737-.304-.203-.203-.304-.449-.304-.737v-.152zm17.951-8.734c0 .423-.152.778-.457 1.066-.288.288-.635.432-1.041.432h-8.15c-.119 0-.178.067-.178.203v1.27c0 .135.059.202.178.202h7.414c.406 0 .753.144 1.04.432.305.288.458.643.458 1.067v12.771c0 .813-.102 1.447-.305 1.904-.203.457-.567.813-1.092 1.067-.643.304-1.574.482-2.793.533H18.5c-.406 0-.77-.127-1.092-.38-.355-.255-.61-.602-.762-1.042-.033-.102-.076-.212-.127-.33-.05-.135-.076-.262-.076-.38 0-.187.06-.365.178-.534.186-.27.44-.406.762-.406h1.142c.204 0 .339-.034.407-.102.084-.084.127-.211.127-.38v-1.093c0-.033-.026-.059-.077-.076-.033-.034-.067-.034-.101 0l-.026.026c-.253.152-.516.228-.787.228-.101 0-.203-.008-.304-.025-.407-.085-.677-.305-.813-.66-.118-.254-.228-.534-.33-.838 0-.034-.017-.051-.05-.051-.035 0-.06.008-.077.025-.135.339-.28.66-.431.965-.187.356-.483.559-.89.61-.084.017-.16.025-.228.025-.321 0-.61-.102-.863-.305l-.254-.152c-.034-.034-.068-.034-.101 0-.034.017-.051.042-.051.076v3.377c0 .423-.153.779-.457 1.066-.288.288-.635.432-1.041.432h-.635c-.406 0-.762-.144-1.066-.431-.288-.288-.432-.644-.432-1.067V21.02c0-.016-.017-.033-.05-.05-.018-.017-.035-.017-.052 0-.22.186-.474.262-.761.228-.271-.034-.474-.169-.61-.406-.237-.457-.448-.965-.634-1.523-.017-.034-.043-.051-.077-.051s-.059.008-.076.025c-.186.474-.398.914-.635 1.32-.203.339-.507.534-.914.584-.084.017-.16.026-.228.026-.322 0-.618-.102-.889-.305-.034-.017-.076-.017-.127 0-.034.017-.05.043-.05.076v2.946c0 .423-.144.778-.432 1.066-.288.288-.643.432-1.067.432h-.609c-.406 0-.762-.144-1.066-.432-.288-.288-.432-.643-.432-1.066V9.06c0-.424.144-.78.432-1.067.304-.288.66-.431 1.066-.431h7.033c.119 0 .178-.068.178-.204V6.09c0-.135-.06-.202-.178-.202H2.021c-.406 0-.761-.144-1.066-.432C.667 5.167.523 4.812.523 4.39v-.711c0-.423.144-.779.432-1.067.305-.287.66-.431 1.066-.431h19.983c.406 0 .753.144 1.04.431.306.288.458.644.458 1.067v.71zm6.729-2.108c.169-.39.44-.677.812-.863.22-.119.448-.178.686-.178.152 0 .313.026.482.076l.686.229c.389.118.677.364.863.736.084.186.127.381.127.584 0 .17-.034.339-.102.508-.525 1.253-1.1 2.48-1.726 3.682-.068.101-.102.22-.102.355v16.53c0 .423-.144.778-.432 1.066-.287.288-.643.431-1.066.431h-.584c-.406 0-.762-.143-1.066-.431-.288-.288-.432-.643-.432-1.067V12.996c0-.034-.017-.05-.05-.05-.018-.018-.043-.018-.077 0-.05.067-.102.143-.152.228-.186.203-.415.305-.686.305h-.152c-.339-.068-.584-.254-.737-.56-.22-.456-.44-.896-.66-1.32-.152-.304-.228-.634-.228-.99v-.254c.05-.44.22-.829.508-1.168 1.642-1.963 3.004-4.265 4.087-6.906zm7.82 6.906c0 .119.067.178.203.178h3.072c.119 0 .178-.059.178-.178-.068-.947-.119-1.887-.152-2.818 0-.135-.06-.186-.178-.152-1.371.186-2.353.313-2.946.38-.118.018-.177.085-.177.204v2.386zm12.264 2.083c0 .406-.144.761-.432 1.066-.288.288-.643.432-1.067.432h-3.148c-.118 0-.17.059-.152.177.237 2.302.533 4.224.888 5.764.356 1.523.703 2.285 1.041 2.285.237 0 .398-.66.483-1.98.017-.288.16-.491.431-.61.271-.118.525-.093.762.076.152.119.305.229.457.33.39.255.694.576.914.965.153.288.229.584.229.89 0 .1-.009.21-.026.33-.27 1.438-.685 2.411-1.244 2.92-.558.524-1.362.786-2.412.786-1.236 0-2.277-.889-3.123-2.666-.017-.017-.042-.025-.076-.025-.017 0-.026.008-.026.025v1.524c0 .406-.143.753-.431 1.04-.288.305-.643.458-1.067.458h-7.084c-.406 0-.761-.153-1.066-.457-.288-.288-.432-.635-.432-1.041v-.305c0-.423.144-.779.432-1.067.305-.287.66-.431 1.066-.431h8.354c.034 0 .06-.017.076-.05.034-.052.042-.094.026-.128-.847-1.98-1.482-4.858-1.905-8.633-.017-.118-.084-.177-.203-.177h-3.326c-.136 0-.203.059-.203.177v3.834c0 .119.059.17.177.153.373-.051 1.126-.144 2.26-.28.068-.017.136-.025.203-.025.322 0 .61.11.864.33.321.254.49.584.508.99l.025.381c.017.423-.11.804-.381 1.143-.27.321-.618.516-1.041.584-1.726.237-3.648.499-5.764.787-.067.017-.144.025-.228.025-.322 0-.627-.101-.914-.305-.339-.236-.55-.567-.635-.99l-.102-.584c-.033-.084-.05-.177-.05-.279 0-.27.093-.525.279-.762.22-.304.525-.482.914-.533.135-.017.203-.093.203-.229V4.364c0-.355.144-.643.432-.863.203-.152.414-.229.634-.229.119 0 .237.026.356.077l.813.254c.118.033.236.042.355.025 3.165-.44 5.916-.999 8.252-1.676.237-.068.474-.101.71-.101.204 0 .407.025.61.076.44.101.821.321 1.143.66l.685.685c.17.187.254.39.254.61 0 .084-.008.178-.025.28-.102.32-.313.524-.635.609-.745.22-1.616.44-2.615.66-.119.034-.186.11-.203.228v.432c0 .778.025 1.811.076 3.098.017.118.085.177.203.177h3.402c.424 0 .78.153 1.067.457.288.288.431.635.431 1.041v.407zm20.744-.026c0-.118-.068-.178-.203-.178h-5.002c-.119 0-.178.06-.178.178v8.379c0 .017.008.034.025.05.034 0 .06-.008.076-.025.813-1.235 1.397-2.97 1.752-5.205 0-.084-.042-.127-.127-.127-.27 0-.508-.093-.71-.279-.204-.203-.305-.449-.305-.736v-.178c0-.338.118-.618.355-.838.237-.237.516-.355.838-.355h.838c.423 0 .779.144 1.066.431.288.288.44.644.457 1.067.068 2.319.407 4.147 1.016 5.484.017.017.034.026.05.026.035-.017.052-.034.052-.051v-7.643zM57.55 13.123c0-.338.118-.618.355-.838.237-.237.517-.355.838-.355h.838c.423 0 .779.144 1.066.431.288.288.44.644.457 1.067.068 2.065.356 3.724.864 4.976.017.017.034.026.05.026.017 0 .026-.017.026-.051v-7.135c0-.118-.06-.178-.178-.178h-4.722c-.136 0-.204.06-.204.178v8.354c0 .017.017.034.051.05.034 0 .06-.008.076-.025.813-1.236 1.355-2.962 1.625-5.18.017-.084-.017-.127-.101-.127-.288 0-.533-.101-.736-.304-.204-.203-.305-.449-.305-.737v-.152zm17.951-8.734c0 .423-.152.778-.457 1.066-.288.288-.635.432-1.041.432h-8.15c-.119 0-.178.067-.178.203v1.27c0 .135.059.202.177.202h7.415c.406 0 .753.144 1.04.432.305.288.458.643.458 1.067v12.771c0 .813-.102 1.447-.305 1.904-.203.457-.567.813-1.092 1.067-.643.304-1.574.482-2.793.533H70.5c-.406 0-.77-.127-1.092-.38-.355-.255-.61-.602-.761-1.042-.034-.102-.077-.212-.128-.33-.05-.135-.076-.262-.076-.38 0-.187.06-.365.178-.534.186-.27.44-.406.762-.406h1.142c.203 0 .339-.034.407-.102.084-.084.127-.211.127-.38v-1.093c0-.033-.026-.059-.077-.076-.033-.034-.067-.034-.101 0l-.025.026c-.254.152-.517.228-.788.228-.101 0-.203-.008-.304-.025-.407-.085-.677-.305-.813-.66-.118-.254-.228-.534-.33-.838 0-.034-.017-.051-.05-.051-.034 0-.06.008-.077.025-.135.339-.28.66-.431.965-.187.356-.483.559-.89.61-.084.017-.16.025-.228.025-.321 0-.61-.102-.863-.305l-.254-.152c-.034-.034-.068-.034-.101 0-.034.017-.051.042-.051.076v3.377c0 .423-.153.779-.457 1.066-.288.288-.635.432-1.041.432h-.635c-.406 0-.762-.144-1.066-.431-.288-.288-.432-.644-.432-1.067V21.02c0-.016-.017-.033-.05-.05-.018-.017-.035-.017-.052 0-.22.186-.474.262-.761.228-.271-.034-.474-.169-.61-.406-.237-.457-.448-.965-.635-1.523-.016-.034-.042-.051-.076-.051-.033 0-.059.008-.076.025-.186.474-.398.914-.635 1.32-.203.339-.507.534-.914.584-.084.017-.16.026-.228.026-.322 0-.618-.102-.889-.305-.034-.017-.076-.017-.127 0-.034.017-.05.043-.05.076v2.946c0 .423-.145.778-.432 1.066-.288.288-.643.432-1.067.432h-.609c-.406 0-.762-.144-1.066-.432-.288-.288-.432-.643-.432-1.066V9.06c0-.424.144-.78.432-1.067.304-.288.66-.431 1.066-.431h7.033c.119 0 .178-.068.178-.204V6.09c0-.135-.06-.202-.178-.202h-7.845c-.407 0-.762-.144-1.067-.432-.288-.288-.432-.643-.432-1.066v-.711c0-.423.144-.779.432-1.067.305-.287.66-.431 1.067-.431h19.982c.406 0 .753.144 1.04.431.306.288.458.644.458 1.067v.71zm15.97 16.021c.136 0 .204-.068.204-.203v-.71c0-.12-.068-.179-.203-.179h-3.098c-.118 0-.178.06-.178.178v.711c0 .135.06.203.178.203h3.098zm7.77-7.566c.406 0 .753.152 1.041.457.305.287.457.634.457 1.04v6.73c0 .863-.101 1.54-.304 2.03-.204.491-.568.872-1.092 1.143-.559.305-1.447.491-2.666.559h-.127c-.373 0-.711-.119-1.016-.356-.338-.27-.567-.618-.685-1.04-.034-.12-.077-.238-.127-.356-.034-.119-.119-.178-.254-.178h-6.145c-.084 0-.127.042-.127.127 0 .27-.101.5-.304.686-.187.203-.415.304-.686.304h-.762c-.406 0-.761-.152-1.066-.457-.288-.288-.432-.635-.432-1.04v-4.14c0-.406.144-.753.432-1.04.305-.305.66-.457 1.066-.457h7.034c.406 0 .753.152 1.04.456.305.288.458.635.458 1.041v2.819c0 .118.067.178.203.178.287.016.533.025.736.025.254 0 .44-.009.559-.025.304 0 .457-.119.457-.356v-4.85c0-.135-.06-.203-.178-.203H83.348c-.119 0-.178.068-.178.204v7.261c0 .407-.152.754-.457 1.041-.288.305-.635.457-1.041.457h-.711c-.406 0-.762-.152-1.067-.457-.287-.287-.431-.634-.431-1.04v-9.065c0-.407.144-.754.431-1.041.305-.305.66-.457 1.067-.457h18.281zM93.2 9.594c.119 0 .178-.068.178-.203v-.66c0-.119-.06-.178-.178-.178h-6.652c-.135 0-.203.059-.203.177v.66c0 .136.068.204.203.204h6.652zm2.514-3.479c.406 0 .753.153 1.04.457.306.288.458.635.458 1.041v2.946c0 .406-.152.761-.457 1.066-.288.288-.635.432-1.041.432H84.236c-.406 0-.761-.144-1.066-.432-.288-.305-.432-.66-.432-1.066V7.613c0-.406.144-.753.432-1.04.305-.305.66-.458 1.066-.458h11.477zm-3.936-4.138c0 .118.068.177.204.177h7.998c.406 0 .753.153 1.041.457.304.288.457.635.457 1.041v.203c0 .407-.153.762-.457 1.067-.288.288-.635.432-1.041.432H79.995c-.406 0-.762-.144-1.066-.432-.288-.305-.432-.66-.432-1.067v-.203c0-.406.144-.753.432-1.04.304-.305.66-.458 1.066-.458h7.668c.135 0 .203-.059.203-.177V1.62c0-.406.144-.753.432-1.04.304-.306.66-.458 1.066-.458h.914c.407 0 .754.152 1.041.457.305.288.457.635.457 1.041v.356zm19.196 20.033c0-.051-.017-.093-.051-.127-.017-.034-.051-.051-.102-.051-.761 0-1.413-.237-1.955-.71-.541-.475-.812-1.11-.812-1.905 0-.762.271-1.38.812-1.854.559-.49 1.244-.736 2.057-.736 1.016 0 1.794.347 2.336 1.041.541.694.812 1.65.812 2.87 0 1.32-.372 2.513-1.117 3.58-.728 1.083-1.769 1.912-3.123 2.488-.169.067-.33.101-.482.101-.187 0-.364-.042-.534-.127-.355-.152-.6-.415-.736-.787-.051-.135-.076-.28-.076-.432 0-.186.042-.364.127-.533.152-.322.398-.567.736-.736 1.151-.542 1.854-1.236 2.108-2.082zM153.02 4.363c.203.254.304.533.304.838 0 .085-.008.17-.025.254-.085.406-.305.736-.66.99l-.559.381c-.254.17-.516.254-.787.254-.102 0-.203-.017-.305-.05-.389-.085-.702-.288-.939-.61-.457-.626-1.007-1.278-1.651-1.955-.237-.237-.355-.525-.355-.863 0-.44.178-.78.533-1.016l.356-.254c.321-.22.677-.33 1.066-.33h.127c.457.034.838.203 1.143.508.677.66 1.261 1.278 1.752 1.853zm-3.86 9.166c.237-.372.559-.617.965-.736.169-.068.347-.102.533-.102.22 0 .44.043.66.127l.559.254c.372.153.618.423.736.813.051.135.076.27.076.406 0 .22-.067.44-.203.66-.931 1.439-2.039 2.819-3.326 4.139-.101.101-.127.211-.076.33.559 1.54 1.1 2.31 1.625 2.31.372 0 .626-.888.762-2.666.034-.287.186-.482.457-.584.271-.118.516-.093.736.077.22.169.44.33.66.482.39.254.686.576.889.965.152.288.228.584.228.889 0 .118-.008.228-.025.33-.305 1.692-.762 2.835-1.371 3.427-.609.61-1.515.915-2.717.915-1.659 0-3.072-1.169-4.24-3.505-.051-.118-.127-.143-.229-.076-.931.711-1.921 1.371-2.97 1.98-.254.153-.508.23-.762.23-.135 0-.271-.018-.406-.051-.39-.102-.72-.322-.991-.66-.203-.255-.414-.508-.634-.762-.186-.22-.28-.466-.28-.737 0-.067.009-.135.026-.203.068-.355.254-.618.558-.787 1.49-.762 2.886-1.642 4.19-2.64.101-.068.135-.17.101-.305-.507-1.88-.905-3.978-1.193-6.297-.017-.136-.085-.203-.203-.203h-4.52c-.118 0-.177.068-.177.203v1.93c0 .135.059.186.177.152l2.082-.33h.229c.305 0 .584.093.838.28.321.253.499.583.533.99l.025.431v.152c0 .373-.11.711-.33 1.016-.27.339-.609.542-1.015.61-1.27.253-2.057.406-2.362.456-.118.034-.177.11-.177.229v3.504c0 .999-.119 1.76-.356 2.285-.22.542-.618.965-1.193 1.27-.762.389-1.896.617-3.403.685h-.076c-.389 0-.744-.127-1.066-.38-.339-.272-.576-.619-.711-1.042-.102-.321-.22-.651-.355-.99-.051-.135-.077-.262-.077-.38 0-.187.06-.365.178-.534.169-.27.423-.406.762-.406H134.154c.237 0 .398-.034.483-.102.084-.084.127-.237.127-.457v-2.717c0-.118-.06-.169-.178-.152l-2.59.482c-.101.017-.195.026-.279.026-.305 0-.593-.085-.863-.254-.339-.237-.559-.559-.661-.965l-.203-.914c-.034-.102-.051-.212-.051-.33 0-.254.085-.5.254-.737.237-.338.55-.533.94-.583 1.269-.17 2.42-.339 3.453-.508.118-.017.178-.085.178-.203v-2.514c0-.136-.06-.203-.178-.203h-2.895c-.406 0-.761-.144-1.066-.432-.288-.288-.432-.643-.432-1.066v-.559c0-.406.144-.753.432-1.04.305-.306.66-.458 1.066-.458h2.895c.118 0 .178-.06.178-.178v-1.93c0-.135-.06-.194-.178-.177l-2.107.28h-.204c-.338 0-.66-.102-.964-.305-.339-.254-.576-.593-.711-1.016-.034-.102-.077-.212-.127-.33-.051-.136-.077-.28-.077-.432 0-.203.06-.398.178-.584.186-.321.457-.508.813-.558 2.793-.407 5.289-.906 7.49-1.498.203-.051.406-.077.609-.077.237 0 .466.034.686.102.44.135.795.38 1.066.736l.686.864c.152.186.228.389.228.609 0 .102-.017.212-.05.33-.119.339-.347.55-.686.635-.745.17-1.625.355-2.641.558-.118.017-.177.094-.177.229v2.564c0 .119.059.178.177.178h4.19c.118 0 .169-.06.152-.178-.169-2.268-.254-4.062-.254-5.382 0-.39.144-.728.432-1.016.288-.288.643-.432 1.066-.432h.94c.423 0 .778.144 1.066.432.288.288.432.643.432 1.066 0 1.744.068 3.521.203 5.332.017.119.085.178.203.178h5.154c.407 0 .754.152 1.041.457.305.288.457.635.457 1.041v.559c0 .423-.152.778-.457 1.066-.287.288-.634.432-1.041.432h-4.798c-.119 0-.17.068-.153.203.203 1.354.381 2.404.533 3.148 0 .051.017.085.051.102.051 0 .085-.017.102-.05.389-.475.745-.949 1.066-1.423zm18.738-8.43c0-.135-.067-.203-.203-.203h-.914c-.118 0-.177.068-.177.204v.609c0 .118.059.178.177.178h.914c.136 0 .203-.06.203-.178v-.61zm-1.294 4.24c0 .136.059.204.177.204h.914c.136 0 .203-.068.203-.203v-.635c0-.118-.067-.178-.203-.178h-.914c-.118 0-.177.06-.177.178v.635zm2.589-7.235c.424 0 .779.143 1.067.431.288.288.431.643.431 1.067v7.236c0 .423-.143.779-.431 1.066-.288.288-.643.432-1.067.432h-2.412c-.118 0-.177.068-.177.203v11.35c0 .423-.153.778-.458 1.066-.287.288-.634.432-1.041.432h-.507c-.407 0-.762-.144-1.067-.432-.288-.288-.431-.643-.431-1.066V3.449c0-.017-.009-.025-.026-.025s-.025.008-.025.025c-.491 1.32-.931 2.395-1.32 3.225-.051.118-.077.245-.077.38V23.94c0 .424-.144.78-.431 1.067-.288.288-.644.431-1.067.431h-.584c-.423 0-.778-.143-1.066-.431-.288-.288-.432-.643-.432-1.067V13.48c0-.034-.017-.051-.051-.051-.033-.017-.059-.017-.076 0-.017.034-.034.059-.05.076-.153.22-.356.33-.61.33-.051 0-.101-.008-.152-.025-.322-.051-.542-.229-.66-.534-.203-.49-.407-.965-.61-1.421-.152-.322-.228-.66-.228-1.016 0-.085.008-.178.025-.28.051-.44.203-.846.457-1.218 1.439-2.031 2.624-4.41 3.555-7.135.135-.39.381-.685.736-.889.237-.118.474-.177.711-.177.152 0 .296.017.432.05l1.803.534c.169.05.22.16.152.33 0 .034.008.05.025.05h5.662zm5.383 7.236c0 .135.068.203.203.203h1.092c.119 0 .178-.068.178-.203v-.635c0-.118-.059-.178-.178-.178h-1.092c-.135 0-.203.06-.203.178v.635zm1.473-4.24c0-.136-.059-.204-.178-.204h-1.092c-.135 0-.203.068-.203.204v.609c0 .118.068.178.203.178h1.092c.119 0 .178-.06.178-.178v-.61zm2.107-2.996c.406 0 .754.143 1.041.431.305.288.457.643.457 1.067v17.646c0 .982-.118 1.735-.355 2.26-.22.525-.618.93-1.194 1.219-.778.389-2.056.609-3.834.66h-.025c-.406 0-.77-.136-1.092-.407-.338-.27-.575-.617-.711-1.04-.084-.271-.169-.534-.254-.788-.05-.118-.076-.237-.076-.355 0-.186.06-.364.178-.533.186-.271.44-.407.762-.407h.025c.559.017 1.041.026 1.447.026.339 0 .627-.009.864-.026.254 0 .423-.042.507-.127.102-.101.153-.279.153-.533V12.54c0-.135-.059-.203-.178-.203h-2.742c-.406 0-.762-.144-1.067-.432-.287-.287-.431-.643-.431-1.066V3.602c0-.424.144-.78.431-1.067.305-.288.661-.431 1.067-.431h5.027zm7.973 17.214c0 .136.059.203.178.203h3.021c.136 0 .203-.067.203-.203V15.23c0-.118-.067-.177-.203-.177h-3.021c-.119 0-.178.059-.178.177v4.088zm3.199-7.515c.136 0 .203-.068.203-.203V8.477c0-.136-.067-.204-.203-.204h-3.021c-.119 0-.178.068-.178.204V11.6c0 .135.059.203.178.203h3.021zm9.42-7.237c-.017.051-.017.094 0 .127.034.034.076.051.127.051h5.408c.406 0 .762.144 1.067.432.27.288.406.626.406 1.015v.204c-.119 4.164-.237 7.304-.356 9.42-.101 2.115-.254 3.825-.457 5.128-.203 1.304-.491 2.192-.863 2.666-.372.525-.77.897-1.193 1.118-.407.236-.923.414-1.549.533-.542.101-1.32.152-2.336.152h-.381c-.423-.017-.795-.17-1.117-.457-.322-.27-.542-.626-.66-1.066-.085-.288-.186-.576-.305-.864-.051-.118-.076-.237-.076-.355 0-.17.051-.33.152-.483.17-.253.406-.38.711-.38h.051c.694.034 1.498.05 2.412.05.474 0 .855-.152 1.143-.457.372-.406.651-1.6.838-3.58.186-1.98.33-5.129.431-9.445.017-.135-.042-.203-.178-.203h-4.544c-.136 0-.229.06-.28.178-.423.88-.863 1.692-1.32 2.437-.203.339-.508.542-.914.61-.068.016-.144.025-.229.025-.304 0-.584-.102-.838-.305-.27-.203-.541-.39-.812-.558-.034-.034-.068-.034-.102 0-.033.017-.05.042-.05.076v10.69c0 .405-.153.76-.457 1.066-.288.287-.635.431-1.041.431h-5.129c-.119 0-.178.06-.178.178v.178c0 .406-.152.753-.457 1.04-.288.305-.635.458-1.041.458h-.406c-.424 0-.779-.153-1.067-.457-.288-.288-.431-.635-.431-1.041V6.496c0-.406.143-.753.431-1.04.288-.306.643-.458 1.067-.458h1.269c.119 0 .195-.06.229-.178.152-.846.279-1.7.381-2.564.05-.406.236-.736.558-.99.254-.204.542-.305.863-.305.068 0 .136.008.204.025l1.167.153c.39.05.686.245.889.584.119.203.178.406.178.609 0 .135-.025.28-.076.432-.288.863-.533 1.549-.737 2.056-.017.051-.017.093 0 .127.034.034.077.051.127.051h2.159c.406 0 .753.152 1.041.457.304.288.457.635.457 1.041v1.777c0 .034.008.06.025.077.034 0 .059-.017.076-.051 1.033-1.71 1.896-3.716 2.59-6.018.118-.39.355-.694.711-.914.254-.152.516-.228.787-.228.119 0 .237.017.356.05l.736.178c.389.085.685.305.889.66.135.22.203.449.203.686 0 .135-.026.28-.077.432-.152.44-.313.914-.482 1.421zm1.828 10.918c.136.237.203.483.203.737 0 .135-.017.27-.05.406-.102.406-.339.72-.711.94l-.635.38c-.22.136-.449.203-.686.203-.118 0-.245-.016-.381-.05-.389-.119-.677-.356-.863-.711-.44-.847-1.1-1.99-1.98-3.428-.136-.237-.203-.482-.203-.736 0-.119.016-.246.05-.381.102-.406.33-.703.686-.889l.355-.203c.254-.136.517-.203.787-.203.119 0 .246.008.381.025.407.102.728.33.965.686.931 1.405 1.625 2.48 2.082 3.224zm30.52-11.755c.169.236.254.499.254.787 0 .101-.009.211-.026.33-.101.389-.33.702-.685.94l-.534.33c-.237.135-.473.202-.71.202-.136 0-.263-.017-.381-.05-.39-.102-.694-.322-.914-.66-.407-.61-.898-1.262-1.473-1.956-.203-.254-.305-.533-.305-.838 0-.067.009-.135.026-.203.05-.389.245-.685.584-.888l.279-.178c.305-.186.635-.28.99-.28.085 0 .161.01.229.026.44.05.812.237 1.117.559.609.66 1.126 1.286 1.549 1.879zm-17.723-1.397c.186-.39.466-.669.838-.838.22-.101.44-.152.66-.152.169 0 .339.025.508.076l.787.254c.372.135.643.38.813.736.084.186.126.373.126.559 0 .186-.042.372-.126.558-.474 1.016-.991 1.998-1.549 2.946-.051.118-.076.237-.076.355v17.088c0 .423-.153.779-.458 1.066-.287.288-.634.432-1.041.432h-.939c-.406 0-.762-.144-1.066-.431-.288-.288-.432-.644-.432-1.067V12.59c0-.034-.017-.06-.051-.076-.034-.017-.059-.009-.076.025-.389.457-.745.863-1.066 1.219-.204.203-.44.305-.711.305-.068 0-.136-.009-.203-.026-.356-.068-.618-.262-.788-.584-.22-.44-.44-.863-.66-1.27-.169-.287-.254-.592-.254-.913 0-.102.009-.195.026-.28.051-.423.228-.795.533-1.117 2.099-2.116 3.834-4.63 5.205-7.541zm18.662 7.059c.017.084.026.169.026.254 0 .304-.102.592-.305.863-.254.338-.584.533-.99.584l-5.713.812c-.136.017-.195.085-.178.203.339 2.624.796 4.698 1.371 6.221.593 1.507 1.303 2.328 2.133 2.463.135.017.254-.06.355-.229.102-.186.187-.457.254-.812.085-.372.153-.846.203-1.422.034-.305.195-.508.483-.61.101-.05.203-.075.305-.075.169 0 .33.05.482.152.203.152.423.305.66.457.389.254.677.584.863.99.136.288.204.576.204.863 0 .136-.009.271-.026.407-.372 1.879-.872 3.174-1.498 3.884-.575.66-1.227.99-1.955.99h-.152c-2.15-.22-3.809-1.379-4.977-3.478-1.151-2.116-1.972-5.196-2.463-9.242-.017-.135-.084-.195-.203-.178l-2.818.407h-.229c-.321 0-.618-.102-.888-.305-.322-.237-.517-.559-.584-.965l-.102-.685c-.017-.085-.025-.17-.025-.255 0-.304.101-.592.304-.863.254-.321.584-.516.99-.584l2.997-.406c.135-.017.194-.093.177-.228-.203-2.641-.304-4.63-.304-5.967 0-.39.135-.728.406-1.016.288-.288.635-.432 1.041-.432h.863c.406 0 .753.144 1.041.432.305.288.466.643.483 1.067.033 1.997.11 3.8.228 5.408 0 .118.068.169.203.152l5.535-.762h.229c.322 0 .618.102.889.305.338.254.533.584.584.99l.101.61zm12.721 11.476c0 .119.059.178.178.178h7.464c.119 0 .178-.06.178-.178v-3.96c0-.136-.059-.204-.178-.204h-7.464c-.119 0-.178.068-.178.203v3.961zm3.377-14.092c.034-.033.034-.067 0-.101-.017-.034-.043-.051-.076-.051h-5.409c-.118 0-.22.042-.304.127-.17.186-.398.415-.686.686-.084.101-.076.186.026.253 1.438 1.05 2.581 1.964 3.427 2.743.085.101.17.101.254 0 1.1-1.134 2.023-2.353 2.768-3.657zm6.881 6.526c.406 0 .753.152 1.041.457.304.288.457.635.457 1.04v9.167c0 .423-.153.779-.457 1.066-.288.288-.635.432-1.041.432h-1.524c-.254 0-.474-.085-.66-.254-.169-.17-.254-.38-.254-.635 0-.084-.034-.127-.101-.127h-7.618c-.067 0-.101.043-.101.127 0 .237-.085.44-.254.61-.169.169-.381.253-.635.253h-1.422c-.406 0-.761-.143-1.066-.431-.288-.288-.432-.643-.432-1.067v-5.255c0-.034-.017-.06-.051-.077-.033-.033-.067-.042-.101-.025-1.151.626-2.412 1.21-3.783 1.752-.186.068-.381.102-.584.102-.203 0-.407-.043-.61-.127-.389-.153-.694-.415-.914-.788-.186-.321-.381-.617-.584-.888-.135-.203-.203-.406-.203-.61 0-.118.017-.228.051-.33.102-.338.313-.567.635-.685 2.657-.914 5.061-2.15 7.211-3.707.118-.068.127-.144.025-.229-.677-.728-1.752-1.7-3.225-2.92-.101-.084-.203-.093-.304-.025-.39.288-.787.575-1.194.863-.27.17-.541.254-.812.254-.102 0-.212-.017-.33-.05-.406-.085-.745-.288-1.016-.61-.203-.27-.423-.525-.66-.762-.22-.22-.33-.482-.33-.787v-.152c.051-.356.228-.626.533-.813 2.793-1.675 4.985-3.74 6.576-6.195.254-.372.584-.652.991-.838.27-.135.558-.203.863-.203.118 0 .245.017.381.05l1.295.255c.372.067.626.27.761.61.068.134.102.27.102.405 0 .186-.059.364-.178.534-.084.135-.186.287-.304.457-.017.033-.017.067 0 .101.016.034.05.05.101.05h4.824c.051 0 .102-.008.153-.025.135-.033.27-.05.406-.05.22 0 .44.05.66.152l.787.432c.373.186.635.482.787.888.068.187.102.373.102.559 0 .203-.043.406-.127.61-1.168 2.725-2.776 5.162-4.824 7.312-.034.017-.043.042-.026.076.017.034.043.05.076.05h6.907zM267.43 1.52c.389 0 .719.143.99.431.271.271.406.601.406.99 0 .373-.135.703-.406.99-.271.271-.601.407-.99.407h-5.053c-.389 0-.719-.136-.99-.406-.271-.288-.407-.618-.407-.99 0-.39.136-.72.407-.99.271-.289.601-.432.99-.432h5.053zm-1.701 17.671c0-.135-.06-.203-.178-.203h-1.397c-.118 0-.177.068-.177.203v1.829c0 .118.059.177.177.177h1.397c.118 0 .178-.059.178-.177V19.19zm1.701-3.123c.423 0 .778.144 1.066.432.288.288.432.643.432 1.066v5.079c0 .406-.144.753-.432 1.04-.288.305-.643.458-1.066.458h-3.352c-.068 0-.101.033-.101.101 0 .237-.085.432-.254.584-.17.17-.364.254-.584.254h-.813c-.423 0-.778-.152-1.066-.457-.288-.288-.432-.635-.432-1.041v-6.018c0-.423.144-.778.432-1.066.288-.288.643-.432 1.066-.432h5.104zm-5.129-.863c-.39 0-.72-.135-.99-.406-.271-.288-.407-.618-.407-.99 0-.39.136-.72.407-.99.27-.288.6-.432.99-.432h5.179c.39 0 .72.144.991.431.271.271.406.601.406.99 0 .373-.135.703-.406.99-.271.272-.601.407-.991.407h-5.179zm5.179-6.398c.39 0 .72.135.991.406.271.27.406.6.406.99s-.135.72-.406.99c-.271.271-.601.407-.991.407h-5.179c-.39 0-.72-.136-.99-.407-.271-.27-.407-.6-.407-.99s.136-.72.407-.99c.27-.27.6-.406.99-.406h5.179zm-6.373-.787c-.406 0-.753-.144-1.041-.432-.27-.288-.406-.635-.406-1.041 0-.406.136-.753.406-1.041.288-.288.635-.432 1.041-.432h7.034c.406 0 .753.144 1.041.432.287.288.431.635.431 1.04 0 .407-.144.754-.431 1.042-.288.288-.635.432-1.041.432h-7.034zm14.092 6.525c0-.136-.067-.203-.203-.203h-1.016c-.118 0-.177.067-.177.203v2.057c0 .118.059.177.177.177h1.016c.136 0 .203-.059.203-.177v-2.057zm3.301 3.885c0 .423-.152.778-.457 1.066-.288.288-.635.432-1.041.432h-3.072c-.085 0-.127.042-.127.127 0 .27-.102.499-.305.685-.186.186-.415.28-.686.28h-.761c-.423 0-.779-.144-1.067-.432-.287-.288-.431-.643-.431-1.067v-6.83c0-.406.144-.753.431-1.04.288-.305.644-.458 1.067-.458h4.951c.406 0 .753.153 1.041.457.305.288.457.635.457 1.041v5.739zm-1.143-11.782c.424 0 .779.144 1.067.432.288.288.431.643.431 1.066v.229c0 .406-.143.762-.431 1.066-.288.288-.643.432-1.067.432h-5.56c-.406 0-.762-.144-1.067-.432-.287-.304-.431-.66-.431-1.066v-.229c0-.423.144-.778.431-1.066.305-.288.661-.432 1.067-.432h5.56zm4.622-4.875c.406 0 .753.153 1.041.457.304.288.457.635.457 1.041v17.85c0 .999-.119 1.777-.356 2.336-.22.559-.609.99-1.168 1.295-.762.423-1.963.66-3.605.71h-.051c-.389 0-.745-.134-1.067-.405-.338-.271-.567-.618-.685-1.041-.085-.356-.186-.711-.305-1.067-.051-.118-.076-.228-.076-.33 0-.203.068-.39.203-.558.186-.271.44-.407.762-.407H279.16c.22 0 .373-.042.457-.127.102-.101.153-.262.153-.482V5.455c0-.118-.06-.178-.178-.178h-7.922c-.406 0-.762-.144-1.066-.431-.288-.305-.432-.66-.432-1.067v-.508c0-.406.144-.753.432-1.04.304-.305.66-.458 1.066-.458h10.309z"/>
</svg>
