<svg xmlns="http://www.w3.org/2000/svg" width="392" height="38" fill="none" viewBox="0 0 392 38">
    <path fill="#333" d="M25.773 15.723c0-.164-.093-.246-.28-.246h-6.927c-.164 0-.246.082-.246.246v11.601c0 .024.012.047.035.07.047 0 .082-.011.106-.035 1.125-1.71 1.934-4.113 2.426-7.207 0-.117-.059-.175-.176-.175-.375 0-.703-.13-.984-.387-.282-.281-.422-.621-.422-1.02v-.246c0-.469.164-.855.492-1.16.328-.328.715-.492 1.16-.492h1.16c.586 0 1.078.2 1.477.598.398.398.61.89.633 1.476.093 3.211.562 5.742 1.406 7.594.023.023.047.035.07.035.047-.023.07-.047.07-.07V15.723zM7.07 18.324c0-.469.164-.855.492-1.16.329-.328.715-.492 1.16-.492h1.16c.587 0 1.079.2 1.477.598.399.398.61.89.633 1.476.094 2.86.492 5.156 1.195 6.89.024.024.047.036.07.036.024 0 .036-.024.036-.07v-9.88c0-.163-.082-.245-.246-.245h-6.54c-.187 0-.28.082-.28.246v11.566c0 .023.023.047.07.07.047 0 .082-.011.105-.035 1.125-1.71 1.875-4.101 2.25-7.172.024-.117-.023-.175-.14-.175-.399 0-.739-.141-1.02-.422-.281-.282-.422-.621-.422-1.02v-.21zM31.926 6.23c0 .586-.211 1.079-.633 1.477-.398.398-.879.598-1.441.598H18.566c-.164 0-.246.093-.246.28v1.759c0 .187.082.281.246.281h10.266c.563 0 1.043.2 1.441.598.422.398.633.89.633 1.476v17.684c0 1.125-.14 2.004-.422 2.637-.28.632-.785 1.124-1.511 1.476-.891.422-2.18.668-3.867.738H25c-.563 0-1.066-.175-1.512-.527-.492-.352-.843-.832-1.054-1.441-.047-.141-.106-.293-.176-.457-.07-.188-.106-.364-.106-.528 0-.258.082-.504.246-.738.258-.375.61-.563 1.055-.563H25.035c.281 0 .469-.046.563-.14.117-.117.175-.293.175-.527V28.8c0-.047-.035-.082-.105-.106-.047-.047-.094-.047-.14 0l-.036.035c-.351.211-.715.317-1.09.317-.14 0-.28-.012-.422-.035-.562-.117-.937-.422-1.125-.914-.164-.352-.316-.739-.457-1.16 0-.047-.023-.07-.07-.07-.047 0-.082.01-.105.034-.188.47-.387.914-.598 1.336-.258.492-.668.774-1.23.844-.118.023-.223.035-.317.035-.445 0-.844-.14-1.195-.422l-.352-.21c-.047-.047-.093-.047-.14 0-.047.023-.07.058-.07.105v4.676c0 .586-.212 1.078-.634 1.476-.398.399-.878.598-1.44.598h-.88c-.562 0-1.055-.2-1.476-.598-.399-.398-.598-.89-.598-1.476v-4.008c0-.024-.023-.047-.07-.07-.024-.024-.047-.024-.07 0-.305.257-.657.363-1.055.316-.375-.047-.657-.235-.844-.563-.328-.632-.621-1.335-.879-2.109-.023-.047-.059-.07-.105-.07-.047 0-.082.011-.106.035-.258.656-.55 1.265-.879 1.828-.281.469-.703.738-1.265.809-.118.023-.223.035-.317.035-.445 0-.855-.14-1.23-.422-.047-.024-.106-.024-.176 0-.047.023-.07.058-.07.105v4.078c0 .586-.2 1.079-.598 1.477-.399.398-.89.598-1.477.598H3.31c-.563 0-1.055-.2-1.477-.598-.398-.398-.598-.89-.598-1.477V12.7c0-.587.2-1.079.598-1.477.422-.399.914-.598 1.477-.598h9.738c.164 0 .246-.094.246-.281V8.586c0-.188-.082-.281-.246-.281H2.184c-.563 0-1.055-.2-1.477-.598-.398-.398-.598-.89-.598-1.477v-.984c0-.586.2-1.078.598-1.476.422-.399.914-.598 1.477-.598h27.668c.562 0 1.043.2 1.441.598.422.398.633.89.633 1.476v.984zm9.316-2.918c.235-.539.61-.937 1.125-1.195.305-.164.621-.246.95-.246.21 0 .433.035.667.106l.95.316c.539.164.937.504 1.195 1.02.117.257.176.527.176.808 0 .234-.047.469-.14.703-.727 1.735-1.524 3.434-2.392 5.098-.093.14-.14.305-.14.492v22.887c0 .586-.2 1.078-.598 1.476-.398.399-.89.598-1.476.598h-.809c-.563 0-1.055-.2-1.477-.598-.398-.398-.597-.89-.597-1.476V18.148c0-.046-.024-.07-.07-.07-.024-.023-.06-.023-.106 0-.07.094-.14.2-.21.317-.259.28-.575.421-.95.421h-.211c-.469-.093-.809-.351-1.02-.773-.304-.633-.609-1.242-.914-1.828-.21-.422-.316-.88-.316-1.371v-.352c.07-.61.305-1.148.703-1.617 2.273-2.719 4.16-5.906 5.66-9.563zm10.828 9.563c0 .164.094.246.282.246h4.254c.163 0 .246-.082.246-.246-.094-1.313-.164-2.613-.211-3.902 0-.188-.082-.258-.246-.211-1.899.258-3.258.433-4.079.527-.164.024-.246.117-.246.281v3.305zm16.98 2.883c0 .562-.198 1.055-.597 1.476-.398.399-.89.598-1.476.598h-4.36c-.164 0-.234.082-.21.246.327 3.188.738 5.848 1.23 7.98.492 2.11.972 3.165 1.441 3.165.328 0 .55-.914.668-2.742.023-.399.223-.68.598-.844.375-.164.726-.13 1.054.105.211.164.422.317.633.457.54.352.961.797 1.266 1.336.21.399.316.809.316 1.23 0 .141-.011.294-.035.458-.375 1.992-.95 3.34-1.722 4.043-.774.726-1.887 1.09-3.34 1.09-1.711 0-3.153-1.231-4.325-3.692-.023-.023-.058-.035-.105-.035-.023 0-.035.012-.035.035v2.11c0 .562-.2 1.042-.598 1.44-.398.423-.89.634-1.476.634h-9.809c-.563 0-1.055-.211-1.477-.633-.398-.399-.597-.88-.597-1.442v-.421c0-.586.199-1.079.597-1.477.422-.398.914-.598 1.477-.598h11.566c.047 0 .082-.023.106-.07.047-.07.058-.129.035-.176-1.172-2.742-2.05-6.726-2.637-11.953-.023-.164-.117-.246-.281-.246h-4.605c-.188 0-.282.082-.282.246v5.309c0 .164.082.234.246.21.516-.07 1.559-.199 3.13-.386.093-.023.187-.035.28-.035.446 0 .844.152 1.196.457.445.351.68.808.703 1.37l.035.528c.024.586-.152 1.114-.527 1.582-.375.446-.856.715-1.442.809-2.39.328-5.05.691-7.98 1.09-.094.023-.2.035-.316.035-.446 0-.868-.14-1.266-.422-.469-.328-.762-.785-.879-1.371l-.14-.809c-.047-.117-.07-.246-.07-.386 0-.375.128-.727.386-1.055.304-.422.726-.668 1.265-.738.188-.024.282-.13.282-.317V6.195c0-.492.199-.89.597-1.195.282-.21.575-.316.88-.316.163 0 .327.035.491.105l1.125.352c.164.046.328.058.493.035 4.382-.61 8.191-1.383 11.425-2.32.328-.094.657-.141.985-.141.281 0 .562.035.843.105.61.14 1.137.446 1.582.914l.95.95c.234.257.351.539.351.843 0 .118-.011.246-.035.387-.14.445-.433.727-.879.844-1.031.304-2.238.61-3.62.914-.165.047-.259.152-.282.316v.598c0 1.078.035 2.508.105 4.289.024.164.118.246.282.246h4.71c.587 0 1.079.211 1.477.633.399.398.598.879.598 1.441v.563zm28.723-.035c0-.164-.093-.246-.28-.246h-6.927c-.164 0-.246.082-.246.246v11.601c0 .024.012.047.036.07.046 0 .082-.011.105-.035 1.125-1.71 1.933-4.113 2.426-7.207 0-.117-.059-.175-.176-.175-.375 0-.703-.13-.984-.387-.282-.281-.422-.621-.422-1.02v-.246c0-.469.164-.855.492-1.16.328-.328.715-.492 1.16-.492h1.16c.586 0 1.078.2 1.477.598.398.398.61.89.633 1.476.093 3.211.562 5.742 1.406 7.594.023.023.047.035.07.035.047-.023.07-.047.07-.07V15.723zM79.07 18.324c0-.469.164-.855.493-1.16.328-.328.714-.492 1.16-.492h1.16c.586 0 1.078.2 1.476.598.399.398.61.89.633 1.476.094 2.86.492 5.156 1.195 6.89.024.024.047.036.07.036.024 0 .036-.024.036-.07v-9.88c0-.163-.082-.245-.246-.245h-6.54c-.187 0-.28.082-.28.246v11.566c0 .023.023.047.07.07.047 0 .082-.011.105-.035 1.125-1.71 1.875-4.101 2.25-7.172.024-.117-.023-.175-.14-.175-.399 0-.739-.141-1.02-.422-.281-.282-.422-.621-.422-1.02v-.21zM103.926 6.23c0 .586-.211 1.079-.633 1.477-.398.398-.879.598-1.441.598H90.566c-.164 0-.246.093-.246.28v1.759c0 .187.082.281.246.281h10.266c.563 0 1.043.2 1.441.598.422.398.633.89.633 1.476v17.684c0 1.125-.14 2.004-.422 2.637-.281.632-.785 1.124-1.511 1.476-.891.422-2.18.668-3.867.738H97c-.563 0-1.066-.175-1.512-.527-.492-.352-.844-.832-1.054-1.441-.047-.141-.106-.293-.176-.457-.07-.188-.106-.364-.106-.528 0-.258.082-.504.246-.738.258-.375.61-.563 1.055-.563H97.035c.281 0 .469-.046.563-.14.117-.117.175-.293.175-.527V28.8c0-.047-.035-.082-.105-.106-.047-.047-.094-.047-.14 0l-.036.035c-.351.211-.715.317-1.09.317-.14 0-.28-.012-.421-.035-.563-.117-.938-.422-1.125-.914-.165-.352-.317-.739-.458-1.16 0-.047-.023-.07-.07-.07-.047 0-.082.01-.105.034-.188.47-.387.914-.598 1.336-.258.492-.668.774-1.23.844-.118.023-.223.035-.317.035-.445 0-.844-.14-1.195-.422l-.352-.21c-.047-.047-.094-.047-.14 0-.047.023-.07.058-.07.105v4.676c0 .586-.212 1.078-.633 1.476-.399.399-.88.598-1.442.598h-.879c-.562 0-1.055-.2-1.476-.598-.399-.398-.598-.89-.598-1.476v-4.008c0-.024-.024-.047-.07-.07-.024-.024-.047-.024-.07 0-.305.257-.657.363-1.055.316-.375-.047-.657-.235-.844-.563-.328-.632-.621-1.335-.879-2.109-.023-.047-.059-.07-.106-.07-.046 0-.082.011-.105.035-.258.656-.55 1.265-.879 1.828-.281.469-.703.738-1.266.809-.117.023-.222.035-.316.035-.445 0-.855-.14-1.23-.422-.047-.024-.106-.024-.176 0-.047.023-.07.058-.07.105v4.078c0 .586-.2 1.079-.598 1.477-.398.398-.89.598-1.477.598h-.843c-.563 0-1.055-.2-1.477-.598-.398-.398-.598-.89-.598-1.477V12.7c0-.587.2-1.079.598-1.477.422-.399.914-.598 1.477-.598h9.738c.164 0 .246-.094.246-.281V8.586c0-.188-.082-.281-.246-.281H74.184c-.563 0-1.055-.2-1.477-.598-.398-.398-.598-.89-.598-1.477v-.984c0-.586.2-1.078.598-1.476.422-.399.914-.598 1.477-.598h27.668c.562 0 1.043.2 1.441.598.422.398.633.89.633 1.476v.984zm22.113 22.184c.188 0 .281-.094.281-.281v-.985c0-.164-.093-.246-.281-.246h-4.289c-.164 0-.246.082-.246.246v.985c0 .187.082.281.246.281h4.289zm10.758-10.477c.562 0 1.043.211 1.441.633.422.399.633.88.633 1.442v9.316c0 1.195-.141 2.133-.422 2.813-.281.68-.785 1.207-1.511 1.582-.774.422-2.004.68-3.692.773h-.176c-.515 0-.984-.164-1.406-.492-.469-.375-.785-.856-.949-1.441-.047-.165-.106-.329-.176-.493-.047-.164-.164-.246-.351-.246h-8.508c-.118 0-.176.059-.176.176 0 .375-.141.691-.422.95-.258.28-.574.421-.949.421h-1.055c-.562 0-1.055-.21-1.476-.633-.399-.398-.598-.879-.598-1.441v-5.73c0-.563.199-1.044.598-1.442.421-.422.914-.633 1.476-.633h9.738c.563 0 1.043.211 1.442.633.422.398.633.879.633 1.441v3.903c0 .164.093.246.281.246.398.023.738.035 1.019.035.352 0 .61-.012.774-.035.422 0 .633-.164.633-.492v-6.715c0-.188-.082-.281-.246-.281h-18.563c-.164 0-.246.093-.246.28v10.055c0 .563-.211 1.044-.633 1.442-.398.422-.879.633-1.441.633h-.985c-.562 0-1.054-.211-1.476-.633-.399-.398-.598-.879-.598-1.441V20.011c0-.563.199-1.043.598-1.442.422-.422.914-.633 1.476-.633h25.313zm-8.367-4.5c.164 0 .246-.093.246-.28v-.915c0-.164-.082-.246-.246-.246h-9.211c-.188 0-.281.082-.281.246v.914c0 .188.093.281.281.281h9.211zm3.48-4.816c.563 0 1.043.211 1.442.633.421.398.632.879.632 1.441v4.078c0 .563-.211 1.055-.632 1.477-.399.398-.879.598-1.442.598h-15.89c-.563 0-1.055-.2-1.477-.598-.398-.422-.598-.914-.598-1.477v-4.078c0-.562.2-1.043.598-1.441.422-.422.914-.633 1.477-.633h15.89zm-5.449-5.73c0 .164.094.246.281.246h11.074c.563 0 1.043.21 1.442.633.422.398.633.878.633 1.44v.282c0 .563-.211 1.055-.633 1.477-.399.398-.879.597-1.442.597h-27.668c-.562 0-1.054-.199-1.476-.597-.399-.422-.598-.914-.598-1.477v-.281c0-.563.199-1.043.598-1.441.422-.422.914-.633 1.476-.633h10.618c.187 0 .281-.082.281-.246v-.493c0-.562.199-1.043.598-1.441.421-.422.914-.633 1.476-.633h1.266c.562 0 1.043.211 1.441.633.422.398.633.879.633 1.441v.493zm26.578 27.738c0-.07-.023-.129-.07-.176-.024-.047-.071-.07-.141-.07-1.055 0-1.957-.328-2.707-.985-.75-.656-1.125-1.535-1.125-2.636 0-1.055.375-1.91 1.125-2.567.774-.68 1.723-1.02 2.848-1.02 1.406 0 2.484.481 3.234 1.442s1.125 2.285 1.125 3.973c0 1.828-.516 3.48-1.547 4.957-1.008 1.5-2.449 2.648-4.324 3.445-.234.094-.457.14-.668.14-.258 0-.504-.058-.738-.175-.492-.21-.832-.574-1.02-1.09-.07-.187-.105-.386-.105-.597 0-.258.058-.504.176-.739.21-.445.55-.785 1.019-1.02 1.594-.75 2.567-1.71 2.918-2.882zm58.219-24.434c.281.352.422.739.422 1.16 0 .118-.012.235-.035.352-.118.563-.422 1.02-.915 1.371l-.773.527c-.352.235-.715.352-1.09.352-.14 0-.281-.023-.422-.07-.539-.117-.972-.399-1.3-.844-.633-.867-1.395-1.77-2.286-2.707-.328-.328-.492-.727-.492-1.195 0-.61.246-1.079.738-1.407l.493-.351c.445-.305.937-.457 1.476-.457h.176c.633.047 1.16.281 1.582.703.938.914 1.746 1.77 2.426 2.566zm-5.344 12.692c.328-.516.774-.856 1.336-1.02.234-.094.48-.14.738-.14.305 0 .61.058.914.175l.774.352c.515.21.855.586 1.019 1.125.071.187.106.375.106.562 0 .305-.094.61-.281.915-1.29 1.992-2.825 3.902-4.606 5.73-.141.14-.176.293-.105.457.773 2.133 1.523 3.2 2.25 3.2.515 0 .867-1.231 1.054-3.692.047-.399.258-.668.633-.809.375-.164.715-.129 1.02.106.304.234.609.457.914.668.539.351.949.797 1.23 1.336.211.398.317.808.317 1.23 0 .164-.012.316-.036.457-.421 2.344-1.054 3.926-1.898 4.746-.844.844-2.098 1.266-3.762 1.266-2.297 0-4.254-1.617-5.871-4.852-.07-.164-.176-.199-.316-.105-1.289.984-2.66 1.898-4.114 2.742-.351.21-.703.316-1.054.316-.188 0-.375-.023-.563-.07-.539-.14-.996-.445-1.371-.914-.281-.352-.574-.703-.879-1.055-.258-.304-.386-.644-.386-1.02 0-.093.011-.187.035-.28.093-.493.351-.856.773-1.09 2.063-1.055 3.996-2.274 5.801-3.657.141-.093.187-.234.141-.421-.704-2.602-1.254-5.508-1.653-8.72-.023-.187-.117-.28-.281-.28h-6.258c-.164 0-.246.093-.246.28v2.673c0 .187.082.258.246.21l2.883-.456h.316c.422 0 .809.128 1.161.386.445.352.691.809.738 1.371l.035.598v.211c0 .516-.152.984-.457 1.406-.375.469-.844.75-1.406.844-1.758.352-2.848.563-3.27.633-.164.047-.246.152-.246.316v4.852c0 1.383-.164 2.437-.492 3.164-.305.75-.856 1.336-1.652 1.758-1.055.539-2.625.855-4.711.949h-.106c-.539 0-1.031-.176-1.476-.528-.469-.374-.797-.855-.985-1.44-.14-.446-.305-.903-.492-1.372-.07-.188-.105-.363-.105-.527 0-.258.082-.504.246-.739.234-.375.586-.562 1.054-.562h2.567c.328 0 .551-.047.668-.14.117-.118.175-.329.175-.634v-3.761c0-.164-.082-.235-.246-.211l-3.586.668c-.14.023-.269.035-.386.035-.422 0-.821-.117-1.196-.352-.468-.328-.773-.773-.914-1.336l-.281-1.265c-.047-.14-.07-.293-.07-.457 0-.352.117-.692.351-1.02.328-.469.762-.738 1.301-.808 1.758-.235 3.352-.47 4.781-.703.164-.024.246-.118.246-.282v-3.48c0-.188-.082-.281-.246-.281h-4.007c-.563 0-1.055-.2-1.477-.598-.398-.399-.598-.89-.598-1.477v-.773c0-.563.2-1.043.598-1.442.422-.421.914-.632 1.477-.632h4.007c.164 0 .246-.082.246-.246V8.305c0-.188-.082-.27-.246-.246-1.054.14-2.027.27-2.918.386h-.281c-.469 0-.914-.14-1.336-.422-.469-.351-.797-.82-.984-1.406-.047-.14-.106-.293-.176-.457-.07-.187-.105-.387-.105-.598 0-.28.082-.55.246-.808.258-.445.632-.703 1.125-.774 3.867-.562 7.324-1.253 10.371-2.074.281-.07.562-.105.844-.105.328 0 .644.047.949.14.609.188 1.101.528 1.476 1.02l.95 1.195c.21.258.316.54.316.844 0 .14-.023.293-.07.457-.164.469-.481.762-.95.879-1.031.234-2.25.492-3.656.773-.164.024-.246.13-.246.317v3.55c0 .165.082.247.246.247h5.801c.164 0 .234-.082.211-.246-.235-3.141-.352-5.625-.352-7.454 0-.539.2-1.007.598-1.406.398-.398.891-.597 1.477-.597h1.3c.586 0 1.078.199 1.477.597.398.399.598.89.598 1.477 0 2.414.093 4.875.281 7.383.023.164.117.246.281.246h7.137c.562 0 1.043.21 1.441.632.422.399.633.88.633 1.442v.773c0 .586-.211 1.078-.633 1.477-.398.398-.879.598-1.441.598h-6.645c-.164 0-.234.093-.211.28.282 1.876.528 3.329.739 4.36 0 .07.023.117.07.14.07 0 .117-.023.141-.07.539-.656 1.031-1.312 1.476-1.968zm25.945-11.672c0-.188-.093-.281-.281-.281h-1.266c-.164 0-.246.093-.246.28v.845c0 .164.082.246.246.246h1.266c.188 0 .281-.082.281-.246v-.844zm-1.793 5.87c0 .188.082.282.246.282h1.266c.188 0 .281-.094.281-.281v-.879c0-.164-.093-.246-.281-.246h-1.266c-.164 0-.246.082-.246.246v.879zm3.586-10.019c.586 0 1.078.2 1.477.598.398.398.598.89.598 1.477v10.02c0 .585-.2 1.077-.598 1.476-.399.398-.891.597-1.477.597h-3.34c-.164 0-.246.094-.246.282V33.23c0 .585-.211 1.078-.632 1.476-.399.398-.879.598-1.442.598h-.703c-.562 0-1.055-.2-1.477-.598-.398-.398-.597-.89-.597-1.477V4.93c0-.024-.012-.035-.035-.035-.024 0-.035.011-.035.035-.68 1.828-1.29 3.316-1.829 4.465-.07.164-.105.34-.105.527V33.3c0 .586-.199 1.078-.598 1.476-.398.399-.89.598-1.476.598h-.809c-.586 0-1.078-.2-1.476-.598-.399-.398-.598-.89-.598-1.476V18.816c0-.046-.024-.07-.07-.07-.047-.023-.082-.023-.106 0-.023.047-.047.082-.07.106-.211.304-.492.457-.844.457-.07 0-.141-.012-.211-.036-.445-.07-.75-.316-.914-.738-.281-.68-.562-1.336-.844-1.969-.211-.445-.316-.914-.316-1.406 0-.117.012-.246.035-.387.07-.609.281-1.171.633-1.687 1.992-2.813 3.633-6.106 4.922-9.879.187-.539.527-.95 1.019-1.23.328-.165.657-.247.985-.247.211 0 .41.024.597.07l2.496.74c.235.07.305.222.211.456 0 .047.012.07.035.07h7.84zm7.453 10.02c0 .187.094.281.282.281h1.511c.164 0 .247-.094.247-.281v-.879c0-.164-.083-.246-.247-.246h-1.511c-.188 0-.282.082-.282.246v.879zm2.04-5.871c0-.188-.083-.281-.247-.281h-1.511c-.188 0-.282.093-.282.28v.845c0 .164.094.246.282.246h1.511c.164 0 .247-.082.247-.246v-.844zm2.917-4.149c.563 0 1.043.2 1.442.598.422.398.633.89.633 1.477v24.433c0 1.36-.164 2.403-.492 3.13-.305.726-.856 1.288-1.653 1.687-1.078.539-2.847.843-5.308.914h-.036c-.562 0-1.066-.188-1.511-.563-.469-.375-.797-.855-.985-1.441-.117-.375-.234-.739-.351-1.09-.071-.164-.106-.328-.106-.492 0-.258.082-.504.246-.739.258-.375.61-.562 1.055-.562h.035c.774.023 1.442.035 2.004.035.469 0 .867-.012 1.195-.035.352 0 .586-.059.704-.176.14-.14.211-.387.211-.738V17.516c0-.188-.083-.282-.247-.282h-3.796c-.563 0-1.055-.199-1.477-.597-.398-.399-.598-.89-.598-1.477V5.14c0-.585.2-1.077.598-1.476.422-.398.914-.598 1.477-.598h6.96zm11.04 23.836c0 .188.082.282.246.282h4.183c.188 0 .281-.094.281-.282v-5.66c0-.164-.093-.246-.281-.246h-4.183c-.164 0-.246.082-.246.246v5.66zm4.429-10.406c.188 0 .281-.094.281-.281V11.89c0-.188-.093-.282-.281-.282h-4.183c-.164 0-.246.094-.246.282v4.324c0 .187.082.281.246.281h4.183zm13.043-10.02c-.023.07-.023.13 0 .176.047.047.106.07.176.07h7.488c.563 0 1.055.2 1.477.598.375.399.562.867.562 1.407v.28c-.164 5.766-.328 10.114-.492 13.044-.14 2.93-.351 5.297-.633 7.101-.281 1.805-.679 3.035-1.195 3.692-.516.726-1.066 1.242-1.652 1.547-.563.328-1.278.574-2.145.738-.75.14-1.828.21-3.234.21h-.528c-.586-.023-1.101-.233-1.546-.632-.446-.375-.75-.867-.914-1.477-.118-.398-.258-.796-.422-1.195-.071-.164-.106-.328-.106-.492 0-.234.07-.457.211-.668.234-.352.563-.527.984-.527h.071c.961.047 2.074.07 3.34.07.656 0 1.183-.211 1.582-.633.515-.562.902-2.215 1.16-4.957.258-2.742.457-7.101.597-13.078.024-.188-.058-.281-.246-.281h-6.293c-.187 0-.316.082-.386.246-.586 1.219-1.196 2.344-1.828 3.375-.282.469-.704.75-1.266.844-.094.023-.199.035-.316.035-.422 0-.809-.14-1.161-.422-.375-.281-.75-.54-1.125-.774-.046-.046-.093-.046-.14 0-.047.024-.071.059-.071.106v14.8c0 .563-.211 1.055-.632 1.477-.399.399-.879.598-1.442.598h-7.101c-.164 0-.246.082-.246.246v.246c0 .563-.211 1.043-.633 1.441-.399.422-.879.633-1.442.633h-.562c-.586 0-1.078-.21-1.477-.633-.398-.398-.597-.878-.597-1.44V9.147c0-.562.199-1.043.597-1.441.399-.422.891-.633 1.477-.633h1.758c.164 0 .269-.082.316-.246.211-1.172.387-2.355.527-3.55.071-.563.329-1.02.774-1.372.351-.281.75-.422 1.195-.422.094 0 .188.012.281.036l1.618.21c.539.07.949.34 1.23.81.164.28.246.562.246.843 0 .187-.035.387-.105.597-.399 1.196-.739 2.145-1.02 2.848-.023.07-.023.129 0 .176.047.047.106.07.176.07h2.988c.563 0 1.043.211 1.442.633.421.398.632.879.632 1.441v2.461c0 .047.012.082.036.106.046 0 .082-.024.105-.07 1.43-2.368 2.625-5.145 3.586-8.332.164-.54.492-.961.984-1.266.352-.211.715-.317 1.09-.317.164 0 .328.024.492.07l1.02.247c.539.117.949.422 1.23.914.188.305.282.621.282.95 0 .187-.036.386-.106.597-.211.61-.433 1.265-.668 1.969zm2.531 15.118c.188.328.282.668.282 1.02 0 .187-.024.374-.071.562-.14.562-.468.996-.984 1.3l-.879.528c-.305.187-.621.281-.949.281-.164 0-.34-.023-.527-.07-.539-.164-.938-.492-1.196-.985-.609-1.171-1.523-2.753-2.742-4.746-.187-.328-.281-.668-.281-1.02 0-.163.023-.339.07-.526.141-.563.457-.973.949-1.231l.493-.281c.351-.188.714-.281 1.089-.281.164 0 .34.011.528.035.562.14 1.008.457 1.336.949 1.289 1.945 2.25 3.433 2.882 4.465zm42.258-16.278c.235.329.352.692.352 1.09 0 .14-.012.293-.035.457-.141.54-.457.973-.95 1.301l-.738.457c-.328.188-.656.281-.984.281-.188 0-.363-.023-.528-.07-.539-.14-.96-.445-1.265-.914-.563-.844-1.242-1.746-2.039-2.707-.281-.352-.422-.738-.422-1.16 0-.094.012-.188.035-.281.07-.54.34-.95.809-1.23l.386-.247c.422-.258.879-.387 1.371-.387.118 0 .223.012.317.035.609.07 1.125.329 1.547.774.843.914 1.558 1.781 2.144 2.601zm-24.539-1.933c.258-.54.645-.926 1.16-1.16.305-.141.61-.211.914-.211.235 0 .469.035.704.105l1.089.352c.516.187.891.527 1.125 1.02.118.257.176.515.176.773s-.058.515-.176.773c-.656 1.406-1.371 2.766-2.144 4.078-.07.164-.106.328-.106.492v23.66c0 .587-.211 1.079-.632 1.477-.399.399-.879.598-1.442.598h-1.301c-.562 0-1.054-.2-1.476-.598-.399-.398-.598-.89-.598-1.476v-15.68c0-.047-.023-.082-.07-.105-.047-.024-.082-.012-.106.035-.539.632-1.031 1.195-1.476 1.687-.281.281-.61.422-.985.422-.093 0-.187-.012-.281-.035-.492-.094-.855-.363-1.09-.809-.304-.61-.609-1.195-.914-1.758-.234-.398-.351-.82-.351-1.265 0-.14.011-.27.035-.387.07-.586.316-1.101.738-1.547 2.906-2.93 5.309-6.41 7.207-10.441zm25.84 9.773c.024.117.035.235.035.352 0 .422-.14.82-.422 1.195-.351.469-.808.738-1.371.809l-7.91 1.125c-.187.023-.269.117-.246.281.469 3.633 1.102 6.504 1.898 8.613.821 2.086 1.805 3.223 2.954 3.41.187.024.351-.082.492-.316.14-.258.258-.633.351-1.125.117-.516.211-1.172.282-1.969.046-.422.269-.703.668-.843.14-.07.281-.106.421-.106.235 0 .457.07.668.211.282.21.586.422.914.633.54.351.938.808 1.196 1.37.187.4.281.798.281 1.196 0 .188-.012.375-.035.563-.516 2.601-1.207 4.394-2.074 5.379-.797.914-1.7 1.37-2.707 1.37h-.211c-2.977-.304-5.274-1.91-6.891-4.816-1.594-2.93-2.73-7.195-3.41-12.797-.024-.187-.117-.27-.281-.246l-3.903.563h-.316c-.445 0-.856-.14-1.231-.422-.445-.328-.714-.773-.808-1.336l-.141-.95c-.023-.116-.035-.234-.035-.35 0-.423.141-.821.422-1.196.351-.445.808-.715 1.371-.809l4.148-.562c.188-.024.27-.13.247-.317-.282-3.656-.422-6.41-.422-8.261 0-.54.187-1.008.562-1.407.399-.398.879-.597 1.442-.597h1.195c.562 0 1.043.199 1.441.597.422.399.645.891.668 1.477.047 2.766.153 5.262.317 7.488 0 .164.093.235.281.211l7.664-1.054h.316c.446 0 .856.14 1.231.421.469.352.738.809.808 1.371l.141.844zm17.613 15.89c0 .165.082.247.246.247h10.336c.164 0 .246-.082.246-.246v-5.485c0-.187-.082-.28-.246-.28h-10.336c-.164 0-.246.093-.246.28v5.485zm4.676-19.51c.047-.048.047-.095 0-.141-.023-.047-.058-.07-.105-.07h-7.489c-.164 0-.304.058-.421.175-.235.258-.551.574-.95.95-.117.14-.105.257.035.35 1.993 1.454 3.575 2.72 4.747 3.798.117.14.234.14.351 0 1.524-1.57 2.801-3.258 3.832-5.063zm9.527 9.034c.563 0 1.043.211 1.442.633.422.399.633.879.633 1.442v12.69c0 .587-.211 1.08-.633 1.477-.399.399-.879.598-1.442.598h-2.109c-.351 0-.656-.117-.914-.351-.234-.235-.352-.528-.352-.88 0-.117-.046-.175-.14-.175h-10.547c-.094 0-.141.059-.141.176 0 .328-.117.61-.351.843-.235.235-.528.352-.879.352h-1.969c-.562 0-1.055-.2-1.476-.598-.399-.398-.598-.89-.598-1.476v-7.278c0-.046-.024-.082-.07-.105-.047-.047-.094-.059-.141-.035-1.594.867-3.34 1.676-5.238 2.426-.258.093-.528.14-.809.14s-.562-.058-.844-.176c-.539-.21-.961-.574-1.265-1.09-.258-.445-.528-.855-.809-1.23-.187-.281-.281-.562-.281-.844 0-.164.023-.316.07-.457.141-.468.434-.785.879-.949 3.68-1.265 7.008-2.976 9.984-5.133.165-.093.176-.199.036-.316-.938-1.008-2.426-2.356-4.465-4.043-.141-.117-.281-.129-.422-.035-.539.398-1.09.797-1.652 1.195-.375.234-.75.352-1.125.352-.141 0-.293-.024-.457-.07-.563-.118-1.032-.4-1.407-.844-.281-.375-.586-.727-.914-1.055-.304-.305-.457-.668-.457-1.09v-.21c.071-.493.317-.868.738-1.126 3.868-2.32 6.903-5.18 9.106-8.578.351-.516.809-.902 1.371-1.16.375-.188.773-.281 1.195-.281.164 0 .34.023.528.07l1.793.351c.515.094.867.375 1.054.844.094.188.141.375.141.563 0 .258-.082.504-.246.738-.117.188-.258.398-.422.633-.023.047-.023.094 0 .14.023.047.07.07.141.07h6.679c.071 0 .141-.011.211-.034.188-.047.375-.07.563-.07.304 0 .609.07.914.21l1.09.598c.515.258.879.668 1.089 1.23.094.258.141.516.141.774 0 .281-.058.562-.176.844-1.617 3.773-3.843 7.148-6.679 10.125-.047.023-.059.058-.036.105.024.047.059.07.106.07h9.562zm17.192-16.312c.539 0 .996.199 1.371.597.375.375.562.833.562 1.372 0 .515-.187.972-.562 1.37-.375.376-.832.563-1.371.563h-6.996c-.539 0-.996-.187-1.371-.562-.375-.399-.563-.856-.563-1.371 0-.54.188-.997.563-1.372.375-.398.832-.597 1.371-.597h6.996zm-2.356 24.469c0-.188-.082-.282-.246-.282h-1.933c-.164 0-.246.094-.246.282v2.53c0 .165.082.247.246.247h1.933c.164 0 .246-.082.246-.246v-2.531zm2.356-4.325c.586 0 1.078.2 1.476.598.399.398.598.89.598 1.477v7.03c0 .563-.199 1.044-.598 1.442-.398.422-.89.633-1.476.633h-4.641c-.093 0-.14.047-.14.14 0 .329-.118.598-.352.81-.234.234-.504.35-.809.35h-1.125c-.585 0-1.078-.21-1.476-.632-.399-.398-.598-.879-.598-1.441v-8.332c0-.586.199-1.079.598-1.477.398-.398.891-.598 1.476-.598h7.067zm-7.102-1.195c-.539 0-.996-.188-1.371-.563-.375-.398-.562-.855-.562-1.37 0-.54.187-.997.562-1.372.375-.398.832-.597 1.371-.597h7.172c.539 0 .996.199 1.371.597.375.375.563.832.563 1.371 0 .516-.188.973-.563 1.372-.375.375-.832.562-1.371.562h-7.172zm7.172-8.86c.539 0 .996.188 1.371.563.375.375.563.832.563 1.371 0 .54-.188.996-.563 1.371-.375.375-.832.563-1.371.563h-7.172c-.539 0-.996-.188-1.371-.563-.375-.375-.562-.832-.562-1.37 0-.54.187-.997.562-1.372.375-.375.832-.562 1.371-.562h7.172zm-8.824-1.09c-.563 0-1.043-.198-1.441-.597-.375-.398-.563-.879-.563-1.441 0-.563.188-1.043.563-1.442.398-.398.878-.597 1.441-.597h9.738c.563 0 1.043.199 1.442.597.398.399.597.88.597 1.442 0 .562-.199 1.043-.597 1.441-.399.399-.879.598-1.442.598h-9.738zm19.512 9.036c0-.188-.094-.281-.282-.281h-1.406c-.164 0-.246.093-.246.281v2.848c0 .164.082.246.246.246h1.406c.188 0 .282-.082.282-.246v-2.848zm4.57 5.379c0 .586-.211 1.078-.633 1.476-.398.399-.879.598-1.441.598h-4.254c-.117 0-.176.059-.176.176 0 .375-.141.691-.422.95-.258.257-.574.386-.949.386h-1.055c-.586 0-1.078-.2-1.476-.598-.399-.398-.598-.89-.598-1.476v-9.457c0-.563.199-1.043.598-1.442.398-.422.89-.633 1.476-.633h6.856c.562 0 1.043.211 1.441.633.422.399.633.88.633 1.442v7.945zm-1.582-16.313c.586 0 1.078.2 1.477.598.398.398.597.89.597 1.477v.316c0 .563-.199 1.055-.597 1.477-.399.398-.891.597-1.477.597h-7.699c-.563 0-1.055-.199-1.477-.597-.398-.422-.597-.915-.597-1.477v-.316c0-.586.199-1.079.597-1.477.422-.398.914-.598 1.477-.598h7.699zm6.398-6.75c.563 0 1.043.211 1.442.633.422.399.633.88.633 1.442v24.714c0 1.383-.164 2.461-.493 3.235-.304.773-.843 1.37-1.617 1.793-1.054.586-2.719.914-4.992.984h-.07c-.539 0-1.031-.187-1.477-.562-.469-.375-.785-.856-.949-1.442-.117-.492-.258-.984-.422-1.476-.07-.164-.105-.317-.105-.457 0-.282.093-.54.281-.774.258-.375.609-.562 1.055-.562h2.812c.305 0 .516-.059.633-.176.141-.14.211-.363.211-.668V7.707c0-.164-.082-.246-.246-.246h-10.969c-.563 0-1.055-.2-1.477-.598-.398-.422-.597-.914-.597-1.476v-.703c0-.563.199-1.043.597-1.442.422-.422.914-.633 1.477-.633h14.273z"/>
</svg>
