<svg xmlns="http://www.w3.org/2000/svg" width="299" height="24" fill="none" viewBox="0 0 299 24">
    <path fill="#333" d="M11.783 9.645c0 .043.014.071.043.085.029.015.057.008.086-.021l.516-.451c.286-.23.616-.351.988-.365h.043c.344 0 .659.114.945.343 2.564 1.977 4.34 3.445 5.328 4.405.244.229.366.5.366.816 0 .372-.136.68-.409.924l-.859.773c-.243.215-.515.323-.816.323h-.108c-.343-.03-.63-.172-.86-.43-1.102-1.16-2.814-2.722-5.134-4.684-.029-.014-.057-.014-.086 0-.029.015-.043.036-.043.065v9.345c0 .358-.129.66-.386.903-.244.243-.538.365-.881.365h-.989c-.343 0-.644-.122-.902-.365-.243-.244-.365-.544-.365-.903v-8.507c0-.029-.015-.05-.043-.065-.029-.014-.05-.007-.065.022-1.618 1.661-3.366 3.043-5.242 4.146-.215.115-.43.172-.644.172-.115 0-.23-.014-.344-.043-.344-.086-.616-.272-.817-.559-.229-.315-.458-.623-.687-.923-.158-.187-.236-.387-.236-.602 0-.072.007-.15.021-.236.072-.301.244-.53.516-.688 1.604-.873 3.08-1.962 4.426-3.265 1.36-1.318 2.506-2.715 3.437-4.19.014-.028.007-.057-.021-.086-.015-.028-.036-.043-.065-.043H1.621c-.344 0-.644-.121-.902-.365-.244-.258-.365-.559-.365-.902v-.752c0-.344.121-.638.365-.881.258-.258.558-.387.902-.387h16.8c.345 0 .638.129.882.387.258.243.386.537.386.88v.753c0 .343-.128.644-.386.902-.244.244-.537.365-.881.365h-5.35c-.114 0-.2.043-.257.13-.316.558-.63 1.073-.946 1.546-.057.1-.086.2-.086.3v1.763zm20.346 1.912c0 .358-.122.659-.365.902-.244.244-.545.365-.903.365h-2.148c-.115 0-.18.058-.194.172 0 .1-.007.18-.021.236-.029.115-.007.208.064.28.803.816 1.834 1.962 3.094 3.437.244.287.366.616.366.988 0 .359-.108.68-.323.967l-.58.73c-.186.216-.415.323-.687.323h-.065c-.315-.014-.558-.15-.73-.408-.588-.888-1.24-1.805-1.955-2.75-.029-.029-.065-.036-.108-.022-.028 0-.05.015-.064.043-.688 1.762-1.655 3.223-2.9 4.383-.215.2-.459.3-.731.3h-.172c-.33-.042-.616-.2-.86-.472-.171-.2-.357-.394-.558-.58-.215-.229-.322-.501-.322-.816 0-.33.122-.609.365-.838 1.561-1.475 2.55-3.409 2.965-5.8.014-.115-.036-.173-.15-.173h-2.149c-.358 0-.659-.121-.902-.365-.244-.243-.366-.544-.366-.902v-.473c0-.358.122-.659.366-.902.243-.244.544-.366.902-.366h2.385c.114 0 .172-.057.172-.171V7.002c0-.1-.058-.15-.172-.15h-.086c-.1 0-.172.05-.215.15-.215.501-.437.967-.666 1.396-.157.287-.401.459-.73.516-.072.014-.144.022-.215.022-.244 0-.473-.08-.688-.237-.157-.129-.322-.25-.494-.365-.286-.2-.465-.473-.537-.816-.029-.1-.043-.2-.043-.301 0-.23.057-.451.172-.666.587-1.117 1.06-2.485 1.418-4.104.071-.33.25-.594.537-.795.215-.143.444-.214.687-.214.072 0 .158.007.258.021l.559.129c.344.057.616.236.816.537.13.2.194.415.194.645 0 .1-.008.2-.022.3-.057.23-.114.451-.172.666-.014.043-.014.08 0 .108.029.028.065.043.108.043h4.125c.343 0 .637.129.88.386.258.244.387.538.387.881v.43c0 .344-.129.645-.386.902-.244.244-.538.366-.881.366h-1.44c-.114 0-.172.05-.172.15v2.643c0 .114.058.171.172.171h1.912c.358 0 .66.122.903.366.243.243.365.544.365.902v.473zm3.61 5.22c0 .115.057.172.171.172h2.041c.115 0 .172-.057.172-.172V6.23c0-.1-.057-.15-.172-.15h-2.04c-.115 0-.173.05-.173.15v10.548zM32.644 4.36c0-.358.121-.658.365-.902.243-.243.544-.365.902-.365H40.1c.358 0 .658.122.902.365.243.244.365.544.365.902v15.47c0 .357-.122.658-.365.901-.244.244-.544.366-.902.366h-.946c-.286 0-.53-.1-.73-.301-.2-.2-.301-.444-.301-.73 0-.087-.043-.13-.129-.13H35.91c-.114 0-.172.05-.172.15v.108c0 .344-.121.638-.365.881-.243.258-.544.387-.902.387h-.559c-.358 0-.659-.129-.902-.387-.244-.243-.365-.537-.365-.88V4.358zm26.533 5.414c.114 0 .172-.057.172-.171v-.409c0-.114-.058-.172-.172-.172h-4.512c-.1 0-.15.058-.15.172v.409c0 .114.05.171.15.171h4.512zm0 2.815c.114 0 .172-.057.172-.172v-.408c0-.115-.058-.172-.172-.172h-4.512c-.1 0-.15.057-.15.172v.408c0 .115.05.172.15.172h4.512zm0 2.836c.114 0 .172-.05.172-.15v-.43c0-.115-.058-.172-.172-.172h-4.512c-.1 0-.15.057-.15.172v.43c0 .1.05.15.15.15h4.512zm-7.692-7.39c0-.359.122-.66.366-.903.257-.244.558-.365.902-.365h1.848c.114 0 .179-.058.193-.172.043-.143.079-.315.107-.516.015-.1-.028-.15-.129-.15h-3.609c-.358 0-.659-.122-.902-.365-.244-.258-.365-.56-.365-.903V4.64c0-.358.121-.66.365-.903.243-.243.544-.365.902-.365h1.246c.029 0 .05-.014.065-.043.028-.029.035-.064.021-.107-.014-.015-.021-.029-.021-.043-.1-.172-.15-.351-.15-.537 0-.115.014-.23.042-.344.1-.3.301-.509.602-.623l.129-.043c.2-.086.4-.13.601-.13.158.001.323.03.494.087.358.1.645.308.86.623.272.401.465.76.58 1.074.014.043 0 .072-.043.086h2.04c.101 0 .18-.05.237-.15.158-.301.294-.595.408-.881.158-.33.394-.58.71-.752.229-.129.465-.193.708-.193.1 0 .2.007.301.021l.73.15c.301.072.51.244.624.516.057.129.086.244.086.344 0 .172-.05.33-.15.472l-.216.344c-.028.029-.035.057-.021.086.029.029.057.043.086.043h1.654c.344 0 .638.122.881.365.258.244.387.545.387.903v.021c0 .344-.13.645-.387.902-.243.244-.537.366-.88.366h-4.32c-.1 0-.178.043-.236.129 0 .028-.035.114-.107.257-.072.13-.129.23-.172.301-.014.029-.014.065 0 .108.014.028.043.043.086.043h3.201c.358 0 .66.121.903.365.243.243.365.544.365.902v8.38c0 .357-.122.658-.365.901-.244.244-.545.366-.903.366h-8.486c-.344 0-.645-.122-.902-.366-.244-.243-.366-.544-.366-.902V8.033zm-2.535-4.018c.23.229.344.494.344.795 0 .028-.007.064-.022.107-.028.344-.179.63-.45.86l-.602.493c-.23.187-.48.28-.752.28-.043 0-.093-.007-.15-.022-.33-.028-.61-.179-.839-.45-.472-.53-1.038-1.082-1.697-1.655-.243-.215-.365-.48-.365-.795 0-.344.129-.616.387-.817l.408-.322c.286-.229.616-.35.988-.365h.043c.358 0 .673.115.946.344.687.544 1.274 1.06 1.761 1.547zm-.924 5.693c.344 0 .638.122.881.365.258.244.387.544.387.903v5.478c0 .115.029.215.086.3.759 1.147 2.22 1.763 4.383 1.849 1.074.057 2.177.085 3.308.085 2.02 0 4.118-.071 6.295-.214h.065c.258 0 .465.107.623.322.114.143.172.3.172.473 0 .085-.022.179-.065.279-.086.286-.172.566-.258.838-.1.372-.293.68-.58.924-.286.243-.608.365-.967.365-1.675.071-3.244.107-4.705.107-1.418 0-2.735-.028-3.953-.086-1.332-.057-2.449-.25-3.351-.58-.888-.33-1.676-.88-2.364-1.654-.071-.086-.143-.093-.215-.022-.687.602-1.324 1.146-1.912 1.633-.186.143-.386.215-.601.215-.086 0-.165-.007-.236-.021-.316-.072-.545-.258-.688-.559l-.473-1.031c-.086-.187-.129-.38-.129-.58 0-.13.022-.272.065-.43.114-.33.322-.587.623-.773.587-.358 1.124-.71 1.611-1.053.086-.072.13-.158.13-.258v-3.781c0-.1-.05-.15-.151-.15h-.838c-.344 0-.645-.122-.902-.366-.244-.258-.366-.559-.366-.902v-.408c0-.359.122-.66.366-.903.257-.243.558-.365.902-.365h2.857zm20.926 10.742c-.229.287-.53.444-.902.473h-.15c-.316 0-.61-.086-.882-.258l-.558-.387c-.258-.172-.401-.422-.43-.752v-.107c0-.272.093-.516.28-.73.658-.803 1.188-1.748 1.59-2.837.114-.329.322-.58.622-.751.187-.1.373-.15.559-.15.129 0 .258.02.387.064l.472.15c.33.115.58.33.752.644.1.187.15.38.15.58 0 .13-.02.258-.064.387-.472 1.519-1.081 2.743-1.826 3.674zm6.746-1.525h2.32c.258 0 .444-.043.56-.13.128-.085.221-.25.278-.493.072-.272.237-.48.495-.623.143-.072.286-.108.43-.108.114 0 .236.022.365.065.143.057.3.114.472.172.344.128.616.336.817.623.143.215.214.437.214.666 0 .1-.014.2-.043.3-.214.889-.573 1.497-1.074 1.827-.487.343-1.224.515-2.213.515h-3.05c-1.046 0-1.841-.114-2.385-.343-.544-.23-.924-.588-1.139-1.075-.2-.487-.3-1.188-.3-2.105v-1.912c0-.358.121-.66.365-.903.257-.243.558-.365.902-.365h1.74c.014 0 .022-.007.022-.021.014-.015.014-.029 0-.043-.158-.115-.244-.265-.258-.452-.014-.2.057-.365.215-.494l.257-.214c.015-.015.015-.03 0-.043 0-.03-.007-.043-.021-.043-.287 0-.537-.1-.752-.301-.2-.2-.3-.444-.3-.73v-6.36c0-.1-.05-.15-.151-.15h-1.31c-.101 0-.18.043-.237.128-.816 1.318-1.705 2.464-2.664 3.438-.244.243-.537.365-.881.365h-.021c-.359 0-.674-.122-.946-.365-.272-.244-.544-.48-.816-.709-.244-.2-.365-.458-.365-.773 0-.316.121-.58.365-.795 1.518-1.361 2.714-3.08 3.588-5.157.129-.33.35-.58.666-.752.215-.114.43-.171.644-.171.115 0 .23.014.344.042l.945.237c.33.086.573.28.73.58.087.157.13.322.13.494 0 .143-.029.28-.086.408-.029.058-.05.108-.065.15-.014.03-.014.065 0 .108.029.029.065.043.108.043h10.742c.358 0 .659.129.902.387.244.243.365.537.365.88v.194c0 .344-.121.644-.365.902-.243.244-.544.366-.902.366H77.01c-.1 0-.15.05-.15.15v.387c0 .114.05.172.15.172h6.058c.33 0 .616.121.86.365.243.229.365.515.365.86 0 .343-.122.637-.365.88-.244.23-.53.344-.86.344H77.01c-.1 0-.15.057-.15.172v.515c0 .1.05.15.15.15h6.638c.344 0 .638.13.881.387.258.244.387.537.387.881v.065c0 .358-.129.659-.387.902-.243.243-.537.365-.88.365h-6.64c-.1 0-.15.057-.15.172v.15c0 .115.043.201.13.258.644.444 1.21.881 1.697 1.31.229.216.343.48.343.796 0 .372-.143.68-.43.924l-.43.343c-.228.2-.486.301-.772.301-.044 0-.087-.007-.13-.021-.343-.029-.637-.165-.88-.409-.487-.472-1.039-.945-1.655-1.418-.014-.014-.043-.014-.085 0-.03.015-.044.036-.044.065v2.922c0 .33.065.537.194.623.129.086.43.129.902.129zm5.393-2.278c-.143-.186-.215-.393-.215-.623 0-.071.014-.15.043-.236.072-.315.25-.544.537-.687l.43-.194c.229-.114.465-.172.709-.172.114 0 .236.015.365.043.372.072.673.258.902.559.931 1.131 1.662 2.22 2.192 3.266.086.171.129.35.129.537 0 .143-.036.293-.108.45-.129.33-.358.574-.687.731l-.666.301c-.158.072-.323.107-.495.107-.143 0-.286-.028-.43-.085-.314-.13-.543-.351-.687-.666-.487-1.075-1.16-2.185-2.02-3.33zm23.074-9.689h1.289c.172 0 .294-.029.365-.086.072-.072.129-.208.172-.408.029-.1-.014-.15-.129-.15h-2.105c-.115 0-.172.057-.172.171.014.2.057.33.129.387.071.057.222.086.451.086zm.322-2.621c.101 0 .151-.057.151-.172v-.28c0-.114-.05-.171-.151-.171h-2.922c-.257 0-.487-.093-.687-.28-.186-.186-.279-.415-.279-.687 0-.272.093-.501.279-.687.2-.201.43-.301.687-.301h4.512c.358 0 .659.129.902.386.244.244.366.538.366.881V5.24c0 .301-.108.559-.323.774-.2.2-.451.3-.752.3-.014 0-.021.015-.021.043v.022c.201.114.444.222.73.322.359.13.631.344.817.645.1.157.15.308.15.45 0 .144-.05.287-.15.43-.344.53-1.017.795-2.02.795h-2.041c-1.074 0-1.804-.179-2.191-.537-.372-.372-.559-1.067-.559-2.084v-.795c0-.358.122-.658.366-.902.257-.243.558-.365.902-.365h2.234zm-7.562 2.621h1.289c.172 0 .293-.029.365-.086.086-.072.143-.208.172-.408.029-.1-.014-.15-.129-.15h-2.105c-.115 0-.172.057-.172.171.014.2.057.33.129.387.071.057.222.086.45.086zm.28-2.621c.1 0 .15-.057.15-.172v-.28c0-.114-.05-.171-.15-.171h-2.75c-.273 0-.51-.093-.71-.28-.186-.186-.28-.415-.28-.687 0-.272.094-.501.28-.687.2-.201.437-.301.71-.301h4.296c.358 0 .659.129.902.386.244.244.366.538.366.881v2.3c0 .271-.1.508-.301.708-.186.186-.416.28-.688.28-.014 0-.028.014-.043.042 0 .015.007.022.022.022.2.114.444.222.73.322.373.13.645.344.817.645.1.157.15.308.15.45 0 .144-.05.287-.15.43-.344.53-1.01.795-1.998.795h-2.063c-1.074 0-1.805-.179-2.191-.537-.373-.372-.559-1.067-.559-2.084v-.795c0-.358.122-.658.365-.902.258-.243.559-.365.903-.365h2.191zM92.22 4.23c.143.215.215.444.215.688 0 .086-.008.172-.022.258-.086.344-.28.616-.58.816l-.602.408c-.2.115-.408.172-.623.172-.1 0-.2-.014-.3-.043-.316-.071-.566-.258-.752-.558-.358-.545-.795-1.125-1.31-1.74-.173-.201-.259-.43-.259-.688 0-.057.007-.115.022-.172.043-.33.2-.587.472-.773l.387-.237c.258-.157.537-.236.838-.236h.193c.373.043.68.2.924.473.559.587 1.024 1.131 1.397 1.632zm6.423 11.495c-.014 0-.021.007-.021.021 0 .014.007.029.021.043l.43.15c.258.086.416.265.473.538v.15c0 .2-.093.365-.28.494-.873.602-1.869 1.139-2.986 1.611-.014 0-.021.015-.021.043 0 .015.007.022.021.022l.688.064c1.045.043 2.22.065 3.523.065 1.275 0 2.671-.022 4.19-.065.028 0 .043-.014.043-.043.014-.028.007-.05-.022-.064-.687-.516-1.468-1.024-2.342-1.526-.243-.128-.365-.336-.365-.623 0-.257.115-.45.344-.58l.387-.214c.014-.015.014-.03 0-.043 0-.03-.008-.043-.022-.043h-4.06zm1.14-3.416c-.101 0-.151.05-.151.15v.795c0 .114.05.172.15.172h1.633c.115 0 .172-.058.172-.172v-.795c0-.1-.057-.15-.172-.15h-1.633zm7.411 4.834c.215.128.308.322.28.58-.029.243-.165.408-.409.494l-1.632.558c-.015.015-.022.029-.022.043h.022c.73-.014 1.403-.043 2.019-.086h.065c.257 0 .465.108.623.323.114.143.171.3.171.472 0 .1-.021.2-.064.301l-.172.559c-.114.358-.315.651-.601.88-.287.244-.609.373-.967.387-1.876.072-3.624.108-5.242.108-1.547 0-2.98-.029-4.297-.086-1.29-.057-2.363-.258-3.223-.602-.845-.344-1.583-.902-2.213-1.676-.057-.085-.121-.085-.193 0-.459.487-.988 1.017-1.59 1.59-.186.172-.394.258-.623.258h-.193c-.301-.057-.523-.23-.666-.515l-.366-.774c-.1-.215-.15-.43-.15-.645 0-.114.021-.243.064-.386.086-.344.28-.623.58-.838.445-.33.853-.645 1.225-.945.086-.072.129-.165.129-.28v-4.06c0-.1-.057-.15-.172-.15h-.601c-.359 0-.66-.122-.903-.366-.243-.258-.365-.559-.365-.902v-.408c0-.359.122-.66.365-.903.244-.243.544-.365.903-.365h2.47c.358 0 .66.122.903.365.243.244.365.544.365.903v5.628c0 .115.028.215.086.301.515.86 1.325 1.433 2.427 1.719.015 0 .03-.007.044-.021.014-.015.014-.03 0-.043-.258-.244-.552-.495-.881-.752-.158-.13-.237-.287-.237-.473v-.15c.058-.244.208-.409.452-.495.859-.272 1.582-.565 2.17-.88.028-.015.035-.03.02-.043 0-.03-.013-.043-.042-.043h-2.32c-.33 0-.61-.108-.838-.323-.215-.229-.323-.501-.323-.816 0-.33.108-.602.323-.816.229-.23.508-.344.838-.344h2.04c.115 0 .172-.058.172-.172v-.795c0-.1-.057-.15-.171-.15h-1.461c-.315 0-.58-.108-.795-.323-.215-.229-.322-.501-.322-.816 0-.315.107-.58.322-.795.215-.23.48-.344.795-.344h1.525c.072 0 .108-.036.108-.107 0-.23.078-.423.236-.58.157-.172.358-.258.601-.258h1.31c.23 0 .423.086.581.258.172.157.258.35.258.58 0 .071.036.107.107.107h1.74c.072 0 .108-.036.108-.107 0-.23.079-.423.236-.58.172-.172.373-.258.602-.258h1.353c.229 0 .423.086.58.258.172.157.258.35.258.58 0 .071.036.107.108.107h1.611c.301 0 .559.115.773.344.23.215.344.48.344.795 0 .315-.114.587-.344.816-.214.215-.472.323-.773.323h-1.547c-.115 0-.172.05-.172.15v.795c0 .114.057.172.172.172h2.191c.33 0 .602.114.817.344.229.214.344.487.344.816 0 .315-.115.587-.344.816-.215.215-.487.323-.817.323h-2.384c-.029 0-.05.014-.065.043 0 .014.015.028.043.042 1.031.502 1.905.946 2.621 1.333zm8.551 2.02c0-.044-.014-.08-.043-.108-.014-.029-.043-.043-.086-.043-.644 0-1.196-.2-1.654-.602-.458-.4-.688-.938-.688-1.611 0-.645.23-1.167.688-1.569.473-.415 1.053-.623 1.74-.623.859 0 1.518.294 1.977.881.458.588.687 1.397.687 2.428 0 1.117-.315 2.127-.945 3.03-.616.916-1.497 1.618-2.643 2.105-.143.057-.279.086-.408.086-.157 0-.308-.036-.451-.108-.301-.129-.509-.35-.623-.666-.043-.114-.065-.236-.065-.365 0-.158.036-.308.108-.451.129-.272.336-.48.623-.623.974-.459 1.568-1.046 1.783-1.762zM151.324 4.23c.172.215.258.452.258.71 0 .071-.007.143-.021.214-.072.344-.258.623-.559.838l-.473.322c-.215.144-.437.215-.666.215-.086 0-.172-.014-.258-.043-.329-.071-.594-.243-.794-.515-.387-.53-.853-1.082-1.397-1.655-.2-.2-.301-.444-.301-.73 0-.372.151-.659.451-.86l.301-.214c.272-.186.573-.28.903-.28h.107c.387.03.709.172.967.43.573.559 1.067 1.081 1.482 1.568zm-3.265 7.756c.2-.315.472-.523.816-.623.143-.057.294-.086.451-.086.186 0 .373.036.559.108l.472.215c.316.129.523.358.623.687.043.115.065.23.065.344 0 .186-.057.372-.172.559-.788 1.217-1.726 2.384-2.814 3.501-.086.086-.108.18-.065.28.473 1.303.931 1.955 1.375 1.955.315 0 .53-.752.645-2.256.028-.244.157-.408.386-.494.23-.1.437-.079.623.064.187.144.373.28.559.408.329.215.58.487.752.817.129.243.193.494.193.752 0 .1-.007.193-.021.28-.258 1.431-.645 2.398-1.16 2.9-.516.515-1.282.773-2.299.773-1.404 0-2.6-.988-3.588-2.965-.043-.1-.107-.122-.193-.064-.788.601-1.626 1.16-2.514 1.675-.215.13-.43.194-.645.194-.114 0-.229-.015-.343-.043-.33-.086-.609-.272-.838-.559-.172-.215-.351-.43-.537-.644-.158-.186-.237-.394-.237-.623 0-.058.008-.115.022-.172.057-.301.215-.523.472-.666 1.261-.645 2.443-1.39 3.545-2.235.086-.057.115-.143.086-.258-.429-1.59-.766-3.365-1.009-5.328-.015-.114-.072-.171-.172-.171h-3.825c-.1 0-.15.057-.15.171v1.633c0 .115.05.158.15.13l1.762-.28h.194c.257 0 .494.079.709.236.272.215.422.494.451.838l.021.365v.13c0 .314-.093.6-.279.859-.229.286-.516.458-.859.515-1.075.215-1.741.344-1.999.387-.1.029-.15.093-.15.193v2.965c0 .845-.1 1.49-.301 1.934-.186.458-.522.816-1.009 1.074-.645.33-1.605.523-2.879.58h-.065c-.329 0-.63-.107-.902-.322-.287-.23-.487-.523-.602-.881-.086-.272-.186-.552-.301-.838-.042-.115-.064-.222-.064-.322 0-.158.05-.308.15-.451.144-.23.359-.344.645-.344h1.568c.201 0 .337-.029.409-.086.071-.072.107-.2.107-.387v-2.299c0-.1-.05-.143-.15-.129l-2.192.409c-.086.014-.165.021-.236.021-.258 0-.501-.072-.731-.215-.286-.2-.472-.472-.558-.816l-.172-.774c-.029-.085-.043-.179-.043-.279 0-.215.072-.422.215-.623.2-.286.465-.451.795-.494 1.074-.143 2.048-.287 2.922-.43.1-.014.15-.071.15-.172v-2.127c0-.114-.05-.171-.15-.171h-2.45c-.343 0-.644-.122-.902-.366-.243-.243-.365-.544-.365-.902V8.57c0-.343.122-.637.365-.88.258-.258.559-.387.902-.387h2.45c.1 0 .15-.05.15-.15V5.52c0-.115-.05-.165-.15-.15l-1.784.235h-.172c-.286 0-.558-.085-.816-.257-.286-.215-.487-.502-.601-.86-.029-.086-.065-.179-.108-.279-.043-.115-.064-.236-.064-.365 0-.172.05-.337.15-.494.158-.273.387-.43.688-.473 2.363-.344 4.475-.766 6.337-1.268.172-.043.344-.064.516-.064.201 0 .394.029.58.086.373.114.673.322.902.623l.581.73c.128.158.193.33.193.516 0 .086-.014.179-.043.28-.1.286-.294.465-.58.536-.63.144-1.375.301-2.235.473-.1.014-.15.079-.15.193v2.17c0 .1.05.15.15.15h3.545c.101 0 .144-.05.129-.15-.143-1.919-.215-3.437-.215-4.554 0-.33.122-.616.366-.86.243-.243.544-.365.902-.365h.795c.358 0 .659.122.902.365.244.244.366.545.366.903 0 1.475.057 2.979.171 4.511.015.1.072.15.172.15h4.362c.343 0 .637.13.88.387.258.244.387.538.387.881v.473c0 .358-.129.659-.387.902-.243.244-.537.365-.88.365h-4.061c-.1 0-.143.058-.129.172.172 1.146.322 2.034.451 2.665 0 .043.015.071.043.085.043 0 .072-.014.086-.042.33-.402.63-.803.903-1.204zm15.855-7.132c0-.115-.057-.172-.172-.172h-.773c-.101 0-.151.057-.151.172v.515c0 .1.05.15.151.15h.773c.115 0 .172-.05.172-.15v-.515zm-1.096 3.587c0 .115.05.172.151.172h.773c.115 0 .172-.057.172-.172v-.537c0-.1-.057-.15-.172-.15h-.773c-.101 0-.151.05-.151.15v.537zm2.192-6.123c.358 0 .659.122.902.366.244.243.365.544.365.902v6.123c0 .358-.121.659-.365.902-.243.244-.544.366-.902.366h-2.041c-.101 0-.151.057-.151.171v9.604c0 .358-.129.659-.386.902-.244.244-.537.366-.881.366h-.43c-.344 0-.644-.122-.902-.366-.244-.243-.365-.544-.365-.902V3.457c0-.014-.008-.021-.022-.021-.014 0-.021.007-.021.021-.416 1.117-.788 2.027-1.118 2.729-.043.1-.064.207-.064.322v14.287c0 .358-.122.659-.365.902-.244.244-.545.366-.903.366h-.494c-.358 0-.659-.122-.902-.366-.244-.243-.365-.544-.365-.902v-8.852c0-.028-.015-.043-.043-.043-.029-.014-.05-.014-.065 0-.014.029-.028.05-.043.065-.129.186-.301.28-.515.28-.043 0-.086-.008-.129-.022-.272-.043-.459-.194-.559-.452-.172-.415-.344-.816-.516-1.203-.128-.272-.193-.558-.193-.859 0-.072.007-.15.022-.236.043-.373.171-.716.386-1.032 1.218-1.718 2.22-3.73 3.008-6.037.115-.33.322-.58.623-.752.201-.1.401-.15.602-.15.129 0 .25.014.365.043l1.525.451c.144.043.187.136.129.28 0 .028.007.042.022.042h4.791zm4.554 6.123c0 .115.058.172.172.172h.924c.1 0 .151-.057.151-.172v-.537c0-.1-.051-.15-.151-.15h-.924c-.114 0-.172.05-.172.15v.537zm1.247-3.587c0-.115-.051-.172-.151-.172h-.924c-.114 0-.172.057-.172.172v.515c0 .1.058.15.172.15h.924c.1 0 .151-.05.151-.15v-.515zm1.783-2.536c.344 0 .637.122.881.366.257.243.386.544.386.902v14.932c0 .83-.1 1.468-.3 1.912-.187.444-.523.787-1.01 1.03-.659.33-1.74.517-3.244.56h-.022c-.344 0-.652-.115-.924-.344-.286-.23-.487-.523-.601-.881-.072-.23-.143-.451-.215-.666-.043-.1-.065-.2-.065-.3 0-.158.051-.309.151-.452.157-.23.372-.344.644-.344h.022c.473.014.881.022 1.224.022.287 0 .53-.008.731-.022.215 0 .358-.036.43-.107.086-.086.129-.236.129-.451v-7.327c0-.114-.051-.171-.151-.171h-2.32c-.344 0-.645-.122-.902-.366-.244-.243-.366-.544-.366-.902V3.586c0-.358.122-.659.366-.902.257-.244.558-.366.902-.366h4.254zm8.142 6.424c-.358 0-.659-.122-.902-.365-.244-.258-.365-.559-.365-.902v-.838c0-.043-.015-.072-.043-.086-.029-.015-.058-.015-.086 0-.244.172-.494.336-.752.494-.244.143-.494.215-.752.215-.086 0-.172-.007-.258-.022-.372-.071-.68-.243-.924-.515-.172-.172-.329-.337-.472-.494-.172-.172-.258-.373-.258-.602v-.15c.043-.287.2-.502.472-.645 1.648-.83 3.03-1.805 4.147-2.922.272-.272.587-.451.945-.537.144-.043.294-.064.451-.064.215 0 .423.035.623.107l.516.193c.301.115.487.323.559.623.028.086.043.172.043.258 0 .2-.079.387-.237.559-.243.258-.508.53-.795.816-.086.086-.128.18-.128.28v3.33c0 .343-.122.644-.366.902-.243.243-.544.365-.902.365h-.516zm1.16 7.047c-.114 0-.171.057-.171.172v.322c0 .1.057.15.171.15h8.379c.115 0 .172-.05.172-.15v-.322c0-.115-.057-.172-.172-.172h-8.379zm0-2.342c-.114 0-.171.05-.171.15v.301c0 .115.057.172.171.172h8.379c.115 0 .172-.057.172-.172v-.3c0-.1-.057-.15-.172-.15h-8.379zm0-2.363c-.114 0-.171.057-.171.172v.28c0 .114.057.171.171.171h8.379c.115 0 .172-.057.172-.172v-.28c0-.114-.057-.171-.172-.171h-8.379zm11.989-5.607c0-.03-.015-.058-.043-.086-.029-.043-.065-.065-.108-.065l-3.33.215c-.028 0-.05.014-.064.043 0 .029.007.05.021.064.831.688 1.733 1.032 2.707 1.032.258 0 .444-.08.559-.237.115-.172.2-.494.258-.966zm-.215 11.515c0 .358-.122.659-.365.902-.244.244-.545.366-.903.366h-1.826c-.014 0-.021.007-.021.021 0 .015.007.029.021.043 1.876.76 3.359 1.39 4.447 1.89.215.101.316.266.301.495-.014.244-.129.408-.344.494l-1.418.516c-.3.114-.601.172-.902.172-.458 0-.917-.13-1.375-.387-.974-.544-2.048-1.074-3.223-1.59-.243-.1-.365-.294-.365-.58 0-.23.108-.401.323-.516l.837-.472c.015-.015.015-.029 0-.043 0-.029-.007-.043-.021-.043h-5.565c-.014 0-.021.014-.021.043 0 .014.007.021.021.021l.688.322c.272.115.408.323.408.623 0 .244-.107.43-.322.56-1.346.73-2.908 1.388-4.684 1.976-.2.057-.401.086-.601.086-.172 0-.344-.022-.516-.065-.372-.1-.695-.293-.967-.58l-.558-.558c-.086-.086-.143-.187-.172-.301-.014-.058-.022-.115-.022-.172 0-.057.008-.108.022-.15.029-.115.079-.215.15-.301.086-.086.194-.136.323-.15 1.618-.359 3.015-.788 4.189-1.29.014 0 .021-.007.021-.021 0-.029-.014-.043-.042-.043h-1.268c-.344 0-.645-.122-.902-.366-.244-.243-.366-.544-.366-.902v-6.488c0-.344.122-.637.366-.881.257-.258.558-.387.902-.387H191.027c0-.014-.007-.028-.021-.043-1.805-.487-3.251-1.575-4.34-3.265-.057-.086-.143-.13-.258-.13l-1.998.108c-.014.015-.036.022-.064.022-.301 0-.566-.1-.795-.301-.244-.215-.387-.487-.43-.816v-.13c0-.257.086-.494.258-.708.215-.244.48-.373.795-.387l1.224-.086c.101 0 .137-.05.108-.15-.086-.287-.158-.588-.215-.903-.014-.086-.021-.164-.021-.236 0-.23.085-.444.257-.645.215-.257.494-.386.838-.386h.408c.359 0 .674.121.946.365.286.23.48.523.58.88.086.259.179.51.279.753.043.1.115.143.215.129l2.084-.108c.014 0 .021-.007.021-.021 0-.015-.007-.029-.021-.043-.287-.1-.544-.186-.773-.258-.23-.072-.38-.215-.452-.43-.057-.229-.007-.43.151-.601.229-.244.494-.416.795-.516.172-.057.343-.086.515-.086.129 0 .265.022.408.065.688.171 1.34.38 1.956.623.2.071.322.222.365.45.043.216-.007.409-.151.58-.014 0-.014.015 0 .044.015.014.029.021.043.021l.838-.043h.065c.286 0 .544.093.773.28.244.215.38.48.408.795.015.043.022.086.022.128 0 .258-.086.487-.258.688-.2.243-.458.372-.773.387l-.709.043c-.029.014-.051.035-.065.064 0 .014.014.029.043.043.258.186.58.365.967.537.344.158.609.394.795.71.114.185.172.386.172.6 0 .115-.022.237-.065.366-.186.587-.444 1.017-.773 1.29-.33.257-.774.429-1.332.515-.115.014-.172.071-.172.172v7.39zm7.756-14.523c.143-.33.372-.573.687-.73.186-.101.38-.151.58-.151.129 0 .265.021.409.064l.58.194c.329.1.573.308.73.623.072.157.108.322.108.494 0 .143-.029.286-.086.43-.444 1.06-.931 2.098-1.461 3.115-.058.086-.086.186-.086.3v13.987c0 .358-.122.659-.366.902-.243.244-.544.366-.902.366h-.494c-.344 0-.645-.122-.902-.366-.244-.243-.366-.544-.366-.902v-9.26c0-.028-.014-.043-.043-.043-.014-.014-.035-.014-.064 0-.043.057-.086.122-.129.193-.157.172-.351.258-.58.258h-.129c-.286-.057-.494-.214-.623-.472-.186-.387-.372-.76-.559-1.117-.128-.258-.193-.538-.193-.838V9.3c.043-.373.186-.702.43-.989 1.389-1.661 2.542-3.609 3.459-5.843zm4.297 10.054c.086-.343.279-.608.58-.794.2-.144.422-.215.666-.215.086 0 .179.007.279.021l.602.13c.343.07.608.257.795.558.128.2.193.408.193.623 0 .1-.014.207-.043.322-.501 1.89-1.146 3.56-1.934 5.006-.157.286-.401.465-.73.537-.086.014-.172.021-.258.021-.243 0-.473-.071-.687-.214-.187-.115-.38-.237-.581-.366-.272-.172-.451-.422-.537-.752-.014-.1-.021-.2-.021-.3 0-.215.057-.423.172-.623.616-1.089 1.117-2.407 1.504-3.954zm9.367-4.447c.014-.1-.036-.15-.151-.15h-1.955c-.114 0-.172.05-.172.15v10.527c0 .774-.078 1.383-.236 1.827-.157.444-.451.795-.881 1.052-.558.316-1.289.509-2.191.58h-.108c-.315 0-.601-.1-.859-.3-.286-.23-.48-.523-.58-.881-.086-.272-.179-.544-.279-.817-.043-.114-.065-.222-.065-.322 0-.157.05-.308.151-.451.157-.244.379-.365.666-.365h.816c.158 0 .265-.022.322-.065.058-.057.086-.157.086-.3V8.076c0-.1-.057-.15-.172-.15h-1.783c-.1 0-.179.043-.236.129-.387.716-.788 1.382-1.203 1.998-.201.272-.473.422-.817.45-.028.015-.064.022-.107.022-.301 0-.559-.1-.774-.3-.214-.172-.422-.344-.623-.516-.272-.2-.422-.473-.451-.816-.014-.058-.021-.108-.021-.15 0-.273.086-.524.258-.753 1.102-1.49 1.998-3.33 2.685-5.521.1-.33.301-.587.602-.774.215-.129.437-.193.666-.193.1 0 .2.014.301.043l.687.15c.329.086.58.272.752.559.115.186.172.38.172.58 0 .115-.022.236-.065.365-.186.573-.379 1.117-.58 1.633-.014.029-.014.064 0 .107.029.03.058.043.086.043h6.66c.029 0 .065-.007.108-.021.143-.029.286-.043.43-.043.143 0 .286.014.429.043l.709.129c.315.057.566.215.752.473.158.2.236.422.236.666 0 .071-.007.136-.021.193-.143 1.002-.322 2.012-.537 3.03-.057.343-.236.615-.537.816-.215.157-.451.236-.709.236-.086 0-.172-.007-.258-.022l-.215-.042c-.358-.072-.637-.251-.838-.538-.172-.229-.258-.487-.258-.773v-.172c.043-.3.079-.594.108-.88zm-1.461 5.092c-.057-.158-.086-.308-.086-.451 0-.172.036-.337.107-.494.144-.315.38-.53.709-.645l.452-.15c.157-.058.307-.086.451-.086.186 0 .372.043.558.129.33.143.566.38.709.709.631 1.547 1.117 3.108 1.461 4.683.029.1.043.2.043.301 0 .244-.064.48-.193.709-.186.315-.458.53-.817.645l-.687.257c-.115.029-.229.043-.344.043-.172 0-.344-.05-.515-.15-.273-.172-.437-.415-.495-.73-.286-1.547-.737-3.137-1.353-4.77zm12.59-2.514c.086-.014.179-.021.279-.021.215 0 .423.064.623.193.287.2.451.466.494.795l.043.43c.015.071.022.136.022.193 0 .287-.086.552-.258.795-.201.3-.48.494-.838.58-.415.115-.759.208-1.031.28-.101.014-.151.078-.151.193v4.576c0 .745-.078 1.318-.236 1.719-.158.415-.437.73-.838.945-.53.315-1.296.501-2.299.559h-.086c-.315 0-.601-.108-.859-.323-.286-.229-.48-.53-.58-.902-.043-.143-.093-.294-.15-.451-.029-.1-.043-.2-.043-.3 0-.173.057-.337.171-.495.158-.244.387-.365.688-.365h.687c.158 0 .265-.029.323-.086.071-.072.107-.18.107-.323v-3.802c0-.115-.057-.158-.172-.13l-.601.151c-.115.029-.222.043-.323.043-.229 0-.444-.064-.644-.193-.301-.186-.494-.444-.58-.774l-.172-.623c-.029-.1-.043-.2-.043-.3 0-.215.064-.423.193-.623.187-.287.444-.466.774-.538.515-.085.981-.179 1.396-.279.115-.014.172-.079.172-.193v-3.03c0-.114-.057-.171-.172-.171h-1.074c-.358 0-.659-.122-.902-.366-.244-.243-.366-.544-.366-.902v-.408c0-.358.122-.659.366-.903.243-.243.544-.365.902-.365h1.074c.115 0 .172-.057.172-.172v-2.62c0-.344.122-.638.365-.882.244-.257.545-.386.903-.386h.58c.344 0 .637.129.881.386.257.244.386.538.386.881v2.621c0 .115.05.172.151.172h.773c.358 0 .659.122.903.365.243.244.365.545.365.903v.408c0 .358-.122.659-.365.902-.244.244-.545.366-.903.366h-.773c-.101 0-.151.057-.151.171v2.342c0 .1.05.136.151.108.172-.029.394-.08.666-.15zm10.054-.45c.158-.302.394-.502.709-.602.115-.03.23-.043.344-.043.201 0 .394.057.58.171l.451.28c.316.186.523.45.623.795.029.129.043.258.043.386 0 .215-.05.423-.15.623-.874 1.648-1.984 3.216-3.33 4.706-.072.071-.079.157-.022.257.459.73.974 1.146 1.547 1.246h.043c.158 0 .294-.15.409-.45.114-.33.207-.853.279-1.57.014-.243.143-.415.387-.515.085-.028.171-.043.257-.043.129 0 .258.043.387.13.186.142.394.286.623.429.315.2.559.473.731.816.114.244.171.487.171.73 0 .101-.014.209-.043.323-.315 1.547-.744 2.614-1.289 3.201-.472.544-1.002.817-1.589.817-.058 0-.122-.007-.194-.022-1.804-.215-3.215-1.117-4.232-2.707-.057-.086-.129-.093-.215-.021-.816.63-1.626 1.181-2.428 1.654-.229.114-.465.172-.709.172-.1 0-.2-.007-.301-.022-.358-.071-.666-.243-.923-.515-.244-.244-.494-.487-.752-.73-.187-.158-.28-.345-.28-.56 0-.042.008-.085.022-.128.029-.272.172-.473.43-.602 1.274-.601 2.485-1.39 3.63-2.363.086-.057.115-.143.086-.258-.472-1.59-.823-3.58-1.052-5.973 0-.1-.058-.15-.172-.15l-.946.107h-.15c-.286 0-.551-.093-.795-.279-.272-.215-.422-.501-.451-.86l-.043-.536c-.014-.043-.021-.086-.021-.13 0-.286.1-.55.3-.794.215-.258.494-.408.838-.451l1.031-.086c.101-.015.151-.072.151-.172-.115-1.82-.172-3.123-.172-3.91 0-.33.115-.616.344-.86.243-.243.537-.365.881-.365h.751c.344 0 .638.122.881.365.258.244.387.545.387.903.014 1.231.05 2.42.108 3.566.014.1.071.143.171.129l2.686-.236c.029 0 .05-.015.064-.043.015-.029.015-.058 0-.086-.372-.502-.959-1.225-1.761-2.17-.187-.215-.28-.451-.28-.71 0-.056.008-.114.022-.171.043-.33.208-.587.494-.773l.301-.194c.258-.157.53-.236.816-.236.057 0 .122.007.194.021.372.043.68.194.923.451.559.588.974 1.032 1.246 1.333.201.214.301.458.301.73 0 .043-.007.093-.021.15-.043.344-.208.61-.494.795l-1.118.774c-.028 0-.043.014-.043.043.015.014.036.021.065.021l1.719-.15c.043-.015.086-.022.129-.022.3 0 .572.1.816.301.258.23.408.516.451.86l.043.45v.151c0 .286-.093.544-.279.773-.215.273-.494.43-.838.473l-5.199.516c-.101 0-.144.057-.129.172.114 1.274.286 2.456.515 3.544.015.03.036.05.065.065.029.014.05.007.064-.021.716-.903 1.354-1.87 1.912-2.9zm25.782-4.362c0 .344-.129.644-.387.902-.244.244-.537.365-.881.365h-9.045c-.1 0-.15.05-.15.15-.043.645-.115 1.361-.215 2.15-.014.1.036.15.15.15h6.918c.358 0 .659.129.903.386.2.2.3.444.3.73v.151c-.014.029-.021.057-.021.086-.186 2.922-.408 5.092-.666 6.51-.258 1.404-.616 2.356-1.074 2.857-.602.66-1.476 1.053-2.621 1.182-.502.057-1.168.086-1.998.086-.187 0-.387-.007-.602-.022-.344 0-.652-.121-.924-.365-.272-.243-.458-.544-.558-.902-.072-.272-.172-.537-.301-.795-.043-.1-.065-.208-.065-.322 0-.13.036-.251.108-.366.129-.214.315-.322.558-.322h.043c.731.029 1.547.043 2.45.043.487 0 .852-.093 1.095-.28.53-.429.917-2.262 1.16-5.5.015-.1-.035-.15-.15-.15h-5.07c-.101 0-.165.05-.194.15-.472 1.934-1.253 3.653-2.341 5.157-.903 1.26-2.12 2.356-3.653 3.287-.2.115-.408.172-.623.172-.114 0-.229-.014-.344-.043-.329-.086-.608-.272-.837-.559-.086-.128-.187-.257-.301-.386l-.344-.387c-.172-.186-.258-.401-.258-.645 0-.043.007-.093.022-.15.043-.3.193-.53.451-.687.387-.215.745-.452 1.074-.71.645-.486 1.182-.973 1.611-1.46.444-.487.831-1.046 1.161-1.676.329-.645.58-1.232.752-1.762.186-.544.336-1.182.451-1.912.129-.73.215-1.36.257-1.89.043-.488.086-1.082.129-1.784 0-.114-.05-.172-.15-.172h-4.662c-.344 0-.645-.121-.902-.365-.244-.258-.366-.558-.366-.902v-.516c0-.344.122-.637.366-.88.257-.258.558-.387.902-.387h6.81c.115 0 .172-.058.172-.172V1.824c0-.344.122-.637.366-.88.257-.258.558-.387.902-.387h.795c.344 0 .637.129.881.386.257.244.386.537.386.881v2.063c0 .114.051.172.151.172h7.111c.344 0 .637.128.881.386.258.244.387.537.387.881v.516zm13.341 6.724c0-.1-.057-.15-.171-.15h-2.514c-.115 0-.172.05-.172.15v1.848c0 .1.057.15.172.15h2.514c.114 0 .171-.05.171-.15v-1.848zm2.922 3.502c0 .358-.129.66-.386.903-.244.243-.537.365-.881.365h-4.34c-.115 0-.172.057-.172.172v.086c0 .343-.122.644-.365.902-.244.244-.544.365-.903.365h-.343c-.344 0-.645-.121-.903-.365-.243-.258-.365-.558-.365-.902v-6.682c0-.358.122-.659.365-.902.258-.244.559-.365.903-.365h6.123c.344 0 .637.121.881.365.257.243.386.544.386.902v5.156zm3.717-11.257c.358 0 .659.128.903.386.243.244.365.537.365.881V18.54c0 .83-.101 1.475-.301 1.934-.201.458-.544.816-1.031 1.074-.673.33-1.726.515-3.159.558h-.042c-.344 0-.652-.114-.924-.343-.287-.23-.48-.523-.58-.881-.072-.272-.158-.544-.258-.817-.043-.1-.065-.2-.065-.3 0-.158.05-.308.151-.451.157-.23.372-.344.644-.344h.043c.401.014.759.021 1.074.021.273 0 .502-.007.688-.021.2 0 .344-.036.43-.108.086-.071.129-.2.129-.386V8.098c0-.1-.058-.15-.172-.15h-11.838c-.115 0-.172.05-.172.15v12.697c0 .358-.122.659-.365.902-.244.244-.545.366-.903.366h-.644c-.358 0-.659-.122-.903-.366-.243-.243-.365-.544-.365-.902V6.078c0-.344.122-.637.365-.88.244-.259.545-.387.903-.387h4.662c.115 0 .186-.05.215-.15.258-.717.487-1.455.687-2.214.101-.343.294-.623.58-.838.244-.157.502-.236.774-.236.057 0 .122.007.193.022l1.633.214c.315.043.544.2.687.473.086.158.129.308.129.451 0 .13-.035.265-.107.408-.315.66-.609 1.24-.881 1.74-.014.03-.014.058 0 .087.029.028.057.043.086.043h7.369zm13.879 9.345c-.372 0-.695-.122-.967-.365-.272-.244-.429-.544-.472-.902l-.731-5.694-.086-2.384c-.014-.344.093-.638.322-.881.244-.258.538-.387.881-.387h2.299c.344 0 .63.129.86.387.243.243.365.537.365.88l-.108 2.385-.73 5.694c-.043.358-.201.659-.473.902-.272.243-.587.365-.945.365h-.215zm1.934 5.436c-.487.444-1.103.666-1.848.666-.745 0-1.368-.222-1.869-.666-.487-.458-.731-1.039-.731-1.74 0-.688.244-1.26.731-1.72.501-.472 1.124-.708 1.869-.708.745 0 1.361.236 1.848.709.501.458.752 1.031.752 1.719 0 .701-.251 1.282-.752 1.74z"/>
</svg>
