<svg xmlns="http://www.w3.org/2000/svg" width="490" height="38" fill="none" viewBox="0 0 490 38">
    <path fill="#333" d="M19.918 15.055c0 .07.023.117.07.14.047.024.094.012.14-.035l.845-.738c.468-.375 1.008-.574 1.617-.598h.07c.563 0 1.078.188 1.547.563 4.195 3.234 7.102 5.636 8.719 7.207.398.375.597.82.597 1.336 0 .61-.222 1.113-.668 1.511l-1.406 1.266c-.398.352-.844.527-1.336.527h-.175c-.563-.047-1.032-.28-1.407-.703-1.804-1.898-4.605-4.453-8.402-7.664-.047-.023-.094-.023-.14 0-.048.024-.071.059-.071.106v15.293c0 .586-.211 1.078-.633 1.476-.398.399-.879.598-1.441.598h-1.617c-.563 0-1.055-.2-1.477-.598-.398-.398-.598-.89-.598-1.476V19.344c0-.047-.023-.082-.07-.106-.047-.023-.082-.011-.105.035-2.649 2.72-5.508 4.98-8.579 6.786-.351.187-.703.28-1.054.28-.188 0-.375-.023-.563-.07-.562-.14-1.008-.445-1.336-.913-.375-.516-.75-1.02-1.125-1.512-.258-.305-.386-.633-.386-.985 0-.117.011-.246.035-.386.117-.492.398-.867.844-1.125 2.625-1.43 5.039-3.211 7.242-5.344 2.226-2.156 4.101-4.442 5.625-6.856.023-.046.011-.093-.035-.14-.024-.047-.06-.07-.106-.07H3.29c-.562 0-1.055-.2-1.477-.598-.398-.422-.597-.914-.597-1.477v-1.23c0-.563.2-1.043.597-1.442.422-.421.915-.632 1.477-.632h27.492c.563 0 1.043.21 1.442.632.422.399.633.88.633 1.442v1.23c0 .563-.212 1.055-.633 1.477-.399.398-.88.598-1.442.598h-8.754c-.187 0-.328.07-.422.21-.515.915-1.03 1.758-1.546 2.532-.094.164-.141.328-.141.492v2.883zm33.293 3.129c0 .585-.2 1.078-.598 1.476-.398.399-.89.598-1.476.598H47.62c-.187 0-.293.094-.316.281 0 .164-.012.293-.035.387-.047.187-.012.34.105.457 1.313 1.336 3 3.21 5.063 5.625.398.469.597 1.008.597 1.617 0 .586-.176 1.113-.527 1.582l-.95 1.195c-.304.352-.68.528-1.124.528h-.106c-.516-.024-.914-.246-1.195-.668-.961-1.453-2.028-2.953-3.2-4.5-.046-.047-.105-.059-.175-.035-.047 0-.082.023-.106.07-1.125 2.883-2.707 5.273-4.746 7.172-.351.328-.75.492-1.195.492h-.281c-.54-.07-1.008-.328-1.407-.773-.28-.329-.586-.645-.914-.95-.351-.375-.527-.82-.527-1.336 0-.539.2-.996.598-1.37 2.554-2.415 4.172-5.579 4.851-9.493.024-.187-.058-.281-.246-.281H38.27c-.586 0-1.079-.2-1.477-.598-.398-.398-.598-.89-.598-1.476v-.774c0-.586.2-1.078.598-1.476.398-.399.89-.598 1.477-.598h3.902c.187 0 .281-.094.281-.281V10.73c0-.165-.094-.247-.281-.247h-.14c-.165 0-.282.082-.352.246-.352.82-.715 1.582-1.09 2.286-.258.468-.656.75-1.196.843-.117.024-.234.036-.351.036-.398 0-.773-.13-1.125-.387-.258-.211-.527-.41-.809-.598-.468-.328-.761-.773-.879-1.336-.046-.164-.07-.328-.07-.492 0-.375.094-.738.281-1.09.961-1.828 1.735-4.066 2.32-6.715.118-.539.41-.972.88-1.3.351-.235.726-.352 1.125-.352.117 0 .257.012.422.035l.914.211c.562.094 1.007.387 1.336.879.21.328.316.68.316 1.055 0 .164-.012.328-.035.492-.094.375-.188.738-.282 1.09-.023.07-.023.129 0 .176.047.046.106.07.176.07h6.75c.563 0 1.043.21 1.442.633.422.398.633.879.633 1.441v.703c0 .563-.211 1.055-.633 1.477-.399.398-.88.597-1.442.597h-2.355c-.188 0-.281.082-.281.246v4.325c0 .187.093.28.28.28h3.13c.586 0 1.078.2 1.476.599.399.398.598.89.598 1.476v.774zm5.906 8.543c0 .187.094.28.281.28h3.34c.188 0 .282-.093.282-.28V9.465c0-.164-.094-.246-.282-.246h-3.34c-.187 0-.28.082-.28.246v17.262zm-5.062-20.32c0-.587.199-1.079.597-1.477.399-.399.891-.598 1.477-.598h10.125c.586 0 1.078.2 1.477.598.398.398.597.89.597 1.476V31.72c0 .586-.2 1.078-.597 1.476-.399.399-.891.598-1.477.598h-1.547c-.469 0-.867-.164-1.195-.492-.328-.328-.492-.727-.492-1.196 0-.14-.07-.21-.211-.21h-3.41c-.188 0-.282.082-.282.246v.175c0 .563-.199 1.043-.597 1.442-.399.422-.891.633-1.477.633h-.914c-.586 0-1.078-.211-1.477-.633-.398-.399-.597-.88-.597-1.442V6.406zm43.418 8.859c.187 0 .28-.094.28-.282v-.668c0-.187-.093-.28-.28-.28H90.09c-.164 0-.246.093-.246.28v.668c0 .188.082.282.246.282h7.383zm0 4.605c.187 0 .28-.094.28-.281v-.668c0-.188-.093-.281-.28-.281H90.09c-.164 0-.246.093-.246.28v.669c0 .187.082.281.246.281h7.383zm0 4.64c.187 0 .28-.081.28-.245v-.703c0-.188-.093-.282-.28-.282H90.09c-.164 0-.246.094-.246.282v.703c0 .164.082.246.246.246h7.383zM84.887 12.419c0-.586.199-1.078.597-1.477.422-.398.914-.597 1.477-.597h3.023c.188 0 .293-.094.317-.281.07-.235.129-.516.176-.844.023-.164-.047-.246-.211-.246h-5.907c-.586 0-1.078-.2-1.476-.598-.399-.422-.598-.914-.598-1.477v-.035c0-.586.2-1.078.598-1.476.398-.399.89-.598 1.476-.598h2.04c.046 0 .082-.023.105-.07.047-.047.058-.106.035-.176-.023-.023-.035-.047-.035-.07-.164-.282-.246-.575-.246-.88 0-.187.023-.374.07-.562.164-.492.492-.832.984-1.02l.211-.07c.329-.14.657-.21.985-.21.258 0 .527.046.808.14.586.164 1.055.504 1.407 1.02.445.656.761 1.242.949 1.757.023.07 0 .118-.07.141h3.34c.164 0 .292-.082.386-.246.258-.492.48-.973.668-1.441.258-.54.645-.95 1.16-1.23.375-.212.762-.317 1.16-.317.165 0 .328.011.493.035l1.195.246c.492.117.832.398 1.019.844.094.21.141.398.141.562 0 .281-.082.54-.246.774l-.352.562c-.046.047-.058.094-.035.14.047.048.094.071.141.071h2.707c.562 0 1.043.2 1.441.598.422.398.633.89.633 1.476v.035c0 .563-.211 1.055-.633 1.477-.398.398-.879.598-1.441.598h-7.067c-.164 0-.293.07-.386.21 0 .047-.059.188-.176.422-.117.211-.21.375-.281.493-.024.046-.024.105 0 .175.023.047.07.07.14.07h5.239c.586 0 1.078.2 1.476.598.399.399.598.891.598 1.477v13.71c0 .587-.199 1.079-.598 1.477-.398.399-.89.598-1.476.598H86.961c-.563 0-1.055-.2-1.477-.598-.398-.398-.597-.89-.597-1.476V12.418zm-4.149-6.574c.375.375.563.808.563 1.3 0 .047-.012.106-.035.176-.047.563-.293 1.032-.739 1.407l-.984.808c-.375.305-.785.457-1.23.457-.07 0-.153-.012-.247-.035-.539-.047-.996-.293-1.37-.738-.774-.867-1.7-1.77-2.778-2.707-.399-.352-.598-.785-.598-1.301 0-.563.211-1.008.633-1.336l.668-.527c.469-.375 1.008-.575 1.617-.598h.07c.586 0 1.102.188 1.547.563 1.126.89 2.086 1.734 2.883 2.53zm-1.511 9.316c.562 0 1.042.2 1.441.598.422.398.633.89.633 1.476V26.2c0 .188.047.352.14.492 1.243 1.875 3.633 2.883 7.172 3.024 1.758.094 3.563.14 5.414.14 3.305 0 6.739-.117 10.301-.351h.106c.421 0 .761.176 1.019.527.188.235.281.492.281.774 0 .14-.035.293-.105.457-.141.468-.281.925-.422 1.37-.164.61-.48 1.114-.949 1.513-.469.398-.996.597-1.582.597-2.742.117-5.309.176-7.7.176-2.32 0-4.476-.047-6.468-.14-2.18-.094-4.008-.41-5.485-.95-1.453-.539-2.742-1.441-3.867-2.707-.117-.14-.234-.152-.351-.035-1.125.984-2.168 1.875-3.13 2.672-.304.234-.632.351-.984.351-.14 0-.27-.011-.386-.035-.516-.117-.89-.422-1.125-.914l-.774-1.687c-.14-.305-.21-.621-.21-.95 0-.21.035-.445.105-.703.187-.539.527-.96 1.02-1.265.96-.586 1.84-1.16 2.636-1.723.14-.117.211-.258.211-.422v-6.187c0-.164-.082-.246-.246-.246H74.55c-.563 0-1.055-.2-1.477-.598-.398-.422-.597-.914-.597-1.477v-.668c0-.586.199-1.078.597-1.476.422-.399.914-.598 1.477-.598h4.676zm34.242 17.578c-.375.469-.867.727-1.477.774h-.246c-.516 0-.996-.14-1.441-.422l-.914-.633c-.422-.281-.657-.691-.703-1.23v-.176c0-.445.152-.844.457-1.195 1.078-1.313 1.945-2.86 2.601-4.641.188-.54.527-.95 1.02-1.23.304-.165.609-.247.914-.247.211 0 .422.035.632.106l.774.246c.539.187.949.539 1.23 1.055.164.304.246.62.246.949 0 .21-.035.422-.105.633-.773 2.484-1.769 4.488-2.988 6.011zm11.039-2.496h3.797c.422 0 .726-.07.914-.21.211-.141.363-.41.457-.81.117-.445.386-.785.808-1.019.235-.117.469-.176.704-.176.187 0 .386.035.597.106.235.094.492.187.774.281.562.211 1.007.55 1.336 1.02.234.351.351.714.351 1.09 0 .163-.023.328-.07.492-.352 1.453-.938 2.449-1.758 2.988-.797.562-2.004.844-3.621.844h-4.992c-1.711 0-3.012-.188-3.903-.563-.89-.375-1.511-.96-1.863-1.758-.328-.797-.492-1.945-.492-3.445v-3.129c0-.586.199-1.078.598-1.476.421-.399.914-.598 1.476-.598h2.848c.023 0 .035-.012.035-.035.023-.024.023-.047 0-.07-.258-.188-.399-.434-.422-.739-.023-.328.094-.598.352-.808l.421-.352c.024-.023.024-.047 0-.07 0-.047-.011-.07-.035-.07-.468 0-.879-.165-1.23-.493-.328-.328-.492-.726-.492-1.195V9.64c0-.164-.082-.246-.246-.246h-2.145c-.164 0-.293.07-.387.21-1.336 2.157-2.789 4.032-4.359 5.625-.399.399-.879.598-1.441.598h-.036c-.586 0-1.101-.2-1.546-.598-.446-.398-.891-.785-1.336-1.16-.399-.328-.598-.75-.598-1.265 0-.516.199-.95.598-1.301 2.484-2.227 4.441-5.04 5.871-8.438.211-.539.574-.949 1.089-1.23.352-.188.704-.281 1.055-.281.188 0 .375.023.563.07l1.547.387c.539.14.937.457 1.195.949.14.258.211.527.211.809 0 .234-.047.457-.141.667-.047.094-.082.176-.105.247-.024.046-.024.105 0 .175.047.047.105.07.175.07h17.579c.586 0 1.078.212 1.476.633.399.399.598.88.598 1.442v.316c0 .563-.199 1.055-.598 1.477-.398.398-.89.598-1.476.598h-11.989c-.164 0-.246.082-.246.246v.632c0 .188.082.282.246.282h9.914c.539 0 1.008.199 1.407.597.398.375.597.844.597 1.407 0 .562-.199 1.043-.597 1.441-.399.375-.868.563-1.407.563h-9.914c-.164 0-.246.093-.246.28v.845c0 .164.082.246.246.246h10.864c.562 0 1.043.21 1.441.632.422.399.633.88.633 1.442v.105c0 .586-.211 1.078-.633 1.477-.398.398-.879.598-1.441.598h-10.864c-.164 0-.246.093-.246.28v.247c0 .187.071.328.211.422 1.055.726 1.981 1.441 2.778 2.144.375.352.562.785.562 1.301 0 .61-.234 1.113-.703 1.512l-.703.562c-.375.328-.797.492-1.266.492-.07 0-.14-.011-.211-.035-.562-.047-1.043-.27-1.441-.668-.797-.773-1.699-1.547-2.707-2.32-.024-.023-.071-.023-.141 0-.047.023-.07.059-.07.105v4.782c0 .539.105.879.316 1.02.211.14.703.21 1.477.21zm8.824-3.726c-.234-.305-.352-.645-.352-1.02 0-.117.024-.246.071-.387.117-.515.41-.89.879-1.125l.703-.316c.375-.188.762-.281 1.16-.281.187 0 .387.023.598.07.609.117 1.101.422 1.476.914 1.524 1.852 2.719 3.633 3.586 5.344.141.281.211.574.211.879 0 .234-.059.48-.176.738-.211.54-.586.938-1.125 1.195l-1.09.492c-.257.118-.527.176-.808.176-.235 0-.469-.047-.703-.14-.516-.211-.891-.575-1.125-1.09-.797-1.758-1.899-3.574-3.305-5.45zM171.09 10.66h2.109c.281 0 .481-.047.598-.14.117-.118.211-.34.281-.668.047-.165-.023-.247-.211-.247h-3.445c-.188 0-.281.094-.281.282.023.328.093.539.211.633.117.093.363.14.738.14zm.527-4.289c.164 0 .246-.094.246-.281v-.457c0-.188-.082-.281-.246-.281h-4.781c-.422 0-.797-.153-1.125-.457-.305-.305-.457-.68-.457-1.125 0-.446.152-.82.457-1.125.328-.329.703-.493 1.125-.493h7.383c.586 0 1.078.211 1.476.633.399.399.598.88.598 1.442v3.62c0 .493-.176.915-.527 1.266-.328.328-.739.492-1.231.492-.023 0-.035.024-.035.07v.036c.328.187.727.363 1.195.527.586.211 1.032.563 1.336 1.055.164.258.246.504.246.738 0 .235-.082.469-.246.703-.562.868-1.664 1.301-3.304 1.301h-3.34c-1.758 0-2.953-.293-3.586-.879-.61-.61-.914-1.746-.914-3.41v-1.3c0-.587.199-1.079.597-1.477.422-.399.914-.598 1.477-.598h3.656zm-12.375 4.29h2.11c.281 0 .48-.048.597-.141.141-.118.235-.34.281-.668.047-.165-.023-.247-.21-.247h-3.446c-.187 0-.281.094-.281.282.023.328.094.539.211.633.117.093.363.14.738.14zm.457-4.29c.164 0 .246-.094.246-.281v-.457c0-.188-.082-.281-.246-.281h-4.5c-.445 0-.832-.153-1.16-.457-.305-.305-.457-.68-.457-1.125 0-.446.152-.82.457-1.125.328-.329.715-.493 1.16-.493h7.031c.586 0 1.079.211 1.477.633.398.399.598.88.598 1.442v3.761c0 .446-.164.832-.493 1.16-.304.305-.679.457-1.124.457-.024 0-.047.024-.071.07 0 .024.012.036.035.036.328.187.727.363 1.196.527.609.211 1.054.563 1.336 1.055.164.258.246.504.246.738 0 .235-.082.469-.246.703-.563.868-1.653 1.301-3.27 1.301h-3.375c-1.758 0-2.953-.293-3.586-.879-.609-.61-.914-1.746-.914-3.41v-1.3c0-.587.199-1.079.598-1.477.422-.399.914-.598 1.476-.598h3.586zm-8.156-.176c.234.352.352.727.352 1.125 0 .14-.012.282-.036.422-.14.563-.457 1.008-.949 1.336l-.984.668c-.328.188-.668.281-1.02.281-.164 0-.328-.023-.492-.07-.516-.117-.926-.422-1.23-.914-.586-.89-1.301-1.84-2.145-2.848-.281-.328-.422-.703-.422-1.125 0-.093.012-.187.035-.28.071-.54.328-.962.774-1.267l.633-.386c.421-.258.879-.387 1.371-.387h.316c.609.07 1.113.328 1.512.773.914.961 1.676 1.852 2.285 2.672zm10.512 18.809c-.024 0-.035.012-.035.035 0 .023.011.047.035.07l.703.246c.422.141.68.434.773.88v.245c0 .329-.152.598-.457.81-1.429.983-3.058 1.862-4.886 2.636-.024 0-.036.023-.036.07 0 .024.012.035.036.035l1.124.106c1.711.07 3.633.105 5.766.105 2.086 0 4.371-.035 6.856-.105.046 0 .07-.024.07-.07.023-.047.012-.083-.035-.106-1.125-.844-2.403-1.676-3.832-2.496-.399-.211-.598-.55-.598-1.02 0-.422.188-.738.563-.949l.632-.351c.024-.024.024-.047 0-.07 0-.048-.011-.071-.035-.071h-6.644zm1.863-5.59c-.164 0-.246.082-.246.246v1.3c0 .188.082.282.246.282h2.672c.187 0 .281-.094.281-.281v-1.3c0-.165-.094-.247-.281-.247h-2.672zm12.129 7.91c.351.211.504.528.457.95-.047.398-.27.667-.668.808l-2.672.914c-.023.024-.035.047-.035.07h.035c1.195-.023 2.297-.07 3.305-.14h.105c.422 0 .762.176 1.02.527.187.235.281.492.281.774 0 .164-.035.328-.105.492l-.282.914c-.187.586-.515 1.066-.984 1.441-.469.399-.996.61-1.582.633-3.07.117-5.93.176-8.578.176-2.532 0-4.875-.047-7.032-.14-2.109-.095-3.867-.423-5.273-.985-1.383-.563-2.59-1.477-3.621-2.742-.094-.141-.199-.141-.316 0-.75.797-1.618 1.664-2.602 2.601-.305.281-.645.422-1.02.422h-.316c-.492-.094-.855-.375-1.09-.844l-.597-1.265c-.165-.352-.247-.703-.247-1.055 0-.188.036-.398.106-.633.141-.562.457-1.02.949-1.37.727-.54 1.395-1.056 2.004-1.548.141-.117.211-.27.211-.457v-6.644c0-.164-.094-.246-.281-.246h-.985c-.586 0-1.078-.2-1.476-.598-.399-.422-.598-.914-.598-1.477v-.668c0-.586.199-1.078.598-1.476.398-.399.89-.598 1.476-.598h4.043c.586 0 1.078.2 1.477.598.398.398.598.89.598 1.476v9.211c0 .188.046.352.14.492.844 1.407 2.168 2.344 3.973 2.813.023 0 .047-.012.07-.035.024-.024.024-.047 0-.07-.422-.399-.902-.81-1.441-1.23-.258-.212-.387-.47-.387-.774v-.246c.094-.399.34-.668.738-.81 1.407-.444 2.59-.925 3.551-1.44.047-.024.059-.047.035-.07 0-.048-.023-.071-.07-.071h-3.797c-.539 0-.996-.176-1.371-.527-.352-.375-.527-.82-.527-1.336 0-.54.175-.985.527-1.336.375-.375.832-.563 1.371-.563h3.34c.187 0 .281-.094.281-.281v-1.3c0-.165-.094-.247-.281-.247h-2.391c-.515 0-.949-.176-1.301-.527-.351-.375-.527-.82-.527-1.336 0-.516.176-.95.527-1.301.352-.375.786-.563 1.301-.563h2.496c.118 0 .176-.058.176-.175 0-.375.129-.692.387-.95.258-.28.586-.421.984-.421h2.145c.375 0 .691.14.949.421.281.258.422.575.422.95 0 .117.058.175.176.175h2.847c.117 0 .176-.058.176-.175 0-.375.129-.692.387-.95.281-.28.609-.421.984-.421h2.215c.375 0 .691.14.949.421.282.258.422.575.422.95 0 .117.059.175.176.175h2.637c.492 0 .914.188 1.265.563.375.352.563.785.563 1.3 0 .516-.188.962-.563 1.337-.351.351-.773.527-1.265.527h-2.532c-.187 0-.281.082-.281.246v1.3c0 .188.094.282.281.282h3.586c.539 0 .985.188 1.336.563.375.351.563.797.563 1.336 0 .515-.188.96-.563 1.336-.351.351-.797.527-1.336.527h-3.902c-.047 0-.082.023-.105.07 0 .024.023.047.07.07 1.687.82 3.117 1.547 4.289 2.18zm13.992 3.305c0-.07-.023-.129-.07-.176-.024-.047-.071-.07-.141-.07-1.055 0-1.957-.328-2.707-.985-.75-.656-1.125-1.535-1.125-2.636 0-1.055.375-1.91 1.125-2.567.774-.68 1.723-1.02 2.848-1.02 1.406 0 2.484.481 3.234 1.442s1.125 2.285 1.125 3.973c0 1.828-.516 3.48-1.547 4.957-1.008 1.5-2.449 2.648-4.324 3.445-.234.094-.457.14-.668.14-.258 0-.504-.058-.738-.175-.492-.21-.832-.574-1.02-1.09-.07-.187-.105-.386-.105-.597 0-.258.058-.504.176-.739.21-.445.55-.785 1.019-1.02 1.594-.75 2.567-1.71 2.918-2.882zm58.219-24.434c.281.352.422.739.422 1.16 0 .118-.012.235-.035.352-.118.563-.422 1.02-.915 1.371l-.773.527c-.352.235-.715.352-1.09.352-.14 0-.281-.023-.422-.07-.539-.117-.972-.399-1.3-.844-.633-.867-1.395-1.77-2.286-2.707-.328-.328-.492-.727-.492-1.195 0-.61.246-1.079.738-1.407l.493-.351c.445-.305.937-.457 1.476-.457h.176c.633.047 1.16.281 1.582.703.938.914 1.746 1.77 2.426 2.566zm-5.344 12.692c.328-.516.774-.856 1.336-1.02.234-.094.48-.14.738-.14.305 0 .61.058.914.175l.774.352c.515.21.855.586 1.019 1.125.071.187.106.375.106.562 0 .305-.094.61-.281.915-1.29 1.992-2.825 3.902-4.606 5.73-.141.14-.176.293-.105.457.773 2.133 1.523 3.2 2.25 3.2.515 0 .867-1.231 1.054-3.692.047-.399.258-.668.633-.809.375-.164.715-.129 1.02.106.304.234.609.457.914.668.539.351.949.797 1.23 1.336.211.398.317.808.317 1.23 0 .164-.012.316-.036.457-.421 2.344-1.054 3.926-1.898 4.746-.844.844-2.098 1.266-3.762 1.266-2.297 0-4.254-1.617-5.871-4.852-.07-.164-.176-.199-.316-.105-1.289.984-2.66 1.898-4.114 2.742-.351.21-.703.316-1.054.316-.188 0-.375-.023-.563-.07-.539-.14-.996-.445-1.371-.914-.281-.352-.574-.703-.879-1.055-.258-.304-.386-.644-.386-1.02 0-.093.011-.187.035-.28.093-.493.351-.856.773-1.09 2.063-1.055 3.996-2.274 5.801-3.657.141-.093.187-.234.141-.421-.704-2.602-1.254-5.508-1.653-8.72-.023-.187-.117-.28-.281-.28h-6.258c-.164 0-.246.093-.246.28v2.673c0 .187.082.258.246.21l2.883-.456h.316c.422 0 .809.128 1.161.386.445.352.691.809.738 1.371l.035.598v.211c0 .516-.152.984-.457 1.406-.375.469-.844.75-1.406.844-1.758.352-2.848.563-3.27.633-.164.047-.246.152-.246.316v4.852c0 1.383-.164 2.437-.492 3.164-.305.75-.856 1.336-1.652 1.758-1.055.539-2.625.855-4.711.949h-.106c-.539 0-1.031-.176-1.476-.528-.469-.374-.797-.855-.985-1.44-.14-.446-.305-.903-.492-1.372-.07-.188-.105-.363-.105-.527 0-.258.082-.504.246-.739.234-.375.586-.562 1.054-.562h2.567c.328 0 .551-.047.668-.14.117-.118.175-.329.175-.634v-3.761c0-.164-.082-.235-.246-.211l-3.586.668c-.14.023-.269.035-.386.035-.422 0-.821-.117-1.196-.352-.468-.328-.773-.773-.914-1.336l-.281-1.265c-.047-.14-.07-.293-.07-.457 0-.352.117-.692.351-1.02.328-.469.762-.738 1.301-.808 1.758-.235 3.352-.47 4.781-.703.164-.024.246-.118.246-.282v-3.48c0-.188-.082-.281-.246-.281h-4.007c-.563 0-1.055-.2-1.477-.598-.398-.399-.598-.89-.598-1.477v-.773c0-.563.2-1.043.598-1.442.422-.421.914-.632 1.477-.632h4.007c.164 0 .246-.082.246-.246V8.305c0-.188-.082-.27-.246-.246-1.054.14-2.027.27-2.918.386h-.281c-.469 0-.914-.14-1.336-.422-.469-.351-.797-.82-.984-1.406-.047-.14-.106-.293-.176-.457-.07-.187-.105-.387-.105-.598 0-.28.082-.55.246-.808.258-.445.632-.703 1.125-.774 3.867-.562 7.324-1.253 10.371-2.074.281-.07.562-.105.844-.105.328 0 .644.047.949.14.609.188 1.101.528 1.476 1.02l.95 1.195c.21.258.316.54.316.844 0 .14-.023.293-.07.457-.164.469-.481.762-.95.879-1.031.234-2.25.492-3.656.773-.164.024-.246.13-.246.317v3.55c0 .165.082.247.246.247h5.801c.164 0 .234-.082.211-.246-.235-3.141-.352-5.625-.352-7.454 0-.539.2-1.007.598-1.406.398-.398.891-.597 1.477-.597h1.3c.586 0 1.078.199 1.477.597.398.399.598.89.598 1.477 0 2.414.093 4.875.281 7.383.023.164.117.246.281.246h7.137c.562 0 1.043.21 1.441.632.422.399.633.88.633 1.442v.773c0 .586-.211 1.078-.633 1.477-.398.398-.879.598-1.441.598h-6.645c-.164 0-.234.093-.211.28.282 1.876.528 3.329.739 4.36 0 .07.023.117.07.14.07 0 .117-.023.141-.07.539-.656 1.031-1.312 1.476-1.968zm25.945-11.672c0-.188-.093-.281-.281-.281h-1.266c-.164 0-.246.093-.246.28v.845c0 .164.082.246.246.246h1.266c.188 0 .281-.082.281-.246v-.844zm-1.793 5.87c0 .188.082.282.246.282h1.266c.188 0 .281-.094.281-.281v-.879c0-.164-.093-.246-.281-.246h-1.266c-.164 0-.246.082-.246.246v.879zm3.586-10.019c.586 0 1.078.2 1.477.598.398.398.598.89.598 1.477v10.02c0 .585-.2 1.077-.598 1.476-.399.398-.891.597-1.477.597h-3.34c-.164 0-.246.094-.246.282V33.23c0 .585-.211 1.078-.632 1.476-.399.398-.879.598-1.442.598h-.703c-.562 0-1.055-.2-1.477-.598-.398-.398-.597-.89-.597-1.477V4.93c0-.024-.012-.035-.035-.035-.024 0-.035.011-.035.035-.68 1.828-1.29 3.316-1.829 4.465-.07.164-.105.34-.105.527V33.3c0 .586-.199 1.078-.598 1.476-.398.399-.89.598-1.476.598h-.809c-.586 0-1.078-.2-1.476-.598-.399-.398-.598-.89-.598-1.476V18.816c0-.046-.024-.07-.07-.07-.047-.023-.082-.023-.106 0-.023.047-.047.082-.07.106-.211.304-.492.457-.844.457-.07 0-.141-.012-.211-.036-.445-.07-.75-.316-.914-.738-.281-.68-.562-1.336-.844-1.969-.211-.445-.316-.914-.316-1.406 0-.117.012-.246.035-.387.07-.609.281-1.171.633-1.687 1.992-2.813 3.633-6.106 4.922-9.879.187-.539.527-.95 1.019-1.23.328-.165.657-.247.985-.247.211 0 .41.024.597.07l2.496.74c.235.07.305.222.211.456 0 .047.012.07.035.07h7.84zm7.453 10.02c0 .187.094.281.282.281h1.511c.164 0 .247-.094.247-.281v-.879c0-.164-.083-.246-.247-.246h-1.511c-.188 0-.282.082-.282.246v.879zm2.04-5.871c0-.188-.083-.281-.247-.281h-1.511c-.188 0-.282.093-.282.28v.845c0 .164.094.246.282.246h1.511c.164 0 .247-.082.247-.246v-.844zm2.917-4.149c.563 0 1.043.2 1.442.598.422.398.633.89.633 1.477v24.433c0 1.36-.164 2.403-.492 3.13-.305.726-.856 1.288-1.653 1.687-1.078.539-2.847.843-5.308.914h-.036c-.562 0-1.066-.188-1.511-.563-.469-.375-.797-.855-.985-1.441-.117-.375-.234-.739-.351-1.09-.071-.164-.106-.328-.106-.492 0-.258.082-.504.246-.739.258-.375.61-.562 1.055-.562h.035c.774.023 1.442.035 2.004.035.469 0 .867-.012 1.195-.035.352 0 .586-.059.704-.176.14-.14.211-.387.211-.738V17.516c0-.188-.083-.282-.247-.282h-3.796c-.563 0-1.055-.199-1.477-.597-.398-.399-.598-.89-.598-1.477V5.14c0-.585.2-1.077.598-1.476.422-.398.914-.598 1.477-.598h6.96zm13.325 10.512c-.586 0-1.078-.2-1.477-.598-.398-.421-.598-.914-.598-1.476v-1.371c0-.07-.023-.117-.07-.14-.047-.024-.094-.024-.14 0-.399.28-.809.55-1.231.808-.398.234-.809.351-1.23.351-.141 0-.282-.011-.422-.035-.61-.117-1.114-.398-1.512-.844-.281-.28-.539-.55-.773-.808-.282-.281-.422-.61-.422-.985v-.246c.07-.468.328-.82.773-1.054 2.695-1.36 4.957-2.953 6.785-4.782.446-.445.961-.738 1.547-.878.235-.07.481-.106.738-.106.352 0 .692.059 1.02.176l.844.316c.492.188.797.528.914 1.02.047.14.07.281.07.422 0 .328-.129.632-.387.914-.398.422-.832.867-1.3 1.336-.141.14-.211.293-.211.457v5.449c0 .562-.2 1.055-.598 1.476-.398.399-.891.598-1.477.598h-.843zm1.898 11.531c-.187 0-.281.094-.281.282v.527c0 .164.094.246.281.246h13.711c.188 0 .281-.082.281-.246v-.527c0-.188-.093-.282-.281-.282h-13.711zm0-3.832c-.187 0-.281.082-.281.246v.493c0 .187.094.28.281.28h13.711c.188 0 .281-.093.281-.28v-.493c0-.164-.093-.246-.281-.246h-13.711zm0-3.867c-.187 0-.281.094-.281.281v.457c0 .188.094.282.281.282h13.711c.188 0 .281-.094.281-.282v-.457c0-.187-.093-.28-.281-.28h-13.711zm19.617-9.176c0-.046-.023-.093-.07-.14-.047-.07-.105-.106-.176-.106l-5.449.352c-.047 0-.082.023-.105.07 0 .047.011.082.035.106 1.359 1.125 2.836 1.687 4.429 1.687.422 0 .727-.129.914-.387.188-.28.329-.808.422-1.582zm-.351 18.844c0 .586-.199 1.078-.598 1.477-.398.398-.891.597-1.476.597h-2.989c-.023 0-.035.012-.035.035 0 .024.012.047.035.07 3.071 1.243 5.496 2.274 7.278 3.095.351.164.515.433.492.808-.024.399-.211.668-.563.809l-2.32.843c-.492.188-.984.282-1.477.282-.75 0-1.5-.211-2.25-.633-1.593-.89-3.351-1.758-5.273-2.602-.398-.164-.598-.48-.598-.949 0-.375.176-.656.528-.844l1.371-.773c.023-.023.023-.047 0-.07 0-.047-.012-.07-.035-.07h-9.106c-.023 0-.035.023-.035.07 0 .023.012.035.035.035l1.125.527c.445.188.668.527.668 1.02 0 .398-.176.703-.527.914-2.203 1.195-4.758 2.273-7.664 3.234-.328.094-.657.14-.985.14-.281 0-.562-.034-.843-.105-.61-.164-1.137-.48-1.582-.949l-.915-.914c-.14-.14-.234-.305-.281-.492-.023-.094-.035-.188-.035-.281 0-.094.012-.176.035-.246.047-.188.129-.352.246-.493.141-.14.317-.222.528-.246 2.648-.586 4.933-1.289 6.855-2.11.024 0 .035-.01.035-.034 0-.047-.023-.07-.07-.07h-2.074c-.563 0-1.055-.2-1.477-.598-.398-.399-.597-.89-.597-1.477V16.461c0-.563.199-1.043.597-1.441.422-.422.914-.633 1.477-.633H313.227c0-.024-.012-.047-.036-.07-2.953-.797-5.32-2.579-7.101-5.344-.094-.141-.235-.211-.422-.211l-3.27.175c-.023.024-.058.036-.105.036-.492 0-.926-.164-1.301-.493-.398-.351-.633-.796-.703-1.335v-.211c0-.422.141-.809.422-1.16.351-.399.785-.61 1.301-.633L304.016 5c.164 0 .222-.082.175-.246-.14-.469-.257-.961-.351-1.477-.024-.14-.035-.27-.035-.386 0-.375.14-.727.422-1.055.351-.422.808-.633 1.371-.633h.668c.586 0 1.101.2 1.546.598.469.375.786.855.95 1.441.14.422.293.832.457 1.23.07.165.187.235.351.212l3.41-.176c.024 0 .036-.012.036-.035 0-.024-.012-.047-.036-.07-.468-.165-.89-.305-1.265-.423-.375-.117-.621-.351-.738-.703-.094-.375-.012-.703.246-.984.375-.398.808-.68 1.3-.844.282-.094.563-.14.844-.14.211 0 .434.035.668.105 1.125.281 2.192.621 3.199 1.02.328.117.528.363.598.738.07.351-.012.668-.246.95-.024 0-.024.023 0 .07.023.023.047.035.07.035l1.371-.07h.106c.469 0 .89.152 1.265.456.399.352.622.785.668 1.301.024.07.036.14.036.211 0 .422-.141.797-.422 1.125-.328.398-.75.61-1.266.633l-1.16.07c-.047.024-.082.059-.106.106 0 .023.024.046.071.07.422.305.949.598 1.582.879.562.258.996.644 1.301 1.16.187.305.281.633.281.984 0 .188-.035.387-.106.598-.304.96-.726 1.664-1.265 2.11-.539.421-1.266.703-2.18.843-.187.024-.281.117-.281.281v12.094zm12.691-23.765c.235-.54.61-.938 1.125-1.196.305-.164.621-.246.949-.246.211 0 .434.035.668.106l.95.316c.539.164.937.504 1.195 1.02.117.257.176.527.176.808 0 .234-.047.469-.141.703-.726 1.735-1.523 3.434-2.391 5.098-.093.14-.14.305-.14.492v22.887c0 .586-.199 1.078-.598 1.476-.398.399-.89.598-1.476.598h-.809c-.562 0-1.055-.2-1.477-.598-.398-.398-.597-.89-.597-1.476V18.148c0-.046-.024-.07-.071-.07-.023-.023-.058-.023-.105 0-.07.094-.141.2-.211.317-.258.28-.574.421-.949.421h-.211c-.469-.093-.809-.351-1.02-.773-.304-.633-.609-1.242-.914-1.828-.211-.422-.316-.88-.316-1.371v-.352c.07-.61.305-1.148.703-1.617 2.273-2.719 4.16-5.906 5.66-9.563zm7.031 16.453c.141-.563.457-.996.95-1.301.328-.235.691-.352 1.089-.352.141 0 .293.012.458.035l.984.211c.562.118.996.422 1.301.914.211.329.316.668.316 1.02 0 .164-.023.34-.07.527-.821 3.094-1.875 5.825-3.164 8.192-.258.468-.657.761-1.196.879-.14.023-.281.035-.421.035-.399 0-.774-.117-1.125-.352-.305-.187-.622-.387-.95-.597-.445-.282-.738-.692-.879-1.23-.023-.165-.035-.329-.035-.493 0-.352.094-.692.281-1.02 1.008-1.78 1.829-3.937 2.461-6.468zm15.329-7.278c.023-.164-.059-.246-.247-.246h-3.199c-.187 0-.281.082-.281.246v17.227c0 1.265-.129 2.262-.387 2.988-.258.727-.738 1.3-1.441 1.723-.914.515-2.109.832-3.586.949h-.176c-.515 0-.984-.164-1.406-.492-.469-.375-.785-.856-.949-1.442-.141-.445-.293-.89-.457-1.336-.071-.187-.106-.363-.106-.527 0-.258.082-.504.246-.738.258-.399.621-.598 1.09-.598h1.336c.258 0 .434-.035.527-.105.094-.094.141-.258.141-.492V12.488c0-.164-.094-.246-.281-.246h-2.918c-.164 0-.293.07-.387.211-.633 1.172-1.289 2.262-1.969 3.27-.328.445-.773.691-1.336.738-.046.023-.105.035-.175.035-.493 0-.914-.164-1.266-.492-.352-.281-.691-.563-1.02-.844-.445-.328-.691-.773-.738-1.336-.023-.094-.035-.176-.035-.246 0-.445.141-.855.422-1.23 1.805-2.438 3.269-5.45 4.394-9.036.164-.539.493-.96.985-1.265.351-.211.715-.317 1.09-.317.164 0 .328.024.492.07l1.125.247c.539.14.949.445 1.23.914.188.305.282.621.282.95 0 .187-.036.386-.106.597-.305.937-.621 1.828-.949 2.672-.024.047-.024.105 0 .175.047.047.094.07.141.07h10.898c.047 0 .105-.01.176-.034.234-.047.468-.07.703-.07.234 0 .469.023.703.07l1.16.21c.516.094.926.352 1.231.774.257.328.386.691.386 1.09 0 .117-.011.223-.035.316-.234 1.64-.527 3.293-.879 4.957-.093.563-.386 1.008-.879 1.336-.351.258-.738.387-1.16.387-.14 0-.281-.012-.422-.035l-.351-.07c-.586-.118-1.043-.41-1.371-.88-.282-.374-.422-.796-.422-1.265v-.281c.07-.492.129-.973.176-1.442zm-2.391 8.332c-.094-.258-.141-.504-.141-.738 0-.281.059-.55.176-.809.234-.515.621-.867 1.16-1.054l.739-.246c.257-.094.503-.141.738-.141.305 0 .609.07.914.211.539.234.926.621 1.16 1.16 1.031 2.531 1.828 5.086 2.391 7.664.047.164.07.328.07.492 0 .399-.106.785-.316 1.16-.305.516-.75.868-1.336 1.055l-1.125.422c-.188.047-.375.07-.563.07-.281 0-.562-.082-.844-.246-.445-.28-.714-.68-.808-1.195-.469-2.531-1.207-5.133-2.215-7.805zm20.601-4.113c.141-.023.293-.035.458-.035.351 0 .691.105 1.019.316.469.328.738.762.809 1.301l.07.703c.023.117.035.223.035.317 0 .468-.141.902-.422 1.3-.328.493-.785.809-1.371.95-.68.187-1.242.34-1.687.457-.164.023-.246.129-.246.316v7.488c0 1.22-.129 2.157-.387 2.813-.258.68-.715 1.195-1.371 1.547-.867.515-2.121.82-3.762.914h-.141c-.515 0-.984-.176-1.406-.528-.469-.375-.785-.867-.949-1.476-.07-.235-.152-.48-.246-.738-.047-.164-.07-.329-.07-.493 0-.28.093-.55.281-.808.258-.399.633-.598 1.125-.598h1.125c.258 0 .433-.047.527-.14.117-.118.176-.293.176-.528v-6.223c0-.187-.094-.257-.281-.21l-.985.246c-.187.047-.363.07-.527.07-.375 0-.727-.105-1.055-.316-.492-.305-.808-.727-.949-1.266l-.281-1.02c-.047-.164-.071-.328-.071-.492 0-.351.106-.691.317-1.02.305-.468.726-.761 1.265-.878.844-.14 1.606-.293 2.286-.457.187-.024.281-.13.281-.317v-4.957c0-.187-.094-.28-.281-.28h-1.758c-.586 0-1.078-.2-1.477-.599-.398-.398-.597-.89-.597-1.476v-.668c0-.586.199-1.078.597-1.477.399-.398.891-.597 1.477-.597h1.758c.187 0 .281-.094.281-.282V3.277c0-.562.199-1.043.598-1.441.398-.422.89-.633 1.476-.633h.949c.563 0 1.043.211 1.442.633.422.398.633.879.633 1.441v4.29c0 .187.082.28.246.28h1.265c.586 0 1.078.2 1.477.598.398.399.597.89.597 1.477v.668c0 .586-.199 1.078-.597 1.476-.399.399-.891.598-1.477.598h-1.265c-.164 0-.246.094-.246.281v3.832c0 .164.082.223.246.176.281-.047.644-.129 1.089-.246zm16.454-.738c.257-.492.644-.82 1.16-.985.187-.046.375-.07.562-.07.328 0 .645.094.95.281l.738.457c.515.305.855.739 1.019 1.301.047.211.071.422.071.633 0 .352-.082.691-.246 1.02-1.43 2.695-3.247 5.261-5.45 7.699-.117.117-.129.258-.035.422.75 1.195 1.594 1.875 2.531 2.039h.071c.258 0 .48-.246.668-.739.187-.539.34-1.394.457-2.566.023-.398.234-.68.633-.844.14-.047.281-.07.421-.07.211 0 .422.07.633.21.305.235.645.47 1.02.704.515.328.914.773 1.195 1.336.188.398.281.797.281 1.195 0 .164-.023.34-.07.527-.516 2.532-1.219 4.278-2.109 5.239-.774.89-1.641 1.336-2.602 1.336-.094 0-.199-.012-.316-.035-2.953-.352-5.262-1.828-6.926-4.43-.094-.14-.211-.152-.352-.035-1.336 1.031-2.66 1.933-3.972 2.707-.375.187-.762.281-1.16.281-.165 0-.329-.012-.493-.035-.586-.117-1.09-.399-1.511-.844-.399-.398-.809-.797-1.231-1.195-.305-.258-.457-.563-.457-.914 0-.07.012-.14.035-.211.047-.445.281-.774.703-.985 2.086-.984 4.067-2.273 5.942-3.867.14-.093.187-.234.14-.422-.773-2.601-1.347-5.859-1.722-9.773 0-.164-.094-.246-.282-.246l-1.546.176h-.246c-.469 0-.903-.153-1.301-.457-.446-.352-.692-.82-.739-1.407l-.07-.879c-.023-.07-.035-.14-.035-.21 0-.47.164-.903.492-1.301.352-.422.809-.668 1.371-.739l1.688-.14c.164-.024.246-.117.246-.281-.188-2.977-.281-5.11-.281-6.399 0-.539.187-1.008.562-1.406.399-.399.879-.598 1.442-.598h1.23c.563 0 1.043.2 1.441.598.422.398.633.89.633 1.476.024 2.016.082 3.961.176 5.836.023.164.117.235.281.211l4.395-.386c.047 0 .082-.024.105-.07.024-.048.024-.094 0-.141-.609-.82-1.57-2.004-2.883-3.551-.304-.352-.457-.738-.457-1.16 0-.094.012-.188.036-.282.07-.539.339-.96.808-1.265l.492-.317c.422-.257.868-.386 1.336-.386.094 0 .2.011.317.035.609.07 1.113.316 1.511.738.914.961 1.594 1.688 2.039 2.18.329.351.493.75.493 1.195 0 .07-.012.152-.036.246-.07.563-.339.996-.808 1.301l-1.828 1.266c-.047 0-.071.023-.071.07.024.023.059.035.106.035l2.812-.246c.071-.023.141-.035.211-.035.493 0 .938.164 1.336.492.422.375.668.844.739 1.406l.07.739v.246c0 .468-.152.89-.457 1.265-.352.446-.809.703-1.371.774l-8.508.844c-.164 0-.234.093-.211.28.188 2.087.469 4.02.844 5.802.023.046.058.082.105.105.047.023.082.012.106-.035 1.172-1.477 2.215-3.059 3.129-4.746zm42.187-7.137c0 .563-.211 1.055-.633 1.477-.398.398-.879.597-1.441.597h-14.801c-.164 0-.246.082-.246.246-.07 1.055-.187 2.227-.352 3.516-.023.164.059.246.247.246h11.32c.586 0 1.078.211 1.476.633.329.328.493.726.493 1.195v.246c-.024.047-.036.094-.036.14-.304 4.782-.668 8.333-1.089 10.653-.422 2.297-1.008 3.856-1.758 4.676-.985 1.078-2.414 1.723-4.289 1.934-.821.093-1.91.14-3.27.14-.304 0-.633-.011-.984-.035-.563 0-1.067-.2-1.512-.598-.445-.398-.75-.89-.914-1.476-.117-.445-.281-.879-.492-1.3-.07-.165-.106-.34-.106-.528 0-.211.059-.41.176-.598.211-.351.516-.527.914-.527h.071c1.195.047 2.531.07 4.007.07.797 0 1.395-.152 1.793-.457.868-.703 1.5-3.703 1.899-9 .023-.164-.059-.246-.246-.246h-8.297c-.164 0-.27.082-.317.246-.773 3.164-2.05 5.977-3.832 8.438-1.476 2.062-3.468 3.855-5.976 5.378-.328.188-.668.282-1.02.282-.187 0-.375-.024-.562-.07-.539-.141-.996-.446-1.371-.915-.141-.21-.305-.422-.493-.633l-.562-.632c-.281-.305-.422-.657-.422-1.055 0-.07.012-.152.035-.246.071-.492.317-.867.739-1.125.632-.352 1.218-.738 1.757-1.16 1.055-.797 1.934-1.594 2.637-2.39.727-.798 1.359-1.712 1.899-2.743.539-1.055.949-2.016 1.23-2.883.305-.89.551-1.933.738-3.129.211-1.195.352-2.226.422-3.094.07-.796.141-1.77.211-2.918 0-.187-.082-.28-.246-.28h-7.629c-.562 0-1.055-.2-1.476-.598-.399-.422-.598-.914-.598-1.477v-.844c0-.562.199-1.043.598-1.441.421-.422.914-.633 1.476-.633h11.145c.187 0 .281-.094.281-.281V2.258c0-.563.199-1.043.598-1.442.421-.421.914-.632 1.476-.632h1.301c.562 0 1.043.21 1.441.632.422.399.633.88.633 1.442v3.375c0 .187.082.281.246.281h11.637c.562 0 1.043.211 1.441.633.422.398.633.879.633 1.441v.844zm21.832 11.004c0-.164-.094-.246-.281-.246h-4.113c-.188 0-.282.082-.282.246v3.023c0 .164.094.246.282.246h4.113c.187 0 .281-.082.281-.246v-3.023zm4.781 5.73c0 .586-.211 1.079-.632 1.477-.399.398-.879.598-1.442.598h-7.101c-.188 0-.282.093-.282.28v.142c0 .562-.199 1.054-.597 1.476-.399.398-.891.598-1.477.598h-.562c-.563 0-1.055-.2-1.477-.598-.398-.422-.598-.914-.598-1.477V17.13c0-.586.2-1.078.598-1.477.422-.398.914-.597 1.477-.597h10.019c.563 0 1.043.199 1.442.597.421.399.632.891.632 1.477v8.437zm6.082-18.421c.586 0 1.079.21 1.477.632.398.399.598.88.598 1.442v20.39c0 1.36-.164 2.414-.493 3.164-.328.75-.89 1.336-1.687 1.758-1.102.54-2.824.844-5.168.914h-.07c-.563 0-1.067-.187-1.512-.562-.469-.375-.785-.856-.949-1.442-.117-.445-.258-.89-.422-1.336-.07-.164-.106-.328-.106-.492 0-.258.082-.504.246-.738.258-.375.61-.563 1.055-.563h.071c.656.024 1.242.036 1.757.036.446 0 .821-.012 1.125-.035.328 0 .563-.06.703-.176.141-.117.211-.328.211-.633v-16.98c0-.165-.093-.247-.281-.247h-19.371c-.187 0-.281.082-.281.246v20.778c0 .586-.199 1.078-.598 1.476-.398.399-.891.598-1.476.598h-1.055c-.586 0-1.078-.2-1.477-.598-.398-.398-.597-.89-.597-1.476V9.219c0-.563.199-1.043.597-1.442.399-.422.891-.632 1.477-.632h7.629c.187 0 .304-.082.351-.247.422-1.171.797-2.378 1.125-3.62.164-.563.481-1.02.95-1.372.398-.258.82-.386 1.265-.386.094 0 .199.011.317.035l2.671.351c.516.07.891.328 1.125.774.141.257.211.504.211.738 0 .21-.058.434-.175.668-.516 1.078-.996 2.027-1.442 2.848-.023.046-.023.093 0 .14.047.047.094.07.141.07h12.058zm22.711 15.293c-.609 0-1.136-.2-1.582-.598-.445-.399-.703-.89-.773-1.477l-1.195-9.316-.141-3.902c-.023-.563.152-1.043.527-1.442.399-.422.879-.633 1.442-.633h3.761c.563 0 1.032.211 1.407.633.398.399.597.879.597 1.442l-.175 3.902-1.196 9.316c-.07.586-.328 1.078-.773 1.477-.446.398-.961.598-1.547.598h-.352zm3.164 8.894c-.796.727-1.804 1.09-3.023 1.09s-2.238-.363-3.059-1.09c-.796-.75-1.195-1.7-1.195-2.848 0-1.125.399-2.062 1.195-2.812.821-.774 1.84-1.16 3.059-1.16s2.227.386 3.023 1.16c.821.75 1.231 1.687 1.231 2.812 0 1.149-.41 2.098-1.231 2.848z"/>
</svg>
