<svg xmlns="http://www.w3.org/2000/svg" width="199" height="64" fill="none" viewBox="0 0 199 64">
    <path fill="#333" d="M15.107 9.762c0 .05.017.084.051.101.034.017.068.009.102-.025l.61-.533c.338-.271.727-.415 1.167-.432h.05c.407 0 .78.135 1.118.406 3.03 2.336 5.129 4.071 6.297 5.205.288.271.432.593.432.965 0 .44-.161.804-.483 1.092l-1.015.914c-.288.254-.61.38-.965.38h-.127c-.407-.033-.745-.202-1.016-.507-1.303-1.371-3.326-3.216-6.068-5.535-.034-.017-.068-.017-.102 0-.034.017-.05.042-.05.076v11.045c0 .423-.153.779-.458 1.066-.287.288-.634.432-1.04.432H12.44c-.406 0-.761-.144-1.066-.431-.288-.288-.432-.644-.432-1.067V12.86c0-.034-.017-.059-.05-.076-.034-.017-.06-.008-.077.026-1.912 1.963-3.977 3.597-6.195 4.9-.254.135-.508.203-.762.203-.135 0-.27-.017-.406-.05-.406-.102-.728-.322-.965-.66-.27-.373-.541-.737-.812-1.093-.186-.22-.28-.457-.28-.71 0-.085.009-.178.026-.28.085-.355.288-.626.61-.812 1.895-1.033 3.639-2.32 5.23-3.86 1.608-1.557 2.962-3.207 4.062-4.95.017-.035.009-.069-.025-.102-.017-.034-.042-.051-.076-.051H3.098c-.407 0-.762-.144-1.067-.432-.288-.305-.431-.66-.431-1.066v-.889c0-.406.143-.753.431-1.041.305-.305.66-.457 1.067-.457h19.855c.406 0 .753.152 1.041.457.305.288.457.635.457 1.041v.889c0 .406-.152.761-.457 1.066-.288.288-.635.432-1.04.432H16.63c-.136 0-.237.05-.305.152-.372.66-.745 1.27-1.117 1.828-.068.119-.102.237-.102.356v2.082zm24.045 2.26c0 .423-.144.778-.431 1.066-.288.288-.643.432-1.067.432h-2.539c-.135 0-.211.067-.228.203 0 .118-.009.211-.026.279-.033.135-.008.245.077.33.947.965 2.166 2.319 3.656 4.063.288.338.431.727.431 1.168 0 .423-.127.803-.38 1.142l-.686.863c-.22.254-.49.381-.813.381h-.076c-.372-.017-.66-.178-.863-.482-.694-1.05-1.464-2.133-2.31-3.25-.034-.034-.077-.043-.127-.026-.034 0-.06.017-.077.051-.812 2.082-1.955 3.809-3.427 5.18-.254.237-.542.355-.864.355H29.2c-.39-.05-.728-.237-1.015-.558-.204-.237-.424-.466-.66-.686-.255-.27-.381-.592-.381-.965 0-.389.143-.719.431-.99 1.845-1.743 3.013-4.029 3.504-6.855.017-.136-.042-.204-.178-.204h-2.539c-.423 0-.778-.143-1.066-.431-.288-.288-.432-.643-.432-1.066v-.56c0-.422.144-.778.432-1.066.288-.287.643-.431 1.066-.431h2.819c.135 0 .203-.068.203-.203V6.639c0-.119-.068-.178-.203-.178h-.102c-.118 0-.203.06-.254.178-.254.592-.516 1.142-.787 1.65-.186.339-.474.542-.863.61-.085.016-.17.025-.254.025-.288 0-.559-.093-.813-.28-.186-.152-.38-.296-.584-.431-.338-.237-.55-.559-.634-.965-.034-.118-.051-.237-.051-.355 0-.271.068-.534.203-.788.694-1.32 1.253-2.936 1.676-4.85.084-.388.296-.702.635-.939.253-.169.524-.254.812-.254.085 0 .186.009.305.026l.66.152c.406.068.728.28.965.635.152.237.228.49.228.762 0 .118-.008.237-.025.355-.068.271-.136.533-.203.787-.017.051-.017.093 0 .127.034.034.076.051.127.051h4.875c.406 0 .753.152 1.04.457.305.288.458.635.458 1.041v.508c0 .406-.153.762-.457 1.066-.288.288-.635.432-1.041.432h-1.701c-.136 0-.204.06-.204.178v3.123c0 .135.068.203.203.203h2.26c.423 0 .779.144 1.067.431.288.288.431.644.431 1.067v.559zm4.266 6.17c0 .135.068.203.203.203h2.412c.136 0 .203-.068.203-.204V5.725c0-.119-.067-.178-.203-.178h-2.412c-.135 0-.203.06-.203.178V18.19zM39.762 3.515c0-.424.144-.779.431-1.067.288-.288.644-.431 1.067-.431h7.312c.423 0 .779.143 1.067.431.287.288.431.643.431 1.067v18.28c0 .424-.144.78-.431 1.067-.288.288-.644.432-1.067.432h-1.117c-.338 0-.626-.119-.863-.356-.237-.236-.356-.524-.356-.863 0-.101-.05-.152-.152-.152h-2.463c-.135 0-.203.06-.203.178v.127c0 .406-.144.753-.432 1.04-.287.305-.643.458-1.066.458h-.66c-.423 0-.779-.153-1.067-.457-.287-.288-.431-.635-.431-1.041V3.515zm31.357 6.398c.136 0 .203-.068.203-.203v-.482c0-.136-.067-.204-.203-.204h-5.332c-.118 0-.178.068-.178.204v.482c0 .135.06.203.178.203h5.332zm0 3.326c.136 0 .203-.068.203-.203v-.482c0-.136-.067-.203-.203-.203h-5.332c-.118 0-.178.067-.178.203v.482c0 .135.06.203.178.203h5.332zm0 3.352c.136 0 .203-.06.203-.178v-.508c0-.135-.067-.203-.203-.203h-5.332c-.118 0-.178.068-.178.203v.508c0 .119.06.178.178.178h5.332zm-9.09-8.735c0-.423.144-.778.432-1.066.305-.288.66-.432 1.066-.432h2.184c.135 0 .212-.067.228-.203.051-.169.094-.372.127-.61.017-.118-.033-.177-.152-.177h-4.266c-.423 0-.778-.144-1.066-.431-.288-.305-.432-.66-.432-1.067v-.025c0-.423.144-.779.432-1.067.288-.287.643-.431 1.066-.431h1.473c.034 0 .06-.017.076-.051.034-.034.043-.076.026-.127-.017-.017-.026-.034-.026-.05-.118-.204-.178-.416-.178-.636 0-.135.017-.27.051-.406.119-.355.356-.6.711-.736l.153-.051c.237-.102.474-.152.71-.152.187 0 .381.034.584.101.424.119.762.364 1.016.737.322.474.55.897.686 1.27.017.05 0 .084-.051.1h2.412c.118 0 .212-.059.28-.177.186-.356.346-.703.482-1.041.186-.39.465-.686.838-.889.27-.152.55-.228.837-.228.119 0 .238.008.356.025l.863.178c.356.084.601.288.737.61.067.152.101.287.101.405 0 .204-.06.39-.178.56l-.254.405c-.033.034-.042.068-.025.102.034.034.068.05.102.05h1.955c.406 0 .753.145 1.04.432.306.288.458.644.458 1.067v.025c0 .406-.152.762-.457 1.067-.288.287-.635.431-1.041.431H70.28c-.118 0-.211.05-.279.152 0 .034-.042.136-.127.305-.085.153-.152.271-.203.356-.017.033-.017.076 0 .127.017.033.05.05.101.05h3.784c.423 0 .778.144 1.066.432.288.288.432.643.432 1.066v9.903c0 .423-.144.778-.432 1.066-.288.288-.643.432-1.066.432h-10.03c-.406 0-.761-.144-1.066-.432-.288-.288-.432-.643-.432-1.066V7.857zM59.033 3.11c.271.271.407.584.407.94 0 .034-.009.076-.026.127-.034.406-.212.745-.533 1.015l-.711.584c-.27.22-.567.33-.889.33-.05 0-.11-.008-.178-.025-.389-.034-.719-.212-.99-.533-.558-.626-1.227-1.278-2.006-1.955-.287-.254-.431-.567-.431-.94 0-.406.152-.728.457-.965l.482-.38c.339-.271.728-.415 1.168-.432h.051c.423 0 .796.135 1.117.406.813.643 1.507 1.253 2.082 1.828zm-1.092 6.729c.407 0 .754.144 1.041.432.305.287.458.643.458 1.066v6.475c0 .135.033.253.101.355.897 1.354 2.624 2.082 5.18 2.184 1.27.067 2.573.101 3.91.101 2.387 0 4.866-.085 7.44-.254h.076c.304 0 .55.127.736.381.135.17.203.356.203.559 0 .101-.025.211-.076.33-.102.338-.203.668-.305.99-.118.44-.347.804-.686 1.092-.338.288-.719.431-1.142.431-1.98.085-3.834.127-5.56.127-1.676 0-3.234-.033-4.672-.101-1.575-.068-2.895-.296-3.961-.686-1.05-.389-1.98-1.04-2.793-1.955-.085-.101-.17-.11-.254-.025-.813.71-1.566 1.354-2.26 1.93-.22.169-.457.253-.711.253-.101 0-.195-.008-.28-.025-.372-.085-.643-.305-.812-.66l-.558-1.219c-.102-.22-.153-.448-.153-.685 0-.153.026-.322.077-.508.135-.39.38-.694.736-.914.694-.424 1.329-.838 1.904-1.244.102-.085.152-.187.152-.305v-4.469c0-.118-.059-.178-.177-.178h-.99c-.407 0-.762-.144-1.067-.431-.288-.305-.432-.66-.432-1.067v-.482c0-.423.144-.779.432-1.066.305-.288.66-.432 1.067-.432h3.376zm24.73 12.695c-.27.339-.625.525-1.066.559h-.177c-.373 0-.72-.102-1.041-.305l-.66-.457c-.305-.203-.474-.5-.508-.889v-.127c0-.321.11-.609.33-.863.778-.948 1.405-2.065 1.879-3.351.135-.39.38-.686.736-.89.22-.118.44-.177.66-.177.153 0 .305.026.457.076l.559.178c.39.136.685.39.888.762.119.22.178.448.178.685 0 .153-.025.305-.076.457-.558 1.795-1.278 3.242-2.158 4.342zm7.973-1.803h2.743c.304 0 .525-.05.66-.152.152-.101.262-.296.33-.584.085-.322.28-.567.584-.736.17-.085.338-.127.508-.127.135 0 .279.025.431.076.17.068.356.135.559.203.406.152.728.398.965.736.17.254.254.517.254.788 0 .118-.017.237-.051.355-.254 1.05-.677 1.769-1.27 2.158-.575.407-1.447.61-2.615.61h-3.605c-1.236 0-2.175-.136-2.819-.407-.643-.27-1.091-.694-1.345-1.27-.237-.575-.356-1.404-.356-2.487v-2.26c0-.423.144-.779.432-1.067.304-.287.66-.431 1.066-.431h2.057c.017 0 .025-.009.025-.026.017-.017.017-.034 0-.05-.186-.136-.288-.314-.304-.534-.017-.237.067-.431.254-.584l.304-.254c.017-.016.017-.033 0-.05 0-.034-.008-.051-.025-.051-.339 0-.635-.119-.889-.356-.237-.237-.355-.524-.355-.863V5.852c0-.119-.06-.178-.178-.178h-1.549c-.118 0-.212.05-.28.152-.964 1.557-2.013 2.912-3.148 4.063-.287.287-.634.431-1.04.431h-.026c-.423 0-.796-.144-1.117-.431-.322-.288-.643-.567-.965-.838-.288-.237-.432-.542-.432-.914 0-.373.144-.686.432-.94 1.794-1.608 3.208-3.64 4.24-6.093.153-.39.415-.686.787-.89.254-.135.508-.202.762-.202.135 0 .27.017.406.05l1.117.28c.39.101.677.33.864.685.101.187.152.381.152.584 0 .17-.034.33-.101.483-.034.067-.06.127-.077.177-.017.034-.017.077 0 .127.034.034.077.051.127.051h12.696c.423 0 .778.153 1.066.457.288.288.432.635.432 1.041v.229c0 .406-.144.761-.432 1.066-.288.288-.643.432-1.066.432h-8.659c-.118 0-.177.06-.177.178v.457c0 .135.059.203.177.203h7.16c.39 0 .728.144 1.016.431.288.271.432.61.432 1.016s-.144.753-.432 1.041c-.288.27-.626.406-1.016.406h-7.16c-.118 0-.177.068-.177.203v.61c0 .118.059.178.177.178h7.846c.406 0 .753.152 1.041.457.305.287.457.634.457 1.04v.077c0 .423-.152.778-.457 1.066-.288.288-.635.432-1.041.432h-7.846c-.118 0-.177.068-.177.203v.178c0 .135.05.237.152.304.762.525 1.43 1.041 2.006 1.55.27.253.406.566.406.939 0 .44-.17.804-.508 1.091l-.508.407c-.27.237-.575.355-.914.355-.05 0-.101-.008-.152-.025-.406-.034-.753-.195-1.041-.483-.575-.558-1.227-1.117-1.955-1.675-.017-.017-.05-.017-.102 0-.034.016-.05.042-.05.076v3.453c0 .39.076.635.228.736.153.102.508.152 1.066.152zm6.374-2.69c-.17-.221-.254-.466-.254-.737 0-.085.017-.178.05-.28.085-.372.297-.643.635-.812l.508-.229c.27-.135.55-.203.838-.203.135 0 .28.017.432.051.44.085.795.305 1.066.66 1.1 1.338 1.964 2.624 2.59 3.86.101.203.152.414.152.634 0 .17-.042.347-.127.534-.152.389-.423.677-.812.863l-.787.355c-.187.085-.381.127-.584.127-.17 0-.339-.034-.508-.101-.373-.153-.643-.415-.813-.787-.575-1.27-1.37-2.582-2.386-3.936zm27.269-11.452h1.524c.203 0 .347-.034.431-.102.085-.084.153-.245.203-.482.034-.119-.017-.178-.152-.178h-2.488c-.136 0-.203.068-.203.203.016.237.067.39.152.457.085.068.262.102.533.102zm.381-3.098c.118 0 .178-.067.178-.203v-.33c0-.135-.06-.203-.178-.203h-3.453c-.305 0-.576-.11-.813-.33-.22-.22-.33-.491-.33-.813 0-.321.11-.592.33-.812.237-.237.508-.356.813-.356h5.332c.423 0 .779.153 1.066.457.288.288.432.635.432 1.041v2.616c0 .355-.127.66-.381.914-.237.237-.533.355-.889.355-.017 0-.025.017-.025.051v.025c.237.136.525.263.863.381.423.153.745.406.965.762.119.186.178.364.178.533 0 .17-.059.339-.178.508-.406.626-1.202.94-2.387.94h-2.412c-1.269 0-2.133-.212-2.59-.635-.44-.44-.66-1.261-.66-2.463v-.94c0-.423.144-.778.432-1.066.305-.288.66-.432 1.066-.432h2.641zm-8.938 3.098h1.524c.203 0 .347-.034.432-.102.101-.084.169-.245.203-.482.034-.119-.017-.178-.153-.178h-2.488c-.135 0-.203.068-.203.203.017.237.068.39.152.457.085.068.263.102.533.102zm.331-3.098c.118 0 .177-.067.177-.203v-.33c0-.135-.059-.203-.177-.203h-3.25c-.322 0-.601-.11-.838-.33-.22-.22-.33-.491-.33-.813 0-.321.11-.592.33-.812.237-.237.516-.356.838-.356h5.078c.423 0 .778.153 1.066.457.288.288.432.635.432 1.041v2.717c0 .322-.119.601-.356.838-.22.22-.491.33-.812.33-.017 0-.034.017-.051.051 0 .017.008.025.025.025.237.136.525.263.864.381.44.153.761.406.964.762.119.186.178.364.178.533 0 .17-.059.339-.178.508-.406.626-1.193.94-2.361.94h-2.437c-1.27 0-2.133-.212-2.59-.635-.44-.44-.66-1.261-.66-2.463v-.94c0-.423.144-.778.431-1.066.305-.288.66-.432 1.067-.432h2.59zm-5.891-.127c.169.254.254.525.254.813 0 .101-.009.203-.026.304-.101.407-.33.728-.685.965l-.711.483c-.237.135-.482.203-.736.203-.119 0-.237-.017-.356-.05-.372-.086-.668-.306-.889-.661-.423-.643-.939-1.329-1.548-2.057-.203-.237-.305-.508-.305-.812 0-.068.008-.136.025-.203.051-.39.237-.694.559-.914l.457-.28c.305-.186.635-.279.99-.279h.229c.44.05.804.237 1.092.559.66.694 1.21 1.337 1.65 1.93zm7.592 13.584c-.017 0-.026.009-.026.026s.009.034.026.05l.508.178c.304.102.49.313.558.635v.178c0 .237-.11.431-.33.584-1.033.71-2.209 1.345-3.529 1.904-.017 0-.026.017-.026.05 0 .018.009.026.026.026l.812.076c1.236.051 2.624.076 4.164.076 1.507 0 3.157-.025 4.951-.076.034 0 .051-.017.051-.05.017-.034.009-.06-.025-.077-.813-.609-1.735-1.21-2.768-1.802-.287-.153-.431-.398-.431-.737 0-.304.135-.533.406-.685l.457-.254c.017-.017.017-.034 0-.051 0-.034-.009-.05-.025-.05h-4.799zm1.345-4.037c-.118 0-.177.06-.177.178v.94c0 .135.059.202.177.202h1.93c.136 0 .203-.067.203-.203v-.94c0-.118-.067-.177-.203-.177h-1.93zm8.76 5.713c.254.152.364.38.33.686-.034.287-.194.482-.482.584l-1.93.66c-.017.017-.025.034-.025.05h.025c.863-.016 1.659-.05 2.387-.101h.076c.305 0 .55.127.736.38.136.17.204.356.204.56 0 .118-.026.236-.077.355l-.203.66c-.135.423-.372.77-.711 1.041-.338.288-.719.44-1.142.457-2.218.085-4.283.127-6.196.127-1.828 0-3.52-.034-5.078-.102-1.523-.067-2.793-.304-3.808-.71-.999-.407-1.871-1.067-2.616-1.98-.067-.102-.143-.102-.228 0-.542.575-1.168 1.2-1.879 1.878-.22.203-.465.305-.736.305h-.229c-.355-.068-.618-.271-.787-.61l-.432-.914c-.118-.254-.177-.508-.177-.762 0-.135.025-.287.076-.457.101-.406.33-.736.685-.99.525-.39 1.008-.761 1.448-1.117.101-.085.152-.195.152-.33v-4.799c0-.118-.068-.178-.203-.178h-.711c-.423 0-.779-.144-1.066-.431-.288-.305-.432-.66-.432-1.067v-.482c0-.423.144-.779.432-1.066.287-.288.643-.432 1.066-.432h2.92c.423 0 .779.144 1.066.432.288.287.432.643.432 1.066v6.652c0 .136.034.254.101.356.61 1.015 1.566 1.692 2.87 2.031.017 0 .033-.009.05-.025.017-.017.017-.034 0-.051-.304-.288-.651-.584-1.041-.889-.186-.152-.279-.338-.279-.558v-.178c.068-.288.246-.483.533-.584 1.016-.322 1.871-.669 2.565-1.041.034-.017.042-.034.025-.051 0-.034-.017-.05-.051-.05h-2.742c-.389 0-.719-.128-.99-.382-.254-.27-.381-.592-.381-.964 0-.39.127-.711.381-.965.271-.271.601-.407.99-.407h2.412c.136 0 .203-.067.203-.203v-.94c0-.118-.067-.177-.203-.177h-1.726c-.373 0-.686-.127-.94-.38-.254-.271-.381-.593-.381-.965 0-.373.127-.686.381-.94.254-.27.567-.406.94-.406h1.802c.085 0 .127-.043.127-.127 0-.271.093-.5.28-.686.186-.203.423-.304.711-.304h1.548c.271 0 .5.101.686.304.203.186.305.415.305.686 0 .084.042.127.127.127h2.056c.085 0 .127-.043.127-.127 0-.271.093-.5.28-.686.203-.203.44-.304.71-.304h1.6c.271 0 .499.101.686.304.203.186.304.415.304.686 0 .084.043.127.127.127h1.905c.355 0 .66.135.914.406.27.254.406.567.406.94 0 .372-.136.694-.406.964-.254.254-.559.381-.914.381h-1.829c-.135 0-.203.06-.203.178v.94c0 .135.068.202.203.202h2.59c.39 0 .711.136.965.407.271.254.406.575.406.965 0 .372-.135.694-.406.964-.254.254-.575.381-.965.381h-2.818c-.034 0-.059.017-.076.051 0 .017.017.034.051.05 1.218.593 2.251 1.118 3.097 1.575zm10.106 2.387c0-.051-.017-.093-.051-.127-.017-.034-.051-.051-.102-.051-.761 0-1.413-.237-1.955-.71-.541-.475-.812-1.11-.812-1.905 0-.762.271-1.38.812-1.854.559-.49 1.244-.736 2.057-.736 1.016 0 1.794.347 2.336 1.041.541.694.812 1.65.812 2.87 0 1.32-.372 2.513-1.117 3.58-.728 1.083-1.769 1.912-3.123 2.488-.169.067-.33.101-.482.101-.187 0-.364-.042-.534-.127-.355-.152-.6-.415-.736-.787-.051-.135-.076-.28-.076-.432 0-.186.042-.364.127-.533.152-.322.398-.567.736-.736 1.151-.542 1.854-1.236 2.108-2.082zM24.019 42.363c.204.254.305.534.305.838 0 .085-.008.17-.025.254-.085.406-.305.736-.66.99l-.559.381c-.254.17-.516.254-.787.254-.102 0-.203-.017-.305-.05-.389-.085-.702-.288-.94-.61-.456-.626-1.006-1.278-1.65-1.955-.236-.237-.355-.525-.355-.863 0-.44.178-.78.533-1.016l.356-.254c.321-.22.677-.33 1.066-.33h.127c.457.034.838.203 1.143.508.677.66 1.26 1.278 1.752 1.853zM20.16 51.53c.237-.372.559-.618.965-.736.17-.068.347-.102.533-.102.22 0 .44.043.66.127l.559.254c.372.153.618.423.736.813.051.135.076.27.076.406 0 .22-.067.44-.203.66-.93 1.439-2.04 2.819-3.326 4.139-.101.101-.127.211-.076.33.559 1.54 1.1 2.31 1.625 2.31.372 0 .626-.888.762-2.665.034-.288.186-.483.457-.584.27-.119.516-.094.736.076.22.169.44.33.66.482.39.254.686.576.889.965.152.288.228.584.228.889 0 .118-.008.228-.025.33-.305 1.692-.762 2.835-1.371 3.427-.61.61-1.515.915-2.717.915-1.659 0-3.072-1.168-4.24-3.505-.05-.118-.127-.143-.229-.076-.93.711-1.92 1.371-2.97 1.98-.254.153-.508.23-.762.23-.136 0-.27-.018-.406-.051-.39-.102-.72-.322-.99-.66-.204-.255-.415-.508-.635-.762-.187-.22-.28-.466-.28-.737 0-.067.009-.135.026-.203.067-.355.254-.618.558-.787 1.49-.762 2.886-1.642 4.19-2.64.101-.068.135-.17.101-.305-.507-1.88-.905-3.978-1.193-6.297-.017-.136-.085-.203-.203-.203h-4.52c-.118 0-.177.068-.177.203v1.93c0 .135.059.186.177.152l2.082-.33h.229c.305 0 .584.093.838.28.321.253.5.583.533.99l.025.431v.152c0 .373-.11.711-.33 1.016-.27.339-.609.542-1.015.61-1.27.253-2.057.406-2.362.457-.118.033-.177.11-.177.228v3.504c0 .999-.119 1.76-.356 2.285-.22.542-.618.965-1.193 1.27-.762.389-1.896.617-3.403.685H4.57c-.389 0-.744-.127-1.066-.38-.339-.272-.576-.619-.711-1.042-.102-.321-.22-.651-.356-.99-.05-.135-.076-.262-.076-.38 0-.187.06-.365.178-.534.17-.27.423-.406.762-.406H5.154c.237 0 .398-.034.483-.102.084-.085.127-.237.127-.457v-2.717c0-.118-.06-.169-.178-.152l-2.59.482c-.101.017-.195.026-.28.026-.304 0-.592-.085-.862-.254-.339-.237-.56-.559-.66-.965l-.204-.914c-.034-.102-.05-.212-.05-.33 0-.254.084-.5.253-.736.237-.339.55-.534.94-.584 1.27-.17 2.42-.339 3.453-.508.118-.017.178-.085.178-.203v-2.514c0-.136-.06-.203-.178-.203H2.69c-.406 0-.761-.144-1.066-.432-.288-.288-.432-.643-.432-1.066v-.559c0-.406.144-.753.432-1.04.305-.305.66-.458 1.066-.458h2.895c.118 0 .178-.06.178-.178v-1.93c0-.135-.06-.194-.178-.177l-2.107.28h-.204c-.338 0-.66-.102-.964-.305-.339-.254-.576-.593-.711-1.016-.034-.102-.077-.212-.127-.33-.051-.136-.077-.28-.077-.432 0-.203.06-.398.178-.584.186-.321.457-.508.813-.558 2.793-.407 5.29-.906 7.49-1.498.203-.051.406-.076.61-.076.236 0 .465.033.685.101.44.135.795.38 1.066.736l.686.864c.152.186.228.389.228.609 0 .102-.017.212-.05.33-.119.339-.347.55-.686.635-.745.17-1.625.355-2.64.558-.12.017-.178.093-.178.229v2.564c0 .119.059.178.177.178h4.19c.118 0 .17-.06.152-.178-.17-2.268-.254-4.062-.254-5.382 0-.39.144-.728.432-1.016.288-.288.643-.432 1.066-.432h.94c.423 0 .778.144 1.066.432.288.288.432.643.432 1.066 0 1.744.067 3.521.203 5.332.017.119.085.178.203.178h5.154c.407 0 .754.153 1.041.457.305.288.457.635.457 1.041v.559c0 .423-.152.778-.457 1.066-.287.288-.634.432-1.04.432h-4.8c-.118 0-.169.068-.152.203.203 1.354.381 2.404.533 3.148 0 .051.017.085.051.102.051 0 .085-.017.102-.05.39-.475.744-.949 1.066-1.423zm18.738-8.43c0-.135-.067-.202-.203-.202h-.914c-.118 0-.178.067-.178.203v.609c0 .118.06.178.178.178h.914c.136 0 .203-.06.203-.178v-.61zm-1.295 4.24c0 .136.06.204.178.204h.914c.136 0 .203-.068.203-.203v-.635c0-.118-.067-.178-.203-.178h-.914c-.118 0-.178.06-.178.178v.635zm2.59-7.236c.424 0 .779.144 1.067.432.288.288.431.643.431 1.067v7.236c0 .423-.144.779-.431 1.066-.288.288-.643.432-1.067.432h-2.412c-.118 0-.178.068-.178.203v11.35c0 .423-.152.778-.456 1.066-.288.288-.635.432-1.041.432h-.508c-.407 0-.762-.144-1.067-.432-.288-.288-.431-.643-.431-1.066v-20.44c0-.017-.009-.025-.026-.025s-.025.008-.025.025c-.491 1.32-.931 2.395-1.32 3.225-.051.118-.077.245-.077.38V61.94c0 .423-.144.778-.431 1.066-.288.288-.643.431-1.067.431h-.584c-.423 0-.778-.143-1.066-.431-.288-.288-.432-.643-.432-1.066V51.478c0-.033-.017-.05-.05-.05-.034-.017-.06-.017-.077 0-.017.034-.034.059-.05.076-.153.22-.356.33-.61.33-.05 0-.101-.009-.152-.025-.322-.051-.542-.229-.66-.534-.203-.49-.407-.965-.61-1.422-.152-.321-.228-.66-.228-1.015 0-.085.008-.178.025-.28.05-.44.203-.846.457-1.218 1.439-2.031 2.624-4.41 3.555-7.135.135-.39.38-.685.736-.889.237-.118.474-.177.711-.177.153 0 .296.017.432.05l1.802.534c.17.05.22.16.153.33 0 .034.008.05.025.05h5.662zm5.383 7.237c0 .135.068.203.203.203h1.092c.119 0 .178-.068.178-.203v-.635c0-.118-.06-.178-.178-.178H45.78c-.135 0-.203.06-.203.178v.635zm1.473-4.24c0-.136-.06-.203-.178-.203H45.78c-.135 0-.203.067-.203.203v.609c0 .118.068.178.203.178h1.092c.119 0 .178-.06.178-.178v-.61zm2.107-2.997c.407 0 .754.144 1.041.432.305.288.457.643.457 1.067v17.646c0 .982-.118 1.735-.355 2.26-.22.525-.618.93-1.194 1.219-.778.389-2.056.609-3.833.66h-.026c-.406 0-.77-.136-1.092-.407-.338-.27-.575-.617-.71-1.04-.085-.271-.17-.534-.255-.788-.05-.118-.076-.237-.076-.355 0-.186.06-.364.178-.533.186-.271.44-.407.762-.407h.025c.559.017 1.041.026 1.447.026.339 0 .627-.009.864-.026.254 0 .423-.042.508-.127.101-.101.152-.279.152-.533V50.54c0-.135-.06-.203-.178-.203H44.13c-.406 0-.762-.144-1.066-.432-.288-.288-.432-.643-.432-1.066v-7.236c0-.424.144-.78.431-1.067.305-.288.66-.431 1.067-.431h5.027zm9.623 7.592c-.423 0-.778-.144-1.066-.431-.288-.305-.432-.66-.432-1.067v-.99c0-.05-.017-.085-.05-.102-.034-.016-.068-.016-.102 0-.288.204-.584.398-.889.585-.288.169-.584.253-.888.253-.102 0-.204-.008-.305-.025-.44-.085-.804-.288-1.092-.61-.203-.203-.39-.397-.558-.583-.204-.203-.305-.44-.305-.711v-.178c.05-.339.237-.593.558-.762 1.947-.982 3.58-2.133 4.9-3.453.322-.322.695-.533 1.118-.635.17-.05.347-.076.533-.076.254 0 .5.043.736.127l.61.229c.355.135.575.38.66.736.034.101.05.203.05.305 0 .237-.092.457-.279.66-.287.305-.6.626-.939.965-.102.101-.152.211-.152.33v3.935c0 .406-.144.762-.432 1.067-.288.287-.643.431-1.066.431h-.61zm1.371 8.328c-.135 0-.203.068-.203.204v.38c0 .119.068.178.203.178h9.903c.135 0 .203-.06.203-.178v-.38c0-.136-.068-.204-.203-.204H60.15zm0-2.767c-.135 0-.203.06-.203.178v.355c0 .136.068.203.203.203h9.903c.135 0 .203-.067.203-.203v-.355c0-.119-.068-.178-.203-.178H60.15zm0-2.793c-.135 0-.203.068-.203.203v.33c0 .136.068.203.203.203h9.903c.135 0 .203-.067.203-.203v-.33c0-.135-.068-.203-.203-.203H60.15zm14.168-6.627c0-.034-.017-.068-.05-.102-.034-.05-.077-.076-.127-.076l-3.936.254c-.034 0-.06.017-.076.05 0 .035.008.06.025.077.982.813 2.049 1.219 3.2 1.219.304 0 .524-.093.66-.28.135-.203.237-.584.304-1.142zm-.254 13.61c0 .422-.143.778-.431 1.066-.288.288-.643.431-1.067.431h-2.158c-.017 0-.025.009-.025.026s.008.034.025.05c2.218.898 3.97 1.642 5.256 2.235.254.118.373.313.355.584-.016.288-.152.482-.406.584l-1.675.61c-.356.135-.711.202-1.067.202-.542 0-1.083-.152-1.625-.457-1.15-.643-2.42-1.27-3.808-1.879-.288-.118-.432-.347-.432-.685 0-.27.127-.474.38-.61l.991-.558c.017-.017.017-.034 0-.05 0-.035-.008-.052-.025-.052h-6.577c-.017 0-.025.017-.025.051 0 .017.008.026.025.026l.813.38c.322.136.482.381.482.737 0 .288-.127.508-.38.66-1.592.863-3.437 1.642-5.536 2.336-.237.067-.474.101-.71.101-.204 0-.407-.025-.61-.076-.44-.118-.821-.347-1.143-.685l-.66-.66c-.101-.102-.169-.22-.203-.356-.017-.068-.025-.135-.025-.203s.008-.127.025-.178c.034-.135.093-.254.178-.355.101-.102.228-.161.38-.178 1.913-.423 3.564-.931 4.952-1.523.017 0 .025-.009.025-.026 0-.034-.017-.05-.05-.05h-1.498c-.407 0-.762-.145-1.067-.432-.288-.288-.432-.644-.432-1.067v-7.668c0-.406.144-.753.432-1.04.305-.305.66-.458 1.067-.458H70.94c0-.017-.008-.034-.025-.05-2.133-.576-3.842-1.862-5.129-3.86-.068-.101-.17-.152-.305-.152l-2.36.127c-.018.017-.043.025-.077.025-.355 0-.669-.118-.94-.355-.287-.254-.457-.576-.507-.965v-.152c0-.305.101-.584.304-.838.254-.288.567-.44.94-.457l1.447-.102c.119 0 .16-.06.127-.178-.102-.338-.186-.694-.254-1.066-.017-.102-.025-.195-.025-.28 0-.27.101-.524.304-.761.254-.305.584-.457.99-.457h.483c.423 0 .796.144 1.117.431.339.271.567.618.686 1.041.101.305.211.601.33.89.05.118.135.168.254.152l2.463-.127c.017 0 .025-.009.025-.026s-.008-.034-.025-.05c-.339-.12-.644-.22-.914-.305-.271-.085-.449-.254-.534-.508-.067-.271-.008-.508.178-.711.271-.288.584-.491.94-.61.203-.067.406-.101.609-.101.152 0 .313.025.482.076.813.203 1.583.449 2.31.737.238.084.382.262.433.533.05.254-.009.482-.178.685-.017 0-.017.017 0 .051.017.017.034.025.05.025l.99-.05h.077c.339 0 .643.11.914.33.288.254.449.567.483.94.016.05.025.1.025.151 0 .305-.102.576-.305.813-.237.288-.541.44-.914.457l-.838.05c-.034.018-.059.043-.076.077 0 .017.017.034.05.05.306.22.686.432 1.143.636.407.186.72.465.94.837.135.22.203.458.203.711 0 .136-.025.28-.076.432-.22.694-.525 1.202-.914 1.523-.39.305-.914.508-1.574.61-.136.017-.204.084-.204.203v8.734zm9.167-17.165c.169-.39.44-.677.812-.863.22-.118.448-.178.685-.178.153 0 .314.026.483.076l.686.229c.389.118.677.364.863.736.084.186.127.381.127.584 0 .17-.034.339-.102.508-.525 1.253-1.1 2.48-1.726 3.682-.068.101-.102.22-.102.355v16.53c0 .423-.144.778-.432 1.066-.287.288-.643.431-1.066.431h-.584c-.406 0-.762-.143-1.066-.431-.288-.288-.432-.643-.432-1.066V50.995c0-.034-.017-.05-.05-.05-.018-.018-.043-.018-.077 0-.05.067-.102.143-.152.228-.186.203-.415.304-.686.304h-.152c-.339-.067-.584-.253-.737-.558-.22-.457-.44-.897-.66-1.32-.152-.305-.228-.635-.228-.99v-.255c.05-.44.22-.829.508-1.167 1.641-1.964 3.004-4.266 4.088-6.907zm5.078 11.883c.101-.406.33-.72.685-.94.237-.169.5-.253.787-.253.102 0 .212.008.33.025l.711.152c.406.085.72.305.94.66.152.238.228.483.228.737 0 .118-.017.245-.05.38-.593 2.235-1.355 4.207-2.286 5.917-.186.338-.474.55-.863.635-.102.017-.203.025-.305.025-.287 0-.558-.085-.812-.254-.22-.135-.449-.28-.686-.432-.321-.203-.533-.499-.635-.888-.016-.119-.025-.237-.025-.356 0-.254.068-.5.203-.736.728-1.286 1.32-2.844 1.778-4.672zm11.07-5.256c.017-.118-.042-.178-.178-.178h-2.31c-.136 0-.204.06-.204.178V59.35c0 .914-.093 1.633-.279 2.158-.186.525-.533.94-1.04 1.244-.661.372-1.524.6-2.59.685h-.128c-.372 0-.71-.118-1.015-.355-.339-.27-.567-.618-.686-1.041-.101-.322-.211-.643-.33-.965-.05-.135-.076-.262-.076-.38 0-.187.06-.365.178-.534.186-.288.448-.431.787-.431h.965c.186 0 .313-.026.38-.077.068-.067.102-.186.102-.355v-12.39c0-.12-.068-.178-.203-.178h-2.108c-.118 0-.211.05-.279.152-.457.846-.93 1.633-1.422 2.361-.237.322-.558.5-.965.533-.033.017-.076.026-.126.026-.356 0-.66-.119-.915-.356-.253-.203-.499-.406-.736-.61-.321-.236-.5-.558-.533-.964-.017-.068-.025-.127-.025-.178 0-.321.101-.617.304-.888 1.304-1.76 2.362-3.936 3.174-6.526.119-.39.356-.694.711-.914.254-.152.516-.228.787-.228.119 0 .237.017.356.05l.812.178c.39.102.686.322.889.66.135.22.203.449.203.686 0 .135-.026.28-.076.431-.22.678-.449 1.32-.686 1.93-.017.034-.017.076 0 .127.034.034.068.051.102.051h7.871c.034 0 .076-.009.127-.025.169-.034.338-.051.508-.051.169 0 .338.017.507.05l.838.153c.373.068.669.254.889.559.186.236.279.499.279.787 0 .084-.008.16-.025.228-.169 1.185-.381 2.378-.635 3.58-.068.407-.279.728-.635.965-.254.186-.533.28-.838.28-.101 0-.203-.01-.304-.026l-.254-.05c-.423-.085-.753-.297-.99-.636-.204-.27-.305-.575-.305-.914v-.203c.05-.355.093-.702.127-1.04zm-1.727 6.018c-.067-.186-.101-.364-.101-.533 0-.203.042-.398.127-.584.169-.373.448-.627.838-.762l.533-.178c.186-.068.364-.101.533-.101.22 0 .44.05.66.152.39.17.669.448.838.838.745 1.828 1.32 3.673 1.727 5.535.033.118.05.237.05.355 0 .288-.076.567-.228.838-.22.373-.542.627-.965.762l-.812.305c-.136.034-.271.05-.407.05-.203 0-.406-.059-.61-.177-.32-.203-.515-.491-.583-.864-.339-1.828-.872-3.706-1.6-5.636zm14.879-2.97c.102-.018.212-.026.33-.026.254 0 .5.076.737.228.338.237.533.55.584.94l.05.508c.017.084.026.16.026.228 0 .338-.102.652-.305.94-.237.355-.567.583-.99.685-.491.135-.897.245-1.219.33-.118.017-.178.093-.178.229v5.408c0 .88-.093 1.557-.279 2.031-.186.49-.516.863-.99 1.117-.626.373-1.532.593-2.717.66h-.101c-.373 0-.711-.127-1.016-.38-.339-.271-.567-.627-.686-1.067-.05-.17-.11-.347-.177-.533-.034-.119-.051-.237-.051-.356 0-.203.068-.397.203-.584.186-.287.457-.431.812-.431h.813c.186 0 .313-.034.381-.102.084-.084.127-.211.127-.38v-4.495c0-.135-.068-.186-.203-.152l-.711.178c-.136.033-.263.05-.381.05-.271 0-.525-.076-.762-.228-.355-.22-.584-.525-.685-.914l-.204-.737c-.033-.118-.05-.236-.05-.355 0-.254.076-.5.228-.736.22-.339.525-.55.914-.635.61-.102 1.16-.212 1.651-.33.135-.017.203-.093.203-.229v-3.58c0-.135-.068-.203-.203-.203h-1.27c-.423 0-.779-.144-1.066-.431-.288-.288-.432-.644-.432-1.067v-.482c0-.423.144-.779.432-1.067.287-.288.643-.431 1.066-.431h1.27c.135 0 .203-.068.203-.204v-3.097c0-.406.144-.753.431-1.041.288-.305.644-.457 1.067-.457h.685c.407 0 .754.152 1.041.457.305.288.457.635.457 1.04v3.098c0 .136.06.204.178.204h.914c.423 0 .779.143 1.067.431.287.288.431.644.431 1.067v.482c0 .423-.144.779-.431 1.066-.288.288-.644.432-1.067.432h-.914c-.118 0-.178.068-.178.203v2.768c0 .118.06.16.178.127.203-.034.466-.093.787-.178zm11.883-.534c.186-.356.466-.593.838-.711.135-.034.271-.05.406-.05.237 0 .466.067.686.202l.533.33c.372.22.618.534.736.94.034.152.051.304.051.457 0 .254-.059.5-.178.736-1.032 1.947-2.344 3.8-3.935 5.56-.085.085-.093.187-.026.305.542.864 1.151 1.355 1.829 1.473h.05c.186 0 .347-.178.483-.533.135-.39.245-1.007.33-1.854.017-.287.169-.49.457-.609.101-.034.203-.05.305-.05.152 0 .304.05.457.151.22.17.465.34.736.508.372.237.66.559.863.965.136.288.203.576.203.864 0 .118-.017.245-.05.38-.373 1.829-.881 3.09-1.524 3.784-.559.643-1.185.964-1.879.964-.068 0-.144-.008-.228-.025-2.133-.254-3.8-1.32-5.002-3.2-.068-.1-.153-.11-.254-.025-.965.745-1.921 1.397-2.869 1.956-.271.135-.55.203-.838.203-.119 0-.237-.009-.356-.026-.423-.084-.787-.288-1.092-.61-.287-.287-.584-.575-.888-.862-.22-.187-.33-.407-.33-.66 0-.051.008-.102.025-.153.034-.322.203-.559.508-.71 1.506-.712 2.937-1.643 4.291-2.794.102-.068.135-.17.102-.305-.559-1.879-.974-4.231-1.245-7.058 0-.119-.067-.178-.203-.178l-1.117.127h-.178c-.338 0-.651-.11-.939-.33-.322-.254-.499-.593-.533-1.016l-.051-.634c-.017-.051-.026-.102-.026-.153 0-.338.119-.651.356-.94.254-.304.584-.482.99-.532l1.219-.102c.118-.017.178-.085.178-.203-.136-2.15-.203-3.69-.203-4.621 0-.39.135-.728.406-1.016.288-.288.635-.431 1.041-.431h.889c.406 0 .753.143 1.041.431.304.288.457.643.457 1.067.016 1.455.059 2.86.126 4.214.017.119.085.17.204.153l3.173-.28c.034 0 .06-.016.077-.05s.017-.068 0-.102c-.44-.592-1.134-1.447-2.082-2.564-.22-.254-.33-.533-.33-.838 0-.068.008-.136.025-.203.051-.39.245-.694.584-.914l.355-.229c.305-.186.627-.28.965-.28.068 0 .144.01.229.026.44.051.804.229 1.092.533.66.694 1.151 1.22 1.472 1.575.237.253.356.541.356.863 0 .05-.009.11-.026.178-.051.406-.245.719-.584.94l-1.32.913c-.034 0-.051.017-.051.05.017.018.042.026.076.026l2.032-.177c.05-.017.101-.026.152-.026.355 0 .677.119.965.356.304.27.482.609.533 1.015l.051.534v.177c0 .339-.11.643-.33.914-.254.322-.584.508-.991.559l-6.144.61c-.119 0-.169.067-.152.202.135 1.507.338 2.903.609 4.19.017.034.042.06.076.076.034.017.059.008.076-.025.847-1.067 1.6-2.21 2.26-3.428zm30.469-5.154c0 .406-.153.761-.457 1.066-.288.288-.635.432-1.041.432h-10.69c-.118 0-.177.059-.177.177-.051.762-.136 1.608-.254 2.54-.017.118.042.177.177.177h8.176c.423 0 .779.153 1.067.457.237.237.355.525.355.864v.177c-.017.034-.025.068-.025.102-.22 3.453-.483 6.017-.787 7.693-.305 1.659-.728 2.785-1.27 3.377-.711.779-1.743 1.244-3.098 1.397-.592.067-1.379.101-2.361.101-.22 0-.457-.008-.711-.025-.406 0-.77-.144-1.092-.432-.321-.288-.541-.643-.66-1.066-.084-.322-.203-.635-.355-.94-.051-.118-.076-.245-.076-.38 0-.153.042-.297.126-.432.153-.254.373-.381.661-.381h.05c.864.034 1.829.05 2.895.05.575 0 1.007-.11 1.295-.33.626-.507 1.083-2.674 1.371-6.5.017-.118-.042-.177-.178-.177h-5.992c-.118 0-.195.06-.228.178-.559 2.285-1.482 4.316-2.768 6.093-1.066 1.49-2.505 2.785-4.316 3.885-.237.136-.483.203-.737.203-.135 0-.271-.017-.406-.05-.389-.102-.719-.322-.99-.66-.102-.153-.22-.305-.356-.458l-.406-.457c-.203-.22-.305-.474-.305-.761 0-.051.009-.11.026-.178.05-.356.228-.627.533-.813.457-.254.88-.533 1.269-.838.762-.575 1.397-1.15 1.905-1.726.524-.576.982-1.236 1.371-1.98.389-.762.685-1.456.888-2.083.221-.643.398-1.396.534-2.26.152-.863.254-1.608.304-2.234.051-.575.102-1.278.153-2.107 0-.136-.06-.203-.178-.203h-5.51c-.406 0-.761-.144-1.066-.432-.288-.305-.432-.66-.432-1.066v-.61c0-.406.144-.753.432-1.04.305-.306.66-.458 1.066-.458h8.049c.135 0 .203-.068.203-.203v-2.438c0-.406.144-.753.432-1.04.305-.305.66-.457 1.066-.457h.94c.406 0 .753.152 1.041.456.304.288.457.635.457 1.041v2.438c0 .135.059.203.177.203h8.405c.406 0 .753.153 1.041.457.304.288.457.635.457 1.041v.61zm15.767 7.947c0-.119-.067-.178-.203-.178h-2.97c-.136 0-.204.06-.204.178v2.183c0 .119.068.178.204.178h2.97c.136 0 .203-.06.203-.178v-2.183zm3.454 4.138c0 .424-.153.78-.458 1.067-.287.288-.634.432-1.041.432h-5.128c-.136 0-.204.067-.204.203v.101c0 .407-.143.762-.431 1.067-.288.287-.643.431-1.067.431h-.406c-.406 0-.762-.144-1.066-.431-.288-.305-.432-.66-.432-1.067V50.26c0-.423.144-.779.432-1.067.304-.287.66-.431 1.066-.431h7.236c.407 0 .754.144 1.041.431.305.288.458.644.458 1.067v6.093zm4.392-13.304c.423 0 .779.152 1.066.457.288.288.432.635.432 1.04v14.727c0 .982-.118 1.744-.355 2.286-.237.541-.644.964-1.219 1.27-.796.388-2.04.608-3.732.66h-.051c-.407 0-.77-.136-1.092-.407-.339-.27-.567-.618-.686-1.041-.084-.322-.186-.643-.304-.965-.051-.118-.076-.237-.076-.355 0-.186.059-.364.177-.533.186-.271.44-.407.762-.407h.051c.474.017.897.026 1.269.026.322 0 .593-.009.813-.026.237 0 .406-.042.508-.127.101-.084.152-.237.152-.457V46.934c0-.119-.068-.178-.203-.178h-13.99c-.136 0-.204.06-.204.178V61.94c0 .423-.143.778-.431 1.066-.288.288-.643.431-1.067.431h-.761c-.423 0-.779-.143-1.067-.431-.287-.288-.431-.643-.431-1.066V44.547c0-.406.144-.753.431-1.041.288-.305.644-.457 1.067-.457h5.509c.136 0 .221-.06.254-.178.305-.846.576-1.718.813-2.615.118-.406.347-.736.685-.99.288-.187.593-.28.914-.28.068 0 .144.009.229.026l1.93.254c.372.05.643.237.812.558.102.186.153.364.153.533 0 .153-.043.314-.127.483-.373.778-.72 1.464-1.041 2.056-.017.034-.017.068 0 .102.033.034.067.05.101.05h8.709zm16.402 11.045c-.44 0-.821-.144-1.142-.432-.322-.288-.508-.643-.559-1.066l-.863-6.729-.102-2.818c-.017-.406.11-.753.381-1.041.288-.305.635-.457 1.041-.457h2.717c.406 0 .745.152 1.016.457.287.288.431.635.431 1.04l-.127 2.82-.863 6.728c-.051.423-.237.778-.558 1.066-.322.288-.694.432-1.118.432h-.254zm2.286 6.424c-.576.524-1.304.787-2.184.787-.88 0-1.617-.263-2.209-.787-.576-.542-.863-1.228-.863-2.057 0-.813.287-1.49.863-2.031.592-.559 1.329-.838 2.209-.838.88 0 1.608.28 2.184.838.592.541.888 1.218.888 2.03 0 .83-.296 1.516-.888 2.058z"/>
</svg>
