<svg width="208" height="65" fill="none" xmlns="http://www.w3.org/2000/svg">
    <path d="M5.484 13.2c0 .118.068.177.204.177h1.345c.136 0 .203-.06.203-.178v-2.082c0-.118-.067-.178-.203-.178h-1.32c-.136 0-.203.06-.203.178v.076c0 .864-.009 1.532-.026 2.006zm1.752-7.872c0-.118-.067-.178-.203-.178h-1.32c-.136 0-.203.06-.203.178v1.93c0 .135.067.203.203.203h1.32c.136 0 .203-.068.203-.203v-1.93zm1.98-3.682c.407 0 .754.153 1.042.458.305.287.457.634.457 1.04v18.358c0 .863-.085 1.549-.254 2.057a2.219 2.219 0 0 1-.889 1.218c-.541.356-1.295.576-2.26.66h-.126c-.356 0-.678-.127-.965-.38a1.859 1.859 0 0 1-.66-1.067 6.337 6.337 0 0 0-.204-.761 1.207 1.207 0 0 1-.05-.33c0-.22.067-.424.203-.61a.948.948 0 0 1 .812-.432h.508c.152 0 .254-.033.305-.101.067-.068.101-.178.101-.33v-4.291c0-.136-.067-.203-.203-.203H5.484c-.118 0-.186.067-.203.203-.22 2.793-.635 5.12-1.244 6.982-.118.356-.364.593-.736.711a1.381 1.381 0 0 1-1.041-.127 9.64 9.64 0 0 0-.432-.254 1.684 1.684 0 0 1-.787-.888 1.634 1.634 0 0 1-.127-.635c0-.17.025-.347.076-.533.762-2.455 1.143-6.187 1.143-11.198V3.145c0-.407.144-.754.431-1.041.305-.305.66-.458 1.067-.458h5.586zm6.12 13.127c-.017-.016-.034-.016-.05 0-.018 0-.026.009-.026.026v7.515c0 .051.017.085.05.102a.108.108 0 0 0 .102 0 10.244 10.244 0 0 0 2.387-2.057c.085-.084.085-.186 0-.304-.948-1.473-1.77-3.233-2.463-5.282zm5.611-.355c.017-.05.009-.093-.025-.127-.017-.034-.05-.05-.102-.05h-2.31c-.034 0-.068.016-.102.05-.017.034-.017.076 0 .127.373.931.821 1.82 1.346 2.666.034.034.068.05.101.05.051 0 .085-.016.102-.05.406-.863.736-1.752.99-2.666zm.737-3.58c.998 0 1.76.076 2.285.228.321.102.575.297.761.584.119.22.178.449.178.686v.254c-.542 2.86-1.405 5.323-2.59 7.389-.05.101-.034.194.051.279a12.99 12.99 0 0 0 2.133 1.6c.305.186.49.456.559.812v.228c0 .271-.094.517-.28.737-.152.186-.304.38-.457.584-.27.355-.6.575-.99.66-.119.034-.237.05-.355.05a1.51 1.51 0 0 1-.788-.228 13.46 13.46 0 0 1-1.93-1.6c-.084-.084-.169-.084-.253 0-.542.576-1.126 1.1-1.752 1.575a1.4 1.4 0 0 1-.787.254c-.102 0-.212-.017-.33-.051a1.604 1.604 0 0 1-.965-.635c-.271-.355-.533-.677-.787-.965-.017-.034-.043-.042-.077-.025-.033.017-.05.042-.05.076v.635c0 .423-.144.779-.432 1.066a1.448 1.448 0 0 1-1.066.432h-.559c-.423 0-.778-.144-1.066-.432a1.449 1.449 0 0 1-.432-1.066V3.145c0-.407.144-.754.432-1.041a1.408 1.408 0 0 1 1.066-.458h9.547c.423 0 .779.153 1.066.458.288.287.432.634.432 1.04V6.7c0 .83-.11 1.473-.33 1.93-.22.44-.626.779-1.219 1.016-.694.27-1.769.423-3.224.457h-.051c-.406 0-.779-.136-1.117-.407a2.304 2.304 0 0 1-.737-1.04 7.984 7.984 0 0 1-.101-.33.896.896 0 0 1-.076-.356c0-.186.059-.364.177-.533a.9.9 0 0 1 .787-.407H19.297c.338 0 .6-.008.787-.025.203 0 .347-.025.432-.076.084-.051.127-.153.127-.305V5.328c0-.118-.06-.178-.178-.178h-5.002c-.135 0-.203.06-.203.178v5.307c0 .135.068.203.203.203h6.22zm16.3 4.316c-.034.119.017.178.153.178h3.021c.119 0 .186-.068.203-.203.051-.339.102-.821.153-1.447 0-.051-.017-.085-.051-.102-.034-.034-.076-.042-.127-.025-.372.118-.703.228-.99.33-.153.034-.305.05-.457.05-.187 0-.364-.033-.534-.101a1.78 1.78 0 0 1-.812-.635c-.017-.034-.042-.042-.076-.025-.017 0-.034.017-.051.05a41.769 41.769 0 0 1-.432 1.93zm7.313-8.556a.108.108 0 0 0 0-.102c-.017-.034-.05-.05-.102-.05h-2.488c-.05 0-.085.016-.102.05 0 .034.009.06.026.076.406.491.872.931 1.396 1.32.102.068.195.06.28-.025.389-.406.719-.83.99-1.27zm5.611-1.295c0 .321-.11.592-.33.812-.22.22-.49.33-.812.33-.085 0-.153.043-.203.127A12.896 12.896 0 0 1 47.53 9.67c-.084.101-.067.178.051.228.83.322 1.701.593 2.615.813a.85.85 0 0 1 .61.584.842.842 0 0 1-.152.838c-.187.254-.382.525-.585.812a2.204 2.204 0 0 1-.99.813 1.895 1.895 0 0 1-1.219.05 19.347 19.347 0 0 1-3.402-1.498c-.102-.067-.212-.067-.33 0-.559.288-1.083.542-1.574.762-.017 0-.026.017-.026.051 0 .017.017.025.051.025H43.8c.406 0 .745.144 1.016.432.236.27.355.576.355.914v.152a7.5 7.5 0 0 1-.076.508c0 .119.059.178.178.178h3.96c.407 0 .745.144 1.016.432.254.27.38.575.38.914a.48.48 0 0 1-.025.152c-.186 2.116-.406 3.724-.66 4.824-.237 1.084-.541 1.828-.914 2.235-.508.575-1.193.93-2.056 1.066-.356.05-.83.085-1.422.102H45.5c-.39 0-.736-.136-1.041-.407a2.036 2.036 0 0 1-.635-1.066c-.067-.22-.127-.423-.177-.61a.843.843 0 0 1-.077-.33c0-.203.06-.389.178-.558.186-.27.432-.406.736-.406h.051c.186.017.364.025.533.025.339 0 .61-.101.813-.305.322-.321.584-1.252.787-2.793.017-.118-.034-.177-.152-.177h-1.854c-.135 0-.22.059-.254.177a10.65 10.65 0 0 1-1.955 3.58c-.846 1.033-2.014 1.93-3.504 2.692-.22.101-.44.152-.66.152-.17 0-.33-.025-.482-.076-.39-.135-.711-.38-.965-.736l-.407-.559a1.078 1.078 0 0 1-.228-.66c0-.085.008-.178.025-.28a.995.995 0 0 1 .584-.736c1.71-.83 2.912-1.963 3.606-3.402a.108.108 0 0 0 0-.102c-.017-.033-.05-.05-.102-.05h-.888c-.407 0-.762-.144-1.067-.432a1.504 1.504 0 0 1-.431-1.066v-1.397h-.026c-.017-.017-.025-.017-.025 0-.068.271-.127.516-.178.736-.102.356-.322.61-.66.762a1.178 1.178 0 0 1-1.016-.025 1.743 1.743 0 0 1-.812-.787 2.012 2.012 0 0 1-.152-1.143 46.38 46.38 0 0 0 .279-1.726c.017-.119-.043-.178-.178-.178h-.432c-.118 0-.177.06-.177.178v8.15c0 .863-.093 1.54-.28 2.031-.169.508-.499.906-.99 1.194-.61.338-1.422.541-2.437.609h-.102c-.372 0-.71-.127-1.016-.38a1.989 1.989 0 0 1-.685-1.067 17.795 17.795 0 0 0-.229-.737 1.286 1.286 0 0 1-.05-.355c0-.203.067-.398.203-.584a.9.9 0 0 1 .787-.406h.812c.17-.017.28-.051.33-.102.068-.05.102-.144.102-.28v-3.91c0-.016-.017-.025-.05-.025-.018-.017-.035-.008-.052.026-.558 1.05-1.15 1.955-1.777 2.716a.793.793 0 0 1-.635.305.836.836 0 0 1-.203-.025c-.338-.068-.584-.271-.736-.61l-.457-.965a1.905 1.905 0 0 1-.203-.863c0-.118.008-.237.025-.355.085-.423.27-.796.559-1.117.846-.931 1.59-2.015 2.234-3.25.017-.051.017-.094 0-.127-.017-.034-.05-.051-.102-.051h-1.168c-.423 0-.778-.144-1.066-.432a1.504 1.504 0 0 1-.431-1.066v-.28c0-.423.143-.778.431-1.066a1.449 1.449 0 0 1 1.067-.432h3.529c.034 0 .05-.008.05-.025 0-.034-.008-.06-.025-.076-.846-.44-1.794-.88-2.844-1.32-.321-.136-.516-.381-.584-.737a.94.94 0 0 1-.025-.228c0-.237.093-.457.28-.66l.279-.28a2.512 2.512 0 0 1 1.142-.66c.17-.034.347-.05.533-.05.254 0 .508.042.762.126a.565.565 0 0 1 .178.076.343.343 0 0 0 .33-.076c.355-.321.626-.592.813-.812.033-.034.042-.068.025-.102-.017-.034-.042-.05-.076-.05h-3.961c-.407 0-.762-.144-1.067-.432a1.449 1.449 0 0 1-.431-1.067v-.127c0-.423.144-.778.431-1.066.305-.288.66-.432 1.067-.432h6.652c.05 0 .093-.008.127-.025.102-.017.203-.025.305-.025.237 0 .457.059.66.177l.736.483c.339.203.55.49.635.863a.96.96 0 0 1 .05.305c0 .254-.084.5-.253.736a21.145 21.145 0 0 1-2.666 2.92c-.102.085-.093.152.025.203.085.05.17.093.254.127.339.17.533.449.584.838a.742.742 0 0 1 .025.178c0 .304-.11.567-.33.787l-.254.28c-.033.033-.042.067-.025.1.017.035.042.051.076.051h.635a.418.418 0 0 0 .127-.025c.135-.034.27-.05.406-.05a2.1 2.1 0 0 1 .457.05l1.676.533c.102.034.144.11.127.229h.025a11.95 11.95 0 0 0 2.159-.711c.118-.051.135-.119.05-.203-.372-.39-.744-.83-1.117-1.32-.05-.068-.101-.068-.152 0-.186.169-.415.262-.686.279a.976.976 0 0 1-.71-.229c-.356-.237-.712-.482-1.067-.736-.322-.203-.482-.508-.482-.914 0-.322.118-.593.355-.813a15.986 15.986 0 0 0 3.149-3.91c.22-.372.524-.652.913-.838.237-.101.483-.152.737-.152.152 0 .313.017.482.05l.61.178c.389.119.66.356.812.711.068.153.102.305.102.457 0 .204-.051.398-.153.584a.396.396 0 0 1-.076.102c-.017.05-.017.093 0 .127s.051.05.102.05h5.484c.406 0 .753.145 1.041.432.305.288.457.644.457 1.067v.457zM70.307 8.07c-.119 0-.178.068-.178.203v2.032c0 .406-.017.973-.05 1.7 0 .12.058.179.177.179h1.549c.118 0 .177-.06.177-.178V8.273c0-.135-.059-.203-.177-.203h-1.498zm6.677 6.196c0 .423-.143.778-.431 1.066a1.448 1.448 0 0 1-1.067.432h-3.834c-.034 0-.067.025-.101.076a.108.108 0 0 0 0 .101c1.1 2.455 2.7 4.258 4.799 5.409.321.186.516.448.584.787.017.084.025.169.025.254 0 .254-.085.482-.254.685-.305.39-.6.787-.889 1.194a1.699 1.699 0 0 1-.964.71 1.422 1.422 0 0 1-1.117-.152c-2.117-1.354-3.775-3.394-4.977-6.119 0-.034-.026-.05-.076-.05-.034 0-.051.016-.051.05-1.067 2.488-2.725 4.528-4.977 6.12-.254.168-.533.253-.838.253-.101 0-.203-.008-.304-.025a1.884 1.884 0 0 1-1.041-.61c-.22-.254-.449-.5-.686-.736a1.09 1.09 0 0 1-.304-.762v-.152c.05-.356.228-.626.533-.813 2.352-1.438 3.91-3.444 4.672-6.017a.173.173 0 0 0-.051-.127c-.017-.05-.051-.076-.102-.076h-2.996c-.406 0-.762-.144-1.066-.432a1.448 1.448 0 0 1-.432-1.066v-.584c0-.407.144-.754.432-1.041.304-.305.66-.457 1.066-.457h3.53c.118 0 .186-.06.203-.178.017-.39.025-.965.025-1.727V8.273c0-.135-.06-.203-.178-.203h-3.783c-.05 0-.093.026-.127.076a.108.108 0 0 0 0 .102c.068.203.135.39.203.559.068.186.102.364.102.533 0 .22-.051.44-.153.66-.169.39-.457.677-.863.863-.17.068-.338.102-.508.102-.186 0-.364-.043-.533-.127a1.22 1.22 0 0 1-.685-.813 48.424 48.424 0 0 0-.28-.812c0-.017-.008-.017-.025 0-.017 0-.026.008-.026.025v14.727c0 .423-.152.779-.457 1.066a1.418 1.418 0 0 1-1.04.432h-.762c-.407 0-.762-.144-1.067-.432a1.448 1.448 0 0 1-.431-1.066v-13.05h-.026a32.204 32.204 0 0 1-.279 1.548 1.218 1.218 0 0 1-.66.838 1.353 1.353 0 0 1-1.067.076 1.475 1.475 0 0 1-.863-.762 1.627 1.627 0 0 1-.127-1.142c.271-1.151.491-2.48.66-3.987.051-.406.237-.736.559-.99.27-.203.559-.305.863-.305.068 0 .144.009.229.026l.533.076c.118.017.178-.042.178-.178v-3.86c0-.405.143-.752.431-1.04.305-.305.66-.457 1.067-.457h.761c.407 0 .754.152 1.041.457.305.288.458.635.458 1.04v3.302c0 .05.016.084.05.101a.108.108 0 0 0 .102 0c.186-.068.372-.101.558-.101.17 0 .339.033.508.101.373.136.635.381.787.737.187.423.381.897.584 1.421.017.017.034.026.051.026.017 0 .026-.009.026-.026V6.09c0-.406.143-.753.431-1.041.305-.305.66-.457 1.066-.457h2.514c.119 0 .178-.06.178-.178V2.256c0-.406.144-.753.432-1.041.304-.305.66-.457 1.066-.457h.838c.406 0 .753.152 1.04.457.306.288.458.635.458 1.04v2.16c0 .118.06.177.178.177h3.884c.407 0 .754.152 1.041.457.305.288.457.635.457 1.04v5.942c0 .102.051.153.153.153.305 0 .567.118.787.355.237.22.355.482.355.787v.94zm8.176-2.21a1.29 1.29 0 0 1 .356-.05c.253 0 .49.085.71.254.34.22.534.524.585.914l.05.406c.017.085.026.17.026.254 0 .338-.093.652-.28.94a1.699 1.699 0 0 1-.964.71c-.204.051-.424.11-.66.178-.136.034-.204.119-.204.254v5.688c0 .846-.084 1.515-.254 2.005-.169.491-.465.88-.888 1.168-.542.356-1.304.576-2.285.66a.48.48 0 0 1-.153.026c-.355 0-.677-.127-.965-.381a2.051 2.051 0 0 1-.66-1.066l-.152-.61a1.017 1.017 0 0 1 0-.634c.068-.22.186-.398.355-.534.186-.135.398-.203.635-.203.22 0 .39-.008.508-.025.152 0 .254-.026.305-.076.067-.068.101-.178.101-.33v-4.748a.173.173 0 0 0-.05-.128c-.034-.033-.077-.042-.128-.025l-.482.127a1.464 1.464 0 0 1-1.117-.152 1.333 1.333 0 0 1-.635-.914l-.152-.686a1.209 1.209 0 0 1-.051-.33c0-.27.085-.533.254-.787.22-.339.533-.559.94-.66.1-.017.287-.06.558-.127.288-.068.516-.119.685-.152.119-.017.178-.094.178-.229V9.188c0-.136-.06-.204-.178-.204h-.761c-.424 0-.779-.144-1.067-.431a1.449 1.449 0 0 1-.431-1.067V7.03c0-.423.144-.778.431-1.066a1.449 1.449 0 0 1 1.067-.432h.761c.119 0 .178-.067.178-.203V2.307c0-.424.144-.779.432-1.067.305-.288.66-.431 1.066-.431h.457c.423 0 .779.143 1.067.431.287.288.431.643.431 1.067v3.021c0 .136.068.203.203.203h.381c.424 0 .779.144 1.067.432.287.288.431.643.431 1.066v.457c0 .424-.144.779-.431 1.067a1.449 1.449 0 0 1-1.067.431h-.38c-.136 0-.204.068-.204.204v2.767c0 .05.017.093.051.127.05.034.102.042.152.025l.178-.05zm11.528.509c-.136 0-.204.067-.204.203v.457c0 .118.068.177.204.177h1.574c.135 0 .203-.059.203-.177v-.457c0-.136-.068-.204-.203-.204h-1.575zm0-3.631c-.136 0-.204.067-.204.203v.355c0 .136.068.203.204.203h1.574c.135 0 .203-.067.203-.203v-.355c0-.136-.068-.203-.203-.203h-1.575zm0 11.197c-.136 0-.204.068-.204.203v1.371c0 .136.068.212.204.229.541.05 1.159.076 1.853.076 1.439 0 2.59-.009 3.453-.026.339 0 .601.144.787.432a1.068 1.068 0 0 1 .127.914l-.101.356c-.136.423-.373.77-.711 1.04a1.625 1.625 0 0 1-1.117.432h-2.692c-1.811 0-3.385-.195-4.723-.584a8.027 8.027 0 0 1-3.478-1.98c-.085-.085-.152-.076-.203.025-.305.66-.652 1.27-1.041 1.828a1.275 1.275 0 0 1-.99.559h-.153a1.58 1.58 0 0 1-.99-.356 5.762 5.762 0 0 0-.406-.279 1.282 1.282 0 0 1-.534-.914v-.178c0-.304.094-.584.28-.838.812-1.15 1.396-2.649 1.752-4.494a1.51 1.51 0 0 1 .61-.99c.27-.203.566-.305.888-.305.067 0 .135.009.203.026l.457.05c.406.051.736.237.99.56.186.253.28.524.28.812 0 .101-.009.203-.026.304-.05.203-.101.424-.152.66a.427.427 0 0 0 .05.356 6.217 6.217 0 0 0 1.727 1.523c.05.017.093.017.127 0 .034-.034.05-.067.05-.101v-4.494c0-.119-.067-.178-.202-.178h-3.047c-.39 0-.72-.136-.99-.406a1.363 1.363 0 0 1-.381-.965c0-.39.127-.72.38-.99.272-.271.602-.407.99-.407h3.048c.135 0 .203-.059.203-.177v-.457c0-.136-.068-.204-.203-.204h-4.545c-.406 0-.753-.135-1.041-.406a1.434 1.434 0 0 1-.406-1.015c0-.407.135-.745.406-1.016a1.419 1.419 0 0 1 1.04-.432h4.546c.135 0 .203-.067.203-.203v-.355c0-.136-.068-.203-.203-.203h-3.047c-.373 0-.694-.136-.965-.407a1.318 1.318 0 0 1-.406-.964c0-.39.135-.72.406-.99.27-.288.593-.432.965-.432h3.047c.135 0 .203-.06.203-.178v-.356c0-.118-.068-.177-.203-.177h-4.037a1.434 1.434 0 0 1-1.447-1.447c0-.407.135-.754.406-1.042a1.419 1.419 0 0 1 1.04-.431h4.038c.135 0 .203-.06.203-.178V2.23c0-.406.144-.753.431-1.04a1.408 1.408 0 0 1 1.067-.458h.482c.423 0 .779.153 1.067.457.288.288.431.635.431 1.041v.102c0 .119.068.178.204.178h4.748c.389 0 .727.144 1.015.431.288.288.432.635.432 1.041 0 .39-.144.728-.432 1.016a1.39 1.39 0 0 1-1.015.432h-4.749c-.135 0-.203.059-.203.177v.356c0 .118.068.178.204.178h3.757c.423 0 .779.152 1.067.457.287.287.431.634.431 1.04v1.88c0 .118.06.177.178.177.372 0 .686.136.94.407.253.253.38.558.38.914v.228c0 .373-.127.686-.38.94-.254.254-.568.38-.94.38-.118 0-.178.06-.178.178v1.93c0 .406-.144.762-.431 1.066a1.45 1.45 0 0 1-1.067.432h-3.757c-.136 0-.204.06-.204.178v.71c0 .136.068.204.204.204h3.935c.406 0 .745.144 1.016.431.287.271.431.61.431 1.016 0 .39-.144.728-.431 1.016a1.38 1.38 0 0 1-1.016.406h-3.936zm29.376-14.498c0-.119-.059-.178-.177-.178h-.483c-.118 0-.177.06-.177.178v.254c0 .118.059.177.177.177h.483c.118 0 .177-.059.177-.177v-.254zm-.837 3.681c0 .136.059.204.177.204h.483c.118 0 .177-.068.177-.204v-.253c0-.119-.059-.178-.177-.178h-.483c-.118 0-.177.06-.177.178v.253zm-3.225-3.25c.135 0 .203-.059.203-.177v-.254c0-.119-.068-.178-.203-.178h-.457c-.372 0-.694-.127-.965-.38a1.363 1.363 0 0 1-.381-.966c0-.389.127-.71.381-.964a1.32 1.32 0 0 1 .965-.407h.457c.135 0 .203-.059.203-.177v-.102c0-.423.144-.779.432-1.066a1.447 1.447 0 0 1 1.066-.432h.026c.406 0 .753.144 1.041.432.304.287.457.643.457 1.066v.102c0 .118.059.177.177.177h1.778c.406 0 .753.153 1.041.457.304.288.457.635.457 1.041v1.498c0 .068.034.102.101.102.22 0 .407.085.559.254a.724.724 0 0 1 .254.558v1.676a.752.752 0 0 1-.254.584.76.76 0 0 1-.559.229c-.067 0-.101.034-.101.101v1.498c0 .423-.153.779-.457 1.067a1.42 1.42 0 0 1-1.041.431h-1.778c-.118 0-.177.068-.177.204v.38c0 .136.059.204.177.204h1.828c.407 0 .754.143 1.041.431.288.288.432.635.432 1.041 0 .406-.144.753-.432 1.041-.287.271-.634.406-1.041.406h-1.828c-.118 0-.177.068-.177.204v.431c0 .119.059.178.177.178h2.108c.423 0 .778.152 1.066.457.288.288.432.635.432 1.041v.076c0 .423-.144.779-.432 1.067a1.448 1.448 0 0 1-1.066.431h-2.108c-.118 0-.177.068-.177.203v.026c0 .406-.153.761-.457 1.066a1.42 1.42 0 0 1-1.041.432h-.026c-.423 0-.779-.144-1.066-.432a1.504 1.504 0 0 1-.432-1.066v-.026c0-.135-.068-.203-.203-.203h-.99c-.407 0-.762-.144-1.067-.431a1.451 1.451 0 0 1-.431-1.067v-.076c0-.406.144-.753.431-1.041.305-.305.66-.457 1.067-.457h.99c.135 0 .203-.06.203-.178v-.431c0-.136-.068-.204-.203-.204h-.508c-.406 0-.753-.135-1.041-.406a1.418 1.418 0 0 1-.432-1.04c0-.407.144-.754.432-1.042a1.42 1.42 0 0 1 1.041-.431h.508c.135 0 .203-.068.203-.204v-.38c0-.136-.068-.204-.203-.204h-.381c-.389 0-.719-.127-.99-.38a1.362 1.362 0 0 1-.381-.965c0-.39.127-.711.381-.965.271-.271.601-.406.99-.406h.381c.135 0 .203-.068.203-.204v-.253c0-.119-.068-.178-.203-.178h-1.422c-.389 0-.719-.136-.99-.406-.271-.271-.406-.601-.406-.99 0-.39.135-.72.406-.99.271-.289.601-.433.99-.433h1.422zm-9.623 14.524a1.211 1.211 0 0 1 1.016.254c.304.237.473.541.507.914 0 .017.017.034.051.05.034.018.059.018.076 0 .356-.422.694-.905 1.016-1.447.051-.101.051-.22 0-.355-.423-1.083-.787-2.395-1.092-3.936a1.699 1.699 0 0 1-.025-.279 1.28 1.28 0 0 1 1.015-1.244.75.75 0 0 1 .28-.05c.22 0 .423.067.609.202.288.187.466.44.533.762.017.085.034.195.051.33.034.119.059.203.076.254 0 .034.009.05.026.05.033 0 .05-.016.05-.05.187-.914.339-1.845.457-2.793.017-.118-.033-.178-.152-.178h-.228c-.051 0-.085.026-.102.076a.827.827 0 0 1-.355.407.669.669 0 0 1-.508.101l-1.905-.38c-.118-.018-.177.033-.177.152 0 .39-.144.72-.432.99-.271.27-.601.406-.99.406h-.94c-.118 0-.177.068-.177.203V18.481h.025c.152-.627.271-1.228.355-1.803.068-.305.229-.542.483-.711a.908.908 0 0 1 .584-.203c.084 0 .169.008.254.025.304.085.533.262.685.533a.95.95 0 0 1 .127.864l-.152.609c-.085.338-.152.592-.203.762-.102.406-.339.719-.711.94a1.511 1.511 0 0 1-1.143.151l-.127-.025c-.05-.017-.093-.008-.127.025-.033.017-.05.051-.05.102v.863c0 .136.059.195.177.178l1.143-.203zm-1.143-10.233c-.118 0-.177.068-.177.204v.99c0 .135.059.203.177.203h1.371c.271 0 .5.093.686.28a.923.923 0 0 1 .305.71h.05a148.098 148.098 0 0 0 2.082-6.627c.017-.034.009-.067-.025-.101-.034-.051-.076-.077-.127-.077h-1.041c-.118 0-.22.051-.305.153l-1.066 1.244c-.017.017-.017.025 0 .025.135 0 .203.06.203.178v1.32c0 .424-.152.78-.457 1.067a1.42 1.42 0 0 1-1.041.431h-.635zm-2.869-3.148c-.034.017-.042.05-.025.102.017.033.042.05.076.05h3.58c.051 0 .085-.017.102-.05.017-.051.017-.094 0-.127a23.798 23.798 0 0 0-1.778-2.565c-.067-.101-.135-.101-.203 0-.626 1.033-1.21 1.896-1.752 2.59zm9.217 2.895c.694 0 1.185.025 1.473.076l.152.025c.254.05.457.178.609.381a.85.85 0 0 1 .203.686c-.27 3.503-.82 6.398-1.65 8.683-.051.136-.034.246.051.33a4.762 4.762 0 0 0 2.082 1.346c.795.237 1.76.355 2.894.355 2.082 0 3.691-.008 4.825-.025.338 0 .601.144.787.432.118.186.178.38.178.584 0 .101-.017.211-.051.33l-.102.304c-.118.424-.347.77-.685 1.041a1.72 1.72 0 0 1-1.143.432h-3.986c-1.405 0-2.607-.144-3.606-.432A5.995 5.995 0 0 1 117 23.102c-.085-.085-.161-.077-.229.025a11.217 11.217 0 0 1-1.218 1.447c-.288.254-.618.381-.991.381h-.101a1.778 1.778 0 0 1-1.143-.482c-.27-.22-.533-.432-.787-.635a.505.505 0 0 0-.355-.076c-.694.135-1.676.321-2.946.558-1.269.237-2.014.381-2.234.432a1.558 1.558 0 0 1-1.142-.229 1.62 1.62 0 0 1-.661-.964l-.076-.305a2.005 2.005 0 0 1-.025-.33c0-.254.076-.5.228-.736.237-.339.55-.534.94-.584.575-.085 1.108-.17 1.599-.254.136-.034.203-.11.203-.229v-.812c0-.051-.025-.085-.076-.102a.172.172 0 0 0-.127-.05l-.431.126a1.21 1.21 0 0 1-.33.051c-.254 0-.491-.085-.711-.254a1.258 1.258 0 0 1-.559-.914 57.331 57.331 0 0 0-.305-1.803 1.366 1.366 0 0 1-.025-.254c0-.203.059-.397.178-.584a1.02 1.02 0 0 1 .685-.482.748.748 0 0 1 .28-.05c.186 0 .364.05.533.152.271.169.44.397.508.685.135.593.254 1.193.355 1.803h.025v-3.606c0-.135-.067-.203-.203-.203h-1.091c-.407 0-.762-.144-1.067-.431a1.447 1.447 0 0 1-.431-1.067v-.076c0-.423.143-.779.431-1.066.305-.288.66-.432 1.067-.432h1.091c.136 0 .203-.068.203-.203v-.99c0-.136-.067-.204-.203-.204h-.609a1.19 1.19 0 0 1-.838-.33 1.191 1.191 0 0 1-.33-.838.436.436 0 0 0-.102-.279 11.22 11.22 0 0 0-.761-.888 1.555 1.555 0 0 1-.407-1.067c0-.372.127-.702.381-.99a16.163 16.163 0 0 0 2.641-3.961c.169-.372.415-.669.736-.889a1.87 1.87 0 0 1 1.092-.355c.914 0 1.676.313 2.285.94a32.108 32.108 0 0 1 2.006 2.284c.017.034.034.051.051.051.034-.017.051-.042.051-.076 0-.355.127-.66.381-.914.253-.254.558-.38.914-.38h1.675c.153-.052.314-.077.483-.077.118 0 .237.017.355.05l.635.128c.305.05.533.203.686.457.101.169.152.347.152.533a.886.886 0 0 1-.051.28 185.67 185.67 0 0 1-1.752 5.991c-.034.051-.017.077.051.077zm20.389 11.908a.172.172 0 0 0-.051-.127c-.017-.034-.051-.051-.102-.051-.761 0-1.413-.237-1.955-.71-.541-.475-.812-1.11-.812-1.905 0-.762.271-1.38.812-1.854.559-.49 1.244-.736 2.057-.736 1.016 0 1.794.347 2.336 1.041.541.694.812 1.65.812 2.87 0 1.32-.372 2.513-1.117 3.58-.728 1.083-1.769 1.912-3.123 2.488a1.18 1.18 0 0 1-1.016-.025 1.306 1.306 0 0 1-.736-.788 1.214 1.214 0 0 1 .051-.965c.152-.322.398-.567.736-.736 1.151-.542 1.854-1.236 2.108-2.082zM17.012 51.996c-.017.102.025.152.127.152h.355c.119 0 .178-.067.178-.203v-.457c0-.423.144-.778.431-1.066.305-.288.66-.432 1.067-.432h.178c.118 0 .169-.068.152-.203a7.414 7.414 0 0 0-.254-1.422.957.957 0 0 1-.05-.305c0-.203.067-.397.202-.583a.9.9 0 0 1 .788-.407h.101c.305 0 .525-.093.66-.279.187-.237.313-1.05.381-2.438.017-.118-.042-.177-.178-.177h-2.005c-.119 0-.195.059-.229.177-.203 1.338-.592 2.48-1.168 3.428-.559.948-1.413 1.752-2.564 2.412-.017.017-.026.043-.026.077 0 .033.017.059.051.076l.813.152c.338.068.609.245.812.533.135.22.203.449.203.686 0 .084-.008.178-.025.28zm-4.037-3.148c-.017-.017-.043-.017-.077 0-.033 0-.05.017-.05.05v5.688c0 .017.008.034.025.05.034 0 .05-.008.05-.025.526-1.066.923-2.31 1.194-3.732a.61.61 0 0 0-.05-.356 8.648 8.648 0 0 0-1.092-1.675zm-4.19 5.89c0 .119.068.178.203.178h.61c.118 0 .177-.06.177-.178v-1.27c0-.118-.059-.177-.177-.177h-.61c-.135 0-.203.06-.203.178v1.27zm-3.224-1.447c-.119 0-.178.06-.178.178 0 .541-.009.965-.026 1.27 0 .118.06.177.178.177h.61c.135 0 .203-.06.203-.178v-1.27c0-.118-.068-.177-.203-.177H5.56zm1.878-8.074c0-.034-.016-.068-.05-.102-.017-.05-.051-.076-.102-.076h-1.27c-.135 0-.228.06-.279.178-.034.068-.11.237-.228.508-.119.27-.212.474-.28.609-.016.034-.016.076 0 .127.034.034.068.05.102.05h1.447c.119 0 .203-.059.254-.177.136-.339.271-.711.406-1.117zm1.55 4.011c-.136 0-.204.068-.204.204v1.04c0 .136.068.204.203.204h.61c.118 0 .177-.068.177-.203v-1.041c0-.136-.059-.204-.177-.204h-.61zm-3.428 0c-.119 0-.178.068-.178.204v1.04c0 .136.06.204.178.204h.584c.135 0 .203-.068.203-.203v-1.041c0-.136-.068-.204-.203-.204H5.56zm18.332 7.973c.423 0 .778.144 1.066.432.288.288.432.643.432 1.066v.229c0 .406-.144.762-.432 1.066a1.449 1.449 0 0 1-1.066.432h-2.438c-.118 0-.178.059-.178.177v2.286c0 .423-.152.778-.457 1.066a1.419 1.419 0 0 1-1.04.432h-.61c-.406 0-.762-.144-1.067-.432a1.45 1.45 0 0 1-.431-1.066v-2.286c0-.118-.06-.177-.178-.177h-2.793c-.406 0-.761-.144-1.066-.432a1.504 1.504 0 0 1-.432-1.066v-.229c0-.423.144-.778.432-1.066.305-.288.66-.432 1.066-.432h2.793c.119 0 .178-.068.178-.203v-1.523c0-.119-.06-.178-.178-.178h-1.371c-.118 0-.203.06-.254.178-.034.084-.068.16-.101.228-.17.372-.458.61-.864.711a1.627 1.627 0 0 1-1.143-.127 31.222 31.222 0 0 1-.736-.38c-.05-.018-.093-.01-.127.025-.033.017-.05.05-.05.101v4.951c0 .728-.085 1.32-.254 1.778a2.065 2.065 0 0 1-.838 1.091c-.508.288-1.151.466-1.93.534h-.152a1.58 1.58 0 0 1-.99-.356 2.135 2.135 0 0 1-.711-1.04 7.937 7.937 0 0 0-.102-.33 1.036 1.036 0 0 1-.076-.356c0-.203.06-.39.178-.559a.886.886 0 0 1 .787-.431h.635c.135 0 .228-.026.279-.077.068-.067.101-.178.101-.33v-3.072c0-.119-.059-.178-.177-.178h-4.24c-.12 0-.187.06-.204.178-.27 2.184-.72 3.978-1.345 5.383-.153.355-.432.567-.838.634a1.853 1.853 0 0 1-.305.026 1.51 1.51 0 0 1-.787-.229.295.295 0 0 0-.076-.05 1.62 1.62 0 0 1-.686-.915c-.034-.169-.05-.33-.05-.482 0-.22.042-.44.126-.66.796-1.828 1.194-4.553 1.194-8.176v-3.834a.447.447 0 0 0-.127-.33 18.85 18.85 0 0 0-.762-.635 1.462 1.462 0 0 1-.533-.965V47.4c0-.321.093-.617.28-.888 1.015-1.456 1.827-3.225 2.437-5.307.118-.406.355-.72.71-.94a1.51 1.51 0 0 1 .788-.228c.118 0 .228.009.33.026l.406.101c.406.085.72.296.94.635.135.22.203.448.203.685 0 .136-.026.28-.077.432l-.05.152c-.017.034-.017.077 0 .127.033.034.076.051.127.051h1.7a.226.226 0 0 0 .102-.025c.102-.017.195-.026.28-.026.169 0 .338.043.507.127l.711.432c.305.186.517.457.635.812.05.153.076.305.076.457 0 .187-.034.373-.101.559l-.787 1.752c-.034.034-.043.076-.026.127.034.034.076.05.127.05h1.397c.321 0 .592.12.812.356.237.22.356.491.356.813 0 .034.017.059.05.076.034.017.06.017.077 0 1.388-.728 2.242-1.862 2.564-3.403.017-.118-.034-.177-.152-.177h-.889c-.406 0-.762-.144-1.066-.432A1.504 1.504 0 0 1 13 42.678v-.076c0-.424.144-.78.432-1.067.304-.288.66-.431 1.066-.431h8.76c.406 0 .745.143 1.015.431.271.288.407.627.407 1.016 0 1.574-.085 3.047-.254 4.418-.136.948-.339 1.6-.61 1.955-.389.49-.956.812-1.7.965-.204.033-.593.067-1.169.101.085 0 .161.034.229.102.068.05.101.127.101.228v1.625c0 .136.06.203.178.203h1.904c.407 0 .754.144 1.041.432.305.288.457.643.457 1.067v.152c0 .406-.152.761-.457 1.066a1.419 1.419 0 0 1-1.04.432h-1.905c-.118 0-.178.06-.178.178v1.523c0 .136.06.203.178.203h2.438zm9.826-15.717c.355.203.567.517.634.94a1.43 1.43 0 0 1-.253 1.117l-.457.635c-.22.338-.534.533-.94.584h-.228c-.322 0-.61-.085-.864-.254-.609-.423-1.312-.83-2.107-1.219a1.315 1.315 0 0 1-.66-.838 1.205 1.205 0 0 1-.051-.33c0-.254.085-.49.254-.71l.254-.356c.27-.356.618-.593 1.04-.711.17-.051.34-.076.509-.076.253 0 .499.05.736.152.779.339 1.49.694 2.133 1.066zm-1.524 6.983c.356.203.576.508.66.914.017.101.026.203.026.304 0 .305-.093.584-.28.838l-.456.686a1.448 1.448 0 0 1-.965.584h-.254a1.48 1.48 0 0 1-.838-.254 22.86 22.86 0 0 0-2.158-1.193 1.23 1.23 0 0 1-.66-.813 1.114 1.114 0 0 1 .178-1.016l.279-.431c.27-.355.609-.601 1.015-.736.186-.051.373-.077.559-.077.237 0 .465.043.685.127.813.356 1.55.711 2.21 1.067zm-.888 6.373a1.229 1.229 0 0 1 1.091-.66c.271 0 .517.093.737.279l.584.457c.338.27.55.626.634 1.066.034.136.051.28.051.432 0 .27-.059.542-.177.813a142.258 142.258 0 0 1-2.87 5.586 1.226 1.226 0 0 1-.863.66c-.118.034-.228.05-.33.05-.27 0-.525-.084-.762-.254l-.863-.634a1.526 1.526 0 0 1-.635-.99 1.853 1.853 0 0 1-.025-.305c0-.305.084-.584.254-.838a80.607 80.607 0 0 0 3.174-5.662zm12.086-7.643c-.119 0-.178.068-.178.203v1.575c0 .93-.017 1.642-.05 2.132 0 .119.058.178.177.178h2.26c.118 0 .177-.06.177-.178V47.4c0-.135-.059-.203-.177-.203h-2.21zm7.922 6.12c0 .423-.144.778-.432 1.066a1.448 1.448 0 0 1-1.067.431h-4.164c-.034 0-.067.026-.101.077a.108.108 0 0 0 0 .101 13.536 13.536 0 0 0 1.98 3.174c.813.931 1.735 1.71 2.768 2.336.321.186.508.457.558.813a.836.836 0 0 1 .026.203c0 .287-.093.541-.28.761-.287.305-.558.627-.812.965a1.816 1.816 0 0 1-.965.711 3.086 3.086 0 0 1-.38.026 1.47 1.47 0 0 1-.762-.229c-2.218-1.49-3.987-3.775-5.307-6.855-.017-.034-.042-.051-.076-.051-.034 0-.051.017-.051.05-.897 2.844-2.54 5.13-4.926 6.856a1.711 1.711 0 0 1-.965.305h-.228a1.922 1.922 0 0 1-1.117-.534c-.305-.27-.61-.524-.914-.761a.93.93 0 0 1-.33-.534.746.746 0 0 1-.051-.279c0-.118.025-.228.076-.33.068-.203.195-.372.38-.508 2.286-1.557 3.81-3.588 4.571-6.093.017-.051.009-.093-.025-.127-.034-.051-.076-.076-.127-.076h-2.742c-.424 0-.78-.144-1.067-.432a1.448 1.448 0 0 1-.431-1.067v-.533c0-.406.143-.753.431-1.04a1.408 1.408 0 0 1 1.067-.458h3.326c.118 0 .186-.06.203-.178.034-.727.05-1.447.05-2.158V47.4c0-.135-.059-.203-.177-.203h-2.21c-.422 0-.778-.144-1.066-.431a1.449 1.449 0 0 1-.431-1.067v-.533c0-.406.144-.753.431-1.041a1.408 1.408 0 0 1 1.067-.457h2.209c.118 0 .178-.06.178-.178v-2.234c0-.406.143-.753.431-1.041.305-.305.66-.457 1.067-.457h.787c.406 0 .753.152 1.04.457.306.288.458.635.458 1.04v2.235c0 .119.06.178.178.178h4.595c.407 0 .754.152 1.041.457.305.288.457.635.457 1.041v5.941c0 .119.06.178.178.178h.152c.424 0 .78.153 1.067.457.288.288.431.635.431 1.041v.533zm9.394-9.598c0-.119-.06-.178-.178-.178H57.84c-.136 0-.203.06-.203.178v.558c0 .136.067.203.203.203h2.691c.119 0 .178-.067.178-.203v-.558zm-3.072 4.037c0 .118.067.178.203.178h2.691c.119 0 .178-.06.178-.178v-.584c0-.136-.06-.203-.178-.203H57.84c-.136 0-.203.067-.203.203v.584zm6.601 1.523c0 .406-.144.762-.431 1.067a1.448 1.448 0 0 1-1.067.431h-4.9c-.136 0-.203.06-.203.178v12.01c0 .423-.144.778-.432 1.066a1.449 1.449 0 0 1-1.066.432h-.737c-.423 0-.778-.144-1.066-.432a1.449 1.449 0 0 1-.432-1.066v-20.77c0-.406.144-.753.432-1.04a1.408 1.408 0 0 1 1.066-.458h7.338c.423 0 .779.153 1.067.457.287.288.431.635.431 1.041v7.084zm5.028-1.472c0 .118.059.177.177.177h2.819c.135 0 .203-.059.203-.177v-.635c0-.136-.068-.203-.203-.203h-2.819c-.118 0-.177.067-.177.203v.635zm3.199-4.114c0-.118-.068-.177-.203-.177h-2.819c-.118 0-.177.059-.177.177v.584c0 .136.059.203.177.203h2.819c.135 0 .203-.067.203-.203v-.584zM66.37 57.71c.119 0 .178-.06.178-.178V55.5c0-.118-.06-.178-.178-.178h-2.92c-.135 0-.203.06-.203.178v2.031c0 .119.068.178.203.178h2.92zm8.404-17.012c.424 0 .779.153 1.067.457.288.288.431.635.431 1.041v17.9c0 1.016-.118 1.803-.355 2.362-.22.576-.626 1.016-1.219 1.32-.812.407-2.107.635-3.885.686h-.05a1.65 1.65 0 0 1-1.092-.406 1.985 1.985 0 0 1-.686-1.041 14.16 14.16 0 0 0-.787-2.057c-.05-.119-.144-.178-.28-.178h-4.493c-.119 0-.178.051-.178.153 0 .355-.127.66-.38.914a1.206 1.206 0 0 1-.89.355h-.71c-.407 0-.762-.144-1.067-.431a1.449 1.449 0 0 1-.431-1.067v-6.957c0-.406.143-.753.431-1.041.305-.305.66-.457 1.067-.457h7.338c.406 0 .753.152 1.04.457.305.288.457.635.457 1.041v6.754c0 .135.06.203.178.203h1.498c.254 0 .432-.05.534-.152.101-.102.152-.271.152-.508V50.98c0-.118-.068-.177-.203-.177h-5.078c-.424 0-.78-.144-1.067-.432a1.504 1.504 0 0 1-.431-1.066v-7.11c0-.406.143-.753.431-1.04a1.408 1.408 0 0 1 1.067-.458h7.591zm11.375 3.301c.136 0 .203-.06.203-.178v-.431c0-.119-.067-.178-.203-.178h-2.564c-.119 0-.178.06-.178.178v.431c0 .119.06.178.178.178h2.564zm0 3.149c.136 0 .203-.06.203-.178v-.457c0-.119-.067-.178-.203-.178h-2.564c-.119 0-.178.06-.178.178v.457c0 .118.06.178.178.178h2.564zm2.184-6.424c.406 0 .753.152 1.041.457.305.287.457.635.457 1.04v5.917c0 .406-.152.761-.457 1.066a1.419 1.419 0 0 1-1.041.432H81.58c-.423 0-.779-.144-1.066-.432a1.504 1.504 0 0 1-.432-1.066V42.22c0-.406.144-.754.432-1.041a1.408 1.408 0 0 1 1.066-.457h6.754zM98.49 47.68c.119 0 .178-.068.178-.203v-.407c0-.135-.06-.203-.178-.203h-3.554c-.136 0-.204.068-.204.203v.407c0 .135.068.203.204.203h3.554zm0 3.148c.119 0 .178-.068.178-.203v-.432c0-.118-.06-.177-.178-.177h-3.554c-.136 0-.204.059-.204.177v.432c0 .135.068.203.204.203h3.554zm0 3.149c.119 0 .178-.068.178-.204v-.431c0-.119-.06-.178-.178-.178h-3.554c-.136 0-.204.06-.204.178v.431c0 .136.068.204.204.204h3.554zm3.961 4.468c.22.22.33.483.33.787v.178c-.067.39-.271.677-.609.863l-1.092.635c-.034.017-.051.042-.051.076.017.017.043.026.076.026.39-.017.737-.026 1.041-.026h.026c.305 0 .542.136.711.407.101.169.152.338.152.507 0 .119-.025.246-.076.381a5.046 5.046 0 0 0-.102.28c-.152.423-.406.77-.761 1.04-.339.271-.72.407-1.143.407h-9.47c-2.404 0-4.317-.186-5.739-.559-1.405-.372-2.556-1.108-3.453-2.209-.034-.034-.076-.042-.127-.025-.034 0-.05.017-.05.05-.238.813-.526 1.541-.864 2.184-.17.305-.423.457-.762.457h-.025a1.183 1.183 0 0 1-.889-.457l-.254-.304A2.107 2.107 0 0 1 78.838 62a1.428 1.428 0 0 1-.025-.28c0-.32.067-.634.203-.939.474-1.1.753-2.733.837-4.9a1.54 1.54 0 0 1 .458-1.066c.304-.288.66-.432 1.066-.432.423 0 .779.144 1.066.431.271.288.407.618.407.99 0 .22-.026.618-.077 1.194a.61.61 0 0 0 .051.355c.203.508.466.974.787 1.397.017.034.034.042.051.025.034-.017.05-.033.05-.05v-4.952c0-.135-.058-.203-.177-.203h-3.123c-.372 0-.694-.127-.965-.38a1.363 1.363 0 0 1-.38-.965c0-.373.126-.686.38-.94.271-.27.593-.406.965-.406h9.04c.372 0 .685.135.939.406.27.254.406.567.406.94 0 .372-.135.694-.406.965-.254.253-.567.38-.94.38h-2.386c-.136 0-.204.068-.204.203v1.32c0 .136.068.204.203.204h1.905c.355 0 .66.135.914.406.27.254.406.567.406.94 0 .355-.135.668-.406.939-.254.254-.559.38-.914.38h-1.904c-.136 0-.204.069-.204.204v2.361c0 .136.068.212.203.229 1.067.203 2.54.304 4.418.304h.127c.034 0 .06-.016.077-.05.016-.034.008-.06-.026-.076a20.757 20.757 0 0 0-.888-.838.974.974 0 0 1-.305-.711v-.127a.935.935 0 0 1 .508-.762 16.452 16.452 0 0 0 1.447-.94c.592-.473 1.185-.71 1.777-.71.237 0 .483.042.737.127l.203.05a.994.994 0 0 1 .66.686c.034.101.05.195.05.28a.918.918 0 0 1-.253.634 15.425 15.425 0 0 1-2.946 2.336c-.034.017-.05.042-.05.076.017.017.042.026.076.026 3.436 0 6.051-.017 7.845-.051.051 0 .085-.017.102-.051.017-.034.009-.068-.025-.102-.61-.744-1.363-1.515-2.26-2.31a.966.966 0 0 1-.33-.736c0-.407.17-.703.508-.89l.685-.355c.017 0 .026-.008.026-.025 0-.034-.017-.05-.051-.05h-6.272c-.406 0-.761-.145-1.066-.432a1.504 1.504 0 0 1-.432-1.067v-9.115c0-.423.144-.779.432-1.067.305-.287.66-.431 1.066-.431h1.727c.135 0 .22-.06.254-.178l.203-.66a.172.172 0 0 0-.05-.127c-.018-.034-.052-.05-.102-.05h-2.92c-.356 0-.66-.128-.914-.382a1.247 1.247 0 0 1-.381-.914c0-.372.127-.685.38-.94.255-.253.56-.38.915-.38h9.47c.356 0 .66.127.914.38.254.255.381.568.381.94 0 .356-.127.66-.381.914s-.558.381-.914.381h-2.818c-.119 0-.203.06-.254.178l-.33.66c-.017.034-.017.076 0 .127.017.034.05.05.102.05h2.462c.424 0 .779.145 1.067.432.288.288.431.644.431 1.067v9.115c0 .406-.143.762-.431 1.067a1.449 1.449 0 0 1-1.067.431h-.355c-.034 0-.059.017-.076.051 0 .017.008.034.025.05.745.542 1.481 1.16 2.209 1.854zm2.463-7.718c0-.407.144-.754.432-1.041a1.46 1.46 0 0 1 1.066-.458h21.227c.406 0 .753.153 1.041.457.304.288.457.635.457 1.042v1.142c0 .406-.153.762-.457 1.066a1.42 1.42 0 0 1-1.041.432h-21.227c-.406 0-.762-.144-1.066-.431a1.503 1.503 0 0 1-.432-1.067v-1.142zm32.551-6.83c.338.27.508.626.508 1.066 0 .406-.144.762-.432 1.066l-.838.914c-.271.271-.592.407-.965.407h-.025c-.389 0-.728-.136-1.016-.407a28.832 28.832 0 0 0-2.234-1.93 1.3 1.3 0 0 1-.533-1.091c0-.339.127-.635.381-.889l.609-.635a1.756 1.756 0 0 1 1.092-.558h.203c.355 0 .677.101.965.304.914.627 1.675 1.21 2.285 1.753zm-2.031 8.581c.237-.253.524-.38.863-.38h.101c.373.034.669.203.889.508l.483.761c.237.339.355.711.355 1.117 0 .491-.161.923-.482 1.295a90.012 90.012 0 0 1-3.606 4.012c-.254.254-.55.38-.889.38h-.101a1.258 1.258 0 0 1-.94-.532l-.634-.864a1.615 1.615 0 0 1-.356-1.015v-.127c.034-.44.203-.813.508-1.117a131.047 131.047 0 0 0 3.809-4.038zm12.593-4.544c-.135 0-.203.067-.203.203v2.082c0 .795.11 1.616.33 2.463.22.83.559 1.71 1.016 2.64.457.914 1.126 1.82 2.006 2.717.88.88 1.913 1.65 3.097 2.31.339.187.551.466.635.839.017.101.026.203.026.304 0 .254-.077.491-.229.711l-.711 1.016a1.814 1.814 0 0 1-.99.71 1.471 1.471 0 0 1-1.168-.178 13.82 13.82 0 0 1-3.885-3.528c-1.049-1.44-1.743-2.751-2.082-3.936 0-.034-.017-.05-.051-.05-.017 0-.033.016-.05.05-.407 1.185-1.211 2.488-2.413 3.91-1.201 1.422-2.674 2.624-4.417 3.606a1.578 1.578 0 0 1-.711.178c-.153 0-.305-.026-.457-.077a1.815 1.815 0 0 1-.965-.71c-.17-.255-.356-.509-.559-.762a1.227 1.227 0 0 1-.228-.711c0-.085.008-.178.025-.28.085-.355.296-.617.635-.787 1.286-.66 2.412-1.439 3.377-2.336.981-.914 1.726-1.845 2.234-2.793.525-.965.906-1.878 1.143-2.742.254-.88.38-1.726.38-2.539v-2.107c0-.136-.067-.203-.203-.203h-1.041c-.135 0-.228.059-.279.177a24.218 24.218 0 0 1-1.65 3.098c-.22.338-.542.55-.965.635a2.021 2.021 0 0 1-.33.025 1.56 1.56 0 0 1-.838-.254 12.975 12.975 0 0 0-.965-.533c-.339-.186-.542-.457-.609-.813a1.705 1.705 0 0 1-.026-.279c0-.27.076-.516.229-.736 1.455-2.014 2.564-4.647 3.326-7.897.101-.406.322-.719.66-.939.254-.186.533-.28.838-.28.085 0 .178.01.279.026l.965.178c.406.068.728.27.965.61.152.236.228.49.228.76 0 .12-.016.238-.05.356a47.08 47.08 0 0 1-.508 1.905.234.234 0 0 0 0 .152c.034.034.076.05.127.05h7.82a.484.484 0 0 0 .153-.025c.152-.05.304-.076.457-.076.27 0 .533.076.787.229l.939.558c.372.22.643.534.813.94.084.22.127.44.127.66 0 .203-.034.398-.102.584a38.275 38.275 0 0 1-1.955 4.545 1.381 1.381 0 0 1-.863.736 1.615 1.615 0 0 1-1.168-.076c-.17-.085-.33-.17-.483-.254a1.475 1.475 0 0 1-.787-.838 1.416 1.416 0 0 1 .026-1.117c.27-.643.524-1.286.761-1.93a.172.172 0 0 0-.051-.127c-.016-.034-.05-.05-.101-.05h-2.311zm17.418 11.222c0 .136.06.195.178.178l3.072-.356h.178c.339 0 .635.119.889.356.304.254.465.584.482.99v.508c.017.423-.11.804-.381 1.143a1.557 1.557 0 0 1-1.041.558c-1.98.271-5.349.694-10.105 1.27h-.203c-.339 0-.644-.102-.914-.305a1.524 1.524 0 0 1-.61-1.016l-.127-.787v-.228c0-.322.102-.61.305-.864a1.39 1.39 0 0 1 .965-.533c.118 0 1.235-.101 3.351-.304.119-.017.178-.093.178-.229v-2.234c0-.136-.059-.203-.178-.203h-2.259a1.45 1.45 0 0 1-1.067-.432 1.447 1.447 0 0 1-.431-1.066v-.356c0-.406.143-.753.431-1.04a1.409 1.409 0 0 1 1.067-.458h2.259c.119 0 .178-.06.178-.178v-.533c0-.406.144-.753.432-1.04a1.46 1.46 0 0 1 1.066-.458h.787c.407 0 .754.152 1.041.457.305.288.457.635.457 1.041v.533c0 .119.06.178.178.178h2.184c.423 0 .778.152 1.066.457.288.288.432.635.432 1.041v.356c0 .423-.144.778-.432 1.066a1.449 1.449 0 0 1-1.066.432h-2.184c-.118 0-.178.067-.178.203v1.853zm-2.564-11.527c-.017.034-.017.076 0 .127.034.034.076.05.127.05l2.615-.05c.034 0 .059-.017.076-.05a.108.108 0 0 0 0-.103 2.68 2.68 0 0 0-.152-.228 1.347 1.347 0 0 1-.229-.736c0-.119.017-.229.051-.33.102-.39.322-.677.66-.864l1.244-.635c.017-.016.026-.033.026-.05 0-.034-.017-.051-.051-.051h-2.945c-.136 0-.22.06-.254.178a97.33 97.33 0 0 1-1.168 2.742zm11.756 8.709c0 .423-.144.779-.432 1.066a1.448 1.448 0 0 1-1.066.432h-.61c-.423 0-.778-.144-1.066-.432a1.448 1.448 0 0 1-.432-1.066v-5.662c0-.051-.017-.085-.051-.102-.033-.017-.076-.017-.126 0l-1.803.99a.937.937 0 0 1-.457.127 1.29 1.29 0 0 1-.356-.05 1.097 1.097 0 0 1-.584-.584c-.034-.085-.101-.127-.203-.127-2.183.118-5.137.245-8.861.38h-.051c-.406 0-.753-.135-1.041-.406a1.499 1.499 0 0 1-.508-1.04l-.025-.483c-.017-.406.11-.753.381-1.041a1.467 1.467 0 0 1 1.041-.483h.457c.135 0 .22-.059.254-.177.321-.965.584-1.896.787-2.793.034-.119-.017-.178-.153-.178h-1.294c-.424 0-.779-.144-1.067-.432a1.503 1.503 0 0 1-.432-1.066v-.33c0-.406.144-.753.432-1.041a1.409 1.409 0 0 1 1.067-.457h10.232c.423 0 .779.152 1.066.457.288.288.432.635.432 1.04v.33c0 .407-.144.763-.432 1.067a1.447 1.447 0 0 1-1.066.432h-.965c-.034 0-.059.017-.076.05a.107.107 0 0 0 0 .102c1.608 2.065 2.717 3.843 3.326 5.332.017.017.034.026.051.026.017 0 .025-.009.025-.026v-5.738c0-.406.144-.753.432-1.04a1.408 1.408 0 0 1 1.066-.458h.61c.423 0 .778.152 1.066.457.288.288.432.635.432 1.041v11.883zm2.183-14.346c0-.406.144-.753.432-1.04.305-.305.66-.458 1.066-.458h.711c.407 0 .754.153 1.041.457.305.288.457.635.457 1.041v18.13c0 1.032-.118 1.819-.355 2.36-.22.542-.61.965-1.168 1.27-.762.39-1.981.618-3.656.685h-.077c-.389 0-.744-.126-1.066-.38a1.985 1.985 0 0 1-.685-1.041 13.472 13.472 0 0 0-.305-.99.892.892 0 0 1-.076-.356c0-.186.059-.373.177-.559.204-.27.466-.406.788-.406h.025c.609.017 1.295.026 2.057.026.237-.017.397-.068.482-.153.102-.085.152-.245.152-.482V41.992zm14.346 3.758c0-.423.144-.779.432-1.066.304-.288.66-.432 1.066-.432h4.088c.135 0 .203-.068.203-.203v-2.412c0-.423.144-.779.432-1.067a1.447 1.447 0 0 1 1.066-.431h.813c.423 0 .778.144 1.066.431.288.288.432.644.432 1.067v2.412c0 .135.067.203.203.203h4.519c.424 0 .779.144 1.067.432.287.287.431.643.431 1.066v.559c0 .406-.144.761-.431 1.066a1.449 1.449 0 0 1-1.067.432h-12.822c-.406 0-.762-.144-1.066-.432a1.504 1.504 0 0 1-.432-1.066v-.559zm6.602 11.273v.204c0 .338-.11.651-.33.939a1.593 1.593 0 0 1-1.016.66l-.787.152a.893.893 0 0 1-.28.051 1.21 1.21 0 0 1-.761-.279 1.281 1.281 0 0 1-.508-.94c-.152-2.217-.482-4.57-.99-7.058a1.844 1.844 0 0 1-.026-.305c0-.288.085-.558.254-.812.22-.339.533-.542.94-.61l.457-.076c.101-.017.203-.025.304-.025.305 0 .593.084.864.254.355.237.575.558.66.965.575 2.488.982 4.782 1.219 6.88zm-10.055-15.818a1.56 1.56 0 0 1 .838-.838c.22-.101.44-.152.66-.152.169 0 .338.025.508.076l.685.229c.39.135.669.38.838.736.085.186.127.372.127.559 0 .186-.042.372-.127.558a46.972 46.972 0 0 1-1.65 3.326.624.624 0 0 0-.102.356v16.834c0 .423-.152.778-.457 1.066a1.42 1.42 0 0 1-1.041.432h-.584c-.423 0-.778-.144-1.066-.432a1.448 1.448 0 0 1-.432-1.066V51.387c0-.034-.017-.06-.051-.077-.033-.016-.059-.008-.076.026-.203.237-.398.465-.584.686a.892.892 0 0 1-.685.304h-.203c-.339-.068-.584-.27-.737-.61a29.38 29.38 0 0 0-.635-1.294 1.98 1.98 0 0 1-.228-.94c0-.084.008-.177.025-.279.051-.44.229-.82.534-1.143 1.777-1.946 3.258-4.231 4.443-6.855zM202.77 59.69c-.017.05-.009.093.025.126.034.034.076.051.127.051h3.021c.424 0 .779.153 1.067.457.288.288.431.635.431 1.041v.559c0 .423-.143.779-.431 1.066a1.449 1.449 0 0 1-1.067.432h-13.736c-.406 0-.762-.144-1.066-.432a1.448 1.448 0 0 1-.432-1.066v-.559c0-.406.144-.753.432-1.04a1.46 1.46 0 0 1 1.066-.458h6.678c.135 0 .22-.06.254-.177.812-2.997 1.43-6.213 1.853-9.649.051-.406.237-.728.559-.965.254-.203.541-.304.863-.304.068 0 .144.008.229.025l1.142.178c.406.067.728.27.965.609.186.237.279.508.279.813 0 .084-.008.177-.025.279a93.536 93.536 0 0 1-2.234 9.014z" fill="#333"/>
</svg>
