<svg width="503" height="37" fill="none" xmlns="http://www.w3.org/2000/svg">
    <path d="M6.594 17.43c0 .164.093.246.281.246h1.863c.188 0 .282-.082.282-.246v-2.883c0-.164-.094-.246-.282-.246H6.91c-.187 0-.281.082-.281.246v.105c0 1.196-.012 2.121-.035 2.778zM9.02 6.53c0-.164-.094-.246-.282-.246H6.91c-.187 0-.281.082-.281.246v2.672c0 .188.094.281.281.281h1.828c.188 0 .282-.093.282-.28V6.53zm2.742-5.097c.562 0 1.043.21 1.441.632.422.399.633.88.633 1.442v25.418c0 1.195-.117 2.144-.352 2.847a3.073 3.073 0 0 1-1.23 1.688c-.75.492-1.793.797-3.129.914h-.176c-.492 0-.937-.176-1.336-.527A2.574 2.574 0 0 1 6.7 32.37a8.776 8.776 0 0 0-.281-1.055 1.67 1.67 0 0 1-.07-.457c0-.304.093-.586.28-.843.282-.399.657-.598 1.126-.598H8.457c.211 0 .352-.047.422-.14.094-.094.14-.247.14-.458V22.88c0-.188-.093-.281-.28-.281H6.593c-.164 0-.258.093-.282.28-.304 3.868-.878 7.09-1.722 9.669-.164.492-.504.82-1.02.984a1.91 1.91 0 0 1-.527.07c-.305 0-.61-.081-.914-.245a13.48 13.48 0 0 0-.598-.352 2.332 2.332 0 0 1-1.09-1.23 2.263 2.263 0 0 1-.175-.88c0-.234.035-.48.105-.738 1.055-3.398 1.582-8.566 1.582-15.504V3.508c0-.563.2-1.043.598-1.442.422-.421.914-.632 1.476-.632h7.735zm8.472 18.175c-.023-.023-.047-.023-.07 0-.023 0-.035.012-.035.035v10.407c0 .07.023.117.07.14a.15.15 0 0 0 .14 0 14.181 14.181 0 0 0 3.306-2.847c.117-.117.117-.258 0-.422-1.313-2.04-2.45-4.477-3.41-7.313zm7.77-.492c.023-.07.012-.129-.035-.176-.024-.046-.07-.07-.14-.07h-3.2c-.047 0-.094.024-.14.07-.024.047-.024.106 0 .176a23.681 23.681 0 0 0 1.863 3.692c.046.046.093.07.14.07.07 0 .117-.024.14-.07a23.306 23.306 0 0 0 1.372-3.692zm1.02-4.957c1.382 0 2.437.106 3.163.317.446.14.797.41 1.055.808.164.305.246.621.246.95v.35c-.75 3.962-1.945 7.372-3.586 10.231-.07.141-.047.27.07.387a17.985 17.985 0 0 0 2.954 2.215c.422.258.68.633.773 1.125v.316c0 .375-.129.715-.386 1.02-.211.258-.422.527-.633.808-.375.493-.832.797-1.371.915-.165.046-.329.07-.493.07-.375 0-.738-.106-1.09-.316a18.624 18.624 0 0 1-2.671-2.215c-.117-.118-.235-.118-.352 0a19.408 19.408 0 0 1-2.426 2.18 1.94 1.94 0 0 1-1.09.35c-.14 0-.293-.023-.457-.07-.539-.117-.984-.41-1.335-.878a24.13 24.13 0 0 0-1.09-1.336c-.024-.047-.059-.059-.106-.035-.047.023-.07.058-.07.105v.879c0 .586-.2 1.078-.598 1.477-.398.398-.89.597-1.476.597h-.774c-.586 0-1.078-.2-1.476-.597-.399-.399-.598-.891-.598-1.477V3.508c0-.563.2-1.043.598-1.442a1.95 1.95 0 0 1 1.476-.632H30.5c.586 0 1.078.21 1.477.632.398.399.597.88.597 1.442V8.43c0 1.148-.152 2.039-.457 2.672-.304.609-.867 1.078-1.687 1.406-.961.375-2.45.586-4.465.633h-.07c-.563 0-1.079-.188-1.547-.563a3.189 3.189 0 0 1-1.02-1.441c-.047-.14-.094-.293-.14-.457a1.241 1.241 0 0 1-.106-.492c0-.258.082-.504.246-.739.258-.375.621-.562 1.09-.562h1.301c.468 0 .832-.012 1.09-.035.28 0 .48-.036.597-.106.117-.07.176-.21.176-.422V6.531c0-.164-.082-.246-.246-.246H20.41c-.187 0-.281.082-.281.246v7.348c0 .187.094.281.281.281h8.613zm22.57 5.977c-.047.164.023.246.21.246h4.184c.164 0 .258-.094.282-.281.07-.47.14-1.137.21-2.004 0-.07-.023-.117-.07-.141-.047-.047-.105-.059-.176-.035a46.68 46.68 0 0 0-1.37.457c-.212.047-.423.07-.633.07a1.97 1.97 0 0 1-.739-.14 2.464 2.464 0 0 1-1.125-.88c-.023-.046-.058-.058-.105-.034-.024 0-.047.023-.07.07a57.92 57.92 0 0 1-.598 2.672zM61.719 8.289a.15.15 0 0 0 0-.14c-.024-.047-.07-.07-.14-.07h-3.446c-.07 0-.117.023-.14.07 0 .046.01.081.034.105.563.68 1.207 1.289 1.934 1.828.14.094.27.082.387-.035a10.5 10.5 0 0 0 1.37-1.758zm7.77-1.793c0 .445-.153.82-.458 1.125-.304.305-.68.457-1.125.457-.117 0-.21.059-.281.176a17.86 17.86 0 0 1-2.813 4.289c-.117.14-.093.246.07.316 1.15.446 2.356.82 3.622 1.125.422.118.703.387.844.809.046.14.07.281.07.422 0 .258-.094.504-.281.738-.258.352-.528.727-.809 1.125a3.05 3.05 0 0 1-1.371 1.125 2.622 2.622 0 0 1-1.688.07 26.785 26.785 0 0 1-4.71-2.074c-.141-.094-.293-.094-.457 0-.774.399-1.5.75-2.18 1.055-.024 0-.035.023-.035.07 0 .024.023.035.07.035h1.688c.562 0 1.03.2 1.406.598.328.375.492.797.492 1.266v.21c-.023.212-.059.446-.105.704 0 .164.081.246.246.246h5.484c.563 0 1.031.199 1.406.598.352.374.528.796.528 1.265 0 .07-.012.14-.036.211-.257 2.93-.562 5.156-.914 6.68-.328 1.5-.75 2.531-1.265 3.093-.703.797-1.653 1.29-2.848 1.477-.492.07-1.148.117-1.969.14H62a2.11 2.11 0 0 1-1.441-.562 2.819 2.819 0 0 1-.88-1.476 27.181 27.181 0 0 1-.245-.844 1.167 1.167 0 0 1-.106-.457c0-.281.082-.54.246-.774.258-.375.598-.562 1.02-.562h.07c.258.023.504.035.738.035.47 0 .844-.14 1.125-.422.446-.445.809-1.734 1.09-3.867.024-.164-.047-.246-.21-.246H60.84c-.188 0-.305.082-.352.246-.61 1.875-1.511 3.527-2.707 4.957-1.172 1.43-2.789 2.672-4.851 3.727-.305.14-.61.21-.914.21-.235 0-.457-.035-.668-.105a2.71 2.71 0 0 1-1.336-1.02l-.563-.773a1.493 1.493 0 0 1-.316-.914c0-.117.011-.246.035-.387.094-.468.363-.808.809-1.02 2.367-1.148 4.03-2.718 4.992-4.71a.15.15 0 0 0 0-.14c-.024-.048-.07-.071-.14-.071h-1.231c-.563 0-1.055-.2-1.477-.598a2.083 2.083 0 0 1-.598-1.476v-1.934h-.035c-.023-.023-.035-.023-.035 0-.094.375-.176.715-.246 1.02-.14.492-.445.843-.914 1.054-.234.094-.457.14-.668.14a1.63 1.63 0 0 1-.738-.175 2.413 2.413 0 0 1-1.125-1.09 2.788 2.788 0 0 1-.211-1.582c.14-.773.27-1.57.386-2.39.024-.164-.058-.246-.246-.246h-.597c-.164 0-.246.082-.246.246v11.285c0 1.195-.13 2.133-.387 2.812-.234.703-.691 1.254-1.371 1.653-.844.468-1.969.75-3.375.843h-.14c-.516 0-.985-.175-1.407-.527a2.752 2.752 0 0 1-.95-1.477c-.093-.328-.199-.667-.316-1.02a1.786 1.786 0 0 1-.07-.491c0-.282.094-.551.281-.809.258-.375.621-.562 1.09-.562h1.125c.234-.024.387-.07.457-.141.094-.07.14-.2.14-.387v-5.414c0-.023-.023-.035-.07-.035-.023-.023-.046-.012-.07.035-.773 1.453-1.594 2.707-2.46 3.762a1.098 1.098 0 0 1-.88.422c-.093 0-.187-.012-.28-.035-.47-.094-.81-.375-1.02-.844l-.633-1.336a2.637 2.637 0 0 1-.282-1.195c0-.164.012-.328.036-.492a3.23 3.23 0 0 1 .773-1.547c1.172-1.29 2.203-2.79 3.094-4.5.023-.07.023-.13 0-.176-.024-.047-.07-.07-.14-.07h-1.618c-.586 0-1.078-.2-1.477-.598a2.083 2.083 0 0 1-.597-1.477v-.386c0-.586.199-1.079.597-1.477.399-.398.891-.598 1.477-.598h4.887c.047 0 .07-.011.07-.035 0-.047-.012-.082-.035-.105a52.968 52.968 0 0 0-3.938-1.828c-.445-.188-.715-.528-.808-1.02a1.304 1.304 0 0 1-.035-.316c0-.328.129-.633.386-.914l.387-.387c.445-.445.973-.75 1.582-.914.234-.047.48-.07.738-.07.352 0 .703.058 1.055.175a.783.783 0 0 1 .246.106.475.475 0 0 0 .457-.106c.492-.445.867-.82 1.125-1.125.047-.047.059-.093.035-.14-.023-.047-.058-.07-.105-.07h-5.484c-.563 0-1.055-.2-1.477-.598-.398-.399-.598-.89-.598-1.477V3.86c0-.586.2-1.078.598-1.476a2.083 2.083 0 0 1 1.477-.598h9.21c.07 0 .13-.012.176-.035.14-.023.282-.035.422-.035.328 0 .633.082.914.246l1.02.668c.468.281.761.68.879 1.195.047.14.07.281.07.422 0 .352-.117.691-.352 1.02-1.03 1.382-2.261 2.73-3.691 4.043-.14.117-.129.21.035.28.117.071.234.13.352.177.468.234.738.62.808 1.16.024.094.035.176.035.246 0 .422-.152.785-.457 1.09l-.351.386c-.047.047-.059.094-.035.141.023.047.058.07.105.07h.879a.577.577 0 0 0 .176-.035 2.31 2.31 0 0 1 .562-.07c.211 0 .422.023.633.07l2.32.739c.141.046.2.152.176.316h.035a16.547 16.547 0 0 0 2.989-.984c.164-.07.187-.165.07-.282a21.039 21.039 0 0 1-1.547-1.828c-.07-.094-.14-.094-.21 0a1.507 1.507 0 0 1-.95.387 1.352 1.352 0 0 1-.984-.317 55.836 55.836 0 0 1-1.477-1.02c-.445-.28-.668-.702-.668-1.265 0-.445.164-.82.492-1.125a22.136 22.136 0 0 0 4.36-5.414 2.886 2.886 0 0 1 1.265-1.16c.328-.14.668-.21 1.02-.21.21 0 .433.023.668.07l.843.246c.54.164.915.492 1.126.984.093.21.14.422.14.633 0 .281-.07.55-.21.808a.552.552 0 0 1-.106.141c-.024.07-.024.129 0 .176.023.047.07.07.14.07h7.594c.563 0 1.043.2 1.442.598.421.398.632.89.632 1.476v.633zm26.859 3.832c-.164 0-.246.094-.246.281v2.813c0 .562-.024 1.348-.07 2.355 0 .164.081.246.245.246h2.145c.164 0 .246-.082.246-.246V10.61c0-.187-.082-.28-.246-.28h-2.074zm9.246 8.578c0 .586-.199 1.078-.598 1.477-.398.398-.891.598-1.476.598h-5.31c-.046 0-.093.035-.14.105a.15.15 0 0 0 0 .14c1.524 3.399 3.739 5.895 6.645 7.489.445.258.715.62.808 1.09.024.117.036.234.036.351 0 .352-.118.668-.352.95-.422.538-.832 1.09-1.23 1.652-.329.492-.774.82-1.336.984-.188.047-.375.07-.563.07-.328 0-.656-.093-.984-.28-2.93-1.876-5.227-4.7-6.89-8.473 0-.047-.036-.07-.106-.07-.047 0-.07.023-.07.07-1.477 3.445-3.774 6.27-6.891 8.472a2.047 2.047 0 0 1-1.16.352c-.141 0-.282-.012-.422-.035a2.609 2.609 0 0 1-1.442-.844 19.523 19.523 0 0 0-.949-1.02 1.509 1.509 0 0 1-.422-1.054v-.211c.07-.492.317-.867.739-1.125 3.257-1.992 5.413-4.77 6.468-8.332a.238.238 0 0 0-.07-.176c-.023-.07-.07-.105-.14-.105h-4.15c-.562 0-1.054-.2-1.476-.598-.398-.399-.597-.89-.597-1.477v-.808c0-.563.199-1.043.597-1.442.422-.422.914-.633 1.477-.633h4.887c.164 0 .257-.082.28-.246.024-.539.036-1.336.036-2.39v-2.778c0-.187-.082-.28-.246-.28h-5.238c-.07 0-.13.034-.176.105a.15.15 0 0 0 0 .14c.094.281.187.54.281.774.094.257.14.504.14.738 0 .305-.07.61-.21.914-.235.54-.633.938-1.196 1.195a1.88 1.88 0 0 1-.703.14c-.257 0-.504-.058-.738-.175a1.689 1.689 0 0 1-.95-1.125 68.134 68.134 0 0 0-.386-1.125c0-.023-.012-.023-.035 0-.023 0-.035.012-.035.035v20.39a1.95 1.95 0 0 1-.633 1.477 1.965 1.965 0 0 1-1.441.598h-1.055c-.563 0-1.055-.2-1.477-.597-.398-.399-.597-.891-.597-1.477v-18.07h-.035a44.57 44.57 0 0 1-.387 2.144c-.117.516-.422.902-.914 1.16-.281.14-.563.211-.844.211a2.042 2.042 0 0 1-1.828-1.16 2.254 2.254 0 0 1-.176-1.582c.375-1.594.68-3.434.914-5.52a2 2 0 0 1 .774-1.37c.375-.282.773-.422 1.195-.422.094 0 .2.011.316.035l.739.105c.164.024.246-.058.246-.246V2.277c0-.562.199-1.043.597-1.441.422-.422.914-.633 1.477-.633h1.055c.562 0 1.042.211 1.441.633.422.398.633.879.633 1.441v4.57c0 .071.023.118.07.141a.15.15 0 0 0 .14 0 2.25 2.25 0 0 1 .774-.14c.234 0 .469.047.703.14.516.188.88.528 1.09 1.02.258.586.528 1.242.809 1.969.023.023.047.035.07.035.024 0 .035-.012.035-.035V7.586c0-.563.2-1.043.598-1.441.422-.422.914-.633 1.476-.633h3.48c.165 0 .247-.082.247-.246V2.277c0-.562.2-1.043.598-1.441.421-.422.914-.633 1.476-.633h1.16c.563 0 1.043.211 1.442.633.422.398.633.879.633 1.441v2.989c0 .164.082.246.246.246h5.379c.562 0 1.043.21 1.441.633.422.398.633.878.633 1.44v8.227c0 .141.07.211.211.211.422 0 .785.165 1.09.493.328.304.492.668.492 1.09v1.3zm11.32-3.058c.164-.047.328-.07.492-.07.352 0 .68.117.985.35.468.306.738.727.808 1.267l.071.562c.023.117.035.234.035.352 0 .468-.129.902-.387 1.3a2.35 2.35 0 0 1-1.336.985c-.281.07-.586.152-.914.246-.188.047-.281.164-.281.351v7.875c0 1.172-.117 2.098-.352 2.778a3.14 3.14 0 0 1-1.23 1.617c-.75.492-1.805.797-3.164.914a.67.67 0 0 1-.211.035c-.492 0-.938-.176-1.336-.527-.446-.375-.75-.867-.914-1.477l-.211-.843a1.404 1.404 0 0 1 0-.88c.093-.304.258-.55.492-.738.258-.187.551-.28.879-.28.305 0 .539-.013.703-.036.211 0 .352-.035.422-.106.094-.093.14-.246.14-.457v-6.574a.238.238 0 0 0-.07-.176c-.047-.046-.105-.058-.176-.035l-.668.176c-.187.047-.363.07-.527.07-.352 0-.691-.093-1.019-.28-.469-.282-.762-.704-.879-1.267l-.211-.949a1.668 1.668 0 0 1-.071-.457c0-.375.118-.738.352-1.09a2.1 2.1 0 0 1 1.301-.914c.14-.023.398-.082.773-.175.399-.094.715-.165.949-.211.164-.024.246-.13.246-.317v-4.992c0-.188-.082-.281-.246-.281h-1.054c-.586 0-1.078-.2-1.477-.598-.398-.398-.598-.89-.598-1.476v-.633c0-.586.2-1.078.598-1.477.399-.398.891-.598 1.477-.598h1.054c.164 0 .246-.093.246-.28V2.347c0-.586.2-1.078.598-1.477a2.083 2.083 0 0 1 1.477-.598h.632c.586 0 1.079.2 1.477.598.399.399.598.89.598 1.477V6.53c0 .188.093.282.281.282h.527c.586 0 1.078.199 1.477.597.398.399.598.89.598 1.477v.633c0 .585-.2 1.078-.598 1.476-.399.399-.891.598-1.477.598h-.527c-.188 0-.281.094-.281.281v3.832c0 .07.023.129.07.176.07.047.141.058.211.035l.246-.07zm15.961.703c-.187 0-.281.094-.281.281v.633c0 .164.094.246.281.246h2.18c.187 0 .281-.082.281-.246v-.633c0-.188-.094-.281-.281-.281h-2.18zm0-5.028c-.187 0-.281.094-.281.282v.492c0 .187.094.281.281.281h2.18c.187 0 .281-.094.281-.281v-.492c0-.188-.094-.282-.281-.282h-2.18zm0 15.504c-.187 0-.281.094-.281.282v1.898c0 .188.094.293.281.316.75.07 1.605.106 2.566.106 1.993 0 3.586-.012 4.782-.035.468 0 .832.199 1.089.597.165.258.247.528.247.809 0 .14-.024.293-.071.457l-.14.492a2.96 2.96 0 0 1-.985 1.442 2.249 2.249 0 0 1-1.547.597h-3.726c-2.508 0-4.688-.27-6.539-.808a11.117 11.117 0 0 1-4.817-2.742c-.117-.118-.211-.106-.281.035a16.542 16.542 0 0 1-1.441 2.53c-.328.47-.785.727-1.371.774h-.211c-.492 0-.95-.164-1.371-.492a8.032 8.032 0 0 0-.563-.387c-.422-.304-.668-.726-.738-1.265v-.246c0-.422.129-.809.387-1.16 1.125-1.594 1.933-3.668 2.425-6.223a2.09 2.09 0 0 1 .844-1.371 2.007 2.007 0 0 1 1.231-.422c.093 0 .187.012.281.035l.633.07c.562.07 1.019.329 1.371.774.258.351.386.726.386 1.125 0 .14-.011.281-.035.422-.07.281-.14.586-.211.914a.59.59 0 0 0 .071.492 8.61 8.61 0 0 0 2.39 2.11c.071.023.129.023.176 0 .047-.047.07-.094.07-.141v-6.223c0-.164-.093-.246-.281-.246h-4.219c-.539 0-.996-.188-1.371-.563a1.89 1.89 0 0 1-.527-1.335c0-.54.176-.997.527-1.372a1.866 1.866 0 0 1 1.371-.562h4.219c.188 0 .281-.082.281-.246v-.633c0-.188-.093-.281-.281-.281h-6.293a2.027 2.027 0 0 1-1.441-.563 1.985 1.985 0 0 1-.563-1.406c0-.563.188-1.031.563-1.406a1.963 1.963 0 0 1 1.441-.598h6.293c.188 0 .281-.094.281-.281v-.492c0-.188-.093-.282-.281-.282h-4.219c-.515 0-.961-.187-1.336-.562a1.825 1.825 0 0 1-.562-1.336c0-.54.187-.996.562-1.371.375-.399.821-.598 1.336-.598h4.219c.188 0 .281-.082.281-.246v-.492c0-.164-.093-.246-.281-.246h-5.59a1.985 1.985 0 0 1-2.004-2.004c0-.563.188-1.043.563-1.441a1.964 1.964 0 0 1 1.441-.598h5.59c.188 0 .281-.082.281-.246v-.14c0-.563.2-1.044.598-1.442a1.95 1.95 0 0 1 1.477-.633h.668c.585 0 1.078.21 1.476.633.399.398.598.879.598 1.441v.14c0 .165.094.247.281.247h6.574c.539 0 1.008.2 1.406.598.399.398.598.878.598 1.441 0 .539-.199 1.008-.598 1.406-.398.399-.867.598-1.406.598h-6.574c-.187 0-.281.082-.281.246v.492c0 .164.094.246.281.246h5.203c.586 0 1.078.211 1.477.633.398.399.597.879.597 1.441v2.602c0 .164.082.246.246.246.516 0 .95.188 1.301.563.352.351.528.773.528 1.265v.317c0 .515-.176.949-.528 1.3a1.766 1.766 0 0 1-1.301.528c-.164 0-.246.082-.246.246v2.672c0 .562-.199 1.054-.597 1.476-.399.399-.891.598-1.477.598h-5.203c-.187 0-.281.082-.281.246v.984c0 .188.094.282.281.282h5.449c.563 0 1.031.199 1.406.597.399.375.598.844.598 1.407 0 .539-.199 1.007-.598 1.406-.375.375-.843.562-1.406.562h-5.449zm40.676-20.074c0-.164-.082-.246-.246-.246h-.668c-.164 0-.246.082-.246.246v.352c0 .164.082.246.246.246h.668c.164 0 .246-.082.246-.246v-.352zm-1.16 5.098c0 .187.082.281.246.281h.668c.164 0 .246-.094.246-.281v-.352c0-.164-.082-.246-.246-.246h-.668c-.164 0-.246.082-.246.246v.352zm-4.465-4.5c.187 0 .281-.082.281-.246v-.352c0-.164-.094-.246-.281-.246h-.633c-.516 0-.961-.176-1.336-.527a1.885 1.885 0 0 1-.527-1.336c0-.54.175-.985.527-1.336.375-.375.82-.563 1.336-.563h.633c.187 0 .281-.082.281-.246v-.14c0-.586.199-1.079.598-1.477.398-.398.89-.598 1.476-.598h.035c.563 0 1.043.2 1.442.598.422.398.633.89.633 1.477v.14c0 .164.082.246.246.246h2.461c.562 0 1.043.211 1.441.633.422.399.633.879.633 1.442v2.074c0 .093.047.14.14.14.305 0 .563.118.774.352.234.21.352.469.352.773v2.32c0 .329-.118.598-.352.81-.211.21-.469.316-.774.316-.093 0-.14.047-.14.14v2.075a1.95 1.95 0 0 1-.633 1.476 1.964 1.964 0 0 1-1.441.598h-2.461c-.164 0-.246.093-.246.281v.527c0 .188.082.282.246.282h2.531c.562 0 1.043.199 1.441.597.399.399.598.88.598 1.442 0 .562-.199 1.043-.598 1.441a2.027 2.027 0 0 1-1.441.563h-2.531c-.164 0-.246.093-.246.28v.598c0 .165.082.247.246.247h2.918c.586 0 1.078.21 1.476.632.399.399.598.88.598 1.442v.105c0 .586-.199 1.078-.598 1.477-.398.398-.89.598-1.476.598h-2.918c-.164 0-.246.093-.246.28v.036c0 .562-.211 1.055-.633 1.476a1.966 1.966 0 0 1-1.442.598h-.035c-.586 0-1.078-.2-1.476-.598a2.08 2.08 0 0 1-.598-1.476v-.035c0-.188-.094-.282-.281-.282h-1.371c-.563 0-1.055-.199-1.477-.597-.398-.399-.598-.89-.598-1.477v-.105c0-.563.2-1.043.598-1.442.422-.422.914-.632 1.477-.632h1.371c.187 0 .281-.082.281-.247v-.597c0-.188-.094-.281-.281-.281h-.703a2.03 2.03 0 0 1-1.442-.563 1.966 1.966 0 0 1-.597-1.441c0-.563.199-1.043.597-1.442a1.966 1.966 0 0 1 1.442-.597h.703c.187 0 .281-.094.281-.282v-.527c0-.188-.094-.281-.281-.281h-.528a1.93 1.93 0 0 1-1.371-.528 1.889 1.889 0 0 1-.527-1.336c0-.539.176-.984.527-1.335a1.866 1.866 0 0 1 1.371-.563h.528c.187 0 .281-.094.281-.281v-.352c0-.164-.094-.246-.281-.246h-1.969c-.539 0-.996-.187-1.371-.562a1.866 1.866 0 0 1-.563-1.371c0-.54.188-.997.563-1.372a1.812 1.812 0 0 1 1.371-.597h1.969zm-13.324 20.11c.117-.024.234-.036.351-.036.375 0 .727.129 1.055.387.422.328.656.75.703 1.265 0 .024.023.047.07.07.047.024.082.024.106 0 .492-.585.961-1.253 1.406-2.003.07-.14.07-.305 0-.492-.586-1.5-1.09-3.317-1.512-5.45a2.415 2.415 0 0 1-.035-.386c0-.328.094-.645.281-.95.258-.398.633-.656 1.125-.773.118-.047.246-.07.387-.07.305 0 .586.093.844.28.398.259.644.61.738 1.056.024.117.047.27.07.457.047.164.082.28.106.351 0 .047.012.07.035.07.047 0 .07-.023.07-.07a51.03 51.03 0 0 0 .633-3.867c.024-.164-.047-.246-.211-.246h-.316c-.07 0-.117.035-.141.105a1.145 1.145 0 0 1-.492.563.923.923 0 0 1-.703.14l-2.637-.527c-.164-.023-.246.047-.246.211 0 .54-.199.996-.598 1.371a1.866 1.866 0 0 1-1.371.563h-1.3c-.165 0-.247.093-.247.28v4.782h.036c.211-.867.375-1.699.492-2.496a1.54 1.54 0 0 1 .668-.984c.234-.188.504-.282.808-.282.118 0 .235.012.352.036.422.117.738.363.949.738a1.32 1.32 0 0 1 .176 1.195l-.211.844c-.117.469-.211.82-.281 1.055a2.037 2.037 0 0 1-.985 1.3 2.089 2.089 0 0 1-1.582.211l-.175-.035c-.071-.023-.129-.012-.176.035-.047.024-.071.07-.071.141v1.195c0 .188.082.27.247.246l1.582-.28zm-1.582-14.169c-.165 0-.247.094-.247.281v1.372c0 .187.082.28.247.28h1.898c.375 0 .691.13.949.387.281.258.422.586.422.985h.07a203.858 203.858 0 0 0 2.883-9.176c.024-.047.012-.094-.035-.14-.047-.07-.105-.106-.176-.106h-1.441a.532.532 0 0 0-.422.21l-1.477 1.724c-.023.023-.023.035 0 .035.188 0 .282.082.282.246v1.828a1.95 1.95 0 0 1-.633 1.477 1.966 1.966 0 0 1-1.442.597h-.878zm-3.973-4.36c-.047.024-.059.071-.035.141.023.047.058.07.105.07h4.957c.071 0 .117-.023.141-.07.023-.07.023-.128 0-.175-.844-1.383-1.664-2.567-2.461-3.551-.094-.14-.188-.14-.281 0-.868 1.43-1.676 2.625-2.426 3.586zm12.762 4.009c.961 0 1.64.035 2.039.105l.211.035c.351.07.632.246.843.528.235.28.328.597.282.949-.375 4.851-1.137 8.86-2.286 12.023-.07.188-.046.34.071.457.82.89 1.781 1.512 2.883 1.864 1.101.328 2.437.492 4.007.492 2.883 0 5.11-.012 6.68-.035.469 0 .832.199 1.09.597.164.258.246.528.246.809 0 .14-.023.293-.07.457l-.141.422a2.747 2.747 0 0 1-.949 1.441c-.469.399-.996.598-1.582.598h-5.52c-1.945 0-3.609-.2-4.992-.598A8.292 8.292 0 0 1 161 31.141c-.117-.118-.223-.106-.316.035a15.639 15.639 0 0 1-1.688 2.004 2.01 2.01 0 0 1-1.371.527h-.141c-.586-.023-1.113-.246-1.582-.668-.375-.305-.738-.598-1.09-.879a.7.7 0 0 0-.492-.105c-.961.187-2.32.445-4.078.773-1.758.328-2.789.527-3.094.598a2.162 2.162 0 0 1-1.582-.316 2.247 2.247 0 0 1-.914-1.337l-.105-.421a2.726 2.726 0 0 1-.035-.457c0-.352.105-.692.316-1.02.328-.469.762-.738 1.301-.809a91.273 91.273 0 0 0 2.215-.351c.187-.047.281-.152.281-.317v-1.125c0-.07-.035-.117-.105-.14a.24.24 0 0 0-.176-.07l-.598.175c-.164.047-.316.07-.457.07-.351 0-.68-.117-.984-.351a1.742 1.742 0 0 1-.774-1.266 79.592 79.592 0 0 0-.422-2.496 1.822 1.822 0 0 1-.035-.351c0-.282.082-.551.246-.809.211-.351.528-.574.95-.668a1.03 1.03 0 0 1 .386-.07c.258 0 .504.07.739.21.375.235.609.552.703.95.187.82.351 1.652.492 2.496h.035v-4.992c0-.188-.094-.281-.281-.281h-1.512c-.562 0-1.055-.2-1.477-.598-.398-.398-.597-.89-.597-1.477V17.5c0-.586.199-1.078.597-1.477a2.085 2.085 0 0 1 1.477-.597h1.512c.187 0 .281-.094.281-.281v-1.372c0-.187-.094-.28-.281-.28h-.844a1.65 1.65 0 0 1-1.16-.458 1.648 1.648 0 0 1-.457-1.16c0-.14-.047-.27-.141-.387a15.568 15.568 0 0 0-1.054-1.23 2.149 2.149 0 0 1-.563-1.477c0-.515.176-.972.527-1.37 1.453-1.595 2.672-3.423 3.657-5.485a2.92 2.92 0 0 1 1.019-1.23 2.588 2.588 0 0 1 1.512-.493c1.265 0 2.32.434 3.164 1.3a44.675 44.675 0 0 1 2.777 3.165c.024.047.047.07.071.07.046-.023.07-.058.07-.105 0-.492.176-.914.527-1.266a1.728 1.728 0 0 1 1.266-.527H161.035a2.1 2.1 0 0 1 .668-.106c.164 0 .328.024.492.07l.879.176c.422.07.738.282.949.633.141.235.211.48.211.739 0 .117-.023.246-.07.386a255.783 255.783 0 0 1-2.426 8.297c-.047.07-.023.106.071.106zm28.23 16.488a.238.238 0 0 0-.07-.176c-.024-.047-.071-.07-.141-.07-1.055 0-1.957-.328-2.707-.985-.75-.656-1.125-1.535-1.125-2.636 0-1.055.375-1.91 1.125-2.567.774-.68 1.723-1.02 2.848-1.02 1.406 0 2.484.481 3.234 1.442s1.125 2.285 1.125 3.973c0 1.828-.516 3.48-1.547 4.957-1.008 1.5-2.449 2.648-4.324 3.445-.234.094-.457.14-.668.14-.258 0-.504-.058-.738-.175a1.807 1.807 0 0 1-1.02-1.09 1.695 1.695 0 0 1 .071-1.336c.21-.445.55-.785 1.019-1.02 1.594-.75 2.567-1.71 2.918-2.882zm48.516-12.48c-.024.14.035.21.175.21h.493c.164 0 .246-.093.246-.28v-.634c0-.586.199-1.078.597-1.476a2.083 2.083 0 0 1 1.477-.598h.246c.164 0 .234-.094.211-.281a10.23 10.23 0 0 0-.352-1.969 1.352 1.352 0 0 1-.07-.422c0-.281.094-.55.281-.808.258-.375.621-.563 1.09-.563h.141c.422 0 .726-.129.914-.387.258-.328.434-1.453.527-3.375.024-.164-.058-.246-.246-.246h-2.777c-.164 0-.27.082-.317.246-.281 1.852-.82 3.434-1.617 4.747-.773 1.312-1.957 2.425-3.551 3.34-.023.023-.035.058-.035.105 0 .047.024.082.071.105l1.125.211c.468.094.843.34 1.125.739.187.304.281.62.281.949 0 .117-.012.246-.035.386zm-5.59-4.36c-.024-.023-.059-.023-.106 0-.047 0-.07.024-.07.07v7.875c0 .024.012.047.035.07.047 0 .071-.011.071-.034.726-1.477 1.277-3.2 1.652-5.168a.851.851 0 0 0-.07-.493 11.974 11.974 0 0 0-1.512-2.32zm-5.801 8.156c0 .164.094.246.281.246h.844c.164 0 .246-.082.246-.246v-1.758c0-.164-.082-.246-.246-.246h-.844c-.187 0-.281.082-.281.247v1.757zm-4.465-2.004c-.164 0-.246.082-.246.247 0 .75-.012 1.335-.035 1.757 0 .164.082.246.246.246h.844c.187 0 .281-.082.281-.246v-1.758c0-.164-.094-.246-.281-.246h-.809zm2.602-11.18c0-.046-.024-.093-.071-.14-.023-.07-.07-.105-.14-.105h-1.758c-.187 0-.316.082-.387.246-.047.093-.152.328-.316.703a19.24 19.24 0 0 1-.387.844c-.023.046-.023.105 0 .175.047.047.094.07.141.07h2.004c.164 0 .281-.081.351-.245.188-.47.375-.985.563-1.547zm2.144 5.555c-.187 0-.281.094-.281.282v1.441c0 .188.094.281.281.281h.844c.164 0 .246-.093.246-.28v-1.442c0-.188-.082-.282-.246-.282h-.844zm-4.746 0c-.164 0-.246.094-.246.282v1.441c0 .188.082.281.246.281h.809c.187 0 .281-.093.281-.28v-1.442c0-.188-.094-.282-.281-.282h-.809zm25.383 11.04c.586 0 1.078.199 1.477.597.398.399.597.89.597 1.477v.316c0 .563-.199 1.055-.597 1.477-.399.398-.891.597-1.477.597h-3.375c-.164 0-.246.082-.246.246v3.165a1.95 1.95 0 0 1-.633 1.476 1.963 1.963 0 0 1-1.441.598h-.844c-.563 0-1.055-.2-1.477-.598-.398-.398-.597-.89-.597-1.477v-3.164c0-.164-.082-.246-.246-.246h-3.868c-.562 0-1.054-.199-1.476-.597a2.08 2.08 0 0 1-.598-1.477v-.316c0-.586.199-1.078.598-1.477a2.083 2.083 0 0 1 1.476-.598h3.868c.164 0 .246-.093.246-.28v-2.11c0-.164-.082-.246-.246-.246h-1.899c-.164 0-.281.082-.351.246a4.174 4.174 0 0 1-.141.316c-.234.516-.633.844-1.195.985a2.252 2.252 0 0 1-1.582-.176c-.328-.164-.668-.34-1.02-.527-.07-.024-.129-.012-.176.035-.047.023-.07.07-.07.14v6.856c0 1.008-.117 1.828-.351 2.46a2.858 2.858 0 0 1-1.161 1.512c-.703.399-1.593.645-2.672.739h-.21c-.493 0-.95-.164-1.372-.492a2.965 2.965 0 0 1-.984-1.442 10.992 10.992 0 0 0-.141-.457 1.438 1.438 0 0 1-.105-.492c0-.281.082-.54.246-.774.258-.398.621-.597 1.09-.597h.879c.187 0 .316-.035.387-.106.093-.093.14-.246.14-.457v-4.254c0-.164-.082-.246-.246-.246h-5.871c-.164 0-.258.082-.281.246-.375 3.024-.996 5.508-1.864 7.453-.211.493-.597.786-1.16.88-.14.023-.281.035-.422.035-.375 0-.738-.106-1.089-.317a.421.421 0 0 0-.106-.07 2.24 2.24 0 0 1-.949-1.266 3.399 3.399 0 0 1-.07-.668c0-.304.058-.61.175-.914 1.102-2.531 1.653-6.305 1.653-11.32v-5.309a.62.62 0 0 0-.176-.457 26.302 26.302 0 0 0-1.055-.879 2.022 2.022 0 0 1-.738-1.336v-.28c0-.446.129-.856.387-1.231 1.406-2.016 2.531-4.465 3.375-7.348.164-.562.492-.996.984-1.3.352-.212.715-.317 1.09-.317.164 0 .316.012.457.035l.562.14c.563.118.997.41 1.301.88.188.304.281.62.281.949a1.9 1.9 0 0 1-.105.597l-.07.211c-.024.047-.024.106 0 .176.047.047.105.07.175.07h2.356a.314.314 0 0 0 .141-.035c.14-.023.269-.035.386-.035.235 0 .469.059.703.176l.985.598c.422.257.715.632.879 1.125.07.21.105.421.105.632 0 .258-.047.516-.14.774l-1.09 2.426c-.047.046-.059.105-.036.175a.24.24 0 0 0 .176.07h1.934c.445 0 .82.165 1.125.493.328.305.492.68.492 1.125 0 .047.023.082.07.105.047.024.082.024.106 0 1.922-1.007 3.105-2.578 3.551-4.71.023-.165-.047-.247-.211-.247h-1.231c-.562 0-1.054-.199-1.476-.597A2.08 2.08 0 0 1 233 4.246v-.105c0-.586.199-1.079.598-1.477a2.083 2.083 0 0 1 1.476-.598h12.129c.563 0 1.031.2 1.406.598.375.398.563.867.563 1.406 0 2.18-.117 4.22-.352 6.117-.187 1.313-.468 2.215-.843 2.708-.539.68-1.325 1.125-2.356 1.335-.281.047-.82.094-1.617.141.117 0 .223.047.316.14.094.071.141.177.141.317v2.25c0 .188.082.281.246.281h2.637c.562 0 1.043.2 1.441.598.422.398.633.89.633 1.477v.21c0 .563-.211 1.055-.633 1.477a1.964 1.964 0 0 1-1.441.598h-2.637c-.164 0-.246.082-.246.246v2.11c0 .187.082.28.246.28h3.375zm13.606-21.762c.492.281.785.715.878 1.3.024.118.036.247.036.387 0 .422-.129.809-.387 1.16l-.633.88a1.737 1.737 0 0 1-1.301.808h-.316c-.445 0-.844-.117-1.195-.352a22.37 22.37 0 0 0-2.918-1.687 1.818 1.818 0 0 1-.914-1.16 1.668 1.668 0 0 1-.071-.457c0-.352.117-.68.352-.985l.351-.492c.375-.492.856-.82 1.442-.984a2.43 2.43 0 0 1 .703-.106c.351 0 .691.07 1.019.211 1.078.469 2.063.961 2.954 1.477zm-2.11 9.668c.492.281.797.703.914 1.265.024.141.035.282.035.422 0 .422-.129.809-.386 1.16l-.633.95a2.006 2.006 0 0 1-1.336.808h-.352c-.422 0-.808-.117-1.16-.351a31.656 31.656 0 0 0-2.988-1.653 1.7 1.7 0 0 1-.914-1.125 1.665 1.665 0 0 1-.07-.457c0-.351.105-.668.316-.949l.387-.598a2.883 2.883 0 0 1 1.406-1.02c.258-.07.515-.105.773-.105.328 0 .645.059.95.176a41.8 41.8 0 0 1 3.058 1.477zm-1.23 8.824a1.699 1.699 0 0 1 1.511-.914c.375 0 .715.129 1.02.387l.809.632c.468.375.761.868.878 1.477.047.188.071.387.071.598 0 .375-.082.75-.246 1.125a197.534 197.534 0 0 1-3.973 7.734 1.698 1.698 0 0 1-1.195.914c-.164.047-.317.07-.457.07-.375 0-.727-.117-1.055-.351l-1.195-.88c-.469-.327-.762-.784-.879-1.37a2.501 2.501 0 0 1-.035-.422c0-.422.117-.809.351-1.16a112.01 112.01 0 0 0 4.395-7.84zm16.734-10.582c-.164 0-.246.094-.246.281v2.18c0 1.289-.024 2.273-.07 2.953 0 .164.082.246.246.246h3.129c.164 0 .246-.082.246-.246v-5.133c0-.187-.082-.281-.246-.281h-3.059zm10.969 8.473c0 .585-.199 1.078-.598 1.476-.398.399-.891.598-1.476.598h-5.766c-.047 0-.094.035-.141.105a.152.152 0 0 0 0 .14 18.775 18.775 0 0 0 2.742 4.395 16.267 16.267 0 0 0 3.833 3.235c.445.258.703.633.773 1.125.023.094.035.187.035.281 0 .398-.129.75-.387 1.055-.398.422-.773.867-1.125 1.336-.351.492-.796.82-1.336.984a4.242 4.242 0 0 1-.527.035c-.351 0-.703-.105-1.055-.316-3.07-2.063-5.519-5.227-7.347-9.492-.024-.047-.059-.07-.106-.07s-.07.023-.07.07c-1.242 3.937-3.516 7.101-6.82 9.492a2.372 2.372 0 0 1-1.336.422h-.317a2.665 2.665 0 0 1-1.547-.739 24.665 24.665 0 0 0-1.265-1.054 1.282 1.282 0 0 1-.457-.739 1.03 1.03 0 0 1-.07-.386c0-.164.035-.317.105-.457.094-.282.269-.516.527-.703 3.164-2.157 5.274-4.97 6.328-8.438.024-.07.012-.129-.035-.176-.047-.07-.105-.105-.175-.105h-3.797c-.586 0-1.079-.2-1.477-.598-.398-.398-.598-.89-.598-1.476v-.739c0-.562.2-1.043.598-1.441a1.95 1.95 0 0 1 1.477-.633h4.605c.164 0 .258-.082.281-.246.047-1.008.071-2.004.071-2.988v-2.145c0-.187-.082-.281-.246-.281h-3.059c-.586 0-1.078-.2-1.477-.598-.398-.398-.597-.89-.597-1.476V7.69c0-.562.199-1.043.597-1.441a1.952 1.952 0 0 1 1.477-.633h3.059c.164 0 .246-.082.246-.246V2.277c0-.562.199-1.043.597-1.441.422-.422.914-.633 1.477-.633h1.09c.562 0 1.043.211 1.441.633.422.398.633.879.633 1.441v3.094c0 .164.082.246.246.246h6.363c.563 0 1.043.211 1.442.633.422.398.633.879.633 1.441v8.227c0 .164.082.246.246.246h.211c.585 0 1.078.211 1.476.633.399.398.598.879.598 1.441v.739zm13.008-13.29c0-.164-.082-.246-.247-.246h-3.726c-.188 0-.281.082-.281.247v.773c0 .187.093.281.281.281h3.726c.165 0 .247-.094.247-.281v-.774zm-4.254 5.59c0 .164.093.246.281.246h3.726c.165 0 .247-.082.247-.246v-.808c0-.188-.082-.281-.247-.281h-3.726c-.188 0-.281.093-.281.28v.81zm9.14 2.11c0 .562-.199 1.054-.597 1.476-.399.399-.891.598-1.477.598h-6.785c-.188 0-.281.082-.281.246v16.629c0 .586-.2 1.078-.598 1.477-.398.398-.891.597-1.477.597h-1.019c-.586 0-1.078-.2-1.477-.597-.398-.399-.597-.891-.597-1.477V3.578c0-.562.199-1.043.597-1.441a1.952 1.952 0 0 1 1.477-.633h10.16c.586 0 1.078.21 1.477.633.398.398.597.879.597 1.441v9.809zm6.961-2.04c0 .165.082.247.246.247h3.903c.187 0 .281-.082.281-.246v-.88c0-.187-.094-.28-.281-.28h-3.903c-.164 0-.246.093-.246.28v.88zm4.43-5.695c0-.164-.094-.246-.281-.246h-3.903c-.164 0-.246.082-.246.246v.809c0 .187.082.281.246.281h3.903c.187 0 .281-.094.281-.281v-.809zm-8.438 19.407c.164 0 .247-.082.247-.247V22c0-.164-.083-.246-.247-.246h-4.043c-.187 0-.281.082-.281.246v2.813c0 .164.094.246.281.246h4.043zm11.637-23.555c.586 0 1.078.21 1.477.633.398.398.597.879.597 1.441v24.785c0 1.407-.164 2.496-.492 3.27-.305.797-.867 1.406-1.687 1.828-1.125.562-2.918.879-5.379.95h-.071a2.282 2.282 0 0 1-1.511-.563 2.747 2.747 0 0 1-.949-1.442 19.763 19.763 0 0 0-1.09-2.847c-.071-.165-.2-.247-.387-.247h-6.223c-.164 0-.246.07-.246.211 0 .493-.176.915-.527 1.266-.328.328-.738.492-1.231.492h-.984c-.562 0-1.055-.199-1.477-.597-.398-.399-.597-.891-.597-1.477v-9.633c0-.562.199-1.043.597-1.441.422-.422.915-.633 1.477-.633h10.16c.563 0 1.043.21 1.442.633.421.398.632.879.632 1.441v9.352c0 .187.082.281.246.281h2.075c.351 0 .597-.07.738-.21.141-.142.211-.376.211-.704v-12.55c0-.165-.094-.247-.281-.247h-7.032c-.585 0-1.078-.2-1.476-.598a2.08 2.08 0 0 1-.598-1.476V3.578c0-.562.199-1.043.598-1.441a1.95 1.95 0 0 1 1.476-.633h10.512zm15.75 4.57c.188 0 .281-.082.281-.246V5.23c0-.164-.093-.246-.281-.246h-3.551c-.164 0-.246.082-.246.246v.598c0 .164.082.246.246.246h3.551zm0 4.36c.188 0 .281-.082.281-.246v-.633c0-.164-.093-.246-.281-.246h-3.551c-.164 0-.246.082-.246.246v.633c0 .164.082.246.246.246h3.551zm3.024-8.895c.562 0 1.043.211 1.441.633.422.398.633.879.633 1.441v8.192c0 .562-.211 1.054-.633 1.476a1.963 1.963 0 0 1-1.441.598h-9.352c-.586 0-1.078-.2-1.477-.598a2.084 2.084 0 0 1-.597-1.476V3.613c0-.562.199-1.043.597-1.441a1.952 1.952 0 0 1 1.477-.633h9.352zm14.062 9.633c.164 0 .246-.094.246-.281v-.563c0-.187-.082-.281-.246-.281h-4.922c-.187 0-.281.094-.281.281v.563c0 .187.094.28.281.28h4.922zm0 4.36c.164 0 .246-.095.246-.282v-.598c0-.164-.082-.246-.246-.246h-4.922c-.187 0-.281.082-.281.246v.598c0 .188.094.281.281.281h4.922zm0 4.359c.164 0 .246-.094.246-.282v-.597c0-.164-.082-.246-.246-.246h-4.922c-.187 0-.281.082-.281.246v.597c0 .188.094.282.281.282h4.922zm5.484 6.187c.305.305.457.668.457 1.09v.246c-.093.54-.374.938-.843 1.195l-1.512.88c-.047.023-.07.058-.07.105.023.023.058.035.105.035.539-.024 1.02-.035 1.442-.035h.035c.422 0 .75.187.984.562.141.235.211.469.211.703 0 .164-.035.34-.105.528a7.035 7.035 0 0 0-.141.386 3.093 3.093 0 0 1-1.055 1.442 2.466 2.466 0 0 1-1.582.562h-13.113c-3.328 0-5.977-.258-7.945-.773-1.946-.516-3.539-1.535-4.782-3.059-.046-.047-.105-.058-.175-.035-.047 0-.071.024-.071.07a16.23 16.23 0 0 1-1.195 3.024c-.234.422-.586.633-1.055.633h-.035c-.492-.024-.902-.235-1.23-.633l-.352-.422A2.915 2.915 0 0 1 324.16 31a2.01 2.01 0 0 1-.035-.387c0-.445.094-.879.281-1.3.656-1.524 1.043-3.786 1.16-6.786a2.138 2.138 0 0 1 .633-1.476 2.083 2.083 0 0 1 1.477-.598c.586 0 1.078.2 1.476.598.375.398.563.855.563 1.37 0 .306-.035.856-.106 1.653a.843.843 0 0 0 .071.492 8.196 8.196 0 0 0 1.09 1.934c.023.047.046.059.07.035.047-.023.07-.047.07-.07v-6.856c0-.187-.082-.28-.246-.28h-4.324c-.516 0-.961-.177-1.336-.528a1.885 1.885 0 0 1-.527-1.336c0-.516.175-.95.527-1.3.375-.376.82-.563 1.336-.563h12.515c.516 0 .95.187 1.301.562.375.352.563.785.563 1.3 0 .517-.188.962-.563 1.337a1.767 1.767 0 0 1-1.301.527h-3.304c-.188 0-.281.094-.281.281v1.828c0 .188.093.282.281.282h2.637c.492 0 .914.187 1.265.562.375.352.563.785.563 1.301 0 .492-.188.926-.563 1.3a1.724 1.724 0 0 1-1.265.528h-2.637c-.188 0-.281.094-.281.281v3.27c0 .187.093.293.281.316 1.476.282 3.515.422 6.117.422h.176c.047 0 .082-.023.105-.07.024-.047.012-.082-.035-.106a29.055 29.055 0 0 0-1.23-1.16 1.347 1.347 0 0 1-.422-.984v-.176c.047-.469.281-.82.703-1.055a22.96 22.96 0 0 0 2.004-1.3c.82-.657 1.64-.985 2.461-.985.328 0 .668.059 1.019.176l.281.07c.469.164.774.48.915.95.046.14.07.27.07.386 0 .328-.117.621-.352.88a21.333 21.333 0 0 1-4.078 3.234c-.047.023-.07.058-.07.105.023.023.058.035.105.035 4.758 0 8.379-.023 10.864-.07.07 0 .117-.024.14-.07.024-.047.012-.094-.035-.141-.844-1.031-1.887-2.098-3.129-3.2a1.337 1.337 0 0 1-.457-1.019c0-.562.235-.972.703-1.23l.949-.492c.024 0 .036-.012.036-.036 0-.046-.024-.07-.071-.07h-8.683c-.563 0-1.055-.2-1.477-.598a2.085 2.085 0 0 1-.598-1.476V8.676c0-.586.2-1.078.598-1.477a2.083 2.083 0 0 1 1.477-.597h2.39c.188 0 .305-.082.352-.247l.281-.914a.238.238 0 0 0-.07-.175c-.024-.047-.07-.07-.141-.07h-4.043c-.492 0-.914-.176-1.265-.528a1.725 1.725 0 0 1-.528-1.266c0-.515.176-.949.528-1.3a1.724 1.724 0 0 1 1.265-.528h13.114c.492 0 .914.176 1.265.528.352.351.527.785.527 1.3 0 .493-.175.914-.527 1.266a1.724 1.724 0 0 1-1.265.527h-3.903c-.164 0-.281.082-.351.246l-.457.914c-.024.047-.024.106 0 .176.023.047.07.07.14.07h3.41c.586 0 1.079.2 1.477.598.398.399.598.89.598 1.477v12.62c0 .563-.2 1.056-.598 1.477-.398.399-.891.598-1.477.598h-.492c-.047 0-.082.024-.105.07 0 .024.011.047.035.07a30.037 30.037 0 0 1 3.058 2.567zm3.411-10.687c0-.563.199-1.043.597-1.442.422-.422.914-.633 1.477-.633h29.39c.563 0 1.043.211 1.442.633.422.399.633.88.633 1.442v1.582c0 .562-.211 1.054-.633 1.476a1.966 1.966 0 0 1-1.442.598h-29.39c-.563 0-1.055-.2-1.477-.598a2.084 2.084 0 0 1-.597-1.476V15.39zm45.07-9.457c.469.375.703.867.703 1.476a2.08 2.08 0 0 1-.598 1.477l-1.16 1.265c-.375.375-.82.563-1.336.563h-.035a1.984 1.984 0 0 1-1.406-.563c-.844-.82-1.875-1.71-3.094-2.672-.492-.375-.738-.878-.738-1.511 0-.469.176-.88.527-1.23l.844-.88a2.43 2.43 0 0 1 1.512-.773h.281c.492 0 .937.14 1.336.422 1.266.867 2.32 1.676 3.164 2.426zm-2.813 11.882a1.577 1.577 0 0 1 1.196-.527h.14c.516.047.926.281 1.231.703l.668 1.055c.328.469.492.984.492 1.547 0 .68-.223 1.277-.668 1.793a123.86 123.86 0 0 1-4.992 5.554c-.352.352-.762.528-1.231.528h-.14a1.74 1.74 0 0 1-1.301-.739l-.879-1.195a2.236 2.236 0 0 1-.492-1.406v-.176c.047-.61.281-1.125.703-1.547a179.967 179.967 0 0 0 5.273-5.59zm17.438-6.293c-.188 0-.281.094-.281.282v2.883c0 1.101.152 2.238.457 3.41.304 1.148.773 2.367 1.406 3.656.633 1.265 1.559 2.52 2.777 3.762 1.219 1.218 2.649 2.285 4.289 3.199a1.7 1.7 0 0 1 .879 1.16c.024.14.035.281.035.422 0 .351-.105.68-.316.984l-.984 1.407c-.352.492-.809.82-1.371.984-.188.047-.375.07-.563.07-.351 0-.703-.105-1.055-.316a19.145 19.145 0 0 1-5.379-4.887c-1.453-1.992-2.414-3.809-2.882-5.45 0-.046-.024-.07-.071-.07-.023 0-.047.024-.07.07-.562 1.642-1.676 3.446-3.34 5.415-1.664 1.969-3.703 3.633-6.117 4.992a2.182 2.182 0 0 1-.984.246c-.211 0-.422-.035-.633-.105-.539-.164-.985-.492-1.336-.985a14.744 14.744 0 0 0-.774-1.054 1.703 1.703 0 0 1-.316-.985c0-.117.012-.246.035-.386.117-.493.41-.856.879-1.09 1.781-.914 3.34-1.992 4.676-3.235 1.359-1.265 2.39-2.554 3.094-3.867.726-1.336 1.254-2.601 1.582-3.797.351-1.218.527-2.39.527-3.515v-2.918c0-.188-.094-.282-.281-.282h-1.442c-.187 0-.316.082-.386.247-.704 1.57-1.465 3-2.286 4.289-.304.468-.75.761-1.335.878a2.792 2.792 0 0 1-.457.036c-.399 0-.786-.117-1.161-.352a17.977 17.977 0 0 0-1.336-.738c-.468-.258-.75-.633-.843-1.125a2.312 2.312 0 0 1-.036-.387c0-.375.106-.715.317-1.02 2.016-2.789 3.551-6.433 4.605-10.933.141-.563.446-.996.914-1.3a1.921 1.921 0 0 1 1.161-.388c.117 0 .246.012.386.036l1.336.246a1.964 1.964 0 0 1 1.336.843c.211.329.317.68.317 1.055 0 .164-.024.328-.071.492a63.037 63.037 0 0 1-.703 2.637.331.331 0 0 0 0 .211.24.24 0 0 0 .176.07h10.828c.07 0 .141-.011.211-.035.211-.07.422-.105.633-.105.375 0 .738.105 1.09.316l1.3.774c.516.304.891.738 1.125 1.3.118.305.176.61.176.914 0 .282-.047.551-.14.809a53.118 53.118 0 0 1-2.707 6.293 1.914 1.914 0 0 1-1.196 1.02c-.234.07-.457.105-.668.105-.328 0-.644-.07-.949-.211a17.726 17.726 0 0 1-.668-.352 2.04 2.04 0 0 1-1.09-1.16 1.984 1.984 0 0 1 .035-1.547c.375-.89.727-1.78 1.055-2.671a.237.237 0 0 0-.07-.176c-.024-.047-.071-.07-.141-.07h-3.199zm24.117 15.54c0 .187.082.269.246.246l4.254-.493h.246c.469 0 .879.165 1.231.493.422.351.644.808.668 1.37v.704a2.314 2.314 0 0 1-.528 1.582 2.153 2.153 0 0 1-1.441.773c-2.742.375-7.406.961-13.992 1.758h-.282c-.468 0-.89-.14-1.265-.422a2.11 2.11 0 0 1-.844-1.406l-.176-1.09v-.316c0-.446.141-.844.422-1.196.328-.421.774-.668 1.336-.738.164 0 1.711-.14 4.641-.422.164-.023.246-.129.246-.316v-3.094c0-.187-.082-.281-.246-.281h-3.129c-.586 0-1.078-.2-1.477-.598-.398-.398-.597-.89-.597-1.476v-.493c0-.562.199-1.043.597-1.441a1.952 1.952 0 0 1 1.477-.633h3.129c.164 0 .246-.082.246-.246v-.738c0-.563.199-1.043.598-1.442.421-.421.914-.632 1.476-.632h1.09a1.91 1.91 0 0 1 1.441.632c.422.399.633.88.633 1.442v.738c0 .164.082.246.246.246h3.024c.586 0 1.078.211 1.476.633.399.398.598.879.598 1.441v.493c0 .586-.199 1.078-.598 1.476-.398.399-.89.598-1.476.598h-3.024c-.164 0-.246.094-.246.281v2.567zm-3.551-15.961c-.023.046-.023.105 0 .175a.24.24 0 0 0 .176.07l3.621-.07c.047 0 .082-.023.106-.07a.152.152 0 0 0 0-.14 3.964 3.964 0 0 0-.211-.317 1.86 1.86 0 0 1-.317-1.02c0-.164.024-.316.071-.457.14-.539.445-.937.914-1.195l1.722-.879c.024-.023.036-.047.036-.07 0-.047-.024-.07-.071-.07h-4.078c-.187 0-.305.082-.351.246a131.364 131.364 0 0 1-1.618 3.797zm16.278 12.058c0 .586-.2 1.078-.598 1.477-.398.398-.891.597-1.477.597h-.843c-.586 0-1.078-.199-1.477-.597-.398-.399-.598-.89-.598-1.477v-7.84c0-.07-.023-.117-.07-.14-.047-.024-.105-.024-.176 0l-2.496 1.37a1.293 1.293 0 0 1-.632.177c-.165 0-.329-.024-.493-.07a1.515 1.515 0 0 1-.808-.81c-.047-.117-.141-.175-.282-.175-3.023.164-7.113.34-12.269.527h-.07a2.03 2.03 0 0 1-1.442-.562c-.422-.375-.656-.856-.703-1.442l-.035-.668a1.902 1.902 0 0 1 .527-1.441 2.036 2.036 0 0 1 1.442-.668h.633c.187 0 .304-.082.351-.246a40.639 40.639 0 0 0 1.09-3.867c.047-.164-.024-.246-.211-.246h-1.793c-.586 0-1.078-.2-1.477-.598a2.084 2.084 0 0 1-.597-1.477v-.457c0-.562.199-1.043.597-1.441a1.952 1.952 0 0 1 1.477-.633h14.168c.586 0 1.078.211 1.477.633.398.398.597.879.597 1.441v.457c0 .563-.199 1.055-.597 1.477-.399.398-.891.598-1.477.598h-1.336c-.047 0-.082.023-.105.07a.146.146 0 0 0 0 .14c2.226 2.86 3.761 5.32 4.605 7.383.023.024.047.036.07.036.024 0 .035-.012.035-.036V6.707c0-.562.2-1.043.598-1.441a1.952 1.952 0 0 1 1.477-.633h.843c.586 0 1.079.21 1.477.633.398.398.598.879.598 1.441V23.16zm3.023-19.863c0-.563.199-1.043.598-1.442.422-.421.914-.632 1.476-.632h.985c.562 0 1.043.21 1.441.632.422.399.633.88.633 1.442v25.101c0 1.43-.164 2.52-.492 3.27-.305.75-.844 1.336-1.617 1.758-1.055.539-2.743.855-5.063.949h-.105a2.328 2.328 0 0 1-1.477-.527 2.747 2.747 0 0 1-.949-1.442 18.034 18.034 0 0 0-.422-1.37 1.247 1.247 0 0 1-.106-.493c0-.258.082-.516.247-.773.281-.375.644-.563 1.089-.563h.036c.843.023 1.793.035 2.847.035.328-.023.551-.094.668-.21.141-.118.211-.34.211-.669V3.297zM479.691 8.5c0-.586.2-1.078.598-1.477a2.083 2.083 0 0 1 1.477-.597h5.66c.187 0 .281-.094.281-.281v-3.34c0-.586.199-1.078.598-1.477.398-.398.89-.598 1.476-.598h1.125c.586 0 1.078.2 1.477.598.398.399.597.89.597 1.477v3.34c0 .187.094.28.282.28h6.258c.585 0 1.078.2 1.476.598.399.399.598.891.598 1.477v.773a2.08 2.08 0 0 1-.598 1.477c-.398.398-.891.598-1.476.598h-17.754c-.563 0-1.055-.2-1.477-.598a2.085 2.085 0 0 1-.598-1.477V8.5zm9.141 15.61v.28c0 .47-.152.903-.457 1.301-.352.493-.82.797-1.406.915l-1.09.21c-.141.047-.27.07-.387.07-.375 0-.726-.128-1.054-.386a1.776 1.776 0 0 1-.704-1.3c-.211-3.071-.668-6.329-1.371-9.774a2.61 2.61 0 0 1-.035-.422c0-.399.117-.774.352-1.125.304-.469.738-.75 1.3-.844l.633-.105c.141-.024.282-.035.422-.035.422 0 .82.117 1.195.351.493.328.797.774.915 1.336.796 3.445 1.359 6.621 1.687 9.527zM474.91 2.206c.235-.539.621-.926 1.16-1.16.305-.14.61-.211.914-.211.235 0 .469.035.704.105l.949.317c.539.187.925.527 1.16 1.02.117.257.176.515.176.773s-.059.515-.176.773a64.78 64.78 0 0 1-2.285 4.606.865.865 0 0 0-.141.492V32.23a1.95 1.95 0 0 1-.633 1.477 1.963 1.963 0 0 1-1.441.598h-.809c-.586 0-1.078-.2-1.476-.598-.399-.398-.598-.89-.598-1.477V16.305c0-.047-.023-.082-.07-.106-.047-.023-.082-.012-.106.035-.281.328-.55.645-.808.95a1.24 1.24 0 0 1-.95.421h-.281c-.469-.093-.808-.375-1.019-.843a44.161 44.161 0 0 0-.879-1.793 2.737 2.737 0 0 1-.317-1.301c0-.117.012-.246.036-.387.07-.61.316-1.136.738-1.582 2.461-2.695 4.512-5.86 6.152-9.492zm20.848 25.594c-.024.07-.012.129.035.176.047.046.105.07.176.07h4.183c.586 0 1.078.21 1.477.633.398.398.598.879.598 1.441v.774c0 .585-.2 1.078-.598 1.476-.399.398-.891.598-1.477.598h-19.019c-.563 0-1.055-.2-1.477-.598-.398-.398-.597-.89-.597-1.477v-.773c0-.562.199-1.043.597-1.441.422-.422.914-.633 1.477-.633h9.246c.187 0 .305-.082.351-.246 1.125-4.149 1.981-8.602 2.567-13.36a1.88 1.88 0 0 1 .773-1.336c.352-.28.75-.421 1.196-.421.093 0 .199.011.316.035l1.582.246a1.964 1.964 0 0 1 1.336.844c.258.328.387.703.387 1.125 0 .117-.012.246-.035.386-.868 4.383-1.899 8.543-3.094 12.48z" fill="#333"/>
</svg>
