<svg width="141" height="65" fill="none" xmlns="http://www.w3.org/2000/svg">
    <path d="M21.623 1.85c.423 0 .779.152 1.066.457.288.287.432.634.432 1.04v.382c0 .406-.144.761-.431 1.066a1.449 1.449 0 0 1-1.067.432H2.503c-.422 0-.778-.144-1.066-.432a1.504 1.504 0 0 1-.431-1.066v-.381c0-.407.144-.754.431-1.041a1.408 1.408 0 0 1 1.067-.457h19.119zM9.867 16.729c.017-.119-.034-.178-.152-.178H6.262c-.119 0-.186.059-.203.178-.305 2.115-.779 3.918-1.422 5.408a.108.108 0 0 0 0 .101.108.108 0 0 0 .101 0c.931-.287 1.718-.618 2.362-.99.643-.372 1.142-.796 1.498-1.27.372-.49.651-.981.838-1.472.186-.491.33-1.084.431-1.777zm7.922-7.897c0-.118-.06-.178-.178-.178H6.541c-.118 0-.178.06-.178.178v.711c0 .135.06.203.178.203h11.07c.119 0 .178-.068.178-.203v-.711zm-6.55 4.799c.118 0 .177-.06.177-.178v-.812c0-.136-.06-.204-.178-.204H6.541c-.118 0-.178.068-.178.204 0 .084-.008.22-.025.406v.406c0 .119.06.178.178.178h4.722zm12.085.431c.288.288.432.635.432 1.042 0 .389-.144.727-.432 1.015a1.39 1.39 0 0 1-1.015.432h-8.456c-.118 0-.186.059-.203.178-.05.321-.093.584-.127.787-.033.118.017.177.153.177H20.2c.406 0 .753.153 1.041.457.237.254.356.559.356.915 0 2.725-.398 4.519-1.194 5.382-.508.525-1.252.847-2.234.965-.474.05-1.109.085-1.904.102h-.026c-.406 0-.77-.144-1.092-.432a2.05 2.05 0 0 1-.66-1.066 1.341 1.341 0 0 1-.076-.28.727.727 0 0 1-.076-.33c0-.186.06-.364.178-.533.186-.27.431-.406.736-.406l.025.025c.407.017.77.026 1.092.026.373 0 .669-.094.889-.28.186-.152.338-.66.457-1.523.017-.119-.034-.178-.152-.178h-4.748a.319.319 0 0 0-.28.152c-.948 1.862-2.666 3.284-5.154 4.266a1.625 1.625 0 0 1-.559.102c-.203 0-.406-.043-.61-.127-.388-.17-.702-.44-.939-.813a15.32 15.32 0 0 0-.837-1.142c-.085-.085-.161-.068-.229.05a8.431 8.431 0 0 1-.635 1.067c-.22.338-.541.533-.965.584h-.203c-.338 0-.651-.102-.94-.305a28.043 28.043 0 0 0-.735-.457 1.244 1.244 0 0 1-.584-.863 1.343 1.343 0 0 1 .203-1.016c.49-.728.897-1.532 1.218-2.412.322-.897.55-1.82.686-2.768.152-.947.245-1.785.28-2.513.05-.745.075-1.574.075-2.489V7.462c0-.406.144-.753.432-1.041.305-.305.66-.457 1.067-.457h15.92c.406 0 .753.152 1.04.457.305.288.457.635.457 1.04v3.48c0 .423-.152.778-.457 1.066a1.42 1.42 0 0 1-1.04.431h-4.672c-.119 0-.178.068-.178.204v.812c0 .119.06.178.178.178h6.957c.389 0 .727.144 1.015.431zm8.455-4.367c-.423 0-.778-.144-1.066-.431a1.504 1.504 0 0 1-.432-1.067v-.99c0-.05-.017-.085-.05-.102a.108.108 0 0 0-.102 0c-.288.204-.584.398-.889.584a1.731 1.731 0 0 1-1.193.229 1.906 1.906 0 0 1-1.092-.61c-.203-.203-.39-.397-.558-.583a.974.974 0 0 1-.305-.711v-.178c.05-.339.237-.593.558-.762 1.947-.982 3.58-2.133 4.9-3.453a2.324 2.324 0 0 1 1.118-.635c.17-.05.347-.076.533-.076.254 0 .5.042.736.127l.61.229c.355.135.575.38.66.736.034.102.05.203.05.305 0 .237-.092.457-.279.66-.287.304-.6.626-.939.965a.46.46 0 0 0-.152.33v3.935c0 .407-.144.762-.432 1.067a1.449 1.449 0 0 1-1.066.431h-.61zm1.371 8.328c-.135 0-.203.068-.203.204v.38c0 .119.068.178.203.178h9.903c.135 0 .203-.06.203-.178v-.38c0-.136-.068-.204-.203-.204H33.15zm0-2.767c-.135 0-.203.06-.203.178v.355c0 .136.068.203.203.203h9.903c.135 0 .203-.068.203-.203v-.355c0-.119-.068-.178-.203-.178H33.15zm0-2.793c-.135 0-.203.068-.203.203v.33c0 .136.068.203.203.203h9.903c.135 0 .203-.067.203-.203v-.33c0-.135-.068-.203-.203-.203H33.15zm14.168-6.627c0-.034-.017-.068-.05-.102-.034-.05-.077-.076-.127-.076l-3.936.254c-.034 0-.06.017-.076.05 0 .035.008.06.025.077.982.813 2.048 1.219 3.2 1.219.304 0 .524-.093.66-.28.135-.203.237-.583.304-1.142zm-.253 13.61c0 .422-.144.778-.432 1.066a1.448 1.448 0 0 1-1.067.431h-2.158c-.017 0-.025.009-.025.026s.008.034.025.05c2.218.898 3.97 1.643 5.256 2.235.254.118.372.313.355.584-.016.288-.152.482-.406.584l-1.675.61c-.356.135-.711.202-1.067.202-.542 0-1.083-.152-1.625-.457a44.45 44.45 0 0 0-3.809-1.879c-.287-.118-.431-.347-.431-.685 0-.27.127-.474.38-.61l.991-.558c.017-.017.017-.034 0-.05 0-.035-.009-.052-.025-.052h-6.577c-.017 0-.025.017-.025.051 0 .017.008.026.025.026l.813.38c.322.136.482.381.482.737a.727.727 0 0 1-.38.66c-1.592.863-3.437 1.642-5.536 2.336a2.503 2.503 0 0 1-1.32.025 2.418 2.418 0 0 1-1.143-.685l-.66-.66a.755.755 0 0 1-.203-.356.836.836 0 0 1-.025-.203c0-.068.008-.127.025-.178a.88.88 0 0 1 .178-.355.617.617 0 0 1 .38-.178c1.913-.423 3.564-.931 4.952-1.523.017 0 .025-.009.025-.026 0-.034-.017-.05-.05-.05h-1.499c-.406 0-.761-.145-1.066-.432a1.449 1.449 0 0 1-.432-1.067v-7.668c0-.406.144-.753.432-1.04.305-.305.66-.458 1.066-.458h13.127c0-.017-.008-.034-.025-.05-2.133-.576-3.842-1.862-5.129-3.86a.342.342 0 0 0-.305-.152l-2.36.127c-.018.017-.043.025-.077.025-.355 0-.669-.118-.94-.355a1.503 1.503 0 0 1-.507-.965v-.153a1.287 1.287 0 0 1 1.244-1.295l1.447-.101c.119 0 .16-.06.127-.178a9.842 9.842 0 0 1-.254-1.066 1.713 1.713 0 0 1-.025-.28c0-.27.101-.524.304-.761.254-.305.584-.457.99-.457h.483c.423 0 .796.144 1.117.431.339.271.567.618.686 1.041.101.305.211.601.33.89.05.118.135.168.254.151l2.463-.126c.017 0 .025-.009.025-.026s-.008-.034-.025-.05c-.339-.12-.644-.22-.914-.305a.767.767 0 0 1-.534-.508.73.73 0 0 1 .178-.711c.271-.288.584-.491.94-.61.203-.067.406-.101.609-.101.152 0 .313.025.482.076.813.203 1.583.449 2.31.736.238.085.382.263.433.534a.783.783 0 0 1-.178.685c-.017 0-.017.017 0 .051.017.017.034.025.05.025l.99-.05h.077a1.38 1.38 0 0 1 1.396 1.27.48.48 0 0 1 .026.152c0 .304-.102.575-.305.812-.237.288-.541.44-.914.457l-.838.05a.166.166 0 0 0-.076.077c0 .017.017.034.05.05.306.22.686.432 1.144.636.406.186.719.465.939.837.135.22.203.457.203.711 0 .136-.025.28-.076.432-.22.694-.525 1.202-.914 1.523-.39.305-.914.508-1.574.61-.136.017-.203.084-.203.203v8.734zm14.93-17.393c0-.407.143-.754.43-1.041.306-.305.66-.457 1.067-.457h1.168c.406 0 .753.152 1.041.457.305.287.457.634.457 1.04V20.31c0 1.083-.135 1.912-.406 2.488-.27.575-.736 1.024-1.396 1.346-.864.406-2.303.634-4.317.685h-.05a1.65 1.65 0 0 1-1.092-.406c-.356-.271-.601-.618-.737-1.041a11.972 11.972 0 0 0-.431-1.143.755.755 0 0 1-.102-.38c0-.153.05-.305.152-.458.17-.27.406-.406.711-.406h.051c.49.017.956.026 1.397.026.44 0 .854-.009 1.244-.026.304 0 .516-.05.634-.152.119-.119.178-.305.178-.559V2.053zM68.9 8.832a1.359 1.359 0 0 1-.025-1.092c.135-.372.39-.626.762-.761l.914-.356c.203-.068.398-.102.584-.102.203 0 .406.043.61.127.405.136.71.398.913.788a60.478 60.478 0 0 1 2.285 4.85c.627 1.523 1.118 2.902 1.473 4.138a1.788 1.788 0 0 1-.127 1.193 1.677 1.677 0 0 1-.914.787l-1.371.559c-.152.05-.305.076-.457.076-.203 0-.398-.05-.584-.152a1.239 1.239 0 0 1-.635-.864c-.288-1.218-.728-2.606-1.32-4.164A55.138 55.138 0 0 0 68.9 8.832zm-13.965-.94c.085-.406.297-.727.635-.964a1.385 1.385 0 0 1 1.092-.254l1.371.228c.407.068.72.271.94.61.152.237.228.49.228.761 0 .119-.008.237-.025.356-.948 3.927-2.023 6.949-3.225 9.064a1.237 1.237 0 0 1-.889.66 2.515 2.515 0 0 1-.355.026c-.288 0-.559-.076-.813-.229a9.418 9.418 0 0 0-1.091-.558 1.315 1.315 0 0 1-.686-.813 1.572 1.572 0 0 1-.05-.38c0-.238.059-.458.177-.66.576-1 1.092-2.167 1.549-3.505.49-1.472.872-2.92 1.142-4.341zm35.217 5.13c0 .423-.144.778-.431 1.066a1.449 1.449 0 0 1-1.067.432h-2.539c-.135 0-.211.067-.228.203 0 .118-.009.211-.026.279-.034.135-.008.245.076.33.948.965 2.167 2.319 3.657 4.063.288.338.431.727.431 1.168 0 .423-.127.803-.38 1.142l-.686.863c-.22.254-.49.381-.813.381h-.076a1.04 1.04 0 0 1-.863-.482 62.4 62.4 0 0 0-2.31-3.25c-.034-.034-.077-.043-.128-.026-.033 0-.059.017-.076.051-.812 2.082-1.955 3.809-3.427 5.18a1.231 1.231 0 0 1-.864.355H80.2c-.39-.05-.728-.237-1.015-.558a8.361 8.361 0 0 0-.66-.686 1.363 1.363 0 0 1-.381-.965c0-.389.144-.719.431-.99 1.845-1.743 3.013-4.029 3.504-6.855.017-.136-.042-.204-.178-.204h-2.539c-.423 0-.778-.143-1.066-.431a1.449 1.449 0 0 1-.432-1.066v-.56c0-.422.144-.778.432-1.066a1.449 1.449 0 0 1 1.066-.431h2.819c.135 0 .203-.068.203-.203V7.639c0-.119-.068-.178-.203-.178h-.102c-.118 0-.203.06-.254.178a21.553 21.553 0 0 1-.787 1.65 1.163 1.163 0 0 1-.863.61c-.085.016-.17.025-.254.025a1.35 1.35 0 0 1-.813-.28 7.418 7.418 0 0 0-.584-.431 1.514 1.514 0 0 1-.634-.965 1.287 1.287 0 0 1-.051-.355c0-.271.068-.534.203-.788.694-1.32 1.253-2.936 1.676-4.85.084-.388.296-.702.635-.939.254-.169.524-.254.812-.254.085 0 .186.009.305.026l.66.152c.406.068.728.28.965.635.152.237.228.49.228.762 0 .118-.008.237-.025.355-.068.271-.135.533-.203.787-.017.051-.017.093 0 .127.034.034.076.051.127.051h4.875c.406 0 .753.152 1.04.457.305.288.458.635.458 1.041v.508c0 .406-.153.762-.457 1.066a1.418 1.418 0 0 1-1.041.432h-1.702c-.135 0-.203.06-.203.178v3.123c0 .135.068.203.203.203h2.26c.424 0 .779.144 1.067.431.287.288.431.644.431 1.067v.559zm4.266 6.17c0 .135.068.203.203.203h2.412c.136 0 .203-.068.203-.204V6.725c0-.119-.067-.178-.203-.178h-2.412c-.135 0-.203.06-.203.178V19.19zM90.762 4.515c0-.424.144-.779.431-1.067a1.449 1.449 0 0 1 1.067-.431h7.312c.423 0 .779.143 1.067.431.287.288.431.643.431 1.067v18.28c0 .424-.144.78-.431 1.067a1.45 1.45 0 0 1-1.067.432h-1.117c-.338 0-.626-.119-.863-.356a1.175 1.175 0 0 1-.356-.863c0-.101-.05-.152-.152-.152h-2.463c-.135 0-.203.06-.203.178v.127c0 .406-.144.753-.432 1.04a1.408 1.408 0 0 1-1.066.458h-.66c-.423 0-.779-.153-1.067-.457a1.418 1.418 0 0 1-.431-1.041V4.515zm19.195-2.996c.389 0 .719.143.99.431.288.271.432.601.432.99 0 .373-.144.703-.432.99-.271.271-.601.407-.99.407h-3.758c-.389 0-.719-.136-.99-.406a1.402 1.402 0 0 1-.406-.99c0-.39.135-.72.406-.99.271-.289.601-.432.99-.432h3.758zm.533 3.554c.406 0 .753.144 1.041.432.288.288.432.635.432 1.04 0 .407-.144.754-.432 1.042a1.42 1.42 0 0 1-1.041.432h-5.383a1.42 1.42 0 0 1-1.041-.432 1.468 1.468 0 0 1-.406-1.041c0-.406.136-.753.406-1.041a1.42 1.42 0 0 1 1.041-.432h5.383zm-.533 3.733c.389 0 .719.135.99.406.288.27.432.6.432.99s-.144.72-.432.99c-.271.271-.601.407-.99.407h-3.859c-.39 0-.72-.136-.991-.407a1.35 1.35 0 0 1-.406-.99c0-.39.136-.72.406-.99.271-.27.601-.406.991-.406h3.859zm-3.859 6.398c-.39 0-.72-.135-.991-.406a1.407 1.407 0 0 1-.406-.99c0-.39.136-.72.406-.99a1.31 1.31 0 0 1 .991-.432h3.859c.389 0 .719.144.99.431.288.271.432.601.432.99 0 .373-.144.703-.432.99-.271.272-.601.407-.99.407h-3.859zm2.463 3.961c0-.135-.06-.203-.178-.203h-.762c-.135 0-.203.068-.203.203v1.828c0 .119.068.178.203.178h.762c.118 0 .178-.06.178-.178v-1.828zm1.421-3.098c.407 0 .754.144 1.041.432.305.288.457.643.457 1.066v5.028c0 .406-.152.753-.457 1.04a1.378 1.378 0 0 1-1.041.458h-2.462c-.068 0-.102.034-.102.101a.862.862 0 0 1-.254.635.83.83 0 0 1-.609.254h-.559c-.389 0-.728-.144-1.016-.432a1.35 1.35 0 0 1-.406-.99v-6.094c0-.423.144-.778.432-1.066.305-.288.66-.432 1.066-.432h3.91zm5.51 3.91c0 .119.059.178.178.178h1.371c.119 0 .178-.059.178-.177v-.534c0-.118-.059-.177-.178-.177h-1.371c-.119 0-.178.059-.178.177v.534zm1.727-3.834c0-.135-.059-.203-.178-.203h-1.371c-.119 0-.178.068-.178.204v.482c0 .118.059.178.178.178h1.371c.119 0 .178-.06.178-.178v-.482zm.025-9.978c0-.135-.059-.203-.178-.203h-1.447c-.051 0-.093.025-.127.076a.107.107 0 0 0 0 .102c.169.474.313.981.432 1.523.034.102.051.212.051.33 0 .288-.093.559-.28.813a1.697 1.697 0 0 1-1.015.685c-.017 0-.026.009-.026.026l.026.025h3.224c.017 0 .026-.008.026-.025a1.143 1.143 0 0 1-.711-.457 1.162 1.162 0 0 1-.203-.66v-.178c.118-.796.194-1.481.228-2.057zm7.567 8.785a1.3 1.3 0 0 1 .787-.736 1.351 1.351 0 0 1 1.066.076l.152.102c.373.203.627.507.762.914.068.169.102.347.102.533 0 .22-.051.44-.153.66a24.88 24.88 0 0 1-2.336 3.885.299.299 0 0 0-.05.33c.22.508.465.762.736.762.186 0 .338-.39.457-1.168a.599.599 0 0 1 .432-.534.648.648 0 0 1 .685.153.403.403 0 0 1 .102.076c.355.322.609.694.761 1.117.085.237.127.474.127.711 0 .186-.025.38-.076.584-.338 1.168-.745 1.98-1.219 2.438-.457.44-.922.66-1.396.66h-.076c-1.236-.102-2.192-.83-2.869-2.184-.051-.118-.119-.135-.203-.05-.559.524-1.118.998-1.676 1.421-.271.186-.567.28-.889.28-.068 0-.144-.009-.228-.026a1.677 1.677 0 0 1-1.041-.533 2.768 2.768 0 0 1-.229-.203.921.921 0 0 1-.279-.737.867.867 0 0 1 .381-.685c.017-.017.017-.034 0-.05 0-.018-.009-.026-.026-.026h-3.047c-.05 0-.076.025-.076.076a.58.58 0 0 1-.203.457.658.658 0 0 1-.482.203h-.737c-.389 0-.719-.135-.99-.406s-.406-.601-.406-.99V14.9c0-.407.144-.754.431-1.042a1.41 1.41 0 0 1 1.067-.457h4.57c.406 0 .753.153 1.041.457.305.288.457.635.457 1.041V21.3c0 .034.017.06.051.076.034.017.059.009.076-.025.44-.407.863-.847 1.27-1.32a.41.41 0 0 0 .101-.33c-.321-1.795-.533-4.122-.634-6.983 0-.136-.068-.203-.204-.203h-7.566c-.406 0-.762-.144-1.066-.432a1.448 1.448 0 0 1-.432-1.066c0-.407.144-.754.432-1.041a1.416 1.416 0 0 1 1.041-.432c.135 0 .194-.068.177-.203a9.077 9.077 0 0 0-.177-1.397 1.843 1.843 0 0 1-.026-.304c0-.288.076-.559.229-.813.22-.355.524-.575.914-.66l.685-.152c.017 0 .026-.009.026-.026s-.009-.025-.026-.025h-1.396c-.373 0-.694-.136-.965-.406a1.317 1.317 0 0 1-.406-.965c0-.39.135-.72.406-.99.271-.271.592-.407.965-.407h.838c.135 0 .203-.067.203-.203v-.736c0-.406.144-.753.432-1.041a1.407 1.407 0 0 1 1.066-.457h.432c.406 0 .753.152 1.041.457.304.288.457.635.457 1.04v.737c0 .136.067.203.203.203h.761c.39 0 .72.136.991.407.271.27.406.6.406.99 0 .372-.135.694-.406.965-.271.27-.601.406-.991.406h-1.041v.025l.661.102c.389.068.694.27.914.61a1.283 1.283 0 0 1 .177 1.092c-.05.202-.118.481-.203.837-.067.338-.118.575-.152.71-.034.136.017.204.152.204h1.168c.136 0 .195-.068.178-.203a367.254 367.254 0 0 1-.051-7.033c0-.407.144-.754.432-1.041a1.33 1.33 0 0 1 1.066-.432h.203c.407 0 .754.144 1.041.432.288.287.424.643.407 1.066v.914c0 .05.017.093.05.127a.109.109 0 0 0 .102 0l.711-.254c.22-.084.44-.127.66-.127.186 0 .381.034.584.102.423.135.736.398.939.787.356.66.661 1.329.915 2.006.067.186.101.364.101.533 0 .22-.051.432-.152.635-.186.389-.483.66-.889.812l-.203.102c-.169.05-.33.076-.482.076-.204 0-.398-.042-.584-.127a1.39 1.39 0 0 1-.711-.838 16.534 16.534 0 0 0-.965-2.361c-.017-.034-.043-.043-.076-.026-.017 0-.026.009-.026.026a326.927 326.927 0 0 0-.025 4.62c0 .136.068.204.203.204h2.488c.423 0 .779.144 1.067.432.287.287.431.643.431 1.066 0 .406-.144.753-.431 1.041a1.45 1.45 0 0 1-1.067.432h-2.437c-.136 0-.195.067-.178.203.051 1.337.102 2.378.152 3.123 0 .034.009.05.026.05.034 0 .059-.008.076-.025.152-.287.296-.592.432-.914zm12.162 7.059a.172.172 0 0 0-.051-.127c-.017-.034-.051-.051-.102-.051-.761 0-1.413-.237-1.955-.71-.541-.475-.812-1.11-.812-1.905 0-.762.271-1.38.812-1.854.559-.49 1.244-.736 2.057-.736 1.016 0 1.794.347 2.336 1.041.541.694.812 1.65.812 2.87 0 1.32-.372 2.513-1.117 3.58-.728 1.083-1.769 1.912-3.123 2.488a1.18 1.18 0 0 1-1.016-.025 1.306 1.306 0 0 1-.736-.788 1.214 1.214 0 0 1 .051-.965c.152-.322.398-.567.736-.736 1.151-.542 1.854-1.236 2.108-2.082zM5.779 48.695c-.423 0-.778-.144-1.066-.431a1.504 1.504 0 0 1-.432-1.067v-.99c0-.05-.017-.085-.05-.102a.107.107 0 0 0-.102 0c-.288.204-.584.398-.889.585a1.732 1.732 0 0 1-1.193.228 1.906 1.906 0 0 1-1.092-.61c-.203-.203-.39-.397-.559-.583a.974.974 0 0 1-.304-.711v-.178c.05-.339.237-.593.558-.762 1.947-.982 3.58-2.133 4.9-3.453a2.324 2.324 0 0 1 1.118-.635c.17-.05.347-.076.533-.076.254 0 .5.043.737.127l.609.229c.355.135.575.38.66.736.034.101.05.203.05.305 0 .237-.092.457-.278.66-.288.305-.601.626-.94.965a.461.461 0 0 0-.152.33v3.935c0 .406-.144.762-.432 1.067a1.449 1.449 0 0 1-1.066.431h-.61zm1.371 8.328c-.135 0-.203.068-.203.204v.38c0 .119.068.178.203.178h9.903c.135 0 .203-.06.203-.178v-.38c0-.136-.068-.204-.203-.204H7.15zm0-2.767c-.135 0-.203.06-.203.178v.355c0 .136.068.203.203.203h9.903c.135 0 .203-.067.203-.203v-.355c0-.119-.068-.178-.203-.178H7.15zm0-2.793c-.135 0-.203.068-.203.203v.33c0 .136.068.203.203.203h9.903c.135 0 .203-.067.203-.203v-.33c0-.135-.068-.203-.203-.203H7.15zm14.168-6.627c0-.034-.017-.068-.05-.102-.034-.05-.077-.076-.127-.076l-3.936.254c-.034 0-.06.017-.076.05 0 .035.008.06.025.077.982.813 2.049 1.219 3.2 1.219.304 0 .524-.093.66-.28.135-.203.237-.584.304-1.142zm-.254 13.61c0 .422-.143.778-.431 1.066a1.448 1.448 0 0 1-1.067.431h-2.158c-.017 0-.025.009-.025.026s.008.034.025.05c2.218.898 3.97 1.642 5.256 2.235.254.118.372.313.355.584-.016.288-.152.482-.406.584l-1.675.61c-.356.135-.711.202-1.067.202-.542 0-1.083-.152-1.625-.457a44.45 44.45 0 0 0-3.808-1.879c-.288-.118-.432-.347-.432-.685 0-.27.127-.474.38-.61l.991-.558c.017-.017.017-.034 0-.05 0-.035-.009-.052-.025-.052H8.775c-.017 0-.025.017-.025.051 0 .017.008.026.025.026l.813.38c.322.136.482.381.482.737a.727.727 0 0 1-.38.66c-1.592.863-3.437 1.642-5.536 2.336a2.503 2.503 0 0 1-1.32.025 2.418 2.418 0 0 1-1.143-.685l-.66-.66a.754.754 0 0 1-.203-.356.835.835 0 0 1-.025-.203c0-.068.008-.127.025-.178a.881.881 0 0 1 .178-.355.618.618 0 0 1 .38-.178c1.913-.423 3.564-.931 4.952-1.523.017 0 .025-.009.025-.026 0-.034-.017-.05-.05-.05H4.813c-.406 0-.761-.145-1.066-.432a1.449 1.449 0 0 1-.432-1.067v-7.668c0-.406.144-.753.432-1.04.305-.305.66-.458 1.066-.458h13.127c0-.017-.008-.034-.025-.05-2.133-.576-3.842-1.862-5.129-3.86a.342.342 0 0 0-.305-.152l-2.36.127c-.018.017-.043.025-.077.025-.356 0-.669-.118-.94-.355a1.504 1.504 0 0 1-.507-.965v-.152a1.287 1.287 0 0 1 1.244-1.295l1.447-.102c.119 0 .16-.06.127-.178a9.844 9.844 0 0 1-.254-1.066 1.713 1.713 0 0 1-.025-.28c0-.27.101-.524.304-.761.254-.305.584-.457.99-.457h.483c.423 0 .796.144 1.117.431.339.271.567.618.686 1.041.101.305.211.601.33.89.05.118.135.168.254.152l2.463-.127c.017 0 .025-.009.025-.026s-.008-.034-.025-.05c-.339-.12-.644-.22-.914-.305a.767.767 0 0 1-.534-.508.73.73 0 0 1 .178-.711c.271-.288.584-.491.94-.61.203-.067.406-.101.609-.101.152 0 .313.025.482.076.813.203 1.583.449 2.31.737.238.084.382.262.433.533a.783.783 0 0 1-.178.685c-.017 0-.017.017 0 .051.017.017.034.025.05.025l.99-.05h.077a1.38 1.38 0 0 1 1.396 1.27.48.48 0 0 1 .026.152c0 .304-.102.575-.305.812-.237.288-.541.44-.914.457l-.838.05a.166.166 0 0 0-.076.077c0 .017.017.034.05.05.306.22.686.432 1.143.636.407.186.72.465.94.837.135.22.203.458.203.711 0 .136-.025.28-.076.432-.22.694-.525 1.202-.914 1.523-.39.305-.914.508-1.574.61-.136.017-.204.084-.204.203v8.734zM30.23 41.28c.17-.39.44-.677.813-.863.22-.118.448-.178.686-.178.152 0 .313.026.482.076l.686.229c.389.118.677.364.863.736a1.358 1.358 0 0 1 .025 1.092 48.582 48.582 0 0 1-1.726 3.682.626.626 0 0 0-.102.355v16.53c0 .423-.144.778-.432 1.066a1.449 1.449 0 0 1-1.066.431h-.584c-.406 0-.762-.143-1.066-.431a1.449 1.449 0 0 1-.432-1.066V51.995c0-.034-.017-.05-.05-.05-.018-.018-.043-.018-.077 0-.05.067-.102.143-.152.228a.894.894 0 0 1-.686.304h-.152a1.001 1.001 0 0 1-.737-.558c-.22-.457-.44-.897-.66-1.32a2.183 2.183 0 0 1-.228-.99v-.255c.05-.44.22-.829.508-1.167 1.642-1.964 3.004-4.266 4.087-6.907zm5.079 11.883c.101-.406.33-.72.685-.94.237-.169.5-.253.787-.253.102 0 .212.008.33.025l.711.152c.406.085.72.305.94.66a1.343 1.343 0 0 1 .178 1.118c-.593 2.234-1.355 4.206-2.286 5.916a1.24 1.24 0 0 1-.863.635 1.853 1.853 0 0 1-.305.025c-.287 0-.558-.085-.812-.254-.22-.135-.449-.28-.686-.432a1.437 1.437 0 0 1-.635-.888 2.514 2.514 0 0 1-.025-.356c0-.254.068-.5.203-.736.728-1.286 1.32-2.844 1.778-4.672zm11.07-5.256c.017-.118-.042-.178-.178-.178h-2.31c-.136 0-.203.06-.203.178V60.35c0 .914-.094 1.633-.28 2.158-.186.525-.533.94-1.04 1.244-.661.372-1.524.6-2.59.685h-.128c-.372 0-.71-.118-1.015-.355a1.985 1.985 0 0 1-.686-1.041 21.551 21.551 0 0 0-.33-.965 1.09 1.09 0 0 1-.076-.38c0-.187.06-.365.178-.534a.886.886 0 0 1 .787-.431h.965c.186 0 .313-.026.38-.077.068-.067.102-.186.102-.355v-12.39c0-.12-.068-.178-.203-.178h-2.108a.318.318 0 0 0-.279.152 28.098 28.098 0 0 1-1.422 2.361c-.237.322-.558.5-.965.533a.281.281 0 0 1-.126.026c-.356 0-.66-.119-.914-.356-.254-.203-.5-.406-.737-.61a1.276 1.276 0 0 1-.533-.964.742.742 0 0 1-.025-.178c0-.321.101-.617.304-.888 1.304-1.76 2.362-3.936 3.174-6.526a1.59 1.59 0 0 1 .711-.914 1.51 1.51 0 0 1 .787-.228c.119 0 .237.017.356.05l.812.178c.39.102.686.322.889.66.135.22.203.449.203.686 0 .135-.026.28-.076.431a36.13 36.13 0 0 1-.686 1.93c-.017.034-.017.076 0 .127.034.034.068.051.102.051h7.87a.419.419 0 0 0 .128-.025 2.58 2.58 0 0 1 1.015 0l.838.152c.373.068.669.254.889.559.186.236.28.499.28.787 0 .084-.01.16-.026.228a54.856 54.856 0 0 1-.635 3.58c-.068.407-.28.728-.635.965-.253.186-.533.28-.837.28-.102 0-.204-.01-.305-.026l-.254-.05a1.527 1.527 0 0 1-.99-.636 1.485 1.485 0 0 1-.305-.914v-.203c.05-.355.093-.702.127-1.04zm-1.727 6.018a1.56 1.56 0 0 1-.101-.533c0-.203.042-.398.127-.584.169-.373.448-.627.838-.762l.533-.178a1.56 1.56 0 0 1 .533-.101c.22 0 .44.05.66.152.39.17.669.448.838.838a33.679 33.679 0 0 1 1.727 5.535c.033.118.05.237.05.355a1.673 1.673 0 0 1-1.193 1.6l-.812.305c-.136.034-.271.05-.407.05a1.244 1.244 0 0 1-1.193-1.041c-.339-1.828-.872-3.707-1.6-5.636zm26.686.889c.034-.034.042-.06.025-.077-.017-.034-.034-.05-.05-.05h-4.317c-.034 0-.06.016-.076.05a.108.108 0 0 0 0 .102 9.899 9.899 0 0 0 1.422 1.828c.084.085.177.093.28.025a29.6 29.6 0 0 0 2.716-1.878zm2.006-.127c-.017 0-.034.016-.051.05 0 .017.008.034.025.051l.737.508c.287.22.431.516.431.889a.896.896 0 0 1-.457.812 42.427 42.427 0 0 1-2.716 1.676c-.034.034-.051.068-.051.101 0 .034.025.068.076.102 1.083.558 2.285.999 3.605 1.32.322.085.534.28.635.584a.842.842 0 0 1-.152.838c-.237.305-.466.626-.686.965-.237.39-.55.669-.94.838a1.578 1.578 0 0 1-1.218.101c-2.184-.66-4.003-1.608-5.459-2.843-1.727-1.456-3.14-3.394-4.24-5.815-.051-.118-.136-.178-.254-.178h-2.184c-.135 0-.203.068-.203.204v4.367c0 .135.06.194.178.177 1.286-.186 2.378-.338 3.275-.457h.203c.322 0 .618.11.89.33.304.255.465.585.481.99l.026.33a1.67 1.67 0 0 1-1.397 1.727c-2.386.356-5.18.754-8.379 1.194a.94.94 0 0 1-.228.025c-.338 0-.643-.101-.914-.304a1.588 1.588 0 0 1-.686-.965l-.127-.559a.957.957 0 0 1-.05-.305c0-.27.084-.516.254-.736a1.34 1.34 0 0 1 .939-.558 31.13 31.13 0 0 0 1.422-.153c.135-.017.203-.093.203-.228v-4.9c0-.12-.068-.178-.203-.178h-2.514c-.406 0-.762-.144-1.066-.432a1.505 1.505 0 0 1-.432-1.066v-.305c0-.407.144-.753.432-1.041.304-.305.66-.457 1.066-.457h2.565c.118 0 .177-.068.177-.203v-9.7c0-.406.144-.753.432-1.04.305-.305.66-.458 1.066-.458h13.66c.407 0 .754.153 1.042.457.304.288.457.635.457 1.041v.076c0 .407-.153.762-.457 1.067a1.419 1.419 0 0 1-1.041.432h-11.07c-.136 0-.204.067-.204.203v.508c0 .118.068.177.203.177h10.487c.406 0 .744.144 1.015.432.288.27.432.61.432 1.016s-.144.753-.432 1.04c-.27.271-.61.407-1.015.407H60.445c-.135 0-.203.059-.203.178v.457c0 .118.068.177.203.177h10.487c.406 0 .744.144 1.015.432.288.27.432.61.432 1.016s-.144.753-.432 1.04c-.27.271-.61.407-1.015.407H60.445c-.135 0-.203.06-.203.178v.457c0 .135.068.203.203.203h13.94c.406 0 .753.152 1.04.457.306.288.458.634.458 1.04v.306c0 .406-.152.761-.457 1.066a1.419 1.419 0 0 1-1.041.431h-1.041zm16.808-2.666c0 .423-.144.778-.431 1.066a1.449 1.449 0 0 1-1.067.431h-2.539c-.135 0-.211.068-.228.204 0 .118-.009.211-.026.279-.034.135-.008.245.076.33.948.965 2.167 2.319 3.657 4.063.288.338.431.727.431 1.167 0 .424-.127.805-.38 1.143l-.686.863c-.22.254-.49.381-.813.381h-.076a1.04 1.04 0 0 1-.863-.482 62.4 62.4 0 0 0-2.31-3.25c-.034-.034-.077-.042-.128-.026-.033 0-.059.017-.076.051-.812 2.082-1.955 3.809-3.427 5.18a1.231 1.231 0 0 1-.864.355H80.2c-.39-.05-.728-.237-1.015-.558a8.361 8.361 0 0 0-.66-.686 1.363 1.363 0 0 1-.381-.965c0-.389.144-.719.431-.99 1.845-1.743 3.013-4.029 3.504-6.855.017-.136-.042-.203-.178-.203h-2.539c-.423 0-.778-.144-1.066-.432a1.449 1.449 0 0 1-.432-1.066v-.56c0-.422.144-.778.432-1.066a1.449 1.449 0 0 1 1.066-.431h2.819c.135 0 .203-.068.203-.203v-3.123c0-.119-.068-.178-.203-.178h-.102c-.118 0-.203.06-.254.178a21.578 21.578 0 0 1-.787 1.65 1.163 1.163 0 0 1-.863.61c-.085.016-.17.025-.254.025a1.35 1.35 0 0 1-.813-.28 7.423 7.423 0 0 0-.584-.431 1.514 1.514 0 0 1-.634-.965 1.286 1.286 0 0 1-.051-.355c0-.271.068-.534.203-.788.694-1.32 1.253-2.936 1.676-4.85.084-.389.296-.702.635-.939.254-.169.524-.254.812-.254.085 0 .186.009.305.026l.66.152c.406.068.728.28.965.635.152.237.228.49.228.762 0 .118-.008.237-.025.355-.068.271-.135.533-.203.787-.017.051-.017.093 0 .127.034.034.076.051.127.051h4.875c.406 0 .753.152 1.04.457.305.288.458.635.458 1.041v.508c0 .406-.153.762-.457 1.066a1.418 1.418 0 0 1-1.041.432h-1.702c-.135 0-.203.06-.203.178v3.123c0 .135.068.203.203.203h2.26c.424 0 .779.144 1.067.431.287.288.431.644.431 1.067v.559zm4.266 6.17c0 .135.068.203.203.203h2.412c.136 0 .203-.068.203-.204V45.725c0-.119-.067-.178-.203-.178h-2.412c-.135 0-.203.06-.203.178V58.19zm-3.656-14.676c0-.424.144-.779.431-1.067a1.449 1.449 0 0 1 1.067-.431h7.312c.423 0 .779.143 1.067.431.287.288.431.643.431 1.067v18.28c0 .424-.144.78-.431 1.067a1.45 1.45 0 0 1-1.067.432h-1.117c-.338 0-.626-.119-.863-.355a1.175 1.175 0 0 1-.356-.864c0-.101-.05-.152-.152-.152h-2.463c-.135 0-.203.06-.203.178v.127c0 .406-.144.753-.432 1.04a1.408 1.408 0 0 1-1.066.458h-.66c-.423 0-.779-.153-1.067-.457a1.418 1.418 0 0 1-.431-1.042V43.516zm19.195-2.996c.389 0 .719.143.99.431.288.271.432.601.432.99 0 .373-.144.703-.432.99-.271.272-.601.407-.99.407h-3.758c-.389 0-.719-.136-.99-.406a1.402 1.402 0 0 1-.406-.99c0-.39.135-.72.406-.99.271-.289.601-.432.99-.432h3.758zm.533 3.554c.406 0 .753.144 1.041.432.288.288.432.635.432 1.04 0 .407-.144.754-.432 1.042a1.42 1.42 0 0 1-1.041.431h-5.383a1.42 1.42 0 0 1-1.041-.431 1.468 1.468 0 0 1-.406-1.041c0-.406.136-.753.406-1.041a1.42 1.42 0 0 1 1.041-.432h5.383zm-.533 3.733c.389 0 .719.135.99.406.288.27.432.6.432.99s-.144.72-.432.99c-.271.271-.601.407-.99.407h-3.859c-.39 0-.72-.136-.991-.407a1.35 1.35 0 0 1-.406-.99c0-.39.136-.72.406-.99.271-.27.601-.406.991-.406h3.859zm-3.859 6.398c-.39 0-.72-.135-.991-.406a1.407 1.407 0 0 1-.406-.99c0-.39.136-.72.406-.99a1.31 1.31 0 0 1 .991-.432h3.859c.389 0 .719.144.99.431.288.271.432.601.432.99 0 .373-.144.703-.432.99-.271.272-.601.407-.99.407h-3.859zm2.463 3.961c0-.135-.06-.203-.178-.203h-.762c-.135 0-.203.068-.203.203v1.828c0 .119.068.178.203.178h.762c.118 0 .178-.06.178-.178v-1.828zm1.421-3.098c.407 0 .754.144 1.041.432.305.288.457.643.457 1.066v5.028c0 .406-.152.753-.457 1.04a1.378 1.378 0 0 1-1.041.458h-2.462c-.068 0-.102.034-.102.101a.862.862 0 0 1-.254.635.83.83 0 0 1-.609.254h-.559c-.389 0-.728-.144-1.016-.432a1.35 1.35 0 0 1-.406-.99v-6.094c0-.423.144-.778.432-1.066.305-.288.66-.432 1.066-.432h3.91zm5.51 3.91c0 .119.059.178.178.178h1.371c.119 0 .178-.059.178-.178v-.533c0-.118-.059-.177-.178-.177h-1.371c-.119 0-.178.059-.178.177v.533zm1.727-3.834c0-.135-.059-.203-.178-.203h-1.371c-.119 0-.178.068-.178.203v.483c0 .118.059.178.178.178h1.371c.119 0 .178-.06.178-.178v-.483zm.025-9.978c0-.135-.059-.203-.178-.203h-1.447c-.051 0-.093.025-.127.076a.107.107 0 0 0 0 .102c.169.474.313.981.432 1.523.034.102.051.212.051.33 0 .288-.093.559-.28.813a1.697 1.697 0 0 1-1.015.685c-.017 0-.026.009-.026.026l.026.025h3.224c.017 0 .026-.008.026-.025a1.143 1.143 0 0 1-.711-.458 1.162 1.162 0 0 1-.203-.66v-.177c.118-.796.194-1.481.228-2.057zm7.567 8.785a1.3 1.3 0 0 1 .787-.736 1.351 1.351 0 0 1 1.066.076l.152.102c.373.203.627.507.762.914.068.169.102.347.102.533 0 .22-.051.44-.153.66a24.88 24.88 0 0 1-2.336 3.885.299.299 0 0 0-.05.33c.22.508.465.762.736.762.186 0 .338-.39.457-1.168a.599.599 0 0 1 .432-.534.648.648 0 0 1 .685.153.403.403 0 0 1 .102.076c.355.322.609.694.761 1.117.085.237.127.474.127.711 0 .186-.025.38-.076.584-.338 1.168-.745 1.98-1.219 2.438-.457.44-.922.66-1.396.66h-.076c-1.236-.102-2.192-.83-2.869-2.184-.051-.118-.119-.135-.203-.05-.559.524-1.118.998-1.676 1.421-.271.186-.567.28-.889.28-.068 0-.144-.009-.228-.026a1.677 1.677 0 0 1-1.041-.533 2.768 2.768 0 0 1-.229-.203.921.921 0 0 1-.279-.737.867.867 0 0 1 .381-.685c.017-.017.017-.034 0-.05 0-.018-.009-.026-.026-.026h-3.047c-.05 0-.076.025-.076.076a.58.58 0 0 1-.203.457.658.658 0 0 1-.482.203h-.737c-.389 0-.719-.135-.99-.406s-.406-.601-.406-.99V53.9c0-.407.144-.754.431-1.042a1.41 1.41 0 0 1 1.067-.457h4.57c.406 0 .753.153 1.041.457.305.288.457.635.457 1.041V60.3c0 .034.017.06.051.076.034.017.059.008.076-.025.44-.407.863-.847 1.27-1.32a.41.41 0 0 0 .101-.33c-.321-1.795-.533-4.123-.634-6.983 0-.136-.068-.203-.204-.203h-7.566c-.406 0-.762-.144-1.066-.432a1.448 1.448 0 0 1-.432-1.066c0-.407.144-.754.432-1.041a1.416 1.416 0 0 1 1.041-.432c.135 0 .194-.068.177-.203a9.077 9.077 0 0 0-.177-1.397 1.844 1.844 0 0 1-.026-.304c0-.288.076-.559.229-.813.22-.355.524-.575.914-.66l.685-.152c.017 0 .026-.009.026-.026s-.009-.025-.026-.025h-1.396c-.373 0-.694-.136-.965-.406a1.317 1.317 0 0 1-.406-.965c0-.39.135-.72.406-.99.271-.271.592-.407.965-.407h.838c.135 0 .203-.067.203-.203v-.736c0-.406.144-.753.432-1.041a1.407 1.407 0 0 1 1.066-.457h.432c.406 0 .753.152 1.041.457.304.288.457.635.457 1.04v.737c0 .136.067.203.203.203h.761c.39 0 .72.136.991.407.271.27.406.6.406.99 0 .372-.135.694-.406.965-.271.27-.601.406-.991.406h-1.041v.025l.661.102c.389.068.694.27.914.61.152.236.228.482.228.735 0 .119-.017.237-.051.356-.05.203-.118.482-.203.838-.067.338-.118.575-.152.71-.034.136.017.204.152.204h1.168c.136 0 .195-.068.178-.203a367.246 367.246 0 0 1-.051-7.033c0-.407.144-.754.432-1.041a1.33 1.33 0 0 1 1.066-.432h.203c.407 0 .754.144 1.041.432.288.287.424.643.407 1.066v.914c0 .05.017.093.05.127a.108.108 0 0 0 .102 0l.711-.254c.22-.084.44-.127.66-.127.186 0 .381.034.584.102.423.135.736.398.939.787.356.66.661 1.329.915 2.006.067.186.101.364.101.533 0 .22-.051.432-.152.635-.186.389-.483.66-.889.812l-.203.102a1.68 1.68 0 0 1-.482.076c-.204 0-.398-.042-.584-.127a1.39 1.39 0 0 1-.711-.838 16.53 16.53 0 0 0-.965-2.361c-.017-.034-.043-.043-.076-.026-.017 0-.026.009-.026.026a326.913 326.913 0 0 0-.025 4.62c0 .136.068.204.203.204h2.488c.423 0 .779.144 1.067.432.287.287.431.643.431 1.066 0 .406-.144.753-.431 1.041a1.45 1.45 0 0 1-1.067.432h-2.437c-.136 0-.195.067-.178.203.051 1.337.102 2.378.152 3.123 0 .034.009.05.026.05.034 0 .059-.008.076-.025.152-.288.296-.592.432-.914z" fill="#333"/>
</svg>
