<svg xmlns="http://www.w3.org/2000/svg" width="395" height="38" fill="none" viewBox="0 0 395 38">
    <path fill="#333" d="M30.324 2.715c.586 0 1.078.21 1.477.633.398.398.597.879.597 1.441v.527c0 .563-.199 1.055-.597 1.477-.399.398-.89.598-1.477.598H3.852c-.586 0-1.079-.2-1.477-.598-.398-.422-.598-.914-.598-1.477V4.79c0-.562.2-1.043.598-1.441.398-.422.89-.633 1.477-.633h26.472zM14.047 23.316c.023-.164-.047-.246-.211-.246H9.055c-.164 0-.258.082-.282.246-.421 2.93-1.078 5.426-1.968 7.489-.024.047-.024.093 0 .14.047.024.093.024.14 0 1.29-.398 2.38-.855 3.27-1.37.89-.516 1.582-1.102 2.074-1.759.516-.68.902-1.359 1.16-2.039.258-.68.457-1.5.598-2.46zm10.969-10.933c0-.164-.082-.246-.246-.246H9.44c-.164 0-.246.082-.246.246v.984c0 .188.082.281.246.281H24.77c.164 0 .246-.093.246-.28v-.985zm-9.07 6.644c.163 0 .245-.082.245-.246v-1.125c0-.187-.082-.281-.246-.281H9.441c-.164 0-.246.094-.246.281 0 .117-.011.305-.035.563v.562c0 .164.082.246.246.246h6.54zm16.734.598c.398.398.597.879.597 1.441 0 .54-.199 1.008-.597 1.407-.399.398-.867.597-1.407.597H19.566c-.164 0-.257.082-.28.246-.071.446-.13.809-.177 1.09-.047.164.024.246.211.246h9.035c.563 0 1.043.211 1.442.633.328.352.492.774.492 1.266 0 3.773-.55 6.258-1.652 7.453-.703.727-1.735 1.172-3.094 1.336-.656.07-1.535.117-2.637.14h-.035c-.562 0-1.066-.199-1.512-.597-.445-.375-.75-.867-.914-1.477-.047-.117-.082-.246-.105-.386-.07-.141-.106-.293-.106-.458 0-.257.082-.503.246-.738.258-.375.598-.562 1.02-.562l.035.035c.563.023 1.067.035 1.512.035.515 0 .926-.129 1.23-.387.258-.21.47-.914.633-2.11.024-.163-.047-.245-.21-.245h-6.575c-.164 0-.293.07-.387.21-1.312 2.579-3.691 4.548-7.136 5.907-.258.094-.516.14-.774.14-.281 0-.562-.058-.844-.175-.539-.234-.972-.61-1.3-1.125-.375-.563-.762-1.09-1.16-1.582-.118-.117-.223-.094-.317.07-.258.516-.55 1.008-.879 1.477-.305.468-.75.738-1.336.808h-.281c-.469 0-.902-.14-1.3-.422-.329-.21-.669-.421-1.02-.632-.446-.282-.715-.68-.809-1.196-.023-.117-.035-.246-.035-.386 0-.352.105-.692.316-1.02.68-1.008 1.242-2.121 1.688-3.34.445-1.242.761-2.52.949-3.832.21-1.312.34-2.473.387-3.48.07-1.032.105-2.18.105-3.446v-6.082c0-.562.2-1.043.598-1.441.422-.422.914-.633 1.476-.633H28.11c.563 0 1.043.211 1.442.633.422.398.633.879.633 1.441v4.817c0 .586-.211 1.078-.633 1.476-.399.399-.88.598-1.442.598h-6.468c-.164 0-.246.094-.246.281v1.125c0 .164.082.246.246.246h9.632c.54 0 1.008.2 1.407.598zm11.707-6.047c-.586 0-1.078-.2-1.477-.598-.398-.421-.597-.914-.597-1.476v-1.371c0-.07-.024-.117-.07-.14-.048-.024-.095-.024-.141 0-.399.28-.809.55-1.23.808-.4.234-.81.351-1.231.351-.141 0-.282-.011-.422-.035-.61-.117-1.114-.398-1.512-.844-.281-.28-.539-.55-.773-.808-.282-.281-.422-.61-.422-.985v-.246c.07-.468.328-.82.773-1.054 2.696-1.36 4.957-2.953 6.785-4.782.446-.445.961-.738 1.547-.878.235-.07.48-.106.739-.106.351 0 .69.059 1.019.176l.844.316c.492.188.797.528.914 1.02.047.14.07.281.07.422 0 .328-.129.632-.387.914-.398.422-.832.867-1.3 1.336-.141.14-.211.293-.211.457v5.449c0 .562-.2 1.055-.598 1.476-.398.399-.89.598-1.477.598h-.843zm1.898 11.531c-.187 0-.281.094-.281.282v.527c0 .164.094.246.281.246h13.711c.188 0 .281-.082.281-.246v-.527c0-.188-.093-.282-.28-.282H46.284zm0-3.832c-.187 0-.281.082-.281.246v.493c0 .187.094.28.281.28h13.711c.188 0 .281-.093.281-.28v-.493c0-.164-.093-.246-.28-.246H46.284zm0-3.867c-.187 0-.281.094-.281.281v.457c0 .188.094.282.281.282h13.711c.188 0 .281-.094.281-.282v-.457c0-.187-.093-.28-.28-.28H46.284zm19.617-9.176c0-.046-.023-.093-.07-.14-.047-.07-.105-.106-.176-.106l-5.449.352c-.047 0-.082.023-.105.07 0 .047.011.082.035.106 1.36 1.125 2.836 1.687 4.43 1.687.421 0 .726-.129.914-.387.187-.28.328-.808.421-1.582zm-.351 18.844c0 .586-.2 1.078-.598 1.477-.398.398-.89.597-1.476.597h-2.989c-.023 0-.035.012-.035.035 0 .024.012.047.035.07 3.07 1.243 5.496 2.274 7.278 3.095.351.164.515.433.492.808-.024.399-.211.668-.563.809l-2.32.843c-.492.188-.984.282-1.477.282-.75 0-1.5-.211-2.25-.633-1.593-.89-3.351-1.758-5.273-2.602-.398-.164-.598-.48-.598-.949 0-.375.176-.656.528-.844l1.37-.773c.024-.023.024-.047 0-.07 0-.047-.01-.07-.034-.07h-9.106c-.023 0-.035.023-.035.07 0 .023.012.035.035.035l1.125.527c.446.188.668.527.668 1.02 0 .398-.176.703-.527.914-2.203 1.195-4.758 2.273-7.664 3.234-.328.094-.657.14-.985.14-.28 0-.562-.034-.843-.105-.61-.164-1.137-.48-1.582-.949l-.914-.914c-.141-.14-.235-.305-.282-.492-.023-.094-.035-.188-.035-.281 0-.094.012-.176.035-.246.047-.188.13-.352.246-.493.141-.14.317-.222.528-.246 2.648-.586 4.933-1.289 6.855-2.11.024 0 .035-.01.035-.034 0-.047-.023-.07-.07-.07h-2.074c-.563 0-1.055-.2-1.477-.598-.398-.399-.597-.89-.597-1.477V16.461c0-.563.199-1.043.597-1.441.422-.422.914-.633 1.477-.633H61.227c0-.024-.012-.047-.036-.07-2.953-.797-5.32-2.579-7.101-5.344-.094-.141-.235-.211-.422-.211l-3.27.175c-.023.024-.058.036-.105.036-.492 0-.926-.164-1.3-.493-.4-.351-.634-.796-.704-1.335v-.211c0-.422.14-.809.422-1.16.352-.399.785-.61 1.3-.633L52.017 5c.164 0 .222-.082.175-.246-.14-.469-.257-.961-.351-1.477-.024-.14-.035-.27-.035-.386 0-.375.14-.727.422-1.055.351-.422.808-.633 1.37-.633h.669c.586 0 1.101.2 1.547.598.468.375.785.855.949 1.441.14.422.293.832.457 1.23.07.165.187.235.351.212l3.41-.176c.024 0 .036-.012.036-.035 0-.024-.012-.047-.035-.07-.47-.165-.891-.305-1.266-.423-.375-.117-.621-.351-.738-.703-.094-.375-.012-.703.246-.984.375-.398.808-.68 1.3-.844.282-.094.563-.14.844-.14.211 0 .434.035.668.105 1.125.281 2.192.621 3.2 1.02.328.117.527.363.597.738.07.351-.012.668-.246.95-.023 0-.023.023 0 .07.023.023.047.035.07.035l1.371-.07h.106c.469 0 .89.152 1.265.456.399.352.621.785.668 1.301.024.07.036.14.036.211 0 .422-.141.797-.422 1.125-.328.398-.75.61-1.266.633l-1.16.07c-.047.024-.082.059-.106.106 0 .023.024.046.07.07.423.305.95.598 1.583.879.562.258.996.644 1.3 1.16.188.305.282.633.282.984 0 .188-.035.387-.106.598-.304.96-.726 1.664-1.265 2.11-.54.421-1.266.703-2.18.843-.188.024-.281.117-.281.281v12.094zM86.223 2.996c0-.562.199-1.043.597-1.441.422-.422.914-.633 1.477-.633h1.617c.563 0 1.043.21 1.442.633.421.398.632.879.632 1.441v25.277c0 1.5-.187 2.649-.562 3.446-.375.797-1.02 1.418-1.934 1.863-1.195.563-3.187.879-5.976.95h-.07c-.563 0-1.067-.188-1.512-.563-.493-.375-.832-.856-1.02-1.442-.164-.515-.363-1.043-.598-1.582-.093-.164-.14-.34-.14-.527 0-.211.07-.422.21-.633.235-.375.563-.562.985-.562h.07c.68.023 1.325.035 1.934.035.61 0 1.184-.012 1.723-.035.421 0 .715-.07.879-.211.164-.164.246-.422.246-.774V2.996zm9.562 9.387c-.117-.258-.176-.527-.176-.809 0-.234.047-.469.141-.703.188-.516.54-.867 1.055-1.055l1.265-.492c.282-.094.551-.14.809-.14.281 0 .562.058.844.175.562.188.984.551 1.265 1.09 1.149 2.18 2.203 4.418 3.164 6.715.868 2.11 1.547 4.02 2.039 5.73.047.212.071.41.071.598 0 .352-.082.703-.246 1.055-.282.515-.704.879-1.266 1.09l-1.898.773c-.211.07-.422.106-.633.106-.281 0-.551-.07-.809-.211-.469-.258-.762-.657-.879-1.196-.398-1.687-1.008-3.609-1.828-5.765-.867-2.39-1.84-4.711-2.918-6.961zM76.45 11.082c.117-.563.41-1.008.88-1.336.35-.258.737-.387 1.16-.387.117 0 .234.012.35.036l1.9.316c.562.094.995.375 1.3.844.211.328.317.68.317 1.054 0 .164-.012.329-.036.493-1.312 5.437-2.8 9.62-4.464 12.55-.258.492-.668.797-1.231.914-.164.024-.328.036-.492.036-.399 0-.774-.106-1.125-.317-.469-.281-.973-.539-1.512-.773-.469-.235-.785-.61-.95-1.125-.046-.188-.07-.364-.07-.528 0-.328.083-.632.247-.914.796-1.383 1.511-3 2.144-4.851.68-2.04 1.207-4.043 1.582-6.012zm48.762 7.102c0 .585-.199 1.078-.598 1.476-.398.399-.89.598-1.476.598h-3.516c-.187 0-.293.094-.316.281 0 .164-.012.293-.035.387-.047.187-.012.34.105.457 1.313 1.336 3 3.21 5.063 5.625.398.469.597 1.008.597 1.617 0 .586-.176 1.113-.527 1.582l-.949 1.195c-.305.352-.68.528-1.125.528h-.106c-.516-.024-.914-.246-1.195-.668-.961-1.453-2.028-2.953-3.199-4.5-.047-.047-.106-.059-.176-.035-.047 0-.082.023-.106.07-1.125 2.883-2.707 5.273-4.746 7.172-.351.328-.75.492-1.195.492h-.281c-.539-.07-1.008-.328-1.407-.773-.281-.329-.585-.645-.914-.95-.351-.375-.527-.82-.527-1.336 0-.539.199-.996.598-1.37 2.554-2.415 4.172-5.579 4.851-9.493.024-.187-.058-.281-.246-.281h-3.515c-.586 0-1.079-.2-1.477-.598-.398-.398-.598-.89-.598-1.476v-.774c0-.586.2-1.078.598-1.476.398-.399.891-.598 1.477-.598h3.902c.187 0 .281-.094.281-.281V10.73c0-.165-.094-.247-.281-.247h-.141c-.164 0-.281.082-.351.246-.352.82-.715 1.582-1.09 2.286-.258.468-.656.75-1.195.843-.118.024-.235.036-.352.036-.398 0-.773-.13-1.125-.387-.258-.211-.527-.41-.809-.598-.468-.328-.761-.773-.879-1.336-.046-.164-.07-.328-.07-.492 0-.375.094-.738.281-1.09.961-1.828 1.735-4.066 2.321-6.715.117-.539.41-.972.879-1.3.351-.235.726-.352 1.125-.352.117 0 .257.012.422.035l.914.211c.562.094 1.007.387 1.336.879.21.328.316.68.316 1.055 0 .164-.012.328-.035.492-.094.375-.188.738-.281 1.09-.024.07-.024.129 0 .176.046.046.105.07.175.07h6.75c.563 0 1.043.21 1.442.633.422.398.633.879.633 1.441v.703c0 .563-.211 1.055-.633 1.477-.399.398-.879.597-1.442.597h-2.355c-.188 0-.281.082-.281.246v4.325c0 .187.093.28.281.28h3.129c.586 0 1.078.2 1.476.599.399.398.598.89.598 1.476v.774zm5.906 8.543c0 .187.094.28.281.28h3.34c.188 0 .282-.093.282-.28V9.465c0-.164-.094-.246-.282-.246h-3.34c-.187 0-.281.082-.281.246v17.262zm-5.062-20.32c0-.587.199-1.079.597-1.477.399-.399.891-.598 1.477-.598h10.125c.586 0 1.078.2 1.476.598.399.398.598.89.598 1.476V31.72c0 .586-.199 1.078-.598 1.476-.398.399-.89.598-1.476.598h-1.547c-.469 0-.867-.164-1.195-.492-.328-.328-.492-.727-.492-1.196 0-.14-.071-.21-.211-.21h-3.411c-.187 0-.281.082-.281.246v.175c0 .563-.199 1.043-.597 1.442-.399.422-.891.633-1.477.633h-.914c-.586 0-1.078-.211-1.477-.633-.398-.399-.597-.88-.597-1.442V6.406zm26.578-4.15c.539 0 .996.2 1.371.598.398.375.598.833.598 1.372 0 .515-.2.972-.598 1.37-.375.376-.832.563-1.371.563h-5.203c-.539 0-.996-.187-1.371-.562-.375-.399-.563-.856-.563-1.371 0-.54.188-.997.563-1.372.375-.398.832-.597 1.371-.597h5.203zm.738 4.923c.563 0 1.043.199 1.441.597.399.399.598.88.598 1.442 0 .562-.199 1.043-.598 1.441-.398.399-.878.598-1.441.598h-7.453c-.563 0-1.043-.2-1.441-.598-.375-.398-.563-.879-.563-1.441 0-.563.188-1.043.563-1.442.398-.398.878-.597 1.441-.597h7.453zm-.738 5.168c.539 0 .996.187 1.371.562.398.375.598.832.598 1.371 0 .54-.2.996-.598 1.371-.375.375-.832.563-1.371.563h-5.344c-.539 0-.996-.188-1.371-.563-.375-.375-.563-.832-.563-1.37 0-.54.188-.997.563-1.372.375-.375.832-.562 1.371-.562h5.344zm-5.344 8.859c-.539 0-.996-.188-1.371-.563-.375-.398-.563-.855-.563-1.37 0-.54.188-.997.563-1.372.375-.398.832-.597 1.371-.597h5.344c.539 0 .996.199 1.371.597.398.375.598.832.598 1.371 0 .516-.2.973-.598 1.372-.375.375-.832.562-1.371.562h-5.344zm3.41 5.484c0-.187-.082-.28-.246-.28h-1.055c-.187 0-.281.093-.281.28v2.532c0 .164.094.246.281.246h1.055c.164 0 .246-.082.246-.246V26.69zm1.969-4.289c.562 0 1.043.2 1.441.598.422.398.633.89.633 1.477v6.96c0 .563-.211 1.043-.633 1.442-.398.422-.879.633-1.441.633h-3.41c-.094 0-.141.047-.141.14 0 .352-.117.645-.351.88-.235.234-.516.35-.844.35h-.774c-.539 0-1.007-.198-1.406-.597-.375-.375-.562-.832-.562-1.37v-8.438c0-.586.199-1.079.597-1.477.422-.398.914-.598 1.477-.598h5.414zm7.629 5.414c0 .165.082.247.246.247h1.898c.164 0 .247-.082.247-.247v-.738c0-.164-.083-.246-.247-.246h-1.898c-.164 0-.246.082-.246.246v.738zm2.391-5.308c0-.188-.083-.281-.247-.281h-1.898c-.164 0-.246.093-.246.28v.669c0 .164.082.246.246.246h1.898c.164 0 .247-.082.247-.246v-.668zm.035-13.817c0-.187-.082-.28-.246-.28h-2.004c-.071 0-.129.034-.176.105-.024.046-.024.093 0 .14.234.656.433 1.36.598 2.11.046.14.07.293.07.457 0 .398-.129.773-.387 1.125-.351.492-.82.808-1.406.949-.024 0-.035.012-.035.035l.035.035h4.465c.023 0 .035-.012.035-.035-.422-.094-.75-.305-.984-.633-.188-.281-.282-.586-.282-.914v-.246c.164-1.101.27-2.05.317-2.848zm10.476 12.164c.211-.492.574-.832 1.09-1.02.211-.07.422-.105.633-.105.281 0 .562.07.844.211l.211.141c.515.281.867.703 1.054 1.266.094.234.141.48.141.738 0 .305-.07.61-.211.914-.891 1.852-1.969 3.645-3.234 5.379-.118.14-.141.293-.071.457.305.703.645 1.055 1.02 1.055.258 0 .469-.54.633-1.618.046-.375.246-.62.597-.738.352-.117.668-.047.949.211.047.024.094.059.141.106.492.445.844.96 1.055 1.546.117.329.176.657.176.985 0 .258-.036.527-.106.808-.469 1.618-1.031 2.743-1.687 3.375-.633.61-1.278.914-1.934.914h-.105c-1.711-.14-3.036-1.148-3.973-3.023-.07-.164-.164-.188-.281-.07-.774.726-1.547 1.383-2.321 1.968-.375.258-.785.387-1.23.387-.094 0-.199-.011-.317-.035-.562-.07-1.043-.316-1.441-.738-.117-.094-.223-.188-.316-.282-.282-.28-.411-.62-.387-1.019.023-.398.199-.715.527-.95.024-.023.024-.046 0-.07 0-.023-.011-.035-.035-.035h-4.219c-.07 0-.105.035-.105.106 0 .258-.094.468-.281.633-.188.187-.411.28-.668.28h-1.02c-.539 0-.996-.187-1.371-.562-.375-.375-.562-.832-.562-1.37v-9.915c0-.562.199-1.043.597-1.441.399-.422.891-.633 1.477-.633h6.328c.562 0 1.043.21 1.441.633.422.398.633.879.633 1.441v8.86c0 .046.024.082.07.105.047.023.082.012.106-.035.609-.563 1.195-1.172 1.758-1.828.117-.14.164-.293.14-.457-.445-2.485-.738-5.707-.879-9.668 0-.188-.093-.282-.281-.282h-10.476c-.563 0-1.055-.199-1.477-.597-.398-.399-.598-.89-.598-1.477 0-.562.2-1.043.598-1.441.398-.399.879-.598 1.441-.598.188 0 .27-.094.247-.281-.024-.586-.106-1.23-.247-1.934-.023-.14-.035-.28-.035-.421 0-.399.106-.774.317-1.126.304-.492.726-.796 1.265-.914l.95-.21c.023 0 .035-.012.035-.036 0-.023-.012-.035-.035-.035h-1.934c-.516 0-.961-.187-1.336-.562-.375-.375-.562-.82-.562-1.336 0-.54.187-.996.562-1.371.375-.375.82-.563 1.336-.563h1.16c.188 0 .281-.094.281-.281v-1.02c0-.562.2-1.043.598-1.441.398-.422.891-.633 1.477-.633h.597c.563 0 1.043.211 1.442.633.421.398.632.879.632 1.441v1.02c0 .187.094.281.282.281h1.054c.539 0 .996.188 1.371.563.375.375.563.832.563 1.37 0 .516-.188.962-.563 1.337-.375.375-.832.562-1.371.562h-1.441v.035l.914.14c.539.095.961.376 1.266.845.211.328.316.668.316 1.02 0 .163-.023.327-.07.491-.071.282-.164.668-.282 1.16-.093.47-.164.797-.21.985-.047.187.023.281.21.281h1.618c.187 0 .269-.094.246-.281-.047-2.297-.071-5.543-.071-9.738 0-.563.2-1.043.598-1.442.399-.422.891-.62 1.477-.597h.281c.562 0 1.043.199 1.441.597.399.399.586.89.563 1.477v1.265c0 .07.023.13.07.176.047.024.094.024.141 0l.984-.351c.305-.118.61-.176.914-.176.258 0 .528.047.809.14.586.188 1.019.551 1.301 1.09.492.914.914 1.84 1.265 2.778.094.258.141.504.141.738 0 .305-.07.598-.211.879-.258.539-.668.914-1.231 1.125l-.281.14c-.234.07-.457.106-.668.106-.281 0-.551-.059-.808-.176-.493-.258-.821-.644-.985-1.16-.351-1.102-.797-2.191-1.336-3.27-.023-.046-.058-.058-.105-.035-.024 0-.035.012-.035.035-.024 1.57-.035 3.704-.035 6.399 0 .187.093.281.281.281h3.445c.586 0 1.078.2 1.477.598.398.398.597.89.597 1.476 0 .563-.199 1.043-.597 1.442-.399.398-.891.598-1.477.598h-3.375c-.187 0-.269.093-.246.28.07 1.852.141 3.294.211 4.325 0 .047.012.07.035.07.047 0 .082-.011.106-.035.21-.398.41-.82.597-1.265zm16.84 9.774c0-.07-.023-.129-.07-.176-.024-.047-.071-.07-.141-.07-1.055 0-1.957-.328-2.707-.985-.75-.656-1.125-1.535-1.125-2.636 0-1.055.375-1.91 1.125-2.567.774-.68 1.723-1.02 2.848-1.02 1.406 0 2.484.481 3.234 1.442s1.125 2.285 1.125 3.973c0 1.828-.516 3.48-1.547 4.957-1.008 1.5-2.449 2.648-4.324 3.445-.234.094-.457.14-.668.14-.258 0-.504-.058-.738-.175-.492-.21-.832-.574-1.02-1.09-.07-.187-.105-.386-.105-.597 0-.258.058-.504.176-.739.21-.445.55-.785 1.019-1.02 1.594-.75 2.567-1.71 2.918-2.882zm34.348-17.05c-.586 0-1.078-.2-1.477-.599-.398-.421-.598-.914-.598-1.476v-1.371c0-.07-.023-.117-.07-.14-.047-.024-.094-.024-.14 0-.399.28-.809.55-1.231.808-.398.234-.809.351-1.23.351-.141 0-.282-.011-.422-.035-.61-.117-1.114-.398-1.512-.844-.281-.28-.539-.55-.773-.808-.282-.281-.422-.61-.422-.985v-.246c.07-.468.328-.82.773-1.054 2.695-1.36 4.957-2.953 6.785-4.782.446-.445.961-.738 1.547-.878.235-.07.481-.106.738-.106.352 0 .692.059 1.02.176l.844.316c.492.188.797.528.914 1.02.047.14.07.281.07.422 0 .328-.129.632-.387.914-.398.422-.832.867-1.3 1.336-.141.14-.211.293-.211.457v5.449c0 .562-.2 1.055-.598 1.476-.398.399-.891.598-1.477.598h-.843zm1.898 11.53c-.187 0-.281.094-.281.282v.527c0 .164.094.246.281.246h13.711c.188 0 .281-.082.281-.246v-.527c0-.188-.093-.282-.281-.282h-13.711zm0-3.832c-.187 0-.281.082-.281.246v.493c0 .187.094.28.281.28h13.711c.188 0 .281-.093.281-.28v-.493c0-.164-.093-.246-.281-.246h-13.711zm0-3.867c-.187 0-.281.094-.281.281v.457c0 .188.094.282.281.282h13.711c.188 0 .281-.094.281-.282v-.457c0-.187-.093-.28-.281-.28h-13.711zm19.617-9.176c0-.046-.023-.093-.07-.14-.047-.07-.105-.106-.176-.106l-5.449.352c-.047 0-.082.023-.105.07 0 .047.011.082.035.106 1.359 1.125 2.836 1.687 4.429 1.687.422 0 .727-.129.914-.387.188-.28.329-.808.422-1.582zm-.351 18.844c0 .586-.199 1.078-.598 1.477-.398.398-.891.597-1.476.597h-2.989c-.023 0-.035.012-.035.035 0 .024.012.047.035.07 3.071 1.243 5.496 2.274 7.278 3.095.351.164.515.433.492.808-.024.399-.211.668-.563.809l-2.32.843c-.492.188-.984.282-1.477.282-.75 0-1.5-.211-2.25-.633-1.593-.89-3.351-1.758-5.273-2.602-.398-.164-.598-.48-.598-.949 0-.375.176-.656.528-.844l1.371-.773c.023-.023.023-.047 0-.07 0-.047-.012-.07-.035-.07h-9.106c-.023 0-.035.023-.035.07 0 .023.012.035.035.035l1.125.527c.445.188.668.527.668 1.02 0 .398-.176.703-.527.914-2.203 1.195-4.758 2.273-7.664 3.234-.328.094-.657.14-.985.14-.281 0-.562-.034-.843-.105-.61-.164-1.137-.48-1.582-.949l-.915-.914c-.14-.14-.234-.305-.281-.492-.023-.094-.035-.188-.035-.281 0-.094.012-.176.035-.246.047-.188.129-.352.246-.493.141-.14.317-.222.528-.246 2.648-.586 4.933-1.289 6.855-2.11.024 0 .035-.01.035-.034 0-.047-.023-.07-.07-.07h-2.074c-.563 0-1.055-.2-1.477-.598-.398-.399-.597-.89-.597-1.477V16.461c0-.563.199-1.043.597-1.441.422-.422.914-.633 1.477-.633H241.227c0-.024-.012-.047-.036-.07-2.953-.797-5.32-2.579-7.101-5.344-.094-.141-.235-.211-.422-.211l-3.27.175c-.023.024-.058.036-.105.036-.492 0-.926-.164-1.301-.493-.398-.351-.633-.796-.703-1.335v-.211c0-.422.141-.809.422-1.16.351-.399.785-.61 1.301-.633L232.016 5c.164 0 .222-.082.175-.246-.14-.469-.257-.961-.351-1.477-.024-.14-.035-.27-.035-.386 0-.375.14-.727.422-1.055.351-.422.808-.633 1.371-.633h.668c.586 0 1.101.2 1.546.598.469.375.786.855.95 1.441.14.422.293.832.457 1.23.07.165.187.235.351.212l3.41-.176c.024 0 .036-.012.036-.035 0-.024-.012-.047-.036-.07-.468-.165-.89-.305-1.265-.423-.375-.117-.621-.351-.738-.703-.094-.375-.012-.703.246-.984.375-.398.808-.68 1.3-.844.282-.094.563-.14.844-.14.211 0 .434.035.668.105 1.125.281 2.192.621 3.199 1.02.328.117.528.363.598.738.07.351-.012.668-.246.95-.024 0-.024.023 0 .07.023.023.047.035.07.035l1.371-.07h.106c.469 0 .89.152 1.265.456.399.352.622.785.668 1.301.024.07.036.14.036.211 0 .422-.141.797-.422 1.125-.328.398-.75.61-1.266.633l-1.16.07c-.047.024-.082.059-.106.106 0 .023.024.046.071.07.422.305.949.598 1.582.879.562.258.996.644 1.301 1.16.187.305.281.633.281.984 0 .188-.035.387-.106.598-.304.96-.726 1.664-1.265 2.11-.539.421-1.266.703-2.18.843-.187.024-.281.117-.281.281v12.094zm12.691-23.765c.235-.54.61-.938 1.125-1.196.305-.164.621-.246.949-.246.211 0 .434.035.668.106l.95.316c.539.164.937.504 1.195 1.02.117.257.176.527.176.808 0 .234-.047.469-.141.703-.726 1.735-1.523 3.434-2.391 5.098-.093.14-.14.305-.14.492v22.887c0 .586-.199 1.078-.598 1.476-.398.399-.89.598-1.476.598h-.809c-.562 0-1.055-.2-1.477-.598-.398-.398-.597-.89-.597-1.476V18.148c0-.046-.024-.07-.071-.07-.023-.023-.058-.023-.105 0-.07.094-.141.2-.211.317-.258.28-.574.421-.949.421h-.211c-.469-.093-.809-.351-1.02-.773-.304-.633-.609-1.242-.914-1.828-.211-.422-.316-.88-.316-1.371v-.352c.07-.61.305-1.148.703-1.617 2.273-2.719 4.16-5.906 5.66-9.563zm7.031 16.453c.141-.563.457-.996.95-1.301.328-.235.691-.352 1.089-.352.141 0 .293.012.458.035l.984.211c.562.118.996.422 1.301.914.211.329.316.668.316 1.02 0 .164-.023.34-.07.527-.821 3.094-1.875 5.825-3.164 8.192-.258.468-.657.761-1.196.879-.14.023-.281.035-.421.035-.399 0-.774-.117-1.125-.352-.305-.187-.622-.387-.95-.597-.445-.282-.738-.692-.879-1.23-.023-.165-.035-.329-.035-.493 0-.352.094-.692.281-1.02 1.008-1.78 1.829-3.937 2.461-6.468zm15.329-7.278c.023-.164-.059-.246-.247-.246h-3.199c-.187 0-.281.082-.281.246v17.227c0 1.265-.129 2.262-.387 2.988-.258.727-.738 1.3-1.441 1.723-.914.515-2.109.832-3.586.949h-.176c-.515 0-.984-.164-1.406-.492-.469-.375-.785-.856-.949-1.442-.141-.445-.293-.89-.457-1.336-.071-.187-.106-.363-.106-.527 0-.258.082-.504.246-.738.258-.399.621-.598 1.09-.598h1.336c.258 0 .434-.035.527-.105.094-.094.141-.258.141-.492V12.488c0-.164-.094-.246-.281-.246h-2.918c-.164 0-.293.07-.387.211-.633 1.172-1.289 2.262-1.969 3.27-.328.445-.773.691-1.336.738-.046.023-.105.035-.175.035-.493 0-.914-.164-1.266-.492-.352-.281-.691-.563-1.02-.844-.445-.328-.691-.773-.738-1.336-.023-.094-.035-.176-.035-.246 0-.445.141-.855.422-1.23 1.805-2.438 3.269-5.45 4.394-9.036.164-.539.493-.96.985-1.265.351-.211.715-.317 1.09-.317.164 0 .328.024.492.07l1.125.247c.539.14.949.445 1.23.914.188.305.282.621.282.95 0 .187-.036.386-.106.597-.305.937-.621 1.828-.949 2.672-.024.047-.024.105 0 .175.047.047.094.07.141.07h10.898c.047 0 .105-.01.176-.034.234-.047.468-.07.703-.07.234 0 .469.023.703.07l1.16.21c.516.094.926.352 1.231.774.257.328.386.691.386 1.09 0 .117-.011.223-.035.316-.234 1.64-.527 3.293-.879 4.957-.093.563-.386 1.008-.879 1.336-.351.258-.738.387-1.16.387-.14 0-.281-.012-.422-.035l-.351-.07c-.586-.118-1.043-.41-1.371-.88-.282-.374-.422-.796-.422-1.265v-.281c.07-.492.129-.973.176-1.442zm-2.391 8.332c-.094-.258-.141-.504-.141-.738 0-.281.059-.55.176-.809.234-.515.621-.867 1.16-1.054l.739-.246c.257-.094.503-.141.738-.141.305 0 .609.07.914.211.539.234.926.621 1.16 1.16 1.031 2.531 1.828 5.086 2.391 7.664.047.164.07.328.07.492 0 .399-.106.785-.316 1.16-.305.516-.75.868-1.336 1.055l-1.125.422c-.188.047-.375.07-.563.07-.281 0-.562-.082-.844-.246-.445-.28-.714-.68-.808-1.195-.469-2.531-1.207-5.133-2.215-7.805zm36.949 1.23c.047-.046.059-.081.035-.105-.023-.047-.047-.07-.07-.07h-5.977c-.046 0-.082.023-.105.07-.023.047-.023.094 0 .14.516.868 1.172 1.712 1.969 2.532.117.117.246.13.386.035 1.336-.82 2.59-1.687 3.762-2.601zm2.778-.175c-.024 0-.047.023-.071.07 0 .024.012.047.035.07l1.02.704c.398.304.598.715.598 1.23 0 .492-.211.867-.633 1.125-1.149.774-2.403 1.547-3.762 2.32-.047.047-.07.094-.07.141 0 .047.035.094.105.14 1.5.774 3.164 1.384 4.992 1.829.446.117.739.387.879.808.047.141.071.282.071.422 0 .258-.094.504-.282.739-.328.422-.644.867-.949 1.336-.328.539-.762.925-1.301 1.16-.328.164-.656.246-.984.246-.234 0-.469-.035-.703-.106-3.024-.914-5.543-2.226-7.559-3.937-2.39-2.016-4.347-4.7-5.871-8.05-.07-.165-.187-.247-.351-.247h-3.024c-.187 0-.281.094-.281.281v6.047c0 .188.082.27.246.246 1.781-.258 3.293-.469 4.535-.633h.281c.446 0 .856.153 1.231.457.422.352.644.809.668 1.372l.035.457c.023.585-.152 1.113-.527 1.582-.375.445-.844.714-1.407.808-3.304.492-7.171 1.043-11.601 1.653-.094.023-.199.035-.317.035-.468 0-.89-.14-1.265-.422-.492-.328-.809-.774-.949-1.336l-.176-.774c-.047-.14-.071-.28-.071-.421 0-.375.118-.715.352-1.02.328-.445.762-.703 1.301-.773.797-.07 1.453-.141 1.969-.211.187-.024.281-.13.281-.317v-6.785c0-.164-.094-.246-.281-.246h-3.481c-.562 0-1.055-.2-1.476-.598-.399-.422-.598-.914-.598-1.476v-.422c0-.563.199-1.043.598-1.442.421-.421.914-.632 1.476-.632h3.551c.164 0 .246-.094.246-.282V3.593c0-.562.199-1.042.598-1.44.422-.423.914-.633 1.476-.633h18.914c.563 0 1.043.21 1.442.632.422.399.632.88.632 1.442v.105c0 .563-.21 1.055-.632 1.477-.399.398-.879.597-1.442.597h-15.328c-.187 0-.281.094-.281.282v.703c0 .164.094.246.281.246h14.52c.562 0 1.031.2 1.406.598.398.375.598.843.598 1.406 0 .562-.2 1.043-.598 1.441-.375.375-.844.563-1.406.563h-14.52c-.187 0-.281.082-.281.246v.633c0 .164.094.246.281.246h14.52c.562 0 1.031.199 1.406.597.398.375.598.844.598 1.407 0 .562-.2 1.043-.598 1.441-.375.375-.844.563-1.406.563h-14.52c-.187 0-.281.082-.281.246v.632c0 .188.094.282.281.282h19.301c.562 0 1.043.21 1.441.633.422.398.633.878.633 1.44v.423c0 .562-.211 1.055-.633 1.476-.398.399-.879.598-1.441.598h-1.441zm23.273-3.691c0 .585-.199 1.078-.598 1.476-.398.399-.89.598-1.476.598h-3.516c-.187 0-.293.094-.316.281 0 .164-.012.293-.035.387-.047.187-.012.34.105.457 1.313 1.336 3 3.21 5.063 5.625.398.469.597 1.008.597 1.617 0 .586-.176 1.113-.527 1.582l-.949 1.195c-.305.352-.68.528-1.125.528h-.106c-.516-.024-.914-.246-1.195-.668-.961-1.453-2.028-2.953-3.199-4.5-.047-.047-.106-.059-.176-.035-.047 0-.082.023-.106.07-1.125 2.883-2.707 5.273-4.746 7.172-.351.328-.75.492-1.195.492h-.281c-.539-.07-1.008-.328-1.407-.773-.281-.329-.585-.645-.914-.95-.351-.375-.527-.82-.527-1.336 0-.539.199-.996.598-1.37 2.554-2.415 4.172-5.579 4.851-9.493.024-.187-.058-.281-.246-.281h-3.515c-.586 0-1.079-.2-1.477-.598-.398-.398-.598-.89-.598-1.476v-.774c0-.586.2-1.078.598-1.476.398-.399.891-.598 1.477-.598h3.902c.187 0 .281-.094.281-.281V10.73c0-.165-.094-.247-.281-.247h-.141c-.164 0-.281.082-.351.246-.352.82-.715 1.582-1.09 2.286-.258.468-.656.75-1.195.843-.118.024-.235.036-.352.036-.398 0-.773-.13-1.125-.387-.258-.211-.527-.41-.809-.598-.468-.328-.761-.773-.879-1.336-.046-.164-.07-.328-.07-.492 0-.375.094-.738.281-1.09.961-1.828 1.735-4.066 2.321-6.715.117-.539.41-.972.879-1.3.351-.235.726-.352 1.125-.352.117 0 .257.012.422.035l.914.211c.562.094 1.007.387 1.336.879.21.328.316.68.316 1.055 0 .164-.012.328-.035.492-.094.375-.188.738-.281 1.09-.024.07-.024.129 0 .176.046.046.105.07.175.07h6.75c.563 0 1.043.21 1.442.633.422.398.633.879.633 1.441v.703c0 .563-.211 1.055-.633 1.477-.399.398-.879.597-1.442.597h-2.355c-.188 0-.281.082-.281.246v4.325c0 .187.093.28.281.28h3.129c.586 0 1.078.2 1.476.599.399.398.598.89.598 1.476v.774zm5.906 8.543c0 .187.094.28.281.28h3.34c.188 0 .282-.093.282-.28V9.465c0-.164-.094-.246-.282-.246h-3.34c-.187 0-.281.082-.281.246v17.262zm-5.062-20.32c0-.587.199-1.079.597-1.477.399-.399.891-.598 1.477-.598h10.125c.586 0 1.078.2 1.476.598.399.398.598.89.598 1.476V31.72c0 .586-.199 1.078-.598 1.476-.398.399-.89.598-1.476.598h-1.547c-.469 0-.867-.164-1.195-.492-.328-.328-.492-.727-.492-1.196 0-.14-.071-.21-.211-.21h-3.411c-.187 0-.281.082-.281.246v.175c0 .563-.199 1.043-.597 1.442-.399.422-.891.633-1.477.633h-.914c-.586 0-1.078-.211-1.477-.633-.398-.399-.597-.88-.597-1.442V6.406zm26.578-4.15c.539 0 .996.2 1.371.598.398.375.598.833.598 1.372 0 .515-.2.972-.598 1.37-.375.376-.832.563-1.371.563h-5.203c-.539 0-.996-.187-1.371-.562-.375-.399-.563-.856-.563-1.371 0-.54.188-.997.563-1.372.375-.398.832-.597 1.371-.597h5.203zm.738 4.923c.563 0 1.043.199 1.441.597.399.399.598.88.598 1.442 0 .562-.199 1.043-.598 1.441-.398.399-.878.598-1.441.598h-7.453c-.563 0-1.043-.2-1.441-.598-.375-.398-.563-.879-.563-1.441 0-.563.188-1.043.563-1.442.398-.398.878-.597 1.441-.597h7.453zm-.738 5.168c.539 0 .996.187 1.371.562.398.375.598.832.598 1.371 0 .54-.2.996-.598 1.371-.375.375-.832.563-1.371.563h-5.344c-.539 0-.996-.188-1.371-.563-.375-.375-.563-.832-.563-1.37 0-.54.188-.997.563-1.372.375-.375.832-.562 1.371-.562h5.344zm-5.344 8.859c-.539 0-.996-.188-1.371-.563-.375-.398-.563-.855-.563-1.37 0-.54.188-.997.563-1.372.375-.398.832-.597 1.371-.597h5.344c.539 0 .996.199 1.371.597.398.375.598.832.598 1.371 0 .516-.2.973-.598 1.372-.375.375-.832.562-1.371.562h-5.344zm3.41 5.484c0-.187-.082-.28-.246-.28h-1.055c-.187 0-.281.093-.281.28v2.532c0 .164.094.246.281.246h1.055c.164 0 .246-.082.246-.246V26.69zm1.969-4.289c.562 0 1.043.2 1.441.598.422.398.633.89.633 1.477v6.96c0 .563-.211 1.043-.633 1.442-.398.422-.879.633-1.441.633h-3.41c-.094 0-.141.047-.141.14 0 .352-.117.645-.351.88-.235.234-.516.35-.844.35h-.774c-.539 0-1.007-.198-1.406-.597-.375-.375-.562-.832-.562-1.37v-8.438c0-.586.199-1.079.597-1.477.422-.398.914-.598 1.477-.598h5.414zm7.629 5.414c0 .165.082.247.246.247h1.898c.164 0 .247-.082.247-.247v-.738c0-.164-.083-.246-.247-.246h-1.898c-.164 0-.246.082-.246.246v.738zm2.391-5.308c0-.188-.083-.281-.247-.281h-1.898c-.164 0-.246.093-.246.28v.669c0 .164.082.246.246.246h1.898c.164 0 .247-.082.247-.246v-.668zm.035-13.817c0-.187-.082-.28-.246-.28h-2.004c-.071 0-.129.034-.176.105-.024.046-.024.093 0 .14.234.656.433 1.36.598 2.11.046.14.07.293.07.457 0 .398-.129.773-.387 1.125-.351.492-.82.808-1.406.949-.024 0-.035.012-.035.035l.035.035h4.465c.023 0 .035-.012.035-.035-.422-.094-.75-.305-.984-.633-.188-.281-.282-.586-.282-.914v-.246c.164-1.101.27-2.05.317-2.848zm10.476 12.164c.211-.492.574-.832 1.09-1.02.211-.07.422-.105.633-.105.281 0 .562.07.844.211l.211.141c.515.281.867.703 1.054 1.266.094.234.141.48.141.738 0 .305-.07.61-.211.914-.891 1.852-1.969 3.645-3.234 5.379-.118.14-.141.293-.071.457.305.703.645 1.055 1.02 1.055.258 0 .469-.54.633-1.618.046-.375.246-.62.597-.738.352-.117.668-.047.949.211.047.024.094.059.141.106.492.445.844.96 1.055 1.546.117.329.176.657.176.985 0 .258-.036.527-.106.808-.469 1.618-1.031 2.743-1.687 3.375-.633.61-1.278.914-1.934.914h-.105c-1.711-.14-3.036-1.148-3.973-3.023-.07-.164-.164-.188-.281-.07-.774.726-1.547 1.383-2.321 1.968-.375.258-.785.387-1.23.387-.094 0-.199-.011-.317-.035-.562-.07-1.043-.316-1.441-.738-.117-.094-.223-.188-.316-.282-.282-.28-.411-.62-.387-1.019.023-.398.199-.715.527-.95.024-.023.024-.046 0-.07 0-.023-.011-.035-.035-.035h-4.219c-.07 0-.105.035-.105.106 0 .258-.094.468-.281.633-.188.187-.411.28-.668.28h-1.02c-.539 0-.996-.187-1.371-.562-.375-.375-.562-.832-.562-1.37v-9.915c0-.562.199-1.043.597-1.441.399-.422.891-.633 1.477-.633h6.328c.562 0 1.043.21 1.441.633.422.398.633.879.633 1.441v8.86c0 .046.024.082.07.105.047.023.082.012.106-.035.609-.563 1.195-1.172 1.758-1.828.117-.14.164-.293.14-.457-.445-2.485-.738-5.707-.879-9.668 0-.188-.093-.282-.281-.282h-10.476c-.563 0-1.055-.199-1.477-.597-.398-.399-.598-.89-.598-1.477 0-.562.2-1.043.598-1.441.398-.399.879-.598 1.441-.598.188 0 .27-.094.247-.281-.024-.586-.106-1.23-.247-1.934-.023-.14-.035-.28-.035-.421 0-.399.106-.774.317-1.126.304-.492.726-.796 1.265-.914l.95-.21c.023 0 .035-.012.035-.036 0-.023-.012-.035-.035-.035h-1.934c-.516 0-.961-.187-1.336-.562-.375-.375-.562-.82-.562-1.336 0-.54.187-.996.562-1.371.375-.375.82-.563 1.336-.563h1.16c.188 0 .281-.094.281-.281v-1.02c0-.562.2-1.043.598-1.441.398-.422.891-.633 1.477-.633h.597c.563 0 1.043.211 1.442.633.421.398.632.879.632 1.441v1.02c0 .187.094.281.282.281h1.054c.539 0 .996.188 1.371.563.375.375.563.832.563 1.37 0 .516-.188.962-.563 1.337-.375.375-.832.562-1.371.562h-1.441v.035l.914.14c.539.095.961.376 1.266.845.211.328.316.668.316 1.02 0 .163-.023.327-.07.491-.071.282-.164.668-.282 1.16-.093.47-.164.797-.21.985-.047.187.023.281.21.281h1.618c.187 0 .269-.094.246-.281-.047-2.297-.071-5.543-.071-9.738 0-.563.2-1.043.598-1.442.399-.422.891-.62 1.477-.597h.281c.562 0 1.043.199 1.441.597.399.399.586.89.563 1.477v1.265c0 .07.023.13.07.176.047.024.094.024.141 0l.984-.351c.305-.118.61-.176.914-.176.258 0 .528.047.809.14.586.188 1.019.551 1.301 1.09.492.914.914 1.84 1.265 2.778.094.258.141.504.141.738 0 .305-.07.598-.211.879-.258.539-.668.914-1.231 1.125l-.281.14c-.234.07-.457.106-.668.106-.281 0-.551-.059-.808-.176-.493-.258-.821-.644-.985-1.16-.351-1.102-.797-2.191-1.336-3.27-.023-.046-.058-.058-.105-.035-.024 0-.035.012-.035.035-.024 1.57-.035 3.704-.035 6.399 0 .187.093.281.281.281h3.445c.586 0 1.078.2 1.477.598.398.398.597.89.597 1.476 0 .563-.199 1.043-.597 1.442-.399.398-.891.598-1.477.598h-3.375c-.187 0-.269.093-.246.28.07 1.852.141 3.294.211 4.325 0 .047.012.07.035.07.047 0 .082-.011.106-.035.21-.398.41-.82.597-1.265z"/>
</svg>
