<svg xmlns="http://www.w3.org/2000/svg" width="141" height="35" fill="none" viewBox="0 0 141 35">
    <path fill="#333" d="M11.5 14.125c-.164 0-.246.082-.246.246v1.02c0 .187.082.28.246.28h8.578c.188 0 .281-.093.281-.28v-1.02c0-.164-.093-.246-.28-.246H11.5zm16.313 6.82c.585 0 1.078.211 1.476.633.398.399.598.879.598 1.442v5.273c0 1.172-.153 2.086-.457 2.742-.305.68-.844 1.207-1.617 1.582-.961.422-2.297.668-4.008.739h-.106c-.539 0-1.043-.176-1.512-.528-.468-.375-.796-.855-.984-1.441-.094-.305-.2-.598-.316-.88-.047-.163-.07-.327-.07-.491 0-.258.07-.504.21-.739.258-.398.621-.597 1.09-.597h1.652c.282 0 .47-.035.563-.106.117-.07.176-.199.176-.387v-2.32c0-.187-.094-.281-.281-.281h-4.852c-.188 0-.281.094-.281.281v6.469c0 .586-.2 1.078-.598 1.477-.398.398-.89.597-1.476.597h-1.301c-.563 0-1.055-.2-1.477-.597-.398-.399-.598-.891-.598-1.477v-6.469c0-.187-.082-.281-.246-.281H8.23c-.164 0-.246.094-.246.281v4.887c0 .586-.21 1.078-.632 1.476-.399.399-.88.598-1.442.598H4.715c-.563 0-1.055-.2-1.477-.598-.398-.398-.597-.89-.597-1.476v-7.735c0-.562.199-1.042.597-1.44.422-.423.914-.634 1.477-.634h8.683c.165 0 .247-.082.247-.246v-1.16c0-.187-.082-.281-.247-.281H8.301c-.563 0-1.055-.2-1.477-.598-.398-.398-.597-.89-.597-1.476v-4.606c0-.562.199-1.043.597-1.441.422-.422.914-.633 1.477-.633h15.328c.586 0 1.078.21 1.476.633.399.398.598.879.598 1.441v4.606c0 .585-.2 1.078-.598 1.476-.398.399-.89.598-1.476.598h-4.254c-.188 0-.281.094-.281.281v1.16c0 .164.093.246.281.246h8.438zm-.598-16.347c-.047.047-.059.093-.035.14.023.047.058.07.105.07h2.531c.563 0 1.043.2 1.442.598.422.399.633.89.633 1.477v5.097c0 .563-.211 1.055-.633 1.477-.399.398-.88.598-1.442.598h-1.09c-.562 0-1.054-.2-1.476-.598-.398-.422-.598-.914-.598-1.477V9.52c0-.165-.082-.247-.246-.247H5.488c-.164 0-.246.082-.246.247v2.46c0 .563-.21 1.055-.633 1.477-.398.398-.879.598-1.441.598h-.879c-.562 0-1.055-.2-1.477-.598-.398-.422-.597-.914-.597-1.477V6.883c0-.586.2-1.078.598-1.477.421-.398.914-.597 1.476-.597h2.074c.047 0 .082-.024.106-.07.047-.071.058-.13.035-.176-.094-.211-.2-.41-.316-.598-.165-.281-.247-.574-.247-.88 0-.187.024-.374.07-.562.165-.515.481-.867.95-1.054l.95-.352c.327-.14.667-.21 1.019-.21.234 0 .48.034.738.105.61.164 1.078.492 1.406.984.117.188.235.363.352.527.14.235.21.48.21.739 0 .164-.034.34-.105.527-.164.422-.457.727-.879.914-.023 0-.035.024-.035.07 0 .024.012.036.035.036h4.184c.164 0 .246-.094.246-.282V2.242c0-.562.2-1.043.598-1.441.422-.422.914-.633 1.476-.633h1.301c.563 0 1.043.21 1.441.633.422.398.633.879.633 1.441v2.285c0 .188.082.282.246.282h4.395c.023 0 .035-.012.035-.036 0-.023-.012-.035-.035-.035-.399-.14-.656-.41-.774-.808-.046-.14-.07-.282-.07-.422 0-.235.082-.469.246-.703.094-.188.2-.364.317-.528.328-.515.773-.89 1.336-1.125.328-.14.656-.21.984-.21.234 0 .469.035.703.105l1.688.492c.468.117.761.41.878.879.047.117.07.234.07.352 0 .304-.116.585-.35.843l-.985.985zM45.39 16.199c-.188 0-.282.082-.282.246v.914c0 .164.094.246.282.246H58.68c.164 0 .246-.082.246-.246v-.914c0-.164-.082-.246-.246-.246H45.39zm0-5.625c-.188 0-.282.082-.282.246v.914c0 .164.094.246.282.246H58.68c.164 0 .246-.082.246-.246v-.914c0-.164-.082-.246-.246-.246H45.39zm0-5.59c-.188 0-.282.094-.282.282v.843c0 .188.094.282.282.282H58.68c.164 0 .246-.094.246-.282v-.843c0-.188-.082-.282-.246-.282H45.39zm14.625 23.414h2.882c.563 0 .938-.28 1.125-.843.094-.328.176-.926.246-1.793.047-.446.27-.774.668-.985.211-.093.422-.14.633-.14.211 0 .41.035.598.105.328.164.668.305 1.02.422.585.211 1.043.563 1.37 1.055.282.398.422.808.422 1.23 0 .117-.011.246-.035.387-.304 1.828-.75 3.14-1.336 3.937-.82 1.032-2.215 1.547-4.183 1.547h-4.184c-2.344 0-3.926-.445-4.746-1.336-.797-.89-1.195-2.543-1.195-4.957v-4.605c0-.188-.082-.281-.246-.281h-2.953c-.164 0-.258.093-.282.28-.187 1.454-.468 2.696-.843 3.727-.399 1.079-1.032 2.133-1.899 3.165-.844 1.03-2.039 1.91-3.586 2.636-1.054.492-2.285.938-3.691 1.336-.211.07-.41.106-.598.106-.351 0-.691-.082-1.02-.246-.538-.258-.96-.657-1.265-1.196-.117-.187-.223-.375-.316-.562-.141-.235-.282-.446-.422-.633-.164-.235-.246-.48-.246-.738 0-.164.023-.328.07-.493.164-.421.469-.691.914-.808 1.453-.352 2.648-.762 3.586-1.23 1.336-.68 2.238-1.407 2.707-2.18.469-.75.797-1.723.984-2.918.024-.164-.047-.246-.21-.246h-1.829c-.562 0-1.054-.2-1.476-.598-.399-.422-.598-.914-.598-1.477V2.523c0-.562.2-1.043.598-1.441.422-.422.914-.633 1.476-.633H62.16c.563 0 1.043.211 1.442.633.421.398.632.879.632 1.441v17.543c0 .563-.21 1.055-.632 1.477-.399.398-.88.598-1.442.598h-3.27c-.163 0-.245.093-.245.28v4.571c0 .633.07 1.031.21 1.195.165.141.551.211 1.16.211zm22.043-22.71c0-.165-.082-.247-.246-.247h-3.727c-.188 0-.281.082-.281.247v.773c0 .187.093.281.28.281h3.728c.164 0 .246-.094.246-.281v-.774zm-4.254 5.59c0 .163.093.245.28.245h3.728c.164 0 .246-.082.246-.246v-.808c0-.188-.082-.281-.246-.281h-3.727c-.188 0-.281.093-.281.28v.81zm9.14 2.109c0 .562-.199 1.054-.597 1.476-.399.399-.891.598-1.477.598h-6.785c-.188 0-.281.082-.281.246v16.629c0 .586-.2 1.078-.598 1.477-.398.398-.89.597-1.476.597h-1.02c-.586 0-1.078-.2-1.477-.597-.398-.399-.597-.891-.597-1.477V3.578c0-.562.199-1.043.597-1.441.399-.422.891-.633 1.477-.633h10.16c.586 0 1.078.21 1.477.633.398.398.597.879.597 1.441v9.809zm6.961-2.04c0 .165.082.247.246.247h3.903c.187 0 .28-.082.28-.246v-.88c0-.187-.093-.28-.28-.28h-3.903c-.164 0-.246.093-.246.28v.88zm4.43-5.695c0-.164-.094-.246-.281-.246h-3.903c-.164 0-.246.082-.246.246v.809c0 .187.082.281.246.281h3.903c.187 0 .28-.094.28-.281v-.809zM89.898 25.06c.165 0 .246-.082.246-.247V22c0-.164-.082-.246-.246-.246h-4.042c-.188 0-.282.082-.282.246v2.813c0 .164.094.246.282.246h4.042zm11.637-23.555c.586 0 1.078.21 1.477.633.398.398.597.879.597 1.441v24.785c0 1.407-.164 2.496-.492 3.27-.305.797-.867 1.406-1.687 1.828-1.125.562-2.918.879-5.38.95h-.07c-.562 0-1.066-.188-1.511-.563-.469-.375-.785-.856-.95-1.442-.328-1.078-.69-2.027-1.09-2.847-.07-.165-.198-.247-.386-.247H85.82c-.164 0-.246.07-.246.211 0 .493-.176.915-.527 1.266-.328.328-.738.492-1.23.492h-.985c-.563 0-1.055-.199-1.476-.597-.399-.399-.598-.891-.598-1.477v-9.633c0-.562.199-1.043.598-1.441.421-.422.913-.633 1.476-.633h10.16c.563 0 1.043.21 1.442.633.422.398.632.879.632 1.441v9.352c0 .187.082.281.246.281h2.075c.351 0 .597-.07.738-.21.14-.142.21-.376.21-.704v-12.55c0-.165-.093-.247-.28-.247h-7.032c-.585 0-1.078-.2-1.476-.598-.399-.421-.598-.914-.598-1.476V3.578c0-.562.2-1.043.598-1.441.398-.422.89-.633 1.476-.633h10.512zm15.75 4.57c.188 0 .281-.082.281-.246V5.23c0-.164-.093-.246-.281-.246h-3.551c-.164 0-.246.082-.246.246v.598c0 .164.082.246.246.246h3.551zm0 4.36c.188 0 .281-.082.281-.246v-.633c0-.164-.093-.246-.281-.246h-3.551c-.164 0-.246.082-.246.246v.633c0 .164.082.246.246.246h3.551zm3.024-8.895c.562 0 1.043.211 1.441.633.422.398.633.879.633 1.441v8.192c0 .562-.211 1.054-.633 1.476-.398.399-.879.598-1.441.598h-9.352c-.586 0-1.078-.2-1.477-.598-.398-.422-.597-.914-.597-1.476V3.613c0-.562.199-1.043.597-1.441.399-.422.891-.633 1.477-.633h9.352zm14.062 9.633c.164 0 .246-.094.246-.281v-.563c0-.187-.082-.281-.246-.281h-4.922c-.187 0-.281.094-.281.281v.563c0 .187.094.28.281.28h4.922zm0 4.36c.164 0 .246-.095.246-.282v-.598c0-.164-.082-.246-.246-.246h-4.922c-.187 0-.281.082-.281.246v.598c0 .188.094.281.281.281h4.922zm0 4.359c.164 0 .246-.094.246-.282v-.597c0-.164-.082-.246-.246-.246h-4.922c-.187 0-.281.082-.281.246v.597c0 .188.094.282.281.282h4.922zm5.484 6.187c.305.305.457.668.457 1.09v.246c-.093.54-.374.938-.843 1.195l-1.512.88c-.047.023-.07.058-.07.105.023.023.058.035.105.035.539-.024 1.02-.035 1.442-.035h.035c.422 0 .75.187.984.562.141.235.211.469.211.703 0 .164-.035.34-.105.528-.047.117-.094.246-.141.386-.211.586-.563 1.067-1.055 1.442-.468.375-.996.562-1.582.562h-13.113c-3.328 0-5.977-.258-7.945-.773-1.946-.516-3.539-1.535-4.782-3.059-.046-.047-.105-.058-.175-.035-.047 0-.071.024-.071.07-.328 1.125-.726 2.133-1.195 3.024-.234.422-.586.633-1.055.633h-.035c-.492-.024-.902-.235-1.23-.633l-.352-.422c-.375-.445-.598-.973-.668-1.582-.023-.117-.035-.246-.035-.387 0-.445.094-.879.281-1.3.656-1.524 1.043-3.786 1.16-6.786.024-.586.235-1.078.633-1.476.422-.399.914-.598 1.477-.598.586 0 1.078.2 1.476.598.375.398.563.855.563 1.37 0 .306-.035.856-.106 1.653-.023.188 0 .352.071.492.281.704.644 1.348 1.09 1.934.023.047.046.059.07.035.047-.023.07-.047.07-.07v-6.856c0-.187-.082-.28-.246-.28h-4.324c-.516 0-.961-.177-1.336-.528-.352-.375-.527-.82-.527-1.336 0-.516.175-.95.527-1.3.375-.376.82-.563 1.336-.563h12.515c.516 0 .95.187 1.301.562.375.352.563.785.563 1.3 0 .517-.188.962-.563 1.337-.351.351-.785.527-1.301.527h-3.304c-.188 0-.281.094-.281.281v1.828c0 .188.093.282.281.282h2.637c.492 0 .914.187 1.265.562.375.352.563.785.563 1.301 0 .492-.188.926-.563 1.3-.351.352-.773.528-1.265.528h-2.637c-.188 0-.281.094-.281.281v3.27c0 .187.093.293.281.316 1.476.282 3.515.422 6.117.422h.176c.047 0 .082-.023.105-.07.024-.047.012-.082-.035-.106-.398-.398-.809-.785-1.23-1.16-.282-.281-.422-.61-.422-.984v-.176c.047-.469.281-.82.703-1.055.726-.421 1.394-.855 2.004-1.3.82-.657 1.64-.985 2.461-.985.328 0 .668.059 1.019.176l.281.07c.469.164.774.48.915.95.046.14.07.27.07.386 0 .328-.117.621-.352.88-1.195 1.218-2.554 2.296-4.078 3.234-.047.023-.07.058-.07.105.023.023.058.035.105.035 4.758 0 8.379-.023 10.864-.07.07 0 .117-.024.14-.07.024-.047.012-.094-.035-.141-.844-1.031-1.887-2.098-3.129-3.2-.305-.28-.457-.62-.457-1.019 0-.562.235-.972.703-1.23l.949-.492c.024 0 .036-.012.036-.036 0-.046-.024-.07-.071-.07h-8.683c-.563 0-1.055-.2-1.477-.598-.398-.421-.598-.914-.598-1.476V8.676c0-.586.2-1.078.598-1.477.422-.398.914-.597 1.477-.597h2.39c.188 0 .305-.082.352-.247l.281-.914c0-.07-.023-.128-.07-.175-.024-.047-.07-.07-.141-.07h-4.043c-.492 0-.914-.176-1.265-.528-.352-.352-.528-.773-.528-1.266 0-.515.176-.949.528-1.3.351-.352.773-.528 1.265-.528h13.114c.492 0 .914.176 1.265.528.352.351.527.785.527 1.3 0 .493-.175.914-.527 1.266-.351.352-.773.527-1.265.527h-3.903c-.164 0-.281.082-.351.246l-.457.914c-.024.047-.024.106 0 .176.023.047.07.07.14.07h3.41c.586 0 1.079.2 1.477.598.398.399.598.89.598 1.477v12.62c0 .563-.2 1.056-.598 1.477-.398.399-.891.598-1.477.598h-.492c-.047 0-.082.024-.105.07 0 .024.011.047.035.07 1.031.75 2.051 1.606 3.058 2.567z"/>
</svg>
