<svg xmlns="http://www.w3.org/2000/svg" width="40" height="40" fill="none" viewBox="0 0 40 40">
    <path fill="#333" d="M20 40c11.046 0 20-8.954 20-20S31.046 0 20 0 0 8.954 0 20s8.954 20 20 20z"/>
    <path fill="#fff" d="M20 9.9c-6 0-11 4-11 9 0 4.4 3.9 8.1 9.2 8.8.4.1.8.2 1 .5.1.3.1.7 0 1l-.1.9c0 .3-.2 1.1 1 .6 1.2-.5 6.3-3.8 8.6-6.4 1.6-1.7 2.3-3.5 2.3-5.5 0-4.9-5-8.9-11-8.9zm-4.3 11.9h-2.2c-.3 0-.6-.3-.6-.6v-4.4c0-.3.3-.6.6-.6s.6.3.6.6v3.8h1.6c.3 0 .6.3.6.6s-.3.6-.6.6zm2.3-.6c0 .3-.3.6-.6.6s-.6-.3-.6-.6v-4.4c0-.3.3-.6.6-.6s.6.3.6.6v4.4zm5.2 0c0 .2-.2.5-.4.5h-.2c-.2 0-.4-.1-.5-.2l-2.2-3.1v2.7c0 .3-.3.6-.6.6s-.6-.3-.6-.6v-4.4c0-.2.2-.5.4-.5h.2c.2 0 .3.1.5.2l2.3 3.1v-2.7c0-.3.3-.6.6-.6s.6.3.6.6v4.4h-.1zm3.5-2.8c.3 0 .6.3.6.6s-.3.6-.6.6h-1.6v1h1.6c.3 0 .6.3.6.6s-.3.6-.6.6h-2.2c-.3 0-.6-.3-.6-.6v-4.4c0-.3.3-.6.6-.6h2.2c.3 0 .6.3.6.6s-.3.6-.6.6h-1.6v1h1.6z"/>
</svg>
