<svg xmlns="http://www.w3.org/2000/svg" width="40" height="40" fill="none" viewBox="0 0 40 40">
    <path fill="#333" d="M20 40c11.046 0 20-8.954 20-20S31.046 0 20 0 0 8.954 0 20s8.954 20 20 20z"/>
    <path fill="#fff" d="M24.9 9.4c-1.2 0-2.3.5-3.2 1.3l-3.5 3.5c.3 0 .5-.1.8-.1.8 0 1.5.1 2.2.4l2.2-2.2c.4-.4.9-.6 1.5-.6 1.2 0 2.1 1 2.1 2.1 0 .6-.2 1.1-.6 1.5l-3.9 3.9c-.8.8-2.2.8-3 0L17.8 21c.8.8 2 1.3 3.2 1.3 1.2 0 2.3-.5 3.2-1.3l3.9-3.9c.8-.8 1.3-2 1.3-3.2 0-2.5-2-4.5-4.5-4.5z"/>
    <path fill="#fff" d="M18.8 23l-2.2 2.2c-.4.4-.9.6-1.5.6-1.2 0-2.1-1-2.1-2.1 0-.6.2-1.1.6-1.5l3.9-3.9c.8-.8 2.2-.8 3 0l1.7-1.7c-1.7-1.7-4.7-1.7-6.4 0l-3.9 3.9c-.8.8-1.3 2-1.3 3.2 0 2.5 2 4.5 4.5 4.5 1.2 0 2.3-.5 3.2-1.3l3.5-3.5c-.3 0-.5.1-.8.1-.8 0-1.5-.2-2.2-.5z"/>
</svg>
