<svg xmlns="http://www.w3.org/2000/svg" width="204" height="114" fill="none" viewBox="0 0 204 114">
    <g opacity=".2">
        <path fill="#F0D227" stroke="#333" stroke-miterlimit="10" stroke-width="2" d="M95.339 83.043H78.17c-.868 0-1.603-.736-1.603-1.606V3.497c0-.87.735-1.606 1.603-1.606H95.34c.868 0 1.603.736 1.603 1.606v78.007c0 .803-.668 1.538-1.603 1.538z"/>
        <path fill="#fff" stroke="#333" stroke-miterlimit="10" stroke-width="2" d="M97.011 80.571h17.502V3.97H97.011v76.602z"/>
        <path fill="#DF357F" stroke="#333" stroke-miterlimit="10" stroke-width="2" d="M98.812 83.043c1.002 0 1.804-.803 1.804-1.807V3.698c0-1.004-.802-1.807-1.804-1.807s-1.803.803-1.803 1.807v77.538c-.067 1.004.801 1.806 1.803 1.806zM116.312 83.043c1.002 0 1.804-.803 1.804-1.807V3.698c0-1.004-.802-1.807-1.804-1.807s-1.803.803-1.803 1.807v77.538c0 1.004.801 1.806 1.803 1.806z"/>
        <path fill="#fff" d="M93.733 7.177h-13.96v2.342h13.96V7.177zM93.733 11.86h-13.96v2.342h13.96V11.86zM93.733 18.484h-13.96v17.26h13.96v-17.26z"/>
        <path stroke="#333" stroke-miterlimit="10" stroke-width="2" d="M103.955 7.177v54.658M107.695 15.473v20.204M111.369 8.916v40.141"/>
        <path fill="#333" d="M.751 79.631c.935 0 1.002-1.472 0-1.472-1.001-.067-1.001 1.472 0 1.472z"/>
        <path fill="#fff" d="M203.218 113.349c-37.941-32.715-68.401-27.898-83.364-30.44 0 0-111.086-3.479-119.102-4.014"/>
        <path fill="#333" d="M203.752 112.814c-10.019-8.63-21.041-15.99-33.198-21.14-8.818-3.747-18.103-6.156-27.521-7.36-6.68-.87-13.494-1.003-20.174-1.74-1.202-.133-2.404-.4-3.54-.4-1.135-.068-2.271-.068-3.407-.134-4.742-.134-9.485-.268-14.228-.469-7.013-.2-13.96-.468-20.974-.669-8.083-.267-16.099-.535-24.181-.802l-23.647-.803c-6.48-.201-12.96-.469-19.372-.67-3.807-.133-7.682-.267-11.49-.468-.4 0-.8-.067-1.201-.067-.936-.066-.936 1.472 0 1.472 3.006.201 5.945.268 8.95.402 5.879.2 11.824.401 17.702.602 7.548.267 15.163.535 22.712.736l24.247.802c7.348.268 14.763.469 22.11.736 5.411.201 10.889.335 16.3.536 2.338.067 4.676.067 7.013.2 0 0 .334.067.602.067.668.067 1.269.201 1.937.268 1.403.134 2.805.267 4.141.334 3.34.268 6.68.402 10.02.736 8.617.736 17.234 2.275 25.45 4.951 11.49 3.746 22.244 9.634 31.997 16.792 3.006 2.208 5.945 4.549 8.75 7.025.668.736 1.737-.335 1.002-.937z"/>
        <path fill="#fff" d="M76.568 1.825H18.453v75.464h58.115V1.825z"/>
        <path fill="#333" d="M18.453 78.093H69.287c2.337 0 4.742.2 7.08 0h.134c.4 0 .735-.335.735-.736v-7.493V51.8 29.99 11.125 4.903c0-1.004.066-2.007 0-2.944v-.134c0-.401-.334-.736-.735-.736H25.667c-2.338 0-4.743-.2-7.08 0h-.134c-.4 0-.735.335-.735.736V74.28c0 1.004-.067 2.007 0 2.944v.134c0 .936 1.47 1.003 1.47 0v-7.493V51.8 29.99 11.125 4.903c0-.937.133-2.007 0-2.944v-.134c-.267.268-.468.535-.735.803h55.644c.734 0 1.602.134 2.27 0h.134l-.735-.736v72.454c0 .937-.134 2.007 0 2.944v.133l.735-.735H25.667c-2.338 0-4.743-.201-7.08 0h-.134c-1.002-.134-1.002 1.404 0 1.404z"/>
        <path fill="#DF357F" d="M76.568 1.825H18.453v4.281h58.115V1.825z"/>
        <path fill="#333" d="M18.454 6.91H69.287c2.338 0 4.743.2 7.08 0h.134c.401 0 .735-.335.735-.736V1.892c0-.401-.334-.736-.735-.736H25.669c-2.338 0-4.743-.2-7.08 0h-.134c-.401 0-.735.335-.735.736v4.282c0 .936 1.47 1.003 1.47 0V1.892c-.268.2-.468.468-.735.736H74.097c.735 0 1.603.134 2.27 0h.134l-.734-.736v4.282l.734-.736H25.669c-2.338 0-4.743-.2-7.08 0h-.134c-1.002-.067-1.002 1.472 0 1.472z"/>
        <path fill="#fff" d="M2.087 72.205c-.602-1.74-.268-3.747.734-5.285.401-.603 1.002-1.205 1.002-1.94.067-.803-.534-1.472-.801-2.208-1.07-2.476.868-5.285 3.14-6.69.4-.268.934-.536 1.068-1.07.067-.268 0-.603 0-.87-.134-1.54.601-3.078 1.67-4.148 1.069-1.138 5.745-1.138 6.813 0 1.07 1.137 1.804 2.609 1.67 4.148 0 .267-.066.602 0 .87.134.468.602.802 1.07 1.07 2.27 1.405 4.207 4.214 3.139 6.69-.334.736-.869 1.405-.802 2.208.067.735.601 1.337 1.002 1.94 1.069 1.538 1.336 3.545.735 5.285-.334 1.07-1.002 2.074-.935 3.211.133 1.405 1.536 2.676 1.135 4.081-.4 1.472-20.306 1.472-20.707 0-.401-1.405.935-2.676 1.135-4.08 0-1.138-.668-2.142-1.068-3.212z"/>
        <path fill="#333" d="M2.822 72.005c-.267-1.004-.334-2.007-.134-3.01.267-1.071 1.002-1.807 1.537-2.744.4-.736.534-1.472.267-2.275-.334-1.003-1.002-1.739-1.002-2.876.067-1.873 1.536-3.48 3.072-4.483.668-.468 1.27-.87 1.403-1.672.067-.468-.067-.937-.067-1.405 0-.67.2-1.271.535-1.806.334-.603.735-1.272 1.336-1.54.601-.267 1.403-.334 2.07-.334 1.07-.067 2.672-.067 3.407.803.668.803 1.203 1.806 1.27 2.877 0 .937-.201 1.74.534 2.475.601.602 1.47 1.004 2.07 1.606.735.736 1.337 1.539 1.67 2.542.268.803.2 1.606-.133 2.409-.4.936-1.002 1.739-.735 2.81.2.87.869 1.471 1.27 2.207.534.937.8 1.94.734 3.01-.133 2.008-1.67 3.613-1.002 5.687.267.803.935 1.606 1.002 2.476v.2c-.067.268-.067.335 0 .134-.267 0 .2-.134.067-.067.334-.134-.267.067 0 0-1.536.469-3.14.535-4.743.602-2.471.134-4.943.134-7.414.067-2.205-.067-4.476-.067-6.613-.535-.134 0-.268-.067-.468-.134s-.267-.067-.2-.067c-.134 0-.134-.067-.067-.067.2.134.067.469.067 0 .066-.334.066-.602.2-.936.334-.937.935-1.74 1.002-2.676.067-1.07-.534-2.141-.935-3.278-.334-.937-1.804-.536-1.47.401.334 1.07 1.069 2.14.802 3.278-.267 1.004-.935 1.873-1.069 2.877-.134 1.003.2 1.672 1.136 2.007 1.803.602 3.94.602 5.811.669 2.739.134 5.41.134 8.15 0 1.937-.067 4.074-.067 5.945-.669.801-.268 1.269-.669 1.335-1.606 0-.936-.467-1.806-.868-2.609-.601-1.338-.134-2.274.334-3.479.735-1.94.668-4.147-.334-5.954-.534-1.003-1.536-1.672-.935-2.877.468-.936.935-1.806.868-2.943-.067-1.94-1.202-3.68-2.672-4.884-.334-.335-.734-.602-1.135-.87-.601-.401-.668-.535-.668-1.27.067-1.138-.2-2.276-.802-3.212-.868-1.539-1.937-2.208-3.674-2.475-1.402-.201-3.006-.134-4.342.4-1.937.804-2.939 3.346-2.805 5.286 0 .335.133.602-.067.87-.134.2-.534.401-.735.535-.467.335-.935.669-1.336 1.07-.734.736-1.402 1.606-1.803 2.61-.401 1.003-.601 2.074-.334 3.077.133.602.4 1.07.668 1.606.334.736.467 1.137 0 1.873-.668 1.07-1.336 1.94-1.603 3.144-.268 1.204-.2 2.342.133 3.546.334.937 1.737.535 1.47-.401z"/>
        <path fill="#DF357F" d="M19.721 77.156c-.735-2.208-.334-4.683.935-6.624.535-.802 1.203-1.538 1.27-2.475.066-1.003-.668-1.873-1.07-2.743-1.335-3.077 1.07-6.556 3.875-8.362.534-.335 1.136-.67 1.27-1.338.066-.335 0-.736 0-1.07-.201-1.941.734-3.814 2.07-5.22 1.336-1.404 2.538-2.34 4.208-3.344 1.67.936 2.873 1.94 4.209 3.345 1.336 1.405 2.27 3.278 2.07 5.218-.066.335-.133.736 0 1.07.134.603.735 1.004 1.27 1.339 2.872 1.806 5.21 5.285 3.874 8.362-.4.937-1.069 1.74-1.069 2.743.067.937.735 1.673 1.27 2.475 1.268 1.874 1.67 4.416.934 6.624-.467 1.338-1.269 2.609-1.135 4.014.2 1.806 1.87 3.345 1.403 5.084-.535 1.807-25.25 1.807-25.785 0-.534-1.74 1.203-3.278 1.403-5.084.267-1.405-.534-2.676-1.002-4.014z"/>
        <path fill="#333" d="M20.457 76.955c-.334-1.204-.468-2.408-.134-3.68.267-1.204.868-2.14 1.536-3.077.668-.936 1.07-1.94.735-3.077-.334-1.137-1.135-2.074-1.269-3.278-.2-2.208 1.403-4.282 3.006-5.62.802-.669 1.937-1.07 2.405-2.074.2-.468.2-.937.133-1.472-.067-.669-.067-1.338.134-1.94.735-2.743 3.407-4.683 5.745-6.088h-.735c1.67.937 3.206 2.14 4.475 3.613.601.736 1.136 1.605 1.336 2.542.267 1.003-.133 2.007.134 3.01.2.736.801 1.205 1.47 1.606.801.535 1.536 1.07 2.204 1.74 1.069 1.204 2.004 2.81 1.937 4.482-.134 1.806-1.804 3.144-1.27 5.084.201.803.802 1.472 1.27 2.141.534.803.935 1.74 1.136 2.743.133.937.133 1.874-.067 2.743-.267 1.004-.735 1.94-1.07 2.877-.533 1.74 0 3.077.736 4.683.133.335.334.736.4 1.137.067.268.067.469.067.67 0 .535-.133.133 0 .066 0 0 .067-.133.134-.133 0 0-.2.133-.267.133.2-.067-.134 0-.134.067-.133.067-.2.067-.334.067-.334.067-.601.134-.935.2-1.737.268-3.607.402-5.344.47-4.475.2-8.951.2-13.36-.202-.868-.067-1.803-.133-2.672-.334-.334-.067-.6-.134-.935-.2-.133-.068-.267-.068-.4-.135-.201-.066.066 0-.134-.066-.2-.067.067 0-.067-.067.601.334 0 .067.067.067.067.2.067.2 0-.067v-.469c.067-.87.668-1.672 1.002-2.475.4-.87.601-1.806.467-2.743-.467-.87-1.068-1.873-1.402-2.944-.334-.936-1.737-.535-1.47.402.334 1.003.868 1.94 1.069 2.943.2 1.07-.334 2.007-.735 3.01-.468 1.004-1.202 2.677-.267 3.68.735.803 2.471.87 3.473 1.004 4.543.602 9.285.535 13.828.401 2.137-.066 4.275-.2 6.412-.468.935-.134 2.605-.2 3.207-1.137.734-1.271-.268-3.01-.735-4.148-.468-1.004-.601-1.806-.267-2.877.334-1.003.868-2.007 1.068-3.01.401-1.874.2-3.88-.668-5.62-.4-.803-1.002-1.405-1.402-2.208-.668-1.204.2-2.074.668-3.211.801-1.806.467-3.813-.468-5.553-.468-.87-1.069-1.672-1.803-2.341-.401-.402-.802-.736-1.203-1.004-.4-.334-1.002-.535-1.336-.937-.467-.468-.267-1.003-.267-1.605 0-.535 0-1.07-.134-1.539-.267-1.137-.801-2.208-1.536-3.144-1.336-1.74-3.14-3.145-5.01-4.215-.2-.134-.534-.134-.735 0-2.137 1.271-4.275 2.877-5.61 5.017-.669 1.071-1.07 2.342-1.07 3.613 0 .67.268 1.338-.267 1.873-.4.402-1.002.67-1.47 1.004-1.803 1.405-3.406 3.412-3.74 5.687-.134 1.07-.067 2.14.4 3.077.268.602.669 1.137.87 1.806.2.736-.134 1.338-.602 1.94-1.67 2.342-2.405 5.018-1.536 7.895.133.936 1.603.602 1.336-.335z"/>
        <path fill="#333" d="M25.8 75.952c2.338 1.003 4.342 2.475 6.078 4.348-.066-.2-.133-.334-.2-.535v12.243c0 .937 1.47 1.004 1.47 0v-6.155-4.215c0-.602.133-1.338 0-2.007-.134-.602-.735-1.003-1.203-1.405-.534-.468-1.069-.936-1.603-1.338-1.202-.87-2.471-1.605-3.807-2.207-.869-.402-1.67.87-.735 1.27z"/>
        <path fill="#333" d="M33.081 80.1c.468-3.211.535-6.423.334-9.634-.066-.936-1.535-.936-1.469 0 .2 3.078.134 6.155-.267 9.233-.067.4.067.802.534.936.267.067.802-.134.868-.535zM14.578 87.057c-.267-8.095-.267-16.19-.534-24.285 0-.936-1.536-1.003-1.47 0 .268 8.095.268 16.19.535 24.285 0 .937 1.536 1.004 1.469 0z"/>
        <path fill="#333" d="M13.71 69.93c-2.806-1.605-5.812-2.81-8.884-3.679-.936-.267-1.336 1.204-.401 1.472 3.006.87 5.811 2.007 8.55 3.546.802.401 1.603-.87.735-1.338z"/>
        <path fill="#333" d="M8.7 67.522c.4-1.672.8-3.278 1.268-4.95.067-.402-.133-.803-.534-.937-.4-.067-.801.134-.935.535-.4 1.673-.801 3.278-1.269 4.95-.066.402.134.804.535.938.4.066.868-.134.935-.536z"/>
        <path fill="#DF357F" d="M123.861 80.3c-.735-2.208-.334-4.683.935-6.623.534-.803 1.202-1.54 1.269-2.476.067-1.003-.668-1.873-1.069-2.743-1.336-3.077 1.069-6.556 3.875-8.362.534-.335 1.135-.67 1.269-1.338.067-.335 0-.736 0-1.07-.2-1.941.735-3.814 2.071-5.22 1.336-1.404 2.538-2.34 4.208-3.344 1.67.936 2.872 1.94 4.208 3.345 1.336 1.405 2.271 3.278 2.071 5.218-.067.335-.134.736 0 1.07.134.603.735 1.004 1.269 1.339 2.873 1.806 5.21 5.285 3.875 8.362-.401.937-1.069 1.74-1.069 2.743.067.937.735 1.673 1.269 2.476 1.269 1.873 1.67 4.415.935 6.623-.468 1.338-1.269 2.609-1.135 4.014.2 1.806 1.87 3.345 1.402 5.084-.534 1.807-25.25 1.807-25.784 0-.534-1.74 1.202-3.278 1.403-5.084.267-1.338-.535-2.676-1.002-4.014z"/>
        <path fill="#333" d="M124.596 80.1c-.334-1.205-.467-2.409-.133-3.68.267-1.204.868-2.14 1.536-3.077.668-.937 1.069-1.94.735-3.078-.334-1.137-1.136-2.074-1.269-3.278-.201-2.208 1.402-4.282 3.006-5.62.801-.669 1.937-1.07 2.404-2.074.201-.468.201-.936.134-1.471-.067-.67-.067-1.339.134-1.94.734-2.744 3.406-4.684 5.744-6.089h-.735c1.67.937 3.207 2.141 4.476 3.613.601.736 1.135 1.606 1.336 2.542.267 1.004-.134 2.007.133 3.01.201.737.802 1.205 1.47 1.606.802.536 1.536 1.07 2.204 1.74 1.069 1.204 2.004 2.81 1.938 4.482-.134 1.807-1.804 3.145-1.27 5.085.201.803.802 1.472 1.27 2.14.534.803.935 1.74 1.135 2.743.134.937.134 1.874-.067 2.743-.267 1.004-.734 1.94-1.068 2.877-.535 1.74 0 3.078.734 4.683.134.335.334.736.401 1.138.067.267.067.468.067.669 0 .535-.134.133 0 .067 0 0 .067-.134.134-.134 0 0-.201.134-.268.134.201-.067-.133 0-.133.067-.134.066-.201.066-.334.066-.334.067-.601.134-.935.201-1.737.268-3.608.401-5.344.468-4.476.201-8.951.201-13.36-.2-.868-.067-1.804-.134-2.672-.335-.334-.067-.601-.134-.935-.2-.134-.067-.267-.067-.401-.134-.2-.067.067 0-.134-.067-.2-.067.067 0-.066-.067.601.334 0 .067.066.067.067.2.067.2 0-.067v-.469c.067-.87.668-1.672 1.002-2.475.401-.87.602-1.806.468-2.743-.468-.87-1.002-1.873-1.403-2.943-.334-.937-1.737-.536-1.469.401.334 1.003.868 1.94 1.068 2.944.201 1.07-.334 2.007-.734 3.01-.468 1.004-1.203 2.676-.268 3.68.735.803 2.472.87 3.474 1.003 4.542.602 9.285.535 13.827.402 2.138-.067 4.275-.201 6.413-.469.935-.133 2.605-.2 3.206-1.137.735-1.271-.267-3.01-.735-4.148-.467-1.003-.601-1.806-.267-2.877.334-1.003.869-2.007 1.069-3.01.401-1.873.2-3.88-.668-5.62-.401-.803-1.002-1.405-1.403-2.207-.668-1.205.201-2.075.668-3.212.802-1.806.468-3.813-.467-5.553-.468-.87-1.069-1.672-1.804-2.341-.401-.402-.801-.736-1.202-1.004-.401-.334-1.002-.535-1.336-.936-.468-.469-.267-1.004-.267-1.606 0-.535 0-1.07-.134-1.539-.267-1.137-.802-2.207-1.536-3.144-1.336-1.74-3.14-3.144-5.01-4.215-.201-.134-.535-.134-.735 0-2.138 1.271-4.275 2.877-5.611 5.018-.668 1.07-1.069 2.341-1.069 3.613 0 .669.267 1.337-.267 1.873-.401.401-1.002.669-1.47 1.003-1.803 1.405-3.406 3.412-3.74 5.687-.134 1.07-.067 2.14.4 3.077.268.602.668 1.138.869 1.807.2.736-.134 1.338-.601 1.94-1.67 2.341-2.405 5.017-1.537 7.894.201 1.004 1.67.602 1.336-.334z"/>
        <path fill="#333" d="M129.94 79.163c2.338 1.004 4.342 2.475 6.079 4.349-.067-.201-.134-.335-.201-.536V95.22c0 .937 1.47 1.004 1.47 0v-6.155-4.214c0-.602.134-1.338 0-2.007-.134-.603-.735-1.004-1.202-1.405-.535-.469-1.069-.937-1.604-1.338-1.202-.87-2.471-1.606-3.807-2.208-.868-.402-1.603.87-.735 1.271z"/>
        <path fill="#333" d="M137.22 83.244c.468-3.211.534-6.423.334-9.634-.067-.936-1.536-.936-1.469 0 .2 3.078.134 6.155-.267 9.233-.067.401.067.802.534.936.334.134.801-.134.868-.535z"/>
        <path fill="#fff" d="M49.38 54.543l24.114-10.771 24.181 10.77v2.878l.067.066V96.49H49.38V54.543z"/>
        <path fill="#333" d="M49.782 55.212c7.081-3.144 14.095-6.289 21.176-9.433 1.002-.468 1.937-.87 2.939-1.338h-.735c7.08 3.144 14.161 6.289 21.175 9.433 1.002.468 1.937.87 2.94 1.338-.134-.2-.268-.401-.402-.669v2.877c0 .267.134.535.401.669h.067c-.134-.2-.267-.401-.4-.67v39.004l.734-.736H49.315l.735.736V82.24 59.628v-5.219c0-.936-1.47-1.003-1.47 0V96.423c0 .402.334.736.735.736h48.362c.4 0 .735-.334.735-.736v-13.18-21.006-4.817c0-.268-.134-.535-.401-.67h-.067c.134.202.267.402.401.67v-2.877c0-.267-.134-.535-.4-.669-7.148-3.144-14.296-6.355-21.376-9.5-.936-.401-1.804-.87-2.74-1.204-.734-.268-1.803.468-2.537.736-4.142 1.873-8.283 3.68-12.425 5.553-3.34 1.471-6.613 2.943-9.953 4.415-.802.402 0 1.74.868 1.338z"/>
        <path fill="#fff" d="M79.106 96.49h48.296V57.486l-24.181-10.77-24.115 10.77V96.49z"/>
        <path fill="#333" d="M79.106 97.226h48.362c.401 0 .735-.334.735-.736V83.31 62.305v-4.817c0-.268-.133-.535-.401-.67-7.147-3.21-14.295-6.355-21.442-9.566-.935-.401-1.803-.87-2.739-1.204-.734-.268-1.803.468-2.538.736-4.141 1.873-8.283 3.68-12.424 5.552-3.34 1.472-6.614 2.944-9.954 4.416-.267.134-.4.401-.4.669v39.003c0 .937 1.47 1.004 1.47 0v-13.18-21.006-4.817c-.134.2-.268.401-.401.669 7.08-3.145 14.094-6.289 21.175-9.433 1.002-.468 1.937-.87 2.939-1.338h-.735l21.242 9.433c1.002.468 2.004.87 2.939 1.338-.134-.2-.267-.401-.401-.67v39.004l.735-.736H78.906c-.802.067-.802 1.54.2 1.54z"/>
        <path fill="#DF357F" d="M103.22 43.772l24.115 10.77v6.29L103.22 50.126 79.173 60.831v-6.288l24.047-10.771z"/>
        <path fill="#333" d="M102.82 44.441c7.08 3.144 14.161 6.289 21.175 9.433 1.002.468 1.937.87 2.939 1.338-.134-.2-.267-.401-.401-.669v6.289c.401-.2.735-.402 1.136-.67-7.081-3.143-14.228-6.288-21.309-9.5-.935-.4-1.87-.936-2.805-1.27-.735-.268-1.804.468-2.539.736-4.141 1.806-8.216 3.68-12.358 5.486-3.34 1.471-6.68 2.943-9.953 4.482.401.2.735.401 1.136.669v-6.289c-.133.2-.267.402-.4.67 7.013-3.145 14.027-6.29 21.108-9.434 1.002-.468 2.004-.87 2.939-1.338.868-.401.133-1.672-.735-1.271-7.014 3.144-14.028 6.289-21.108 9.433-1.002.468-2.004.87-2.94 1.338-.267.134-.4.401-.4.67v6.288c0 .602.6.87 1.135.669 7.014-3.145 14.028-6.289 21.109-9.433 1.002-.468 2.004-.87 2.939-1.338h-.735c7.081 3.144 14.161 6.289 21.175 9.433 1.002.468 1.937.87 2.939 1.338.535.2 1.136 0 1.136-.67v-6.288c0-.267-.134-.535-.401-.669-7.081-3.144-14.161-6.289-21.175-9.433-1.002-.468-1.937-.87-2.939-1.338-.802-.334-1.537.937-.668 1.338z"/>
        <path fill="#DF357F" d="M111.503 79.43h-16.5v17.06h16.5V79.43z"/>
        <path fill="#333" d="M95.004 97.226h16.5c.4 0 .734-.335.734-.736V81.571v-2.14c0-.402-.334-.737-.734-.737H95.005c-.401 0-.735.335-.735.736v17.06c0 .937 1.47 1.004 1.47 0V81.571v-2.14l-.736.735h16.5l-.735-.736v17.06l.735-.736H95.005c-1.003 0-1.003 1.472 0 1.472z"/>
        <path fill="#DF357F" d="M118.183 66.451h-5.144v5.152h5.144V66.45z"/>
        <path fill="#333" d="M113.039 72.339h5.144c.401 0 .735-.335.735-.736V67.12v-.67c0-.4-.334-.735-.735-.735h-5.144c-.4 0-.734.334-.734.736v5.151c0 .401.334.736.734.736.401 0 .735-.335.735-.736V67.12v-.67l-.735.736h5.144l-.735-.736V71.603l.735-.736h-5.144c-.4 0-.734.334-.734.736 0 .401.334.736.734.736z"/>
        <path fill="#DF357F" d="M105.825 66.451h-5.143v5.152h5.143V66.45z"/>
        <path fill="#333" d="M100.682 72.339h5.144c.4 0 .734-.335.734-.736V67.12v-.67c0-.4-.334-.735-.734-.735h-5.144c-.401 0-.735.334-.735.736v5.151c0 .401.334.736.735.736.401 0 .735-.335.735-.736V67.12v-.67l-.735.736h5.144l-.735-.736V71.603l.735-.736h-5.144c-.401 0-.735.334-.735.736 0 .401.334.736.735.736z"/>
        <path fill="#DF357F" d="M93.468 66.451h-5.144v5.152h5.144V66.45z"/>
        <path fill="#333" d="M88.324 72.339h5.144c.4 0 .735-.335.735-.736V67.12v-.67c0-.4-.334-.735-.735-.735h-5.144c-.4 0-.734.334-.734.736v5.151c-.067.401.334.736.734.736.401 0 .735-.335.735-.736V67.12v-.67l-.735.736h5.144l-.735-.736V71.603l.735-.736h-5.144c-.4 0-.734.334-.734.736-.067.401.267.736.734.736z"/>
        <path fill="#DF357F" d="M73.829 68.793H54.59v3.412h19.238v-3.412z"/>
        <path fill="#333" d="M54.591 72.94H73.83c.401 0 .735-.334.735-.735v-3.412c0-.401-.334-.736-.735-.736H54.591c-.4 0-.735.335-.735.736v3.412c0 .937 1.47 1.004 1.47 0v-3.412l-.735.736H73.83l-.734-.736v3.412l.734-.736H54.591c-1.002 0-1.002 1.472 0 1.472z"/>
        <path fill="#DF357F" d="M73.829 75.95H54.59v3.413h19.238V75.95z"/>
        <path fill="#333" d="M54.591 80.166H73.83c.401 0 .735-.334.735-.736v-3.412c0-.401-.334-.736-.735-.736H54.591c-.4 0-.735.335-.735.736v3.412c0 .937 1.47 1.004 1.47 0v-3.412l-.735.736H73.83l-.734-.736v3.412l.734-.736H54.591c-1.002-.067-1.002 1.472 0 1.472z"/>
        <path fill="#DF357F" d="M73.829 83.177H54.59v3.411h19.238v-3.411z"/>
        <path fill="#333" d="M54.591 87.325H73.83c.401 0 .735-.335.735-.736v-3.412c0-.402-.334-.736-.735-.736H54.591c-.4 0-.735.334-.735.736v3.412c0 .936 1.47 1.003 1.47 0v-3.412l-.735.736H73.83l-.734-.736v3.412l.734-.736H54.591c-1.002 0-1.002 1.472 0 1.472z"/>
        <path fill="#DF357F" d="M103.219 43.772H73.494L49.38 54.541h29.792l24.047-10.77z"/>
        <path fill="#333" d="M103.221 43.036H73.963c-.668 0-1.136.268-1.737.535-4.141 1.807-8.216 3.68-12.358 5.486l-10.82 4.817c-.736.335-.335 1.405.4 1.405h29.258c.668 0 1.135-.2 1.736-.468 4.075-1.807 8.217-3.68 12.291-5.486 3.607-1.606 7.281-3.211 10.888-4.884.869-.401.134-1.672-.734-1.271-7.415 3.278-14.83 6.623-22.244 9.901-.535.201-1.069.469-1.537.67-.066 0-.2.066-.267.133.134-.2.535-.067.267-.067-.4-.067-.868 0-1.269 0H49.515l.4 1.405c7.415-3.278 14.83-6.623 22.178-9.901.534-.268 1.068-.468 1.603-.736.067-.067.2-.067.267-.134 0 0-.534 0-.267.067.334.067.868 0 1.202 0H103.287c.869.067.869-1.472-.066-1.472z"/>
        <path fill="#DF357F" d="M79.106 54.543H49.247v6.288h29.859v-6.288z"/>
        <path fill="#333" d="M49.248 61.635H79.106c.401 0 .735-.335.735-.736v-6.29c0-.4-.334-.735-.735-.735H49.248c-.401 0-.735.334-.735.736v6.289c0 .936 1.47 1.003 1.47 0v-6.29l-.735.737H79.106l-.734-.736v6.289l.734-.736H49.248c-.936-.067-.936 1.472 0 1.472zM96.942 79.43v17.06c0 .937 1.47 1.004 1.47 0V81.571v-2.14c.066-1.004-1.47-1.004-1.47 0zM107.963 89.265c.738 0 1.336-.6 1.336-1.338 0-.74-.598-1.338-1.336-1.338-.737 0-1.335.599-1.335 1.338 0 .739.598 1.338 1.335 1.338z"/>
        <path fill="#DF357F" d="M66.481 15.473h-5.143v5.151h5.143v-5.151z"/>
        <path fill="#333" d="M61.338 21.36h5.144c.4 0 .735-.334.735-.736v-4.482-.669c0-.401-.334-.736-.735-.736h-5.144c-.4 0-.735.335-.735.736v5.152c0 .4.334.735.735.735.401 0 .735-.334.735-.736v-4.482-.669l-.735.736h5.144l-.735-.736v5.152l.735-.736h-5.144c-.4 0-.735.334-.735.735 0 .402.334.736.735.736z"/>
        <path fill="#DF357F" d="M55.259 15.473h-5.144v5.151h5.144v-5.151z"/>
        <path fill="#333" d="M50.116 21.36h5.143c.4 0 .735-.334.735-.736v-4.482-.669c0-.401-.334-.736-.735-.736h-5.143c-.401 0-.735.335-.735.736v5.152c0 .4.334.735.735.735.4 0 .734-.334.734-.736v-4.482-.669l-.734.736h5.143l-.735-.736v5.152l.735-.736h-5.143c-.401 0-.735.334-.735.735 0 .402.334.736.735.736z"/>
        <path fill="#DF357F" d="M44.036 15.473h-5.143v5.151h5.143v-5.151z"/>
        <path fill="#333" d="M38.893 21.36h5.143c.401 0 .735-.334.735-.736v-4.482-.669c0-.401-.334-.736-.735-.736h-5.143c-.4 0-.735.335-.735.736v5.152c0 .4.334.735.735.735.4 0 .735-.334.735-.736v-4.482-.669l-.735.736h5.143l-.734-.736v5.152l.734-.736h-5.143c-.4 0-.735.334-.735.735 0 .402.334.736.735.736z"/>
        <path fill="#DF357F" d="M32.814 15.473h-5.143v5.151h5.143v-5.151z"/>
        <path fill="#333" d="M27.671 21.36h5.144c.4 0 .735-.334.735-.736v-4.482-.669c0-.401-.334-.736-.735-.736H27.67c-.4 0-.735.335-.735.736v5.152c0 .4.334.735.735.735.401 0 .735-.334.735-.736v-4.482-.669l-.735.736h5.144l-.735-.736v5.152l.735-.736H27.67c-.4 0-.735.334-.735.735 0 .402.334.736.735.736z"/>
        <path fill="#DF357F" d="M66.481 26.846h-5.143v5.151h5.143v-5.151z"/>
        <path fill="#333" d="M61.338 32.734h5.144c.4 0 .735-.335.735-.736v-4.483-.669c0-.401-.334-.736-.735-.736h-5.144c-.4 0-.735.335-.735.736V31.998c0 .334.334.736.735.736.401 0 .735-.335.735-.736v-4.483-.669l-.735.736h5.144l-.735-.736V31.998l.735-.736h-5.144c-.4 0-.735.334-.735.736 0 .401.334.736.735.736z"/>
        <path fill="#DF357F" d="M55.259 26.846h-5.144v5.151h5.144v-5.151z"/>
        <path fill="#333" d="M50.116 32.734h5.143c.4 0 .735-.335.735-.736v-4.483-.669c0-.401-.334-.736-.735-.736h-5.143c-.401 0-.735.335-.735.736V31.998c0 .334.334.736.735.736.4 0 .734-.335.734-.736v-4.483-.669l-.734.736h5.143l-.735-.736V31.998l.735-.736h-5.143c-.401 0-.735.334-.735.736 0 .401.334.736.735.736z"/>
        <path fill="#DF357F" d="M44.036 26.846h-5.143v5.151h5.143v-5.151z"/>
        <path fill="#333" d="M38.893 32.734h5.143c.401 0 .735-.335.735-.736v-4.483-.669c0-.401-.334-.736-.735-.736h-5.143c-.4 0-.735.335-.735.736V31.998c0 .334.334.736.735.736.4 0 .735-.335.735-.736v-4.483-.669l-.735.736h5.143l-.734-.736V31.998l.734-.736h-5.143c-.4 0-.735.334-.735.736 0 .401.334.736.735.736z"/>
        <path fill="#DF357F" d="M32.814 26.846h-5.143v5.151h5.143v-5.151z"/>
        <path fill="#333" d="M27.671 32.734h5.144c.4 0 .735-.335.735-.736v-4.483-.669c0-.401-.334-.736-.735-.736H27.67c-.4 0-.735.335-.735.736V31.998c0 .334.334.736.735.736.401 0 .735-.335.735-.736v-4.483-.669l-.735.736h5.144l-.735-.736V31.998l.735-.736H27.67c-.4 0-.735.334-.735.736 0 .401.334.736.735.736z"/>
        <path fill="#DF357F" d="M66.481 38.152h-5.143v5.151h5.143v-5.15z"/>
        <path fill="#333" d="M61.338 44.04h5.144c.4 0 .735-.335.735-.736V38.82v-.669c0-.401-.334-.736-.735-.736h-5.144c-.4 0-.735.335-.735.736V43.304c0 .401.334.736.735.736.401 0 .735-.335.735-.736V38.82v-.669l-.735.736h5.144l-.735-.736V43.304l.735-.736h-5.144c-.4 0-.735.334-.735.736 0 .401.334.736.735.736z"/>
        <path fill="#DF357F" d="M55.259 38.152h-5.144v5.151h5.144v-5.15z"/>
        <path fill="#333" d="M50.116 44.04h5.143c.4 0 .735-.335.735-.736V38.82v-.669c0-.401-.334-.736-.735-.736h-5.143c-.401 0-.735.335-.735.736V43.304c0 .401.334.736.735.736.4 0 .734-.335.734-.736V38.82v-.669l-.734.736h5.143l-.735-.736V43.304l.735-.736h-5.143c-.401 0-.735.334-.735.736 0 .401.334.736.735.736z"/>
        <path fill="#DF357F" d="M44.036 38.152h-5.143v5.151h5.143v-5.15z"/>
        <path fill="#333" d="M38.893 44.04h5.143c.401 0 .735-.335.735-.736V38.82v-.669c0-.401-.334-.736-.735-.736h-5.143c-.4 0-.735.335-.735.736V43.304c0 .401.334.736.735.736.4 0 .735-.335.735-.736V38.82v-.669l-.735.736h5.143l-.734-.736V43.304l.734-.736h-5.143c-.4 0-.735.334-.735.736 0 .401.334.736.735.736z"/>
        <path fill="#DF357F" d="M32.814 38.152h-5.143v5.151h5.143v-5.15z"/>
        <path fill="#333" d="M27.671 44.04h5.144c.4 0 .735-.334.735-.736v-4.482-.67c0-.4-.334-.735-.735-.735H27.67c-.4 0-.735.334-.735.736v5.152c0 .4.334.735.735.735.401 0 .735-.334.735-.736v-4.482-.67l-.735.737h5.144l-.735-.736v5.152l.735-.737H27.67c-.4 0-.735.335-.735.736 0 .401.334.736.735.736z"/>
        <path fill="#fff" d="M154.722 67.722h-1.737v36.06h1.737v-36.06z"/>
        <path fill="#333" d="M152.986 104.518h1.737c.4 0 .734-.334.734-.736V91.607 72.204 67.79c0-.402-.334-.736-.734-.736h-1.737c-.401 0-.735.334-.735.736v35.992c0 .937 1.47 1.004 1.47 0V91.607 72.204 67.79l-.735.735h1.737l-.735-.735v35.992l.735-.735h-1.737c-1.002 0-1.002 1.471 0 1.471z"/>
        <path fill="#DF357F" d="M158.196 102.845h-8.684v1.874h8.684v-1.874z"/>
        <path fill="#333" d="M149.511 105.455H158.195c.401 0 .735-.335.735-.736v-1.873c0-.402-.334-.736-.735-.736H149.511c-.401 0-.735.334-.735.736v1.873c0 .937 1.47 1.004 1.47 0v-1.873l-.735.736H158.195l-.735-.736v1.873l.735-.736H149.511c-1.002 0-1.002 1.472 0 1.472zM166.745 67.455c-.066-2.877-1.803-5.419-4.475-6.422-2.605-1.004-5.812-.201-7.615 2.007-1.069 1.27-1.603 2.81-1.603 4.415 0 .937 1.469.937 1.469 0 .067-2.944 2.405-5.352 5.344-5.352 2.939 0 5.277 2.408 5.344 5.352.067 1.004 1.536 1.004 1.536 0z"/>
        <path fill="#fff" d="M166.011 70.733c-1.603 0-2.872-1.271-2.872-2.877h5.744c0 1.539-1.269 2.877-2.872 2.877z"/>
        <path fill="#333" d="M166.011 69.93c-.334 0-.535 0-.869-.2l-.133-.067c-.067-.067-.134-.067-.201-.134 0 0-.2-.134-.066-.067l-.201-.2c-.2-.201-.334-.402-.467-.67-.134-.267-.134-.535-.201-.87l-.735.737h5.812l-.735-.736c0 .334 0 .535-.2.87l-.067.133c-.067.067-.067.134-.134.2 0 0-.133.202-.066.068l-.201.2c-.2.201-.401.335-.668.469-.267.267-.601.267-.868.267-.935 0-1.002 1.54 0 1.472 2.004 0 3.607-1.672 3.607-3.612 0-.402-.334-.736-.735-.736h-5.811c-.401 0-.735.334-.735.736 0 2.007 1.67 3.612 3.607 3.612 1.002.067 1.002-1.405.067-1.472zM142.432 67.455c.067-2.944 2.405-5.352 5.344-5.352 2.939 0 5.277 2.408 5.344 5.352 0 .937 1.536 1.004 1.469 0-.067-2.877-1.803-5.419-4.475-6.422-2.605-1.004-5.812-.201-7.615 2.007-1.069 1.27-1.603 2.81-1.603 4.415 0 1.004 1.536 1.004 1.536 0z"/>
        <path fill="#fff" d="M141.697 70.733c1.603 0 2.872-1.271 2.872-2.877h-5.744c-.067 1.539 1.269 2.877 2.872 2.877z"/>
        <path fill="#333" d="M141.696 71.47c2.004 0 3.607-1.673 3.607-3.614 0-.4-.334-.735-.734-.735h-5.812c-.401 0-.735.334-.735.736 0 1.94 1.67 3.545 3.674 3.612.936 0 .936-1.472 0-1.472-.334 0-.534 0-.868-.2l-.134-.067c-.066-.067-.133-.067-.2-.134 0 0-.2-.134-.067-.067l-.2-.2c-.201-.201-.334-.402-.468-.67-.133-.267-.133-.535-.2-.87l-.735.736h5.812l-.735-.735c0 .334 0 .535-.201.87l-.066.133c-.067.067-.067.134-.134.2 0 0-.134.202-.067.068l-.2.2c-.201.201-.401.335-.668.469-.267.134-.535.134-.869.2-1.002.067-1.002 1.54 0 1.54z"/>
        <path fill="#DF357F" d="M63.81 100.972c1.603-2.207 3.406-4.549 6.078-5.017.468-.067.935-.067 1.336-.268.535-.267.935-.736 1.336-1.204 1.069-1.204 2.405-2.208 4.008-2.409 1.603-.2 3.34.67 3.808 2.208.2.67.267 1.539.868 1.806.4.201.935 0 1.403-.133 2.738-.736 5.945 2.408 7.014 5.017H63.81z"/>
        <path fill="#333" d="M64.477 101.374c1.27-1.74 2.672-3.746 4.743-4.415 1.002-.335 2.07-.268 2.939-.937.935-.736 1.536-1.74 2.538-2.408 1.87-1.205 4.41-.937 5.077 1.405.2.87.601 1.672 1.536 1.873 1.002.2 1.938-.468 2.94-.134 2.137.602 3.874 2.743 4.675 4.683.2-.401.401-.736.668-1.137H63.81c-.935 0-1.002 1.472 0 1.472h25.784c.602 0 .869-.602.668-1.138-.868-1.94-2.404-3.813-4.341-4.817-.869-.468-1.938-.802-2.94-.668-.534.066-1.336.535-1.67 0-.267-.402-.267-1.004-.467-1.406-.935-2.073-3.607-2.81-5.611-2.073-1.136.401-2.138 1.137-2.94 2.007-.4.468-.801 1.07-1.269 1.405-.534.334-1.335.267-1.937.468-2.605.736-4.408 3.077-5.878 5.218-.601.602.735 1.338 1.27.602z"/>
        <path fill="#fff" d="M137.689 15.473h40.547c1.67 0 3.006 1.338 3.006 3.01 0 1.673-1.336 3.01-3.006 3.01h-2.873c-1.736.202-3.072 1.473-3.072 3.011 0 1.673 1.603 3.01 3.607 3.01h8.55c1.67 0 3.006 1.339 3.006 3.011 0 1.673-1.336 3.011-3.006 3.011h-35.871c-1.67 0-3.006-1.338-3.006-3.01 0-1.673 1.336-3.011 3.006-3.011h.601c2.004 0 3.607-1.338 3.607-3.01 0-1.54-1.336-2.744-3.072-3.011h-12.091c-1.67 0-3.006-1.338-3.006-3.01.067-1.673 1.403-3.011 3.073-3.011z"/>
        <path fill="#333" d="M137.688 16.209h40.547c2.271.067 3.14 3.144 1.069 4.282-1.069.602-2.672.2-3.808.267-1.803.067-3.674 1.405-3.941 3.278-.267 2.141 1.537 3.814 3.541 4.148.935.134 1.937.067 2.872.067h4.475c.869 0 2.004-.2 2.806.134 2.271.87 1.737 4.215-.668 4.348h-35.737c-1.002 0-2.004-.468-2.338-1.471-.401-1.004.067-2.141.935-2.743.735-.469 1.536-.268 2.405-.402 1.937-.2 3.807-1.74 3.74-3.813-.066-2.007-1.937-3.479-3.874-3.613-2.137-.133-4.342 0-6.546 0h-4.075c-.801 0-1.737.134-2.405-.2-2.137-1.07-1.269-4.215 1.002-4.282.936-.067 1.002-1.539 0-1.472-2.137.067-3.874 1.806-3.74 4.014.133 2.007 1.803 3.479 3.74 3.546 2.338.067 4.743 0 7.081 0h4.008c1.135 0 2.271.134 3.006 1.204.668 1.004.2 2.141-.735 2.743-.802.535-1.67.468-2.538.535-2.138.134-3.808 1.94-3.607 4.081.2 1.94 1.803 3.345 3.74 3.412h32.865c1.069 0 2.138.067 3.207 0 2.137-.134 3.74-2.074 3.473-4.214-.2-1.94-1.87-3.279-3.741-3.346-2.538-.067-5.076 0-7.615 0-1.336 0-2.805-.067-3.54-1.404-.601-1.07 0-2.208 1.002-2.744.668-.4 1.269-.4 2.071-.4 1.536 0 3.139.133 4.408-.938 1.604-1.404 1.67-3.947.134-5.485-1.202-1.205-2.739-1.07-4.342-1.07H137.622c-.869 0-.869 1.538.066 1.538z"/>
        <path fill="#fff" d="M128.069 21.494c1.661 0 3.006-1.348 3.006-3.01 0-1.664-1.345-3.011-3.006-3.011-1.66 0-3.006 1.347-3.006 3.01 0 1.663 1.346 3.01 3.006 3.01z"/>
        <path fill="#333" d="M131.81 18.484c0-1.606-1.002-3.01-2.471-3.546-1.403-.535-3.207-.067-4.142 1.138-1.002 1.204-1.202 2.943-.334 4.348.802 1.405 2.405 2.074 3.941 1.74 1.737-.335 3.006-1.94 3.006-3.68 0-.937-1.469-.937-1.469 0s-.602 1.806-1.47 2.14c-.134.068-.267.068-.401.135h-.267c-.334 0-.468 0-.735-.067-.267-.067-.334-.134-.601-.268-.2-.134-.334-.267-.534-.468.066.067 0 0 0-.067-.067-.067-.067-.134-.134-.2 0-.068-.067-.068-.067-.135 0 0-.133-.2-.067-.133-.066-.134-.066-.268-.133-.402-.067-.2-.067-.2-.067-.334 0-.268 0-.469.067-.67.067-.334.133-.468.267-.735.468-.803 1.47-1.271 2.338-1.07 1.136.2 1.87 1.137 1.87 2.207-.066 1.004 1.403 1.004 1.403.067z"/>
    </g>
</svg>
