<svg xmlns="http://www.w3.org/2000/svg" width="1200" height="214" fill="none" viewBox="0 0 1200 214">
    <g opacity=".2">
        <path fill="#DF357F" stroke="#333" stroke-miterlimit="10" stroke-width="2" d="M1069.59 208.992c-3.44 0-6.14-2.781-6.14-6.135v-.163c0-3.436 2.78-6.135 6.14-6.135h43.98c.9 0 1.56-.736 1.56-1.554 0-.9-.74-1.555-1.56-1.555h-44.88c-5.16 0-9.42 4.172-9.42 9.407 0 5.153 4.18 9.407 9.42 9.407h44.88c.9 0 1.56-.736 1.56-1.554 0-.9-.74-1.555-1.56-1.555h-43.98v-.163z"/>
        <path fill="#fff" stroke="#333" stroke-miterlimit="10" stroke-width="2" d="M1113.25 208.992h-43.91c-3.27 0-5.98-2.699-5.98-5.971v-.573c0-3.272 2.71-5.971 5.98-5.971h43.91v12.515z"/>
        <path stroke="#333" stroke-miterlimit="10" stroke-width="2" d="M1069.92 200.567h16.46M1084.66 204.575h22.03"/>
        <path fill="#F0D227" stroke="#333" stroke-miterlimit="10" stroke-width="2" d="M1115.54 177.336c3.44 0 6.14 2.781 6.14 6.135v.164c0 3.435-2.78 6.135-6.14 6.135h-43.98c-.91 0-1.56.736-1.56 1.554 0 .899.74 1.554 1.56 1.554h44.88c5.16 0 9.42-4.172 9.42-9.407 0-5.153-4.18-9.407-9.42-9.407h-44.88c-.91 0-1.56.737-1.56 1.555 0 .899.74 1.554 1.56 1.554h43.98v.163z"/>
        <path fill="#fff" stroke="#333" stroke-miterlimit="10" stroke-width="2" d="M1071.88 177.336h43.91c3.27 0 5.98 2.7 5.98 5.972v.572c0 3.272-2.71 5.971-5.98 5.971h-43.91v-12.515z"/>
        <path stroke="#333" stroke-miterlimit="10" stroke-width="2" d="M1115.21 185.843h-16.46M1100.47 181.835h-22.03"/>
        <path fill="#fff" d="M1092.77 51.941c2.71 0 4.91-2.197 4.91-4.908 0-2.71-2.2-4.907-4.91-4.907-2.72 0-4.92 2.197-4.92 4.907s2.2 4.908 4.92 4.908z"/>
        <path fill="#333" d="M1098.58 47.033c0-2.453-1.55-4.58-3.85-5.48-2.21-.818-4.91-.163-6.47 1.718-1.55 1.881-1.8 4.58-.57 6.707s3.69 3.19 6.14 2.7c2.79-.491 4.75-2.945 4.75-5.645 0-1.145-1.8-1.145-1.8 0 0 1.636-1.06 3.19-2.62 3.763-1.64.573-3.44.082-4.5-1.227-1.07-1.309-1.15-3.108-.33-4.499.82-1.39 2.54-2.208 4.09-1.881 1.89.327 3.28 1.963 3.28 3.926.08 1.064 1.88 1.064 1.88-.082z"/>
        <path fill="#fff" d="M1108 52.105h35.63c2.79 0 5-2.209 5-4.99s-2.21-4.99-5-4.99H1108c-2.78 0-4.99 2.209-4.99 4.99s2.21 4.99 4.99 4.99z"/>
        <path fill="#333" d="M1108 53.005h17.7c5.97 0 11.95.163 17.93 0 2.79-.082 5.25-1.964 5.82-4.663.57-2.781-.98-5.644-3.69-6.707-1.88-.736-4.5-.41-6.47-.41H1108.17c-2.05 0-4.02.982-5.16 2.7-1.56 2.372-1.07 5.726 1.06 7.607 1.15.982 2.54 1.473 3.93 1.473 1.15 0 1.15-1.8 0-1.8-2.86-.082-4.91-3.026-3.68-5.726.73-1.636 2.29-2.372 4.01-2.372H1143.63c2.21.082 4.1 1.636 4.18 3.926.08 2.373-1.8 4.172-4.1 4.172-5.56.164-11.22 0-16.87 0-6.14 0-12.28-.164-18.43 0h-.33c-1.22 0-1.22 1.8-.08 1.8z"/>
        <path fill="#fff" d="M1118.65.9h-59.14c-2.45 0-4.42 1.963-4.42 4.417 0 2.454 1.97 4.417 4.42 4.417h4.18c2.54.327 4.51 2.127 4.51 4.335 0 2.454-2.38 4.417-5.25 4.417h-12.53c-2.45 0-4.42 1.963-4.42 4.417 0 2.454 1.97 4.417 4.42 4.417h52.26c2.46 0 4.42-1.963 4.42-4.417 0-2.454-1.96-4.417-4.42-4.417h-.9c-2.95 0-5.24-1.963-5.24-4.417 0-2.209 1.96-4.008 4.5-4.335h17.61c2.46 0 4.43-1.963 4.43-4.417 0-2.454-1.97-4.417-4.43-4.417z"/>
        <path fill="#333" d="M1118.65 0h-58.81c-1.47 0-2.78.409-3.93 1.39-2.38 2.127-2.29 5.89.08 7.935 1.8 1.554 4.18 1.309 6.47 1.309 1.15 0 2.05.081 3.12.654 1.39.818 2.12 2.454 1.39 4.008-.99 2.045-3.2 2.209-5.16 2.209h-11.14c-2.62 0-5 1.8-5.41 4.498-.49 3.109 1.89 5.89 5 6.053h36.28c5.41 0 10.9.164 16.3 0 2.62-.081 4.92-1.963 5.33-4.662.41-3.19-2.13-5.89-5.24-5.971-1.4 0-2.71-.082-3.85-.9-1.32-.982-1.81-2.617-.99-4.008.99-1.636 2.71-1.881 4.43-1.881h16.3c2.78-.082 5.07-2.127 5.32-4.908.08-3.108-2.46-5.644-5.49-5.726-1.15 0-1.15 1.8 0 1.8 3.44.081 4.83 4.744 1.72 6.462-1.06.654-2.46.49-3.68.49h-12.37c-1.07 0-2.21-.081-3.28 0-2.7.164-5.4 2.372-5.4 5.235 0 3.272 3.19 5.235 6.22 5.317 1.23 0 2.29 0 3.28.9 1.14 1.063 1.47 2.781.73 4.172-1.14 2.208-3.68 1.88-5.81 1.88h-45.62c-1.48 0-3.04.165-4.51-.08-3.52-.573-3.85-5.563-.49-6.708 1.23-.41 2.78-.164 4.01-.164h6.47c1.4 0 2.79.082 4.18-.082 2.87-.49 5.49-2.863 5-5.97-.41-2.618-3.12-4.418-5.74-4.5-1.8 0-4.34.491-5.89-.654-2.71-1.963-1.23-6.135 2.04-6.298 4.51-.164 9.01 0 13.52 0H1118.73c1.15.081 1.15-1.8-.08-1.8z"/>
        <path fill="#fff" d="M1132.74 9.734c2.44 0 4.42-1.978 4.42-4.417 0-2.44-1.98-4.417-4.42-4.417s-4.42 1.977-4.42 4.417c0 2.44 1.98 4.417 4.42 4.417z"/>
        <path fill="#333" d="M1129.22 5.317c0-1.39.9-2.781 2.21-3.272 1.39-.49 3.03-.082 3.93 1.063.9 1.146.98 2.7.25 3.927-.74 1.227-2.22 1.881-3.61 1.636-1.55-.246-2.78-1.718-2.78-3.354 0-1.145-1.89-1.227-1.8 0 0 2.208 1.39 4.172 3.52 4.99 2.05.736 4.5.081 5.9-1.555 1.39-1.717 1.63-4.171.49-6.134-1.15-1.964-3.36-2.863-5.57-2.454-2.46.409-4.26 2.699-4.26 5.235-.17 1.063 1.72 1.063 1.72-.082z"/>
        <path fill="#DF357F" d="M1092.61 62.411H973.021v10.552h119.589V62.411z"/>
        <path fill="#333" d="M1092.52 72.063H977.77c-1.475 0-3.195-.245-4.669 0h-.164l.901.9V62.411l-.901.9h114.753c1.47 0 3.19.245 4.67 0h.16c-.32-.327-.65-.654-.9-.9v10.552c0 1.145 1.8 1.227 1.8 0V62.411c0-.49-.41-.9-.9-.9H987.599c-4.833 0-9.665-.163-14.498 0h-.164c-.491 0-.901.41-.901.9v10.552c0 .49.41.9.901.9h104.923c4.83 0 9.67.163 14.5 0h.16c1.23 0 1.23-1.8 0-1.8z"/>
        <path fill="#fff" d="M1092.61 72.963H973.021v81.715h119.589V72.963z"/>
        <path fill="#333" d="M1092.52 72.063H987.599c-4.833 0-9.665-.163-14.498 0h-.164c-.491 0-.901.41-.901.9V151.243c0 1.063-.082 2.127 0 3.19v.164c0 .49.41.899.901.899h104.923c4.83 0 9.67.164 14.5 0h.16c.49 0 .9-.409.9-.899v-8.098-19.468-23.639-20.368-6.707c0-1.064.09-2.127 0-3.19v-.164c0-1.145-1.8-1.227-1.8 0V151.243c0 .981-.16 2.208 0 3.19v.164c.33-.328.66-.655.9-.9H977.77c-1.474 0-3.194-.246-4.669 0h-.164l.901.9v-8.098-19.468-23.639-20.368-6.707c0-.982.164-2.209 0-3.19v-.164l-.901.9h104.923c4.83 0 9.67.163 14.5 0h.16c1.23 0 1.23-1.8 0-1.8z"/>
        <path fill="#fff" d="M1027.82 134.148H987.6V96.521l20.15-8.344 20.07 8.344v37.627z"/>
        <path fill="#333" d="M1027.82 133.166h-40.221l.901.9v-12.679-20.204-4.662c-.246.327-.491.572-.655.9 5.897-2.455 11.713-4.908 17.615-7.28.57-.246 1.14-.491 1.63-.655.17-.082.74-.163.82-.327-.08.163-.73-.164-.08.082l1.23.49c3.44 1.473 6.88 2.863 10.32 4.336 2.7 1.145 5.41 2.29 8.19 3.435-.25-.327-.49-.572-.65-.9v37.545c0 1.146 1.8 1.227 1.8 0v-12.678-20.204-4.662c0-.41-.33-.737-.66-.9-5.9-2.454-11.79-4.908-17.69-7.362-.74-.327-1.56-.818-2.38-.982-.65-.163-1.39.41-1.96.573-3.44 1.39-6.882 2.863-10.322 4.253-2.785 1.146-5.57 2.29-8.354 3.518-.41.163-.656.409-.656.9V134.147c0 .491.41.9.901.9H1027.82c1.22 0 1.22-1.881 0-1.881z"/>
        <path fill="#DF357F" d="M1007.75 85.314l-24.163 10.798v5.235l24.163-10.716 24.08 10.716v-5.235l-24.08-10.797z"/>
        <path fill="#333" d="M1007.26 84.578c-7.05 3.108-14.091 6.217-21.135 9.407-.983.409-2.048.9-3.031 1.309-.328.163-.491.49-.491.818v5.316c0 .737.737 1.064 1.392.818 7.044-3.108 14.088-6.216 21.135-9.406.98-.41 2.04-.9 3.03-1.309h-.9c7.04 3.108 14 6.217 21.05 9.407.98.409 2.04.899 3.03 1.308.65.246 1.39 0 1.39-.818v-5.316c0-.328-.16-.655-.49-.818-7.05-3.109-14.01-6.217-21.05-9.407-.98-.409-2.05-.9-3.03-1.309-1.07-.49-2.05 1.145-.9 1.554 7.04 3.109 14 6.217 21.05 9.407.98.409 2.04.9 3.03 1.309-.17-.246-.33-.491-.49-.818v5.317c.49-.246.9-.491 1.39-.818-7.13-3.19-14.17-6.299-21.3-9.489-.9-.409-1.8-.9-2.78-1.227-.82-.327-1.89.41-2.62.736-4.18 1.8-8.276 3.681-12.453 5.48l-10.075 4.418c.492.245.901.491 1.393.818v-5.317c-.164.245-.328.49-.492.818 7.044-3.108 14.088-6.217 21.137-9.407.98-.409 2.04-.9 3.03-1.308 1.22-.41.32-1.964-.82-1.473z"/>
        <path fill="#F0D227" d="M997.266 110.672c1.945 0 3.524-1.575 3.524-3.518 0-1.942-1.579-3.517-3.524-3.517s-3.522 1.575-3.522 3.517c0 1.943 1.577 3.518 3.522 3.518z"/>
        <path fill="#333" d="M999.968 107.154c0 .573-.164 1.063-.492 1.554-.164.246.082-.082-.082.082l-.164.164-.163.163s-.246.164-.082.082c-.082.082-.246.164-.41.245-.082 0-.082.082-.164.082-.082.082-.082.082 0 0-.082 0-.082 0-.163.082-1.147.409-2.212.082-3.031-.818.082.082 0 0 0 0-.082-.082-.082-.164-.164-.245 0-.082-.082-.082-.082-.164 0 0-.164-.245-.082-.082-.082-.163-.082-.327-.164-.409 0-.081 0-.163-.081-.163v-.082-.164c0-.327 0-.572.081-.736 0-.163.082-.327.164-.491 0-.081.082-.163.164-.409.328-.49.655-.818 1.229-1.063 0 0-.164.082 0 0 .082 0 .164-.082.245-.082.082 0 .164 0 .164-.082 0 0 .246-.081.164 0H997.674c.41.082.574.164.901.328.082 0 .082.081.164.081s.082.082.164.082c-.082-.082-.082 0 0 0l.327.327c.492.409.656 1.146.738 1.718 0 1.145 1.882 1.227 1.802 0 0-1.881-1.23-3.517-2.949-4.172-1.72-.654-3.768-.081-4.915 1.309-1.228 1.473-1.392 3.518-.409 5.153.983 1.636 2.867 2.454 4.751 2.127 2.052-.409 3.602-2.29 3.602-4.417-.08-1.145-1.882-1.145-1.882 0z"/>
        <path fill="#F0D227" d="M1008.49 110.672c1.94 0 3.52-1.575 3.52-3.518 0-1.942-1.58-3.517-3.52-3.517-1.95 0-3.52 1.575-3.52 3.517 0 1.943 1.57 3.518 3.52 3.518z"/>
        <path fill="#333" d="M1011.11 107.154c0 .573-.17 1.063-.49 1.554-.17.246.08-.082-.09.082l-.16.164-.16.163s-.25.164-.09.082c-.08.082-.24.164-.41.245-.08 0-.08.082-.16.082-.08.082-.08.082 0 0-.08 0-.08 0-.16.082-1.15.409-2.21.082-3.03-.818.08.082 0 0 0 0-.09-.082-.09-.164-.17-.245 0-.082-.08-.082-.08-.164 0 0-.16-.245-.08-.082-.08-.163-.08-.327-.16-.409 0-.081 0-.163-.09-.163v-.082-.164c0-.327 0-.572.09-.736 0-.163.08-.327.16-.491 0-.081.08-.163.16-.409.33-.49.66-.818 1.23-1.063 0 0-.16.082 0 0 .08 0 .17-.082.25-.082.08 0 .16 0 .16-.082 0 0 .25-.081.16 0H1008.81c.41.082.58.164.9.328.09 0 .09.081.17.081.08 0 .08.082.16.082-.08-.082-.08 0 0 0 .08.082.25.246.33.327.49.409.74 1.146.74 1.718 0 1.145 1.88 1.227 1.8 0 0-1.881-1.23-3.517-2.95-4.172-1.72-.654-3.77-.081-4.91 1.309-1.23 1.473-1.4 3.518-.41 5.153.98 1.636 2.86 2.454 4.75 2.127 2.04-.409 3.6-2.29 3.6-4.417 0-1.145-1.88-1.145-1.88 0z"/>
        <path fill="#F0D227" d="M1019.71 110.672c1.94 0 3.52-1.575 3.52-3.518 0-1.942-1.58-3.517-3.52-3.517-1.95 0-3.52 1.575-3.52 3.517 0 1.943 1.57 3.518 3.52 3.518z"/>
        <path fill="#333" d="M1022.33 107.154c0 .573-.17 1.063-.49 1.554-.17.246.08-.082-.09.082l-.16.164-.16.163s-.25.164-.08.082c-.09.082-.25.164-.41.245-.09 0-.09.082-.17.082-.08.082-.08.082 0 0-.08 0-.08 0-.16.082-1.15.409-2.21.082-3.03-.818.08.082 0 0 0 0-.08-.082-.08-.164-.17-.245 0-.082-.08-.082-.08-.164 0 0-.16-.245-.08-.082-.08-.163-.08-.327-.16-.409 0-.081 0-.163-.09-.163v-.082-.164c0-.327 0-.572.09-.736 0-.163.08-.327.16-.491 0-.081.08-.163.16-.409.33-.49.66-.818 1.23-1.063 0 0-.16.082 0 0 .08 0 .17-.082.25-.082.08 0 .16 0 .16-.082 0 0 .25-.081.17 0h.81c.41.082.58.164.91.328.08 0 .08.081.16.081s.08.082.16.082c-.08-.082-.08 0 0 0 .09.082.25.246.33.327.49.409.74 1.146.74 1.718 0 1.145 1.88 1.227 1.8 0 0-1.881-1.23-3.517-2.95-4.172-1.72-.654-3.77-.081-4.91 1.309-1.23 1.473-1.4 3.518-.41 5.153.98 1.636 2.86 2.454 4.75 2.127 2.05-.409 3.6-2.29 3.6-4.417-.08-1.145-1.88-1.145-1.88 0z"/>
        <path fill="#fff" d="M1015.86 116.97h-16.22v16.932h16.22V116.97z"/>
        <path fill="#333" d="M1015.78 133.002h-16.223c.328.327.653.654.903.9v-14.887-2.127c-.33.327-.657.654-.903.9h16.223c-.33-.327-.66-.655-.91-.9v17.014c0 1.145 1.81 1.227 1.81 0v-14.887-2.127c0-.491-.41-.9-.9-.9h-16.223c-.491 0-.901.409-.901.9v17.014c0 .491.41.9.901.9h16.223c1.22 0 1.22-1.8 0-1.8z"/>
        <path fill="#333" d="M1012.58 126.949c.86 0 1.56-.696 1.56-1.554 0-.858-.7-1.554-1.56-1.554-.86 0-1.56.696-1.56 1.554 0 .858.7 1.554 1.56 1.554z"/>
        <path fill="#F0D227" d="M1079.42 97.011h-43.09v5.726h43.09v-5.725zM1054.44 107.481h-18.11v5.726h18.11v-5.726zM1079.42 107.481h-22.53v5.726h22.53v-5.726zM1079.42 117.951h-43.09v5.726h43.09v-5.726zM1055.75 128.422h-19.42v5.725h19.42v-5.725z"/>
        <path fill="#fff" d="M994.561 69.282c.905 0 1.638-.732 1.638-1.636 0-.903-.733-1.636-1.638-1.636-.905 0-1.638.733-1.638 1.636 0 .904.733 1.636 1.638 1.636zM981.784 69.282c.904 0 1.638-.732 1.638-1.636 0-.903-.734-1.636-1.638-1.636-.905 0-1.638.733-1.638 1.636 0 .904.733 1.636 1.638 1.636zM988.008 69.282c.905 0 1.638-.732 1.638-1.636 0-.903-.733-1.636-1.638-1.636-.904 0-1.638.733-1.638 1.636 0 .904.734 1.636 1.638 1.636zM1070.08 138.155l-2.46-8.588c-.08-.246-.16-.491-.32-.655-.25-.163-.5-.163-.82-.081-6.97.981-14.01 2.126-20.89 3.517.98 2.454 3.52 4.172 6.14 4.826 2.62.736 5.33.572 8.03.491.66 2.372 2.13 4.499 4.01 6.053"/>
        <path fill="#333" d="M1070.98 137.91c-.82-2.863-1.55-5.726-2.46-8.589-.32-.899-.9-1.472-1.88-1.39-1.39.082-2.78.409-4.18.572-5.73.9-11.46 1.882-17.2 2.945-.65.164-.73.818-.57 1.391 2.54 5.725 9.58 5.971 14.91 5.807-.33-.245-.58-.491-.9-.654.73 2.536 2.21 4.826 4.25 6.462.91.736 2.22-.573 1.31-1.309-1.8-1.472-3.11-3.435-3.76-5.644-.08-.409-.49-.654-.9-.654-4.75.163-11.06.245-13.35-4.826-.17.49-.33.899-.58 1.39 5-.981 9.99-1.799 14.99-2.617 1.15-.164 2.38-.327 3.52-.573.66-.082 1.31-.163 1.97-.327h.41c.08.082.24.818.24.982l2.22 7.607c.57 1.063 2.29.572 1.96-.573z"/>
        <path fill="#DF357F" d="M1118 123.35c-8.19-2.045-35.06 24.539-35.06 29.365 0 2.7 2.21 5.563 4.67 8.098 2.21 2.291 5.73 2.7 8.44.9l11.46-3.517 1.15 1.717s-1.39 26.748 4.01 51.942h78.39s3.52-66.747-25.72-81.961c-29.24-15.214-47.18-5.89-47.18-5.89"/>
        <path fill="#333" d="M1118.24 122.45c-1.72-.409-3.6.164-5.16.818-2.37.982-4.58 2.291-6.63 3.763-5.16 3.599-9.91 7.771-14.34 12.188-1.96 2.045-3.93 4.09-5.73 6.216-1.31 1.554-2.62 3.19-3.6 4.99-.33.573-.58 1.145-.66 1.718-.33 1.717.57 3.517 1.39 4.989 2.3 3.763 5.74 7.444 10.49 6.462 1.14-.245 2.13-.899 3.19-1.227l3.93-1.227c2.21-.654 4.43-1.39 6.64-2.045-.33-.163-.66-.245-1.07-.409.25.409.58.818.82 1.309.08.082.41.736.25.246-.17-.491 0-.246-.08-.164-.17.327-.09.982-.09 1.309-.08 2.372-.08 4.744-.08 7.116 0 8.589.41 17.259 1.39 25.848.66 5.971 1.56 11.942 2.79 17.832.08.409.49.654.9.654H1187.86c.99 0 2.05.082 3.03 0h.17c.49 0 .9-.409.9-.9.25-4.58.16-9.161 0-13.66-.33-9.979-1.31-20.04-3.36-29.856-2.13-10.306-5.4-20.94-11.79-29.447-2.87-3.844-6.31-7.198-10.57-9.488-7.37-4.008-15.56-7.035-23.92-8.343-5.48-.9-11.14-1.064-16.62-.164-2.63.409-5.33.982-7.7 2.127-.09.081-.25.081-.33.163-1.07.573-.16 2.127.9 1.554.08-.081.25-.081.33-.163.08 0 .08-.082.16-.082.17-.082-.16.082 0 0 .17-.082.41-.164.57-.245 1.23-.491 2.46-.818 3.77-1.145 4.67-1.064 9.5-1.309 14.25-.9 7.79.654 15.4 2.944 22.53 6.135 2.95 1.308 5.9 2.699 8.52 4.662 1.8 1.391 3.44 2.945 4.91 4.744 6.72 7.853 10.16 18.077 12.45 27.975 2.3 9.734 3.36 19.795 3.85 29.774.17 3.599.25 7.116.25 10.715 0 1.718-.25 3.518-.08 5.236v.245c.32-.327.65-.655.9-.9h-75.28c-.98 0-2.13-.163-3.03 0h-.16c.33.245.57.491.9.655-3.52-16.36-4.59-33.374-4.01-49.979 0-.49.08-1.063.08-1.636-.08-.818-.82-1.635-1.31-2.29-.25-.327-.66-.572-1.07-.409-3.77 1.145-7.53 2.209-11.22 3.517-.24.082-.41.164-.65.328-.99.49-1.97.818-3.12.818-2.29-.082-3.76-1.473-5.24-3.109-1.39-1.636-3.11-3.762-3.11-6.053v-.081c0-.082.08-.164.08-.328.16-.409.08-.327.25-.654 1.96-3.763 5.16-7.035 8.11-10.061 4.09-4.254 8.51-8.262 13.26-11.697 2.22-1.636 4.59-3.272 7.13-4.417 1.56-.736 3.52-1.554 5-1.145 1.31.163 1.8-1.636.65-1.882z"/>
        <path fill="#fff" d="M1163.05 127.767c6.3 1.636 10.73 7.198 14.58 12.515 6.96 9.816 13.43 20.204 17.36 31.656-1.8 0-3.19 1.554-4.67 2.699-3.27 2.617-7.7 3.19-11.79 4.417-5.74 1.718-11.22 4.908-17.29 4.662-.41 0-.81-.081-1.14-.327-.33-.327-.41-.818-.49-1.309-.33-3.68-.5-7.361-.41-11.042 0-.409 0-.736.24-1.064.25-.327.66-.49 1.07-.572 6.55-1.963 9.83-2.863 16.22-5.399-1.07-3.599-11.96-31.492-14.91-36.399M1115.95 124.659c5.65 16.277 13.11 31.901 22.2 46.461 2.37-15.787 11.46-29.693 18.59-44.007.25-.573.57-1.227.25-1.718-.33-.736-1.4-.818-2.13-.982-1.72-.327-3.03-1.635-4.59-2.453-3.6-1.964-8.03-1.391-12.12-.655-6.96 1.227-13.93 2.372-20.97 3.599"/>
        <path fill="#333" d="M1115.05 124.904c4.42 12.679 9.91 25.03 16.46 36.809 1.89 3.354 3.77 6.626 5.82 9.897.41.573 1.55.573 1.72-.245 1.88-12.188 7.61-23.149 13.35-33.864 1.47-2.699 2.86-5.399 4.26-8.098.57-1.063 1.55-2.536 1.39-3.844-.16-1.146-1.15-1.636-2.13-1.882-1.47-.327-2.46-.818-3.69-1.636-1.22-.818-2.45-1.472-3.85-1.881-2.78-.736-5.73-.491-8.51-.082-7.62 1.145-15.24 2.618-22.86 3.926-1.14.164-.65 1.964.5 1.8 6.47-1.145 12.85-2.209 19.33-3.354 2.86-.49 5.73-1.063 8.6-.899 1.39.081 2.86.409 4.09.981 1.15.573 2.21 1.472 3.36 2.127.57.245 1.15.491 1.72.654.33.082 1.23.082 1.47.327.33.409-.24 1.227-.49 1.636-.41.737-.73 1.473-1.14 2.209-1.31 2.536-2.71 5.071-4.02 7.689-2.7 5.071-5.4 10.143-7.62 15.459-2.53 5.808-4.58 11.861-5.48 18.241l1.72-.245c-7.05-11.37-13.11-23.312-18.1-35.664-1.4-3.517-2.71-7.034-3.94-10.552-.57-1.145-2.29-.654-1.96.491z"/>
        <path fill="#333" d="M1120.95 129.812c1.8 12.106 4.42 24.539 10.89 35.091 1.06 1.8 3.6 6.708 6.39 4.826.98-.654.08-2.29-.9-1.554-1.48.982-5.41-6.789-5.98-7.934-1.64-3.19-2.95-6.462-4.02-9.898-2.21-6.871-3.52-13.905-4.58-21.022-.17-1.145-1.97-.654-1.8.491zM1134.05 173.492c-.08 12.27.98 24.621 1.56 36.89.08 1.146 1.88 1.227 1.8 0-.57-12.269-1.64-24.62-1.56-36.89.08-1.145-1.72-1.145-1.8 0z"/>
        <path fill="#F0D227" d="M1129.47 125.641c-.33 1.799-.5 3.599-.5 5.48 0 .245 0 .491.17.654.16.164.49.164.82.164 2.54-.327 4.99-.654 7.53-1.063.25 0 .49-.082.66-.246.16-.245.16-.572.08-.818-.25-1.636-.49-3.272-.82-4.908 0-.163-.08-.327-.16-.49-.17-.246-.58-.164-.9-.082-1.81.409-3.61.818-5.41 1.227"/>
        <path fill="#333" d="M1128.64 125.395c-.16 1.063-.32 2.127-.4 3.272-.09.491-.09 1.063-.09 1.554 0 .491-.08 1.063.09 1.472.08.491.49.9.98 1.064.57.163 1.14 0 1.64-.082 1.06-.164 2.21-.327 3.27-.491 1.07-.163 2.21-.327 3.28-.491.41-.081.82-.081 1.15-.327.49-.327.73-.9.65-1.472-.08-1.063-.33-2.209-.49-3.272-.08-.491-.16-1.063-.25-1.554-.08-.491-.16-1.063-.57-1.472-.49-.409-1.06-.409-1.64-.328-.57.082-1.14.246-1.8.409-1.23.246-2.46.573-3.69.818-1.14.246-.65 2.045.5 1.8 1.63-.409 3.35-.818 4.99-1.145.08 0 .49-.082.49-.082s-.24-.327-.32-.327l.08.245.24 1.227c.17.818.25 1.718.41 2.536.09.327.09.818.17 1.145.08.082-.08.245.08 0 .24-.245.08-.082 0-.082-.16 0-.41.082-.66.082-.82.082-1.72.245-2.54.327-.81.082-1.72.245-2.53.327-.41.082-.82.082-1.32.164-.16 0-.32.082-.57.082h-.24s.16.245.24.245c.08 0 0-.409 0-.491v-.736c0-.491.08-.981.08-1.39.09-.9.17-1.8.41-2.782.08-.49-.16-.981-.65-1.145-.33.164-.9.409-.99.9z"/>
        <path fill="#F0D227" d="M1129.87 133.248c-1.06 3.599-.08 21.185-.49 24.866-.08.654-.16 1.309 0 1.881.17.737.66 1.391 1.07 2.045 1.72 2.536 2.7 11.616 4.58 13.988 1.64-3.927 3.85-14.724 4.76-18.895.08-.328.16-.737.08-1.064-.09-.409-.25-.736-.49-1.063-1.56-2.781-3.85-19.959-4.51-23.149-1.47.246-2.87.491-4.34.736"/>
        <path fill="#333" d="M1128.97 133.002c-.57 2.209-.49 4.663-.49 6.953-.08 3.354 0 6.707.08 10.061 0 2.536.17 5.072 0 7.526-.08.736-.16 1.39-.08 2.126.08 1.145.74 2.045 1.31 3.027.74 1.145 1.07 2.535 1.39 3.844.5 1.882.91 3.763 1.4 5.644.41 1.473.82 3.109 1.72 4.335.49.655 1.39.573 1.72-.245 1.31-3.19 2.04-6.626 2.78-9.897l1.23-5.644c.16-.737.33-1.473.49-2.127.17-.818.49-1.718.41-2.536-.08-1.063-.82-1.963-1.15-3.026-.32-1.227-.65-2.454-.9-3.763-.65-3.19-1.14-6.462-1.72-9.652-.41-2.699-.73-5.399-1.31-8.016-.08-.491-.65-.736-1.14-.655-1.48.246-2.87.491-4.34.737-1.15.163-.66 1.963.49 1.799 1.47-.245 2.86-.491 4.34-.736-.41-.245-.74-.409-1.15-.654 1.07 5.398 1.64 10.879 2.7 16.195.41 2.291.74 4.826 1.81 6.871.16.246.32.491.41.818.08.409-.09.9-.17 1.309-.16.654-.33 1.309-.41 1.963-.41 1.8-.74 3.518-1.14 5.317-.82 3.763-1.64 7.607-3.04 11.124.58-.081 1.15-.163 1.72-.245-.81-.981-1.14-2.372-1.47-3.517-.49-1.636-.82-3.354-1.23-4.99-.33-1.472-.74-2.863-1.31-4.253-.24-.573-.57-1.145-.98-1.636-.66-1.064-.66-1.882-.57-3.109.16-2.372.08-4.744.08-7.034 0-3.19-.08-6.38-.08-9.57 0-2.536-.17-5.399.49-7.853.16-1.145-1.56-1.636-1.89-.491z"/>
        <path fill="#fff" d="M1063.04 145.763c-.49-.573-.99-1.145-1.56-1.718-.08-.082-.24-.245-.24-.409 0-.164.16-.327.24-.409 3.03-2.699 6.23-5.399 9.42-7.852.08-.082.16-.164.33-.164.16 0 .24.082.33.164.49.409.98.899 1.39 1.308.08.082.24.246.24.327 0 .164-.08.409-.24.573-2.7 3.19-5.9 5.971-9.5 8.098.16 0 .32.082.49.082"/>
        <path fill="#333" d="M1063.69 145.108c-.24-.327-.57-.654-.82-.899-.16-.164-.65-.573-.65-.737v.491c0-.082.41-.409.57-.491.16-.163.33-.327.49-.49.41-.328.82-.737 1.23-1.064.74-.654 1.56-1.309 2.38-1.963.81-.654 1.55-1.309 2.37-1.963l1.23-.982c.33-.245.74-.736 1.15-.899h-.5c-.16 0 0 0 .09.081.16.164.24.246.41.328.24.163.49.572.73.654.09.082.09.082.17.164v-.409s-.25.245-.25.327c-.16.245-.41.491-.57.654-.82.9-1.72 1.8-2.62 2.618-1.8 1.636-3.77 3.026-5.82 4.335-.65.409-.57 1.554.25 1.718.16 0 .33.081.49.081 1.15.246 1.64-1.554.49-1.799-.16 0-.33-.082-.49-.082l.24 1.718c1.97-1.145 3.85-2.536 5.57-4.008.82-.736 1.64-1.554 2.46-2.372.41-.409.74-.818 1.15-1.227.33-.409.9-.9.98-1.391.33-1.145-1.15-2.045-1.8-2.617-.41-.328-.82-.655-1.31-.491-.57.163-1.15.736-1.64 1.063-1.97 1.554-3.93 3.109-5.81 4.744-.58.491-1.07.982-1.64 1.391-.49.409-1.15.9-1.48 1.391-.32.572-.08 1.145.33 1.636.49.572.98 1.145 1.56 1.717.57.982 1.88-.327 1.06-1.227z"/>
        <path fill="#fff" d="M1152.73 174.801c-.99-.736-1.23-2.291-.49-3.354.41-.654 1.14-.981 1.8-1.309 1.55-.572 3.52-.572 4.5.737 0 0 1.39 10.388 2.71 15.541-2.79.491-5.49.982-8.28 1.472-.73.082-1.64.082-1.88-.572-.08-.327 0-.655-.25-.9-.16-.164-.41-.245-.65-.327-.49-.246-.9-.655-1.23-1.064-.41-.572-.74-1.308-.74-2.044 0-.737.33-1.473 1.07-1.8-.82-.736-1.72-1.554-1.64-2.618.08-1.39 1.64-2.208 3.03-2.617 1.15-.409 2.21-.736 3.36-1.145"/>
        <path fill="#333" d="M1153.38 174.146c-2.37-2.126 2.21-4.335 4.01-3.026.25.163.33.491.25.082v.081c0 .164.08.328.08.491.08.655.17 1.391.33 2.045.66 4.335 1.31 8.671 2.38 12.842.24-.409.4-.736.65-1.145-1.47.246-2.95.491-4.5.736-.82.164-1.64.246-2.38.409-.57.082-1.39.409-1.88.246-.33-.082-.25-.082-.33-.409-.08-.246-.08-.491-.25-.655-.32-.49-.9-.572-1.39-.899-.82-.573-1.8-2.454-.57-3.109.49-.245.65-1.063.16-1.472-.49-.491-1.31-1.063-1.39-1.881 0-.655.57-1.064 1.06-1.309 1.4-.818 3.12-1.227 4.67-1.718 1.15-.409.66-2.127-.49-1.799l-3.69 1.226c-.9.328-1.8.737-2.45 1.473-1.72 1.799-.49 3.926 1.06 5.235.08-.491.17-.982.17-1.473-1.48.818-1.81 2.536-1.15 4.009.33.818.82 1.554 1.47 2.045.25.245.74.327.99.572.24.245.16.736.41 1.063.98 1.391 3.11.655 4.5.409 2.21-.409 4.34-.736 6.55-1.145.5-.082.74-.654.66-1.145-1.07-4.09-1.64-8.261-2.29-12.351-.17-.982-.17-2.209-.5-3.19-.24-.818-1.31-1.391-2.13-1.636-1.06-.328-2.29-.164-3.27.163-1.31.491-2.62 1.309-3.03 2.7-.33 1.227.08 2.617 1.06 3.517.82 1.145 2.13-.164 1.23-.982z"/>
        <path fill="#fff" d="M1134.21 125.559c.91 2.863 1.81 5.726 2.71 8.589.08.245.16.49.41.654.24.164.57.245.9.245 1.47-.081 2.87-.736 4.26-1.39 4.67-2.372 9.5-4.744 13.02-8.589.16-.164.33-.327.33-.573 0-.245-.17-.409-.33-.572-1.31-1.391-2.62-2.863-3.93-4.254-5.08 2.782-10.73 4.499-16.46 5.072"/>
        <path fill="#333" d="M1133.31 125.804c.58 1.963 1.23 3.926 1.81 5.808.32.981.57 2.045.9 2.944.24.573.57 1.064 1.22 1.227 1.48.491 3.36-.409 4.67-.981 1.64-.736 3.28-1.636 4.84-2.454 3.03-1.636 5.98-3.436 8.51-5.889.99-.982 1.97-1.964.91-3.272-1.23-1.555-2.71-2.945-4.02-4.336-.24-.327-.74-.327-1.14-.163-4.92 2.699-10.41 4.335-15.98 4.908-1.14.081-1.14 1.963 0 1.799 5.98-.572 11.63-2.29 16.96-5.153-.41-.082-.74-.082-1.15-.164 1.07 1.145 2.13 2.291 3.2 3.436.16.163.81.654.81.818 0-.327-.4.327-.49.409-.41.491-.9.9-1.39 1.309-2.13 1.799-4.5 3.271-6.96 4.58-1.15.655-2.38 1.227-3.61 1.882-1.14.572-2.53 1.472-3.93 1.472-.9 0-.98-1.063-1.23-1.8-.24-.818-.49-1.554-.73-2.372-.49-1.554-.99-3.108-1.48-4.662-.24-.982-2.04-.491-1.72.654z"/>
        <path fill="#DF357F" d="M1160.18 99.956c.82.082 1.23-.818 1.39-1.636 3.52-16.277-28.34-25.93-32.43-29.12-.74 2.945.98 8.017 3.68 9.489-7.04-.41-14-1.145-20.97-2.29 0 0 3.77 9.652 8.03 12.024l36.78 12.924 3.52-1.39z"/>
        <path fill="#333" d="M1160.18 100.856c2.29 0 2.54-2.945 2.62-4.662.08-1.636-.24-3.272-.82-4.826-1.23-3.272-3.6-6.053-6.22-8.344-5.65-4.908-12.62-8.261-19.41-11.37-2.22-.981-4.84-1.881-6.8-3.353-.49-.328-1.23 0-1.4.572-.81 3.517.82 8.67 4.1 10.47.16-.572.33-1.145.49-1.718-6.96-.409-13.84-1.145-20.72-2.29-.57-.082-1.39.41-1.15 1.145.66 1.718 1.48 3.436 2.38 5.154 1.39 2.617 3.11 5.398 5.57 7.116.65.49 1.47.654 2.21.9 1.47.49 3.03 1.063 4.5 1.554 8.93 3.19 17.94 6.298 26.87 9.488 1.23.409 2.37.9 3.6 1.309.41.164.74.082 1.15-.082 1.06-.409 2.13-.818 3.11-1.227 1.07-.409.66-2.208-.49-1.8l-2.7.982c-.17.082-.49.164-.66.246-.41.327.33-.164.33.082l-.16-.082c-.74-.491-1.89-.655-2.71-.982-3.93-1.39-7.94-2.78-11.87-4.172l-14.01-4.907c-1.72-.573-3.44-1.227-5.16-1.8-.9-.327-1.88-.572-2.7-.981-1.89-.9-3.52-3.6-4.67-5.48-1.15-1.882-2.13-4.009-2.95-5.972l-1.15 1.145c7.05 1.145 14.09 1.963 21.22 2.29.9.082 1.23-1.308.49-1.717-2.54-1.473-3.93-5.644-3.28-8.425-.49.163-.9.327-1.39.572 1.47 1.145 3.44 1.8 5.08 2.618 2.87 1.309 5.81 2.617 8.6 4.09 5.98 3.108 12.78 6.789 16.46 12.678.9 1.39 1.56 2.945 1.89 4.58.16.819.16 1.555.16 2.373 0 .49-.08 2.7-.74 2.7-.9.326-.9 2.126.33 2.126z"/>
        <path fill="#fff" d="M1157.32 107.489c1.56-10.776-7.45-20.987-20.12-22.806-12.67-1.82-24.21 5.441-25.76 16.217-1.56 10.776 7.45 20.987 20.12 22.806 12.68 1.82 24.21-5.441 25.76-16.217z"/>
        <path fill="#333" d="M1156.49 107.236c-1.31 8.589-8.84 14.233-17.03 15.542-8.68 1.39-18.43-1.882-23.76-9.162-2.37-3.19-3.68-7.034-3.52-11.042.17-4.008 1.89-7.771 4.59-10.634 6.14-6.462 16.05-8.016 24.33-5.48 8.92 2.78 16.71 11.042 15.39 20.776-.16 1.145 1.64 1.636 1.81.491 1.23-9.243-4.59-17.505-12.7-21.513-8.68-4.253-19.82-3.762-27.6 2.209-3.44 2.617-6.06 6.298-7.05 10.47-1.06 4.253-.49 8.752 1.48 12.678 4.26 8.671 14.25 13.415 23.67 13.252 9.09-.164 18.35-5.154 21.46-13.988.33-1.063.57-2.127.74-3.19.08-1.063-1.64-1.554-1.81-.409z"/>
        <path fill="#333" d="M1118.9 100.365c-.9-.164-1.48-.9-1.31-1.8l.49-3.108c.16-.9.9-1.472 1.8-1.308.9.163 1.48.9 1.31 1.799l-.49 3.108c-.08.9-.9 1.473-1.8 1.309zM1138.06 101.02c-.9-.164-1.47-.9-1.31-1.8l.5-3.108c.16-.9.9-1.473 1.8-1.309.9.164 1.47.9 1.31 1.8l-.49 3.108c-.08.818-.9 1.39-1.81 1.309zM1126.76 95.62c-2.05 1.473-3.52 3.518-4.42 5.89-.25.573-.33 1.145-.49 1.718-.17.654-.33 1.472 0 2.045.32.654.98.9 1.72.981.73.164 1.47.164 2.21.246 1.64 0 3.28-.245 4.83-.736 1.15-.409.66-2.127-.49-1.8-1.39.491-2.87.736-4.42.655-.41 0-.74 0-1.15-.082-.16 0-.41-.082-.57-.082-.17 0-.33-.082-.41-.082-.25 0-.08-.082-.08.082 0 .245.08-.245.08-.327 0-.246.08-.573.16-.818.57-2.454 1.97-4.663 3.93-6.135.41-.327.58-.818.33-1.227-.25-.409-.9-.654-1.23-.327z"/>
        <path fill="#fff" d="M1154.94 104.292c.57-1.391 1.14-2.863 2.46-3.681 1.14-.737 2.62-.737 3.84-.082 1.15.572 2.05 1.799 2.38 3.108.16.655.16 1.309 0 1.963-.16.573-.49 1.064-.9 1.473-1.23 1.472-2.79 2.781-4.42 3.762-.5.246-.99.491-1.48.491-.57 0-1.14-.409-1.47-.9-.33-.49-.58-1.063-.74-1.636"/>
        <path fill="#333" d="M1155.84 104.537c.49-1.227.98-2.618 2.21-3.272 1.23-.654 2.79-.164 3.69.818.98 1.063 1.39 2.699.57 3.926-.9 1.309-2.13 2.372-3.36 3.272-.41.246-.74.491-1.15.736-.32.164-.65.409-1.06.409-.82-.081-1.15-1.227-1.39-1.799-.41-1.145-2.21-.655-1.8.491.41 1.063.81 2.126 1.8 2.781.98.654 2.13.49 3.11-.082 1.88-.982 3.6-2.454 4.91-4.172.74-.9 1.23-1.881 1.23-3.026 0-1.064-.41-2.209-.98-3.027-1.15-1.718-3.19-2.7-5.24-2.29-2.38.49-3.52 2.699-4.34 4.826-.17.491.16.981.65 1.145.49.082.99-.245 1.15-.736z"/>
        <path fill="#DF357F" d="M1125.37 110.263c2.37.081 4.75-.409 6.96-1.309.25-.082.57-.246.82-.082.33.164.33.573.41.9.08 1.472.08 3.026-.82 4.253-.98 1.391-3.11 1.718-4.59.9-1.47-.736-2.45-2.454-2.54-4.172"/>
        <path fill="#333" d="M1125.37 111.162c1.64.082 3.36-.163 4.91-.572.82-.246 1.56-.573 2.38-.9 0 0 .16 0 .16-.082.25-.163-.41 0-.33-.245v1.227c0 .654-.08 1.309-.24 1.963-.17.491-.49.9-.98 1.227-.91.572-2.05.572-2.95 0-1.15-.655-1.8-1.963-1.8-3.272 0-.491-.41-.9-.91-.9-.49 0-.98.409-.9.9.09 1.718.82 3.354 2.21 4.417 1.32 1.063 3.12 1.391 4.76.736 1.8-.736 2.62-2.372 2.78-4.171.08-.818.16-1.8-.08-2.618-.08-.491-.41-.9-.9-1.063-.66-.246-1.15 0-1.72.245-1.97.818-4.18 1.227-6.31 1.145-1.31.082-1.31 1.963-.08 1.963z"/>
        <path fill="#fff" d="M1115.95 123.677c-.82 1.718 2.54 29.529 4.1 32.474 1.8-.164 3.68-.082 5.48.163-.65 2.454-.9 10.961-.24 12.106.49.9 6.47 9.898 10.32 14.315 1.23.572-2.87-22.576-12.94-51.778l-6.72-7.28z"/>
        <path fill="#333" d="M1115.13 123.268c-.49 1.145-.25 2.7-.16 3.927.16 2.453.41 4.907.65 7.361.57 5.644 1.31 11.37 2.38 16.932.32 1.718.49 3.599 1.31 5.154.16.245.49.49.82.49 1.72-.163 3.52-.081 5.24.164-.25-.409-.41-.736-.66-1.145-.82 3.026-.73 6.544-.65 9.652 0 1.063 0 2.208.49 3.19.49.9 1.15 1.799 1.72 2.699 2.13 3.272 4.42 6.462 6.8 9.489.57.736 1.14 1.472 1.72 2.126.41.409.82.655 1.39.328.49-.328.57-.9.57-1.391.09-1.636-.32-3.435-.57-5.071-.49-3.027-1.15-5.972-1.8-8.916-2.13-9.407-4.75-18.65-7.62-27.811-.98-3.109-1.96-6.299-3.11-9.407-.33-.9-1.23-1.554-1.8-2.29l-5.16-5.644c-.82-.9-2.13.409-1.31 1.308 1.39 1.473 2.7 3.027 4.09 4.499.74.818 1.48 1.636 2.21 2.454.08.082.17.164.25.246.08.081.08.163 0 .081.65 1.227.98 2.863 1.39 4.172 3.03 9.08 5.73 18.323 8.03 27.648 1.39 5.48 2.78 11.124 3.44 16.768.08.573.08 1.227.16 1.799v.246c0 .245.08 0 0 0 0 0-.33.327 0-.082.17-.164.17-.245.49-.327.49-.164.74.245.58-.082-.33-.654-1.15-1.39-1.56-1.963-.65-.818-1.23-1.636-1.88-2.454-1.15-1.554-2.3-3.108-3.36-4.744-.9-1.309-1.72-2.618-2.62-3.926-.49-.818-.58-1.064-.66-2.209-.08-1.718-.08-3.517 0-5.317.08-1.554.17-3.19.49-4.662.09-.409-.16-1.064-.65-1.145-1.89-.246-3.77-.328-5.74-.164.25.164.5.327.82.491-.08-.164-.08-.082-.16-.491-.08-.327-.16-.654-.25-.982-.24-.899-.41-1.717-.57-2.617-.49-2.454-.82-4.99-1.23-7.444-.74-5.316-1.39-10.633-1.8-15.95-.08-.982-.16-1.963-.16-2.945v-.981c0-.164.08-.328 0-.164.57-1.063-.99-1.963-1.56-.9z"/>
        <path fill="#fff" d="M1130.86 125.395c-2.05 2.863-5.08 7.198-6.39 10.47-3.61-3.599-5.74-8.425-9.18-12.106 1.15-1.063 2.46-2.045 3.77-2.945.33-.163.66-.409 1.07-.409.32 0 .65.246.98.409 3.11 2.045 6.96 2.372 10.24 4.172"/>
        <path fill="#333" d="M1130.12 124.986c-2.38 3.435-4.92 6.789-6.55 10.715.49-.163 1.06-.245 1.55-.409-3.6-3.599-5.73-8.343-9.17-12.106v1.309c1.06-.981 2.29-2.045 3.6-2.781.49-.245.58-.245 1.07.082.24.163.41.245.65.409.58.327 1.23.654 1.89.9 2.54 1.063 5.24 1.554 7.7 2.863 1.06.572 1.96-1.064.9-1.555-2.79-1.472-6.06-1.963-8.85-3.353-.65-.327-1.31-.818-1.96-1.145-.74-.328-1.56-.246-2.22.245-1.47.9-2.86 1.963-4.09 3.108-.41.327-.33.982 0 1.309 3.44 3.763 5.57 8.507 9.17 12.106.49.573 1.31.245 1.56-.409 1.47-3.681 4.01-7.035 6.31-10.225.65-1.145-.91-2.045-1.56-1.063z"/>
        <path fill="#fff" d="M1164.44 168.83c-1.64.49-3.36 1.063-5 1.554-.16.082-.41.163-.57.245-.41.327-.41.9-.41 1.391 0 4.417.57 8.834 1.72 13.087.08.409.25.9.57 1.145.49.409 1.15.409 1.81.409 1.88-.081 3.76-.409 5.57-.899-.33-5.399-.99-10.798-1.89-16.114-.08-.409-.24-.818-.57-.818"/>
        <path fill="#333" d="M1164.19 167.93c-1.47.409-2.86.899-4.34 1.308-1.14.328-2.05.655-2.29 1.964-.25 1.308-.08 2.781 0 4.171.08 1.473.24 2.863.49 4.254.25 1.472.49 2.863.82 4.335.24 1.145.49 2.536 1.56 3.19 1.06.654 2.53.409 3.68.245 1.39-.163 2.79-.409 4.18-.818.41-.081.74-.49.65-.899-.24-3.272-.49-6.544-.98-9.816-.24-1.636-.41-3.19-.65-4.826-.17-1.145-.17-2.863-1.56-3.272-1.15-.327-1.64 1.472-.49 1.8-.17-.082 0 .409 0 .572.08.327.08.736.16 1.064.08.736.25 1.39.33 2.126.16 1.391.41 2.781.57 4.172.33 2.781.58 5.48.74 8.262.25-.328.49-.573.66-.9-1.07.327-2.13.572-3.28.736-.57.082-1.15.164-1.72.164-.41 0-1.07.163-1.39-.082-.33-.246-.41-1.064-.58-1.473-.16-.572-.24-1.063-.41-1.636-.24-1.063-.49-2.208-.65-3.353-.33-2.209-.49-4.417-.49-6.708 0-.409-.09-.981.24-1.227.41-.245 1.15-.327 1.64-.49 1.15-.328 2.38-.737 3.52-1.064 1.15-.409.74-2.208-.41-1.799z"/>
        <path fill="#DF357F" d="M1161.08 126.704c28.51-.818 37.76 43.843 37.84 44.416.58 6.953-10.64 16.359-31.29 17.75-.9-4.499-3.03-15.46-3.84-19.959 5.73-1.881 3.52-1.963 9-3.435-2.7-7.689-1.72-3.108-5.48-11.534"/>
        <path fill="#333" d="M1161.08 127.604c7.21-.164 13.84 2.863 19 7.77 5 4.827 8.69 10.88 11.63 17.096 2.3 4.908 4.1 9.979 5.49 15.133.33 1.145.58 2.29.82 3.435.08.409 0-.245 0 .082 0 .572 0 1.063-.16 1.636-.25 1.309-.9 2.454-1.64 3.517-2.13 2.945-5.41 5.072-8.6 6.707-4.75 2.373-9.99 3.681-15.24 4.418-1.55.245-3.19.409-4.75.49.33.246.58.491.9.655-1.31-6.626-2.53-13.333-3.85-19.959-.24.409-.4.736-.65 1.145 1.64-.572 3.19-1.145 4.67-1.963 1.39-.736 2.78-1.145 4.34-1.554.49-.082.82-.654.65-1.145-.65-1.881-1.31-3.926-2.45-5.644-1.23-1.963-2.21-3.926-3.12-6.053-.49-1.063-2.04-.164-1.55.9.9 2.045 1.88 4.089 3.11 5.971 1.07 1.636 1.64 3.517 2.29 5.317.25-.409.41-.737.66-1.146-1.56.409-3.11.9-4.51 1.636-1.47.737-2.94 1.309-4.5 1.882-.49.163-.74.654-.66 1.145 1.32 6.626 2.54 13.333 3.85 19.958.09.409.5.737.91.655 5.89-.409 11.87-1.473 17.44-3.599 3.93-1.554 7.78-3.599 10.81-6.544 2.05-2.045 3.85-4.744 4.02-7.689.08-1.063-.25-2.127-.49-3.108-1.23-4.99-2.87-9.898-4.92-14.642-2.78-6.626-6.39-13.006-11.3-18.241-5-5.398-11.55-9.325-19-9.979-.99-.082-1.97-.082-3.04-.082-1.31 0-1.31 1.8-.16 1.8z"/>
        <path fill="#fff" d="M1135.61 182.817c3.77-6.953 8.52-13.415 14-19.304.33-.327.74-.736.82-1.227.09-.409-.08-.818-.24-1.227-.82-2.127-2.3-4.008-4.18-5.481 1.72-.081 3.52-.081 5.24-.163 2.38-9.734 6.97-18.977 13.27-26.911-2.46-1.309-5.16-2.209-8.03-2.618 0 0-20.14 21.267-20.88 56.931z"/>
        <path fill="#333" d="M1136.43 183.308c2.94-5.399 6.39-10.47 10.32-15.133.98-1.145 1.96-2.29 3.03-3.435.9-.9 1.72-1.8 1.55-3.109-.41-2.617-2.7-5.071-4.67-6.707-.24.491-.4 1.063-.65 1.554 1.72-.082 3.52-.082 5.24-.163.41 0 .82-.246.9-.655 2.46-9.652 6.88-18.731 13.03-26.584.32-.409.41-1.145-.17-1.472-1.72-.9-3.6-1.718-5.49-2.209-.9-.245-2.78-.981-3.6-.245-.33.245-.57.654-.82.9-1.64 1.963-3.19 4.008-4.59 6.134-5.57 8.344-9.74 17.587-12.36 27.321-2.05 7.607-3.2 15.459-3.36 23.312 0 1.145 1.8 1.145 1.8 0 .25-11.779 2.7-23.558 7.29-34.437 2.87-6.707 6.47-13.251 10.98-19.059.73-.981 1.55-1.963 2.37-2.862-.33.081-.57.163-.9.245 2.7.409 5.32 1.227 7.78 2.536-.08-.491-.16-.982-.16-1.473-6.39 8.098-10.98 17.341-13.52 27.321.33-.246.58-.491.9-.655-1.72.082-3.52.082-5.24.164-.74 0-1.31 1.063-.65 1.554 1.06.818 1.96 1.718 2.7 2.863.65.9 1.88 2.536 1.15 3.599-.74 1.063-1.81 1.963-2.63 2.945l-2.7 3.19c-3.36 4.253-6.39 8.752-9.01 13.578-.74 1.063.9 2.045 1.48.982zM1154.2 211.773v-17.259l-1.23 1.227h24.16c-.4-.409-.81-.818-1.22-1.227v17.259c.41-.409.82-.818 1.22-1.227h-24.16c-1.55 0-1.55 2.454 0 2.454h24.16c.66 0 1.23-.573 1.23-1.227v-17.259c0-.655-.57-1.227-1.23-1.227h-24.16c-.65 0-1.23.572-1.23 1.227v17.259c0 1.636 2.46 1.636 2.46 0z"/>
        <path fill="#DF357F" d="M1111.85 152.388c-1.31 3.027-12.28 19.222-15.56 19.386-2.46.164-4.67-1.227-6.72-2.618-9.66-6.543-18.59-14.314-26.53-22.903l8.68-6.871c1.15-.981 2.54-1.963 4.01-1.636.58.164 14.01 2.945 18.51 5.89"/>
        <path fill="#333" d="M1111.03 151.979c-1.06 2.372-2.7 4.581-4.09 6.707-2.05 3.027-4.18 5.972-6.64 8.671-.9 1.063-1.8 2.045-2.94 2.945-.33.245-.82.572-.99.572-.73.246-2.37-.163-3.36-.654-2.62-1.227-4.91-3.108-7.2-4.744-2.54-1.8-4.92-3.763-7.29-5.726-5.25-4.335-10.24-9.08-14.83-14.151v1.309c2.87-2.291 5.65-4.499 8.52-6.79.98-.736 2.05-1.717 3.36-1.472.57.082 1.06.246 1.64.327 2.62.573 5.32 1.309 7.94 2.045 2.95.9 6.14 1.718 8.68 3.436.99.654 1.97-.982.9-1.554-2.45-1.555-5.32-2.454-8.02-3.272-2.79-.9-5.65-1.554-8.52-2.291-.66-.163-1.39-.327-2.05-.49-1.72-.328-3.19.409-4.5 1.39-1.48 1.145-2.87 2.29-4.34 3.436l-4.92 3.926c-.41.327-.33.981 0 1.309 4.34 4.744 8.93 9.161 13.84 13.251 2.38 2.045 4.84 3.926 7.37 5.807 2.46 1.882 5 3.845 7.79 5.317 1.72.9 4.17 1.963 6.06 1.064 1.14-.573 2.05-1.473 2.95-2.373 2.62-2.699 4.91-5.725 7.04-8.834 1.88-2.617 3.93-5.398 5.24-8.343.41-.981-1.14-1.881-1.64-.818z"/>
        <path fill="#fff" d="M1006.77 190.751c-.58-1.881-.33-3.926.82-5.562.41-.654 1.06-1.309 1.06-2.045.08-.818-.57-1.554-.9-2.29-1.15-2.618.9-5.563 3.28-7.035.49-.245.98-.572 1.06-1.063.08-.327 0-.655 0-.9-.16-1.636.66-3.19 1.72-4.417 1.15-1.145 6.06-1.145 7.13 0 1.14 1.145 1.88 2.781 1.72 4.417 0 .327-.09.654 0 .9.16.491.65.818 1.06 1.063 2.38 1.472 4.42 4.417 3.28 7.035-.33.736-.9 1.472-.9 2.29.08.818.65 1.391 1.06 2.045 1.07 1.636 1.39 3.681.82 5.562-.41 1.145-1.06 2.209-.98 3.436.16 1.472 1.64 2.863 1.14 4.253-.49 1.554-21.37 1.554-21.86 0-.41-1.472.98-2.781 1.14-4.253.41-1.227-.33-2.291-.65-3.436z"/>
        <path fill="#333" d="M1007.67 190.506c-.33-1.064-.33-2.127-.09-3.19.33-1.064.99-1.8 1.56-2.781.41-.737.57-1.555.33-2.454-.33-.982-1.07-1.8-1.07-2.863 0-2.127 1.72-3.763 3.36-4.826.66-.409 1.23-.9 1.31-1.718.08-.491-.08-.9 0-1.391 0-.654.17-1.308.49-1.881.33-.654.74-1.39 1.4-1.636.65-.245 1.47-.327 2.13-.327 1.39-.082 2.86 0 3.76 1.145.58.818 1.07 1.8.99 2.863 0 .982-.17 1.8.65 2.536.66.654 1.56 1.063 2.21 1.718.74.736 1.4 1.635 1.64 2.699.58 2.045-1.55 3.517-.9 5.562.25.818.98 1.472 1.39 2.29.49.982.74 2.127.58 3.272-.25 2.045-1.72 3.599-.99 5.726.25.818.82 1.554.99 2.372v.327c-.09.328-.09.409 0 .246l.24-.327c0 .081-.33.163-.08.081-1.64.491-3.36.573-5.08.655-2.62.163-5.24.163-7.78.082-2.21-.082-4.59-.082-6.8-.573-.16 0-.33-.082-.49-.164-.24-.081-.16-.081-.16-.081l-.17-.082s.41.327.25.409c-.16 0 .24-1.309.24-1.391.41-.981.99-1.881.91-2.944.16-1.227-.5-2.291-.82-3.354-.41-1.145-2.21-.655-1.81.491.41 1.063 1.15 2.29.82 3.435-.24 1.063-.98 1.881-1.14 2.945-.17 1.063.16 1.881 1.14 2.29 1.89.654 4.1.654 6.07.736 2.86.164 5.81.164 8.76 0 2.05-.082 4.42-.082 6.39-.736.9-.327 1.39-.818 1.47-1.799 0-.9-.41-1.718-.82-2.618-.57-1.227-.32-2.127.17-3.435.9-2.209.98-4.499-.17-6.626-.49-.982-1.55-1.718-1.14-2.863.41-1.063.98-1.881.98-3.026.08-2.127-1.31-4.254-2.87-5.563-.41-.327-.73-.572-1.14-.899-.58-.409-.66-.491-.66-1.227.08-1.145-.16-2.209-.74-3.272-.9-1.718-2.04-2.536-3.93-2.781-1.55-.246-3.27-.164-4.75.409-1.96.736-3.11 3.353-3.11 5.398 0 .246.16.736.08.982-.08.327-.41.409-.65.572-.5.328-.99.655-1.4 1.064-.9.818-1.64 1.799-2.13 2.944-.41 1.064-.65 2.127-.41 3.272.25 1.227 1.56 2.454.74 3.681-.74 1.064-1.39 2.045-1.64 3.272-.24 1.309-.24 2.618.17 3.845.24 1.145 2.04.654 1.72-.491z"/>
        <path fill="#DF357F" stroke="#333" stroke-miterlimit="10" stroke-width="2" d="M1024.7 195.986c-.73-2.29-.41-4.908.99-6.953.57-.818 1.31-1.635 1.39-2.617.08-1.063-.66-1.963-1.07-2.863-1.39-3.272 1.15-6.953 4.1-8.752.57-.327 1.23-.736 1.39-1.391.08-.409 0-.736 0-1.145-.24-2.045.74-4.008 2.21-5.48 1.4-1.473 2.71-2.454 4.43-3.518 1.72.982 3.03 2.045 4.42 3.518 1.39 1.472 2.38 3.435 2.21 5.48 0 .409-.08.736 0 1.145.17.655.82.982 1.39 1.391 3.03 1.881 5.49 5.562 4.1 8.752-.41.982-1.15 1.881-1.07 2.863.09.982.82 1.799 1.4 2.617 1.39 1.964 1.72 4.663.98 6.953-.49 1.391-1.31 2.781-1.23 4.254.17 1.881 1.97 3.517 1.48 5.316-.58 1.882-26.62 1.882-27.2 0-.57-1.799 1.23-3.435 1.48-5.316 0-1.554-.9-2.863-1.4-4.254z"/>
        <path fill="#333" d="M1031.01 194.841c2.46 1.063 4.59 2.618 6.39 4.499-.08-.246-.16-.409-.25-.655v12.843c0 1.145 1.81 1.227 1.81 0v-6.462-4.499c0-.655.08-1.473 0-2.127-.09-.654-.82-1.145-1.31-1.554-.58-.491-1.15-.982-1.72-1.472-1.23-.9-2.54-1.718-4.02-2.373-.98-.245-1.96 1.309-.9 1.8z"/>
        <path fill="#333" d="M1038.96 199.095c.49-3.354.57-6.708.32-10.143 0-.491-.41-.9-.9-.9-.49 0-.98.409-.9.9.25 3.19.17 6.462-.33 9.652-.08.491.09.981.66 1.145.41.082 1.06-.164 1.15-.654zM1020.04 206.374c-.25-8.506-.33-17.013-.58-25.52 0-1.145-1.88-1.227-1.8 0 .25 8.507.33 17.014.57 25.52 0 1.227 1.89 1.227 1.81 0z"/>
        <path fill="#333" d="M1019.05 188.297c-.98-.572-1.88-1.227-2.86-1.717-1.07-.573-2.13-.9-3.28-1.227-.49-.164-.98.163-1.15.654-.08.491.17.982.66 1.145.65.164 1.23.327 1.88.573.08 0 .17.082.17.082.24.081-.17-.082 0 0 .08.081.16.081.24.163.17.082.41.164.57.327.99.573 1.89 1.145 2.87 1.718.41.245.98.082 1.23-.327.25-.573.08-1.145-.33-1.391z"/>
        <path fill="#F0D227" stroke="#333" stroke-miterlimit="10" stroke-width="2" d="M142.54 166.701h-25.667c-1.298 0-2.396-1.101-2.396-2.401V47.735c0-1.301 1.098-2.402 2.396-2.402h25.667c1.298 0 2.397 1.1 2.397 2.402V164.4c0 1.2-.999 2.301-2.397 2.301z"/>
        <path fill="#fff" stroke="#333" stroke-miterlimit="10" stroke-width="2" d="M145.042 163.005h26.166V48.441h-26.166v114.564z"/>
        <path fill="#DF357F" stroke="#333" stroke-miterlimit="10" stroke-width="2" d="M147.733 166.701c1.498 0 2.697-1.201 2.697-2.702V48.035c0-1.501-1.199-2.702-2.697-2.702s-2.696 1.2-2.696 2.702v115.964c-.1 1.501 1.198 2.702 2.696 2.702zM173.899 166.701c1.498 0 2.697-1.201 2.697-2.702V48.035c0-1.501-1.199-2.702-2.697-2.702s-2.696 1.2-2.696 2.702v115.964c0 1.501 1.198 2.702 2.696 2.702z"/>
        <path fill="#fff" d="M140.143 53.238H119.27v3.502h20.873v-3.502zM140.143 60.242H119.27v3.502h20.873v-3.502zM140.143 70.148H119.27v25.814h20.873V70.148z"/>
        <path stroke="#333" stroke-miterlimit="10" stroke-width="2" d="M155.423 53.238v81.746M161.016 65.645v30.217M166.509 55.84v60.033"/>
        <path fill="#333" d="M1.124 161.599c1.398 0 1.498-2.201 0-2.201-1.499-.1-1.499 2.201 0 2.201z"/>
        <path fill="#fff" d="M303.831 212.026c-56.727-48.927-102.268-41.723-124.639-45.525 0 0-166.084-5.203-178.068-6.003"/>
        <path fill="#333" d="M304.63 211.227c-14.981-12.908-31.46-23.914-49.636-31.618-13.183-5.603-27.065-9.205-41.147-11.006-9.987-1.301-20.173-1.501-30.16-2.602-1.798-.2-3.596-.6-5.294-.6-1.697-.1-3.395-.1-5.093-.2-7.091-.2-14.182-.4-21.272-.7-10.487-.301-20.873-.701-31.36-1.001-12.084-.4-24.068-.8-36.153-1.201l-35.354-1.2c-9.687-.301-19.375-.701-28.962-1.001-5.693-.2-11.485-.4-17.178-.7-.6 0-1.198-.1-1.798-.1-1.398-.1-1.398 2.201 0 2.201 4.495.3 8.889.4 13.383.6l26.466.901c11.285.4 22.67.8 33.956 1.1l36.253 1.201c10.985.4 22.071.7 33.057 1.101 8.089.3 16.279.5 24.368.8 3.496.1 6.991.1 10.486.3 0 0 .5.1.899.1.999.1 1.898.3 2.897.4 2.097.201 4.194.401 6.191.501 4.994.4 9.988.6 14.981 1.1 12.883 1.101 25.767 3.402 38.051 7.404 17.177 5.604 33.256 14.409 47.838 25.114 4.494 3.302 8.888 6.804 13.083 10.506.998 1.101 2.596-.5 1.498-1.4z"/>
        <path fill="#fff" d="M114.477 45.233H27.589v112.863h86.888V45.233z"/>
        <path fill="#333" d="M27.59 159.298H103.59c3.495 0 7.09.3 10.586 0h.2c.599 0 1.098-.501 1.098-1.101v-11.206-27.015-32.618-28.216-9.305c0-1.501.1-3.002 0-4.403v-.2c0-.6-.499-1.1-1.098-1.1H38.375c-3.495 0-7.09-.3-10.586 0h-.2c-.599 0-1.098.5-1.098 1.1V153.594c0 1.501-.1 3.002 0 4.403v.2c0 1.401 2.197 1.501 2.197 0v-11.206-27.015-32.618-28.216-9.305c0-1.401.2-3.002 0-4.403v-.2c-.4.4-.7.8-1.099 1.2h83.192c1.099 0 2.397.2 3.396 0h.2l-1.099-1.1V153.694c0 1.401-.2 3.002 0 4.403v.2l1.099-1.101H38.375c-3.495 0-7.09-.3-10.586 0h-.2c-1.498-.2-1.498 2.102 0 2.102z"/>
        <path fill="#DF357F" d="M114.477 45.233H27.589v6.404h86.888v-6.404z"/>
        <path fill="#333" d="M27.59 52.838H103.59c3.495 0 7.091.3 10.586 0h.2c.599 0 1.098-.5 1.098-1.1v-6.404c0-.6-.499-1.1-1.098-1.1H38.375c-3.495 0-7.09-.3-10.586 0h-.2c-.599 0-1.098.5-1.098 1.1v6.404c0 1.4 2.197 1.5 2.197 0v-6.404c-.4.3-.7.7-1.099 1.1h83.192c1.099 0 2.397.2 3.396 0h.2l-1.099-1.1v6.404l1.099-1.1H38.375c-3.495 0-7.09-.301-10.586 0h-.2c-1.498-.101-1.498 2.2 0 2.2z"/>
        <path fill="#fff" d="M3.121 150.492c-.899-2.602-.4-5.603 1.099-7.905.599-.9 1.498-1.801 1.498-2.901.1-1.201-.8-2.201-1.199-3.302-1.598-3.702 1.298-7.904 4.694-10.006.6-.4 1.398-.8 1.598-1.601.1-.4 0-.9 0-1.3-.2-2.302.899-4.603 2.497-6.204 1.598-1.701 8.589-1.701 10.186 0 1.599 1.701 2.697 3.902 2.497 6.204 0 .4-.1.9 0 1.3.2.701.9 1.201 1.598 1.601 3.396 2.102 6.292 6.304 4.694 10.006-.5 1.101-1.298 2.101-1.198 3.302.1 1.1.898 2.001 1.498 2.901 1.598 2.302 1.997 5.303 1.098 7.905-.499 1.601-1.498 3.102-1.398 4.802.2 2.102 2.297 4.003 1.698 6.104-.6 2.201-30.36 2.201-30.96 0-.6-2.101 1.398-4.002 1.698-6.104 0-1.7-.999-3.201-1.598-4.802z"/>
        <path fill="#333" d="M4.22 150.192c-.4-1.5-.5-3.001-.2-4.502.4-1.601 1.498-2.702 2.297-4.102.6-1.101.799-2.202.4-3.402-.5-1.501-1.499-2.602-1.499-4.303.1-2.801 2.297-5.203 4.594-6.703.999-.701 1.898-1.301 2.098-2.502.1-.7-.1-1.401-.1-2.101 0-1.001.3-1.901.799-2.702.499-.9 1.098-1.901 1.997-2.301.899-.4 2.097-.5 3.096-.5 1.598-.1 3.995-.1 5.093 1.201 1 1.2 1.798 2.701 1.898 4.302 0 1.401-.3 2.601.799 3.702.899.901 2.197 1.501 3.096 2.401 1.098 1.101 1.997 2.302 2.497 3.803.4 1.2.3 2.401-.2 3.602-.6 1.4-1.498 2.601-1.099 4.202.3 1.301 1.299 2.201 1.898 3.302.799 1.4 1.198 2.901 1.098 4.502-.2 3.002-2.496 5.403-1.498 8.505.4 1.201 1.399 2.401 1.498 3.702v.3c-.1.4-.1.5 0 .2-.399 0 .3-.2.1-.1.5-.2-.4.1 0 0-2.297.701-4.694.801-7.09.901-3.696.2-7.39.2-11.086.1-3.296-.1-6.691-.1-9.887-.801-.2 0-.4-.1-.7-.2-.299-.1-.399-.1-.299-.1-.2 0-.2-.1-.1-.1.3.2.1.701.1 0 .1-.5.1-.9.3-1.401.499-1.4 1.398-2.601 1.498-4.002.1-1.601-.8-3.202-1.398-4.903-.5-1.4-2.697-.8-2.198.601.5 1.601 1.598 3.201 1.199 4.902-.4 1.501-1.398 2.802-1.598 4.303-.2 1.501.3 2.501 1.698 3.002 2.696.9 5.892.9 8.688 1 4.095.2 8.09.2 12.185 0 2.896-.1 6.092-.1 8.888-1 1.199-.401 1.898-1.001 1.998-2.402 0-1.401-.7-2.701-1.299-3.902-.899-2.001-.2-3.402.5-5.203 1.098-2.902.998-6.203-.5-8.905-.799-1.501-2.297-2.501-1.398-4.302.7-1.401 1.398-2.702 1.298-4.403-.1-2.901-1.797-5.503-3.994-7.304-.5-.5-1.1-.9-1.698-1.301-.9-.6-.999-.8-.999-1.901.1-1.701-.3-3.401-1.198-4.802-1.299-2.302-2.897-3.302-5.493-3.702-2.098-.3-4.494-.2-6.492.6-2.896 1.201-4.394 5.003-4.194 7.904 0 .501.2.901-.1 1.301-.2.3-.8.6-1.099.801-.699.5-1.398 1-1.997 1.6-1.099 1.101-2.098 2.402-2.697 3.903-.599 1.501-.899 3.101-.5 4.602.2.901.6 1.601 1 2.402.499 1.1.699 1.701 0 2.801-1 1.601-1.998 2.902-2.397 4.703-.4 1.801-.3 3.502.2 5.303.499 1.4 2.596.8 2.197-.601z"/>
        <path fill="#DF357F" d="M29.487 157.896c-1.099-3.302-.5-7.004 1.398-9.905.799-1.201 1.797-2.302 1.897-3.702.1-1.501-.998-2.802-1.598-4.103-1.997-4.602 1.598-9.805 5.793-12.507.799-.5 1.698-1 1.897-2.001.1-.5 0-1.1 0-1.601-.3-2.901 1.099-5.703 3.096-7.804 1.998-2.101 3.795-3.502 6.292-5.003 2.497 1.401 4.295 2.902 6.292 5.003 1.997 2.101 3.396 4.903 3.096 7.804-.1.501-.2 1.101 0 1.601.2.901 1.099 1.501 1.898 2.001 4.294 2.702 7.79 7.905 5.792 12.507-.6 1.401-1.598 2.602-1.598 4.103.1 1.4 1.099 2.501 1.898 3.702 1.897 2.801 2.496 6.603 1.398 9.905-.7 2.001-1.898 3.902-1.698 6.004.3 2.701 2.796 5.002 2.097 7.604-.799 2.701-37.75 2.701-38.55 0-.799-2.602 1.798-4.903 2.098-7.604.4-2.102-.8-4.003-1.498-6.004z"/>
        <path fill="#333" d="M30.585 157.597c-.5-1.801-.7-3.602-.2-5.503.4-1.801 1.299-3.202 2.297-4.603.999-1.401 1.598-2.902 1.099-4.603-.5-1.701-1.698-3.101-1.898-4.902-.3-3.302 2.098-6.404 4.494-8.405 1.199-1.001 2.897-1.601 3.596-3.102.3-.7.3-1.401.2-2.201-.1-1.001-.1-2.001.2-2.902 1.098-4.102 5.093-7.003 8.588-9.105h-1.098c2.496 1.401 4.793 3.202 6.69 5.403.9 1.101 1.699 2.402 1.998 3.802.4 1.501-.2 3.002.2 4.503.3 1.101 1.199 1.801 2.197 2.401 1.199.801 2.297 1.601 3.296 2.602 1.598 1.801 2.996 4.202 2.896 6.704-.2 2.701-2.696 4.702-1.897 7.604.3 1.2 1.198 2.201 1.897 3.202.8 1.2 1.398 2.601 1.698 4.102.2 1.401.2 2.801-.1 4.102-.4 1.501-1.099 2.902-1.598 4.303-.799 2.601 0 4.602 1.099 7.003.2.501.5 1.101.599 1.701.1.401.1.701.1 1.001 0 .8-.2.2 0 .1 0 0 .1-.2.2-.2 0 0-.3.2-.4.2.3-.1-.2 0-.2.1-.2.1-.3.1-.499.1-.5.1-.899.2-1.398.3-2.597.4-5.393.601-7.99.701-6.691.3-13.383.3-19.974-.301-1.298-.1-2.696-.2-3.995-.5-.5-.1-.899-.2-1.398-.3-.2-.1-.4-.1-.6-.2-.299-.1.1 0-.199-.1-.3-.1.1 0-.1-.1.9.5 0 .1.1.1.1.3.1.3 0-.1v-.701c.1-1.3.999-2.501 1.498-3.702.6-1.3.899-2.701.7-4.102-.7-1.301-1.599-2.801-2.098-4.402-.5-1.401-2.597-.801-2.197.6.5 1.501 1.298 2.902 1.598 4.402.3 1.601-.5 3.002-1.099 4.503-.699 1.501-1.797 4.002-.4 5.503 1.1 1.201 3.696 1.301 5.194 1.501 6.791.9 13.882.8 20.673.6 3.196-.1 6.392-.3 9.588-.7 1.398-.2 3.895-.3 4.794-1.701 1.098-1.901-.4-4.503-1.1-6.204-.698-1.5-.898-2.701-.399-4.302.5-1.501 1.299-3.002 1.598-4.503.6-2.801.3-5.803-.998-8.404-.6-1.201-1.498-2.101-2.098-3.302-.998-1.801.3-3.102 1-4.803 1.197-2.701.698-5.703-.7-8.304-.7-1.301-1.598-2.502-2.697-3.502-.599-.601-1.198-1.101-1.797-1.501-.6-.5-1.498-.801-1.998-1.401-.699-.7-.4-1.501-.4-2.401 0-.801 0-1.601-.199-2.302-.4-1.701-1.198-3.301-2.297-4.702-1.997-2.602-4.694-4.703-7.49-6.304-.3-.2-.8-.2-1.099 0-3.195 1.901-6.391 4.303-8.389 7.504-.998 1.601-1.598 3.502-1.598 5.403 0 1.001.4 2.002-.4 2.802-.598.6-1.497 1.001-2.196 1.501-2.697 2.101-5.094 5.103-5.593 8.505-.2 1.601-.1 3.201.6 4.602.399.901.998 1.701 1.297 2.702.3 1.1-.2 2.001-.898 2.901-2.497 3.502-3.596 7.505-2.297 11.807.2 1.401 2.396.9 1.997-.5z"/>
        <path fill="#333" d="M38.575 156.096c3.495 1.5 6.491 3.702 9.088 6.503-.1-.3-.2-.5-.3-.8v18.31c0 1.401 2.197 1.501 2.197 0v-9.205-6.304c0-.9.2-2.001 0-3.001-.2-.901-1.098-1.501-1.797-2.101-.8-.701-1.598-1.401-2.397-2.002-1.798-1.3-3.695-2.401-5.693-3.301-1.298-.601-2.497 1.3-1.098 1.901z"/>
        <path fill="#333" d="M49.46 162.299c.7-4.802.8-9.605.5-14.408-.1-1.4-2.297-1.4-2.197 0 .3 4.603.2 9.206-.4 13.808-.1.6.1 1.201.8 1.401.399.1 1.198-.2 1.298-.801zM21.797 172.705c-.4-12.107-.4-24.213-.8-36.32 0-1.401-2.296-1.501-2.197 0 .4 12.107.4 24.213.8 36.32 0 1.401 2.296 1.501 2.197 0z"/>
        <path fill="#333" d="M20.499 147.091c-4.195-2.402-8.69-4.203-13.283-5.503-1.398-.401-1.998 1.801-.6 2.201 4.495 1.301 8.69 3.002 12.784 5.303 1.199.6 2.397-1.301 1.099-2.001z"/>
        <path fill="#333" d="M13.008 143.489c.6-2.501 1.199-4.903 1.898-7.404.1-.601-.2-1.201-.8-1.401-.599-.1-1.198.2-1.397.8-.6 2.502-1.199 4.903-1.898 7.405-.1.6.2 1.2.799 1.4.6.1 1.298-.2 1.398-.8z"/>
        <path fill="#DF357F" d="M185.185 162.599c-1.099-3.302-.5-7.004 1.398-9.906.799-1.2 1.798-2.301 1.898-3.702.099-1.501-.999-2.801-1.598-4.102-1.998-4.603 1.598-9.805 5.792-12.507.799-.5 1.698-1.001 1.898-2.001.099-.5 0-1.101 0-1.601-.3-2.902 1.098-5.703 3.096-7.804 1.997-2.101 3.795-3.502 6.291-5.003 2.497 1.401 4.295 2.902 6.292 5.003 1.998 2.101 3.396 4.902 3.096 7.804-.1.5-.199 1.101 0 1.601.2.9 1.099 1.501 1.898 2.001 4.294 2.702 7.79 7.904 5.792 12.507-.599 1.401-1.598 2.601-1.598 4.102.1 1.401 1.099 2.502 1.898 3.702 1.897 2.802 2.497 6.604 1.398 9.906-.699 2.001-1.897 3.902-1.698 6.003.3 2.702 2.797 5.003 2.098 7.604-.799 2.702-37.751 2.702-38.55 0-.799-2.601 1.797-4.902 2.097-7.604.399-2.001-.799-4.002-1.498-6.003z"/>
        <path fill="#333" d="M186.283 162.299c-.499-1.801-.699-3.602-.2-5.503.4-1.801 1.299-3.202 2.298-4.602.998-1.401 1.597-2.902 1.098-4.603-.499-1.701-1.698-3.102-1.897-4.903-.3-3.302 2.097-6.403 4.494-8.404 1.198-1.001 2.896-1.601 3.595-3.102.3-.7.3-1.401.2-2.201-.1-1.001-.1-2.001.2-2.902 1.098-4.102 5.093-7.004 8.588-9.105h-1.098c2.497 1.401 4.794 3.202 6.691 5.403.899 1.101 1.698 2.401 1.998 3.802.399 1.501-.2 3.002.199 4.503.3 1.1 1.199 1.801 2.197 2.401 1.199.8 2.297 1.601 3.296 2.601 1.598 1.801 2.996 4.203 2.896 6.704-.199 2.702-2.696 4.703-1.897 7.604.299 1.201 1.198 2.202 1.897 3.202.799 1.201 1.399 2.602 1.698 4.102.2 1.401.2 2.802-.1 4.103-.399 1.501-1.098 2.901-1.598 4.302-.799 2.602 0 4.603 1.099 7.004.2.5.499 1.101.599 1.701.1.4.1.7.1 1.001 0 .8-.2.2 0 .1 0 0 .1-.2.2-.2 0 0-.3.2-.4.2.3-.1-.199 0-.199.1-.2.1-.3.1-.5.1-.499.1-.899.2-1.398.3-2.597.4-5.393.6-7.99.7-6.691.3-13.382.3-19.974-.3-1.298-.1-2.696-.2-3.994-.5-.5-.1-.899-.2-1.399-.3-.199-.1-.399-.1-.599-.2-.299-.1.1 0-.2-.1-.299-.101.1 0-.1-.101.899.501 0 .101.1.101.1.3.1.3 0-.101v-.7c.1-1.301.999-2.501 1.498-3.702.6-1.301.899-2.702.7-4.102-.7-1.301-1.499-2.802-2.098-4.403-.499-1.401-2.596-.8-2.197.601.499 1.5 1.298 2.901 1.598 4.402.3 1.601-.499 3.002-1.099 4.503-.699 1.5-1.797 4.002-.399 5.503 1.099 1.2 3.695 1.3 5.193 1.5 6.791.901 13.882.801 20.673.601 3.196-.1 6.392-.3 9.588-.701 1.398-.2 3.895-.3 4.794-1.701 1.098-1.901-.4-4.502-1.099-6.203-.699-1.501-.899-2.701-.399-4.302.499-1.501 1.298-3.002 1.598-4.503.599-2.801.299-5.803-.999-8.405-.599-1.2-1.498-2.101-2.097-3.301-.999-1.801.299-3.102.998-4.803 1.199-2.702.699-5.703-.699-8.305-.699-1.3-1.598-2.501-2.696-3.502-.6-.6-1.199-1.1-1.798-1.501-.599-.5-1.498-.8-1.997-1.4-.699-.701-.4-1.501-.4-2.402 0-.8 0-1.601-.2-2.301-.399-1.701-1.198-3.302-2.297-4.703-1.997-2.601-4.693-4.702-7.49-6.303-.299-.2-.799-.2-1.098 0-3.196 1.901-6.392 4.302-8.39 7.504-.998 1.601-1.597 3.502-1.597 5.403 0 1.001.399 2.001-.4 2.802-.599.6-1.498 1-2.197 1.501-2.697 2.101-5.094 5.102-5.593 8.504-.2 1.601-.1 3.202.599 4.603.4.9.999 1.701 1.299 2.701.299 1.101-.2 2.001-.899 2.902-2.497 3.502-3.595 7.504-2.297 11.807.299 1.5 2.497.9 1.997-.501z"/>
        <path fill="#333" d="M194.273 160.898c3.495 1.501 6.492 3.702 9.088 6.504-.1-.3-.2-.5-.299-.8v18.31c0 1.401 2.197 1.501 2.197 0v-9.205-6.304c0-.9.2-2.001 0-3.002-.2-.9-1.099-1.5-1.798-2.101-.799-.7-1.598-1.4-2.397-2.001-1.797-1.301-3.695-2.401-5.692-3.302-1.299-.6-2.397 1.301-1.099 1.901z"/>
        <path fill="#333" d="M205.158 167.002c.7-4.803.799-9.605.5-14.408-.1-1.401-2.297-1.401-2.197 0 .299 4.603.199 9.205-.4 13.808-.1.6.1 1.2.799 1.401.5.2 1.199-.201 1.298-.801z"/>
        <path fill="#fff" d="M73.83 124.077l36.053-16.109 36.153 16.109v4.303l.1.1v58.332H73.83v-62.735z"/>
        <path fill="#333" d="M74.428 125.078c10.587-4.702 21.073-9.405 31.659-14.107 1.498-.701 2.897-1.301 4.395-2.002h-1.099c10.586 4.703 21.173 9.406 31.659 14.108 1.498.701 2.896 1.301 4.394 2.001-.199-.3-.399-.6-.599-1v4.302c0 .401.2.801.599 1.001h.1c-.2-.3-.399-.6-.599-1.001v58.333l1.099-1.101H73.729l1.099 1.101v-21.212-33.819-7.804c0-1.401-2.197-1.501-2.197 0v62.835c0 .6.5 1.1 1.098 1.1h72.307c.599 0 1.098-.5 1.098-1.1v-19.711-31.418-7.204c0-.4-.2-.8-.599-1h-.1c.2.3.4.6.599 1v-4.302c0-.4-.199-.801-.599-1.001-10.686-4.702-21.372-9.505-31.958-14.208-1.399-.6-2.697-1.3-4.095-1.801-1.099-.4-2.697.701-3.795 1.101-6.192 2.802-12.384 5.503-18.576 8.305-4.994 2.201-9.887 4.402-14.88 6.603-1.2.601 0 2.602 1.297 2.001z"/>
        <path fill="#fff" d="M118.272 186.812h72.206V128.48l-36.153-16.109-36.053 16.109v58.332z"/>
        <path fill="#333" d="M118.272 187.914h72.306c.599 0 1.098-.501 1.098-1.101v-19.711-31.418-7.204c0-.4-.199-.8-.599-1-10.686-4.803-21.372-9.505-32.058-14.308-1.398-.6-2.697-1.301-4.095-1.801-1.098-.4-2.696.7-3.795 1.101-6.192 2.801-12.384 5.503-18.576 8.304-4.993 2.201-9.887 4.403-14.881 6.604-.399.2-.599.6-.599 1v58.333c0 1.401 2.197 1.501 2.197 0v-19.711-31.418-7.204c-.199.301-.399.601-.599 1.001 10.586-4.703 21.073-9.405 31.659-14.108 1.498-.7 2.896-1.301 4.394-2.001h-1.098l31.759 14.108c1.498.7 2.996 1.301 4.394 2.001-.2-.3-.4-.6-.599-1.001v58.333l1.098-1.101h-72.306c-1.198.1-1.198 2.302.3 2.302z"/>
        <path fill="#DF357F" d="M154.324 107.969l36.054 16.108v9.406l-36.054-16.009-35.953 16.009v-9.406l35.953-16.108z"/>
        <path fill="#333" d="M153.726 108.97c10.586 4.702 21.172 9.405 31.659 14.108 1.498.7 2.896 1.3 4.394 2.001-.2-.301-.4-.601-.599-1.001v9.405c.599-.3 1.098-.6 1.697-1-10.586-4.703-21.272-9.406-31.858-14.208-1.398-.601-2.797-1.401-4.195-1.901-1.098-.4-2.696.7-3.795 1.1-6.192 2.702-12.284 5.503-18.476 8.205-4.993 2.201-9.987 4.402-14.881 6.704.6.3 1.099.6 1.698 1v-9.405c-.199.3-.399.6-.599 1.001 10.486-4.703 20.973-9.406 31.559-14.108 1.498-.701 2.996-1.301 4.394-2.001 1.299-.601.2-2.502-1.098-1.901-10.487 4.702-20.973 9.405-31.559 14.107-1.498.701-2.996 1.301-4.395 2.002-.399.2-.599.6-.599 1v9.405c0 .901.899 1.301 1.698 1.001 10.486-4.703 20.973-9.405 31.559-14.108 1.498-.7 2.996-1.301 4.394-2.001h-1.098c10.586 4.703 21.172 9.405 31.659 14.108 1.498.7 2.896 1.3 4.394 2.001.799.3 1.698 0 1.698-1.001v-9.405c0-.4-.2-.8-.599-1-10.587-4.703-21.173-9.406-31.659-14.108-1.498-.701-2.897-1.301-4.395-2.001-1.198-.501-2.297 1.4-.998 2.001z"/>
        <path fill="#DF357F" d="M166.709 161.298h-24.668v25.514h24.668v-25.514z"/>
        <path fill="#333" d="M142.041 187.913h24.668c.599 0 1.098-.5 1.098-1.1V164.5v-3.201c0-.601-.499-1.101-1.098-1.101h-24.668c-.6 0-1.099.5-1.099 1.101V186.813c0 1.401 2.197 1.501 2.197 0V164.5v-3.201l-1.098 1.1h24.668l-1.099-1.1V186.813l1.099-1.101h-24.668c-1.499 0-1.499 2.201 0 2.201z"/>
        <path fill="#DF357F" d="M176.696 141.887h-7.69v7.705h7.69v-7.705z"/>
        <path fill="#333" d="M169.006 150.693H176.696c.599 0 1.098-.5 1.098-1.101v-6.703-1.001c0-.6-.499-1.101-1.098-1.101h-7.69c-.599 0-1.099.501-1.099 1.101v7.704c0 .601.5 1.101 1.099 1.101s1.098-.5 1.098-1.101v-6.703-1.001l-1.098 1.101H176.696l-1.099-1.101v7.704l1.099-1.1h-7.69c-.599 0-1.099.5-1.099 1.1 0 .601.5 1.101 1.099 1.101z"/>
        <path fill="#DF357F" d="M158.22 141.887h-7.69v7.705h7.69v-7.705z"/>
        <path fill="#333" d="M150.53 150.693H158.22c.599 0 1.098-.5 1.098-1.101v-6.703-1.001c0-.6-.499-1.101-1.098-1.101h-7.69c-.6 0-1.099.501-1.099 1.101v7.704c0 .601.499 1.101 1.099 1.101.599 0 1.098-.5 1.098-1.101v-6.703-1.001l-1.098 1.101H158.22l-1.099-1.101v7.704l1.099-1.1h-7.69c-.6 0-1.099.5-1.099 1.1 0 .601.499 1.101 1.099 1.101z"/>
        <path fill="#DF357F" d="M139.744 141.887h-7.69v7.705h7.69v-7.705z"/>
        <path fill="#333" d="M132.054 150.693H139.744c.599 0 1.098-.5 1.098-1.101v-6.703-1.001c0-.6-.499-1.101-1.098-1.101h-7.69c-.6 0-1.099.501-1.099 1.101v7.704c-.1.601.499 1.101 1.099 1.101.599 0 1.098-.5 1.098-1.101v-6.703-1.001l-1.098 1.101H139.744l-1.099-1.101v7.704l1.099-1.1h-7.69c-.6 0-1.099.5-1.099 1.1-.1.601.4 1.101 1.099 1.101z"/>
        <path fill="#DF357F" d="M110.382 145.389H81.619v5.103h28.763v-5.103z"/>
        <path fill="#333" d="M81.62 151.593h28.762c.599 0 1.098-.5 1.098-1.1v-5.103c0-.6-.499-1.101-1.098-1.101H81.619c-.6 0-1.098.501-1.098 1.101v5.103c0 1.401 2.197 1.501 2.197 0v-5.103c-.4.4-.8.8-1.099 1.101h28.763l-1.099-1.101v5.103l1.099-1.101H81.619c-1.498 0-1.498 2.201 0 2.201z"/>
        <path fill="#DF357F" d="M110.382 156.095H81.619v5.103h28.763v-5.103z"/>
        <path fill="#333" d="M81.62 162.399h28.762c.599 0 1.098-.5 1.098-1.1v-5.103c0-.601-.499-1.101-1.098-1.101H81.619c-.6 0-1.098.5-1.098 1.101v5.103c0 1.4 2.197 1.501 2.197 0v-5.103l-1.099 1.1h28.763l-1.099-1.1v5.103l1.099-1.101H81.619c-1.498-.1-1.498 2.201 0 2.201z"/>
        <path fill="#DF357F" d="M110.382 166.901H81.619v5.103h28.763v-5.103z"/>
        <path fill="#333" d="M81.62 173.105h28.762c.599 0 1.098-.5 1.098-1.1v-5.103c0-.6-.499-1.101-1.098-1.101H81.619c-.6 0-1.098.501-1.098 1.101v5.103c0 1.401 2.197 1.501 2.197 0v-5.103c-.4.4-.8.8-1.099 1.101h28.763l-1.099-1.101v5.103l1.099-1.101H81.619c-1.498 0-1.498 2.201 0 2.201z"/>
        <path fill="#DF357F" d="M154.325 107.969h-44.443l-36.053 16.108h44.542l35.954-16.108z"/>
        <path fill="#333" d="M154.325 106.868h-43.743c-.999 0-1.698.401-2.597.801-6.192 2.701-12.284 5.503-18.476 8.204l-16.18 7.204c-1.098.501-.498 2.102.6 2.102H117.672c.999 0 1.698-.301 2.597-.701 6.092-2.701 12.284-5.503 18.376-8.204 5.393-2.402 10.886-4.803 16.279-7.304 1.298-.601.2-2.502-1.099-1.901-11.085 4.902-22.171 9.905-33.256 14.808-.799.3-1.598.7-2.297 1-.1 0-.3.1-.4.2.2-.3.799-.1.4-.1-.6-.1-1.299 0-1.898 0H74.029l.6 2.102c11.085-4.903 22.17-9.906 33.156-14.809.799-.4 1.598-.7 2.397-1.1.1-.1.3-.1.4-.2 0 0-.799 0-.4.1.499.1 1.298 0 1.798 0H154.425c1.298.1 1.298-2.202-.1-2.202z"/>
        <path fill="#DF357F" d="M118.271 124.077H73.629v9.406h44.642v-9.406z"/>
        <path fill="#333" d="M73.63 134.684h44.641c.6 0 1.099-.5 1.099-1.101v-9.405c0-.6-.499-1.101-1.099-1.101H73.629c-.599 0-1.098.501-1.098 1.101v9.405c0 1.401 2.197 1.501 2.197 0v-9.405c-.4.4-.8.8-1.099 1.101H118.271l-1.098-1.101v9.405l1.098-1.1H73.629c-1.398-.1-1.398 2.201 0 2.201zM144.937 161.299V186.813c0 1.401 2.197 1.501 2.197 0v-22.312-3.202c.1-1.501-2.197-1.501-2.197 0zM161.415 176.007c1.104 0 1.998-.896 1.998-2.001s-.894-2.001-1.998-2.001c-1.103 0-1.997.896-1.997 2.001s.894 2.001 1.997 2.001z"/>
        <path fill="#DF357F" d="M99.396 65.645h-7.69v7.704h7.69v-7.704z"/>
        <path fill="#333" d="M91.706 74.45H99.396c.6 0 1.099-.5 1.099-1.1v-6.704-1c0-.6-.5-1.101-1.099-1.101H91.706c-.6 0-1.099.5-1.099 1.1v7.704c0 .601.5 1.101 1.099 1.101.6 0 1.099-.5 1.099-1.1v-6.704-1l-1.099 1.1H99.396l-1.099-1.1v7.703l1.099-1.1H91.706c-.6 0-1.099.5-1.099 1.1 0 .601.5 1.101 1.099 1.101z"/>
        <path fill="#DF357F" d="M82.618 65.645h-7.69v7.704h7.69v-7.704z"/>
        <path fill="#333" d="M74.928 74.45h7.69c.6 0 1.099-.5 1.099-1.1v-6.704-1c0-.6-.5-1.101-1.099-1.101H74.928c-.6 0-1.098.5-1.098 1.1v7.704c0 .601.499 1.101 1.098 1.101.6 0 1.099-.5 1.099-1.1v-6.704-1l-1.099 1.1h7.69l-1.098-1.1v7.703l1.098-1.1H74.928c-.6 0-1.098.5-1.098 1.1 0 .601.499 1.101 1.098 1.101z"/>
        <path fill="#DF357F" d="M65.84 65.645h-7.69v7.704h7.69v-7.704z"/>
        <path fill="#333" d="M58.15 74.45h7.69c.599 0 1.098-.5 1.098-1.1v-6.704-1c0-.6-.5-1.101-1.099-1.101h-7.69c-.599 0-1.098.5-1.098 1.1v7.704c0 .601.5 1.101 1.098 1.101.6 0 1.099-.5 1.099-1.1v-6.704-1l-1.099 1.1h7.69l-1.098-1.1v7.703l1.098-1.1h-7.69c-.599 0-1.098.5-1.098 1.1 0 .601.5 1.101 1.098 1.101z"/>
        <path fill="#DF357F" d="M49.062 65.645h-7.69v7.704h7.69v-7.704z"/>
        <path fill="#333" d="M41.371 74.45h7.69c.6 0 1.1-.5 1.1-1.1v-6.704-1c0-.6-.5-1.101-1.1-1.101h-7.69c-.599 0-1.098.5-1.098 1.1v7.704c0 .601.5 1.101 1.098 1.101.6 0 1.1-.5 1.1-1.1v-6.704-1l-1.1 1.1h7.69l-1.098-1.1v7.703l1.099-1.1h-7.69c-.6 0-1.1.5-1.1 1.1 0 .601.5 1.101 1.1 1.101z"/>
        <path fill="#DF357F" d="M99.396 82.654h-7.69v7.705h7.69v-7.704z"/>
        <path fill="#333" d="M91.706 91.46H99.396c.6 0 1.099-.5 1.099-1.1v-6.704-1c0-.601-.5-1.102-1.099-1.102H91.706c-.6 0-1.099.5-1.099 1.101v7.704c0 .5.5 1.101 1.099 1.101.6 0 1.099-.5 1.099-1.1v-6.704-1l-1.099 1.1H99.396l-1.099-1.1v7.703l1.099-1.1H91.706c-.6 0-1.099.5-1.099 1.1 0 .6.5 1.101 1.099 1.101z"/>
        <path fill="#DF357F" d="M82.618 82.654h-7.69v7.705h7.69v-7.704z"/>
        <path fill="#333" d="M74.928 91.46h7.69c.6 0 1.099-.5 1.099-1.1v-6.704-1c0-.601-.5-1.102-1.099-1.102H74.928c-.6 0-1.098.5-1.098 1.101v7.704c0 .5.499 1.101 1.098 1.101.6 0 1.099-.5 1.099-1.1v-6.704-1l-1.099 1.1h7.69l-1.098-1.1v7.703l1.098-1.1H74.928c-.6 0-1.098.5-1.098 1.1 0 .6.499 1.101 1.098 1.101z"/>
        <path fill="#DF357F" d="M65.84 82.654h-7.69v7.705h7.69v-7.704z"/>
        <path fill="#333" d="M58.15 91.46h7.69c.599 0 1.098-.5 1.098-1.1v-6.704-1c0-.601-.5-1.102-1.099-1.102h-7.69c-.599 0-1.098.5-1.098 1.101v7.704c0 .5.5 1.101 1.098 1.101.6 0 1.099-.5 1.099-1.1v-6.704-1l-1.099 1.1h7.69l-1.098-1.1v7.703l1.098-1.1h-7.69c-.599 0-1.098.5-1.098 1.1 0 .6.5 1.101 1.098 1.101z"/>
        <path fill="#DF357F" d="M49.062 82.654h-7.69v7.705h7.69v-7.704z"/>
        <path fill="#333" d="M41.371 91.46h7.69c.6 0 1.1-.5 1.1-1.1v-6.704-1c0-.601-.5-1.102-1.1-1.102h-7.69c-.599 0-1.098.5-1.098 1.101v7.704c0 .5.5 1.101 1.098 1.101.6 0 1.1-.5 1.1-1.1v-6.704-1l-1.1 1.1h7.69l-1.098-1.1v7.703l1.099-1.1h-7.69c-.6 0-1.1.5-1.1 1.1 0 .6.5 1.101 1.1 1.101z"/>
        <path fill="#DF357F" d="M99.396 99.564h-7.69v7.704h7.69v-7.704z"/>
        <path fill="#333" d="M91.706 108.369H99.396c.6 0 1.099-.5 1.099-1.1v-6.704-1c0-.601-.5-1.101-1.099-1.101H91.706c-.6 0-1.099.5-1.099 1.1v7.705c0 .6.5 1.1 1.099 1.1.6 0 1.099-.5 1.099-1.1v-6.704-1l-1.099 1.1H99.396l-1.099-1.1V107.268l1.099-1.101H91.706c-.6 0-1.099.5-1.099 1.101 0 .6.5 1.1 1.099 1.1z"/>
        <path fill="#DF357F" d="M82.618 99.564h-7.69v7.704h7.69v-7.704z"/>
        <path fill="#333" d="M74.928 108.369h7.69c.6 0 1.099-.5 1.099-1.1v-6.704-1c0-.601-.5-1.101-1.099-1.101H74.928c-.6 0-1.098.5-1.098 1.1v7.705c0 .6.499 1.1 1.098 1.1.6 0 1.099-.5 1.099-1.1v-6.704-1l-1.099 1.1h7.69l-1.098-1.1V107.268l1.098-1.101H74.928c-.6 0-1.098.5-1.098 1.101 0 .6.499 1.1 1.098 1.1z"/>
        <path fill="#DF357F" d="M65.84 99.564h-7.69v7.704h7.69v-7.704z"/>
        <path fill="#333" d="M58.15 108.369h7.69c.599 0 1.098-.5 1.098-1.1v-6.704-1c0-.601-.5-1.101-1.099-1.101h-7.69c-.599 0-1.098.5-1.098 1.1v7.705c0 .6.5 1.1 1.098 1.1.6 0 1.099-.5 1.099-1.1v-6.704-1l-1.099 1.1h7.69l-1.098-1.1V107.268l1.098-1.101h-7.69c-.599 0-1.098.5-1.098 1.101 0 .6.5 1.1 1.098 1.1z"/>
        <path fill="#DF357F" d="M49.062 99.564h-7.69v7.704h7.69v-7.704z"/>
        <path fill="#333" d="M41.371 108.369h7.69c.6 0 1.1-.5 1.1-1.1v-6.704-1c0-.601-.5-1.101-1.1-1.101h-7.69c-.599 0-1.098.5-1.098 1.1v7.705c0 .6.5 1.1 1.098 1.1.6 0 1.1-.5 1.1-1.1v-6.704-1l-1.1 1.1h7.69l-1.098-1.1V107.268l1.099-1.101h-7.69c-.6 0-1.1.5-1.1 1.101 0 .6.5 1.1 1.1 1.1z"/>
        <path fill="#fff" d="M231.325 143.788h-2.597v53.93h2.597v-53.93z"/>
        <path fill="#333" d="M228.728 198.82h2.597c.599 0 1.098-.501 1.098-1.101v-18.21-29.016-6.604c0-.6-.499-1.101-1.098-1.101h-2.597c-.599 0-1.099.501-1.099 1.101v53.83c0 1.401 2.198 1.501 2.198 0v-18.21-29.016-6.604l-1.099 1.101h2.597l-1.099-1.101v53.83l1.099-1.101h-2.597c-1.498 0-1.498 2.202 0 2.202z"/>
        <path fill="#DF357F" d="M236.518 196.318h-12.983v2.801h12.983v-2.801z"/>
        <path fill="#333" d="M223.535 200.22h12.983c.6 0 1.099-.5 1.099-1.1v-2.802c0-.6-.499-1.1-1.099-1.1h-12.983c-.599 0-1.098.5-1.098 1.1v2.802c0 1.4 2.197 1.501 2.197 0v-2.802l-1.099 1.101h12.983l-1.098-1.101v2.802l1.098-1.101h-12.983c-1.498 0-1.498 2.201 0 2.201zM249.302 143.389c-.1-4.303-2.697-8.105-6.692-9.606-3.895-1.5-8.688-.3-11.385 3.002-1.598 1.901-2.397 4.202-2.397 6.604 0 1.401 2.197 1.401 2.197 0 .1-4.403 3.596-8.005 7.99-8.005s7.89 3.602 7.99 8.005c.099 1.501 2.297 1.501 2.297 0z"/>
        <path fill="#fff" d="M248.203 148.291c-2.397 0-4.294-1.901-4.294-4.303h8.589c0 2.302-1.898 4.303-4.295 4.303z"/>
        <path fill="#333" d="M248.203 147.091c-.5 0-.799 0-1.298-.3l-.2-.1c-.1-.101-.2-.101-.3-.201 0 0-.299-.2-.1-.1l-.299-.3c-.3-.3-.5-.6-.699-1-.2-.401-.2-.801-.3-1.301l-1.099 1.101h8.689l-1.098-1.101c0 .5 0 .8-.3 1.301l-.1.2c-.1.1-.1.2-.2.3 0 0-.199.3-.1.1l-.299.3c-.3.3-.599.5-.999.701-.399.4-.899.4-1.298.4-1.398 0-1.498 2.301 0 2.201 2.996 0 5.393-2.501 5.393-5.403 0-.6-.5-1.101-1.099-1.101h-8.688c-.6 0-1.099.501-1.099 1.101 0 3.002 2.497 5.403 5.393 5.403 1.498.1 1.498-2.101.1-2.201zM212.948 143.389c.1-4.403 3.596-8.005 7.99-8.005s7.89 3.602 7.99 8.005c0 1.401 2.297 1.501 2.197 0-.1-4.303-2.697-8.105-6.692-9.606-3.894-1.5-8.688-.3-11.385 3.002-1.598 1.901-2.397 4.202-2.397 6.604 0 1.501 2.297 1.501 2.297 0z"/>
        <path fill="#fff" d="M211.85 148.291c2.397 0 4.294-1.901 4.294-4.302h-8.589c-.1 2.301 1.898 4.302 4.295 4.302z"/>
        <path fill="#333" d="M211.85 149.392c2.996 0 5.393-2.501 5.393-5.403 0-.6-.5-1.101-1.099-1.101h-8.689c-.599 0-1.098.501-1.098 1.101 0 2.902 2.497 5.303 5.493 5.403 1.398 0 1.398-2.201 0-2.201-.5 0-.799 0-1.299-.3l-.199-.1c-.1-.1-.2-.1-.3-.201 0 0-.299-.2-.1-.1l-.299-.3c-.3-.3-.5-.6-.699-1-.2-.401-.2-.801-.3-1.301l-1.099 1.101h8.689l-1.098-1.101c0 .5 0 .8-.3 1.301l-.1.2c-.1.1-.1.2-.2.3 0 0-.199.3-.1.1l-.299.3c-.3.3-.599.5-.999.701-.399.2-.799.2-1.298.3-1.498.1-1.498 2.301 0 2.301z"/>
        <path fill="#DF357F" d="M95.4 193.516c2.398-3.302 5.094-6.804 9.089-7.504.699-.1 1.398-.1 1.997-.4.799-.4 1.399-1.101 1.998-1.801 1.598-1.801 3.595-3.302 5.992-3.602 2.397-.3 4.994 1 5.693 3.302.299 1 .399 2.301 1.298 2.701.599.3 1.398 0 2.097-.2 4.095-1.101 8.889 3.602 10.487 7.504h-38.65z"/>
        <path fill="#333" d="M96.4 194.117c1.897-2.601 3.995-5.603 7.091-6.604 1.498-.5 3.096-.4 4.394-1.4 1.398-1.101 2.297-2.602 3.795-3.602 2.796-1.801 6.591-1.401 7.59 2.101.3 1.301.899 2.501 2.297 2.801 1.498.301 2.896-.7 4.394-.2 3.196.901 5.793 4.103 6.991 7.004.3-.6.6-1.1.999-1.701h-38.55c-1.398 0-1.498 2.201 0 2.201h38.55c.899 0 1.298-.9.999-1.701-1.299-2.901-3.596-5.703-6.492-7.204-1.298-.7-2.896-1.2-4.394-1-.799.1-1.998.8-2.497 0-.399-.6-.399-1.501-.699-2.101-1.398-3.102-5.393-4.203-8.389-3.102-1.698.6-3.196 1.701-4.394 3.002-.6.7-1.199 1.601-1.898 2.101-.799.5-1.997.4-2.896.7-3.895 1.101-6.592 4.603-8.789 7.805-.899.9 1.099 2.001 1.898.9z"/>
        <path fill="#fff" d="M205.858 65.645h60.621c2.497 0 4.494 2 4.494 4.502s-1.997 4.503-4.494 4.503h-4.294c-2.597.3-4.594 2.201-4.594 4.502 0 2.502 2.396 4.503 5.393 4.503h12.783c2.497 0 4.494 2 4.494 4.502s-1.997 4.503-4.494 4.503h-53.63c-2.497 0-4.495-2.001-4.495-4.503 0-2.501 1.998-4.502 4.495-4.502h.898c2.997 0 5.393-2.001 5.393-4.503 0-2.301-1.997-4.102-4.594-4.502h-18.076c-2.497 0-4.494-2.001-4.494-4.503.1-2.501 2.097-4.502 4.594-4.502z"/>
        <path fill="#333" d="M205.858 66.746h60.621c3.396.1 4.694 4.703 1.598 6.404-1.598.9-3.995.3-5.692.4-2.697.1-5.493 2.101-5.893 4.903-.399 3.201 2.297 5.703 5.293 6.203 1.399.2 2.897.1 4.295.1h6.691c1.298 0 2.996-.3 4.195.2 3.395 1.301 2.596 6.304-.999 6.504h-53.431c-1.498 0-2.996-.7-3.495-2.201-.599-1.501.1-3.202 1.398-4.103 1.099-.7 2.297-.4 3.595-.6 2.897-.3 5.693-2.601 5.593-5.703-.1-3.002-2.896-5.203-5.792-5.403-3.196-.2-6.492 0-9.788 0h-6.092c-1.198 0-2.596.2-3.595-.3-3.196-1.601-1.898-6.304 1.498-6.404 1.398-.1 1.498-2.301 0-2.201-3.196.1-5.793 2.701-5.593 6.003.2 3.002 2.697 5.203 5.593 5.303 3.495.1 7.091 0 10.586 0h5.992c1.698 0 3.396.2 4.495 1.801.998 1.501.299 3.202-1.099 4.102-1.198.8-2.497.7-3.795.8-3.196.201-5.693 2.903-5.393 6.104.3 2.902 2.696 5.003 5.593 5.103H271.373c1.598 0 3.196.1 4.794 0 3.196-.2 5.592-3.102 5.193-6.303-.3-2.902-2.796-4.903-5.593-5.003-3.795-.1-7.59 0-11.385 0-1.997 0-4.195-.1-5.293-2.101-.899-1.601 0-3.302 1.498-4.103.999-.6 1.897-.6 3.096-.6 2.297 0 4.694.2 6.591-1.4 2.397-2.102 2.497-5.904.2-8.205-1.798-1.801-4.095-1.601-6.492-1.601h-58.224c-1.298 0-1.298 2.301.1 2.301z"/>
        <path fill="#fff" d="M191.476 74.65c2.482 0 4.494-2.016 4.494-4.503 0-2.486-2.012-4.502-4.494-4.502-2.482 0-4.494 2.016-4.494 4.502 0 2.487 2.012 4.503 4.494 4.503z"/>
        <path fill="#333" d="M197.069 70.148c0-2.401-1.498-4.502-3.695-5.303-2.097-.8-4.794-.1-6.192 1.701-1.498 1.801-1.798 4.402-.499 6.504 1.198 2.1 3.595 3.101 5.892 2.601 2.597-.5 4.494-2.901 4.494-5.503 0-1.4-2.197-1.4-2.197 0s-.899 2.702-2.197 3.202c-.2.1-.4.1-.599.2h-.4c-.499 0-.699 0-1.099-.1-.399-.1-.499-.2-.898-.4-.3-.2-.5-.4-.799-.7.1.1 0 0 0-.1-.1-.1-.1-.2-.2-.301 0-.1-.1-.1-.1-.2 0 0-.2-.3-.1-.2-.1-.2-.1-.4-.2-.6-.099-.3-.099-.3-.099-.5 0-.401 0-.701.099-1.001.1-.5.2-.7.4-1.101.699-1.2 2.197-1.901 3.495-1.6 1.698.3 2.797 1.7 2.797 3.301-.1 1.5 2.097 1.5 2.097.1z"/>
    </g>
</svg>
