<svg xmlns="http://www.w3.org/2000/svg" width="708" height="214" fill="none" viewBox="0 0 708 214">
    <g opacity=".2">
        <path fill="#DF357F" stroke="#333" stroke-miterlimit="10" stroke-width="2" d="M577.589 208.992c-3.44 0-6.143-2.781-6.143-6.135v-.163c0-3.436 2.785-6.135 6.143-6.135h43.985c.901 0 1.556-.736 1.556-1.554 0-.9-.737-1.555-1.556-1.555h-44.886c-5.16 0-9.419 4.172-9.419 9.407 0 5.153 4.177 9.407 9.419 9.407h44.886c.901 0 1.556-.736 1.556-1.554 0-.9-.737-1.555-1.556-1.555h-43.985v-.163z"/>
        <path fill="#fff" stroke="#333" stroke-miterlimit="10" stroke-width="2" d="M621.246 208.992h-43.902c-3.277 0-5.98-2.699-5.98-5.971v-.573c0-3.272 2.703-5.971 5.98-5.971h43.902v12.515z"/>
        <path stroke="#333" stroke-miterlimit="10" stroke-width="2" d="M577.917 200.567h16.464M592.66 204.575h22.033"/>
        <path fill="#F0D227" stroke="#333" stroke-miterlimit="10" stroke-width="2" d="M623.54 177.336c3.44 0 6.143 2.781 6.143 6.135v.164c0 3.435-2.785 6.135-6.143 6.135h-43.985c-.901 0-1.556.736-1.556 1.554 0 .899.737 1.554 1.556 1.554h44.886c5.16 0 9.419-4.172 9.419-9.407 0-5.153-4.177-9.407-9.419-9.407h-44.886c-.901 0-1.556.737-1.556 1.555 0 .899.737 1.554 1.556 1.554h43.985v.163z"/>
        <path fill="#fff" stroke="#333" stroke-miterlimit="10" stroke-width="2" d="M579.884 177.336h43.903c3.276 0 5.979 2.7 5.979 5.972v.572c0 3.272-2.703 5.971-5.979 5.971h-43.903v-12.515z"/>
        <path stroke="#333" stroke-miterlimit="10" stroke-width="2" d="M623.213 185.843h-16.464M608.469 181.835h-22.033"/>
        <path fill="#fff" d="M600.769 51.941c2.714 0 4.914-2.197 4.914-4.908 0-2.71-2.2-4.907-4.914-4.907-2.714 0-4.915 2.197-4.915 4.907s2.201 4.908 4.915 4.908z"/>
        <path fill="#333" d="M606.584 47.033c0-2.453-1.556-4.58-3.85-5.48-2.211-.818-4.914-.163-6.47 1.718-1.557 1.881-1.802 4.58-.574 6.707 1.229 2.127 3.686 3.19 6.143 2.7 2.785-.491 4.751-2.945 4.751-5.645 0-1.145-1.802-1.145-1.802 0 0 1.636-1.065 3.19-2.621 3.763-1.638.573-3.44.082-4.505-1.227-1.065-1.309-1.147-3.108-.328-4.499.82-1.39 2.54-2.208 4.096-1.881 1.884.327 3.276 1.963 3.276 3.926.082 1.064 1.884 1.064 1.884-.082z"/>
        <path fill="#fff" d="M616.004 52.105h35.63c2.785 0 4.997-2.209 4.997-4.99s-2.212-4.99-4.997-4.99h-35.63c-2.785 0-4.996 2.209-4.996 4.99s2.211 4.99 4.996 4.99z"/>
        <path fill="#333" d="M616.003 53.005h17.692c5.979 0 11.959.163 17.938 0 2.785-.082 5.242-1.964 5.816-4.663.573-2.781-.983-5.644-3.686-6.707-1.884-.736-4.505-.41-6.471-.41h-31.125c-2.048 0-4.014.982-5.16 2.7-1.557 2.372-1.065 5.726 1.064 7.607 1.147.982 2.54 1.473 3.932 1.473 1.147 0 1.147-1.8 0-1.8-2.867-.082-4.914-3.026-3.686-5.726.737-1.636 2.294-2.372 4.014-2.372h35.302c2.212.082 4.095 1.636 4.177 3.926.082 2.373-1.802 4.172-4.095 4.172-5.57.164-11.221 0-16.873 0-6.143 0-12.286-.164-18.429 0h-.328c-1.229 0-1.229 1.8-.082 1.8z"/>
        <path fill="#fff" d="M626.653.9h-59.138c-2.457 0-4.423 1.963-4.423 4.417 0 2.454 1.966 4.417 4.423 4.417h4.177c2.539.327 4.505 2.127 4.505 4.335 0 2.454-2.375 4.417-5.242 4.417h-12.532c-2.457 0-4.423 1.963-4.423 4.417 0 2.454 1.966 4.417 4.423 4.417h52.257c2.458 0 4.423-1.963 4.423-4.417 0-2.454-1.965-4.417-4.423-4.417h-.901c-2.948 0-5.242-1.963-5.242-4.417 0-2.209 1.966-4.008 4.505-4.335h17.611c2.457 0 4.423-1.963 4.423-4.417 0-2.454-1.966-4.417-4.423-4.417z"/>
        <path fill="#333" d="M626.652 0h-58.81c-1.475 0-2.785.409-3.932 1.39-2.375 2.127-2.294 5.89.082 7.935 1.802 1.554 4.177 1.309 6.471 1.309 1.146 0 2.047.081 3.112.654 1.393.818 2.13 2.454 1.393 4.008-.983 2.045-3.195 2.209-5.161 2.209h-11.139c-2.621 0-4.997 1.8-5.406 4.498-.492 3.109 1.884 5.89 4.996 6.053h36.286c5.405 0 10.893.164 16.299 0 2.621-.081 4.915-1.963 5.324-4.662.41-3.19-2.129-5.89-5.242-5.971-1.392 0-2.703-.082-3.849-.9-1.311-.982-1.802-2.617-.983-4.008.982-1.636 2.703-1.881 4.423-1.881h16.299c2.785-.082 5.079-2.127 5.324-4.908.082-3.108-2.457-5.644-5.487-5.726-1.147 0-1.147 1.8 0 1.8 3.44.081 4.832 4.744 1.72 6.462-1.065.654-2.458.49-3.686.49h-12.368c-1.065 0-2.212-.081-3.277 0-2.703.164-5.406 2.372-5.406 5.235 0 3.272 3.195 5.235 6.225 5.317 1.229 0 2.294 0 3.277.9 1.146 1.063 1.474 2.781.737 4.172-1.147 2.208-3.686 1.88-5.816 1.88h-45.622c-1.475 0-3.031.165-4.505-.08-3.522-.573-3.85-5.563-.492-6.708 1.229-.41 2.785-.164 4.014-.164h6.47c1.393 0 2.785.082 4.178-.082 2.867-.49 5.488-2.863 4.996-5.97-.409-2.618-3.112-4.418-5.733-4.5-1.802 0-4.342.491-5.898-.654-2.703-1.963-1.228-6.135 2.048-6.298 4.505-.164 9.01 0 13.515 0h45.704c1.147.081 1.147-1.8-.081-1.8z"/>
        <path fill="#fff" d="M640.739 9.734c2.443 0 4.423-1.978 4.423-4.417 0-2.44-1.98-4.417-4.423-4.417-2.442 0-4.423 1.977-4.423 4.417 0 2.44 1.981 4.417 4.423 4.417z"/>
        <path fill="#333" d="M637.218 5.317c0-1.39.901-2.781 2.211-3.272 1.393-.49 3.031-.082 3.932 1.063.901 1.146.983 2.7.245 3.927-.737 1.227-2.211 1.881-3.603 1.636-1.557-.246-2.785-1.718-2.785-3.354 0-1.145-1.884-1.227-1.802 0 0 2.208 1.392 4.172 3.522 4.99 2.047.736 4.505.081 5.897-1.555 1.393-1.717 1.638-4.171.492-6.134-1.147-1.964-3.359-2.863-5.57-2.454-2.457.409-4.259 2.699-4.259 5.235-.164 1.063 1.72 1.063 1.72-.082z"/>
        <path fill="#DF357F" d="M600.606 62.411H481.021v10.552h119.585V62.411z"/>
        <path fill="#333" d="M600.523 72.063H485.77c-1.475 0-3.195-.245-4.669 0h-.164l.901.9V62.411l-.901.9H595.69c1.475 0 3.195.245 4.669 0h.164l-.901-.9v10.552c0 1.145 1.802 1.227 1.802 0V62.411c0-.49-.41-.9-.901-.9H495.599c-4.833 0-9.665-.163-14.498 0h-.164c-.491 0-.901.41-.901.9v10.552c0 .49.41.9.901.9H585.861c4.833 0 9.666.163 14.498 0h.164c1.229 0 1.229-1.8 0-1.8z"/>
        <path fill="#fff" d="M600.606 72.963H481.021v81.715h119.585V72.963z"/>
        <path fill="#333" d="M600.523 72.063H495.599c-4.833 0-9.665-.163-14.498 0h-.164c-.491 0-.901.41-.901.9V151.243c0 1.063-.082 2.127 0 3.19v.164c0 .49.41.899.901.899H585.862c4.832 0 9.665.164 14.497 0h.164c.492 0 .901-.409.901-.899v-8.098-19.468-23.639-20.368-6.707c0-1.064.082-2.127 0-3.19v-.164c0-1.145-1.802-1.227-1.802 0V151.243c0 .981-.164 2.208 0 3.19v.164l.901-.9H485.77c-1.474 0-3.194-.246-4.669 0h-.164l.901.9v-8.098-19.468-23.639-20.368-6.707c0-.982.164-2.209 0-3.19v-.164l-.901.9H585.862c4.832 0 9.665.163 14.497 0h.164c1.229 0 1.229-1.8 0-1.8z"/>
        <path fill="#fff" d="M535.817 134.148H495.6V96.521l20.149-8.344 20.068 8.344v37.627z"/>
        <path fill="#333" d="M535.816 133.166h-40.217l.901.9v-12.679-20.204-4.662c-.246.327-.491.572-.655.9 5.897-2.455 11.713-4.908 17.61-7.28.574-.246 1.147-.491 1.638-.655.164-.082.738-.163.819-.327-.081.163-.737-.164-.081.082l1.228.49c3.44 1.473 6.88 2.863 10.321 4.336 2.703 1.145 5.406 2.29 8.19 3.435-.245-.327-.491-.572-.655-.9v37.545c0 1.146 1.802 1.227 1.802 0v-12.678-20.204-4.662c0-.41-.328-.737-.655-.9L518.37 88.34c-.737-.327-1.557-.818-2.376-.982-.655-.163-1.392.41-1.965.573-3.441 1.39-6.881 2.863-10.321 4.253-2.785 1.146-5.57 2.29-8.354 3.518-.41.163-.656.409-.656.9V134.147c0 .491.41.9.901.9h40.217c1.229 0 1.229-1.881 0-1.881z"/>
        <path fill="#DF357F" d="M515.75 85.314l-24.163 10.798v5.235l24.163-10.716 24.081 10.716v-5.235L515.75 85.315z"/>
        <path fill="#333" d="M515.257 84.578c-7.044 3.108-14.088 6.217-21.132 9.407-.983.409-2.048.9-3.031 1.309-.328.163-.491.49-.491.818v5.316c0 .737.737 1.064 1.392.818 7.044-3.108 14.088-6.216 21.132-9.406.983-.41 2.048-.9 3.031-1.309h-.901c7.044 3.108 14.006 6.217 21.05 9.407.983.409 2.048.899 3.031 1.308.655.246 1.392 0 1.392-.818v-5.316c0-.328-.163-.655-.491-.818-7.044-3.109-14.006-6.217-21.051-9.407-.982-.409-2.047-.9-3.03-1.309-1.065-.49-2.048 1.145-.901 1.554 7.044 3.109 14.006 6.217 21.05 9.407.983.409 2.048.9 3.031 1.309-.164-.246-.328-.491-.492-.818v5.317c.492-.246.901-.491 1.393-.818-7.126-3.19-14.17-6.299-21.296-9.489-.901-.409-1.802-.9-2.785-1.227-.819-.327-1.884.41-2.621.736-4.177 1.8-8.273 3.681-12.45 5.48l-10.075 4.418c.492.245.901.491 1.393.818v-5.317c-.164.245-.328.49-.492.818 7.044-3.108 14.088-6.217 21.132-9.407.983-.409 2.048-.9 3.031-1.308 1.229-.41.328-1.964-.819-1.473z"/>
        <path fill="#F0D227" d="M505.266 110.672c1.945 0 3.522-1.575 3.522-3.518 0-1.942-1.577-3.517-3.522-3.517-1.945 0-3.522 1.575-3.522 3.517 0 1.943 1.577 3.518 3.522 3.518z"/>
        <path fill="#333" d="M507.968 107.154c0 .573-.164 1.063-.492 1.554-.164.246.082-.082-.082.082l-.164.164-.163.163s-.246.164-.082.082c-.082.082-.246.164-.41.245-.082 0-.082.082-.164.082-.082.082-.082.082 0 0-.082 0-.082 0-.163.082-1.147.409-2.212.082-3.031-.818.082.082 0 0 0 0-.082-.082-.082-.164-.164-.245 0-.082-.082-.082-.082-.164 0 0-.164-.245-.082-.082-.082-.163-.082-.327-.164-.409 0-.081 0-.163-.081-.163v-.082-.164c0-.327 0-.572.081-.736 0-.163.082-.327.164-.491 0-.081.082-.163.164-.409.328-.49.655-.818 1.229-1.063 0 0-.164.082 0 0 .082 0 .164-.082.245-.082.082 0 .164 0 .164-.082 0 0 .246-.081.164 0H505.674c.41.082.574.164.901.328.082 0 .082.081.164.081s.082.082.164.082c-.082-.082-.082 0 0 0l.327.327c.492.409.656 1.146.738 1.718 0 1.145 1.883 1.227 1.802 0 0-1.881-1.229-3.517-2.949-4.172-1.72-.654-3.768-.081-4.915 1.309-1.228 1.473-1.392 3.518-.409 5.153.983 1.636 2.867 2.454 4.751 2.127 2.047-.409 3.603-2.29 3.603-4.417-.081-1.145-1.883-1.145-1.883 0z"/>
        <path fill="#F0D227" d="M516.488 110.672c1.945 0 3.522-1.575 3.522-3.518 0-1.942-1.577-3.517-3.522-3.517-1.945 0-3.522 1.575-3.522 3.517 0 1.943 1.577 3.518 3.522 3.518z"/>
        <path fill="#333" d="M519.107 107.154c0 .573-.164 1.063-.491 1.554-.164.246.082-.082-.082.082l-.164.164-.164.163s-.245.164-.082.082c-.082.082-.245.164-.409.245-.082 0-.082.082-.164.082-.082.082-.082.082 0 0-.082 0-.082 0-.164.082-1.147.409-2.211.082-3.03-.818.081.082 0 0 0 0-.082-.082-.082-.164-.164-.245 0-.082-.082-.082-.082-.164 0 0-.164-.245-.082-.082-.082-.163-.082-.327-.164-.409 0-.081 0-.163-.082-.163v-.082-.164c0-.327 0-.572.082-.736 0-.163.082-.327.164-.491 0-.081.082-.163.164-.409.327-.49.655-.818 1.228-1.063 0 0-.163.082 0 0 .082 0 .164-.082.246-.082.082 0 .164 0 .164-.082 0 0 .246-.081.164 0H516.814c.409.082.573.164.901.328.082 0 .082.081.164.081s.082.082.163.082c-.081-.082-.081 0 0 0l.328.327c.492.409.737 1.146.737 1.718 0 1.145 1.884 1.227 1.802 0 0-1.881-1.228-3.517-2.948-4.172-1.721-.654-3.768-.081-4.915 1.309-1.229 1.473-1.392 3.518-.409 5.153.982 1.636 2.866 2.454 4.75 2.127 2.048-.409 3.604-2.29 3.604-4.417 0-1.145-1.884-1.145-1.884 0z"/>
        <path fill="#F0D227" d="M527.709 110.672c1.945 0 3.522-1.575 3.522-3.518 0-1.942-1.577-3.517-3.522-3.517-1.946 0-3.522 1.575-3.522 3.517 0 1.943 1.576 3.518 3.522 3.518z"/>
        <path fill="#333" d="M530.328 107.154c0 .573-.164 1.063-.491 1.554-.164.246.081-.082-.082.082l-.164.164-.164.163s-.246.164-.082.082c-.082.082-.246.164-.409.245-.082 0-.082.082-.164.082-.082.082-.082.082 0 0-.082 0-.082 0-.164.082-1.147.409-2.212.082-3.031-.818.082.082 0 0 0 0-.082-.082-.082-.164-.164-.245 0-.082-.081-.082-.081-.164 0 0-.164-.245-.082-.082-.082-.163-.082-.327-.164-.409 0-.081 0-.163-.082-.163v-.082-.164c0-.327 0-.572.082-.736 0-.163.082-.327.164-.491 0-.081.082-.163.163-.409.328-.49.656-.818 1.229-1.063 0 0-.164.082 0 0 .082 0 .164-.082.246-.082.082 0 .164 0 .164-.082 0 0 .245-.081.163 0H528.035c.409.082.573.164.901.328.081 0 .081.081.163.081s.082.082.164.082c-.082-.082-.082 0 0 0l.328.327c.491.409.737 1.146.737 1.718 0 1.145 1.884 1.227 1.802 0 0-1.881-1.229-3.517-2.949-4.172-1.72-.654-3.768-.081-4.914 1.309-1.229 1.473-1.393 3.518-.41 5.153.983 1.636 2.867 2.454 4.751 2.127 2.048-.409 3.604-2.29 3.604-4.417-.082-1.145-1.884-1.145-1.884 0z"/>
        <path fill="#fff" d="M523.857 116.97H507.64v16.932h16.217V116.97z"/>
        <path fill="#333" d="M523.775 133.002h-16.218l.901.9v-14.887-2.127l-.901.9h16.218l-.901-.9v17.014c0 1.145 1.802 1.227 1.802 0v-14.887-2.127c0-.491-.409-.9-.901-.9h-16.218c-.491 0-.901.409-.901.9v17.014c0 .491.41.9.901.9h16.218c1.229 0 1.229-1.8 0-1.8z"/>
        <path fill="#333" d="M520.581 126.949c.859 0 1.556-.696 1.556-1.554 0-.858-.697-1.554-1.556-1.554-.86 0-1.557.696-1.557 1.554 0 .858.697 1.554 1.557 1.554z"/>
        <path fill="#F0D227" d="M587.418 97.011h-43.084v5.726h43.084v-5.725zM562.436 107.481h-18.102v5.726h18.102v-5.726zM587.418 107.481h-22.524v5.726h22.524v-5.726zM587.418 117.951h-43.084v5.726h43.084v-5.726zM563.746 128.422h-19.412v5.725h19.412v-5.725z"/>
        <path fill="#fff" d="M502.561 69.282c.905 0 1.638-.732 1.638-1.636 0-.903-.733-1.636-1.638-1.636-.905 0-1.638.733-1.638 1.636 0 .904.733 1.636 1.638 1.636zM489.784 69.282c.904 0 1.638-.732 1.638-1.636 0-.903-.734-1.636-1.638-1.636-.905 0-1.638.733-1.638 1.636 0 .904.733 1.636 1.638 1.636zM496.008 69.282c.905 0 1.638-.732 1.638-1.636 0-.903-.733-1.636-1.638-1.636-.904 0-1.638.733-1.638 1.636 0 .904.734 1.636 1.638 1.636zM578.08 138.155l-2.457-8.588c-.082-.246-.164-.491-.328-.655-.245-.163-.491-.163-.819-.081-6.962.981-14.006 2.126-20.886 3.517.983 2.454 3.522 4.172 6.143 4.826 2.621.736 5.324.572 8.027.491.655 2.372 2.13 4.499 4.013 6.053"/>
        <path fill="#333" d="M578.981 137.91c-.819-2.863-1.556-5.726-2.457-8.589-.328-.899-.901-1.472-1.884-1.39-1.392.082-2.785.409-4.177.572-5.734.9-11.467 1.882-17.201 2.945-.655.164-.737.818-.573 1.391 2.539 5.725 9.583 5.971 14.907 5.807-.328-.245-.573-.491-.901-.654.737 2.536 2.212 4.826 4.259 6.462.901.736 2.212-.573 1.311-1.309-1.802-1.472-3.113-3.435-3.768-5.644-.082-.409-.491-.654-.901-.654-4.751.163-11.057.245-13.351-4.826-.164.49-.328.899-.573 1.39 4.996-.981 9.993-1.799 14.989-2.617 1.147-.164 2.375-.327 3.522-.573.655-.082 1.311-.163 1.966-.327h.409c.082.082.246.818.246.982l2.212 7.607c.573 1.063 2.293.572 1.965-.573z"/>
        <path fill="#DF357F" d="M625.998 123.35c-8.191-2.045-35.057 24.539-35.057 29.365 0 2.7 2.212 5.563 4.669 8.098 2.212 2.291 5.734 2.7 8.437.9l11.467-3.517 1.147 1.717s-1.393 26.748 4.013 51.942h78.386s3.522-66.747-25.719-81.961c-29.241-15.214-47.179-5.89-47.179-5.89"/>
        <path fill="#333" d="M626.242 122.45c-1.72-.409-3.604.164-5.16.818-2.375.982-4.587 2.291-6.635 3.763-5.16 3.599-9.91 7.771-14.333 12.188-1.966 2.045-3.932 4.09-5.734 6.216-1.311 1.554-2.621 3.19-3.604 4.99-.328.573-.573 1.145-.655 1.718-.328 1.717.573 3.517 1.392 4.989 2.294 3.763 5.734 7.444 10.484 6.462 1.147-.245 2.13-.899 3.195-1.227l3.931-1.227c2.212-.654 4.424-1.39 6.635-2.045-.328-.163-.655-.245-1.065-.409.246.409.574.818.819 1.309.082.082.41.736.246.246-.164-.491 0-.246-.082-.164-.164.327-.082.982-.082 1.309-.082 2.372-.082 4.744-.082 7.116 0 8.589.41 17.259 1.393 25.848.655 5.971 1.556 11.942 2.785 17.832.082.409.491.654.901.654H695.864c.983 0 2.048.082 3.031 0h.164c.491 0 .901-.409.901-.9.245-4.58.163-9.161 0-13.66-.328-9.979-1.311-20.04-3.359-29.856-2.129-10.306-5.406-20.94-11.794-29.447-2.867-3.844-6.307-7.198-10.567-9.488-7.371-4.008-15.562-7.035-23.917-8.343-5.488-.9-11.139-1.064-16.627-.164-2.621.409-5.324.982-7.699 2.127-.082.081-.246.081-.328.163-1.065.573-.164 2.127.901 1.554.082-.081.246-.081.328-.163.081 0 .081-.082.163-.082.164-.082-.163.082 0 0 .164-.082.41-.164.574-.245 1.228-.491 2.457-.818 3.767-1.145 4.669-1.064 9.502-1.309 14.252-.9 7.782.654 15.399 2.944 22.525 6.135 2.949 1.308 5.898 2.699 8.519 4.662 1.802 1.391 3.44 2.945 4.914 4.744 6.717 7.853 10.157 18.077 12.45 27.975 2.294 9.734 3.358 19.795 3.85 29.774.164 3.599.246 7.116.246 10.715 0 1.718-.246 3.518-.082 5.236v.245l.901-.9h-75.274c-.983 0-2.13-.163-3.03 0h-.164c.327.245.573.491.901.655-3.522-16.36-4.587-33.374-4.014-49.979 0-.49.082-1.063.082-1.636-.082-.818-.819-1.635-1.31-2.29-.246-.327-.656-.572-1.065-.409-3.768 1.145-7.536 2.209-11.222 3.517-.245.082-.409.164-.655.328-.983.49-1.966.818-3.112.818-2.294-.082-3.768-1.473-5.243-3.109-1.392-1.636-3.112-3.762-3.112-6.053v-.081c0-.082.082-.164.082-.328.164-.409.082-.327.246-.654 1.965-3.763 5.16-7.035 8.108-10.061 4.096-4.254 8.519-8.262 13.27-11.697 2.211-1.636 4.586-3.272 7.126-4.417 1.556-.736 3.522-1.554 4.996-1.145 1.311.163 1.802-1.636.655-1.882z"/>
        <path fill="#fff" d="M671.046 127.767c6.307 1.636 10.73 7.198 14.58 12.515 6.962 9.816 13.433 20.204 17.365 31.656-1.802 0-3.195 1.554-4.669 2.699-3.277 2.617-7.7 3.19-11.795 4.417-5.734 1.718-11.221 4.908-17.283 4.662-.409 0-.819-.081-1.146-.327-.328-.327-.41-.818-.492-1.309-.327-3.68-.491-7.361-.409-11.042 0-.409 0-.736.245-1.064.246-.327.656-.49 1.065-.572 6.553-1.963 9.829-2.863 16.218-5.399-1.065-3.599-11.959-31.492-14.907-36.399M623.95 124.659c5.652 16.277 13.106 31.901 22.197 46.461 2.376-15.787 11.467-29.693 18.593-44.007.246-.573.574-1.227.246-1.718-.327-.736-1.392-.818-2.129-.982-1.721-.327-3.031-1.635-4.587-2.453-3.604-1.964-8.027-1.391-12.123-.655-6.962 1.227-13.924 2.372-20.968 3.599"/>
        <path fill="#333" d="M623.048 124.904c4.423 12.679 9.911 25.03 16.464 36.809 1.883 3.354 3.767 6.626 5.815 9.897.41.573 1.556.573 1.72-.245 1.884-12.188 7.618-23.149 13.351-33.864 1.474-2.699 2.867-5.399 4.259-8.098.574-1.063 1.557-2.536 1.393-3.844-.164-1.146-1.147-1.636-2.13-1.882-1.474-.327-2.457-.818-3.686-1.636-1.228-.818-2.457-1.472-3.849-1.881-2.785-.736-5.734-.491-8.519-.082-7.617 1.145-15.235 2.618-22.852 3.926-1.147.164-.656 1.964.491 1.8 6.471-1.145 12.86-2.209 19.331-3.354 2.866-.49 5.733-1.063 8.6-.899 1.392.081 2.867.409 4.095.981 1.147.573 2.212 1.472 3.359 2.127.573.245 1.146.491 1.72.654.327.082 1.228.082 1.474.327.328.409-.246 1.227-.491 1.636-.41.737-.738 1.473-1.147 2.209-1.311 2.536-2.703 5.071-4.014 7.689-2.703 5.071-5.406 10.143-7.617 15.459-2.539 5.808-4.587 11.861-5.488 18.241l1.72-.245c-7.044-11.37-13.105-23.312-18.102-35.664-1.392-3.517-2.703-7.034-3.931-10.552-.574-1.145-2.294-.654-1.966.491z"/>
        <path fill="#333" d="M628.945 129.812c1.802 12.106 4.423 24.539 10.894 35.091 1.065 1.8 3.604 6.708 6.389 4.826.983-.654.082-2.29-.901-1.554-1.475.982-5.406-6.789-5.98-7.934-1.638-3.19-2.948-6.462-4.013-9.898-2.212-6.871-3.522-13.905-4.587-21.022-.164-1.145-1.966-.654-1.802.491zM642.05 173.492c-.082 12.27.983 24.621 1.557 36.89.082 1.146 1.883 1.227 1.802 0-.574-12.269-1.639-24.62-1.557-36.89.082-1.145-1.72-1.145-1.802 0z"/>
        <path fill="#F0D227" d="M637.465 125.641c-.328 1.799-.491 3.599-.491 5.48 0 .245 0 .491.163.654.164.164.492.164.82.164 2.539-.327 4.996-.654 7.535-1.063.246 0 .491-.082.655-.246.164-.245.164-.572.082-.818-.246-1.636-.491-3.272-.819-4.908 0-.163-.082-.327-.164-.49-.163-.246-.573-.164-.901-.082l-5.406 1.227"/>
        <path fill="#333" d="M636.645 125.395c-.164 1.063-.328 2.127-.41 3.272-.082.491-.082 1.063-.082 1.554 0 .491-.082 1.063.082 1.472.082.491.492.9.983 1.064.573.163 1.147 0 1.638-.082 1.065-.164 2.212-.327 3.277-.491 1.064-.163 2.211-.327 3.276-.491.409-.081.819-.081 1.147-.327.491-.327.737-.9.655-1.472-.082-1.063-.328-2.209-.492-3.272-.081-.491-.163-1.063-.245-1.554-.082-.491-.164-1.063-.574-1.472-.491-.409-1.064-.409-1.638-.328-.573.082-1.147.246-1.802.409-1.228.246-2.457.573-3.686.818-1.146.246-.655 2.045.492 1.8 1.638-.409 3.358-.818 4.996-1.145.082 0 .492-.082.492-.082s-.246-.327-.328-.327l.082.245.246 1.227c.163.818.245 1.718.409 2.536.082.327.082.818.164 1.145.082.082-.082.245.082 0 .246-.245.082-.082 0-.082-.164 0-.41.082-.655.082-.819.082-1.72.245-2.54.327-.819.082-1.72.245-2.539.327-.409.082-.819.082-1.31.164-.164 0-.328.082-.574.082h-.245s.164.245.245.245c.082 0 0-.409 0-.491v-.736c0-.491.082-.981.082-1.39.082-.9.164-1.8.41-2.782.082-.49-.164-.981-.655-1.145-.328.164-.901.409-.983.9z"/>
        <path fill="#F0D227" d="M637.874 133.248c-1.065 3.599-.082 21.185-.491 24.866-.082.654-.164 1.309 0 1.881.163.737.655 1.391 1.064 2.045 1.721 2.536 2.703 11.616 4.587 13.988 1.638-3.927 3.85-14.724 4.751-18.895.082-.328.164-.737.082-1.064-.082-.409-.246-.736-.492-1.063-1.556-2.781-3.849-19.959-4.504-23.149-1.475.246-2.867.491-4.342.736"/>
        <path fill="#333" d="M636.973 133.002c-.574 2.209-.492 4.663-.492 6.953-.082 3.354 0 6.707.082 10.061 0 2.536.164 5.072 0 7.526-.082.736-.164 1.39-.082 2.126.082 1.145.737 2.045 1.311 3.027.737 1.145 1.065 2.535 1.392 3.844.492 1.882.901 3.763 1.393 5.644.409 1.473.819 3.109 1.72 4.335.491.655 1.392.573 1.72-.245 1.31-3.19 2.047-6.626 2.785-9.897l1.228-5.644c.164-.737.328-1.473.492-2.127.163-.818.491-1.718.409-2.536-.082-1.063-.819-1.963-1.146-3.026-.328-1.227-.656-2.454-.901-3.763-.656-3.19-1.147-6.462-1.721-9.652-.409-2.699-.737-5.399-1.31-8.016-.082-.491-.655-.736-1.147-.655-1.474.246-2.867.491-4.341.737-1.147.163-.655 1.963.492 1.799 1.474-.245 2.866-.491 4.341-.736-.41-.245-.738-.409-1.147-.654 1.065 5.398 1.638 10.879 2.703 16.195.409 2.291.737 4.826 1.802 6.871.164.246.328.491.409.818.082.409-.081.9-.163 1.309-.164.654-.328 1.309-.41 1.963-.409 1.8-.737 3.518-1.147 5.317-.819 3.763-1.638 7.607-3.03 11.124l1.72-.245c-.819-.981-1.147-2.372-1.475-3.517-.491-1.636-.819-3.354-1.228-4.99-.328-1.472-.737-2.863-1.311-4.253-.245-.573-.573-1.145-.983-1.636-.655-1.064-.655-1.882-.573-3.109.164-2.372.082-4.744.082-7.034 0-3.19-.082-6.38-.082-9.57 0-2.536-.164-5.399.492-7.853.163-1.145-1.557-1.636-1.884-.491z"/>
        <path fill="#fff" d="M571.037 145.763c-.491-.573-.983-1.145-1.556-1.718-.082-.082-.246-.245-.246-.409 0-.164.164-.327.246-.409 3.031-2.699 6.225-5.399 9.42-7.852.081-.082.163-.164.327-.164s.246.082.328.164c.491.409.983.899 1.392 1.308.082.082.246.246.246.327 0 .164-.082.409-.246.573-2.703 3.19-5.897 5.971-9.501 8.098.164 0 .328.082.491.082"/>
        <path fill="#333" d="M571.691 145.108c-.245-.327-.573-.654-.819-.899-.164-.164-.655-.573-.655-.737v.491c0-.082.41-.409.573-.491l.492-.49c.409-.328.819-.737 1.228-1.064.738-.654 1.557-1.309 2.376-1.963.819-.654 1.556-1.309 2.375-1.963l1.229-.982c.327-.245.737-.736 1.146-.899h-.491c-.164 0 0 0 .082.081.164.164.246.246.409.328.246.163.492.572.738.654l.163.164v-.409s-.245.245-.245.327c-.164.245-.41.491-.574.654-.819.9-1.72 1.8-2.621 2.618-1.802 1.636-3.767 3.026-5.815 4.335-.655.409-.574 1.554.246 1.718.163 0 .327.081.491.081 1.147.246 1.638-1.554.491-1.799-.163 0-.327-.082-.491-.082l.246 1.718c1.965-1.145 3.849-2.536 5.569-4.008.82-.736 1.639-1.554 2.458-2.372.409-.409.737-.818 1.146-1.227.328-.409.901-.9.983-1.391.328-1.145-1.146-2.045-1.802-2.617-.409-.328-.819-.655-1.31-.491-.574.163-1.147.736-1.638 1.063-1.966 1.554-3.932 3.109-5.816 4.744-.573.491-1.065.982-1.638 1.391-.491.409-1.147.9-1.474 1.391-.328.572-.082 1.145.327 1.636.492.572.983 1.145 1.557 1.717.573.982 1.883-.327 1.064-1.227z"/>
        <path fill="#fff" d="M660.727 174.801c-.983-.736-1.229-2.291-.491-3.354.409-.654 1.146-.981 1.802-1.309 1.556-.572 3.522-.572 4.505.737 0 0 1.392 10.388 2.703 15.541-2.785.491-5.488.982-8.273 1.472-.737.082-1.638.082-1.884-.572-.082-.327 0-.655-.246-.9-.164-.164-.409-.245-.655-.327-.492-.246-.901-.655-1.229-1.064-.409-.572-.737-1.308-.737-2.044 0-.737.328-1.473 1.065-1.8-.819-.736-1.72-1.554-1.638-2.618.082-1.39 1.638-2.208 3.03-2.617 1.147-.409 2.212-.736 3.359-1.145"/>
        <path fill="#333" d="M661.381 174.146c-2.375-2.126 2.212-4.335 4.014-3.026.245.163.327.491.245.082v.081c0 .164.082.328.082.491.082.655.164 1.391.328 2.045.655 4.335 1.31 8.671 2.375 12.842.246-.409.41-.736.655-1.145-1.474.246-2.948.491-4.505.736-.819.164-1.638.246-2.375.409-.573.082-1.392.409-1.884.246-.327-.082-.245-.082-.327-.409-.082-.246-.082-.491-.246-.655-.328-.49-.901-.572-1.393-.899-.819-.573-1.802-2.454-.573-3.109.492-.245.655-1.063.164-1.472-.492-.491-1.311-1.063-1.393-1.881 0-.655.574-1.064 1.065-1.309 1.393-.818 3.113-1.227 4.669-1.718 1.147-.409.655-2.127-.491-1.799l-3.686 1.226c-.901.328-1.802.737-2.457 1.473-1.721 1.799-.492 3.926 1.064 5.235.082-.491.164-.982.164-1.473-1.474.818-1.802 2.536-1.147 4.009.328.818.819 1.554 1.475 2.045.245.245.737.327.983.572.245.245.163.736.409 1.063.983 1.391 3.113.655 4.505.409 2.212-.409 4.341-.736 6.553-1.145.491-.082.737-.654.655-1.145-1.065-4.09-1.638-8.261-2.293-12.351-.164-.982-.164-2.209-.492-3.19-.246-.818-1.31-1.391-2.129-1.636-1.065-.328-2.294-.164-3.277.163-1.31.491-2.621 1.309-3.03 2.7-.328 1.227.082 2.617 1.064 3.517.82 1.145 2.13-.164 1.229-.982z"/>
        <path fill="#fff" d="M642.215 125.559l2.703 8.589c.082.245.164.49.409.654.246.164.574.245.901.245 1.475-.081 2.867-.736 4.26-1.39 4.668-2.372 9.501-4.744 13.023-8.589.164-.164.328-.327.328-.573 0-.245-.164-.409-.328-.572-1.311-1.391-2.621-2.863-3.932-4.254-5.078 2.782-10.73 4.499-16.463 5.072"/>
        <path fill="#333" d="M641.313 125.804c.573 1.963 1.229 3.926 1.802 5.808.328.981.573 2.045.901 2.944.246.573.573 1.064 1.229 1.227 1.474.491 3.358-.409 4.668-.981 1.639-.736 3.277-1.636 4.833-2.454 3.031-1.636 5.979-3.436 8.518-5.889.983-.982 1.966-1.964.901-3.272-1.228-1.555-2.702-2.945-4.013-4.336-.246-.327-.737-.327-1.147-.163-4.914 2.699-10.402 4.335-15.972 4.908-1.147.081-1.147 1.963 0 1.799 5.979-.572 11.631-2.29 16.955-5.153-.409-.082-.737-.082-1.147-.164l3.195 3.436c.164.163.819.654.819.818 0-.327-.41.327-.491.409-.41.491-.901.9-1.393 1.309-2.13 1.799-4.505 3.271-6.962 4.58-1.147.655-2.375 1.227-3.604 1.882-1.147.572-2.539 1.472-3.932 1.472-.901 0-.983-1.063-1.228-1.8-.246-.818-.492-1.554-.737-2.372l-1.475-4.662c-.246-.982-2.048-.491-1.72.654z"/>
        <path fill="#DF357F" d="M668.18 99.956c.819.082 1.229-.818 1.393-1.636 3.522-16.277-28.34-25.93-32.436-29.12-.737 2.945.983 8.017 3.686 9.489-7.044-.41-14.006-1.145-20.969-2.29 0 0 3.768 9.652 8.027 12.024l36.777 12.924 3.522-1.39z"/>
        <path fill="#333" d="M668.181 100.856c2.293 0 2.539-2.945 2.621-4.662.082-1.636-.246-3.272-.819-4.826-1.229-3.272-3.604-6.053-6.225-8.344-5.652-4.908-12.614-8.261-19.413-11.37-2.211-.981-4.832-1.881-6.798-3.353-.491-.328-1.229 0-1.392.572-.82 3.517.819 8.67 4.095 10.47l.491-1.718c-6.962-.409-13.842-1.145-20.722-2.29-.574-.082-1.393.41-1.147 1.145.655 1.718 1.474 3.436 2.375 5.154 1.393 2.617 3.113 5.398 5.57 7.116.655.49 1.474.654 2.212.9 1.474.49 3.03 1.063 4.504 1.554 8.928 3.19 17.938 6.298 26.866 9.488 1.229.409 2.376.9 3.604 1.309.41.164.738.082 1.147-.082 1.065-.409 2.13-.818 3.113-1.227 1.064-.409.655-2.208-.492-1.8l-2.703.982c-.164.082-.491.164-.655.246-.41.327.328-.164.328.082l-.164-.082c-.737-.491-1.884-.655-2.703-.982-3.932-1.39-7.945-2.78-11.877-4.172l-14.006-4.907c-1.72-.573-3.44-1.227-5.16-1.8-.901-.327-1.884-.572-2.703-.981-1.884-.9-3.522-3.6-4.669-5.48-1.147-1.882-2.13-4.009-2.949-5.972l-1.147 1.145c7.044 1.145 14.089 1.963 21.215 2.29.901.082 1.228-1.308.491-1.717-2.539-1.473-3.932-5.644-3.276-8.425-.492.163-.901.327-1.393.572 1.475 1.145 3.44 1.8 5.079 2.618 2.866 1.309 5.815 2.617 8.6 4.09 5.979 3.108 12.778 6.789 16.463 12.678.901 1.39 1.557 2.945 1.884 4.58.164.819.164 1.555.164 2.373 0 .49-.082 2.7-.737 2.7-.901.326-.901 2.126.328 2.126z"/>
        <path fill="#fff" d="M665.325 107.489c1.555-10.776-7.456-20.987-20.128-22.806-12.671-1.82-24.205 5.441-25.76 16.217-1.556 10.776 7.456 20.987 20.127 22.806 12.672 1.82 24.205-5.441 25.761-16.217z"/>
        <path fill="#333" d="M664.495 107.236c-1.311 8.589-8.847 14.233-17.037 15.542-8.683 1.39-18.43-1.882-23.754-9.162-2.375-3.19-3.686-7.034-3.522-11.042.164-4.008 1.884-7.771 4.587-10.634 6.143-6.462 16.054-8.016 24.327-5.48 8.928 2.78 16.709 11.042 15.399 20.776-.164 1.145 1.638 1.636 1.802.491 1.228-9.243-4.587-17.505-12.696-21.513-8.682-4.253-19.822-3.762-27.603 2.209-3.44 2.617-6.061 6.298-7.044 10.47-1.065 4.253-.492 8.752 1.474 12.678 4.259 8.671 14.252 13.415 23.671 13.252 9.092-.164 18.348-5.154 21.46-13.988.328-1.063.574-2.127.738-3.19.081-1.063-1.639-1.554-1.802-.409z"/>
        <path fill="#333" d="M626.898 100.365c-.901-.164-1.474-.9-1.311-1.8l.492-3.108c.164-.9.901-1.472 1.802-1.308.901.163 1.474.9 1.31 1.799l-.491 3.108c-.082.9-.901 1.473-1.802 1.309zM646.065 101.02c-.901-.164-1.474-.9-1.311-1.8l.492-3.108c.164-.9.901-1.473 1.802-1.309.901.164 1.474.9 1.31 1.8l-.491 3.108c-.082.818-.901 1.39-1.802 1.309zM634.762 95.62c-2.048 1.473-3.522 3.518-4.423 5.89-.246.573-.328 1.145-.492 1.718-.163.654-.327 1.472 0 2.045.328.654.983.9 1.72.981.738.164 1.475.164 2.212.246 1.638 0 3.276-.245 4.833-.736 1.146-.409.655-2.127-.492-1.8-1.392.491-2.867.736-4.423.655-.409 0-.737 0-1.147-.082-.163 0-.409-.082-.573-.082-.164 0-.328-.082-.41-.082-.245 0-.081-.082-.081.082 0 .245.081-.245.081-.327 0-.246.082-.573.164-.818.574-2.454 1.966-4.663 3.932-6.135.409-.327.573-.818.327-1.227-.245-.409-.901-.654-1.228-.327z"/>
        <path fill="#fff" d="M662.938 104.292c.573-1.391 1.147-2.863 2.457-3.681 1.147-.737 2.621-.737 3.85-.082 1.147.572 2.048 1.799 2.375 3.108.164.655.164 1.309 0 1.963-.164.573-.491 1.064-.901 1.473-1.228 1.472-2.785 2.781-4.423 3.762-.491.246-.983.491-1.474.491-.573 0-1.147-.409-1.474-.9-.328-.49-.574-1.063-.738-1.636"/>
        <path fill="#333" d="M663.839 104.537c.491-1.227.983-2.618 2.211-3.272 1.229-.654 2.785-.164 3.686.818.983 1.063 1.393 2.699.574 3.926-.901 1.309-2.13 2.372-3.359 3.272-.409.246-.737.491-1.146.736-.328.164-.656.409-1.065.409-.819-.081-1.147-1.227-1.393-1.799-.409-1.145-2.211-.655-1.802.491.41 1.063.82 2.126 1.802 2.781.983.654 2.13.49 3.113-.082 1.884-.982 3.604-2.454 4.914-4.172.738-.9 1.229-1.881 1.229-3.026 0-1.064-.409-2.209-.983-3.027-1.147-1.718-3.194-2.7-5.242-2.29-2.375.49-3.522 2.699-4.341 4.826-.164.491.164.981.655 1.145.492.082.983-.245 1.147-.736z"/>
        <path fill="#DF357F" d="M633.369 110.263c2.375.081 4.751-.409 6.962-1.309.246-.082.574-.246.819-.082.328.164.328.573.41.9.082 1.472.082 3.026-.819 4.253-.983 1.391-3.113 1.718-4.587.9-1.474-.736-2.457-2.454-2.539-4.172"/>
        <path fill="#333" d="M633.369 111.162c1.638.082 3.358-.163 4.914-.572.819-.246 1.556-.573 2.375-.9 0 0 .164 0 .164-.082.246-.163-.409 0-.327-.245v1.227c0 .654-.082 1.309-.246 1.963-.164.491-.492.9-.983 1.227-.901.572-2.048.572-2.949 0-1.147-.655-1.802-1.963-1.802-3.272 0-.491-.409-.9-.901-.9-.491 0-.983.409-.901.9.082 1.718.819 3.354 2.212 4.417 1.31 1.063 3.112 1.391 4.75.736 1.802-.736 2.621-2.372 2.785-4.171.082-.818.164-1.8-.082-2.618-.082-.491-.409-.9-.901-1.063-.655-.246-1.146 0-1.72.245-1.965.818-4.177 1.227-6.307 1.145-1.31.082-1.31 1.963-.081 1.963z"/>
        <path fill="#fff" d="M623.95 123.677c-.819 1.718 2.539 29.529 4.095 32.474 1.802-.164 3.686-.082 5.488.163-.655 2.454-.901 10.961-.245 12.106.491.9 6.47 9.898 10.32 14.315 1.229.572-2.867-22.576-12.942-51.778l-6.716-7.28z"/>
        <path fill="#333" d="M623.13 123.268c-.491 1.145-.246 2.7-.164 3.927.164 2.453.41 4.907.655 7.361.574 5.644 1.311 11.37 2.376 16.932.327 1.718.491 3.599 1.31 5.154.164.245.492.49.819.49 1.72-.163 3.522-.081 5.243.164-.246-.409-.41-.736-.656-1.145-.819 3.026-.737 6.544-.655 9.652 0 1.063 0 2.208.491 3.19.492.9 1.147 1.799 1.721 2.699 2.129 3.272 4.423 6.462 6.798 9.489.573.736 1.147 1.472 1.72 2.126.41.409.819.655 1.392.328.492-.328.574-.9.574-1.391.082-1.636-.328-3.435-.574-5.071-.491-3.027-1.146-5.972-1.802-8.916-2.129-9.407-4.75-18.65-7.617-27.811-.983-3.109-1.966-6.299-3.113-9.407-.327-.9-1.228-1.554-1.802-2.29l-5.16-5.644c-.819-.9-2.129.409-1.31 1.308 1.392 1.473 2.703 3.027 4.095 4.499l2.212 2.454.245.246c.082.081.082.163 0 .081.656 1.227.983 2.863 1.393 4.172 3.03 9.08 5.733 18.323 8.027 27.648 1.392 5.48 2.785 11.124 3.44 16.768.082.573.082 1.227.164 1.799v.246c0 .245.082 0 0 0 0 0-.328.327 0-.082.164-.164.164-.245.491-.327.492-.164.737.245.574-.082-.328-.654-1.147-1.39-1.557-1.963-.655-.818-1.228-1.636-1.884-2.454-1.146-1.554-2.293-3.108-3.358-4.744-.901-1.309-1.72-2.618-2.621-3.926-.491-.818-.573-1.064-.655-2.209-.082-1.718-.082-3.517 0-5.317.082-1.554.164-3.19.491-4.662.082-.409-.163-1.064-.655-1.145-1.884-.246-3.768-.328-5.734-.164.246.164.492.327.82.491-.082-.164-.082-.082-.164-.491l-.246-.982c-.246-.899-.41-1.717-.573-2.617-.492-2.454-.819-4.99-1.229-7.444-.737-5.316-1.392-10.633-1.802-15.95-.082-.982-.164-1.963-.164-2.945v-.981c0-.164.082-.328 0-.164.574-1.063-.983-1.963-1.556-.9z"/>
        <path fill="#fff" d="M638.856 125.395c-2.047 2.863-5.078 7.198-6.388 10.47-3.604-3.599-5.734-8.425-9.174-12.106 1.147-1.063 2.457-2.045 3.768-2.945.327-.163.655-.409 1.065-.409.327 0 .655.246.982.409 3.113 2.045 6.963 2.372 10.239 4.172"/>
        <path fill="#333" d="M638.119 124.986c-2.375 3.435-4.914 6.789-6.552 10.715.491-.163 1.064-.245 1.556-.409-3.604-3.599-5.734-8.343-9.174-12.106v1.309c1.065-.981 2.294-2.045 3.604-2.781.492-.245.573-.245 1.065.082.246.163.409.245.655.409.574.327 1.229.654 1.884.9 2.539 1.063 5.242 1.554 7.699 2.863 1.065.572 1.966-1.064.901-1.555-2.784-1.472-6.061-1.963-8.846-3.353-.655-.327-1.31-.818-1.965-1.145-.738-.328-1.557-.246-2.212.245-1.474.9-2.867 1.963-4.095 3.108-.41.327-.328.982 0 1.309 3.44 3.763 5.569 8.507 9.173 12.106.492.573 1.311.245 1.557-.409 1.474-3.681 4.013-7.035 6.307-10.225.655-1.145-.901-2.045-1.557-1.063z"/>
        <path fill="#fff" d="M672.439 168.83c-1.638.49-3.358 1.063-4.996 1.554-.164.082-.41.163-.573.245-.41.327-.41.9-.41 1.391 0 4.417.573 8.834 1.72 13.087.082.409.246.9.573 1.145.492.409 1.147.409 1.802.409 1.884-.081 3.768-.409 5.57-.899-.328-5.399-.983-10.798-1.884-16.114-.082-.409-.246-.818-.573-.818"/>
        <path fill="#333" d="M672.193 167.93c-1.474.409-2.867.899-4.341 1.308-1.147.328-2.048.655-2.294 1.964-.245 1.308-.081 2.781 0 4.171.082 1.473.246 2.863.492 4.254.246 1.472.491 2.863.819 4.335.246 1.145.491 2.536 1.556 3.19 1.065.654 2.539.409 3.686.245 1.393-.163 2.785-.409 4.177-.818.41-.081.738-.49.656-.899-.246-3.272-.492-6.544-.983-9.816-.246-1.636-.41-3.19-.655-4.826-.164-1.145-.164-2.863-1.557-3.272-1.146-.327-1.638 1.472-.491 1.8-.164-.082 0 .409 0 .572.082.327.082.736.164 1.064.082.736.245 1.39.327 2.126.164 1.391.41 2.781.574 4.172.327 2.781.573 5.48.737 8.262.246-.328.491-.573.655-.9-1.065.327-2.13.572-3.276.736-.574.082-1.147.164-1.72.164-.41 0-1.065.163-1.393-.082-.327-.246-.409-1.064-.573-1.473-.164-.572-.246-1.063-.41-1.636-.245-1.063-.491-2.208-.655-3.353-.328-2.209-.491-4.417-.491-6.708 0-.409-.082-.981.245-1.227.41-.245 1.147-.327 1.639-.49 1.146-.328 2.375-.737 3.522-1.064 1.146-.409.737-2.208-.41-1.799z"/>
        <path fill="#DF357F" d="M669.082 126.704c28.504-.818 37.76 43.843 37.842 44.416.573 6.953-10.648 16.359-31.289 17.75-.901-4.499-3.031-15.46-3.85-19.959 5.734-1.881 3.522-1.963 9.01-3.435-2.703-7.689-1.72-3.108-5.488-11.534"/>
        <path fill="#333" d="M669.081 127.604c7.208-.164 13.842 2.863 19.003 7.77 4.996 4.827 8.682 10.88 11.63 17.096 2.294 4.908 4.096 9.979 5.488 15.133.328 1.145.574 2.29.819 3.435.082.409 0-.245 0 .082 0 .572 0 1.063-.163 1.636-.246 1.309-.901 2.454-1.639 3.517-2.129 2.945-5.406 5.072-8.6 6.707-4.751 2.373-9.993 3.681-15.235 4.418-1.556.245-3.194.409-4.751.49.328.246.574.491.901.655-1.31-6.626-2.539-13.333-3.849-19.959-.246.409-.41.736-.655 1.145 1.638-.572 3.194-1.145 4.668-1.963 1.393-.736 2.785-1.145 4.341-1.554.492-.082.819-.654.656-1.145-.656-1.881-1.311-3.926-2.458-5.644-1.228-1.963-2.211-3.926-3.112-6.053-.492-1.063-2.048-.164-1.556.9.901 2.045 1.884 4.089 3.112 5.971 1.065 1.636 1.638 3.517 2.294 5.317.245-.409.409-.737.655-1.146-1.556.409-3.113.9-4.505 1.636-1.474.737-2.949 1.309-4.505 1.882-.491.163-.737.654-.655 1.145 1.31 6.626 2.539 13.333 3.849 19.958.082.409.492.737.901.655 5.898-.409 11.877-1.473 17.447-3.599 3.931-1.554 7.781-3.599 10.812-6.544 2.047-2.045 3.849-4.744 4.013-7.689.082-1.063-.246-2.127-.491-3.108-1.229-4.99-2.867-9.898-4.915-14.642-2.785-6.626-6.389-13.006-11.303-18.241-4.996-5.398-11.549-9.325-19.003-9.979-.983-.082-1.966-.082-3.03-.082-1.311 0-1.311 1.8-.164 1.8z"/>
        <path fill="#fff" d="M643.608 182.817c3.768-6.953 8.519-13.415 14.007-19.304.327-.327.737-.736.819-1.227.082-.409-.082-.818-.246-1.227-.819-2.127-2.293-4.008-4.177-5.481 1.72-.081 3.522-.081 5.242-.163 2.375-9.734 6.962-18.977 13.269-26.911-2.457-1.309-5.16-2.209-8.027-2.618 0 0-20.149 21.267-20.887 56.931z"/>
        <path fill="#333" d="M644.426 183.308c2.949-5.399 6.389-10.47 10.321-15.133.983-1.145 1.965-2.29 3.03-3.435.901-.9 1.72-1.8 1.557-3.109-.41-2.617-2.703-5.071-4.669-6.707-.246.491-.41 1.063-.655 1.554 1.72-.082 3.522-.082 5.242-.163.409 0 .819-.246.901-.655 2.457-9.652 6.88-18.731 13.023-26.584.328-.409.41-1.145-.164-1.472-1.72-.9-3.604-1.718-5.488-2.209-.901-.245-2.785-.981-3.604-.245-.327.245-.573.654-.819.9-1.638 1.963-3.194 4.008-4.587 6.134-5.569 8.344-9.747 17.587-12.368 27.321-2.047 7.607-3.194 15.459-3.358 23.312 0 1.145 1.802 1.145 1.802 0 .246-11.779 2.703-23.558 7.29-34.437 2.867-6.707 6.471-13.251 10.976-19.059.737-.981 1.556-1.963 2.375-2.862-.328.081-.573.163-.901.245 2.703.409 5.324 1.227 7.781 2.536-.082-.491-.164-.982-.164-1.473-6.388 8.098-10.975 17.341-13.514 27.321.327-.246.573-.491.901-.655-1.721.082-3.522.082-5.243.164-.737 0-1.31 1.063-.655 1.554 1.065.818 1.966 1.718 2.703 2.863.655.9 1.884 2.536 1.147 3.599-.737 1.063-1.802 1.963-2.621 2.945l-2.703 3.19c-3.358 4.253-6.389 8.752-9.01 13.578-.737 1.063.901 2.045 1.474.982zM662.2 211.773v-17.259l-1.228 1.227H685.135l-1.229-1.227v17.259l1.229-1.227h-24.163c-1.556 0-1.556 2.454 0 2.454H685.135c.655 0 1.228-.573 1.228-1.227v-17.259c0-.655-.573-1.227-1.228-1.227h-24.163c-.655 0-1.229.572-1.229 1.227v17.259c0 1.636 2.457 1.636 2.457 0z"/>
        <path fill="#DF357F" d="M619.853 152.388c-1.31 3.027-12.286 19.222-15.562 19.386-2.457.164-4.669-1.227-6.717-2.618-9.665-6.543-18.593-14.314-26.538-22.903l8.682-6.871c1.147-.981 2.54-1.963 4.014-1.636.573.164 14.006 2.945 18.511 5.89"/>
        <path fill="#333" d="M619.034 151.979c-1.065 2.372-2.703 4.581-4.095 6.707-2.048 3.027-4.177 5.972-6.635 8.671-.901 1.063-1.802 2.045-2.948 2.945-.328.245-.82.572-.983.572-.738.246-2.376-.163-3.359-.654-2.621-1.227-4.914-3.108-7.207-4.744-2.54-1.8-4.915-3.763-7.29-5.726-5.242-4.335-10.239-9.08-14.826-14.151v1.309c2.867-2.291 5.652-4.499 8.519-6.79.983-.736 2.047-1.717 3.358-1.472.573.082 1.065.246 1.638.327 2.621.573 5.324 1.309 7.945 2.045 2.949.9 6.143 1.718 8.683 3.436.982.654 1.965-.982.901-1.554-2.458-1.555-5.325-2.454-8.027-3.272-2.785-.9-5.652-1.554-8.519-2.291-.655-.163-1.392-.327-2.048-.49-1.72-.328-3.194.409-4.505 1.39-1.474 1.145-2.866 2.29-4.341 3.436l-4.914 3.926c-.41.327-.328.981 0 1.309 4.341 4.744 8.928 9.161 13.842 13.251 2.376 2.045 4.833 3.926 7.372 5.807 2.457 1.882 4.996 3.845 7.781 5.317 1.72.9 4.178 1.963 6.061 1.064 1.147-.573 2.048-1.473 2.949-2.373 2.621-2.699 4.915-5.725 7.044-8.834 1.884-2.617 3.932-5.398 5.242-8.343.41-.981-1.146-1.881-1.638-.818z"/>
        <path fill="#fff" d="M514.767 190.751c-.574-1.881-.328-3.926.819-5.562.409-.654 1.065-1.309 1.065-2.045.081-.818-.574-1.554-.901-2.29-1.147-2.618.901-5.563 3.276-7.035.491-.245.983-.572 1.065-1.063.082-.327 0-.655 0-.9-.164-1.636.655-3.19 1.72-4.417 1.147-1.145 6.061-1.145 7.126 0 1.147 1.145 1.884 2.781 1.72 4.417 0 .327-.082.654 0 .9.164.491.655.818 1.065 1.063 2.375 1.472 4.423 4.417 3.276 7.035-.328.736-.901 1.472-.901 2.29.082.818.655 1.391 1.065 2.045 1.065 1.636 1.392 3.681.819 5.562-.41 1.145-1.065 2.209-.983 3.436.164 1.472 1.638 2.863 1.147 4.253-.492 1.554-21.378 1.554-21.87 0-.409-1.472.983-2.781 1.147-4.253.41-1.227-.328-2.291-.655-3.436z"/>
        <path fill="#333" d="M515.667 190.506c-.328-1.064-.328-2.127-.082-3.19.328-1.064.983-1.8 1.556-2.781.41-.737.574-1.555.328-2.454-.328-.982-1.065-1.8-1.065-2.863 0-2.127 1.72-3.763 3.358-4.826.656-.409 1.229-.9 1.311-1.718.082-.491-.082-.9 0-1.391 0-.654.164-1.308.491-1.881.328-.654.737-1.39 1.393-1.636.655-.245 1.474-.327 2.129-.327 1.393-.082 2.867 0 3.768 1.145.573.818 1.065 1.8.983 2.863 0 .982-.164 1.8.655 2.536.656.654 1.557 1.063 2.212 1.718.737.736 1.392 1.635 1.638 2.699.573 2.045-1.556 3.517-.901 5.562.246.818.983 1.472 1.392 2.29.492.982.738 2.127.574 3.272-.246 2.045-1.72 3.599-.983 5.726.246.818.819 1.554.983 2.372v.327c-.082.328-.082.409 0 .246l.245-.327c0 .081-.327.163-.081.081-1.639.491-3.359.573-5.079.655-2.621.163-5.242.163-7.781.082-2.212-.082-4.587-.082-6.798-.573-.164 0-.328-.082-.492-.164-.246-.081-.164-.081-.164-.081l-.163-.082s.409.327.245.409c-.164 0 .246-1.309.246-1.391.41-.981.983-1.881.901-2.944.164-1.227-.491-2.291-.819-3.354-.41-1.145-2.212-.655-1.802.491.409 1.063 1.147 2.29.819 3.435-.246 1.063-.983 1.881-1.147 2.945-.164 1.063.164 1.881 1.147 2.29 1.884.654 4.095.654 6.061.736 2.867.164 5.816.164 8.764 0 2.048-.082 4.423-.082 6.389-.736.901-.327 1.393-.818 1.475-1.799 0-.9-.41-1.718-.82-2.618-.573-1.227-.327-2.127.164-3.435.901-2.209.983-4.499-.164-6.626-.491-.982-1.556-1.718-1.146-2.863.409-1.063.983-1.881.983-3.026.082-2.127-1.311-4.254-2.867-5.563-.41-.327-.737-.572-1.147-.899-.573-.409-.655-.491-.655-1.227.082-1.145-.164-2.209-.737-3.272-.901-1.718-2.048-2.536-3.932-2.781-1.556-.246-3.276-.164-4.751.409-1.965.736-3.112 3.353-3.112 5.398 0 .246.164.736.082.982-.082.327-.41.409-.655.572-.492.328-.983.655-1.393 1.064-.901.818-1.638 1.799-2.129 2.944-.41 1.064-.656 2.127-.41 3.272.246 1.227 1.556 2.454.737 3.681-.737 1.064-1.392 2.045-1.638 3.272-.246 1.309-.246 2.618.164 3.845.246 1.145 2.048.654 1.72-.491z"/>
        <path fill="#DF357F" stroke="#333" stroke-miterlimit="10" stroke-width="2" d="M532.704 195.986c-.737-2.29-.409-4.908.983-6.953.573-.818 1.31-1.635 1.392-2.617.082-1.063-.655-1.963-1.064-2.863-1.393-3.272 1.146-6.953 4.095-8.752.573-.327 1.229-.736 1.392-1.391.082-.409 0-.736 0-1.145-.245-2.045.738-4.008 2.212-5.48 1.392-1.473 2.703-2.454 4.423-3.518 1.72.982 3.031 2.045 4.423 3.518 1.392 1.472 2.375 3.435 2.212 5.48 0 .409-.082.736 0 1.145.163.655.819.982 1.392 1.391 3.031 1.881 5.488 5.562 4.095 8.752-.409.982-1.146 1.881-1.064 2.863.081.982.819 1.799 1.392 2.617 1.392 1.964 1.72 4.663.983 6.953-.492 1.391-1.311 2.781-1.229 4.254.164 1.881 1.966 3.517 1.475 5.316-.574 1.882-26.621 1.882-27.194 0-.573-1.799 1.229-3.435 1.474-5.316 0-1.554-.9-2.863-1.392-4.254z"/>
        <path fill="#333" d="M539.011 194.841c2.457 1.063 4.587 2.618 6.389 4.499-.082-.246-.164-.409-.246-.655v12.843c0 1.145 1.802 1.227 1.802 0v-6.462-4.499c0-.655.082-1.473 0-2.127-.082-.654-.819-1.145-1.311-1.554l-1.72-1.472c-1.228-.9-2.539-1.718-4.013-2.373-.983-.245-1.966 1.309-.901 1.8z"/>
        <path fill="#333" d="M546.956 199.095c.491-3.354.573-6.708.327-10.143 0-.491-.409-.9-.901-.9-.491 0-.983.409-.901.9.246 3.19.164 6.462-.327 9.652-.082.491.081.981.655 1.145.409.082 1.065-.164 1.147-.654zM528.035 206.374c-.246-8.506-.327-17.013-.573-25.52 0-1.145-1.884-1.227-1.802 0 .246 8.507.327 17.014.573 25.52 0 1.227 1.884 1.227 1.802 0z"/>
        <path fill="#333" d="M527.052 188.297c-.982-.572-1.883-1.227-2.866-1.717-1.065-.573-2.13-.9-3.277-1.227-.491-.164-.983.163-1.146.654-.082.491.163.982.655 1.145.655.164 1.228.327 1.884.573.082 0 .164.082.164.082.245.081-.164-.082 0 0 .081.081.163.081.245.163.164.082.41.164.574.327.983.573 1.884 1.145 2.866 1.718.41.245.983.082 1.229-.327.246-.573.082-1.145-.328-1.391z"/>
        <path fill="#F0D227" stroke="#333" stroke-miterlimit="10" stroke-width="2" d="M142.54 166.701h-25.667c-1.298 0-2.396-1.101-2.396-2.401V47.735c0-1.301 1.098-2.402 2.396-2.402h25.667c1.298 0 2.397 1.1 2.397 2.402V164.4c0 1.2-.999 2.301-2.397 2.301z"/>
        <path fill="#fff" stroke="#333" stroke-miterlimit="10" stroke-width="2" d="M145.042 163.005h26.166V48.441h-26.166v114.564z"/>
        <path fill="#DF357F" stroke="#333" stroke-miterlimit="10" stroke-width="2" d="M147.733 166.701c1.498 0 2.697-1.201 2.697-2.702V48.035c0-1.501-1.199-2.702-2.697-2.702s-2.696 1.2-2.696 2.702v115.964c-.1 1.501 1.198 2.702 2.696 2.702zM173.899 166.701c1.498 0 2.696-1.201 2.696-2.702V48.035c0-1.501-1.198-2.702-2.696-2.702-1.498 0-2.697 1.2-2.697 2.702v115.964c0 1.501 1.199 2.702 2.697 2.702z"/>
        <path fill="#fff" d="M140.142 53.238H119.27v3.502h20.872v-3.502zM140.142 60.242H119.27v3.502h20.872v-3.502zM140.142 70.148H119.27v25.814h20.872V70.148z"/>
        <path stroke="#333" stroke-miterlimit="10" stroke-width="2" d="M155.423 53.238v81.746M161.016 65.645v30.217M166.509 55.84v60.033"/>
        <path fill="#333" d="M1.124 161.599c1.398 0 1.498-2.201 0-2.201-1.499-.1-1.499 2.201 0 2.201z"/>
        <path fill="#fff" d="M303.831 212.026c-56.726-48.927-102.267-41.723-124.638-45.525 0 0-166.085-5.203-178.069-6.003"/>
        <path fill="#333" d="M304.63 211.227c-14.981-12.908-31.46-23.914-49.636-31.618-13.183-5.603-27.065-9.205-41.147-11.006-9.987-1.301-20.173-1.501-30.16-2.602-1.798-.2-3.596-.6-5.294-.6-1.697-.1-3.395-.1-5.093-.2-7.091-.2-14.182-.4-21.272-.7-10.487-.301-20.873-.701-31.36-1.001-12.084-.4-24.068-.8-36.153-1.201l-35.354-1.2c-9.687-.301-19.375-.701-28.962-1.001-5.693-.2-11.485-.4-17.178-.7-.6 0-1.198-.1-1.798-.1-1.398-.1-1.398 2.201 0 2.201 4.495.3 8.889.4 13.383.6l26.466.901c11.285.4 22.67.8 33.956 1.1l36.253 1.201c10.985.4 22.071.7 33.057 1.101 8.089.3 16.279.5 24.368.8 3.496.1 6.991.1 10.486.3 0 0 .5.1.899.1.999.1 1.898.3 2.897.4 2.097.201 4.194.401 6.191.501 4.994.4 9.988.6 14.981 1.1 12.883 1.101 25.767 3.402 38.051 7.404 17.177 5.604 33.256 14.409 47.838 25.114 4.494 3.302 8.888 6.804 13.083 10.506.998 1.101 2.596-.5 1.498-1.4z"/>
        <path fill="#fff" d="M114.476 45.233H27.589v112.863h86.887V45.233z"/>
        <path fill="#333" d="M27.59 159.298H103.59c3.495 0 7.09.3 10.586 0h.2c.599 0 1.098-.501 1.098-1.101v-11.206-27.015-32.618-28.216-9.305c0-1.501.1-3.002 0-4.403v-.2c0-.6-.499-1.1-1.098-1.1H38.375c-3.495 0-7.09-.3-10.586 0h-.2c-.599 0-1.098.5-1.098 1.1V153.594c0 1.501-.1 3.002 0 4.403v.2c0 1.401 2.197 1.501 2.197 0v-11.206-27.015-32.618-28.216-9.305c0-1.401.2-3.002 0-4.403v-.2c-.4.4-.7.8-1.099 1.2h83.192c1.099 0 2.397.2 3.396 0h.2l-1.099-1.1V153.694c0 1.401-.2 3.002 0 4.403v.2l1.099-1.101H38.375c-3.495 0-7.09-.3-10.586 0h-.2c-1.498-.2-1.498 2.102 0 2.102z"/>
        <path fill="#DF357F" d="M114.476 45.233H27.589v6.404h86.887v-6.404z"/>
        <path fill="#333" d="M27.59 52.838H103.59c3.495 0 7.091.3 10.586 0h.2c.599 0 1.098-.5 1.098-1.1v-6.404c0-.6-.499-1.1-1.098-1.1H38.375c-3.495 0-7.09-.3-10.586 0h-.2c-.599 0-1.098.5-1.098 1.1v6.404c0 1.4 2.197 1.5 2.197 0v-6.404c-.4.3-.7.7-1.099 1.1h83.192c1.099 0 2.397.2 3.396 0h.2l-1.099-1.1v6.404l1.099-1.1H38.375c-3.495 0-7.09-.301-10.586 0h-.2c-1.498-.101-1.498 2.2 0 2.2z"/>
        <path fill="#fff" d="M3.12 150.492c-.898-2.602-.399-5.603 1.1-7.905.598-.9 1.497-1.801 1.497-2.901.1-1.201-.799-2.201-1.198-3.302-1.598-3.702 1.298-7.904 4.694-10.006.599-.4 1.398-.8 1.598-1.601.1-.4 0-.9 0-1.3-.2-2.302.898-4.603 2.496-6.204 1.598-1.701 8.59-1.701 10.187 0 1.598 1.701 2.697 3.902 2.497 6.204 0 .4-.1.9 0 1.3.2.701.899 1.201 1.598 1.601 3.395 2.102 6.292 6.304 4.694 10.006-.5 1.101-1.299 2.101-1.199 3.302.1 1.1.899 2.001 1.498 2.901 1.598 2.302 1.998 5.303 1.099 7.905-.5 1.601-1.498 3.102-1.398 4.802.2 2.102 2.297 4.003 1.697 6.104-.599 2.201-30.36 2.201-30.96 0-.599-2.101 1.399-4.002 1.698-6.104 0-1.7-.998-3.201-1.598-4.802z"/>
        <path fill="#333" d="M4.22 150.192c-.4-1.5-.5-3.001-.2-4.502.4-1.601 1.498-2.702 2.297-4.102.6-1.101.799-2.202.4-3.402-.5-1.501-1.499-2.602-1.499-4.303.1-2.801 2.297-5.203 4.594-6.703.999-.701 1.898-1.301 2.098-2.502.1-.7-.1-1.401-.1-2.101 0-1.001.3-1.901.799-2.702.499-.9 1.098-1.901 1.997-2.301.899-.4 2.097-.5 3.096-.5 1.598-.1 3.995-.1 5.093 1.201 1 1.2 1.798 2.701 1.898 4.302 0 1.401-.3 2.601.799 3.702.899.901 2.197 1.501 3.096 2.401 1.098 1.101 1.997 2.302 2.497 3.803.4 1.2.3 2.401-.2 3.602-.6 1.4-1.498 2.601-1.099 4.202.3 1.301 1.299 2.201 1.898 3.302.799 1.4 1.198 2.901 1.098 4.502-.2 3.002-2.496 5.403-1.498 8.505.4 1.201 1.399 2.401 1.498 3.702v.3c-.1.4-.1.5 0 .2-.399 0 .3-.2.1-.1.5-.2-.4.1 0 0-2.297.701-4.694.801-7.09.901-3.696.2-7.39.2-11.086.1-3.296-.1-6.691-.1-9.887-.801-.2 0-.4-.1-.7-.2-.299-.1-.399-.1-.299-.1-.2 0-.2-.1-.1-.1.3.2.1.701.1 0 .1-.5.1-.9.3-1.401.499-1.4 1.398-2.601 1.498-4.002.1-1.601-.8-3.202-1.398-4.903-.5-1.4-2.697-.8-2.198.601.5 1.601 1.598 3.201 1.199 4.902-.4 1.501-1.398 2.802-1.598 4.303-.2 1.501.3 2.501 1.698 3.002 2.696.9 5.892.9 8.688 1 4.095.2 8.09.2 12.185 0 2.896-.1 6.092-.1 8.888-1 1.199-.401 1.898-1.001 1.998-2.402 0-1.401-.7-2.701-1.299-3.902-.899-2.001-.2-3.402.5-5.203 1.098-2.902.998-6.203-.5-8.905-.799-1.501-2.297-2.501-1.398-4.302.7-1.401 1.398-2.702 1.298-4.403-.1-2.901-1.797-5.503-3.994-7.304-.5-.5-1.1-.9-1.698-1.301-.9-.6-.999-.8-.999-1.901.1-1.701-.3-3.401-1.198-4.802-1.299-2.302-2.897-3.302-5.493-3.702-2.098-.3-4.494-.2-6.492.6-2.896 1.201-4.394 5.003-4.194 7.904 0 .501.2.901-.1 1.301-.2.3-.8.6-1.099.801-.699.5-1.398 1-1.997 1.6-1.099 1.101-2.098 2.402-2.697 3.903-.599 1.501-.899 3.101-.5 4.602.2.901.6 1.601 1 2.402.499 1.1.699 1.701 0 2.801-1 1.601-1.998 2.902-2.397 4.703-.4 1.801-.3 3.502.2 5.303.499 1.4 2.596.8 2.197-.601z"/>
        <path fill="#DF357F" d="M29.487 157.896c-1.099-3.302-.5-7.004 1.398-9.905.799-1.201 1.797-2.302 1.897-3.702.1-1.501-.998-2.802-1.598-4.103-1.997-4.602 1.598-9.805 5.793-12.507.799-.5 1.698-1 1.897-2.001.1-.5 0-1.1 0-1.601-.3-2.901 1.099-5.703 3.096-7.804 1.998-2.101 3.795-3.502 6.292-5.003 2.497 1.401 4.295 2.902 6.292 5.003 1.997 2.101 3.396 4.903 3.096 7.804-.1.501-.2 1.101 0 1.601.2.901 1.099 1.501 1.898 2.001 4.294 2.702 7.79 7.905 5.792 12.507-.6 1.401-1.598 2.602-1.598 4.103.1 1.4 1.099 2.501 1.898 3.702 1.897 2.801 2.496 6.603 1.398 9.905-.7 2.001-1.898 3.902-1.698 6.004.3 2.701 2.796 5.002 2.097 7.604-.799 2.701-37.75 2.701-38.55 0-.799-2.602 1.798-4.903 2.098-7.604.4-2.102-.8-4.003-1.498-6.004z"/>
        <path fill="#333" d="M30.585 157.597c-.499-1.801-.699-3.602-.2-5.503.4-1.801 1.3-3.202 2.298-4.603.998-1.401 1.598-2.902 1.098-4.603-.499-1.701-1.697-3.101-1.897-4.902-.3-3.302 2.097-6.404 4.494-8.405 1.198-1.001 2.896-1.601 3.595-3.102.3-.7.3-1.401.2-2.201-.1-1.001-.1-2.001.2-2.902 1.098-4.102 5.093-7.003 8.589-9.105h-1.099c2.497 1.401 4.794 3.202 6.691 5.403.9 1.101 1.698 2.402 1.998 3.802.4 1.501-.2 3.002.2 4.503.3 1.101 1.198 1.801 2.197 2.401 1.198.801 2.297 1.601 3.295 2.602 1.598 1.801 2.996 4.202 2.897 6.704-.2 2.701-2.697 4.702-1.898 7.604.3 1.2 1.199 2.201 1.898 3.202.799 1.2 1.398 2.601 1.697 4.102.2 1.401.2 2.801-.1 4.102-.399 1.501-1.098 2.902-1.597 4.303-.8 2.601 0 4.602 1.098 7.003.2.501.5 1.101.6 1.701.1.401.1.701.1 1.001 0 .8-.2.2 0 .1 0 0 .1-.2.199-.2 0 0-.3.2-.4.2.3-.1-.2 0-.2.1-.199.1-.299.1-.498.1-.5.1-.9.2-1.399.3-2.596.4-5.393.601-7.99.701-6.69.3-13.382.3-19.973-.301-1.299-.1-2.697-.2-3.995-.5-.5-.1-.9-.2-1.398-.3-.2-.1-.4-.1-.6-.2-.3-.1.1 0-.2-.1-.299-.1.1 0-.1-.1.9.5 0 .1.1.1.1.3.1.3 0-.1v-.701c.1-1.3 1-2.501 1.499-3.702.599-1.3.898-2.701.699-4.102-.7-1.301-1.598-2.801-2.098-4.402-.499-1.401-2.596-.801-2.197.6.5 1.501 1.299 2.902 1.598 4.402.3 1.601-.5 3.002-1.098 4.503-.7 1.501-1.798 4.002-.4 5.503 1.099 1.201 3.695 1.301 5.194 1.501 6.79.9 13.881.8 20.673.6 3.196-.1 6.391-.3 9.587-.7 1.398-.2 3.895-.3 4.794-1.701 1.099-1.901-.4-4.503-1.099-6.204-.699-1.5-.898-2.701-.4-4.302.5-1.501 1.3-3.002 1.599-4.503.6-2.801.3-5.803-.999-8.404-.6-1.201-1.498-2.101-2.097-3.302-.999-1.801.3-3.102.999-4.803 1.198-2.701.699-5.703-.7-8.304-.699-1.301-1.597-2.502-2.696-3.502-.6-.601-1.199-1.101-1.798-1.501-.599-.5-1.498-.801-1.997-1.401-.7-.7-.4-1.501-.4-2.401 0-.801 0-1.601-.2-2.302-.399-1.701-1.198-3.301-2.296-4.702-1.998-2.602-4.694-4.703-7.49-6.304-.3-.2-.8-.2-1.1 0-3.195 1.901-6.39 4.303-8.388 7.504-.999 1.601-1.598 3.502-1.598 5.403 0 1.001.4 2.002-.4 2.802-.599.6-1.498 1.001-2.197 1.501-2.696 2.101-5.093 5.103-5.593 8.505-.2 1.601-.1 3.201.6 4.602.4.901.998 1.701 1.298 2.702.3 1.1-.2 2.001-.899 2.901-2.497 3.502-3.595 7.505-2.297 11.807.2 1.401 2.397.9 1.997-.5z"/>
        <path fill="#333" d="M38.575 156.096c3.495 1.5 6.491 3.702 9.088 6.503-.1-.3-.2-.5-.3-.8v18.31c0 1.401 2.197 1.501 2.197 0v-9.205-6.304c0-.9.2-2.001 0-3.001-.2-.901-1.098-1.501-1.797-2.101-.8-.701-1.598-1.401-2.397-2.002-1.798-1.3-3.695-2.401-5.693-3.301-1.298-.601-2.497 1.3-1.098 1.901z"/>
        <path fill="#333" d="M49.461 162.299c.7-4.802.8-9.605.5-14.408-.1-1.4-2.297-1.4-2.198 0 .3 4.603.2 9.206-.399 13.808-.1.6.1 1.201.799 1.401.4.1 1.198-.2 1.298-.801zM21.797 172.705c-.4-12.107-.4-24.213-.799-36.32 0-1.401-2.297-1.501-2.197 0 .4 12.107.4 24.213.799 36.32 0 1.401 2.297 1.501 2.197 0z"/>
        <path fill="#333" d="M20.498 147.091c-4.195-2.402-8.689-4.203-13.283-5.503-1.398-.401-1.997 1.801-.599 2.201 4.494 1.301 8.689 3.002 12.784 5.303 1.198.6 2.396-1.301 1.098-2.001z"/>
        <path fill="#333" d="M13.008 143.489c.6-2.501 1.199-4.903 1.898-7.404.1-.601-.2-1.201-.8-1.401-.599-.1-1.198.2-1.397.8-.6 2.502-1.199 4.903-1.898 7.405-.1.6.2 1.2.799 1.4.6.1 1.298-.2 1.398-.8z"/>
        <path fill="#DF357F" d="M185.185 162.599c-1.099-3.302-.5-7.004 1.398-9.906.799-1.2 1.798-2.301 1.898-3.702.099-1.501-.999-2.801-1.598-4.102-1.998-4.603 1.598-9.805 5.792-12.507.799-.5 1.698-1.001 1.898-2.001.099-.5 0-1.101 0-1.601-.3-2.902 1.098-5.703 3.096-7.804 1.997-2.101 3.795-3.502 6.291-5.003 2.497 1.401 4.295 2.902 6.292 5.003 1.998 2.101 3.396 4.902 3.096 7.804-.1.5-.199 1.101 0 1.601.2.9 1.099 1.501 1.898 2.001 4.294 2.702 7.79 7.904 5.792 12.507-.599 1.401-1.598 2.601-1.598 4.102.1 1.401 1.099 2.502 1.898 3.702 1.897 2.802 2.497 6.604 1.398 9.906-.699 2.001-1.897 3.902-1.698 6.003.3 2.702 2.797 5.003 2.098 7.604-.799 2.702-37.751 2.702-38.55 0-.799-2.601 1.797-4.902 2.097-7.604.399-2.001-.799-4.002-1.498-6.003z"/>
        <path fill="#333" d="M186.284 162.299c-.5-1.801-.699-3.602-.2-5.503.399-1.801 1.298-3.202 2.297-4.602.999-1.401 1.598-2.902 1.099-4.603-.5-1.701-1.698-3.102-1.898-4.903-.3-3.302 2.097-6.403 4.494-8.404 1.199-1.001 2.896-1.601 3.596-3.102.299-.7.299-1.401.199-2.201-.1-1.001-.1-2.001.2-2.902 1.099-4.102 5.093-7.004 8.589-9.105h-1.099c2.497 1.401 4.794 3.202 6.692 5.403.898 1.101 1.697 2.401 1.997 3.802.4 1.501-.2 3.002.2 4.503.299 1.1 1.198 1.801 2.197 2.401 1.198.8 2.297 1.601 3.296 2.601 1.598 1.801 2.996 4.203 2.896 6.704-.2 2.702-2.697 4.703-1.898 7.604.3 1.201 1.199 2.202 1.898 3.202.799 1.201 1.398 2.602 1.698 4.102.199 1.401.199 2.802-.1 4.103-.4 1.501-1.099 2.901-1.598 4.302-.799 2.602 0 4.603 1.098 7.004.2.5.5 1.101.6 1.701.1.4.1.7.1 1.001 0 .8-.2.2 0 .1 0 0 .099-.2.199-.2 0 0-.299.2-.399.2.299-.1-.2 0-.2.1-.2.1-.3.1-.499.1-.5.1-.899.2-1.398.3-2.597.4-5.393.6-7.99.7-6.691.3-13.383.3-19.974-.3-1.298-.1-2.697-.2-3.995-.5-.499-.1-.899-.2-1.398-.3-.2-.1-.4-.1-.599-.2-.3-.1.099 0-.2-.1-.3-.101.1 0-.1-.101.899.501 0 .101.1.101.1.3.1.3 0-.101v-.7c.1-1.301.999-2.501 1.498-3.702.599-1.301.899-2.702.699-4.102-.699-1.301-1.498-2.802-2.097-4.403-.5-1.401-2.597-.8-2.197.601.499 1.5 1.298 2.901 1.597 4.402.3 1.601-.499 3.002-1.098 4.503-.699 1.5-1.798 4.002-.4 5.503 1.099 1.2 3.696 1.3 5.194 1.5 6.791.901 13.882.801 20.673.601 3.196-.1 6.392-.3 9.587-.701 1.399-.2 3.895-.3 4.794-1.701 1.099-1.901-.399-4.502-1.098-6.203-.699-1.501-.899-2.701-.4-4.302.5-1.501 1.298-3.002 1.598-4.503.599-2.801.3-5.803-.999-8.405-.599-1.2-1.498-2.101-2.097-3.301-.999-1.801.3-3.102.999-4.803 1.198-2.702.699-5.703-.699-8.305-.699-1.3-1.598-2.501-2.697-3.502-.599-.6-1.198-1.1-1.797-1.501-.6-.5-1.499-.8-1.998-1.4-.699-.701-.399-1.501-.399-2.402 0-.8 0-1.601-.2-2.301-.4-1.701-1.199-3.302-2.297-4.703-1.998-2.601-4.694-4.702-7.49-6.303-.3-.2-.799-.2-1.099 0-3.196 1.901-6.392 4.302-8.389 7.504-.999 1.601-1.598 3.502-1.598 5.403 0 1.001.399 2.001-.399 2.802-.6.6-1.499 1-2.198 1.501-2.696 2.101-5.093 5.102-5.592 8.504-.2 1.601-.1 3.202.599 4.603.399.9.999 1.701 1.298 2.701.3 1.101-.2 2.001-.899 2.902-2.496 3.502-3.595 7.504-2.297 11.807.3 1.5 2.497.9 1.998-.501z"/>
        <path fill="#333" d="M194.274 160.898c3.495 1.501 6.491 3.702 9.088 6.504-.1-.3-.2-.5-.3-.8v18.31c0 1.401 2.197 1.501 2.197 0v-9.205-6.304c0-.9.2-2.001 0-3.002-.199-.9-1.098-1.5-1.797-2.101-.799-.7-1.598-1.4-2.397-2.001-1.798-1.301-3.696-2.401-5.693-3.302-1.298-.6-2.397 1.301-1.098 1.901z"/>
        <path fill="#333" d="M205.159 167.002c.7-4.803.799-9.605.5-14.408-.1-1.401-2.297-1.401-2.197 0 .299 4.603.199 9.205-.4 13.808-.1.6.1 1.2.799 1.401.5.2 1.199-.201 1.298-.801z"/>
        <path fill="#fff" d="M73.83 124.077l36.052-16.109 36.153 16.109v4.303l.1.1v58.332H73.829v-62.735z"/>
        <path fill="#333" d="M74.428 125.078c10.587-4.702 21.073-9.405 31.659-14.107 1.498-.701 2.897-1.301 4.395-2.002h-1.099c10.586 4.703 21.173 9.406 31.659 14.108 1.498.701 2.896 1.301 4.394 2.001-.199-.3-.399-.6-.599-1v4.302c0 .401.2.801.599 1.001h.1c-.2-.3-.399-.6-.599-1.001v58.333l1.099-1.101H73.729l1.099 1.101v-21.212-33.819-7.804c0-1.401-2.197-1.501-2.197 0v62.835c0 .6.5 1.1 1.098 1.1h72.307c.599 0 1.098-.5 1.098-1.1v-19.711-31.418-7.204c0-.4-.2-.8-.599-1h-.1c.2.3.4.6.599 1v-4.302c0-.4-.199-.801-.599-1.001-10.686-4.702-21.372-9.505-31.958-14.208-1.399-.6-2.697-1.3-4.095-1.801-1.099-.4-2.697.701-3.795 1.101-6.192 2.802-12.384 5.503-18.576 8.305-4.994 2.201-9.887 4.402-14.88 6.603-1.2.601 0 2.602 1.297 2.001z"/>
        <path fill="#fff" d="M118.271 186.812h72.207V128.48l-36.153-16.109-36.054 16.109v58.332z"/>
        <path fill="#333" d="M118.272 187.914h72.306c.599 0 1.098-.501 1.098-1.101v-19.711-31.418-7.204c0-.4-.199-.8-.599-1-10.686-4.803-21.372-9.505-32.058-14.308-1.398-.6-2.697-1.301-4.095-1.801-1.098-.4-2.696.7-3.795 1.101-6.192 2.801-12.384 5.503-18.576 8.304-4.993 2.201-9.887 4.403-14.881 6.604-.399.2-.599.6-.599 1v58.333c0 1.401 2.197 1.501 2.197 0v-19.711-31.418-7.204c-.199.301-.399.601-.599 1.001 10.586-4.703 21.073-9.405 31.659-14.108 1.498-.7 2.896-1.301 4.394-2.001h-1.098l31.759 14.108c1.498.7 2.996 1.301 4.394 2.001-.2-.3-.4-.6-.599-1.001v58.333l1.098-1.101h-72.306c-1.198.1-1.198 2.302.3 2.302z"/>
        <path fill="#DF357F" d="M154.324 107.969l36.054 16.108v9.406l-36.054-16.009-35.953 16.009v-9.406l35.953-16.108z"/>
        <path fill="#333" d="M153.726 108.97c10.586 4.702 21.172 9.405 31.659 14.108 1.498.7 2.896 1.3 4.394 2.001-.2-.301-.4-.601-.599-1.001v9.405c.599-.3 1.098-.6 1.697-1-10.586-4.703-21.272-9.406-31.858-14.208-1.398-.601-2.797-1.401-4.195-1.901-1.098-.4-2.696.7-3.795 1.1-6.192 2.702-12.284 5.503-18.476 8.205-4.993 2.201-9.987 4.402-14.881 6.704.6.3 1.099.6 1.698 1v-9.405c-.199.3-.399.6-.599 1.001 10.486-4.703 20.973-9.406 31.559-14.108 1.498-.701 2.996-1.301 4.394-2.001 1.299-.601.2-2.502-1.098-1.901-10.487 4.702-20.973 9.405-31.559 14.107-1.498.701-2.996 1.301-4.395 2.002-.399.2-.599.6-.599 1v9.405c0 .901.899 1.301 1.698 1.001 10.486-4.703 20.973-9.405 31.559-14.108 1.498-.7 2.996-1.301 4.394-2.001h-1.098c10.586 4.703 21.172 9.405 31.659 14.108 1.498.7 2.896 1.3 4.394 2.001.799.3 1.698 0 1.698-1.001v-9.405c0-.4-.2-.8-.599-1-10.587-4.703-21.173-9.406-31.659-14.108-1.498-.701-2.897-1.301-4.395-2.001-1.198-.501-2.297 1.4-.998 2.001z"/>
        <path fill="#DF357F" d="M166.71 161.298h-24.668v25.514h24.668v-25.514z"/>
        <path fill="#333" d="M142.042 187.913H166.709c.6 0 1.099-.5 1.099-1.1V164.5v-3.201c0-.601-.499-1.101-1.099-1.101H142.042c-.6 0-1.099.5-1.099 1.101V186.813c0 1.401 2.197 1.501 2.197 0V164.5v-3.201l-1.098 1.1H166.709l-1.098-1.1V186.813l1.098-1.101H142.042c-1.499 0-1.499 2.201 0 2.201z"/>
        <path fill="#DF357F" d="M176.696 141.887h-7.69v7.705h7.69v-7.705z"/>
        <path fill="#333" d="M169.006 150.693H176.696c.599 0 1.098-.5 1.098-1.101v-6.703-1.001c0-.6-.499-1.101-1.098-1.101h-7.69c-.599 0-1.099.501-1.099 1.101v7.704c0 .601.5 1.101 1.099 1.101s1.098-.5 1.098-1.101v-6.703-1.001l-1.098 1.101H176.696l-1.099-1.101v7.704l1.099-1.1h-7.69c-.599 0-1.099.5-1.099 1.1 0 .601.5 1.101 1.099 1.101z"/>
        <path fill="#DF357F" d="M158.22 141.887h-7.69v7.705h7.69v-7.705z"/>
        <path fill="#333" d="M150.53 150.693h7.69c.599 0 1.099-.5 1.099-1.101v-6.703-1.001c0-.6-.5-1.101-1.099-1.101H150.53c-.599 0-1.098.501-1.098 1.101v7.704c0 .601.499 1.101 1.098 1.101.599 0 1.099-.5 1.099-1.101v-6.703-1.001l-1.099 1.101h7.69l-1.098-1.101v7.704l1.098-1.1H150.53c-.599 0-1.098.5-1.098 1.1 0 .601.499 1.101 1.098 1.101z"/>
        <path fill="#DF357F" d="M139.744 141.887h-7.69v7.705h7.69v-7.705z"/>
        <path fill="#333" d="M132.054 150.693H139.744c.599 0 1.098-.5 1.098-1.101v-6.703-1.001c0-.6-.499-1.101-1.098-1.101h-7.69c-.6 0-1.099.501-1.099 1.101v7.704c-.1.601.499 1.101 1.099 1.101.599 0 1.098-.5 1.098-1.101v-6.703-1.001l-1.098 1.101H139.744l-1.099-1.101v7.704l1.099-1.1h-7.69c-.6 0-1.099.5-1.099 1.1-.1.601.4 1.101 1.099 1.101z"/>
        <path fill="#DF357F" d="M110.383 145.389H81.62v5.103h28.763v-5.103z"/>
        <path fill="#333" d="M81.62 151.593h28.762c.6 0 1.099-.5 1.099-1.1v-5.103c0-.6-.499-1.101-1.099-1.101H81.62c-.6 0-1.099.501-1.099 1.101v5.103c0 1.401 2.197 1.501 2.197 0v-5.103l-1.098 1.101h28.762l-1.098-1.101v5.103l1.098-1.101H81.62c-1.498 0-1.498 2.201 0 2.201z"/>
        <path fill="#DF357F" d="M110.383 156.095H81.62v5.103h28.763v-5.103z"/>
        <path fill="#333" d="M81.62 162.399h28.762c.6 0 1.099-.5 1.099-1.1v-5.103c0-.601-.499-1.101-1.099-1.101H81.62c-.6 0-1.099.5-1.099 1.101v5.103c0 1.4 2.197 1.501 2.197 0v-5.103l-1.098 1.1h28.762l-1.098-1.1v5.103l1.098-1.101H81.62c-1.498-.1-1.498 2.201 0 2.201z"/>
        <path fill="#DF357F" d="M110.383 166.901H81.62v5.103h28.763v-5.103z"/>
        <path fill="#333" d="M81.62 173.105h28.762c.6 0 1.099-.5 1.099-1.1v-5.103c0-.6-.499-1.101-1.099-1.101H81.62c-.6 0-1.099.501-1.099 1.101v5.103c0 1.401 2.197 1.501 2.197 0v-5.103l-1.098 1.101h28.762l-1.098-1.101v5.103l1.098-1.101H81.62c-1.498 0-1.498 2.201 0 2.201z"/>
        <path fill="#DF357F" d="M154.326 107.969h-44.443L73.83 124.077h44.542l35.954-16.108z"/>
        <path fill="#333" d="M154.326 106.868h-43.743c-.999 0-1.698.401-2.597.801-6.192 2.701-12.284 5.503-18.476 8.204l-16.18 7.204c-1.098.501-.498 2.102.6 2.102H117.673c.999 0 1.698-.301 2.597-.701 6.092-2.701 12.284-5.503 18.376-8.204 5.393-2.402 10.886-4.803 16.279-7.304 1.298-.601.2-2.502-1.099-1.901-11.085 4.902-22.171 9.905-33.256 14.808-.799.3-1.598.7-2.297 1-.1 0-.3.1-.4.2.2-.3.799-.1.4-.1-.6-.1-1.299 0-1.898 0H74.03l.6 2.102c11.085-4.903 22.17-9.906 33.156-14.809.799-.4 1.598-.7 2.397-1.1.1-.1.3-.1.4-.2 0 0-.799 0-.4.1.499.1 1.298 0 1.798 0H154.426c1.298.1 1.298-2.202-.1-2.202z"/>
        <path fill="#DF357F" d="M118.272 124.077H73.63v9.406h44.642v-9.406z"/>
        <path fill="#333" d="M73.63 134.684h44.642c.599 0 1.098-.5 1.098-1.101v-9.405c0-.6-.499-1.101-1.098-1.101H73.63c-.6 0-1.099.501-1.099 1.101v9.405c0 1.401 2.197 1.501 2.197 0v-9.405l-1.098 1.101h44.642l-1.099-1.101v9.405l1.099-1.1H73.63c-1.398-.1-1.398 2.201 0 2.201zM144.938 161.299V186.813c0 1.401 2.197 1.501 2.197 0v-22.312-3.202c.1-1.501-2.197-1.501-2.197 0zM161.416 176.007c1.103 0 1.998-.896 1.998-2.001s-.895-2.001-1.998-2.001-1.997.896-1.997 2.001.894 2.001 1.997 2.001z"/>
        <path fill="#DF357F" d="M99.396 65.645h-7.69v7.704h7.69v-7.704z"/>
        <path fill="#333" d="M91.706 74.45H99.396c.6 0 1.099-.5 1.099-1.1v-6.704-1c0-.6-.5-1.101-1.099-1.101H91.706c-.6 0-1.099.5-1.099 1.1v7.704c0 .601.5 1.101 1.099 1.101.6 0 1.099-.5 1.099-1.1v-6.704-1l-1.099 1.1H99.396l-1.099-1.1v7.703l1.099-1.1H91.706c-.6 0-1.099.5-1.099 1.1 0 .601.5 1.101 1.099 1.101z"/>
        <path fill="#DF357F" d="M82.618 65.645h-7.69v7.704h7.69v-7.704z"/>
        <path fill="#333" d="M74.928 74.45H82.618c.599 0 1.098-.5 1.098-1.1v-6.704-1c0-.6-.5-1.101-1.098-1.101h-7.69c-.6 0-1.099.5-1.099 1.1v7.704c0 .601.5 1.101 1.099 1.101s1.098-.5 1.098-1.1v-6.704-1l-1.098 1.1H82.618l-1.099-1.1v7.703l1.099-1.1h-7.69c-.6 0-1.099.5-1.099 1.1 0 .601.5 1.101 1.099 1.101z"/>
        <path fill="#DF357F" d="M65.84 65.645h-7.69v7.704h7.69v-7.704z"/>
        <path fill="#333" d="M58.15 74.45h7.69c.599 0 1.098-.5 1.098-1.1v-6.704-1c0-.6-.5-1.101-1.099-1.101h-7.69c-.599 0-1.098.5-1.098 1.1v7.704c0 .601.5 1.101 1.098 1.101.6 0 1.099-.5 1.099-1.1v-6.704-1l-1.099 1.1h7.69l-1.098-1.1v7.703l1.098-1.1h-7.69c-.599 0-1.098.5-1.098 1.1 0 .601.5 1.101 1.098 1.101z"/>
        <path fill="#DF357F" d="M49.061 65.645h-7.69v7.704h7.69v-7.704z"/>
        <path fill="#333" d="M41.371 74.45h7.691c.598 0 1.098-.5 1.098-1.1v-6.704-1c0-.6-.5-1.101-1.099-1.101H41.371c-.6 0-1.099.5-1.099 1.1v7.704c0 .601.5 1.101 1.099 1.101.6 0 1.099-.5 1.099-1.1v-6.704-1l-1.099 1.1h7.691l-1.1-1.1v7.703l1.1-1.1H41.37c-.6 0-1.099.5-1.099 1.1 0 .601.5 1.101 1.099 1.101z"/>
        <path fill="#DF357F" d="M99.396 82.654h-7.69v7.705h7.69v-7.704z"/>
        <path fill="#333" d="M91.706 91.46H99.396c.6 0 1.099-.5 1.099-1.1v-6.704-1c0-.601-.5-1.102-1.099-1.102H91.706c-.6 0-1.099.5-1.099 1.101v7.704c0 .5.5 1.101 1.099 1.101.6 0 1.099-.5 1.099-1.1v-6.704-1l-1.099 1.1H99.396l-1.099-1.1v7.703l1.099-1.1H91.706c-.6 0-1.099.5-1.099 1.1 0 .6.5 1.101 1.099 1.101z"/>
        <path fill="#DF357F" d="M82.618 82.654h-7.69v7.705h7.69v-7.704z"/>
        <path fill="#333" d="M74.928 91.46H82.618c.599 0 1.098-.5 1.098-1.1v-6.704-1c0-.601-.5-1.102-1.098-1.102h-7.69c-.6 0-1.099.5-1.099 1.101v7.704c0 .5.5 1.101 1.099 1.101s1.098-.5 1.098-1.1v-6.704-1l-1.098 1.1H82.618l-1.099-1.1v7.703l1.099-1.1h-7.69c-.6 0-1.099.5-1.099 1.1 0 .6.5 1.101 1.099 1.101z"/>
        <path fill="#DF357F" d="M65.84 82.654h-7.69v7.705h7.69v-7.704z"/>
        <path fill="#333" d="M58.15 91.46h7.69c.599 0 1.098-.5 1.098-1.1v-6.704-1c0-.601-.5-1.102-1.099-1.102h-7.69c-.599 0-1.098.5-1.098 1.101v7.704c0 .5.5 1.101 1.098 1.101.6 0 1.099-.5 1.099-1.1v-6.704-1l-1.099 1.1h7.69l-1.098-1.1v7.703l1.098-1.1h-7.69c-.599 0-1.098.5-1.098 1.1 0 .6.5 1.101 1.098 1.101z"/>
        <path fill="#DF357F" d="M49.061 82.654h-7.69v7.705h7.69v-7.704z"/>
        <path fill="#333" d="M41.371 91.46h7.691c.598 0 1.098-.5 1.098-1.1v-6.704-1c0-.601-.5-1.102-1.099-1.102H41.371c-.6 0-1.099.5-1.099 1.101v7.704c0 .5.5 1.101 1.099 1.101.6 0 1.099-.5 1.099-1.1v-6.704-1l-1.099 1.1h7.691l-1.1-1.1v7.703l1.1-1.1H41.37c-.6 0-1.099.5-1.099 1.1 0 .6.5 1.101 1.099 1.101z"/>
        <path fill="#DF357F" d="M99.396 99.564h-7.69v7.704h7.69v-7.704z"/>
        <path fill="#333" d="M91.706 108.369H99.396c.6 0 1.099-.5 1.099-1.1v-6.704-1c0-.601-.5-1.101-1.099-1.101H91.706c-.6 0-1.099.5-1.099 1.1v7.705c0 .6.5 1.1 1.099 1.1.6 0 1.099-.5 1.099-1.1v-6.704-1l-1.099 1.1H99.396l-1.099-1.1V107.268l1.099-1.101H91.706c-.6 0-1.099.5-1.099 1.101 0 .6.5 1.1 1.099 1.1z"/>
        <path fill="#DF357F" d="M82.618 99.564h-7.69v7.704h7.69v-7.704z"/>
        <path fill="#333" d="M74.928 108.369H82.618c.599 0 1.098-.5 1.098-1.1v-6.704-1c0-.601-.5-1.101-1.098-1.101h-7.69c-.6 0-1.099.5-1.099 1.1v7.705c0 .6.5 1.1 1.099 1.1s1.098-.5 1.098-1.1v-6.704-1l-1.098 1.1H82.618l-1.099-1.1V107.268l1.099-1.101h-7.69c-.6 0-1.099.5-1.099 1.101 0 .6.5 1.1 1.099 1.1z"/>
        <path fill="#DF357F" d="M65.84 99.564h-7.69v7.704h7.69v-7.704z"/>
        <path fill="#333" d="M58.15 108.369h7.69c.599 0 1.098-.5 1.098-1.1v-6.704-1c0-.601-.5-1.101-1.099-1.101h-7.69c-.599 0-1.098.5-1.098 1.1v7.705c0 .6.5 1.1 1.098 1.1.6 0 1.099-.5 1.099-1.1v-6.704-1l-1.099 1.1h7.69l-1.098-1.1V107.268l1.098-1.101h-7.69c-.599 0-1.098.5-1.098 1.101 0 .6.5 1.1 1.098 1.1z"/>
        <path fill="#DF357F" d="M49.061 99.564h-7.69v7.704h7.69v-7.704z"/>
        <path fill="#333" d="M41.371 108.369h7.691c.598 0 1.098-.5 1.098-1.1v-6.704-1c0-.601-.5-1.101-1.099-1.101H41.371c-.6 0-1.099.5-1.099 1.1v7.705c0 .6.5 1.1 1.099 1.1.6 0 1.099-.5 1.099-1.1v-6.704-1l-1.099 1.1h7.691l-1.1-1.1V107.268l1.1-1.101H41.37c-.6 0-1.099.5-1.099 1.101 0 .6.5 1.1 1.099 1.1z"/>
        <path fill="#fff" d="M231.324 143.788h-2.596v53.93h2.596v-53.93z"/>
        <path fill="#333" d="M228.728 198.82h2.597c.599 0 1.098-.501 1.098-1.101v-18.21-29.016-6.604c0-.6-.499-1.101-1.098-1.101h-2.597c-.599 0-1.099.501-1.099 1.101v53.83c0 1.401 2.198 1.501 2.198 0v-18.21-29.016-6.604l-1.099 1.101h2.597l-1.099-1.101v53.83l1.099-1.101h-2.597c-1.498 0-1.498 2.202 0 2.202z"/>
        <path fill="#DF357F" d="M236.518 196.318h-12.983v2.801h12.983v-2.801z"/>
        <path fill="#333" d="M223.536 200.22h12.983c.599 0 1.098-.5 1.098-1.1v-2.802c0-.6-.499-1.1-1.098-1.1h-12.983c-.6 0-1.099.5-1.099 1.1v2.802c0 1.4 2.197 1.501 2.197 0v-2.802l-1.098 1.101h12.983l-1.099-1.101v2.802l1.099-1.101h-12.983c-1.498 0-1.498 2.201 0 2.201zM249.302 143.389c-.1-4.303-2.697-8.105-6.692-9.606-3.895-1.5-8.688-.3-11.385 3.002-1.598 1.901-2.397 4.202-2.397 6.604 0 1.401 2.197 1.401 2.197 0 .1-4.403 3.596-8.005 7.99-8.005s7.89 3.602 7.99 8.005c.099 1.501 2.297 1.501 2.297 0z"/>
        <path fill="#fff" d="M248.203 148.291c-2.397 0-4.295-1.901-4.295-4.303h8.589c0 2.302-1.897 4.303-4.294 4.303z"/>
        <path fill="#333" d="M248.203 147.091c-.5 0-.799 0-1.298-.3l-.2-.1c-.1-.101-.2-.101-.3-.201 0 0-.299-.2-.1-.1l-.299-.3c-.3-.3-.5-.6-.699-1-.2-.401-.2-.801-.3-1.301l-1.099 1.101h8.689l-1.098-1.101c0 .5 0 .8-.3 1.301l-.1.2c-.1.1-.1.2-.2.3 0 0-.199.3-.1.1l-.299.3c-.3.3-.599.5-.999.701-.399.4-.899.4-1.298.4-1.398 0-1.498 2.301 0 2.201 2.996 0 5.393-2.501 5.393-5.403 0-.6-.5-1.101-1.099-1.101h-8.688c-.6 0-1.099.501-1.099 1.101 0 3.002 2.497 5.403 5.393 5.403 1.498.1 1.498-2.101.1-2.201zM212.949 143.389c.1-4.403 3.596-8.005 7.99-8.005s7.89 3.602 7.99 8.005c0 1.401 2.297 1.501 2.197 0-.1-4.303-2.697-8.105-6.692-9.606-3.894-1.5-8.688-.3-11.385 3.002-1.598 1.901-2.397 4.202-2.397 6.604 0 1.501 2.297 1.501 2.297 0z"/>
        <path fill="#fff" d="M211.851 148.291c2.397 0 4.294-1.901 4.294-4.302h-8.589c-.1 2.301 1.898 4.302 4.295 4.302z"/>
        <path fill="#333" d="M211.85 149.392c2.996 0 5.393-2.501 5.393-5.403 0-.6-.499-1.101-1.098-1.101h-8.689c-.599 0-1.099.501-1.099 1.101 0 2.902 2.497 5.303 5.493 5.403 1.398 0 1.398-2.201 0-2.201-.499 0-.799 0-1.298-.3l-.2-.1c-.1-.1-.2-.1-.299-.201 0 0-.3-.2-.1-.1l-.3-.3c-.299-.3-.499-.6-.699-1-.2-.401-.2-.801-.3-1.301l-1.098 1.101h8.689l-1.099-1.101c0 .5 0 .8-.3 1.301l-.099.2c-.1.1-.1.2-.2.3 0 0-.2.3-.1.1l-.3.3c-.299.3-.599.5-.998.701-.4.2-.799.2-1.299.3-1.498.1-1.498 2.301 0 2.301z"/>
        <path fill="#DF357F" d="M95.401 193.516c2.397-3.302 5.094-6.804 9.089-7.504.699-.1 1.398-.1 1.997-.4.799-.4 1.398-1.101 1.997-1.801 1.598-1.801 3.596-3.302 5.993-3.602 2.396-.3 4.993 1 5.692 3.302.3 1 .4 2.301 1.299 2.701.599.3 1.398 0 2.097-.2 4.094-1.101 8.888 3.602 10.486 7.504h-38.65z"/>
        <path fill="#333" d="M96.4 194.117c1.897-2.601 3.995-5.603 7.091-6.604 1.498-.5 3.096-.4 4.394-1.4 1.398-1.101 2.297-2.602 3.795-3.602 2.796-1.801 6.591-1.401 7.59 2.101.3 1.301.899 2.501 2.297 2.801 1.498.301 2.896-.7 4.394-.2 3.196.901 5.793 4.103 6.991 7.004.3-.6.6-1.1.999-1.701h-38.55c-1.398 0-1.498 2.201 0 2.201h38.55c.899 0 1.298-.9.999-1.701-1.299-2.901-3.596-5.703-6.492-7.204-1.298-.7-2.896-1.2-4.394-1-.799.1-1.998.8-2.497 0-.399-.6-.399-1.501-.699-2.101-1.398-3.102-5.393-4.203-8.389-3.102-1.698.6-3.196 1.701-4.394 3.002-.6.7-1.199 1.601-1.898 2.101-.799.5-1.997.4-2.896.7-3.895 1.101-6.592 4.603-8.789 7.805-.899.9 1.099 2.001 1.898.9z"/>
        <path fill="#fff" d="M205.858 65.645h60.621c2.497 0 4.494 2 4.494 4.502s-1.997 4.503-4.494 4.503h-4.294c-2.597.3-4.594 2.201-4.594 4.502 0 2.502 2.396 4.503 5.393 4.503h12.783c2.497 0 4.494 2 4.494 4.502s-1.997 4.503-4.494 4.503h-53.63c-2.497 0-4.495-2.001-4.495-4.503 0-2.501 1.998-4.502 4.495-4.502h.898c2.997 0 5.393-2.001 5.393-4.503 0-2.301-1.997-4.102-4.594-4.502h-18.076c-2.497 0-4.494-2.001-4.494-4.503.1-2.501 2.097-4.502 4.594-4.502z"/>
        <path fill="#333" d="M205.857 66.746H266.479c3.395.1 4.694 4.703 1.598 6.404-1.598.9-3.995.3-5.693.4-2.696.1-5.493 2.101-5.892 4.903-.4 3.201 2.297 5.703 5.293 6.203 1.398.2 2.896.1 4.294.1h6.692c1.298 0 2.996-.3 4.194.2 3.396 1.301 2.597 6.304-.999 6.504h-53.43c-1.498 0-2.996-.7-3.496-2.201-.599-1.501.1-3.202 1.399-4.103 1.098-.7 2.297-.4 3.595-.6 2.896-.3 5.692-2.601 5.593-5.703-.1-3.002-2.897-5.203-5.793-5.403-3.196-.2-6.491 0-9.787 0h-6.092c-1.199 0-2.597.2-3.596-.3-3.195-1.601-1.897-6.304 1.498-6.404 1.399-.1 1.499-2.301 0-2.201-3.195.1-5.792 2.701-5.592 6.003.199 3.002 2.696 5.203 5.592 5.303 3.496.1 7.091 0 10.587 0h5.992c1.698 0 3.396.2 4.494 1.801.999 1.501.3 3.202-1.098 4.102-1.199.8-2.497.7-3.796.8-3.195.201-5.692 2.903-5.393 6.104.3 2.902 2.697 5.003 5.593 5.103H271.372c1.598 0 3.196.1 4.794 0 3.196-.2 5.593-3.102 5.193-6.303-.299-2.902-2.796-4.903-5.592-5.003-3.795-.1-7.59 0-11.385 0-1.998 0-4.195-.1-5.294-2.101-.898-1.601 0-3.302 1.498-4.103.999-.6 1.898-.6 3.096-.6 2.297 0 4.694.2 6.592-1.4 2.397-2.102 2.497-5.904.2-8.205-1.798-1.801-4.095-1.601-6.492-1.601H205.758c-1.299 0-1.299 2.301.099 2.301z"/>
        <path fill="#fff" d="M191.476 74.65c2.482 0 4.494-2.016 4.494-4.503 0-2.486-2.012-4.502-4.494-4.502-2.482 0-4.495 2.016-4.495 4.502 0 2.487 2.013 4.503 4.495 4.503z"/>
        <path fill="#333" d="M197.069 70.148c0-2.401-1.498-4.502-3.695-5.303-2.097-.8-4.794-.1-6.192 1.701-1.498 1.801-1.798 4.402-.499 6.504 1.198 2.1 3.595 3.101 5.892 2.601 2.597-.5 4.494-2.901 4.494-5.503 0-1.4-2.197-1.4-2.197 0s-.899 2.702-2.197 3.202c-.2.1-.4.1-.599.2h-.4c-.499 0-.699 0-1.099-.1-.399-.1-.499-.2-.898-.4-.3-.2-.5-.4-.799-.7.1.1 0 0 0-.1-.1-.1-.1-.2-.2-.301 0-.1-.1-.1-.1-.2 0 0-.2-.3-.1-.2-.1-.2-.1-.4-.2-.6-.099-.3-.099-.3-.099-.5 0-.401 0-.701.099-1.001.1-.5.2-.7.4-1.101.699-1.2 2.197-1.901 3.495-1.6 1.698.3 2.797 1.7 2.797 3.301-.1 1.5 2.097 1.5 2.097.1z"/>
    </g>
</svg>
