<svg width="70" height="70" viewBox="0 0 70 70" fill="none" xmlns="http://www.w3.org/2000/svg">
<circle cx="35" cy="35" r="35" fill="#DF357F"/>
<path d="M22.9609 46C22.7005 46 22.4818 45.9115 22.3047 45.7344C22.1276 45.5469 22.0391 45.3281 22.0391 45.0781V36.5781C22.0391 36.5052 21.9974 36.4688 21.9141 36.4688H19.7422C19.4818 36.4688 19.263 36.3802 19.0859 36.2031C18.9089 36.0156 18.8203 35.7969 18.8203 35.5469V35.0156C18.8203 34.7656 18.9089 34.5521 19.0859 34.375C19.263 34.1875 19.4818 34.0938 19.7422 34.0938H27.2109C27.4609 34.0938 27.6745 34.1875 27.8516 34.375C28.0391 34.5521 28.1328 34.7656 28.1328 35.0156V35.5469C28.1328 35.7969 28.0391 36.0156 27.8516 36.2031C27.6745 36.3802 27.4609 36.4688 27.2109 36.4688H25.0078C24.9349 36.4688 24.8984 36.5052 24.8984 36.5781V45.0781C24.8984 45.3281 24.8047 45.5469 24.6172 45.7344C24.4401 45.9115 24.2266 46 23.9766 46H22.9609ZM38.3516 44.5469C37.3516 45.6615 36.0286 46.2188 34.3828 46.2188C32.7474 46.2188 31.4297 45.6615 30.4297 44.5469C29.4297 43.4323 28.9297 41.9115 28.9297 39.9844C28.9297 38.0677 29.4245 36.5729 30.4141 35.5C31.4141 34.4167 32.737 33.875 34.3828 33.875C36.0391 33.875 37.362 34.4167 38.3516 35.5C39.3516 36.5729 39.8516 38.0677 39.8516 39.9844C39.8516 41.9115 39.3516 43.4323 38.3516 44.5469ZM32.5391 42.75C32.987 43.4271 33.6016 43.7656 34.3828 43.7656C35.1745 43.7656 35.7943 43.4271 36.2422 42.75C36.7005 42.0625 36.9297 41.1406 36.9297 39.9844C36.9297 38.8385 36.7005 37.9427 36.2422 37.2969C35.7943 36.6406 35.1745 36.3125 34.3828 36.3125C33.6016 36.3125 32.987 36.6406 32.5391 37.2969C32.0911 37.9427 31.8672 38.8385 31.8672 39.9844C31.8672 41.151 32.0911 42.0729 32.5391 42.75ZM42.9609 46C42.7109 46 42.4922 45.9115 42.3047 45.7344C42.1276 45.5469 42.0391 45.3281 42.0391 45.0781V35.0156C42.0391 34.7656 42.1276 34.5521 42.3047 34.375C42.4922 34.1875 42.7109 34.0938 42.9609 34.0938H46.2109C46.8984 34.0938 47.5182 34.1615 48.0703 34.2969C48.6328 34.4219 49.138 34.6302 49.5859 34.9219C50.0339 35.2135 50.3828 35.6198 50.6328 36.1406C50.8828 36.651 51.0078 37.2604 51.0078 37.9688C51.0078 38.6562 50.8776 39.2656 50.6172 39.7969C50.3672 40.3281 50.0234 40.7552 49.5859 41.0781C49.1484 41.401 48.6484 41.6458 48.0859 41.8125C47.5339 41.9688 46.9349 42.0469 46.2891 42.0469H45.0234C44.9401 42.0469 44.8984 42.0885 44.8984 42.1719V45.0781C44.8984 45.3281 44.8099 45.5469 44.6328 45.7344C44.4557 45.9115 44.237 46 43.9766 46H42.9609ZM44.8984 39.6719C44.8984 39.7552 44.9401 39.7969 45.0234 39.7969H46.1484C47.5234 39.7969 48.2109 39.1875 48.2109 37.9688C48.2109 37.3854 48.0339 36.974 47.6797 36.7344C47.3255 36.4844 46.7891 36.3594 46.0703 36.3594H45.0234C44.9401 36.3594 44.8984 36.3958 44.8984 36.4688V39.6719Z" fill="white"/>
<path d="M41 21.6077L41 25L35.5 21.3923L30 25L30 21.6077L35.5 18L41 21.6077Z" fill="white"/>
</svg>
