<svg width="50" height="50" viewBox="0 0 50 50" fill="none" xmlns="http://www.w3.org/2000/svg">
<circle cx="25" cy="25" r="25" fill="#DF357F"/>
<path d="M14.4658 34C14.238 34 14.0465 33.9225 13.8916 33.7676C13.7367 33.6035 13.6592 33.4121 13.6592 33.1934V25.7559C13.6592 25.6921 13.6227 25.6602 13.5498 25.6602H11.6494C11.4215 25.6602 11.2301 25.5827 11.0752 25.4277C10.9202 25.2637 10.8428 25.0723 10.8428 24.8535V24.3887C10.8428 24.1699 10.9202 23.9831 11.0752 23.8281C11.2301 23.6641 11.4215 23.582 11.6494 23.582H18.1846C18.4033 23.582 18.5902 23.6641 18.7451 23.8281C18.9092 23.9831 18.9912 24.1699 18.9912 24.3887V24.8535C18.9912 25.0723 18.9092 25.2637 18.7451 25.4277C18.5902 25.5827 18.4033 25.6602 18.1846 25.6602H16.2568C16.193 25.6602 16.1611 25.6921 16.1611 25.7559V33.1934C16.1611 33.4121 16.0791 33.6035 15.915 33.7676C15.7601 33.9225 15.5732 34 15.3545 34H14.4658ZM27.9326 32.7285C27.0576 33.7038 25.9001 34.1914 24.46 34.1914C23.029 34.1914 21.876 33.7038 21.001 32.7285C20.126 31.7533 19.6885 30.4225 19.6885 28.7363C19.6885 27.0592 20.1214 25.7513 20.9873 24.8125C21.8623 23.8646 23.0199 23.3906 24.46 23.3906C25.9092 23.3906 27.0667 23.8646 27.9326 24.8125C28.8076 25.7513 29.2451 27.0592 29.2451 28.7363C29.2451 30.4225 28.8076 31.7533 27.9326 32.7285ZM22.8467 31.1562C23.2386 31.7487 23.7764 32.0449 24.46 32.0449C25.1527 32.0449 25.695 31.7487 26.0869 31.1562C26.488 30.5547 26.6885 29.748 26.6885 28.7363C26.6885 27.7337 26.488 26.9499 26.0869 26.3848C25.695 25.8105 25.1527 25.5234 24.46 25.5234C23.7764 25.5234 23.2386 25.8105 22.8467 26.3848C22.4548 26.9499 22.2588 27.7337 22.2588 28.7363C22.2588 29.7572 22.4548 30.5638 22.8467 31.1562ZM31.9658 34C31.7471 34 31.5557 33.9225 31.3916 33.7676C31.2367 33.6035 31.1592 33.4121 31.1592 33.1934V24.3887C31.1592 24.1699 31.2367 23.9831 31.3916 23.8281C31.5557 23.6641 31.7471 23.582 31.9658 23.582H34.8096C35.4111 23.582 35.9535 23.6413 36.4365 23.7598C36.9287 23.8691 37.3708 24.0514 37.7627 24.3066C38.1546 24.5618 38.46 24.9173 38.6787 25.373C38.8975 25.8197 39.0068 26.3529 39.0068 26.9727C39.0068 27.5742 38.8929 28.1074 38.665 28.5723C38.4463 29.0371 38.1455 29.4108 37.7627 29.6934C37.3799 29.9759 36.9424 30.1901 36.4502 30.3359C35.9671 30.4727 35.443 30.541 34.8779 30.541H33.7705C33.6976 30.541 33.6611 30.5775 33.6611 30.6504V33.1934C33.6611 33.4121 33.5837 33.6035 33.4287 33.7676C33.2738 33.9225 33.0824 34 32.8545 34H31.9658ZM33.6611 28.4629C33.6611 28.5358 33.6976 28.5723 33.7705 28.5723H34.7549C35.958 28.5723 36.5596 28.0391 36.5596 26.9727C36.5596 26.4622 36.4046 26.1022 36.0947 25.8926C35.7848 25.6738 35.3154 25.5645 34.6865 25.5645H33.7705C33.6976 25.5645 33.6611 25.5964 33.6611 25.6602V28.4629Z" fill="white"/>
<path d="M31 14.6077L31 18L25.5 14.3923L20 18L20 14.6077L25.5 11L31 14.6077Z" fill="white"/>
</svg>
