<svg xmlns="http://www.w3.org/2000/svg" width="171" height="40" viewBox="0 0 171 40">
    <g fill="none" fill-rule="evenodd">
        <g fill="#FFF">
            <g>
                <path d="M58.39 31.267h14.72v1.469h2.809V20.984c.112-.452-.225-.904-.787-1.017H56.479c-.675 0-.899.34-.899 1.017v11.752h2.81v-1.47zm15.843-14.125c.787.678 1.46 1.582 2.134 2.373l2.136-1.808c-2.472-2.938-5.17-5.762-8.09-8.362L68.39 11.38l3.37 3.164-12.472.79c1.46-2.033 2.81-4.18 3.933-6.326l-2.36-1.583c-1.573 2.825-3.37 5.538-5.281 8.136h-2.36c.337 1.017.562 1.921.787 2.825l20.226-1.243zm-15.844 11.3V23.13c0-.226.113-.339.337-.339H72.66c.337 0 .45.113.45.339v5.31H58.39zM101.113 17.82v3.616c0 1.921-.338 3.729-.9 5.537-.898 2.146-2.247 4.067-3.82 5.763l-2.135-2.034c1.461-1.469 2.697-3.164 3.484-5.085.45-1.356.786-2.712.786-4.18V9.232c0-.565.225-.904.674-.904 2.922 0 5.844-.226 8.653-.678l.898 2.711c-2.36.34-4.83.565-7.192.565-.336 0-.448.227-.448.566v3.616h7.865v2.71h-2.36v14.917h-2.696V17.82h-2.81zm-8.315 14.916h-2.586v-6.554c-1.123 1.695-2.36 3.164-3.707 4.633l-2.248-1.469c1.91-1.695 3.596-3.503 4.944-5.65h-4.27v-2.599h5.281v-1.92h-5.168v-2.6h3.034c-.338-1.13-.9-2.146-1.461-3.163l2.135-1.13c.674 1.13 1.236 2.372 1.686 3.616l-1.573.677h3.258c.675-1.468 1.236-2.937 1.686-4.406l2.36 1.017c-.338 1.13-.675 2.26-1.237 3.39h2.472v2.598h-4.606v1.921h4.606v2.599H93.81c1.123 1.017 2.134 2.147 3.146 3.277l-1.91 1.808-2.247-2.712v6.667zM90.326 7.764h2.696v1.694h4.27v2.6h-11.91v-2.6h4.944V7.764zM129.59 13.074v-2.033c-.112-.34.112-.565.562-.565h5.618c.338 0 .562.225.562.565v2.033h-6.742zm-9.664 15.932l-3.933.565.337 2.713 8.878-1.921.673 2.598c2.81-.565 5.507-1.355 8.09-2.373l-.785-2.598-3.596 1.356v-8.588h1.798c.112 3.39 1.348 6.667 3.596 9.153 1.124 1.016 2.247 2.033 3.483 2.825l2.247-1.921c-1.798-1.017-3.37-2.26-4.72-3.842 1.462-1.243 2.81-2.486 4.047-3.955l-1.798-1.921c-1.012 1.356-2.248 2.486-3.597 3.503-.336-1.243-.675-2.486-.675-3.842h4.16c.56 0 .785-.339.785-.904V8.668c0-.565-.225-.792-.786-.792h-10.45c-.337-.112-.675.227-.787.565v21.582l-1.236.227h.449l-.449-2.6-3.146.792v-7.119h3.37v-2.486h-3.37v-2.26h2.471V13.98h-7.19c1.46-.905 2.809-2.148 3.932-3.503l3.484 2.938 1.685-2.148-4.494-3.502h-1.91c-1.35 1.808-3.147 3.163-5.057 4.294l1.685 2.259h.112v2.373h2.697v2.26h-3.708v2.486h3.708v7.57zm4.045-6.78c-.336 1.357-.787 2.713-1.348 3.955l2.023 1.018c.448-1.243 1.011-2.6 1.46-4.181l-2.135-.792zm-8.54.679c.562 1.695 1.012 3.503 1.35 5.311l2.47-.679c-.224-1.807-.786-3.615-1.46-5.31l-2.36.678zm20.901-7.232v1.808c.112.339-.112.565-.45.678h-6.292v-2.486h6.742zM155.269 17.918v-2.824H171v2.824h-3.258v12.317c0 .339-.112.79-.338 1.016-.337.34-.673.679-1.124.905-1.572.79-4.269.79-7.978-.113v-2.938l1.462.452c2.36.565 4.045.565 4.944.113.112-.226.225-.452.225-.678V17.918h-9.664zm1.011-6.44h13.82V8.653h-13.82v2.825zm-8.09 12.655l-2.135-1.92c2.584-1.922 4.606-4.52 5.956-7.458l2.359 1.242c-.562 1.13-1.124 2.26-1.799 3.277v13.108h-2.696v-9.718l-1.685 1.47zm5.393-15.48c-1.124 2.825-2.81 5.424-4.944 7.57l-2.247-1.694c2.135-1.92 3.708-4.294 4.72-6.893l2.47 1.017zM22.25 0c-5.956 0-10.9 4.859-11.012 10.847-.225 4.633 2.359 9.04 6.63 10.96 2.808 1.244 7.865 2.147 7.752 6.78-.112 4.633-4.27 6.441-8.203 6.441h-6.854V14.69H4.832V5.084h5.73V0H0v19.774h5.619V40h13.147c6.517 0 11.798-5.198 12.024-11.752.112-5.763-4.384-8.813-9.776-10.62-2.922-.792-4.944-3.617-4.832-6.668.224-3.163 2.81-5.763 5.955-5.876h15.056v9.379h4.72V0H22.25z" transform="translate(-424.000000, -10.000000) translate(424.000000, 10.000000)"/>
                <path d="M32.7 11.977c-2.36-1.694-5.057-2.711-7.866-2.938h-.224c-1.35 0-2.473 1.13-2.473 2.486 0 .792.337 1.582.899 2.034.562.34 1.235.679 1.91.791 5.843 1.47 10.675 7.119 11.012 12.43.45 4.971-1.572 9.943-5.393 13.22h6.067c2.698-2.712 4.495-7.232 4.382-12.994-.225-6.102-3.37-11.639-8.314-15.029" transform="translate(-424.000000, -10.000000) translate(424.000000, 10.000000)"/>
            </g>
        </g>
    </g>
</svg>
